<svg width="216" height="216" viewBox="0 0 216 216" fill="none" xmlns="http://www.w3.org/2000/svg">
<g filter="url(#filter0_d_176_1219)">
<rect x="53" y="49" width="110" height="110" rx="20" fill="white" fill-opacity="0.3" shape-rendering="crispEdges"/>
</g>
<path d="M75.984 141.016H71.792L71.12 143H68.256L72.32 131.768H75.488L79.552 143H76.656L75.984 141.016ZM75.28 138.904L73.888 134.792L72.512 138.904H75.28ZM85.7649 140.68V143H84.3729C83.3809 143 82.6075 142.76 82.0529 142.28C81.4982 141.789 81.2209 140.995 81.2209 139.896V136.344H80.1329V134.072H81.2209V131.896H83.9569V134.072H85.7489V136.344H83.9569V139.928C83.9569 140.195 84.0209 140.387 84.1489 140.504C84.2769 140.621 84.4902 140.68 84.7889 140.68H85.7649ZM90.0249 131.16V143H87.2889V131.16H90.0249ZM91.4636 138.52C91.4636 137.603 91.6343 136.797 91.9756 136.104C92.3276 135.411 92.8023 134.877 93.3996 134.504C93.997 134.131 94.6636 133.944 95.3996 133.944C96.029 133.944 96.5783 134.072 97.0476 134.328C97.5276 134.584 97.8956 134.92 98.1516 135.336V134.072H100.888V143H98.1516V141.736C97.885 142.152 97.5116 142.488 97.0316 142.744C96.5623 143 96.013 143.128 95.3836 143.128C94.6583 143.128 93.997 142.941 93.3996 142.568C92.8023 142.184 92.3276 141.645 91.9756 140.952C91.6343 140.248 91.4636 139.437 91.4636 138.52ZM98.1516 138.536C98.1516 137.853 97.9596 137.315 97.5756 136.92C97.2023 136.525 96.7436 136.328 96.1996 136.328C95.6556 136.328 95.1916 136.525 94.8076 136.92C94.4343 137.304 94.2476 137.837 94.2476 138.52C94.2476 139.203 94.4343 139.747 94.8076 140.152C95.1916 140.547 95.6556 140.744 96.1996 140.744C96.7436 140.744 97.2023 140.547 97.5756 140.152C97.9596 139.757 98.1516 139.219 98.1516 138.536ZM106.499 143.128C105.72 143.128 105.027 142.995 104.419 142.728C103.811 142.461 103.331 142.099 102.979 141.64C102.627 141.171 102.43 140.648 102.387 140.072H105.091C105.123 140.381 105.267 140.632 105.523 140.824C105.779 141.016 106.094 141.112 106.467 141.112C106.808 141.112 107.07 141.048 107.251 140.92C107.443 140.781 107.539 140.605 107.539 140.392C107.539 140.136 107.406 139.949 107.139 139.832C106.872 139.704 106.44 139.565 105.843 139.416C105.203 139.267 104.67 139.112 104.243 138.952C103.816 138.781 103.448 138.52 103.139 138.168C102.83 137.805 102.675 137.32 102.675 136.712C102.675 136.2 102.814 135.736 103.091 135.32C103.379 134.893 103.795 134.557 104.339 134.312C104.894 134.067 105.55 133.944 106.307 133.944C107.427 133.944 108.307 134.221 108.947 134.776C109.598 135.331 109.971 136.067 110.067 136.984H107.539C107.496 136.675 107.358 136.429 107.123 136.248C106.899 136.067 106.6 135.976 106.227 135.976C105.907 135.976 105.662 136.04 105.491 136.168C105.32 136.285 105.235 136.451 105.235 136.664C105.235 136.92 105.368 137.112 105.635 137.24C105.912 137.368 106.339 137.496 106.915 137.624C107.576 137.795 108.115 137.965 108.531 138.136C108.947 138.296 109.31 138.563 109.619 138.936C109.939 139.299 110.104 139.789 110.115 140.408C110.115 140.931 109.966 141.4 109.667 141.816C109.379 142.221 108.958 142.541 108.403 142.776C107.859 143.011 107.224 143.128 106.499 143.128ZM115.421 143.128C114.642 143.128 113.949 142.995 113.341 142.728C112.733 142.461 112.253 142.099 111.901 141.64C111.549 141.171 111.352 140.648 111.309 140.072H114.013C114.045 140.381 114.189 140.632 114.445 140.824C114.701 141.016 115.016 141.112 115.389 141.112C115.73 141.112 115.992 141.048 116.173 140.92C116.365 140.781 116.461 140.605 116.461 140.392C116.461 140.136 116.328 139.949 116.061 139.832C115.794 139.704 115.362 139.565 114.765 139.416C114.125 139.267 113.592 139.112 113.165 138.952C112.738 138.781 112.37 138.52 112.061 138.168C111.752 137.805 111.597 137.32 111.597 136.712C111.597 136.2 111.736 135.736 112.013 135.32C112.301 134.893 112.717 134.557 113.261 134.312C113.816 134.067 114.472 133.944 115.229 133.944C116.349 133.944 117.229 134.221 117.869 134.776C118.52 135.331 118.893 136.067 118.989 136.984H116.461C116.418 136.675 116.28 136.429 116.045 136.248C115.821 136.067 115.522 135.976 115.149 135.976C114.829 135.976 114.584 136.04 114.413 136.168C114.242 136.285 114.157 136.451 114.157 136.664C114.157 136.92 114.29 137.112 114.557 137.24C114.834 137.368 115.261 137.496 115.837 137.624C116.498 137.795 117.037 137.965 117.453 138.136C117.869 138.296 118.232 138.563 118.541 138.936C118.861 139.299 119.026 139.789 119.037 140.408C119.037 140.931 118.888 141.4 118.589 141.816C118.301 142.221 117.88 142.541 117.325 142.776C116.781 143.011 116.146 143.128 115.421 143.128ZM122.087 133.144C121.607 133.144 121.212 133.005 120.903 132.728C120.604 132.44 120.455 132.088 120.455 131.672C120.455 131.245 120.604 130.893 120.903 130.616C121.212 130.328 121.607 130.184 122.087 130.184C122.556 130.184 122.94 130.328 123.239 130.616C123.548 130.893 123.703 131.245 123.703 131.672C123.703 132.088 123.548 132.44 123.239 132.728C122.94 133.005 122.556 133.144 122.087 133.144ZM123.447 134.072V143H120.711V134.072H123.447ZM124.886 138.52C124.886 137.603 125.056 136.797 125.398 136.104C125.75 135.411 126.224 134.877 126.822 134.504C127.419 134.131 128.086 133.944 128.822 133.944C129.451 133.944 130 134.072 130.47 134.328C130.95 134.584 131.318 134.92 131.574 135.336V134.072H134.31V143H131.574V141.736C131.307 142.152 130.934 142.488 130.454 142.744C129.984 143 129.435 143.128 128.806 143.128C128.08 143.128 127.419 142.941 126.822 142.568C126.224 142.184 125.75 141.645 125.398 140.952C125.056 140.248 124.886 139.437 124.886 138.52ZM131.574 138.536C131.574 137.853 131.382 137.315 130.998 136.92C130.624 136.525 130.166 136.328 129.622 136.328C129.078 136.328 128.614 136.525 128.23 136.92C127.856 137.304 127.67 137.837 127.67 138.52C127.67 139.203 127.856 139.747 128.23 140.152C128.614 140.547 129.078 140.744 129.622 140.744C130.166 140.744 130.624 140.547 130.998 140.152C131.382 139.757 131.574 139.219 131.574 138.536ZM141.729 133.976C142.774 133.976 143.606 134.317 144.225 135C144.854 135.672 145.169 136.6 145.169 137.784V143H142.449V138.152C142.449 137.555 142.294 137.091 141.985 136.76C141.676 136.429 141.26 136.264 140.737 136.264C140.214 136.264 139.798 136.429 139.489 136.76C139.18 137.091 139.025 137.555 139.025 138.152V143H136.289V134.072H139.025V135.256C139.302 134.861 139.676 134.552 140.145 134.328C140.614 134.093 141.142 133.976 141.729 133.976Z" fill="white"/>
<g clip-path="url(#clip0_176_1219)">
<path d="M108.514 61.0001C109.11 61.3601 109.461 61.9032 109.769 62.5194C118.361 79.6892 126.968 96.8528 135.569 114.02C136.528 115.935 135.872 116.976 133.704 116.976C127.781 116.979 121.857 116.96 115.934 116.991C114.767 116.997 114.041 116.588 113.513 115.524C110.539 109.517 107.388 103.595 104.53 97.5331C98.8386 85.4643 99.6904 73.6822 106.453 62.2479C106.795 61.6682 107.272 61.3021 107.834 60.9971H108.517L108.514 61.0001Z" fill="#2781FE"/>
<path d="M102.35 115.633C102.209 116.246 101.901 116.695 101.232 116.802C100.875 116.375 100.374 116.512 99.9591 116.564C98.9149 116.692 98.06 116.295 97.202 115.789C95.3548 114.697 93.4648 113.675 91.639 112.546C88.9857 110.908 86.1003 109.648 83.6577 107.665C84.5462 105.639 85.5294 103.662 86.6224 101.74L86.6347 101.99C86.7293 102.689 87.2881 102.954 87.8132 103.256C92.4572 105.926 97.1043 108.589 101.736 111.277C102.994 112.009 103.089 112.003 103.556 110.645C103.593 110.535 103.782 110.477 103.898 110.398C103.739 111.899 103.351 113.336 102.762 114.724C102.328 114.892 101.996 115.108 102.35 115.633Z" fill="#217CF6"/>
<path d="M104.136 105.166L104.155 105.621C103.66 105.596 103.379 106.295 102.71 105.886C100.387 104.467 98.0144 103.131 95.6542 101.771C93.404 100.471 91.1476 99.1774 88.8943 97.8808C88.9218 97.1974 89.6362 96.7337 89.4958 95.9985L89.5721 96.0107L89.4988 95.9893C90.3751 95.1199 90.7201 93.9606 91.1903 92.8714L91.6178 92.4199C91.8804 92.4199 92.1277 92.4474 92.372 92.5908C95.3184 94.3175 98.28 96.0198 101.217 97.7618C101.773 98.0913 102.255 98.134 102.784 97.7893C103.443 99.5831 103.843 101.435 103.953 103.345C103.684 103.985 103.382 104.629 104.133 105.166H104.136Z" fill="#1168E2"/>
<path d="M88.8942 97.8777C91.1475 99.1743 93.4039 100.468 95.6541 101.767C98.0112 103.128 100.387 104.464 102.71 105.883C103.379 106.292 103.66 105.593 104.154 105.617C104.28 107.222 104.203 108.815 103.898 110.398C103.779 110.48 103.593 110.538 103.556 110.645C103.089 112.003 102.994 112.009 101.736 111.277C97.1044 108.586 92.4573 105.926 87.8133 103.256C87.2882 102.954 86.7294 102.689 86.6348 101.99C87.2424 100.953 87.9599 99.9614 88.14 98.7289V98.7105C88.198 98.7105 88.253 98.7044 88.311 98.7014L88.2225 98.5641C88.2499 98.4878 88.2744 98.4116 88.3019 98.3384C88.6255 98.3475 88.6652 97.9875 88.8972 97.8777H88.8942Z" fill="#156EE7"/>
<path d="M83.6577 107.668C86.1003 109.651 88.9857 110.911 91.639 112.549C93.4648 113.678 95.3548 114.7 97.202 115.792C98.0569 116.298 98.9119 116.695 99.9591 116.567C100.374 116.515 100.875 116.378 101.232 116.805C100.866 117.101 100.432 116.973 100.029 116.973C94.1213 116.982 88.2102 116.979 82.3021 116.973C80.1129 116.973 79.4564 115.887 80.461 113.907C81.5174 111.82 82.5921 109.745 83.6608 107.668H83.6577Z" fill="#2781FE"/>
<path d="M102.787 97.7894C102.258 98.1341 101.776 98.0914 101.22 97.7619C98.2831 96.0199 95.3214 94.3176 92.375 92.5909C92.1307 92.4475 91.8834 92.42 91.6208 92.42C91.7766 92.0448 91.9445 91.6756 92.0788 91.2943C92.3506 90.5164 93.0498 89.9123 93.004 89.0093C93.1231 88.7561 93.2421 88.5028 93.3612 88.2496C93.4162 88.2496 93.4742 88.2435 93.5291 88.2405L93.4559 88.1032C93.578 87.4625 94.097 87.0903 94.4909 86.648C95.0619 86.0073 95.7244 86.169 96.3168 86.6205C96.8297 87.011 97.2572 87.4961 97.59 88.0544C97.5991 88.2618 97.5991 88.4784 97.9136 88.4113L97.9411 88.4479C97.8434 88.695 98.0052 88.75 98.1945 88.7805C98.2587 88.814 98.2922 88.8659 98.2922 88.9361C98.2922 89.1466 98.2709 89.3784 98.6067 89.3143L98.625 89.3632C98.5731 89.5401 98.6586 89.6164 98.8235 89.6347L98.964 89.8665C98.9365 90.1442 99.025 90.3364 99.3304 90.3699C100.344 91.9594 101.339 93.558 101.907 95.3732C101.62 95.9742 101.926 96.3525 102.396 96.6667C102.567 96.804 102.591 96.9962 102.582 97.1975C102.301 97.4691 102.396 97.588 102.747 97.6063C102.799 97.6613 102.811 97.7223 102.787 97.7894Z" fill="#0959D0"/>
<path d="M93.0038 89.0061C93.0496 89.9091 92.3504 90.5132 92.0787 91.2911C91.9444 91.6725 91.7734 92.0416 91.6207 92.4169C91.4772 92.5664 91.3337 92.7189 91.1902 92.8684C91.1841 92.7891 91.178 92.7097 91.1719 92.6304C91.697 91.3796 92.2833 90.1593 93.0008 89.0061H93.0038Z" fill="#217CF6"/>
<path d="M91.1749 92.6335C91.181 92.7129 91.1871 92.7922 91.1932 92.8715C90.723 93.9637 90.378 95.1199 89.5017 95.9894C89.9689 94.824 90.5307 93.7074 91.1749 92.6335Z" fill="#2781FE"/>
<path d="M88.14 98.7289C87.9599 99.9644 87.2454 100.953 86.6348 101.99C86.6317 101.908 86.6287 101.825 86.6226 101.74C87.0286 100.687 87.5233 99.6746 88.137 98.7258L88.14 98.7289Z" fill="#2781FE"/>
<path d="M88.8942 97.8778C88.6622 97.9876 88.6225 98.3476 88.2988 98.3385C88.6408 97.53 88.9919 96.7246 89.4957 95.9985C89.6331 96.7338 88.9186 97.1975 88.8912 97.8809L88.8942 97.8778Z" fill="#2781FE"/>
<path d="M104.136 105.166C103.385 104.626 103.684 103.982 103.956 103.345C104.16 103.937 104.191 104.55 104.136 105.166Z" fill="#156EE7"/>
<path d="M102.396 96.6666C101.926 96.3523 101.62 95.974 101.907 95.373C102.197 95.7574 102.347 96.1907 102.396 96.6666Z" fill="#1168E2"/>
<path d="M102.35 115.633C101.999 115.109 102.329 114.895 102.762 114.724C102.674 115.048 102.6 115.38 102.35 115.633Z" fill="#2781FE"/>
<path d="M99.3303 90.3698C99.025 90.3332 98.9365 90.141 98.964 89.8665L99.3303 90.3698Z" fill="#156EE7"/>
<path d="M102.747 97.6031C102.396 97.5879 102.304 97.4659 102.582 97.1943L102.747 97.6031Z" fill="#1168E2"/>
<path d="M98.6035 89.3112C98.2677 89.3752 98.2921 89.1434 98.2891 88.9329C98.3929 89.0579 98.4967 89.1861 98.6035 89.3112Z" fill="#156EE7"/>
<path d="M98.1944 88.7774C98.0051 88.7469 97.8464 88.6919 97.941 88.4448C98.0265 88.5547 98.109 88.6675 98.1944 88.7774Z" fill="#156EE7"/>
<path d="M97.9167 88.4082C97.6022 88.4753 97.6022 88.2587 97.593 88.0513L97.9167 88.4082Z" fill="#156EE7"/>
<path d="M88.2194 98.5642L88.308 98.7015C88.2499 98.7015 88.195 98.7076 88.137 98.7106C88.1278 98.6405 88.1553 98.5947 88.2194 98.5673V98.5642Z" fill="#2781FE"/>
<path d="M98.8234 89.6346C98.6585 89.6163 98.57 89.54 98.6249 89.363C98.6921 89.4546 98.7593 89.5461 98.8234 89.6346Z" fill="#156EE7"/>
<path d="M93.4557 88.1001L93.529 88.2374C93.474 88.2374 93.416 88.2435 93.361 88.2465C93.358 88.1733 93.3885 88.1245 93.4557 88.1001Z" fill="#217CF6"/>
</g>
<defs>
<filter id="filter0_d_176_1219" x="0" y="0" width="216" height="216" filterUnits="userSpaceOnUse" color-interpolation-filters="sRGB">
<feFlood flood-opacity="0" result="BackgroundImageFix"/>
<feColorMatrix in="SourceAlpha" type="matrix" values="0 0 0 0 0 0 0 0 0 0 0 0 0 0 0 0 0 0 127 0" result="hardAlpha"/>
<feMorphology radius="8" operator="dilate" in="SourceAlpha" result="effect1_dropShadow_176_1219"/>
<feOffset dy="4"/>
<feGaussianBlur stdDeviation="22.5"/>
<feComposite in2="hardAlpha" operator="out"/>
<feColorMatrix type="matrix" values="0 0 0 0 1 0 0 0 0 1 0 0 0 0 1 0 0 0 0.25 0"/>
<feBlend mode="normal" in2="BackgroundImageFix" result="effect1_dropShadow_176_1219"/>
<feBlend mode="normal" in="SourceGraphic" in2="effect1_dropShadow_176_1219" result="shape"/>
</filter>
<clipPath id="clip0_176_1219">
<rect width="56" height="56" fill="white" transform="translate(80 61)"/>
</clipPath>
</defs>
</svg>
