<svg width="110" height="110" viewBox="0 0 110 110" fill="none" xmlns="http://www.w3.org/2000/svg">
<rect width="110" height="110" rx="20" fill="white" fill-opacity="0.3"/>
<path d="M22.984 92.016H18.792L18.12 94H15.256L19.32 82.768H22.488L26.552 94H23.656L22.984 92.016ZM22.28 89.904L20.888 85.792L19.512 89.904H22.28ZM32.7649 91.68V94H31.3729C30.3809 94 29.6075 93.76 29.0529 93.28C28.4982 92.7893 28.2209 91.9947 28.2209 90.896V87.344H27.1329V85.072H28.2209V82.896H30.9569V85.072H32.7489V87.344H30.9569V90.928C30.9569 91.1947 31.0209 91.3867 31.1489 91.504C31.2769 91.6213 31.4902 91.68 31.7889 91.68H32.7649ZM37.0249 82.16V94H34.2889V82.16H37.0249ZM38.4636 89.52C38.4636 88.6027 38.6343 87.7973 38.9756 87.104C39.3276 86.4107 39.8023 85.8773 40.3996 85.504C40.997 85.1307 41.6636 84.944 42.3996 84.944C43.029 84.944 43.5783 85.072 44.0476 85.328C44.5276 85.584 44.8956 85.92 45.1516 86.336V85.072H47.8876V94H45.1516V92.736C44.885 93.152 44.5116 93.488 44.0316 93.744C43.5623 94 43.013 94.128 42.3836 94.128C41.6583 94.128 40.997 93.9413 40.3996 93.568C39.8023 93.184 39.3276 92.6453 38.9756 91.952C38.6343 91.248 38.4636 90.4373 38.4636 89.52ZM45.1516 89.536C45.1516 88.8533 44.9596 88.3147 44.5756 87.92C44.2023 87.5253 43.7436 87.328 43.1996 87.328C42.6556 87.328 42.1916 87.5253 41.8076 87.92C41.4343 88.304 41.2476 88.8373 41.2476 89.52C41.2476 90.2027 41.4343 90.7467 41.8076 91.152C42.1916 91.5467 42.6556 91.744 43.1996 91.744C43.7436 91.744 44.2023 91.5467 44.5756 91.152C44.9596 90.7573 45.1516 90.2187 45.1516 89.536ZM53.499 94.128C52.7203 94.128 52.027 93.9947 51.419 93.728C50.811 93.4613 50.331 93.0987 49.979 92.64C49.627 92.1707 49.4297 91.648 49.387 91.072H52.091C52.123 91.3813 52.267 91.632 52.523 91.824C52.779 92.016 53.0937 92.112 53.467 92.112C53.8083 92.112 54.0697 92.048 54.251 91.92C54.443 91.7813 54.539 91.6053 54.539 91.392C54.539 91.136 54.4057 90.9493 54.139 90.832C53.8723 90.704 53.4403 90.5653 52.843 90.416C52.203 90.2667 51.6697 90.112 51.243 89.952C50.8163 89.7813 50.4483 89.52 50.139 89.168C49.8297 88.8053 49.675 88.32 49.675 87.712C49.675 87.2 49.8137 86.736 50.091 86.32C50.379 85.8933 50.795 85.5573 51.339 85.312C51.8937 85.0667 52.5497 84.944 53.307 84.944C54.427 84.944 55.307 85.2213 55.947 85.776C56.5977 86.3307 56.971 87.0667 57.067 87.984H54.539C54.4963 87.6747 54.3577 87.4293 54.123 87.248C53.899 87.0667 53.6003 86.976 53.227 86.976C52.907 86.976 52.6617 87.04 52.491 87.168C52.3203 87.2853 52.235 87.4507 52.235 87.664C52.235 87.92 52.3683 88.112 52.635 88.24C52.9123 88.368 53.339 88.496 53.915 88.624C54.5763 88.7947 55.115 88.9653 55.531 89.136C55.947 89.296 56.3097 89.5627 56.619 89.936C56.939 90.2987 57.1043 90.7893 57.115 91.408C57.115 91.9307 56.9657 92.4 56.667 92.816C56.379 93.2213 55.9577 93.5413 55.403 93.776C54.859 94.0107 54.2243 94.128 53.499 94.128ZM62.4209 94.128C61.6422 94.128 60.9489 93.9947 60.3409 93.728C59.7329 93.4613 59.2529 93.0987 58.9009 92.64C58.5489 92.1707 58.3515 91.648 58.3089 91.072H61.0129C61.0449 91.3813 61.1889 91.632 61.4449 91.824C61.7009 92.016 62.0155 92.112 62.3889 92.112C62.7302 92.112 62.9915 92.048 63.1729 91.92C63.3649 91.7813 63.4609 91.6053 63.4609 91.392C63.4609 91.136 63.3275 90.9493 63.0609 90.832C62.7942 90.704 62.3622 90.5653 61.7649 90.416C61.1249 90.2667 60.5915 90.112 60.1649 89.952C59.7382 89.7813 59.3702 89.52 59.0609 89.168C58.7515 88.8053 58.5969 88.32 58.5969 87.712C58.5969 87.2 58.7355 86.736 59.0129 86.32C59.3009 85.8933 59.7169 85.5573 60.2609 85.312C60.8155 85.0667 61.4715 84.944 62.2289 84.944C63.3489 84.944 64.2289 85.2213 64.8689 85.776C65.5195 86.3307 65.8929 87.0667 65.9889 87.984H63.4609C63.4182 87.6747 63.2795 87.4293 63.0449 87.248C62.8209 87.0667 62.5222 86.976 62.1489 86.976C61.8289 86.976 61.5835 87.04 61.4129 87.168C61.2422 87.2853 61.1569 87.4507 61.1569 87.664C61.1569 87.92 61.2902 88.112 61.5569 88.24C61.8342 88.368 62.2609 88.496 62.8369 88.624C63.4982 88.7947 64.0369 88.9653 64.4529 89.136C64.8689 89.296 65.2315 89.5627 65.5409 89.936C65.8609 90.2987 66.0262 90.7893 66.0369 91.408C66.0369 91.9307 65.8875 92.4 65.5889 92.816C65.3009 93.2213 64.8795 93.5413 64.3249 93.776C63.7809 94.0107 63.1462 94.128 62.4209 94.128ZM69.0868 84.144C68.6068 84.144 68.2121 84.0053 67.9028 83.728C67.6041 83.44 67.4548 83.088 67.4548 82.672C67.4548 82.2453 67.6041 81.8933 67.9028 81.616C68.2121 81.328 68.6068 81.184 69.0868 81.184C69.5561 81.184 69.9401 81.328 70.2388 81.616C70.5481 81.8933 70.7028 82.2453 70.7028 82.672C70.7028 83.088 70.5481 83.44 70.2388 83.728C69.9401 84.0053 69.5561 84.144 69.0868 84.144ZM70.4468 85.072V94H67.7108V85.072H70.4468ZM71.8855 89.52C71.8855 88.6027 72.0562 87.7973 72.3975 87.104C72.7495 86.4107 73.2242 85.8773 73.8215 85.504C74.4188 85.1307 75.0855 84.944 75.8215 84.944C76.4508 84.944 77.0002 85.072 77.4695 85.328C77.9495 85.584 78.3175 85.92 78.5735 86.336V85.072H81.3095V94H78.5735V92.736C78.3068 93.152 77.9335 93.488 77.4535 93.744C76.9842 94 76.4348 94.128 75.8055 94.128C75.0802 94.128 74.4188 93.9413 73.8215 93.568C73.2242 93.184 72.7495 92.6453 72.3975 91.952C72.0562 91.248 71.8855 90.4373 71.8855 89.52ZM78.5735 89.536C78.5735 88.8533 78.3815 88.3147 77.9975 87.92C77.6242 87.5253 77.1655 87.328 76.6215 87.328C76.0775 87.328 75.6135 87.5253 75.2295 87.92C74.8562 88.304 74.6695 88.8373 74.6695 89.52C74.6695 90.2027 74.8562 90.7467 75.2295 91.152C75.6135 91.5467 76.0775 91.744 76.6215 91.744C77.1655 91.744 77.6242 91.5467 77.9975 91.152C78.3815 90.7573 78.5735 90.2187 78.5735 89.536ZM88.7289 84.976C89.7742 84.976 90.6062 85.3173 91.2249 86C91.8542 86.672 92.1689 87.6 92.1689 88.784V94H89.4489V89.152C89.4489 88.5547 89.2942 88.0907 88.9849 87.76C88.6755 87.4293 88.2595 87.264 87.7369 87.264C87.2142 87.264 86.7982 87.4293 86.4889 87.76C86.1795 88.0907 86.0249 88.5547 86.0249 89.152V94H83.2889V85.072H86.0249V86.256C86.3022 85.8613 86.6755 85.552 87.1449 85.328C87.6142 85.0933 88.1422 84.976 88.7289 84.976Z" fill="white"/>
<g clip-path="url(#clip0_413_1050)">
<path d="M55.5145 12.0001C56.1099 12.3601 56.461 12.9032 56.7694 13.5194C65.3613 30.6892 73.9684 47.8528 82.5695 65.0195C83.5282 66.9354 82.8718 67.9757 80.704 67.9757C74.7806 67.9788 68.8573 67.9605 62.9339 67.991C61.7676 67.9971 61.0409 67.5883 60.5127 66.5235C57.5388 60.5166 54.3878 54.595 51.53 48.5331C45.8387 36.4643 46.6905 24.6822 53.4535 13.2479C53.7955 12.6682 54.2718 12.3021 54.8336 11.9971H55.5175L55.5145 12.0001Z" fill="#2781FE"/>
<path d="M49.3499 66.6332C49.2095 67.2464 48.9011 67.6949 48.2324 67.8017C47.8752 67.3746 47.3745 67.5118 46.9592 67.5637C45.915 67.6918 45.0601 67.2952 44.2021 66.7888C42.3549 65.6966 40.4649 64.6746 38.6391 63.5458C35.9858 61.9076 33.1004 60.6476 30.6578 58.6646C31.5463 56.6389 32.5295 54.662 33.6225 52.74L33.6347 52.9902C33.7294 53.6888 34.2881 53.9542 34.8133 54.2562C39.4573 56.9257 44.1044 59.589 48.7362 62.2767C49.9942 63.0089 50.0888 63.0028 50.556 61.6452C50.5926 61.5354 50.7819 61.4774 50.8979 61.3981C50.7392 62.8991 50.3514 64.336 49.7621 65.7241C49.3285 65.8919 48.9957 66.1085 49.3499 66.6332Z" fill="#217CF6"/>
<path d="M51.1361 56.1661L51.1544 56.6206C50.6598 56.5962 50.3789 57.2948 49.7102 56.886C47.3867 55.4674 45.0143 54.1312 42.6541 52.7705C40.4038 51.4709 38.1475 50.1774 35.8942 48.8808C35.9216 48.1974 36.6361 47.7337 36.4957 46.9985L36.572 47.0107L36.4987 46.9893C37.375 46.1199 37.72 44.9606 38.1902 43.8714L38.6177 43.4199C38.8803 43.4199 39.1276 43.4474 39.3718 43.5908C42.3182 45.3175 45.2799 47.0198 48.2172 48.7618C48.7729 49.0913 49.2553 49.134 49.7835 48.7893C50.443 50.5831 50.843 52.435 50.9529 54.3447C50.6842 54.9854 50.3819 55.6291 51.133 56.1661H51.1361Z" fill="#1168E2"/>
<path d="M35.8942 48.8777C38.1475 50.1743 40.4039 51.4678 42.6541 52.7674C45.0112 54.1281 47.3867 55.4643 49.7102 56.8829C50.3789 57.2917 50.6598 56.5931 51.1544 56.6175C51.2796 58.2222 51.2033 59.8147 50.8979 61.3981C50.7789 61.4804 50.5926 61.5384 50.556 61.6452C50.0888 63.0028 49.9942 63.0089 48.7362 62.2767C44.1044 59.5859 39.4573 56.9256 34.8133 54.2562C34.2882 53.9542 33.7294 53.6888 33.6348 52.9901C34.2424 51.9529 34.9599 50.9614 35.14 49.7289V49.7105C35.198 49.7105 35.253 49.7044 35.311 49.7014L35.2225 49.5641C35.2499 49.4878 35.2744 49.4116 35.3019 49.3384C35.6255 49.3475 35.6652 48.9875 35.8972 48.8777H35.8942Z" fill="#156EE7"/>
<path d="M30.6578 58.6677C33.1004 60.6507 35.9858 61.9107 38.6391 63.549C40.4649 64.6777 42.3549 65.6998 44.2021 66.7919C45.057 67.2984 45.912 67.695 46.9592 67.5668C47.3745 67.515 47.8752 67.3777 48.2324 67.8048C47.866 68.1007 47.4325 67.9726 47.0294 67.9726C41.1214 67.9817 35.2102 67.9787 29.3022 67.9726C27.113 67.9726 26.4565 66.8865 27.461 64.9066C28.5175 62.8198 29.5922 60.7453 30.6609 58.6677H30.6578Z" fill="#2781FE"/>
<path d="M49.7865 48.7894C49.2583 49.1341 48.7759 49.0914 48.2202 48.7619C45.283 47.0199 42.3213 45.3176 39.3749 43.5909C39.1306 43.4475 38.8833 43.42 38.6207 43.42C38.7764 43.0448 38.9444 42.6756 39.0787 42.2943C39.3505 41.5164 40.0497 40.9123 40.0039 40.0093C40.1229 39.7561 40.242 39.5028 40.3611 39.2496C40.416 39.2496 40.4741 39.2435 40.529 39.2405L40.4557 39.1032C40.5779 38.4625 41.0969 38.0903 41.4908 37.648C42.0618 37.0073 42.7243 37.169 43.3167 37.6205C43.8296 38.011 44.2571 38.4961 44.5899 39.0544C44.599 39.2618 44.599 39.4784 44.9135 39.4113L44.941 39.4479C44.8433 39.695 45.0051 39.75 45.1944 39.7805C45.2585 39.814 45.2921 39.8659 45.2921 39.9361C45.2921 40.1466 45.2707 40.3784 45.6066 40.3143L45.6249 40.3632C45.573 40.5401 45.6585 40.6164 45.8234 40.6347L45.9638 40.8665C45.9364 41.1442 46.0249 41.3364 46.3302 41.3699C47.3439 42.9594 48.3393 44.558 48.9072 46.3732C48.6202 46.9742 48.9255 47.3525 49.3957 47.6667C49.5667 47.804 49.5911 47.9962 49.582 48.1975C49.3011 48.4691 49.3957 48.588 49.7468 48.6063C49.7987 48.6613 49.811 48.7223 49.7865 48.7894Z" fill="#0959D0"/>
<path d="M40.0039 40.0061C40.0497 40.9091 39.3505 41.5132 39.0787 42.2911C38.9444 42.6725 38.7734 43.0416 38.6207 43.4169C38.4772 43.5664 38.3337 43.7189 38.1902 43.8684C38.1841 43.7891 38.178 43.7097 38.1719 43.6304C38.6971 42.3796 39.2833 41.1593 40.0008 40.0061H40.0039Z" fill="#217CF6"/>
<path d="M38.175 43.6335C38.1811 43.7129 38.1872 43.7922 38.1933 43.8715C37.7231 44.9637 37.3781 46.1199 36.5018 46.9894C36.9689 45.824 37.5307 44.7074 38.175 43.6335Z" fill="#2781FE"/>
<path d="M35.14 49.7289C34.9599 50.9644 34.2454 51.9529 33.6347 52.9902C33.6317 52.9078 33.6286 52.8254 33.6225 52.74C34.0286 51.6875 34.5232 50.6746 35.1369 49.7258L35.14 49.7289Z" fill="#2781FE"/>
<path d="M35.8942 48.8778C35.6621 48.9876 35.6224 49.3476 35.2988 49.3385C35.6408 48.53 35.9919 47.7246 36.4957 46.9985C36.6331 47.7338 35.9186 48.1975 35.8911 48.8809L35.8942 48.8778Z" fill="#2781FE"/>
<path d="M51.1361 56.166C50.385 55.6261 50.6842 54.9823 50.9559 54.3447C51.1605 54.9366 51.191 55.5498 51.1361 56.166Z" fill="#156EE7"/>
<path d="M49.3957 47.6666C48.9255 47.3523 48.6202 46.974 48.9072 46.373C49.1972 46.7574 49.3469 47.1907 49.3957 47.6666Z" fill="#1168E2"/>
<path d="M49.3499 66.6333C48.9988 66.1085 49.3285 65.895 49.7621 65.7241C49.6736 66.0475 49.6003 66.38 49.3499 66.6333Z" fill="#2781FE"/>
<path d="M46.3303 41.3698C46.0249 41.3332 45.9364 41.141 45.9639 40.8665L46.3303 41.3698Z" fill="#156EE7"/>
<path d="M49.7468 48.6031C49.3957 48.5879 49.3041 48.4659 49.582 48.1943L49.7468 48.6031Z" fill="#1168E2"/>
<path d="M45.6036 40.3112C45.2677 40.3752 45.2921 40.1434 45.2891 39.9329C45.3929 40.0579 45.4967 40.1861 45.6036 40.3112Z" fill="#156EE7"/>
<path d="M45.1944 39.7774C45.0051 39.7469 44.8463 39.6919 44.941 39.4448C45.0265 39.5547 45.1089 39.6675 45.1944 39.7774Z" fill="#156EE7"/>
<path d="M44.9166 39.4082C44.6021 39.4753 44.6021 39.2587 44.5929 39.0513L44.9166 39.4082Z" fill="#156EE7"/>
<path d="M35.2194 49.5642L35.308 49.7015C35.2499 49.7015 35.195 49.7076 35.137 49.7106C35.1278 49.6405 35.1553 49.5947 35.2194 49.5673V49.5642Z" fill="#2781FE"/>
<path d="M45.8234 40.6346C45.6585 40.6163 45.57 40.54 45.6249 40.363C45.6921 40.4546 45.7593 40.5461 45.8234 40.6346Z" fill="#156EE7"/>
<path d="M40.4558 39.1001L40.529 39.2374C40.4741 39.2374 40.4161 39.2435 40.3611 39.2465C40.3581 39.1733 40.3886 39.1245 40.4558 39.1001Z" fill="#217CF6"/>
</g>
<defs>
<clipPath id="clip0_413_1050">
<rect width="56" height="56" fill="white" transform="translate(27 12)"/>
</clipPath>
</defs>
</svg>
