<svg width="216" height="216" viewBox="0 0 216 216" fill="none" xmlns="http://www.w3.org/2000/svg">
<g filter="url(#filter0_d_176_1185)">
<rect x="53" y="49" width="110" height="110" rx="20" fill="white" fill-opacity="0.3" shape-rendering="crispEdges"/>
</g>
<path d="M81.2 125.768C82.384 125.768 83.4187 126.003 84.304 126.472C85.1893 126.941 85.872 127.603 86.352 128.456C86.8427 129.299 87.088 130.275 87.088 131.384C87.088 132.483 86.8427 133.459 86.352 134.312C85.872 135.165 85.184 135.827 84.288 136.296C83.4027 136.765 82.3733 137 81.2 137H76.992V125.768H81.2ZM81.024 134.632C82.0587 134.632 82.864 134.349 83.44 133.784C84.016 133.219 84.304 132.419 84.304 131.384C84.304 130.349 84.016 129.544 83.44 128.968C82.864 128.392 82.0587 128.104 81.024 128.104H79.728V134.632H81.024ZM89.993 127.144C89.513 127.144 89.1183 127.005 88.809 126.728C88.5103 126.44 88.361 126.088 88.361 125.672C88.361 125.245 88.5103 124.893 88.809 124.616C89.1183 124.328 89.513 124.184 89.993 124.184C90.4623 124.184 90.8463 124.328 91.145 124.616C91.4543 124.893 91.609 125.245 91.609 125.672C91.609 126.088 91.4543 126.44 91.145 126.728C90.8463 127.005 90.4623 127.144 89.993 127.144ZM91.353 128.072V137H88.617V128.072H91.353ZM96.9678 137.128C96.1891 137.128 95.4958 136.995 94.8878 136.728C94.2798 136.461 93.7998 136.099 93.4478 135.64C93.0958 135.171 92.8984 134.648 92.8558 134.072H95.5598C95.5918 134.381 95.7358 134.632 95.9918 134.824C96.2478 135.016 96.5624 135.112 96.9358 135.112C97.2771 135.112 97.5384 135.048 97.7198 134.92C97.9118 134.781 98.0078 134.605 98.0078 134.392C98.0078 134.136 97.8744 133.949 97.6078 133.832C97.3411 133.704 96.9091 133.565 96.3118 133.416C95.6718 133.267 95.1384 133.112 94.7118 132.952C94.2851 132.781 93.9171 132.52 93.6078 132.168C93.2984 131.805 93.1438 131.32 93.1438 130.712C93.1438 130.2 93.2824 129.736 93.5598 129.32C93.8478 128.893 94.2638 128.557 94.8078 128.312C95.3624 128.067 96.0184 127.944 96.7758 127.944C97.8958 127.944 98.7758 128.221 99.4158 128.776C100.066 129.331 100.44 130.067 100.536 130.984H98.0078C97.9651 130.675 97.8264 130.429 97.5918 130.248C97.3678 130.067 97.0691 129.976 96.6958 129.976C96.3758 129.976 96.1304 130.04 95.9598 130.168C95.7891 130.285 95.7038 130.451 95.7038 130.664C95.7038 130.92 95.8371 131.112 96.1038 131.24C96.3811 131.368 96.8078 131.496 97.3838 131.624C98.0451 131.795 98.5838 131.965 98.9998 132.136C99.4158 132.296 99.7784 132.563 100.088 132.936C100.408 133.299 100.573 133.789 100.584 134.408C100.584 134.931 100.434 135.4 100.136 135.816C99.8478 136.221 99.4264 136.541 98.8718 136.776C98.3278 137.011 97.6931 137.128 96.9678 137.128ZM101.714 132.536C101.714 131.608 101.9 130.797 102.274 130.104C102.658 129.411 103.186 128.877 103.858 128.504C104.54 128.131 105.319 127.944 106.194 127.944C107.314 127.944 108.247 128.237 108.994 128.824C109.751 129.411 110.247 130.237 110.482 131.304H107.57C107.324 130.621 106.85 130.28 106.146 130.28C105.644 130.28 105.244 130.477 104.946 130.872C104.647 131.256 104.498 131.811 104.498 132.536C104.498 133.261 104.647 133.821 104.946 134.216C105.244 134.6 105.644 134.792 106.146 134.792C106.85 134.792 107.324 134.451 107.57 133.768H110.482C110.247 134.813 109.751 135.635 108.994 136.232C108.236 136.829 107.303 137.128 106.194 137.128C105.319 137.128 104.54 136.941 103.858 136.568C103.186 136.195 102.658 135.661 102.274 134.968C101.9 134.275 101.714 133.464 101.714 132.536ZM116.009 137.128C115.134 137.128 114.345 136.941 113.641 136.568C112.948 136.195 112.398 135.661 111.993 134.968C111.598 134.275 111.401 133.464 111.401 132.536C111.401 131.619 111.604 130.813 112.009 130.12C112.414 129.416 112.969 128.877 113.673 128.504C114.377 128.131 115.166 127.944 116.041 127.944C116.916 127.944 117.705 128.131 118.409 128.504C119.113 128.877 119.668 129.416 120.073 130.12C120.478 130.813 120.681 131.619 120.681 132.536C120.681 133.453 120.473 134.264 120.057 134.968C119.652 135.661 119.092 136.195 118.377 136.568C117.673 136.941 116.884 137.128 116.009 137.128ZM116.009 134.76C116.532 134.76 116.974 134.568 117.337 134.184C117.71 133.8 117.897 133.251 117.897 132.536C117.897 131.821 117.716 131.272 117.353 130.888C117.001 130.504 116.564 130.312 116.041 130.312C115.508 130.312 115.065 130.504 114.713 130.888C114.361 131.261 114.185 131.811 114.185 132.536C114.185 133.251 114.356 133.8 114.697 134.184C115.049 134.568 115.486 134.76 116.009 134.76ZM124.869 129.56C125.189 129.069 125.589 128.685 126.069 128.408C126.549 128.12 127.082 127.976 127.669 127.976V130.872H126.917C126.234 130.872 125.722 131.021 125.381 131.32C125.039 131.608 124.869 132.12 124.869 132.856V137H122.133V128.072H124.869V129.56ZM128.432 132.52C128.432 131.603 128.603 130.797 128.944 130.104C129.296 129.411 129.771 128.877 130.368 128.504C130.966 128.131 131.632 127.944 132.368 127.944C132.955 127.944 133.488 128.067 133.968 128.312C134.459 128.557 134.843 128.888 135.12 129.304V125.16H137.856V137H135.12V135.72C134.864 136.147 134.496 136.488 134.016 136.744C133.547 137 132.998 137.128 132.368 137.128C131.632 137.128 130.966 136.941 130.368 136.568C129.771 136.184 129.296 135.645 128.944 134.952C128.603 134.248 128.432 133.437 128.432 132.52ZM135.12 132.536C135.12 131.853 134.928 131.315 134.544 130.92C134.171 130.525 133.712 130.328 133.168 130.328C132.624 130.328 132.16 130.525 131.776 130.92C131.403 131.304 131.216 131.837 131.216 132.52C131.216 133.203 131.403 133.747 131.776 134.152C132.16 134.547 132.624 134.744 133.168 134.744C133.712 134.744 134.171 134.547 134.544 134.152C134.928 133.757 135.12 133.219 135.12 132.536Z" fill="white"/>
<g clip-path="url(#clip0_176_1185)">
<path d="M131.967 116C127.736 112.396 123.584 108.859 119.357 105.258C119.386 105.801 119.577 106.196 119.696 106.603C119.986 107.593 120.292 108.578 120.615 109.557C120.716 109.861 120.65 109.966 120.338 109.934C120.271 109.928 120.202 109.934 120.133 109.934C110.069 109.934 100.002 109.929 89.9377 109.938C87.9433 109.941 86.2714 109.298 85.0406 107.692C84.3139 106.742 84.0065 105.643 84.0052 104.463C83.9997 92.7993 83.9942 81.1351 84.0093 69.4709C84.0134 66.5324 86.408 64.1331 89.3749 64.0109C89.5457 64.0041 89.7151 64.0027 89.8858 64.0027C101.927 64.0014 113.967 64 126.008 64C128.914 64 131.246 65.7938 131.859 68.4892C131.953 68.9019 132 69.3215 132 69.7465C132 84.9657 132 100.186 131.998 115.405C131.998 115.567 131.982 115.728 131.968 116H131.967ZM97.6024 79.5749L97.5054 79.4758C97.7089 79.3237 97.9029 79.158 98.116 79.0209C99.7142 77.9889 101.457 77.2882 103.289 76.7912C103.494 76.7356 103.729 76.741 103.897 76.5699C103.749 76.2223 103.453 76.2997 103.195 76.3228C100.643 76.5482 98.3455 77.4525 96.25 78.8959C96.0779 79.0141 95.9413 79.1553 95.8457 79.3413C93.6505 83.6091 92.3583 88.1159 92.0154 92.912C91.9225 94.2087 92.4334 95.0208 93.3363 95.7676C95.2897 97.3835 97.5723 98.076 100.069 98.1941C100.195 98.1996 100.303 98.1887 100.389 98.0828C100.934 97.4052 101.48 96.729 102.049 96.0229C100.265 95.4471 98.7129 94.6066 97.4876 93.189C97.5723 93.1754 97.6119 93.155 97.6365 93.1673C99.3891 94.0037 101.222 94.6175 103.092 95.124C105.812 95.8613 108.569 96.1519 111.376 95.7038C113.567 95.3548 115.606 94.5876 117.542 93.523C117.78 93.3927 117.993 93.1795 118.325 93.1822C118.296 93.265 118.292 93.3221 118.262 93.3546C118.147 93.4796 118.03 93.6031 117.904 93.7158C116.845 94.6528 115.624 95.3086 114.276 95.7241C113.903 95.8396 113.851 95.955 114.115 96.2551C114.529 96.7263 114.921 97.2178 115.3 97.7162C115.497 97.9755 115.721 98.0556 116.042 98.0339C118.498 97.8764 120.742 97.1608 122.692 95.6223C124.197 94.4342 124.287 94.2345 124.08 92.3376C124.074 92.2873 124.071 92.2358 124.067 92.1855C123.711 87.6909 122.413 83.4693 120.35 79.4676C120.259 79.2897 120.176 79.1064 119.997 78.9815C117.879 77.5082 115.569 76.5536 112.966 76.3757C112.632 76.3526 112.373 76.4124 112.235 76.7681C114.447 77.4362 116.547 78.3012 118.454 79.6862C118.193 79.7962 118.06 79.655 117.912 79.5912C112.941 77.4444 107.81 76.8632 102.495 77.9984C100.81 78.3582 99.1965 78.9299 97.6051 79.5735L97.6024 79.5749Z" fill="#5C6BBF"/>
<path d="M105.763 88.7405C105.777 90.3822 104.552 91.6613 102.964 91.6627C101.415 91.6627 100.149 90.3741 100.143 88.7935C100.139 87.2048 101.425 85.8863 102.99 85.8768C104.494 85.8673 105.75 87.164 105.762 88.7405H105.763Z" fill="#5C6BBF"/>
<path d="M112.962 91.6627C111.403 91.6328 110.208 90.3401 110.235 88.7106C110.261 87.1273 111.571 85.8346 113.11 85.8767C114.637 85.9175 115.902 87.2889 115.852 88.8505C115.803 90.4487 114.526 91.6925 112.962 91.6627Z" fill="#5C6BBF"/>
<path d="M97.6027 79.575C97.5112 79.6551 97.4128 79.6768 97.3076 79.5994C97.3732 79.5587 97.4401 79.5179 97.5057 79.4758C97.5371 79.5084 97.5699 79.541 97.6013 79.575H97.6027Z" fill="#5C6BBF"/>
</g>
<defs>
<filter id="filter0_d_176_1185" x="0" y="0" width="216" height="216" filterUnits="userSpaceOnUse" color-interpolation-filters="sRGB">
<feFlood flood-opacity="0" result="BackgroundImageFix"/>
<feColorMatrix in="SourceAlpha" type="matrix" values="0 0 0 0 0 0 0 0 0 0 0 0 0 0 0 0 0 0 127 0" result="hardAlpha"/>
<feMorphology radius="8" operator="dilate" in="SourceAlpha" result="effect1_dropShadow_176_1185"/>
<feOffset dy="4"/>
<feGaussianBlur stdDeviation="22.5"/>
<feComposite in2="hardAlpha" operator="out"/>
<feColorMatrix type="matrix" values="0 0 0 0 1 0 0 0 0 1 0 0 0 0 1 0 0 0 0.25 0"/>
<feBlend mode="normal" in2="BackgroundImageFix" result="effect1_dropShadow_176_1185"/>
<feBlend mode="normal" in="SourceGraphic" in2="effect1_dropShadow_176_1185" result="shape"/>
</filter>
<clipPath id="clip0_176_1185">
<rect width="48" height="52" fill="white" transform="translate(84 64)"/>
</clipPath>
</defs>
</svg>
