<svg width="110" height="110" viewBox="0 0 110 110" fill="none" xmlns="http://www.w3.org/2000/svg">
<rect width="110" height="110" rx="20" fill="white" fill-opacity="0.3"/>
<path d="M28.2 76.768C29.384 76.768 30.4187 77.0027 31.304 77.472C32.1893 77.9413 32.872 78.6027 33.352 79.456C33.8427 80.2987 34.088 81.2747 34.088 82.384C34.088 83.4827 33.8427 84.4587 33.352 85.312C32.872 86.1653 32.184 86.8267 31.288 87.296C30.4027 87.7653 29.3733 88 28.2 88H23.992V76.768H28.2ZM28.024 85.632C29.0587 85.632 29.864 85.3493 30.44 84.784C31.016 84.2187 31.304 83.4187 31.304 82.384C31.304 81.3493 31.016 80.544 30.44 79.968C29.864 79.392 29.0587 79.104 28.024 79.104H26.728V85.632H28.024ZM36.993 78.144C36.513 78.144 36.1183 78.0053 35.809 77.728C35.5103 77.44 35.361 77.088 35.361 76.672C35.361 76.2453 35.5103 75.8933 35.809 75.616C36.1183 75.328 36.513 75.184 36.993 75.184C37.4623 75.184 37.8463 75.328 38.145 75.616C38.4543 75.8933 38.609 76.2453 38.609 76.672C38.609 77.088 38.4543 77.44 38.145 77.728C37.8463 78.0053 37.4623 78.144 36.993 78.144ZM38.353 79.072V88H35.617V79.072H38.353ZM43.9678 88.128C43.1891 88.128 42.4958 87.9947 41.8878 87.728C41.2798 87.4613 40.7998 87.0987 40.4478 86.64C40.0958 86.1707 39.8984 85.648 39.8558 85.072H42.5598C42.5918 85.3813 42.7358 85.632 42.9918 85.824C43.2478 86.016 43.5624 86.112 43.9358 86.112C44.2771 86.112 44.5384 86.048 44.7198 85.92C44.9118 85.7813 45.0078 85.6053 45.0078 85.392C45.0078 85.136 44.8744 84.9493 44.6078 84.832C44.3411 84.704 43.9091 84.5653 43.3118 84.416C42.6718 84.2667 42.1384 84.112 41.7118 83.952C41.2851 83.7813 40.9171 83.52 40.6078 83.168C40.2984 82.8053 40.1438 82.32 40.1438 81.712C40.1438 81.2 40.2824 80.736 40.5598 80.32C40.8478 79.8933 41.2638 79.5573 41.8078 79.312C42.3624 79.0667 43.0184 78.944 43.7758 78.944C44.8958 78.944 45.7758 79.2213 46.4158 79.776C47.0664 80.3307 47.4398 81.0667 47.5358 81.984H45.0078C44.9651 81.6747 44.8264 81.4293 44.5918 81.248C44.3678 81.0667 44.0691 80.976 43.6958 80.976C43.3758 80.976 43.1304 81.04 42.9598 81.168C42.7891 81.2853 42.7038 81.4507 42.7038 81.664C42.7038 81.92 42.8371 82.112 43.1038 82.24C43.3811 82.368 43.8078 82.496 44.3838 82.624C45.0451 82.7947 45.5838 82.9653 45.9998 83.136C46.4158 83.296 46.7784 83.5627 47.0878 83.936C47.4078 84.2987 47.5731 84.7893 47.5838 85.408C47.5838 85.9307 47.4344 86.4 47.1358 86.816C46.8478 87.2213 46.4264 87.5413 45.8718 87.776C45.3278 88.0107 44.6931 88.128 43.9678 88.128ZM48.7136 83.536C48.7136 82.608 48.9003 81.7973 49.2736 81.104C49.6576 80.4107 50.1856 79.8773 50.8576 79.504C51.5403 79.1307 52.319 78.944 53.1936 78.944C54.3136 78.944 55.247 79.2373 55.9936 79.824C56.751 80.4107 57.247 81.2373 57.4816 82.304H54.5696C54.3243 81.6213 53.8496 81.28 53.1456 81.28C52.6443 81.28 52.2443 81.4773 51.9456 81.872C51.647 82.256 51.4976 82.8107 51.4976 83.536C51.4976 84.2613 51.647 84.8213 51.9456 85.216C52.2443 85.6 52.6443 85.792 53.1456 85.792C53.8496 85.792 54.3243 85.4507 54.5696 84.768H57.4816C57.247 85.8133 56.751 86.6347 55.9936 87.232C55.2363 87.8293 54.303 88.128 53.1936 88.128C52.319 88.128 51.5403 87.9413 50.8576 87.568C50.1856 87.1947 49.6576 86.6613 49.2736 85.968C48.9003 85.2747 48.7136 84.464 48.7136 83.536ZM63.0091 88.128C62.1345 88.128 61.3451 87.9413 60.6411 87.568C59.9478 87.1947 59.3985 86.6613 58.9931 85.968C58.5985 85.2747 58.4011 84.464 58.4011 83.536C58.4011 82.6187 58.6038 81.8133 59.0091 81.12C59.4145 80.416 59.9691 79.8773 60.6731 79.504C61.3771 79.1307 62.1665 78.944 63.0411 78.944C63.9158 78.944 64.7051 79.1307 65.4091 79.504C66.1131 79.8773 66.6678 80.416 67.0731 81.12C67.4785 81.8133 67.6811 82.6187 67.6811 83.536C67.6811 84.4533 67.4731 85.264 67.0571 85.968C66.6518 86.6613 66.0918 87.1947 65.3771 87.568C64.6731 87.9413 63.8838 88.128 63.0091 88.128ZM63.0091 85.76C63.5318 85.76 63.9745 85.568 64.3371 85.184C64.7105 84.8 64.8971 84.2507 64.8971 83.536C64.8971 82.8213 64.7158 82.272 64.3531 81.888C64.0011 81.504 63.5638 81.312 63.0411 81.312C62.5078 81.312 62.0651 81.504 61.7131 81.888C61.3611 82.2613 61.1851 82.8107 61.1851 83.536C61.1851 84.2507 61.3558 84.8 61.6971 85.184C62.0491 85.568 62.4865 85.76 63.0091 85.76ZM71.8686 80.56C72.1886 80.0693 72.5886 79.6853 73.0686 79.408C73.5486 79.12 74.082 78.976 74.6686 78.976V81.872H73.9166C73.234 81.872 72.722 82.0213 72.3806 82.32C72.0393 82.608 71.8686 83.12 71.8686 83.856V88H69.1326V79.072H71.8686V80.56ZM75.4324 83.52C75.4324 82.6027 75.603 81.7973 75.9444 81.104C76.2964 80.4107 76.771 79.8773 77.3684 79.504C77.9657 79.1307 78.6324 78.944 79.3684 78.944C79.955 78.944 80.4884 79.0667 80.9684 79.312C81.459 79.5573 81.843 79.888 82.1204 80.304V76.16H84.8564V88H82.1204V86.72C81.8644 87.1467 81.4964 87.488 81.0164 87.744C80.547 88 79.9977 88.128 79.3684 88.128C78.6324 88.128 77.9657 87.9413 77.3684 87.568C76.771 87.184 76.2964 86.6453 75.9444 85.952C75.603 85.248 75.4324 84.4373 75.4324 83.52ZM82.1204 83.536C82.1204 82.8533 81.9284 82.3147 81.5444 81.92C81.171 81.5253 80.7124 81.328 80.1684 81.328C79.6244 81.328 79.1604 81.5253 78.7764 81.92C78.403 82.304 78.2164 82.8373 78.2164 83.52C78.2164 84.2027 78.403 84.7467 78.7764 85.152C79.1604 85.5467 79.6244 85.744 80.1684 85.744C80.7124 85.744 81.171 85.5467 81.5444 85.152C81.9284 84.7573 82.1204 84.2187 82.1204 83.536Z" fill="white"/>
<g clip-path="url(#clip0_413_1099)">
<path d="M78.9674 67C74.7369 63.3962 70.5842 59.8589 66.3578 56.2578C66.3865 56.801 66.5777 57.1961 66.6966 57.6035C66.9862 58.5934 67.2922 59.5778 67.6159 60.5569C67.717 60.861 67.6501 60.9656 67.3386 60.9344C67.2717 60.9276 67.202 60.9344 67.1337 60.9344C57.069 60.9344 47.0029 60.9289 36.9382 60.9384C34.9438 60.9411 33.2718 60.2975 32.0411 58.6925C31.3144 57.742 31.007 56.6435 31.0056 55.4635C31.0002 43.7993 30.9947 32.1351 31.0097 20.4709C31.0138 17.5324 33.4084 15.1331 36.3754 15.0109C36.5462 15.0041 36.7155 15.0027 36.8863 15.0027C48.9276 15.0014 60.9676 15 73.0089 15C75.9144 15 78.2461 16.7938 78.8595 19.4892C78.9537 19.9019 79.0002 20.3215 79.0002 20.7465C79.0002 35.9657 79.0002 51.1861 78.9988 66.4053C78.9988 66.5668 78.9824 66.7284 78.9688 67H78.9674ZM44.6028 30.5749L44.5059 30.4758C44.7094 30.3237 44.9034 30.158 45.1165 30.0209C46.7147 28.9889 48.4577 28.2882 50.2895 27.7912C50.4944 27.7356 50.7294 27.741 50.8974 27.5699C50.7499 27.2223 50.4534 27.2997 50.1953 27.3228C47.6436 27.5482 45.3459 28.4525 43.2505 29.8959C43.0784 30.0141 42.9418 30.1553 42.8462 30.3413C40.651 34.6091 39.3588 39.1159 39.0159 43.912C38.923 45.2087 39.4339 46.0208 40.3368 46.7676C42.2902 48.3835 44.5728 49.076 47.0698 49.1941C47.1955 49.1996 47.3034 49.1887 47.3895 49.0828C47.9345 48.4052 48.4809 47.729 49.0492 47.0229C47.2652 46.4471 45.7134 45.6066 44.4881 44.189C44.5728 44.1754 44.6124 44.155 44.637 44.1673C46.3896 45.0037 48.2228 45.6175 50.0928 46.124C52.8125 46.8613 55.5691 47.1519 58.3763 46.7038C60.5673 46.3548 62.6068 45.5876 64.5424 44.523C64.7801 44.3927 64.9932 44.1795 65.3251 44.1822C65.2964 44.265 65.2923 44.3221 65.2623 44.3546C65.1475 44.4796 65.0301 44.6031 64.9044 44.7158C63.8457 45.6528 62.6245 46.3086 61.2763 46.7241C60.9034 46.8396 60.8515 46.955 61.1151 47.2551C61.529 47.7263 61.921 48.2178 62.3008 48.7162C62.4975 48.9755 62.7215 49.0556 63.0425 49.0339C65.4986 48.8764 67.7429 48.1608 69.6922 46.6223C71.1976 45.4342 71.2877 45.2345 71.0801 43.3376C71.0746 43.2873 71.0719 43.2358 71.0678 43.1855C70.7113 38.6909 69.4136 34.4693 67.3509 30.4676C67.2594 30.2897 67.1761 30.1064 66.9971 29.9815C64.8798 28.5082 62.5699 27.5536 59.9663 27.3757C59.633 27.3526 59.3734 27.4124 59.2355 27.7681C61.447 28.4362 63.5479 29.3012 65.4549 30.6862C65.194 30.7962 65.0601 30.655 64.9126 30.5912C59.9417 28.4444 54.811 27.8632 49.4959 28.9984C47.8102 29.3582 46.197 29.9299 44.6056 30.5735L44.6028 30.5749Z" fill="#5C6BBF"/>
<path d="M52.7632 39.7405C52.7768 41.3822 51.5515 42.6613 49.9642 42.6627C48.4152 42.6627 47.1489 41.3741 47.1434 39.7935C47.1393 38.2048 48.4248 36.8863 49.9902 36.8768C51.4942 36.8673 52.7495 38.164 52.7618 39.7405H52.7632Z" fill="#5C6BBF"/>
<path d="M59.962 42.6627C58.4034 42.6328 57.2082 41.3401 57.2355 39.7106C57.2614 38.1273 58.5714 36.8346 60.1095 36.8767C61.6367 36.9175 62.9017 38.2889 62.8525 39.8505C62.8033 41.4487 61.5261 42.6925 59.962 42.6627Z" fill="#5C6BBF"/>
<path d="M44.6027 30.575C44.5112 30.6551 44.4128 30.6768 44.3076 30.5994C44.3732 30.5587 44.4401 30.5179 44.5057 30.4758C44.5371 30.5084 44.5699 30.541 44.6013 30.575H44.6027Z" fill="#5C6BBF"/>
</g>
<defs>
<clipPath id="clip0_413_1099">
<rect width="48" height="52" fill="white" transform="translate(31 15)"/>
</clipPath>
</defs>
</svg>
