<svg width="110" height="110" viewBox="0 0 110 110" fill="none" xmlns="http://www.w3.org/2000/svg">
<rect width="110" height="110" rx="20" fill="white" fill-opacity="0.3"/>
<path d="M42.304 80.768V82.96H37.728V85.328H41.152V87.456H37.728V92H34.992V80.768H42.304ZM46.478 80.16V92H43.742V80.16H46.478ZM52.5248 92.128C51.6501 92.128 50.8608 91.9413 50.1568 91.568C49.4634 91.1947 48.9141 90.6613 48.5088 89.968C48.1141 89.2747 47.9168 88.464 47.9168 87.536C47.9168 86.6187 48.1194 85.8133 48.5247 85.12C48.9301 84.416 49.4848 83.8773 50.1888 83.504C50.8928 83.1307 51.6821 82.944 52.5568 82.944C53.4314 82.944 54.2208 83.1307 54.9248 83.504C55.6288 83.8773 56.1834 84.416 56.5888 85.12C56.9941 85.8133 57.1968 86.6187 57.1968 87.536C57.1968 88.4533 56.9888 89.264 56.5728 89.968C56.1674 90.6613 55.6074 91.1947 54.8928 91.568C54.1888 91.9413 53.3994 92.128 52.5248 92.128ZM52.5248 89.76C53.0474 89.76 53.4901 89.568 53.8528 89.184C54.2261 88.8 54.4128 88.2507 54.4128 87.536C54.4128 86.8213 54.2314 86.272 53.8688 85.888C53.5168 85.504 53.0794 85.312 52.5568 85.312C52.0234 85.312 51.5808 85.504 51.2288 85.888C50.8768 86.2613 50.7008 86.8107 50.7008 87.536C50.7008 88.2507 50.8714 88.8 51.2128 89.184C51.5648 89.568 52.0021 89.76 52.5248 89.76ZM58.1043 87.52C58.1043 86.6027 58.2749 85.7973 58.6163 85.104C58.9683 84.4107 59.4429 83.8773 60.0403 83.504C60.6376 83.1307 61.3043 82.944 62.0403 82.944C62.6696 82.944 63.2189 83.072 63.6883 83.328C64.1683 83.584 64.5363 83.92 64.7923 84.336V83.072H67.5283V92H64.7923V90.736C64.5256 91.152 64.1523 91.488 63.6723 91.744C63.2029 92 62.6536 92.128 62.0243 92.128C61.2989 92.128 60.6376 91.9413 60.0403 91.568C59.4429 91.184 58.9683 90.6453 58.6163 89.952C58.2749 89.248 58.1043 88.4373 58.1043 87.52ZM64.7923 87.536C64.7923 86.8533 64.6003 86.3147 64.2163 85.92C63.8429 85.5253 63.3843 85.328 62.8403 85.328C62.2963 85.328 61.8323 85.5253 61.4483 85.92C61.0749 86.304 60.8883 86.8373 60.8883 87.52C60.8883 88.2027 61.0749 88.7467 61.4483 89.152C61.8323 89.5467 62.2963 89.744 62.8403 89.744C63.3843 89.744 63.8429 89.5467 64.2163 89.152C64.6003 88.7573 64.7923 88.2187 64.7923 87.536ZM74.4836 89.68V92H73.0916C72.0996 92 71.3263 91.76 70.7716 91.28C70.217 90.7893 69.9396 89.9947 69.9396 88.896V85.344H68.8516V83.072H69.9396V80.896H72.6756V83.072H74.4676V85.344H72.6756V88.928C72.6756 89.1947 72.7396 89.3867 72.8676 89.504C72.9956 89.6213 73.209 89.68 73.5076 89.68H74.4836Z" fill="white"/>
<g clip-path="url(#clip0_413_1042)">
<path d="M54.9737 26.2403C46.7734 26.2403 38.574 26.2437 30.3737 26.2377C28.9464 26.2368 27.6065 25.894 26.4269 25.0723C25.0385 24.1052 24.2911 22.7482 24.0711 21.1048C23.8961 19.7948 24.0278 18.514 24.6263 17.3143C25.4924 15.5785 26.9474 14.5952 28.8295 14.1814C29.4236 14.0505 30.0273 14.0001 30.6362 14.0001C46.899 14.0001 63.1627 13.9992 79.4255 14.0027C80.8727 14.0027 82.2429 14.3096 83.4555 15.1305C84.9209 16.1232 85.7134 17.5212 85.9291 19.245C86.0824 20.4703 85.9628 21.6708 85.444 22.8063C84.629 24.5926 83.1835 25.6092 81.2867 26.0496C80.6865 26.189 80.0768 26.242 79.4584 26.242C71.2962 26.2394 63.1349 26.2403 54.9728 26.2403H54.9737Z" fill="#1A8FDB"/>
<path d="M61.1974 52.7606C67.3467 52.7606 73.4969 52.7529 79.6463 52.7657C81.2555 52.7691 82.7313 53.2206 83.9742 54.2706C85.1088 55.23 85.7306 56.4715 85.9229 57.9209C86.0866 59.159 85.9766 60.3757 85.4587 61.5301C84.7 63.2205 83.3618 64.2389 81.5829 64.7271C80.8926 64.917 80.1841 64.9999 79.4687 64.9999C67.2835 65.0016 55.0983 65.0025 42.9131 64.9991C41.6919 64.9991 40.5157 64.7699 39.4288 64.191C38.0291 63.4454 37.1033 62.3142 36.6702 60.805C36.2528 59.3497 36.277 57.8961 36.84 56.4844C37.616 54.5383 39.1187 53.4198 41.148 52.9478C41.7109 52.817 42.2826 52.7606 42.862 52.7606C48.9732 52.7623 55.0853 52.7614 61.1965 52.7614L61.1974 52.7606Z" fill="#1A8FDB"/>
<path d="M70.4751 45.6236C67.4689 45.6236 64.4635 45.6236 61.4572 45.6236C60.3365 45.6236 59.2504 45.4483 58.2362 44.9584C56.4364 44.0896 55.4196 42.6403 55.094 40.7138C54.8515 39.2765 54.9883 37.8725 55.6665 36.5583C56.549 34.849 58.0058 33.8965 59.8809 33.5202C60.4326 33.4099 60.9921 33.3757 61.5551 33.3757C67.5442 33.3774 73.5333 33.3757 79.5215 33.3766C80.7306 33.3766 81.8912 33.5895 82.9608 34.1684C84.5995 35.0568 85.5479 36.4428 85.8744 38.2393C86.1135 39.5535 86.0225 40.8558 85.4916 42.0973C84.6714 44.0161 83.1488 45.0729 81.1212 45.4799C80.5765 45.5894 80.0248 45.6236 79.4696 45.6236C76.4711 45.6227 73.4727 45.6236 70.4751 45.6236Z" fill="#1A8FDB"/>
</g>
<defs>
<clipPath id="clip0_413_1042">
<rect width="62" height="51" fill="white" transform="translate(24 14)"/>
</clipPath>
</defs>
</svg>
