<svg width="216" height="216" viewBox="0 0 216 216" fill="none" xmlns="http://www.w3.org/2000/svg">
<g filter="url(#filter0_d_176_1157)">
<rect x="53" y="49" width="110" height="110" rx="20" fill="white" fill-opacity="0.3" shape-rendering="crispEdges"/>
</g>
<path d="M95.304 129.768V131.96H90.728V134.328H94.152V136.456H90.728V141H87.992V129.768H95.304ZM99.478 129.16V141H96.742V129.16H99.478ZM105.525 141.128C104.65 141.128 103.861 140.941 103.157 140.568C102.463 140.195 101.914 139.661 101.509 138.968C101.114 138.275 100.917 137.464 100.917 136.536C100.917 135.619 101.119 134.813 101.525 134.12C101.93 133.416 102.485 132.877 103.189 132.504C103.893 132.131 104.682 131.944 105.557 131.944C106.431 131.944 107.221 132.131 107.925 132.504C108.629 132.877 109.183 133.416 109.589 134.12C109.994 134.813 110.197 135.619 110.197 136.536C110.197 137.453 109.989 138.264 109.573 138.968C109.167 139.661 108.607 140.195 107.893 140.568C107.189 140.941 106.399 141.128 105.525 141.128ZM105.525 138.76C106.047 138.76 106.49 138.568 106.853 138.184C107.226 137.8 107.413 137.251 107.413 136.536C107.413 135.821 107.231 135.272 106.869 134.888C106.517 134.504 106.079 134.312 105.557 134.312C105.023 134.312 104.581 134.504 104.229 134.888C103.877 135.261 103.701 135.811 103.701 136.536C103.701 137.251 103.871 137.8 104.213 138.184C104.565 138.568 105.002 138.76 105.525 138.76ZM111.104 136.52C111.104 135.603 111.275 134.797 111.616 134.104C111.968 133.411 112.443 132.877 113.04 132.504C113.638 132.131 114.304 131.944 115.04 131.944C115.67 131.944 116.219 132.072 116.688 132.328C117.168 132.584 117.536 132.92 117.792 133.336V132.072H120.528V141H117.792V139.736C117.526 140.152 117.152 140.488 116.672 140.744C116.203 141 115.654 141.128 115.024 141.128C114.299 141.128 113.638 140.941 113.04 140.568C112.443 140.184 111.968 139.645 111.616 138.952C111.275 138.248 111.104 137.437 111.104 136.52ZM117.792 136.536C117.792 135.853 117.6 135.315 117.216 134.92C116.843 134.525 116.384 134.328 115.84 134.328C115.296 134.328 114.832 134.525 114.448 134.92C114.075 135.304 113.888 135.837 113.888 136.52C113.888 137.203 114.075 137.747 114.448 138.152C114.832 138.547 115.296 138.744 115.84 138.744C116.384 138.744 116.843 138.547 117.216 138.152C117.6 137.757 117.792 137.219 117.792 136.536ZM127.484 138.68V141H126.092C125.1 141 124.326 140.76 123.772 140.28C123.217 139.789 122.94 138.995 122.94 137.896V134.344H121.852V132.072H122.94V129.896H125.676V132.072H127.468V134.344H125.676V137.928C125.676 138.195 125.74 138.387 125.868 138.504C125.996 138.621 126.209 138.68 126.508 138.68H127.484Z" fill="white"/>
<g clip-path="url(#clip0_176_1157)">
<path d="M107.974 75.2403C99.7733 75.2403 91.5739 75.2437 83.3737 75.2377C81.9463 75.2368 80.6065 74.894 79.4268 74.0723C78.0385 73.1052 77.291 71.7482 77.071 70.1048C76.8961 68.7948 77.0277 67.514 77.6262 66.3143C78.4923 64.5785 79.9474 63.5952 81.8294 63.1814C82.4235 63.0505 83.0272 63.0001 83.6361 63.0001C99.8989 63.0001 116.163 62.9992 132.425 63.0027C133.873 63.0027 135.243 63.3096 136.455 64.1305C137.921 65.1232 138.713 66.5212 138.929 68.245C139.082 69.4703 138.963 70.6708 138.444 71.8063C137.629 73.5926 136.183 74.6092 134.287 75.0496C133.686 75.189 133.077 75.242 132.458 75.242C124.296 75.2394 116.135 75.2403 107.973 75.2403H107.974Z" fill="#1A8FDB"/>
<path d="M114.197 101.761C120.347 101.761 126.497 101.753 132.646 101.766C134.255 101.769 135.731 102.221 136.974 103.271C138.109 104.23 138.731 105.472 138.923 106.921C139.087 108.159 138.977 109.376 138.459 110.53C137.7 112.221 136.362 113.239 134.583 113.727C133.893 113.917 133.184 114 132.469 114C120.283 114.002 108.098 114.002 95.9131 113.999C94.6918 113.999 93.5157 113.77 92.4287 113.191C91.0291 112.445 90.1032 111.314 89.6702 109.805C89.2527 108.35 89.277 106.896 89.8399 105.484C90.616 103.538 92.1187 102.42 94.1479 101.948C94.7109 101.817 95.2825 101.761 95.862 101.761C101.973 101.762 108.085 101.761 114.196 101.761L114.197 101.761Z" fill="#1A8FDB"/>
<path d="M123.475 94.6236C120.469 94.6236 117.463 94.6236 114.457 94.6236C113.336 94.6236 112.25 94.4483 111.236 93.9584C109.436 93.0896 108.42 91.6403 108.094 89.7138C107.851 88.2765 107.988 86.8725 108.666 85.5583C109.549 83.849 111.006 82.8965 112.881 82.5202C113.433 82.4099 113.992 82.3757 114.555 82.3757C120.544 82.3774 126.533 82.3757 132.521 82.3766C133.731 82.3766 134.891 82.5895 135.961 83.1684C137.599 84.0568 138.548 85.4428 138.874 87.2393C139.113 88.5535 139.022 89.8558 138.492 91.0973C137.671 93.0161 136.149 94.0729 134.121 94.4799C133.576 94.5894 133.025 94.6236 132.469 94.6236C129.471 94.6227 126.473 94.6236 123.475 94.6236Z" fill="#1A8FDB"/>
</g>
<defs>
<filter id="filter0_d_176_1157" x="0" y="0" width="216" height="216" filterUnits="userSpaceOnUse" color-interpolation-filters="sRGB">
<feFlood flood-opacity="0" result="BackgroundImageFix"/>
<feColorMatrix in="SourceAlpha" type="matrix" values="0 0 0 0 0 0 0 0 0 0 0 0 0 0 0 0 0 0 127 0" result="hardAlpha"/>
<feMorphology radius="8" operator="dilate" in="SourceAlpha" result="effect1_dropShadow_176_1157"/>
<feOffset dy="4"/>
<feGaussianBlur stdDeviation="22.5"/>
<feComposite in2="hardAlpha" operator="out"/>
<feColorMatrix type="matrix" values="0 0 0 0 1 0 0 0 0 1 0 0 0 0 1 0 0 0 0.25 0"/>
<feBlend mode="normal" in2="BackgroundImageFix" result="effect1_dropShadow_176_1157"/>
<feBlend mode="normal" in="SourceGraphic" in2="effect1_dropShadow_176_1157" result="shape"/>
</filter>
<clipPath id="clip0_176_1157">
<rect width="62" height="51" fill="white" transform="translate(77 63)"/>
</clipPath>
</defs>
</svg>
