<svg width="216" height="216" viewBox="0 0 216 216" fill="none" xmlns="http://www.w3.org/2000/svg">
<g filter="url(#filter0_d_176_865)">
<rect x="53" y="49" width="110" height="110" rx="20" fill="white" fill-opacity="0.3" shape-rendering="crispEdges"/>
</g>
<path d="M87.448 129.32C87.2453 128.947 86.952 128.664 86.568 128.472C86.1947 128.269 85.752 128.168 85.24 128.168C84.3547 128.168 83.6453 128.461 83.112 129.048C82.5787 129.624 82.312 130.397 82.312 131.368C82.312 132.403 82.5893 133.213 83.144 133.8C83.7093 134.376 84.4827 134.664 85.464 134.664C86.136 134.664 86.7013 134.493 87.16 134.152C87.6293 133.811 87.9707 133.32 88.184 132.68H84.712V130.664H90.664V133.208C90.4613 133.891 90.1147 134.525 89.624 135.112C89.144 135.699 88.5307 136.173 87.784 136.536C87.0373 136.899 86.1947 137.08 85.256 137.08C84.1467 137.08 83.1547 136.84 82.28 136.36C81.416 135.869 80.7387 135.192 80.248 134.328C79.768 133.464 79.528 132.477 79.528 131.368C79.528 130.259 79.768 129.272 80.248 128.408C80.7387 127.533 81.416 126.856 82.28 126.376C83.144 125.885 84.1307 125.64 85.24 125.64C86.584 125.64 87.7147 125.965 88.632 126.616C89.56 127.267 90.1733 128.168 90.472 129.32H87.448ZM91.6355 132.52C91.6355 131.603 91.8062 130.797 92.1475 130.104C92.4995 129.411 92.9742 128.877 93.5715 128.504C94.1688 128.131 94.8355 127.944 95.5715 127.944C96.2008 127.944 96.7502 128.072 97.2195 128.328C97.6995 128.584 98.0675 128.92 98.3235 129.336V128.072H101.06V137H98.3235V135.736C98.0568 136.152 97.6835 136.488 97.2035 136.744C96.7342 137 96.1848 137.128 95.5555 137.128C94.8302 137.128 94.1688 136.941 93.5715 136.568C92.9742 136.184 92.4995 135.645 92.1475 134.952C91.8062 134.248 91.6355 133.437 91.6355 132.52ZM98.3235 132.536C98.3235 131.853 98.1315 131.315 97.7475 130.92C97.3742 130.525 96.9155 130.328 96.3715 130.328C95.8275 130.328 95.3635 130.525 94.9795 130.92C94.6062 131.304 94.4195 131.837 94.4195 132.52C94.4195 133.203 94.6062 133.747 94.9795 134.152C95.3635 134.547 95.8275 134.744 96.3715 134.744C96.9155 134.744 97.3742 134.547 97.7475 134.152C98.1315 133.757 98.3235 133.219 98.3235 132.536ZM108.015 134.68V137H106.623C105.631 137 104.858 136.76 104.303 136.28C103.748 135.789 103.471 134.995 103.471 133.896V130.344H102.383V128.072H103.471V125.896H106.207V128.072H107.999V130.344H106.207V133.928C106.207 134.195 106.271 134.387 106.399 134.504C106.527 134.621 106.74 134.68 107.039 134.68H108.015ZM115.027 127.976C116.051 127.976 116.872 128.317 117.491 129C118.11 129.672 118.419 130.6 118.419 131.784V137H115.699V132.152C115.699 131.555 115.544 131.091 115.235 130.76C114.926 130.429 114.51 130.264 113.987 130.264C113.464 130.264 113.048 130.429 112.739 130.76C112.43 131.091 112.275 131.555 112.275 132.152V137H109.539V125.16H112.275V129.272C112.552 128.877 112.931 128.563 113.411 128.328C113.891 128.093 114.43 127.976 115.027 127.976ZM128.736 132.392C128.736 132.648 128.72 132.915 128.688 133.192H122.496C122.539 133.747 122.715 134.173 123.024 134.472C123.344 134.76 123.733 134.904 124.192 134.904C124.875 134.904 125.349 134.616 125.616 134.04H128.528C128.379 134.627 128.107 135.155 127.712 135.624C127.328 136.093 126.843 136.461 126.256 136.728C125.669 136.995 125.013 137.128 124.288 137.128C123.413 137.128 122.635 136.941 121.952 136.568C121.269 136.195 120.736 135.661 120.352 134.968C119.968 134.275 119.776 133.464 119.776 132.536C119.776 131.608 119.963 130.797 120.336 130.104C120.72 129.411 121.253 128.877 121.936 128.504C122.619 128.131 123.403 127.944 124.288 127.944C125.152 127.944 125.92 128.125 126.592 128.488C127.264 128.851 127.787 129.368 128.16 130.04C128.544 130.712 128.736 131.496 128.736 132.392ZM125.936 131.672C125.936 131.203 125.776 130.829 125.456 130.552C125.136 130.275 124.736 130.136 124.256 130.136C123.797 130.136 123.408 130.269 123.088 130.536C122.779 130.803 122.587 131.181 122.512 131.672H125.936ZM132.916 129.56C133.236 129.069 133.636 128.685 134.116 128.408C134.596 128.12 135.129 127.976 135.716 127.976V130.872H134.964C134.281 130.872 133.769 131.021 133.428 131.32C133.086 131.608 132.916 132.12 132.916 132.856V137H130.18V128.072H132.916V129.56Z" fill="white"/>
<g clip-path="url(#clip0_176_865)">
<path d="M123.728 108.377C122.254 108.541 120.818 108.477 119.44 107.827C116.635 106.503 115.065 103.515 115.583 100.448C116.092 97.4423 118.571 95.1382 121.614 94.8444C124.646 94.5517 127.523 96.3537 128.606 99.2214C129.711 102.148 128.761 105.356 126.251 107.182C126.038 107.339 125.837 107.514 125.63 107.679L123.728 108.377ZM121.07 98.4621C119.327 99.0986 118.436 101.009 119.067 102.76C119.708 104.539 121.645 105.444 123.412 104.785C125.141 104.139 126.025 102.197 125.38 100.46C124.733 98.7197 122.809 97.8276 121.073 98.4612L121.07 98.4621Z" fill="black"/>
<path d="M112.255 95.7118C113.499 99.3166 111.631 103.183 108.045 104.422C104.523 105.639 100.663 103.72 99.4234 100.136C98.2088 96.6278 100.107 92.7015 103.592 91.5103C107.165 90.2901 111.033 92.1658 112.258 95.7109L112.255 95.7118ZM108.886 96.7735C108.263 95.0278 106.342 94.1115 104.6 94.7213C102.869 95.3299 101.954 97.2603 102.569 99.0147C103.195 100.8 105.132 101.728 106.895 101.081C108.627 100.446 109.515 98.5284 108.885 96.7709L108.886 96.7735Z" fill="black"/>
<path d="M111.501 75.872C107.925 77.1224 104.04 75.23 102.798 71.639C101.569 68.0837 103.443 64.2328 107.007 62.981C110.482 61.7617 114.408 63.671 115.628 67.1716C116.87 70.7395 115.018 74.643 111.498 75.8729L111.501 75.872ZM107.986 66.2082C106.243 66.8386 105.346 68.7479 105.964 70.504C106.59 72.2744 108.549 73.1914 110.31 72.5373C112.042 71.8935 112.925 69.9631 112.288 68.217C111.652 66.476 109.728 65.5753 107.985 66.2057L107.986 66.2082Z" fill="black"/>
<path d="M96.4177 75.6166C99.9361 74.3352 103.852 76.17 105.141 79.7005C106.432 83.2386 104.621 87.159 101.107 88.4446C97.5931 89.7303 93.6712 87.8947 92.385 84.3634C91.095 80.8218 92.9069 76.8953 96.4177 75.6166ZM101.886 80.9402C101.267 79.173 99.3749 78.243 97.6296 78.8511C95.8479 79.4697 94.93 81.3925 95.5618 83.1782C96.1749 84.913 98.1078 85.8367 99.8505 85.2295C101.586 84.6251 102.502 82.6972 101.887 80.9428L101.886 80.9402Z" fill="black"/>
<path d="M90.6759 101.017C87.1464 102.299 83.2625 100.473 81.9722 96.9229C80.6847 93.3804 82.4988 89.4676 86.0191 88.1913C89.5419 86.914 93.4511 88.7542 94.7231 92.2937C96.0079 95.8603 94.2115 99.7348 90.6769 101.019L90.6759 101.017ZM85.1012 95.6858C85.7183 97.4394 87.6135 98.3624 89.372 97.7668C91.1255 97.1731 92.057 95.1932 91.4213 93.4204C90.7962 91.6843 88.861 90.7701 87.1239 91.3926C85.3817 92.017 84.4822 93.9272 85.1012 95.6858Z" fill="black"/>
<path d="M122.681 83.0403C123.97 86.6026 122.172 90.4951 118.647 91.7759C115.093 93.0679 111.204 91.2142 109.917 87.6167C108.659 84.1008 110.474 80.2199 113.972 78.9458C117.495 77.6625 121.399 79.496 122.678 83.0387L122.681 83.0403ZM119.481 84.2081C118.855 82.4548 116.949 81.5329 115.203 82.1385C113.449 82.7469 112.523 84.7249 113.165 86.4923C113.792 88.2189 115.745 89.1352 117.471 88.5113C119.202 87.8881 120.103 85.9598 119.478 84.209L119.481 84.2081Z" fill="black"/>
<path d="M87.2355 72.3524C87.3648 73.7957 87.4899 75.1883 87.614 76.5785C87.7089 77.6378 87.8089 78.6952 87.9038 79.7545C88.0125 80.9535 87.4344 81.7704 86.4255 81.8596C85.3969 81.9502 84.6699 81.2703 84.5582 80.0869C84.3135 77.4732 84.0943 74.8588 83.8198 72.2503C83.7822 71.8965 83.5588 71.4835 83.2914 71.2486C81.6548 69.8226 79.9705 68.4546 78.3241 67.0409C77.5524 66.3803 77.4811 65.3384 78.0992 64.6226C78.7058 63.9226 79.6786 63.8524 80.4665 64.455C80.5909 64.5512 80.7097 64.6553 80.8309 64.7584C82.3726 66.0513 83.9226 67.3354 85.4452 68.647C85.803 68.9557 86.1496 69.0457 86.6084 69.0019C89.1862 68.7572 91.7638 68.5356 94.3415 68.314C95.4818 68.2143 96.3026 68.8048 96.4059 69.7771C96.5152 70.805 95.833 71.5733 94.6774 71.6786C92.5036 71.8795 90.3284 72.0606 88.1544 72.2528C87.8669 72.2772 87.5841 72.3143 87.2321 72.3508L87.2355 72.3524Z" fill="black"/>
</g>
<defs>
<filter id="filter0_d_176_865" x="0" y="0" width="216" height="216" filterUnits="userSpaceOnUse" color-interpolation-filters="sRGB">
<feFlood flood-opacity="0" result="BackgroundImageFix"/>
<feColorMatrix in="SourceAlpha" type="matrix" values="0 0 0 0 0 0 0 0 0 0 0 0 0 0 0 0 0 0 127 0" result="hardAlpha"/>
<feMorphology radius="8" operator="dilate" in="SourceAlpha" result="effect1_dropShadow_176_865"/>
<feOffset dy="4"/>
<feGaussianBlur stdDeviation="22.5"/>
<feComposite in2="hardAlpha" operator="out"/>
<feColorMatrix type="matrix" values="0 0 0 0 1 0 0 0 0 1 0 0 0 0 1 0 0 0 0.25 0"/>
<feBlend mode="normal" in2="BackgroundImageFix" result="effect1_dropShadow_176_865"/>
<feBlend mode="normal" in="SourceGraphic" in2="effect1_dropShadow_176_865" result="shape"/>
</filter>
<clipPath id="clip0_176_865">
<rect width="43" height="57" fill="white" transform="translate(71 67) rotate(-20.1372)"/>
</clipPath>
</defs>
</svg>
