<svg width="110" height="110" viewBox="0 0 110 110" fill="none" xmlns="http://www.w3.org/2000/svg">
<rect width="110" height="110" rx="20" fill="white" fill-opacity="0.3"/>
<path d="M34.448 80.32C34.2453 79.9467 33.952 79.664 33.568 79.472C33.1947 79.2693 32.752 79.168 32.24 79.168C31.3547 79.168 30.6453 79.4613 30.112 80.048C29.5787 80.624 29.312 81.3973 29.312 82.368C29.312 83.4027 29.5893 84.2133 30.144 84.8C30.7093 85.376 31.4827 85.664 32.464 85.664C33.136 85.664 33.7013 85.4933 34.16 85.152C34.6293 84.8107 34.9707 84.32 35.184 83.68H31.712V81.664H37.664V84.208C37.4613 84.8907 37.1147 85.5253 36.624 86.112C36.144 86.6987 35.5307 87.1733 34.784 87.536C34.0373 87.8987 33.1947 88.08 32.256 88.08C31.1467 88.08 30.1547 87.84 29.28 87.36C28.416 86.8693 27.7387 86.192 27.248 85.328C26.768 84.464 26.528 83.4773 26.528 82.368C26.528 81.2587 26.768 80.272 27.248 79.408C27.7387 78.5333 28.416 77.856 29.28 77.376C30.144 76.8853 31.1307 76.64 32.24 76.64C33.584 76.64 34.7147 76.9653 35.632 77.616C36.56 78.2667 37.1733 79.168 37.472 80.32H34.448ZM38.6355 83.52C38.6355 82.6027 38.8062 81.7973 39.1475 81.104C39.4995 80.4107 39.9742 79.8773 40.5715 79.504C41.1688 79.1307 41.8355 78.944 42.5715 78.944C43.2008 78.944 43.7502 79.072 44.2195 79.328C44.6995 79.584 45.0675 79.92 45.3235 80.336V79.072H48.0595V88H45.3235V86.736C45.0568 87.152 44.6835 87.488 44.2035 87.744C43.7342 88 43.1848 88.128 42.5555 88.128C41.8302 88.128 41.1688 87.9413 40.5715 87.568C39.9742 87.184 39.4995 86.6453 39.1475 85.952C38.8062 85.248 38.6355 84.4373 38.6355 83.52ZM45.3235 83.536C45.3235 82.8533 45.1315 82.3147 44.7475 81.92C44.3742 81.5253 43.9155 81.328 43.3715 81.328C42.8275 81.328 42.3635 81.5253 41.9795 81.92C41.6062 82.304 41.4195 82.8373 41.4195 83.52C41.4195 84.2027 41.6062 84.7467 41.9795 85.152C42.3635 85.5467 42.8275 85.744 43.3715 85.744C43.9155 85.744 44.3742 85.5467 44.7475 85.152C45.1315 84.7573 45.3235 84.2187 45.3235 83.536ZM55.0149 85.68V88H53.6229C52.6309 88 51.8575 87.76 51.3029 87.28C50.7482 86.7893 50.4709 85.9947 50.4709 84.896V81.344H49.3829V79.072H50.4709V76.896H53.2069V79.072H54.9989V81.344H53.2069V84.928C53.2069 85.1947 53.2709 85.3867 53.3989 85.504C53.5269 85.6213 53.7402 85.68 54.0389 85.68H55.0149ZM62.0269 78.976C63.0509 78.976 63.8722 79.3173 64.4909 80C65.1095 80.672 65.4189 81.6 65.4189 82.784V88H62.6989V83.152C62.6989 82.5547 62.5442 82.0907 62.2349 81.76C61.9255 81.4293 61.5095 81.264 60.9869 81.264C60.4642 81.264 60.0482 81.4293 59.7389 81.76C59.4295 82.0907 59.2749 82.5547 59.2749 83.152V88H56.5389V76.16H59.2749V80.272C59.5522 79.8773 59.9309 79.5627 60.4109 79.328C60.8909 79.0933 61.4295 78.976 62.0269 78.976ZM75.7361 83.392C75.7361 83.648 75.7201 83.9147 75.6881 84.192H69.4961C69.5388 84.7467 69.7148 85.1733 70.0241 85.472C70.3441 85.76 70.7335 85.904 71.1921 85.904C71.8748 85.904 72.3495 85.616 72.6161 85.04H75.5281C75.3788 85.6267 75.1068 86.1547 74.7121 86.624C74.3281 87.0933 73.8428 87.4613 73.2561 87.728C72.6695 87.9947 72.0135 88.128 71.2881 88.128C70.4135 88.128 69.6348 87.9413 68.9521 87.568C68.2695 87.1947 67.7361 86.6613 67.3521 85.968C66.9681 85.2747 66.7761 84.464 66.7761 83.536C66.7761 82.608 66.9628 81.7973 67.3361 81.104C67.7201 80.4107 68.2535 79.8773 68.9361 79.504C69.6188 79.1307 70.4028 78.944 71.2881 78.944C72.1521 78.944 72.9201 79.1253 73.5921 79.488C74.2641 79.8507 74.7868 80.368 75.1601 81.04C75.5441 81.712 75.7361 82.496 75.7361 83.392ZM72.9361 82.672C72.9361 82.2027 72.7761 81.8293 72.4561 81.552C72.1361 81.2747 71.7361 81.136 71.2561 81.136C70.7975 81.136 70.4081 81.2693 70.0881 81.536C69.7788 81.8027 69.5868 82.1813 69.5121 82.672H72.9361ZM79.9155 80.56C80.2355 80.0693 80.6355 79.6853 81.1155 79.408C81.5955 79.12 82.1288 78.976 82.7155 78.976V81.872H81.9635C81.2808 81.872 80.7688 82.0213 80.4275 82.32C80.0862 82.608 79.9155 83.12 79.9155 83.856V88H77.1795V79.072H79.9155V80.56Z" fill="white"/>
<g clip-path="url(#clip0_413_1087)">
<path d="M70.7276 59.3767C69.254 59.5408 67.8178 59.477 66.44 58.8273C63.6349 57.5027 62.0647 54.5154 62.5832 51.4482C63.0924 48.4423 65.5711 46.1382 68.6143 45.8444C71.6465 45.5517 74.523 47.3537 75.6062 50.2214C76.7109 53.1479 75.7608 56.356 73.2507 58.1824C73.0376 58.3387 72.8369 58.5136 72.63 58.6792L70.7276 59.3767ZM68.0705 49.4621C66.327 50.0986 65.436 52.0085 66.0667 53.76C66.7077 55.5395 68.6451 56.4441 70.4119 55.7847C72.1406 55.1392 73.0254 53.1968 72.3797 51.4595C71.7332 49.7197 69.8089 48.8276 68.073 49.4612L68.0705 49.4621Z" fill="black"/>
<path d="M59.2551 46.7118C60.4992 50.3166 58.6306 54.1827 55.045 55.4223C51.5228 56.6385 47.6625 54.7197 46.4233 51.1363C45.2088 47.6278 47.107 43.7015 50.5924 42.5103C54.1649 41.2901 58.0325 43.1658 59.2576 46.7109L59.2551 46.7118ZM55.8862 47.7735C55.2634 46.0278 53.3418 45.1115 51.6 45.7213C49.8693 46.3299 48.9542 48.2603 49.5688 50.0147C50.1946 51.7998 52.1319 52.7277 53.8947 52.0813C55.6272 51.446 56.5153 49.5284 55.8853 47.7709L55.8862 47.7735Z" fill="black"/>
<path d="M58.5007 26.872C54.9249 28.1224 51.0397 26.23 49.7977 22.639C48.5689 19.0837 50.443 15.2328 54.0069 13.981C57.4819 12.7617 61.4078 14.671 62.6281 18.1716C63.8702 21.7395 62.0183 25.643 58.4982 26.8729L58.5007 26.872ZM54.9859 17.2082C53.2431 17.8386 52.3461 19.7479 52.9641 21.504C53.5903 23.2744 55.5495 24.1914 57.3096 23.5373C59.0418 22.8935 59.9252 20.9631 59.2879 19.217C58.6523 17.476 56.7279 16.5753 54.985 17.2057L54.9859 17.2082Z" fill="black"/>
<path d="M43.4178 26.6166C46.9362 25.3352 50.8521 27.17 52.1409 30.7005C53.4325 34.2386 51.6212 38.159 48.1072 39.4446C44.5932 40.7303 40.6713 38.8947 39.385 35.3634C38.095 31.8218 39.9069 27.8953 43.4178 26.6166ZM48.8862 31.9402C48.267 30.173 46.375 29.243 44.6297 29.8511C42.848 30.4697 41.93 32.3925 42.5618 34.1782C43.1749 35.913 45.1078 36.8367 46.8506 36.2295C48.5857 35.6251 49.5017 33.6972 48.8872 31.9428L48.8862 31.9402Z" fill="black"/>
<path d="M37.676 52.0167C34.1465 53.2994 30.2625 51.4731 28.9723 47.9229C27.6848 44.3804 29.4988 40.4676 33.0191 39.1913C36.542 37.914 40.4512 39.7542 41.7232 43.2937C43.008 46.8603 41.2115 50.7348 37.6769 52.0193L37.676 52.0167ZM32.1012 46.6858C32.7183 48.4394 34.6136 49.3624 36.3721 48.7668C38.1255 48.1731 39.057 46.1932 38.4214 44.4204C37.7963 42.6843 35.8611 41.7701 34.124 42.3926C32.3818 43.017 31.4823 44.9272 32.1012 46.6858Z" fill="black"/>
<path d="M69.6814 34.0403C70.9704 37.6026 69.1719 41.4951 65.6475 42.7759C62.0926 44.0679 58.2044 42.2142 56.9169 38.6167C55.6593 35.1008 57.4735 31.2199 60.9717 29.9458C64.4952 28.6625 68.399 30.496 69.6779 34.0387L69.6814 34.0403ZM66.481 35.2081C65.8553 33.4548 63.949 32.5329 62.2028 33.1385C60.449 33.7469 59.5225 35.7249 60.1649 37.4923C60.7922 39.2189 62.7454 40.1352 64.4705 39.5113C66.2016 38.8881 67.1031 36.9598 66.4784 35.209L66.481 35.2081Z" fill="black"/>
<path d="M34.2355 23.3524C34.3647 24.7957 34.4898 26.1883 34.6139 27.5785C34.7089 28.6378 34.8088 29.6952 34.9038 30.7545C35.0125 31.9535 34.4344 32.7704 33.4254 32.8596C32.3968 32.9502 31.6698 32.2703 31.5581 31.0869C31.3134 28.4732 31.0943 25.8588 30.8198 23.2503C30.7821 22.8965 30.5587 22.4835 30.2913 22.2486C28.6548 20.8226 26.9705 19.4546 25.3241 18.0409C24.5524 17.3803 24.4811 16.3384 25.0992 15.6226C25.7057 14.9226 26.6785 14.8524 27.4664 15.455C27.5909 15.5512 27.7096 15.6553 27.8309 15.7584C29.3726 17.0513 30.9225 18.3354 32.4451 19.647C32.8029 19.9557 33.1496 20.0457 33.6083 20.0019C36.1861 19.7572 38.7637 19.5356 41.3414 19.314C42.4817 19.2143 43.3026 19.8048 43.4059 20.7771C43.5152 21.805 42.8329 22.5733 41.6773 22.6786C39.5036 22.8795 37.3284 23.0606 35.1543 23.2528C34.8669 23.2772 34.5841 23.3143 34.232 23.3508L34.2355 23.3524Z" fill="black"/>
</g>
<defs>
<clipPath id="clip0_413_1087">
<rect width="43" height="57" fill="white" transform="translate(18 18) rotate(-20.1372)"/>
</clipPath>
</defs>
</svg>
