<svg width="110" height="110" viewBox="0 0 110 110" fill="none" xmlns="http://www.w3.org/2000/svg">
<rect width="110" height="110" rx="20" fill="white" fill-opacity="0.3"/>
<path d="M39.04 92H36.304L31.728 85.072V92H28.992V80.768H31.728L36.304 87.728V80.768H39.04V92ZM45.0873 92.128C44.2126 92.128 43.4233 91.9413 42.7193 91.568C42.0259 91.1947 41.4766 90.6613 41.0713 89.968C40.6766 89.2747 40.4793 88.464 40.4793 87.536C40.4793 86.6187 40.6819 85.8133 41.0872 85.12C41.4926 84.416 42.0473 83.8773 42.7513 83.504C43.4553 83.1307 44.2446 82.944 45.1193 82.944C45.9939 82.944 46.7833 83.1307 47.4873 83.504C48.1913 83.8773 48.7459 84.416 49.1513 85.12C49.5566 85.8133 49.7593 86.6187 49.7593 87.536C49.7593 88.4533 49.5513 89.264 49.1353 89.968C48.7299 90.6613 48.1699 91.1947 47.4553 91.568C46.7513 91.9413 45.9619 92.128 45.0873 92.128ZM45.0873 89.76C45.6099 89.76 46.0526 89.568 46.4153 89.184C46.7886 88.8 46.9753 88.2507 46.9753 87.536C46.9753 86.8213 46.7939 86.272 46.4313 85.888C46.0793 85.504 45.6419 85.312 45.1193 85.312C44.5859 85.312 44.1433 85.504 43.7913 85.888C43.4393 86.2613 43.2633 86.8107 43.2633 87.536C43.2633 88.2507 43.4339 88.8 43.7753 89.184C44.1273 89.568 44.5646 89.76 45.0873 89.76ZM56.1868 89.68V92H54.7948C53.8028 92 53.0294 91.76 52.4748 91.28C51.9201 90.7893 51.6428 89.9947 51.6428 88.896V85.344H50.5548V83.072H51.6428V80.896H54.3788V83.072H56.1708V85.344H54.3788V88.928C54.3788 89.1947 54.4428 89.3867 54.5708 89.504C54.6988 89.6213 54.9121 89.68 55.2108 89.68H56.1868ZM59.0868 82.144C58.6068 82.144 58.2121 82.0053 57.9028 81.728C57.6041 81.44 57.4548 81.088 57.4548 80.672C57.4548 80.2453 57.6041 79.8933 57.9028 79.616C58.2121 79.328 58.6068 79.184 59.0868 79.184C59.5561 79.184 59.9401 79.328 60.2388 79.616C60.5481 79.8933 60.7028 80.2453 60.7028 80.672C60.7028 81.088 60.5481 81.44 60.2388 81.728C59.9401 82.0053 59.5561 82.144 59.0868 82.144ZM60.4468 83.072V92H57.7108V83.072H60.4468ZM66.4935 92.128C65.6188 92.128 64.8295 91.9413 64.1255 91.568C63.4322 91.1947 62.8828 90.6613 62.4775 89.968C62.0828 89.2747 61.8855 88.464 61.8855 87.536C61.8855 86.6187 62.0882 85.8133 62.4935 85.12C62.8988 84.416 63.4535 83.8773 64.1575 83.504C64.8615 83.1307 65.6508 82.944 66.5255 82.944C67.4002 82.944 68.1895 83.1307 68.8935 83.504C69.5975 83.8773 70.1522 84.416 70.5575 85.12C70.9628 85.8133 71.1655 86.6187 71.1655 87.536C71.1655 88.4533 70.9575 89.264 70.5415 89.968C70.1362 90.6613 69.5762 91.1947 68.8615 91.568C68.1575 91.9413 67.3682 92.128 66.4935 92.128ZM66.4935 89.76C67.0162 89.76 67.4588 89.568 67.8215 89.184C68.1948 88.8 68.3815 88.2507 68.3815 87.536C68.3815 86.8213 68.2002 86.272 67.8375 85.888C67.4855 85.504 67.0482 85.312 66.5255 85.312C65.9922 85.312 65.5495 85.504 65.1975 85.888C64.8455 86.2613 64.6695 86.8107 64.6695 87.536C64.6695 88.2507 64.8402 88.8 65.1815 89.184C65.5335 89.568 65.9708 89.76 66.4935 89.76ZM78.057 82.976C79.1023 82.976 79.9343 83.3173 80.553 84C81.1823 84.672 81.497 85.6 81.497 86.784V92H78.777V87.152C78.777 86.5547 78.6223 86.0907 78.313 85.76C78.0037 85.4293 77.5877 85.264 77.065 85.264C76.5423 85.264 76.1263 85.4293 75.817 85.76C75.5077 86.0907 75.353 86.5547 75.353 87.152V92H72.617V83.072H75.353V84.256C75.6303 83.8613 76.0037 83.552 76.473 83.328C76.9423 83.0933 77.4703 82.976 78.057 82.976Z" fill="white"/>
<g clip-path="url(#clip0_413_1028)">
<path d="M79.7864 64.8946C79.0811 65.6256 78.1665 65.8295 77.2071 65.8867C67.2013 66.4834 57.1955 67.0776 47.1898 67.6694C45.4528 67.7713 43.7158 67.8558 41.9813 67.9801C39.9777 68.1219 38.4176 67.4456 37.4382 65.6331C37.2364 65.2701 37.4133 64.6211 36.6906 64.6535C34.535 61.8788 32.3494 59.1214 30.2361 56.3169C29.3414 55.1334 28.9975 53.7436 29 52.2369C29.02 41.68 29.005 31.1207 29.0075 20.5639C29.0075 17.5977 29.937 16.5286 32.9375 16.2949C40.1746 15.7305 47.4191 15.2283 54.6586 14.6987C57.5544 14.4873 60.4552 14.3183 63.346 14.0473C65.4668 13.8484 67.3533 14.271 69.0778 15.5589C71.2011 17.1427 73.3842 18.642 75.5423 20.1785C75.5149 20.9443 76.3224 20.5266 76.5716 20.902C76.6463 20.9318 76.7286 20.9492 76.7959 20.994C79.5936 22.8007 80.9925 25.3616 80.9925 28.6767C80.9925 39.6686 80.99 50.6606 81 61.6525C81 62.5302 80.8953 63.368 80.5016 64.1612C80.1851 64.3327 80.1153 64.7405 79.7839 64.8971L79.7864 64.8946Z" fill="black"/>
<path d="M76.574 20.8995C76.3772 20.8721 76.1304 20.7578 75.9934 20.8373C75.6644 21.0263 75.338 21.2227 75.0763 20.8547C75.0215 20.7777 75.3778 20.4122 75.5448 20.1785C75.966 20.3102 76.2999 20.5614 76.574 20.902V20.8995Z" fill="#0E0E0E"/>
<path d="M79.7864 64.8946C79.9658 64.5913 80.0306 64.1761 80.5041 64.1587C80.3621 64.4968 80.2973 64.9145 79.7864 64.8946Z" fill="#0D0D0D"/>
<path d="M77.359 44.0918C77.359 49.1042 77.369 54.1166 77.354 59.1265C77.3466 61.4735 76.9902 61.854 74.6377 61.9907C64.8587 62.565 55.0797 63.122 45.3007 63.6864C44.1818 63.751 43.0628 63.8828 41.9464 63.8703C40.506 63.8529 39.9452 63.2736 39.8132 61.839C39.7783 61.4686 39.7833 61.0956 39.7833 60.7227C39.7833 50.8645 39.7833 41.0063 39.7808 31.1481C39.7808 28.7165 39.9876 28.4405 42.4099 28.2914C51.7727 27.7195 61.138 27.1775 70.5008 26.628C72.0334 26.5385 73.5661 26.4366 75.1012 26.3719C77.0076 26.2899 77.3515 26.6056 77.359 28.5574C77.3765 33.7339 77.3665 38.9128 77.364 44.0893L77.359 44.0918Z" fill="#FEFEFE"/>
<path d="M73.4888 22.7095C71.6397 22.8338 69.7906 22.9681 67.9414 23.0799C59.4584 23.5946 50.9703 24.072 42.4897 24.6314C40.5135 24.7607 38.8263 24.3877 37.3585 23.0004C36.4887 22.1799 35.4794 21.5086 34.5574 20.7403C34.2284 20.4644 33.5929 20.2729 33.7499 19.7558C33.9319 19.159 34.5898 19.2038 35.1305 19.164C36.9896 19.0273 38.8487 18.8681 40.7103 18.7339C48.4433 18.1794 56.1763 17.6349 63.9092 17.083C64.8338 17.0183 65.7833 17.0556 66.5832 17.4883C69.0928 18.8483 71.2509 20.718 73.5885 22.3291L73.4888 22.7045V22.7095Z" fill="#FEFEFE"/>
<path d="M62.7479 56.7445L62.5685 56.5033C62.4838 56.19 62.3641 55.8991 62.0726 55.7176C59.1169 51.1304 56.1638 46.5382 53.2007 41.956C52.944 41.5581 52.7845 41.0683 52.2089 40.7426C52.2089 45.6953 52.2139 50.5561 52.2014 55.4168C52.2014 55.8991 52.4381 56.0781 52.8443 56.1627C53.4125 56.2795 53.9832 56.379 54.5489 56.5108C55.5308 56.7395 55.6529 57.1373 54.9851 57.8782C54.4393 58.4824 53.6991 58.6117 52.949 58.654C50.7958 58.7783 48.6402 58.8852 46.4845 58.9772C46.1506 58.9921 45.6572 59.2382 45.5226 58.736C45.403 58.2835 45.6397 57.8509 46.0011 57.5301C46.0883 57.4531 46.2229 57.3884 46.3375 57.3835C48.3586 57.289 48.2066 55.9066 48.1966 54.4621C48.1517 48.7883 48.1592 43.1171 48.2016 37.4433C48.2091 36.4836 48.0346 35.9988 46.9456 36.046C46.482 36.0659 45.6248 36.4364 45.56 35.5164C45.4977 34.6139 45.9861 33.7611 46.8882 33.6616C49.5249 33.3757 52.1815 33.2589 54.8281 33.0699C55.3838 33.0301 55.481 33.5174 55.6878 33.8332C57.0909 35.9913 58.4665 38.1693 59.8521 40.3374C60.039 40.6879 59.9842 41.2101 60.5374 41.2996C62.252 43.853 63.9641 46.4089 65.8805 49.2657C65.8805 48.2712 65.8805 47.6297 65.8805 46.9857C65.8805 43.3408 65.8556 39.6959 65.8979 36.0535C65.9079 35.2032 65.7808 34.6761 64.784 34.8103C64.6643 34.8277 64.5198 34.8252 64.4151 34.7755C63.989 34.5667 63.2015 34.9694 63.1467 34.1689C63.0943 33.4354 63.5778 32.9307 64.2357 32.6597C64.5323 32.5378 64.8836 32.5204 65.2126 32.4981C67.1589 32.3663 69.1028 32.2246 71.0516 32.1375C71.4304 32.1201 72.0509 31.7745 72.163 32.503C72.2627 33.1445 72.1356 33.9824 71.4179 33.9948C69.3545 34.0296 69.5613 35.3275 69.5688 36.7273C69.6087 43.2712 69.5638 49.8127 69.6136 56.3566C69.6211 57.3163 69.2772 57.7191 68.4324 58.0622C66.3465 58.9076 64.2108 58.91 63.3485 57.4357C63.1666 57.1895 63.1541 56.7992 62.7504 56.7445H62.7479Z" fill="black"/>
<path d="M60.5349 41.3045C59.401 41.6227 59.8073 40.8545 59.8496 40.3423C60.2359 40.5536 60.363 40.944 60.5349 41.3045Z" fill="#0A0A0A"/>
<path d="M62.7479 56.7445C63.7622 56.2746 63.3784 57.0055 63.346 57.4357C63.047 57.2915 62.8825 57.0304 62.7479 56.7445Z" fill="#0B0B0B"/>
<path d="M62.0726 55.7178C62.6258 55.7377 62.8626 55.954 62.5685 56.5034C62.3168 56.2946 62.1324 56.046 62.0726 55.7178Z" fill="#0B0B0B"/>
</g>
<defs>
<clipPath id="clip0_413_1028">
<rect width="52" height="54" fill="white" transform="translate(29 14)"/>
</clipPath>
</defs>
</svg>
