<svg width="216" height="216" viewBox="0 0 216 216" fill="none" xmlns="http://www.w3.org/2000/svg">
<g filter="url(#filter0_d_174_833)">
<rect x="53" y="49" width="110" height="110" rx="20" fill="white" fill-opacity="0.3" shape-rendering="crispEdges"/>
</g>
<path d="M92.04 141H89.304L84.728 134.072V141H81.992V129.768H84.728L89.304 136.728V129.768H92.04V141ZM98.0873 141.128C97.2126 141.128 96.4233 140.941 95.7193 140.568C95.0259 140.195 94.4766 139.661 94.0713 138.968C93.6766 138.275 93.4793 137.464 93.4793 136.536C93.4793 135.619 93.6819 134.813 94.0872 134.12C94.4926 133.416 95.0473 132.877 95.7513 132.504C96.4553 132.131 97.2446 131.944 98.1193 131.944C98.9939 131.944 99.7833 132.131 100.487 132.504C101.191 132.877 101.746 133.416 102.151 134.12C102.557 134.813 102.759 135.619 102.759 136.536C102.759 137.453 102.551 138.264 102.135 138.968C101.73 139.661 101.17 140.195 100.455 140.568C99.7513 140.941 98.9619 141.128 98.0873 141.128ZM98.0873 138.76C98.6099 138.76 99.0526 138.568 99.4153 138.184C99.7886 137.8 99.9753 137.251 99.9753 136.536C99.9753 135.821 99.7939 135.272 99.4313 134.888C99.0793 134.504 98.6419 134.312 98.1193 134.312C97.5859 134.312 97.1433 134.504 96.7913 134.888C96.4393 135.261 96.2633 135.811 96.2633 136.536C96.2633 137.251 96.4339 137.8 96.7753 138.184C97.1273 138.568 97.5646 138.76 98.0873 138.76ZM109.187 138.68V141H107.795C106.803 141 106.029 140.76 105.475 140.28C104.92 139.789 104.643 138.995 104.643 137.896V134.344H103.555V132.072H104.643V129.896H107.379V132.072H109.171V134.344H107.379V137.928C107.379 138.195 107.443 138.387 107.571 138.504C107.699 138.621 107.912 138.68 108.211 138.68H109.187ZM112.087 131.144C111.607 131.144 111.212 131.005 110.903 130.728C110.604 130.44 110.455 130.088 110.455 129.672C110.455 129.245 110.604 128.893 110.903 128.616C111.212 128.328 111.607 128.184 112.087 128.184C112.556 128.184 112.94 128.328 113.239 128.616C113.548 128.893 113.703 129.245 113.703 129.672C113.703 130.088 113.548 130.44 113.239 130.728C112.94 131.005 112.556 131.144 112.087 131.144ZM113.447 132.072V141H110.711V132.072H113.447ZM119.494 141.128C118.619 141.128 117.83 140.941 117.126 140.568C116.432 140.195 115.883 139.661 115.478 138.968C115.083 138.275 114.886 137.464 114.886 136.536C114.886 135.619 115.088 134.813 115.493 134.12C115.899 133.416 116.454 132.877 117.158 132.504C117.862 132.131 118.651 131.944 119.526 131.944C120.4 131.944 121.19 132.131 121.894 132.504C122.598 132.877 123.152 133.416 123.558 134.12C123.963 134.813 124.166 135.619 124.166 136.536C124.166 137.453 123.958 138.264 123.542 138.968C123.136 139.661 122.576 140.195 121.862 140.568C121.158 140.941 120.368 141.128 119.494 141.128ZM119.494 138.76C120.016 138.76 120.459 138.568 120.822 138.184C121.195 137.8 121.382 137.251 121.382 136.536C121.382 135.821 121.2 135.272 120.838 134.888C120.486 134.504 120.048 134.312 119.526 134.312C118.992 134.312 118.55 134.504 118.198 134.888C117.846 135.261 117.67 135.811 117.67 136.536C117.67 137.251 117.84 137.8 118.182 138.184C118.534 138.568 118.971 138.76 119.494 138.76ZM131.057 131.976C132.102 131.976 132.934 132.317 133.553 133C134.182 133.672 134.497 134.6 134.497 135.784V141H131.777V136.152C131.777 135.555 131.622 135.091 131.313 134.76C131.004 134.429 130.588 134.264 130.065 134.264C129.542 134.264 129.126 134.429 128.817 134.76C128.508 135.091 128.353 135.555 128.353 136.152V141H125.617V132.072H128.353V133.256C128.63 132.861 129.004 132.552 129.473 132.328C129.942 132.093 130.47 131.976 131.057 131.976Z" fill="white"/>
<g clip-path="url(#clip0_174_833)">
<path d="M132.786 113.895C132.081 114.626 131.167 114.829 130.207 114.887C120.201 115.483 110.196 116.078 100.19 116.669C98.4528 116.771 96.7158 116.856 94.9813 116.98C92.9777 117.122 91.4176 116.446 90.4382 114.633C90.2364 114.27 90.4133 113.621 89.6906 113.653C87.535 110.879 85.3494 108.121 83.2361 105.317C82.3414 104.133 81.9975 102.744 82 101.237C82.02 90.68 82.005 80.1207 82.0075 69.5639C82.0075 66.5977 82.937 65.5286 85.9375 65.2949C93.1746 64.7305 100.419 64.2283 107.659 63.6987C110.554 63.4873 113.455 63.3183 116.346 63.0473C118.467 62.8484 120.353 63.271 122.078 64.5589C124.201 66.1427 126.384 67.642 128.542 69.1785C128.515 69.9443 129.322 69.5266 129.572 69.902C129.646 69.9318 129.729 69.9492 129.796 69.994C132.594 71.8007 133.993 74.3616 133.993 77.6767C133.993 88.6686 133.99 99.6606 134 110.653C134 111.53 133.895 112.368 133.502 113.161C133.185 113.333 133.115 113.74 132.784 113.897L132.786 113.895Z" fill="black"/>
<path d="M129.574 69.8995C129.377 69.8721 129.13 69.7578 128.993 69.8373C128.664 70.0263 128.338 70.2227 128.076 69.8547C128.021 69.7777 128.378 69.4122 128.545 69.1785C128.966 69.3102 129.3 69.5614 129.574 69.902V69.8995Z" fill="#0E0E0E"/>
<path d="M132.786 113.895C132.966 113.591 133.031 113.176 133.504 113.159C133.362 113.497 133.297 113.915 132.786 113.895Z" fill="#0D0D0D"/>
<path d="M130.359 93.0918C130.359 98.1042 130.369 103.117 130.354 108.126C130.347 110.474 129.99 110.854 127.638 110.991C117.859 111.565 108.08 112.122 98.3007 112.686C97.1818 112.751 96.0628 112.883 94.9464 112.87C93.506 112.853 92.9452 112.274 92.8132 110.839C92.7783 110.469 92.7833 110.096 92.7833 109.723C92.7833 99.8645 92.7833 90.0063 92.7808 80.1481C92.7808 77.7165 92.9876 77.4405 95.4099 77.2914C104.773 76.7195 114.138 76.1775 123.501 75.628C125.033 75.5385 126.566 75.4366 128.101 75.3719C130.008 75.2899 130.352 75.6056 130.359 77.5574C130.376 82.7339 130.367 87.9128 130.364 93.0893L130.359 93.0918Z" fill="#FEFEFE"/>
<path d="M126.489 71.7095C124.64 71.8338 122.791 71.9681 120.941 72.0799C112.458 72.5946 103.97 73.072 95.4896 73.6314C93.5134 73.7607 91.8263 73.3877 90.3584 72.0004C89.4887 71.1799 88.4794 70.5086 87.5573 69.7403C87.2283 69.4644 86.5929 69.2729 86.7499 68.7558C86.9318 68.159 87.5897 68.2038 88.1305 68.164C89.9896 68.0273 91.8487 67.8681 93.7103 67.7339C101.443 67.1794 109.176 66.6349 116.909 66.083C117.834 66.0183 118.783 66.0556 119.583 66.4883C122.093 67.8483 124.251 69.718 126.588 71.3291L126.489 71.7045V71.7095Z" fill="#FEFEFE"/>
<path d="M115.748 105.744L115.568 105.503C115.484 105.19 115.364 104.899 115.073 104.718C112.117 100.13 109.164 95.5382 106.201 90.956C105.944 90.5581 105.784 90.0683 105.209 89.7426C105.209 94.6953 105.214 99.5561 105.201 104.417C105.201 104.899 105.438 105.078 105.844 105.163C106.412 105.28 106.983 105.379 107.549 105.511C108.531 105.74 108.653 106.137 107.985 106.878C107.439 107.482 106.699 107.612 105.949 107.654C103.796 107.778 101.64 107.885 99.4845 107.977C99.1505 107.992 98.6571 108.238 98.5225 107.736C98.4029 107.283 98.6396 106.851 99.001 106.53C99.0882 106.453 99.2228 106.388 99.3374 106.383C101.359 106.289 101.207 104.907 101.197 103.462C101.152 97.7883 101.159 92.1171 101.202 86.4433C101.209 85.4836 101.035 84.9988 99.9455 85.046C99.482 85.0659 98.6247 85.4364 98.5599 84.5164C98.4976 83.6139 98.986 82.7611 99.8882 82.6616C102.525 82.3757 105.181 82.2589 107.828 82.0699C108.384 82.0301 108.481 82.5174 108.688 82.8332C110.091 84.9913 111.466 87.1693 112.852 89.3374C113.039 89.6879 112.984 90.2101 113.537 90.2996C115.252 92.853 116.964 95.4089 118.88 98.2657C118.88 97.2712 118.88 96.6297 118.88 95.9857C118.88 92.3408 118.856 88.6959 118.898 85.0535C118.908 84.2032 118.781 83.6761 117.784 83.8103C117.664 83.8277 117.52 83.8252 117.415 83.7755C116.989 83.5667 116.201 83.9694 116.147 83.1689C116.094 82.4354 116.578 81.9307 117.236 81.6597C117.532 81.5378 117.884 81.5204 118.213 81.4981C120.159 81.3663 122.103 81.2246 124.052 81.1375C124.43 81.1201 125.051 80.7745 125.163 81.503C125.263 82.1445 125.136 82.9824 124.418 82.9948C122.354 83.0296 122.561 84.3275 122.569 85.7273C122.609 92.2712 122.564 98.8127 122.614 105.357C122.621 106.316 122.277 106.719 121.432 107.062C119.346 107.908 117.211 107.91 116.348 106.436C116.167 106.19 116.154 105.799 115.75 105.744H115.748Z" fill="black"/>
<path d="M113.535 90.3045C112.401 90.6227 112.807 89.8545 112.85 89.3423C113.236 89.5536 113.363 89.944 113.535 90.3045Z" fill="#0A0A0A"/>
<path d="M115.748 105.744C116.762 105.275 116.378 106.006 116.346 106.436C116.047 106.291 115.882 106.03 115.748 105.744Z" fill="#0B0B0B"/>
<path d="M115.073 104.718C115.626 104.738 115.863 104.954 115.568 105.503C115.317 105.295 115.132 105.046 115.073 104.718Z" fill="#0B0B0B"/>
</g>
<defs>
<filter id="filter0_d_174_833" x="0" y="0" width="216" height="216" filterUnits="userSpaceOnUse" color-interpolation-filters="sRGB">
<feFlood flood-opacity="0" result="BackgroundImageFix"/>
<feColorMatrix in="SourceAlpha" type="matrix" values="0 0 0 0 0 0 0 0 0 0 0 0 0 0 0 0 0 0 127 0" result="hardAlpha"/>
<feMorphology radius="8" operator="dilate" in="SourceAlpha" result="effect1_dropShadow_174_833"/>
<feOffset dy="4"/>
<feGaussianBlur stdDeviation="22.5"/>
<feComposite in2="hardAlpha" operator="out"/>
<feColorMatrix type="matrix" values="0 0 0 0 1 0 0 0 0 1 0 0 0 0 1 0 0 0 0.25 0"/>
<feBlend mode="normal" in2="BackgroundImageFix" result="effect1_dropShadow_174_833"/>
<feBlend mode="normal" in="SourceGraphic" in2="effect1_dropShadow_174_833" result="shape"/>
</filter>
<clipPath id="clip0_174_833">
<rect width="52" height="54" fill="white" transform="translate(82 63)"/>
</clipPath>
</defs>
</svg>
