<svg width="216" height="216" viewBox="0 0 216 216" fill="none" xmlns="http://www.w3.org/2000/svg">
<g filter="url(#filter0_d_162_1432)">
<rect x="53" y="49" width="110" height="110" rx="20" fill="white" fill-opacity="0.3" shape-rendering="crispEdges"/>
</g>
<g clip-path="url(#clip0_162_1432)">
<path d="M108.328 73.8504C108.328 71.7229 108.31 69.5954 108.332 67.468C108.363 64.2593 110.552 61.9923 113.581 62C116.6 62.0078 118.816 64.3116 118.827 67.5028C118.843 71.7908 118.856 76.0787 118.82 80.3647C118.796 83.0986 116.842 85.2843 114.221 85.6311C111.687 85.9663 109.262 84.3542 108.518 81.8586C108.34 81.2599 108.332 80.6495 108.33 80.0392C108.322 77.9756 108.326 75.9121 108.328 73.8504Z" fill="#2EB57D"/>
<path d="M120.116 98.8398C117.985 98.8398 115.854 98.8514 113.725 98.8379C110.614 98.8185 108.336 96.5844 108.343 93.5792C108.349 90.572 110.618 88.367 113.748 88.3574C118.008 88.3438 122.27 88.3457 126.529 88.3574C129.656 88.3651 131.971 90.5759 132 93.5521C132.029 96.5069 129.633 98.8224 126.506 98.8379C124.375 98.8495 122.246 98.8398 120.116 98.8398Z" fill="#EBB12E"/>
<path d="M93.7993 75.1757C95.9611 75.1757 98.1249 75.1582 100.287 75.1795C103.336 75.2086 105.653 77.464 105.657 80.3781C105.66 83.3175 103.289 85.6504 100.252 85.6601C95.9592 85.6736 91.6664 85.6736 87.3737 85.6601C84.2684 85.6504 81.9923 83.4066 82 80.3936C82.0058 77.4214 84.2452 75.2086 87.3117 75.1795C89.4736 75.1582 91.6374 75.1757 93.7993 75.1757Z" fill="#36C4EF"/>
<path d="M95.1727 100.09C95.1727 97.7993 95.1068 95.509 95.1901 93.2207C95.2811 90.7386 97.2629 88.6712 99.663 88.3825C102.257 88.0705 104.612 89.545 105.374 91.9903C105.525 92.4766 105.637 92.9998 105.639 93.5055C105.66 97.9233 105.691 102.343 105.639 106.759C105.606 109.531 103.566 111.686 100.876 111.973C98.4 112.236 95.9998 110.564 95.3218 108.105C95.13 107.412 95.1514 106.701 95.1494 105.991C95.1475 104.025 95.1494 102.056 95.1494 100.09H95.1727Z" fill="#DF1E5A"/>
<path d="M124.519 85.6621C123.68 85.6621 122.841 85.6505 122.002 85.6679C121.611 85.6757 121.4 85.573 121.417 85.1312C121.487 83.2633 121.255 81.3839 121.545 79.5257C121.979 76.7355 124.464 74.9161 127.368 75.2048C129.916 75.4587 132.012 77.8652 131.957 80.4809C131.901 83.2556 129.681 85.5536 126.94 85.6544C126.134 85.6834 125.327 85.6582 124.521 85.6582V85.664L124.519 85.6621Z" fill="#2EB57D"/>
<path d="M102.317 72.4922C101.488 72.4438 100.482 72.5969 99.4926 72.3992C96.5907 71.8199 94.8822 69.4347 95.2134 66.4469C95.4982 63.866 97.8867 61.9226 100.668 62.0078C103.361 62.0911 105.537 64.2806 105.645 67.0941C105.705 68.6732 105.643 70.2562 105.67 71.8373C105.68 72.3469 105.504 72.5194 105.002 72.5C104.165 72.469 103.324 72.4922 102.317 72.4922Z" fill="#36C4EF"/>
<path d="M92.5111 91.6104C92.4413 92.5579 92.6292 93.6876 92.3542 94.8075C91.7072 97.4407 89.2063 99.171 86.5408 98.8048C83.759 98.4231 81.8509 96.003 82.0427 93.0966C82.2131 90.5041 84.4486 88.4114 87.1413 88.3591C88.6891 88.3301 90.2388 88.3824 91.7866 88.3359C92.4123 88.3165 92.5556 88.5393 92.5227 89.1109C92.4781 89.8821 92.5111 90.6591 92.5111 91.6104Z" fill="#DF1E5A"/>
<path d="M111.828 101.494C112.805 101.556 113.971 101.368 115.112 101.717C117.578 102.471 119.178 105.007 118.736 107.497C118.24 110.289 115.908 112.178 113.198 111.982C110.567 111.793 108.464 109.688 108.363 107.063C108.301 105.451 108.367 103.835 108.324 102.221C108.309 101.587 108.584 101.463 109.134 101.483C109.973 101.514 110.811 101.49 111.83 101.49L111.828 101.494Z" fill="#EBB12E"/>
</g>
<path d="M90.056 139.112C89.2347 139.112 88.4987 138.979 87.848 138.712C87.1973 138.445 86.6747 138.051 86.28 137.528C85.896 137.005 85.6933 136.376 85.672 135.64H88.584C88.6267 136.056 88.7707 136.376 89.016 136.6C89.2613 136.813 89.5813 136.92 89.976 136.92C90.3813 136.92 90.7013 136.829 90.936 136.648C91.1707 136.456 91.288 136.195 91.288 135.864C91.288 135.587 91.192 135.357 91 135.176C90.8187 134.995 90.5893 134.845 90.312 134.728C90.0453 134.611 89.6613 134.477 89.16 134.328C88.4347 134.104 87.8427 133.88 87.384 133.656C86.9253 133.432 86.5307 133.101 86.2 132.664C85.8693 132.227 85.704 131.656 85.704 130.952C85.704 129.907 86.0827 129.091 86.84 128.504C87.5973 127.907 88.584 127.608 89.8 127.608C91.0373 127.608 92.0347 127.907 92.792 128.504C93.5493 129.091 93.9547 129.912 94.008 130.968H91.048C91.0267 130.605 90.8933 130.323 90.648 130.12C90.4027 129.907 90.088 129.8 89.704 129.8C89.3733 129.8 89.1067 129.891 88.904 130.072C88.7013 130.243 88.6 130.493 88.6 130.824C88.6 131.187 88.7707 131.469 89.112 131.672C89.4533 131.875 89.9867 132.093 90.712 132.328C91.4373 132.573 92.024 132.808 92.472 133.032C92.9307 133.256 93.3253 133.581 93.656 134.008C93.9867 134.435 94.152 134.984 94.152 135.656C94.152 136.296 93.9867 136.877 93.656 137.4C93.336 137.923 92.8667 138.339 92.248 138.648C91.6293 138.957 90.8987 139.112 90.056 139.112ZM98.5718 127.16V139H95.8358V127.16H98.5718ZM100.011 134.52C100.011 133.603 100.181 132.797 100.523 132.104C100.875 131.411 101.349 130.877 101.947 130.504C102.544 130.131 103.211 129.944 103.947 129.944C104.576 129.944 105.125 130.072 105.595 130.328C106.075 130.584 106.443 130.92 106.699 131.336V130.072H109.435V139H106.699V137.736C106.432 138.152 106.059 138.488 105.579 138.744C105.109 139 104.56 139.128 103.931 139.128C103.205 139.128 102.544 138.941 101.947 138.568C101.349 138.184 100.875 137.645 100.523 136.952C100.181 136.248 100.011 135.437 100.011 134.52ZM106.699 134.536C106.699 133.853 106.507 133.315 106.123 132.92C105.749 132.525 105.291 132.328 104.747 132.328C104.203 132.328 103.739 132.525 103.355 132.92C102.981 133.304 102.795 133.837 102.795 134.52C102.795 135.203 102.981 135.747 103.355 136.152C103.739 136.547 104.203 136.744 104.747 136.744C105.291 136.744 105.749 136.547 106.123 136.152C106.507 135.757 106.699 135.219 106.699 134.536ZM110.87 134.536C110.87 133.608 111.057 132.797 111.43 132.104C111.814 131.411 112.342 130.877 113.014 130.504C113.697 130.131 114.475 129.944 115.35 129.944C116.47 129.944 117.403 130.237 118.15 130.824C118.907 131.411 119.403 132.237 119.638 133.304H116.726C116.481 132.621 116.006 132.28 115.302 132.28C114.801 132.28 114.401 132.477 114.102 132.872C113.803 133.256 113.654 133.811 113.654 134.536C113.654 135.261 113.803 135.821 114.102 136.216C114.401 136.6 114.801 136.792 115.302 136.792C116.006 136.792 116.481 136.451 116.726 135.768H119.638C119.403 136.813 118.907 137.635 118.15 138.232C117.393 138.829 116.459 139.128 115.35 139.128C114.475 139.128 113.697 138.941 113.014 138.568C112.342 138.195 111.814 137.661 111.43 136.968C111.057 136.275 110.87 135.464 110.87 134.536ZM126.557 139L123.837 135.256V139H121.101V127.16H123.837V133.704L126.541 130.072H129.917L126.205 134.552L129.949 139H126.557Z" fill="white"/>
<defs>
<filter id="filter0_d_162_1432" x="0" y="0" width="216" height="216" filterUnits="userSpaceOnUse" color-interpolation-filters="sRGB">
<feFlood flood-opacity="0" result="BackgroundImageFix"/>
<feColorMatrix in="SourceAlpha" type="matrix" values="0 0 0 0 0 0 0 0 0 0 0 0 0 0 0 0 0 0 127 0" result="hardAlpha"/>
<feMorphology radius="8" operator="dilate" in="SourceAlpha" result="effect1_dropShadow_162_1432"/>
<feOffset dy="4"/>
<feGaussianBlur stdDeviation="22.5"/>
<feComposite in2="hardAlpha" operator="out"/>
<feColorMatrix type="matrix" values="0 0 0 0 1 0 0 0 0 1 0 0 0 0 1 0 0 0 0.25 0"/>
<feBlend mode="normal" in2="BackgroundImageFix" result="effect1_dropShadow_162_1432"/>
<feBlend mode="normal" in="SourceGraphic" in2="effect1_dropShadow_162_1432" result="shape"/>
</filter>
<clipPath id="clip0_162_1432">
<rect width="50" height="50" fill="white" transform="translate(82 62)"/>
</clipPath>
</defs>
</svg>
