<svg width="110" height="110" viewBox="0 0 110 110" fill="none" xmlns="http://www.w3.org/2000/svg">
<rect width="110" height="110" rx="20" fill="white" fill-opacity="0.3"/>
<g clip-path="url(#clip0_413_1149)">
<path d="M55.3279 24.8504C55.3279 22.7229 55.3105 20.5954 55.3318 18.468C55.3628 15.2593 57.5518 12.9923 60.5815 13C63.5996 13.0078 65.8157 15.3116 65.8273 18.5028C65.8428 22.7908 65.8564 27.0787 65.8196 31.3647C65.7964 34.0986 63.8418 36.2843 61.2208 36.6311C58.687 36.9663 56.2617 35.3542 55.5178 32.8586C55.3396 32.2599 55.3318 31.6495 55.3299 31.0392C55.3221 28.9756 55.326 26.9121 55.3279 24.8504Z" fill="#2EB57D"/>
<path d="M67.1155 49.8398C64.9846 49.8398 62.8538 49.8514 60.7248 49.8379C57.6138 49.8185 55.3357 47.5844 55.3434 44.5792C55.3492 41.572 57.6176 39.367 60.7481 39.3574C65.0079 39.3438 69.2696 39.3457 73.5294 39.3574C76.656 39.3651 78.9709 41.5759 79 44.5521C79.029 47.5069 76.6328 49.8224 73.5062 49.8379C71.3753 49.8495 69.2464 49.8398 67.1155 49.8398Z" fill="#EBB12E"/>
<path d="M40.7993 26.1757C42.9611 26.1757 45.1249 26.1582 47.2868 26.1795C50.3359 26.2086 52.6527 28.464 52.6566 31.3781C52.6605 34.3175 50.2894 36.6504 47.2519 36.6601C42.9592 36.6736 38.6664 36.6736 34.3737 36.6601C31.2684 36.6504 28.9923 34.4066 29 31.3936C29.0058 28.4214 31.2452 26.2086 34.3117 26.1795C36.4736 26.1582 38.6374 26.1757 40.7993 26.1757Z" fill="#36C4EF"/>
<path d="M42.1727 51.0895C42.1727 48.7993 42.1068 46.509 42.1901 44.2207C42.2811 41.7386 44.2629 39.6712 46.663 39.3825C49.2569 39.0705 51.6124 40.545 52.3737 42.9903C52.5248 43.4766 52.6372 43.9998 52.6391 44.5055C52.6604 48.9233 52.6914 53.343 52.6391 57.7588C52.6062 60.5315 50.5664 62.6861 47.8757 62.9729C45.4 63.2364 42.9998 61.5642 42.3218 59.1054C42.13 58.4117 42.1514 57.7006 42.1494 56.9915C42.1475 55.0248 42.1494 53.0562 42.1494 51.0895H42.1727Z" fill="#DF1E5A"/>
<path d="M71.5187 36.6621C70.6799 36.6621 69.8411 36.6505 69.0023 36.6679C68.611 36.6757 68.3999 36.573 68.4173 36.1312C68.4871 34.2633 68.2546 32.3839 68.5452 30.5257C68.9791 27.7355 71.4645 25.9161 74.3683 26.2048C76.9156 26.4587 79.0116 28.8652 78.9574 31.4809C78.9012 34.2556 76.6812 36.5536 73.9402 36.6544C73.1343 36.6834 72.3265 36.6582 71.5206 36.6582V36.664L71.5187 36.6621Z" fill="#2EB57D"/>
<path d="M49.3169 23.4922C48.4878 23.4438 47.4824 23.5969 46.4925 23.3992C43.5907 22.8199 41.8821 20.4347 42.2134 17.4469C42.4981 14.866 44.8866 12.9226 47.6684 13.0078C50.361 13.0911 52.5365 15.2806 52.645 18.0941C52.705 19.6732 52.643 21.2562 52.6701 22.8373C52.6798 23.3469 52.5035 23.5194 52.0018 23.5C51.165 23.469 50.3242 23.4922 49.3169 23.4922Z" fill="#36C4EF"/>
<path d="M39.511 42.6104C39.4413 43.5579 39.6292 44.6876 39.3541 45.8075C38.7071 48.4407 36.2062 50.171 33.5407 49.8048C30.7589 49.4231 28.8508 47.003 29.0426 44.0966C29.2131 41.5041 31.4486 39.4114 34.1412 39.3591C35.689 39.3301 37.2387 39.3824 38.7865 39.3359C39.4122 39.3165 39.5556 39.5393 39.5226 40.1109C39.4781 40.8821 39.511 41.6591 39.511 42.6104Z" fill="#DF1E5A"/>
<path d="M58.8284 52.4942C59.8047 52.5562 60.9709 52.3683 62.1118 52.717C64.5779 53.4708 66.1779 56.0071 65.7363 58.4969C65.2404 61.289 62.908 63.1782 60.1979 62.9825C57.5673 62.7926 55.4635 60.6884 55.3628 58.0629C55.3008 56.4508 55.3667 54.8348 55.324 53.2208C55.3085 52.5872 55.5836 52.4632 56.1338 52.4826C56.9726 52.5136 57.8114 52.4903 58.8303 52.4903L58.8284 52.4942Z" fill="#EBB12E"/>
</g>
<path d="M37.056 90.112C36.2347 90.112 35.4987 89.9787 34.848 89.712C34.1973 89.4453 33.6747 89.0507 33.28 88.528C32.896 88.0053 32.6933 87.376 32.672 86.64H35.584C35.6267 87.056 35.7707 87.376 36.016 87.6C36.2613 87.8133 36.5813 87.92 36.976 87.92C37.3813 87.92 37.7013 87.8293 37.936 87.648C38.1707 87.456 38.288 87.1947 38.288 86.864C38.288 86.5867 38.192 86.3573 38 86.176C37.8187 85.9947 37.5893 85.8453 37.312 85.728C37.0453 85.6107 36.6613 85.4773 36.16 85.328C35.4347 85.104 34.8427 84.88 34.384 84.656C33.9253 84.432 33.5307 84.1013 33.2 83.664C32.8693 83.2267 32.704 82.656 32.704 81.952C32.704 80.9067 33.0827 80.0907 33.84 79.504C34.5973 78.9067 35.584 78.608 36.8 78.608C38.0373 78.608 39.0347 78.9067 39.792 79.504C40.5493 80.0907 40.9547 80.912 41.008 81.968H38.048C38.0267 81.6053 37.8933 81.3227 37.648 81.12C37.4027 80.9067 37.088 80.8 36.704 80.8C36.3733 80.8 36.1067 80.8907 35.904 81.072C35.7013 81.2427 35.6 81.4933 35.6 81.824C35.6 82.1867 35.7707 82.4693 36.112 82.672C36.4533 82.8747 36.9867 83.0933 37.712 83.328C38.4373 83.5733 39.024 83.808 39.472 84.032C39.9307 84.256 40.3253 84.5813 40.656 85.008C40.9867 85.4347 41.152 85.984 41.152 86.656C41.152 87.296 40.9867 87.8773 40.656 88.4C40.336 88.9227 39.8667 89.3387 39.248 89.648C38.6293 89.9573 37.8987 90.112 37.056 90.112ZM45.5718 78.16V90H42.8358V78.16H45.5718ZM47.0105 85.52C47.0105 84.6027 47.1812 83.7973 47.5225 83.104C47.8745 82.4107 48.3492 81.8773 48.9465 81.504C49.5438 81.1307 50.2105 80.944 50.9465 80.944C51.5758 80.944 52.1252 81.072 52.5945 81.328C53.0745 81.584 53.4425 81.92 53.6985 82.336V81.072H56.4345V90H53.6985V88.736C53.4318 89.152 53.0585 89.488 52.5785 89.744C52.1092 90 51.5598 90.128 50.9305 90.128C50.2052 90.128 49.5438 89.9413 48.9465 89.568C48.3492 89.184 47.8745 88.6453 47.5225 87.952C47.1812 87.248 47.0105 86.4373 47.0105 85.52ZM53.6985 85.536C53.6985 84.8533 53.5065 84.3147 53.1225 83.92C52.7492 83.5253 52.2905 83.328 51.7465 83.328C51.2025 83.328 50.7385 83.5253 50.3545 83.92C49.9812 84.304 49.7945 84.8373 49.7945 85.52C49.7945 86.2027 49.9812 86.7467 50.3545 87.152C50.7385 87.5467 51.2025 87.744 51.7465 87.744C52.2905 87.744 52.7492 87.5467 53.1225 87.152C53.5065 86.7573 53.6985 86.2187 53.6985 85.536ZM57.8699 85.536C57.8699 84.608 58.0565 83.7973 58.4299 83.104C58.8139 82.4107 59.3419 81.8773 60.0139 81.504C60.6965 81.1307 61.4752 80.944 62.3499 80.944C63.4699 80.944 64.4032 81.2373 65.1499 81.824C65.9072 82.4107 66.4032 83.2373 66.6379 84.304H63.7259C63.4805 83.6213 63.0059 83.28 62.3019 83.28C61.8005 83.28 61.4005 83.4773 61.1019 83.872C60.8032 84.256 60.6539 84.8107 60.6539 85.536C60.6539 86.2613 60.8032 86.8213 61.1019 87.216C61.4005 87.6 61.8005 87.792 62.3019 87.792C63.0059 87.792 63.4805 87.4507 63.7259 86.768H66.6379C66.4032 87.8133 65.9072 88.6347 65.1499 89.232C64.3925 89.8293 63.4592 90.128 62.3499 90.128C61.4752 90.128 60.6965 89.9413 60.0139 89.568C59.3419 89.1947 58.8139 88.6613 58.4299 87.968C58.0565 87.2747 57.8699 86.464 57.8699 85.536ZM73.5574 90L70.8374 86.256V90H68.1014V78.16H70.8374V84.704L73.5414 81.072H76.9174L73.2054 85.552L76.9494 90H73.5574Z" fill="white"/>
<defs>
<clipPath id="clip0_413_1149">
<rect width="50" height="50" fill="white" transform="translate(29 13)"/>
</clipPath>
</defs>
</svg>
