<svg width="216" height="216" viewBox="0 0 216 216" fill="none" xmlns="http://www.w3.org/2000/svg">
<g filter="url(#filter0_d_162_975)">
<rect x="53" y="49" width="110" height="110" rx="20" fill="white" fill-opacity="0.3" shape-rendering="crispEdges"/>
</g>
<path d="M90.072 131.768V133.96H87.096V143H84.36V133.96H81.384V131.768H90.072ZM99.8611 138.392C99.8611 138.648 99.8451 138.915 99.8131 139.192H93.6211C93.6638 139.747 93.8398 140.173 94.1491 140.472C94.4691 140.76 94.8585 140.904 95.3171 140.904C95.9998 140.904 96.4745 140.616 96.7411 140.04H99.6531C99.5038 140.627 99.2318 141.155 98.8371 141.624C98.4531 142.093 97.9678 142.461 97.3811 142.728C96.7945 142.995 96.1385 143.128 95.4131 143.128C94.5385 143.128 93.7598 142.941 93.0771 142.568C92.3945 142.195 91.8611 141.661 91.4771 140.968C91.0931 140.275 90.9011 139.464 90.9011 138.536C90.9011 137.608 91.0878 136.797 91.4611 136.104C91.8451 135.411 92.3785 134.877 93.0611 134.504C93.7438 134.131 94.5278 133.944 95.4131 133.944C96.2771 133.944 97.0451 134.125 97.7171 134.488C98.3891 134.851 98.9118 135.368 99.2851 136.04C99.6691 136.712 99.8611 137.496 99.8611 138.392ZM97.0611 137.672C97.0611 137.203 96.9011 136.829 96.5811 136.552C96.2611 136.275 95.8611 136.136 95.3811 136.136C94.9225 136.136 94.5331 136.269 94.2131 136.536C93.9038 136.803 93.7118 137.181 93.6371 137.672H97.0611ZM100.761 138.52C100.761 137.603 100.931 136.797 101.273 136.104C101.625 135.411 102.099 134.877 102.697 134.504C103.294 134.131 103.961 133.944 104.697 133.944C105.326 133.944 105.875 134.072 106.345 134.328C106.825 134.584 107.193 134.92 107.449 135.336V134.072H110.185V143H107.449V141.736C107.182 142.152 106.809 142.488 106.329 142.744C105.859 143 105.31 143.128 104.681 143.128C103.955 143.128 103.294 142.941 102.697 142.568C102.099 142.184 101.625 141.645 101.273 140.952C100.931 140.248 100.761 139.437 100.761 138.52ZM107.449 138.536C107.449 137.853 107.257 137.315 106.873 136.92C106.499 136.525 106.041 136.328 105.497 136.328C104.953 136.328 104.489 136.525 104.105 136.92C103.731 137.304 103.545 137.837 103.545 138.52C103.545 139.203 103.731 139.747 104.105 140.152C104.489 140.547 104.953 140.744 105.497 140.744C106.041 140.744 106.499 140.547 106.873 140.152C107.257 139.757 107.449 139.219 107.449 138.536ZM123.556 133.976C124.665 133.976 125.545 134.312 126.196 134.984C126.857 135.656 127.188 136.589 127.188 137.784V143H124.468V138.152C124.468 137.576 124.313 137.133 124.004 136.824C123.705 136.504 123.289 136.344 122.756 136.344C122.223 136.344 121.801 136.504 121.492 136.824C121.193 137.133 121.044 137.576 121.044 138.152V143H118.324V138.152C118.324 137.576 118.169 137.133 117.86 136.824C117.561 136.504 117.145 136.344 116.612 136.344C116.079 136.344 115.657 136.504 115.348 136.824C115.049 137.133 114.9 137.576 114.9 138.152V143H112.164V134.072H114.9V135.192C115.177 134.819 115.54 134.525 115.988 134.312C116.436 134.088 116.943 133.976 117.508 133.976C118.18 133.976 118.777 134.12 119.3 134.408C119.833 134.696 120.249 135.107 120.548 135.64C120.857 135.149 121.279 134.749 121.812 134.44C122.345 134.131 122.927 133.976 123.556 133.976ZM132.733 143.128C131.955 143.128 131.261 142.995 130.653 142.728C130.045 142.461 129.565 142.099 129.213 141.64C128.861 141.171 128.664 140.648 128.621 140.072H131.325C131.357 140.381 131.501 140.632 131.757 140.824C132.013 141.016 132.328 141.112 132.701 141.112C133.043 141.112 133.304 141.048 133.485 140.92C133.677 140.781 133.773 140.605 133.773 140.392C133.773 140.136 133.64 139.949 133.373 139.832C133.107 139.704 132.675 139.565 132.077 139.416C131.437 139.267 130.904 139.112 130.477 138.952C130.051 138.781 129.683 138.52 129.373 138.168C129.064 137.805 128.909 137.32 128.909 136.712C128.909 136.2 129.048 135.736 129.325 135.32C129.613 134.893 130.029 134.557 130.573 134.312C131.128 134.067 131.784 133.944 132.541 133.944C133.661 133.944 134.541 134.221 135.181 134.776C135.832 135.331 136.205 136.067 136.301 136.984H133.773C133.731 136.675 133.592 136.429 133.357 136.248C133.133 136.067 132.835 135.976 132.461 135.976C132.141 135.976 131.896 136.04 131.725 136.168C131.555 136.285 131.469 136.451 131.469 136.664C131.469 136.92 131.603 137.112 131.869 137.24C132.147 137.368 132.573 137.496 133.149 137.624C133.811 137.795 134.349 137.965 134.765 138.136C135.181 138.296 135.544 138.563 135.853 138.936C136.173 139.299 136.339 139.789 136.349 140.408C136.349 140.931 136.2 141.4 135.901 141.816C135.613 142.221 135.192 142.541 134.637 142.776C134.093 143.011 133.459 143.128 132.733 143.128Z" fill="white"/>
<g clip-path="url(#clip0_162_975)">
<path d="M119.415 108.888C119.238 108.9 119.216 109.057 119.159 109.175C118.629 110.281 117.979 111.311 117.208 112.266C115.988 113.779 114.532 115.014 112.851 115.982C111.146 116.965 109.311 117.58 107.369 117.868C105.596 118.13 103.84 117.996 102.117 117.534C97.8399 116.387 94.6099 113.863 92.4088 110.015C92.3413 109.897 92.2569 109.785 92.2405 109.643C92.3376 109.574 92.4491 109.588 92.5578 109.588C95.9543 109.604 99.3509 109.572 102.747 109.605C103.878 109.617 104.707 109.206 105.241 108.207C105.285 108.14 105.342 108.085 105.409 108.042C106.396 107.514 106.787 106.69 106.784 105.571C106.764 98.5169 106.773 91.4623 106.776 84.4081C106.776 84.1529 106.718 83.8807 106.905 83.6548C107 83.6503 107.096 83.6416 107.191 83.6416C110.911 83.6387 114.63 83.6362 118.349 83.635C118.458 83.635 118.567 83.6466 118.676 83.6528C119.981 83.946 120.773 84.935 120.774 86.3023C120.778 91.9335 120.804 97.5651 120.76 103.196C120.744 105.176 120.253 107.083 119.415 108.888V108.888Z" fill="#7B83EB"/>
<path d="M119.415 108.888C119.325 108.731 119.413 108.594 119.472 108.461C119.961 107.352 120.265 106.186 120.462 104.998C120.577 104.3 120.655 103.592 120.654 102.877C120.646 97.3564 120.634 91.8359 120.664 86.3159C120.67 85.2066 119.862 84.0371 118.853 83.7452C118.787 83.7262 118.719 83.7138 118.676 83.6527C118.758 83.6477 118.84 83.639 118.922 83.639C122.735 83.6382 126.548 83.6403 130.361 83.637C131.084 83.6361 131.705 83.8781 132.217 84.3853C132.75 84.9138 133.001 85.5593 133 86.3146C132.995 89.3123 132.998 92.31 132.998 95.3081C132.998 96.917 132.993 98.5259 132.999 100.135C133.016 104.727 129.756 108.789 125.077 109.611C123.129 109.954 121.225 109.738 119.415 108.889V108.888Z" fill="#5059C9"/>
<path d="M97.6046 73.9948C97.4486 73.6078 97.4075 73.1932 97.3762 72.7877C97.242 71.0536 97.5054 69.3861 98.3358 67.8424C99.7383 65.235 101.893 63.61 104.811 63.1314C107.542 62.6833 110.005 63.3849 112.109 65.216C113.756 66.649 114.762 68.4573 115.057 70.6266C115.473 73.6797 114.571 76.3078 112.359 78.4457C111.021 79.7382 109.408 80.5175 107.556 80.7756C107.339 80.8057 107.126 80.8631 106.904 80.8351C106.751 80.6629 106.781 80.4494 106.78 80.2462C106.777 79.0242 106.78 77.8019 106.778 76.5799C106.775 75.1308 105.788 74.1352 104.315 74.1252C102.288 74.1116 100.261 74.1232 98.2342 74.1199C98.0182 74.1199 97.7914 74.1533 97.605 73.9948H97.6046Z" fill="#7B83EB"/>
<path d="M125.459 68.4995C129.101 68.5367 131.651 71.5187 131.623 74.7043C131.594 78.1265 128.889 80.8446 125.475 80.8743C122.295 80.902 119.296 78.3644 119.287 74.6997C119.279 71.2408 122.021 68.535 125.459 68.4995H125.459Z" fill="#5059C9"/>
<path d="M79.745 105.604C78.5739 105.643 77.4019 105.647 76.2312 105.6C75.79 105.582 75.383 105.421 75.0489 105.112C75.0263 105.074 75.002 105.038 74.9534 105.03L74.96 105.038C74.8468 104.926 74.7361 104.811 74.6217 104.701L74.6197 104.703C74.6053 104.436 74.8275 104.367 74.997 104.268C77.0542 103.058 79.1236 101.869 81.1898 100.676C83.0782 99.5845 84.9613 98.4843 86.8538 97.4007C87.0337 97.2975 87.2279 97.065 87.467 97.3231C87.5694 97.7166 87.4727 98.1201 87.5308 98.5141C87.5637 98.5702 87.6122 98.6058 87.6756 98.6235C88.5274 98.6429 89.3776 98.6173 90.2278 98.6355C90.5512 98.6425 90.6619 98.5128 90.6619 98.1969C90.6627 97.2347 90.6302 96.2725 90.6792 95.3111C90.7224 95.1336 90.8632 95.0485 91.0076 94.9651C94.7573 92.7958 98.5044 90.6228 102.256 88.4568C102.731 88.1826 103.201 87.8997 103.682 87.6383C103.921 87.509 104.007 87.3397 104.003 87.0767C103.993 86.4176 103.998 85.7581 104.001 85.0986C104.002 84.9619 103.988 84.8178 104.07 84.6984C104.162 84.5634 104.222 84.6435 104.271 84.7434C104.368 85.2852 104.314 85.8316 104.315 86.3755C104.317 87.1522 104.348 87.9294 104.296 88.705C104.13 89.369 104.207 90.0467 104.224 90.7157C104.236 91.2315 104.074 91.5234 103.607 91.7857C100.736 93.3995 97.8991 95.0712 95.0478 96.7181C90.9607 99.079 86.8777 101.447 82.7939 103.813C81.7742 104.404 80.7384 104.968 79.745 105.604V105.604Z" fill="#464EB7"/>
<path d="M79.7451 105.604C79.7612 105.4 79.9435 105.348 80.0756 105.271C81.5409 104.417 83.0133 103.575 84.4803 102.724C85.6038 102.072 86.7206 101.408 87.8444 100.757C88.9921 100.091 90.1468 99.4377 91.2949 98.7724C92.4187 98.1212 93.5356 97.4571 94.6598 96.8063C95.666 96.2236 96.6807 95.6558 97.6873 95.0739C98.6222 94.5334 99.5498 93.9792 100.484 93.4365C101.288 92.9695 102.097 92.5098 102.905 92.0494C103.249 91.8536 103.592 91.6558 103.944 91.4754C104.121 91.3849 104.106 91.2392 104.106 91.0897C104.107 90.471 104.104 89.852 104.108 89.2334C104.109 89.1013 104.064 88.9546 104.187 88.8452C104.288 88.9344 104.311 89.0575 104.312 89.1805C104.314 90.2869 104.356 91.3932 104.29 92.4987C104.148 92.9459 104.277 93.4138 104.192 93.8652C104.147 94.0114 104.02 94.0684 103.9 94.1361C100.371 96.1423 96.8672 98.1939 93.3529 100.227C90.3135 101.985 87.2691 103.735 84.2376 105.506C84.1898 105.534 84.1429 105.56 84.1071 105.603C83.5915 105.652 83.0746 105.623 82.5586 105.621C81.6208 105.618 80.6825 105.651 79.7451 105.603V105.604Z" fill="#434AB4"/>
<path d="M87.3995 97.2624C87.0502 97.3239 86.7856 97.5597 86.4909 97.7257C85.5502 98.2564 84.6264 98.8167 83.6923 99.359C82.8878 99.826 82.0771 100.282 81.2714 100.746C80.466 101.211 79.664 101.681 78.8591 102.147C78.0542 102.613 77.2464 103.074 76.4411 103.539C75.9082 103.847 75.3761 104.156 74.8448 104.466C74.7481 104.523 74.6794 104.609 74.6197 104.703C74.2477 104.315 74.063 103.851 74.0556 103.314C73.9885 102.554 74.0457 101.793 74.0259 101.034C74.0095 100.843 74.1576 100.783 74.2877 100.708C78.492 98.2675 82.7014 95.8364 86.9111 93.4053C87.0889 93.3025 87.3115 93.089 87.4913 93.428C87.5428 94.593 87.5065 95.7579 87.5115 96.9221C87.5119 97.0455 87.5028 97.1707 87.3995 97.2619V97.2624Z" fill="#4A52BA"/>
<path d="M74.0803 100.894C74.072 101.7 74.0638 102.507 74.056 103.313C73.9741 103.173 74.0066 103.018 74.0066 102.87C74.0066 94.6255 74.0095 86.3807 74.0074 78.1363C74.0074 77.2971 74.2399 76.5662 74.8872 76.0029C75.3263 75.6209 75.8337 75.4049 76.4193 75.3901C76.5835 75.3859 76.7481 75.3872 76.9127 75.3872C83.7659 75.3864 90.6188 75.3859 97.472 75.3843C97.6498 75.3843 97.8276 75.3731 98.0054 75.3669C98.0136 75.3921 98.0218 75.4177 98.0301 75.4429C97.9004 75.6354 97.6955 75.6052 97.5107 75.6069C96.7741 75.6118 96.0379 75.6184 95.3013 75.606C94.2347 75.6106 93.1681 75.6184 92.1019 75.606C90.018 75.5796 87.9337 75.5999 85.8494 75.597C85.6963 75.597 85.5531 75.6288 85.4177 75.7093C81.8619 77.8373 78.26 79.8852 74.6663 81.9471C74.2881 82.1643 74.1609 82.41 74.1729 82.8292C74.2037 83.9008 74.1671 84.9737 74.1934 86.0466C74.1984 87.2285 74.205 88.41 74.1918 89.5914C74.2021 90.7998 74.2099 92.0085 74.1881 93.2168C74.2099 94.5916 74.2037 95.9663 74.1918 97.3411C74.2103 98.369 74.1976 99.3968 74.198 100.425C74.198 100.59 74.1885 100.755 74.0803 100.894Z" fill="#5860C2"/>
<path d="M104.107 93.9619C104.107 93.6084 104.105 93.2549 104.108 92.9014C104.109 92.7829 104.075 92.6532 104.187 92.5591C104.3 92.6607 104.314 92.7994 104.314 92.9357C104.313 94.0837 104.349 95.2318 104.297 96.3786C104.136 96.986 104.222 97.6067 104.221 98.2208C104.22 98.5925 104.102 98.8175 103.769 99.0083C100.217 101.045 96.6798 103.108 93.131 105.151C92.8569 105.308 92.622 105.521 92.3463 105.675C91.8483 105.749 91.3488 105.727 90.8492 105.7C90.7179 105.6 90.5644 105.626 90.4167 105.626C89.6003 105.625 88.7842 105.626 87.9678 105.624C87.8324 105.624 87.697 105.611 87.5616 105.604C87.4892 105.325 87.7176 105.249 87.883 105.148C89.0077 104.461 90.157 103.818 91.2969 103.158C94.5984 101.247 97.8971 99.3317 101.202 97.4258C102.022 96.953 102.831 96.4599 103.665 96.0119C103.92 95.8748 104.017 95.6997 104.005 95.4205C103.99 95.0773 103.999 94.7329 104.003 94.3893C104.004 94.2398 103.987 94.0833 104.106 93.9611L104.107 93.9619Z" fill="#4047B1"/>
<path d="M104.107 93.9619C104.107 94.5116 104.099 95.0612 104.11 95.6105C104.115 95.8145 104.045 95.9264 103.864 96.0288C102.769 96.6466 101.684 97.2817 100.594 97.9082C99.255 98.6779 97.9127 99.4415 96.5761 100.215C95.4527 100.865 94.3379 101.53 93.2145 102.18C92.2092 102.762 91.1952 103.329 90.1895 103.91C89.397 104.368 88.6126 104.84 87.82 105.299C87.6912 105.373 87.6155 105.474 87.5624 105.604C86.4106 105.64 85.2592 105.639 84.1074 105.604C84.1165 105.417 84.2807 105.361 84.4012 105.291C85.4852 104.655 86.5752 104.031 87.662 103.4C88.6542 102.825 89.643 102.243 90.6352 101.669C91.5685 101.128 92.5063 100.594 93.4396 100.053C94.798 99.2644 96.1519 98.469 97.5111 97.6827C98.8353 96.9167 100.164 96.1585 101.49 95.397C102.236 94.9687 102.981 94.5388 103.729 94.1131C103.847 94.0462 103.964 93.9685 104.107 93.9619Z" fill="#4249B3"/>
<path d="M106.905 83.6539C106.905 91.0286 106.903 98.4037 106.909 105.778C106.91 106.896 106.443 107.692 105.42 108.151C105.338 108.06 105.336 107.948 105.357 107.84C105.54 106.886 105.461 105.921 105.464 104.963C105.479 98.0969 105.471 91.231 105.474 84.3646C105.474 84.1239 105.41 83.8658 105.591 83.6515C106.029 83.6304 106.467 83.6267 106.905 83.6535V83.6539Z" fill="#6F76D4"/>
<path d="M104.187 96.5206C104.187 95.1999 104.187 93.8797 104.187 92.559C104.187 91.3214 104.187 90.0837 104.187 88.8461C104.187 87.4437 104.187 86.0417 104.187 84.6392C103.997 84.351 104.072 84.0413 104.113 83.7344C104.131 83.6882 104.162 83.6518 104.204 83.625C104.639 83.6337 105.073 83.6419 105.508 83.6506C105.582 83.8079 105.544 83.9752 105.544 84.1375C105.547 90.9753 105.546 97.8132 105.546 104.651C105.546 105.899 104.734 106.876 103.5 107.088C103.082 107.16 102.656 107.166 102.235 107.08C102.043 106.984 102.122 106.9 102.254 106.834C102.425 106.75 102.613 106.709 102.781 106.615C103.779 106.06 104.219 105.094 104.06 103.793C104.052 103.726 104.034 103.66 104.032 103.59C104.078 102.438 104.084 101.285 104.06 100.132C104.066 98.9269 104.169 97.7252 104.187 96.5206Z" fill="#474B88"/>
<path d="M102.13 106.995C102.648 106.975 103.172 107.073 103.681 106.917C104.564 106.647 105.175 106.092 105.46 105.196C105.529 104.979 105.505 104.76 105.505 104.543C105.508 98.4029 105.508 92.263 105.508 86.123C105.508 85.2988 105.508 84.4749 105.508 83.6506C105.535 83.651 105.563 83.6519 105.59 83.6523C105.589 91.1393 105.588 98.6263 105.586 106.113C105.586 106.797 105.634 107.485 105.42 108.151C105.392 108.179 105.365 108.207 105.338 108.235C104.95 108.53 104.494 108.533 104.041 108.534C100.379 108.536 96.7169 108.535 93.0549 108.535C92.7804 108.535 92.5059 108.528 92.2318 108.536C91.931 108.545 91.7002 108.452 91.5759 108.16C91.394 107.787 91.2508 107.401 91.1825 106.99C91.3405 106.844 91.5397 106.866 91.7282 106.865C95.014 106.862 98.2999 106.862 101.586 106.865C101.774 106.865 101.974 106.843 102.129 106.995H102.13Z" fill="#595EAA"/>
<path d="M97.6045 73.9948C99.8649 73.9948 102.125 73.9841 104.385 73.9985C105.687 74.0068 106.512 74.7716 106.866 75.8957C106.909 76.0315 106.905 76.1662 106.905 76.3029C106.905 77.8135 106.905 79.3241 106.904 80.8347C106.462 80.8772 106.021 80.881 105.579 80.831C105.449 80.6815 105.474 80.4977 105.473 80.3226C105.469 79.6528 105.472 78.983 105.471 78.3132C105.47 76.639 104.766 75.7809 103.137 75.4724C102.88 75.4014 102.619 75.4319 102.36 75.4327C100.963 75.4373 99.5666 75.4142 98.1699 75.4439C98.1144 75.4451 98.0617 75.4319 98.0111 75.4084C98.0078 75.3947 98.0057 75.3807 98.0053 75.3667C97.8609 74.9124 97.6498 74.478 97.6045 73.9944V73.9948Z" fill="#6F76D4"/>
<path d="M102.13 106.995C98.4814 106.993 94.8326 106.991 91.1837 106.99C91.022 106.573 90.9195 106.141 90.85 105.7C90.9426 105.56 91.0874 105.602 91.2158 105.6C91.617 105.595 92.0187 105.597 92.4203 105.596C92.5964 105.461 92.803 105.462 93.0092 105.462C94.5976 105.463 96.186 105.457 97.774 105.464C99.1579 105.49 100.544 105.509 101.927 105.459C102.801 105.427 103.428 104.92 103.829 104.141C103.909 103.985 103.939 103.796 104.112 103.699C104.271 104.209 104.229 104.722 104.077 105.216C103.817 106.069 103.235 106.623 102.39 106.9C102.303 106.929 102.196 106.903 102.131 106.995L102.13 106.995Z" fill="#393C6D"/>
<path d="M91.5767 108.16C91.7331 108.355 91.9302 108.407 92.1816 108.407C96.2049 108.398 100.229 108.399 104.252 108.404C104.626 108.404 104.973 108.27 105.338 108.234C105.009 109.01 104.421 109.473 103.615 109.681C103.493 109.713 103.373 109.722 103.25 109.722C99.7258 109.723 96.2021 109.723 92.6783 109.725C92.5248 109.725 92.3779 109.713 92.2401 109.641C91.9701 109.169 91.7273 108.685 91.5763 108.159L91.5767 108.16Z" fill="#6269BC"/>
<path d="M103.2 75.3898C104.366 75.4571 105.195 76.2145 105.492 77.2993C105.557 77.5356 105.591 77.7788 105.588 78.0299C105.577 78.9636 105.581 79.8973 105.579 80.8314C105.159 80.8512 104.754 80.7579 104.35 80.6604C104.259 80.6303 104.149 80.6311 104.113 80.5118C104.024 79.8209 104.097 79.1267 104.074 78.4342C104.063 78.1216 104.094 77.8081 104.051 77.4976C103.943 76.9611 103.724 76.4842 103.306 76.1158C103.061 75.8944 102.767 75.7557 102.48 75.6025C102.408 75.5645 102.154 75.5451 102.375 75.3576C102.65 75.3749 102.927 75.32 103.199 75.3898H103.2Z" fill="#474B88"/>
<path d="M104.195 80.5888C104.256 80.5925 104.313 80.6032 104.35 80.6598C104.169 80.6759 104.193 80.8114 104.194 80.9311C104.197 81.8289 104.201 82.7267 104.204 83.6245L104.188 83.6555C104.129 83.6732 104.084 83.6555 104.053 83.6022C103.924 83.2987 103.983 82.9782 103.978 82.6652C103.969 82.1291 103.964 81.5927 103.983 81.0571C103.989 80.8841 103.926 80.6524 104.195 80.5884V80.5888Z" fill="#4F57BE"/>
<path d="M74.6218 104.7C74.791 104.756 74.9021 104.87 74.9605 105.037C74.8033 104.97 74.6905 104.857 74.6218 104.7Z" fill="#4A52BA"/>
<path d="M74.9539 105.03C75.0039 105.037 75.0353 105.065 75.0498 105.113C75.0018 105.104 74.9659 105.081 74.9539 105.03Z" fill="#4A52BA"/>
<path d="M104.107 83.6482C104.134 83.6491 104.161 83.6515 104.188 83.6561C104.188 83.984 104.187 84.3114 104.187 84.6393C104.064 84.7484 104.11 84.8946 104.109 85.0263C104.105 85.7535 104.102 86.4812 104.11 87.2084C104.112 87.4293 104.068 87.5565 103.837 87.6792C103.041 88.1008 102.274 88.5745 101.495 89.0262C100.703 89.485 99.9102 89.9414 99.1185 90.3989C98.2914 90.8771 97.4642 91.3558 96.6367 91.8336C95.8445 92.2911 95.052 92.7474 94.2602 93.2058C93.3035 93.7596 92.348 94.3159 91.3904 94.8688C91.1892 94.9849 90.9818 95.0902 90.7772 95.2004C90.6719 95.1112 90.662 94.9865 90.6624 94.8635C90.6645 93.7022 90.6361 92.5406 90.676 91.3805C90.7122 91.1943 90.8682 91.1278 91.0106 91.0456C95.203 88.6228 99.3934 86.197 103.584 83.7709C103.74 83.6804 103.894 83.5198 104.107 83.6482H104.107Z" fill="#4A52BA"/>
<path d="M90.7768 91.2401C90.7768 92.5603 90.7768 93.8805 90.7768 95.2008C90.776 96.1993 90.7752 97.1979 90.7744 98.1964C90.7744 98.2922 90.769 98.388 90.7744 98.4834C90.7851 98.675 90.6999 98.7543 90.5085 98.7514C90.1131 98.7452 89.7172 98.7506 89.3217 98.7502C88.7078 98.7494 88.0938 98.7473 87.4798 98.7457C87.4757 98.7188 87.4716 98.692 87.4679 98.6651C87.5045 98.6238 87.549 98.5941 87.6008 98.5755C88.365 98.4805 89.1329 98.5487 89.8991 98.5334C90.5456 98.5206 90.5571 98.5198 90.5575 97.8566C90.5587 93.8314 90.5575 89.8058 90.5583 85.7807C90.5583 84.8569 90.5805 84.8301 91.5003 84.8363C92.8702 84.8453 94.2405 84.8045 95.6092 84.8581C95.6569 84.8676 95.7026 84.8854 95.7454 84.9089C95.8684 85.0147 95.7771 85.0667 95.6907 85.1179C94.1989 86.0045 92.7117 86.8994 91.1871 87.7295C90.9431 87.8624 90.8822 88.0491 90.8838 88.3022C90.8896 89.1117 90.8875 89.9211 90.8846 90.7301C90.8842 90.9064 90.9065 91.0902 90.776 91.2401H90.7768Z" fill="#4F57BE"/>
<path d="M87.3995 97.2622C87.3995 95.942 87.3995 94.6222 87.3995 93.3019C87.2794 93.1694 87.2691 93.0042 87.2695 92.839C87.2703 91.812 87.2526 90.7853 87.2785 89.7583C87.2596 88.3889 87.2576 87.0195 87.279 85.6501C87.3057 85.2574 87.0839 85.1748 86.7424 85.1773C85.4873 85.1856 84.2322 85.1897 82.9775 85.1719C82.7993 85.1695 82.5203 85.2826 82.4791 84.9407C82.633 84.8226 82.8153 84.8345 82.9919 84.8337C84.3066 84.83 85.6218 84.8275 86.9366 84.8345C87.5156 84.8374 87.6135 84.9308 87.6143 85.504C87.6201 89.7195 87.6189 93.935 87.6152 98.1509C87.6152 98.3281 87.6226 98.5114 87.4892 98.6572L87.4728 98.6762C87.4456 98.689 87.4213 98.6849 87.3999 98.6638C87.3999 98.1964 87.3999 97.7293 87.3995 97.2618V97.2622Z" fill="#535BC0"/>
<path d="M87.3999 98.6643C87.4246 98.6651 87.4489 98.6693 87.4727 98.6767C87.4773 98.6994 87.4801 98.7225 87.4806 98.7457C87.4538 98.7184 87.4271 98.6916 87.4003 98.6643H87.3999Z" fill="#4A52BA"/>
<path d="M87.3991 89.7543C87.3991 90.937 87.3991 92.1198 87.3991 93.3021C87.0497 93.3632 86.7847 93.5986 86.4905 93.7654C85.3605 94.4059 84.2453 95.0724 83.1219 95.7245C82.3174 96.1911 81.5071 96.6479 80.7018 97.1125C79.8965 97.5771 79.0936 98.0466 78.2891 98.5128C77.4961 98.972 76.7023 99.4296 75.909 99.8884C75.4711 100.142 75.0324 100.394 74.5967 100.651C74.4312 100.749 74.272 100.855 74.0802 100.894C74.0802 99.7104 74.0794 98.526 74.079 97.3421C74.1485 97.1703 74.3193 97.1249 74.4584 97.0452C78.0126 95.0117 81.5499 92.9486 85.0938 90.8978C85.6629 90.5687 86.2329 90.2408 86.8016 89.9112C86.9781 89.8088 87.1542 89.6283 87.3987 89.7547L87.3991 89.7543Z" fill="#4D55BD"/>
<path d="M74.0774 85.9562C74.0741 84.7606 74.0721 83.5655 74.0663 82.37C74.0655 82.2209 74.1042 82.1367 74.2539 82.0545C75.0564 81.6134 75.8469 81.1509 76.6395 80.6925C77.432 80.2341 78.2209 79.7692 79.0143 79.312C79.8196 78.8478 80.6307 78.3936 81.4356 77.9286C82.2401 77.4636 83.0475 77.0027 83.8392 76.5167C84.3618 76.1958 84.9433 75.9703 85.4054 75.5507C85.5305 75.4372 85.6931 75.4814 85.8408 75.4814C87.8967 75.4793 89.9526 75.4801 92.0089 75.4801C92.0998 75.7717 91.8389 75.82 91.6854 75.9113C90.6258 76.5419 89.5534 77.1506 88.486 77.7683C85.4029 79.5536 82.3207 81.3392 79.2377 83.1245C77.732 83.9962 76.2259 84.8684 74.7185 85.7373C74.5247 85.8492 74.3346 86.0136 74.0774 85.9562Z" fill="#565EC1"/>
<path d="M87.3991 89.7542C87.1749 89.7847 86.9889 89.9103 86.8012 90.0176C85.9827 90.4864 85.1716 90.9683 84.3569 91.444C83.0227 92.2233 81.6907 93.0058 80.3529 93.7785C79.157 94.4694 77.9538 95.1479 76.7551 95.8342C75.9954 96.2691 75.235 96.7023 74.4839 97.1516C74.3523 97.2304 74.2041 97.2598 74.0786 97.3424C74.0786 95.9684 74.0786 94.5945 74.0786 93.221C74.6428 92.7837 75.2835 92.4694 75.8967 92.1147C79.2019 90.2018 82.5071 88.289 85.8115 86.3741C86.2144 86.1407 86.6189 85.9111 87.0226 85.6795C87.1374 85.6138 87.2568 85.5201 87.3983 85.6291V89.7546L87.3991 89.7542Z" fill="#4F57BE"/>
<path d="M74.0774 85.9561C75.0918 85.4432 76.0522 84.8353 77.0365 84.2696C77.997 83.7174 78.9587 83.167 79.9175 82.6115C80.9117 82.0359 81.9018 81.4532 82.8956 80.8779C83.8544 80.3229 84.8178 79.7753 85.7766 79.2203C86.7708 78.6446 87.76 78.0611 88.7542 77.4854C89.7131 76.9304 90.6764 76.3828 91.6352 75.8274C91.7834 75.7415 91.9694 75.687 92.0089 75.4792C93.1059 75.4792 94.2034 75.4792 95.3005 75.4792C95.3108 75.8113 95.0293 75.9058 94.8186 76.026C93.6516 76.6913 92.4924 77.3706 91.3295 78.0433C88.995 79.3933 86.6605 80.7433 84.2573 82.1412C85.2667 82.1333 86.1955 82.1486 87.1259 82.1279C89.1102 82.1003 91.0933 82.1048 93.0763 82.1238C93.8281 82.1028 94.58 82.1048 95.3314 82.1164C95.8108 82.1238 95.9211 82.2258 95.9207 82.6991C95.9198 83.4102 95.977 84.1234 95.8845 84.8333C95.8659 84.8865 95.8355 84.9315 95.7935 84.9687C95.7651 84.9679 95.7367 84.9671 95.7083 84.9658C95.5684 84.8056 95.5836 84.6082 95.582 84.4174C95.5766 83.9227 95.5865 83.428 95.5779 82.9336C95.5705 82.5099 95.5293 82.4748 95.0972 82.4612C95.0289 82.4591 94.9602 82.46 94.8915 82.46C91.0266 82.46 87.1613 82.46 83.2964 82.46C83.2005 82.46 83.1042 82.4657 83.0088 82.462C82.7121 82.4513 82.5977 82.5962 82.5927 82.8874C82.5833 83.4775 82.6306 84.0689 82.5627 84.6569C82.5059 84.8816 82.3137 84.9728 82.1376 85.0732C79.6307 86.5012 77.1472 87.9693 74.6432 89.4015C74.4708 89.5002 74.3058 89.6472 74.0782 89.5852L74.0774 85.9553V85.9561Z" fill="#535BC0"/>
<path d="M74.0778 89.5862C75.0288 89.0782 75.9551 88.5269 76.8839 87.9797C77.883 87.3908 78.8974 86.8284 79.9027 86.2498C80.6949 85.7939 81.4837 85.3322 82.2722 84.8701C82.3331 84.8346 82.3923 84.8074 82.4619 84.8032C82.5018 84.8478 82.5067 84.8945 82.4722 84.9445C82.5722 85.1187 82.7417 85.0473 82.8804 85.0477C84.21 85.0531 85.5395 85.051 86.8687 85.051C86.9646 85.051 87.0609 85.0555 87.1564 85.051C87.3325 85.0423 87.4053 85.1274 87.3987 85.2988C87.3942 85.4086 87.3983 85.5185 87.3987 85.6283C87.0996 85.6684 86.8844 85.8806 86.6383 86.0198C85.5074 86.6591 84.3935 87.3277 83.2701 87.9793C82.4536 88.453 81.629 88.9122 80.8121 89.385C79.6879 90.0363 78.5694 90.6966 77.4456 91.3487C76.6411 91.8153 75.8341 92.2774 75.0243 92.7354C74.7161 92.9097 74.4321 93.1339 74.0786 93.2198C74.0786 92.0086 74.0778 90.7974 74.0774 89.5862H74.0778Z" fill="#5159BF"/>
<path d="M86.9893 82.2407H84.1108C84.0762 82.0862 84.191 82.0474 84.2787 81.997C85.6169 81.2277 86.958 80.4641 88.2938 79.6906C89.6057 78.9312 90.9097 78.1586 92.2212 77.3979C93.0364 76.925 93.8603 76.4666 94.6767 75.995C94.9117 75.8596 95.161 75.7345 95.3009 75.4801C96.0754 75.4801 96.8503 75.4817 97.6247 75.478C97.7556 75.4772 97.8992 75.5218 98.012 75.4086C98.1424 75.317 98.2905 75.3153 98.4424 75.3157C99.9131 75.3174 101.383 75.3157 102.854 75.3178C102.973 75.3178 103.102 75.2852 103.201 75.3901C102.9 75.3929 102.599 75.3958 102.298 75.3987C102.151 75.5387 101.964 75.5032 101.79 75.504C100.817 75.5077 99.8436 75.5094 98.8704 75.5032C98.6128 75.5016 98.4033 75.5775 98.1864 75.7241C97.1741 76.408 96.091 76.9738 95.0359 77.5862C92.3558 79.141 89.6789 80.7012 86.9901 82.2411L86.9893 82.2407Z" fill="#535BC0"/>
<path d="M97.8518 105.595H92.4199C92.5306 105.315 92.8076 105.224 93.0322 105.091C94.2417 104.373 95.4597 103.671 96.6778 102.968C98.0144 102.197 99.3551 101.432 100.692 100.663C101.769 100.043 102.843 99.4174 103.923 98.803C104.083 98.7117 104.11 98.5928 104.109 98.4313C104.103 97.9233 104.104 97.4154 104.109 96.9075C104.11 96.7757 104.064 96.6291 104.187 96.5205C104.187 97.7305 104.187 98.9409 104.187 100.151C104.097 100.639 104.157 101.132 104.152 101.623C104.15 101.857 104.074 102.005 103.869 102.119C101.849 103.253 99.8526 104.427 97.8522 105.595H97.8518Z" fill="#3D44AE"/>
<path d="M97.8518 105.595C97.9938 105.297 98.2999 105.198 98.5518 105.049C99.5501 104.459 100.567 103.9 101.569 103.316C102.336 102.87 103.092 102.405 103.88 101.999C104.052 101.911 104.114 101.792 104.109 101.607C104.101 101.251 104.103 100.894 104.109 100.537C104.111 100.406 104.064 100.259 104.187 100.151C104.188 101.106 104.186 102.06 104.191 103.015C104.192 103.247 104.179 103.476 104.111 103.699C103.911 104.533 103.397 105.095 102.622 105.433C102.382 105.538 102.138 105.602 101.871 105.6C100.531 105.593 99.1913 105.596 97.8518 105.595Z" fill="#3A41AC"/>
<path d="M95.7935 84.9688C95.7951 84.9411 95.7972 84.9139 95.7988 84.8862C96.3466 84.4216 97.0042 84.1363 97.6161 83.7786C99.6246 82.605 101.639 81.4409 103.659 80.2866C103.901 80.1483 104.008 79.9724 104.003 79.6916C103.991 79.0746 103.996 78.4576 104.001 77.8402C104.003 77.6796 103.971 77.507 104.108 77.3752C104.236 77.4979 104.186 77.6577 104.187 77.8018C104.194 78.7306 104.194 79.6598 104.196 80.5885C104.056 80.707 104.11 80.8689 104.109 81.013C104.105 81.8914 104.107 82.7694 104.107 83.6477C103.687 83.753 103.355 84.0289 102.99 84.2358C102.027 84.7797 101.074 85.3396 100.118 85.8942C99.3148 86.3597 98.5132 86.8275 97.7103 87.2925C96.919 87.7509 96.1264 88.2073 95.3351 88.6652C94.3783 89.219 93.4277 89.7835 92.4636 90.3241C91.906 90.6367 91.3862 91.0216 90.7776 91.2396C90.7768 90.2118 90.7842 89.1839 90.7694 88.156C90.7657 87.8988 90.8566 87.7683 91.0817 87.6543C92.0187 87.1802 92.9051 86.6149 93.8158 86.0929C94.1944 85.8761 94.5701 85.6543 94.947 85.435C95.0059 85.4008 95.0956 85.3826 95.1207 85.3322C95.2507 85.07 95.4869 85.0411 95.7342 85.0208C95.7556 85.0192 95.7742 84.9866 95.7943 84.9684L95.7935 84.9688Z" fill="#4D55BD"/>
<path d="M86.9893 82.2408C87.0049 82.0546 87.172 82.0042 87.293 81.9344C88.2859 81.3579 89.2879 80.7963 90.2821 80.2219C91.2167 79.6817 92.1434 79.1275 93.0771 78.5857C93.8812 78.1191 94.691 77.6627 95.4964 77.1982C96.3017 76.734 97.1379 76.3136 97.895 75.78C98.3333 75.4711 98.751 75.3799 99.2551 75.391C100.269 75.4137 101.284 75.3985 102.298 75.3989C102.592 75.5756 102.928 75.6743 103.203 75.8895C103.266 75.9394 103.333 75.9807 103.366 76.058C103.387 76.3429 103.145 76.4185 102.969 76.5192C101.494 77.3625 100.031 78.2273 98.5584 79.0738C96.7301 80.1252 94.9054 81.1832 93.0804 82.2408H86.9897H86.9893Z" fill="#525ABF"/>
<path d="M93.08 82.2402C93.0952 82.054 93.2627 82.004 93.3832 81.9338C94.3881 81.3507 95.4021 80.7837 96.4074 80.2023C97.5308 79.5523 98.646 78.8878 99.769 78.2378C100.774 77.656 101.787 77.0873 102.793 76.5063C103.003 76.3849 103.242 76.2928 103.366 76.0574C103.798 76.3923 104.026 76.8424 104.107 77.376C104.107 78.1862 104.094 78.9968 104.114 79.8071C104.12 80.0693 104.013 80.2151 103.81 80.3315C102.812 80.8998 101.813 81.4647 100.819 82.0387C99.8847 82.5785 98.9575 83.131 98.0246 83.6732C97.3868 84.0441 96.7448 84.4079 96.1029 84.7717C96.0087 84.825 95.9128 84.8836 95.7984 84.8869C95.7971 84.1225 95.7984 83.3581 95.7934 82.5937C95.7914 82.2568 95.7836 82.2489 95.449 82.2469C94.6593 82.2415 93.8696 82.2427 93.08 82.2411V82.2402Z" fill="#4F57BE"/>
<path d="M82.4726 84.9444C82.4693 84.8973 82.4656 84.8502 82.4623 84.8032C82.4685 84.1024 82.4742 83.402 82.4808 82.7012C82.4845 82.3225 82.4849 82.3192 82.8668 82.3192C87.0222 82.3188 91.1776 82.3192 95.333 82.3196C95.3742 82.3196 95.4157 82.3237 95.4565 82.3196C95.6478 82.2985 95.7305 82.3729 95.7219 82.5748C95.7096 82.8631 95.7203 83.1521 95.7186 83.4408C95.7161 83.9492 95.712 84.4579 95.7083 84.9663C94.2158 84.9683 92.7236 84.9704 91.2311 84.9725C91.1352 84.9725 91.0385 84.9812 90.9439 84.9712C90.7361 84.9498 90.6789 85.0551 90.6945 85.2405C90.7027 85.3359 90.6957 85.4325 90.6957 85.5287C90.6949 89.729 90.6937 93.9296 90.6929 98.1299C90.6929 98.2397 90.6879 98.3496 90.6929 98.4594C90.6999 98.6089 90.6488 98.6907 90.485 98.6878C89.4867 98.67 88.4876 98.7258 87.4893 98.6576C87.4893 94.21 87.4905 89.7624 87.4893 85.3148C87.4893 84.9783 87.4839 84.9733 87.1531 84.9725C85.7564 84.9704 84.3597 84.9725 82.9631 84.9708C82.7997 84.9708 82.6359 84.9539 82.4726 84.9444Z" fill="white"/>
</g>
<defs>
<filter id="filter0_d_162_975" x="0" y="0" width="216" height="216" filterUnits="userSpaceOnUse" color-interpolation-filters="sRGB">
<feFlood flood-opacity="0" result="BackgroundImageFix"/>
<feColorMatrix in="SourceAlpha" type="matrix" values="0 0 0 0 0 0 0 0 0 0 0 0 0 0 0 0 0 0 127 0" result="hardAlpha"/>
<feMorphology radius="8" operator="dilate" in="SourceAlpha" result="effect1_dropShadow_162_975"/>
<feOffset dy="4"/>
<feGaussianBlur stdDeviation="22.5"/>
<feComposite in2="hardAlpha" operator="out"/>
<feColorMatrix type="matrix" values="0 0 0 0 1 0 0 0 0 1 0 0 0 0 1 0 0 0 0.25 0"/>
<feBlend mode="normal" in2="BackgroundImageFix" result="effect1_dropShadow_162_975"/>
<feBlend mode="normal" in="SourceGraphic" in2="effect1_dropShadow_162_975" result="shape"/>
</filter>
<clipPath id="clip0_162_975">
<rect width="59" height="55" fill="white" transform="translate(74 63)"/>
</clipPath>
</defs>
</svg>
