<svg width="110" height="110" viewBox="0 0 110 110" fill="none" xmlns="http://www.w3.org/2000/svg">
<rect width="110" height="110" rx="20" fill="white" fill-opacity="0.3"/>
<path d="M37.072 82.768V84.96H34.096V94H31.36V84.96H28.384V82.768H37.072ZM46.8611 89.392C46.8611 89.648 46.8451 89.9147 46.8131 90.192H40.6211C40.6638 90.7467 40.8398 91.1733 41.1491 91.472C41.4691 91.76 41.8585 91.904 42.3171 91.904C42.9998 91.904 43.4745 91.616 43.7411 91.04H46.6531C46.5038 91.6267 46.2318 92.1547 45.8371 92.624C45.4531 93.0933 44.9678 93.4613 44.3811 93.728C43.7945 93.9947 43.1385 94.128 42.4131 94.128C41.5385 94.128 40.7598 93.9413 40.0771 93.568C39.3945 93.1947 38.8611 92.6613 38.4771 91.968C38.0931 91.2747 37.9011 90.464 37.9011 89.536C37.9011 88.608 38.0878 87.7973 38.4611 87.104C38.8451 86.4107 39.3785 85.8773 40.0611 85.504C40.7438 85.1307 41.5278 84.944 42.4131 84.944C43.2771 84.944 44.0451 85.1253 44.7171 85.488C45.3891 85.8507 45.9118 86.368 46.2851 87.04C46.6691 87.712 46.8611 88.496 46.8611 89.392ZM44.0611 88.672C44.0611 88.2027 43.9011 87.8293 43.5811 87.552C43.2611 87.2747 42.8611 87.136 42.3811 87.136C41.9225 87.136 41.5331 87.2693 41.2131 87.536C40.9038 87.8027 40.7118 88.1813 40.6371 88.672H44.0611ZM47.7605 89.52C47.7605 88.6027 47.9312 87.7973 48.2725 87.104C48.6245 86.4107 49.0992 85.8773 49.6965 85.504C50.2938 85.1307 50.9605 84.944 51.6965 84.944C52.3258 84.944 52.8752 85.072 53.3445 85.328C53.8245 85.584 54.1925 85.92 54.4485 86.336V85.072H57.1845V94H54.4485V92.736C54.1818 93.152 53.8085 93.488 53.3285 93.744C52.8592 94 52.3098 94.128 51.6805 94.128C50.9552 94.128 50.2938 93.9413 49.6965 93.568C49.0992 93.184 48.6245 92.6453 48.2725 91.952C47.9312 91.248 47.7605 90.4373 47.7605 89.52ZM54.4485 89.536C54.4485 88.8533 54.2565 88.3147 53.8725 87.92C53.4992 87.5253 53.0405 87.328 52.4965 87.328C51.9525 87.328 51.4885 87.5253 51.1045 87.92C50.7312 88.304 50.5445 88.8373 50.5445 89.52C50.5445 90.2027 50.7312 90.7467 51.1045 91.152C51.4885 91.5467 51.9525 91.744 52.4965 91.744C53.0405 91.744 53.4992 91.5467 53.8725 91.152C54.2565 90.7573 54.4485 90.2187 54.4485 89.536ZM70.5559 84.976C71.6652 84.976 72.5452 85.312 73.1959 85.984C73.8572 86.656 74.1879 87.5893 74.1879 88.784V94H71.4679V89.152C71.4679 88.576 71.3132 88.1333 71.0039 87.824C70.7052 87.504 70.2892 87.344 69.7559 87.344C69.2225 87.344 68.8012 87.504 68.4919 87.824C68.1932 88.1333 68.0439 88.576 68.0439 89.152V94H65.3239V89.152C65.3239 88.576 65.1692 88.1333 64.8599 87.824C64.5612 87.504 64.1452 87.344 63.6119 87.344C63.0785 87.344 62.6572 87.504 62.3479 87.824C62.0492 88.1333 61.8999 88.576 61.8999 89.152V94H59.1639V85.072H61.8999V86.192C62.1772 85.8187 62.5399 85.5253 62.9879 85.312C63.4359 85.088 63.9425 84.976 64.5079 84.976C65.1799 84.976 65.7772 85.12 66.2999 85.408C66.8332 85.696 67.2492 86.1067 67.5479 86.64C67.8572 86.1493 68.2785 85.7493 68.8119 85.44C69.3452 85.1307 69.9265 84.976 70.5559 84.976ZM79.7334 94.128C78.9547 94.128 78.2614 93.9947 77.6534 93.728C77.0454 93.4613 76.5654 93.0987 76.2134 92.64C75.8614 92.1707 75.664 91.648 75.6214 91.072H78.3254C78.3574 91.3813 78.5014 91.632 78.7574 91.824C79.0134 92.016 79.328 92.112 79.7014 92.112C80.0427 92.112 80.304 92.048 80.4854 91.92C80.6774 91.7813 80.7734 91.6053 80.7734 91.392C80.7734 91.136 80.64 90.9493 80.3734 90.832C80.1067 90.704 79.6747 90.5653 79.0774 90.416C78.4374 90.2667 77.904 90.112 77.4774 89.952C77.0507 89.7813 76.6827 89.52 76.3734 89.168C76.064 88.8053 75.9094 88.32 75.9094 87.712C75.9094 87.2 76.048 86.736 76.3254 86.32C76.6134 85.8933 77.0294 85.5573 77.5734 85.312C78.128 85.0667 78.784 84.944 79.5414 84.944C80.6614 84.944 81.5414 85.2213 82.1814 85.776C82.832 86.3307 83.2054 87.0667 83.3014 87.984H80.7734C80.7307 87.6747 80.592 87.4293 80.3574 87.248C80.1334 87.0667 79.8347 86.976 79.4614 86.976C79.1414 86.976 78.896 87.04 78.7254 87.168C78.5547 87.2853 78.4694 87.4507 78.4694 87.664C78.4694 87.92 78.6027 88.112 78.8694 88.24C79.1467 88.368 79.5734 88.496 80.1494 88.624C80.8107 88.7947 81.3494 88.9653 81.7654 89.136C82.1814 89.296 82.544 89.5627 82.8534 89.936C83.1734 90.2987 83.3387 90.7893 83.3494 91.408C83.3494 91.9307 83.2 92.4 82.9014 92.816C82.6134 93.2213 82.192 93.5413 81.6374 93.776C81.0934 94.0107 80.4587 94.128 79.7334 94.128Z" fill="white"/>
<g clip-path="url(#clip0_413_1108)">
<path d="M66.4153 59.8881C66.2379 59.9005 66.2161 60.0566 66.1594 60.1747C65.6289 61.2814 64.9787 62.3109 64.2084 63.2661C62.9879 64.7792 61.5324 66.014 59.8513 66.9824C58.1456 67.9648 56.3111 68.5801 54.3688 68.868C52.5965 69.1302 50.8397 68.996 49.1171 68.5339C44.8399 67.3867 41.61 64.8635 39.4088 61.0146C39.3414 60.8969 39.257 60.7846 39.2405 60.6426C39.3377 60.574 39.4492 60.5876 39.5578 60.5881C42.9544 60.6042 46.351 60.5715 49.7472 60.6054C50.8784 60.6165 51.7068 60.2061 52.2413 59.2067C52.2853 59.1398 52.3417 59.0853 52.4088 59.0423C53.3964 58.5142 53.7874 57.6899 53.7841 56.5712C53.7639 49.5169 53.7734 42.4623 53.7762 35.4081C53.7762 35.1529 53.7178 34.8807 53.905 34.6548C54.0005 34.6503 54.096 34.6416 54.1915 34.6416C57.9107 34.6387 61.6299 34.6362 65.3491 34.635C65.4581 34.635 65.5668 34.6466 65.6758 34.6528C66.9811 34.946 67.7729 35.935 67.7737 37.3023C67.7778 42.9335 67.8042 48.5651 67.7597 54.1958C67.7441 56.176 67.2536 58.0834 66.4153 59.8885V59.8881Z" fill="#7B83EB"/>
<path d="M66.4153 59.888C66.3251 59.7315 66.4132 59.5944 66.472 59.461C66.9609 58.3522 67.2646 57.1864 67.4617 55.9979C67.5774 55.3 67.6551 54.5921 67.6539 53.8769C67.6465 48.3564 67.6337 42.8359 67.6638 37.3159C67.6699 36.2066 66.8617 35.0371 65.8527 34.7452C65.7869 34.7262 65.719 34.7138 65.6758 34.6527C65.7577 34.6477 65.84 34.639 65.9219 34.639C69.7349 34.6382 73.5483 34.6403 77.3614 34.637C78.0844 34.6361 78.7054 34.8781 79.2169 35.3853C79.7502 35.9138 80.0012 36.5593 80 37.3146C79.995 40.3123 79.9979 43.31 79.9979 46.3081C79.9979 47.917 79.9926 49.5259 79.9987 51.1348C80.016 55.7265 76.7561 59.7893 72.0768 60.6115C70.1287 60.9538 68.2251 60.7378 66.4153 59.8888V59.888Z" fill="#5059C9"/>
<path d="M44.6045 24.9948C44.4486 24.6078 44.4074 24.1932 44.3761 23.7877C44.242 22.0536 44.5054 20.3861 45.3358 18.8424C46.7382 16.235 48.8924 14.61 51.8104 14.1314C54.542 13.6833 57.0049 14.3849 59.109 16.216C60.7558 17.649 61.7624 19.4573 62.0574 21.6266C62.4726 24.6797 61.571 27.3078 59.3587 29.4457C58.0213 30.7382 56.4078 31.5175 54.556 31.7756C54.3392 31.8057 54.126 31.8631 53.9042 31.8351C53.7507 31.6629 53.7812 31.4494 53.7803 31.2462C53.7766 30.0242 53.7803 28.8019 53.7779 27.5799C53.7746 26.1308 52.7878 25.1352 51.3154 25.1252C49.2883 25.1116 47.2612 25.1232 45.2341 25.1199C45.0181 25.1199 44.7913 25.1533 44.6049 24.9948H44.6045Z" fill="#7B83EB"/>
<path d="M72.4591 19.4995C76.101 19.5367 78.6511 22.5187 78.6235 25.7043C78.5939 29.1265 75.8886 31.8446 72.4747 31.8743C69.2946 31.902 66.2964 29.3644 66.2873 25.6997C66.2791 22.2408 69.0214 19.535 72.4587 19.4995H72.4591Z" fill="#5059C9"/>
<path d="M26.7451 56.6038C25.5739 56.6426 24.402 56.6472 23.2312 56.6001C22.7901 56.5823 22.3831 56.4209 22.0489 56.1124C22.0263 56.074 22.002 56.0381 21.9535 56.0302L21.9601 56.0376C21.8469 55.9257 21.7362 55.8113 21.6218 55.7007L21.6197 55.7031C21.6053 55.4364 21.8276 55.3674 21.9971 55.2679C24.0542 54.0583 26.1237 52.8694 28.1899 51.6755C30.0783 50.5845 31.9614 49.4843 33.8539 48.4007C34.0337 48.2975 34.2279 48.065 34.467 48.3231C34.5695 48.7166 34.4728 49.1201 34.5308 49.5141C34.5637 49.5702 34.6123 49.6058 34.6757 49.6235C35.5275 49.6429 36.3777 49.6173 37.2278 49.6355C37.5513 49.6425 37.662 49.5128 37.662 49.1969C37.6628 48.2347 37.6303 47.2725 37.6793 46.3111C37.7225 46.1336 37.8632 46.0485 38.0077 45.9651C41.7573 43.7958 45.5045 41.6228 49.2558 39.4568C49.7307 39.1826 50.2011 38.8997 50.6825 38.6383C50.9208 38.509 51.0072 38.3397 51.0031 38.0767C50.9928 37.4176 50.9977 36.7581 51.001 36.0986C51.0019 35.9619 50.9883 35.8178 51.0697 35.6984C51.1619 35.5634 51.2216 35.6435 51.2706 35.7434C51.3681 36.2852 51.3138 36.8316 51.315 37.3755C51.3171 38.1522 51.3479 38.9294 51.2957 39.705C51.1302 40.369 51.2072 41.0467 51.2237 41.7157C51.2364 42.2315 51.0739 42.5234 50.6068 42.7857C47.7365 44.3995 44.8992 46.0712 42.0478 47.7181C37.9607 50.079 33.8778 52.4465 29.7939 54.8128C28.7742 55.4037 27.7385 55.9683 26.7451 56.6042V56.6038Z" fill="#464EB7"/>
<path d="M26.7451 56.6036C26.7611 56.3996 26.9434 56.348 27.0755 56.2708C28.5409 55.4172 30.0133 54.5752 31.4803 53.7241C32.6037 53.0724 33.7205 52.4084 34.8444 51.7567C35.9921 51.091 37.1468 50.4377 38.2949 49.7724C39.4187 49.1212 40.5355 48.4571 41.6598 47.8063C42.6659 47.2236 43.6807 46.6558 44.6872 46.0739C45.6222 45.5334 46.5497 44.9792 47.4838 44.4365C48.2883 43.9695 49.097 43.5098 49.9047 43.0494C50.2488 42.8536 50.5924 42.6558 50.9442 42.4754C51.1207 42.3849 51.1055 42.2392 51.1059 42.0897C51.1072 41.471 51.1043 40.852 51.1084 40.2334C51.1092 40.1013 51.064 39.9546 51.1866 39.8452C51.2882 39.9344 51.3113 40.0575 51.3117 40.1805C51.3142 41.2869 51.3561 42.3932 51.2903 43.4987C51.1475 43.9459 51.2771 44.4138 51.1919 44.8652C51.1471 45.0114 51.0195 45.0684 50.9002 45.1361C47.3707 47.1423 43.8671 49.1939 40.3528 51.2269C37.3134 52.9849 34.2691 54.7346 31.2375 56.5062C31.1898 56.5343 31.1428 56.5599 31.107 56.6028C30.5914 56.6524 30.0746 56.6235 29.5585 56.6214C28.6207 56.6177 27.6825 56.6507 26.7451 56.6028V56.6036Z" fill="#434AB4"/>
<path d="M34.3995 48.2624C34.0502 48.3239 33.7856 48.5597 33.4909 48.7257C32.5502 49.2564 31.6264 49.8167 30.6923 50.359C29.8878 50.826 29.0771 51.2815 28.2714 51.7461C27.466 52.2107 26.664 52.6815 25.8591 53.1473C25.0542 53.6127 24.2464 54.074 23.4411 54.539C22.9082 54.8466 22.3761 55.1564 21.8448 55.4665C21.7481 55.5231 21.6794 55.6094 21.6197 55.7031C21.2477 55.3149 21.063 54.8508 21.0556 54.3139C20.9885 53.5545 21.0457 52.7934 21.0259 52.0344C21.0095 51.8427 21.1576 51.7829 21.2877 51.7077C25.492 49.2675 29.7014 46.8364 33.9111 44.4053C34.0889 44.3025 34.3115 44.089 34.4913 44.428C34.5428 45.593 34.5065 46.7579 34.5115 47.9221C34.5119 48.0455 34.5028 48.1707 34.3995 48.2619V48.2624Z" fill="#4A52BA"/>
<path d="M21.0803 51.8938C21.072 52.7003 21.0638 53.5068 21.056 54.3134C20.9741 54.173 21.0066 54.0181 21.0066 53.8698C21.0066 45.6255 21.0095 37.3807 21.0074 29.1363C21.0074 28.2971 21.2399 27.5662 21.8872 27.0029C22.3263 26.6209 22.8337 26.4049 23.4193 26.3901C23.5835 26.3859 23.7481 26.3872 23.9127 26.3872C30.7659 26.3864 37.6188 26.3859 44.472 26.3843C44.6498 26.3843 44.8276 26.3731 45.0054 26.3669C45.0136 26.3921 45.0218 26.4177 45.0301 26.4429C44.9004 26.6354 44.6955 26.6052 44.5107 26.6069C43.7741 26.6118 43.0379 26.6184 42.3013 26.606C41.2347 26.6106 40.1681 26.6184 39.1019 26.606C37.018 26.5796 34.9337 26.5999 32.8494 26.597C32.6963 26.597 32.5531 26.6288 32.4177 26.7093C28.8619 28.8373 25.26 30.8852 21.6663 32.9471C21.2881 33.1643 21.1609 33.41 21.1729 33.8292C21.2037 34.9008 21.1671 35.9737 21.1934 37.0466C21.1984 38.2285 21.205 39.41 21.1918 40.5914C21.2021 41.7998 21.2099 43.0085 21.1881 44.2168C21.2099 45.5916 21.2037 46.9663 21.1918 48.3411C21.2103 49.369 21.1976 50.3968 21.198 51.4247C21.198 51.5903 21.1885 51.7551 21.0803 51.8938Z" fill="#5860C2"/>
<path d="M51.1067 44.9619C51.1067 44.6084 51.1047 44.2549 51.108 43.9014C51.1092 43.7829 51.0751 43.6532 51.187 43.5591C51.3002 43.6607 51.3141 43.7994 51.3137 43.9357C51.3133 45.0837 51.3487 46.2318 51.2969 47.3786C51.1364 47.986 51.2216 48.6067 51.2207 49.2208C51.2203 49.5925 51.1022 49.8175 50.7693 50.0083C47.2168 52.0446 43.6798 54.1082 40.131 56.1507C39.8569 56.3085 39.622 56.5207 39.3463 56.6748C38.8483 56.7491 38.3488 56.7272 37.8492 56.6995C37.7179 56.6 37.5644 56.6265 37.4167 56.626C36.6003 56.6248 35.7842 56.626 34.9678 56.6244C34.8324 56.6244 34.697 56.6108 34.5616 56.6037C34.4892 56.3254 34.7176 56.249 34.883 56.1478C36.0077 55.4615 37.157 54.8177 38.2969 54.1578C41.5984 52.2474 44.8971 50.3317 48.2015 48.4258C49.0216 47.953 49.8307 47.4599 50.6648 47.0119C50.9199 46.8748 51.017 46.6997 51.0051 46.4205C50.9903 46.0773 50.9993 45.7329 51.0026 45.3893C51.0043 45.2398 50.9866 45.0833 51.1063 44.9611L51.1067 44.9619Z" fill="#4047B1"/>
<path d="M51.1068 44.9619C51.1068 45.5116 51.0994 46.0612 51.1105 46.6105C51.1146 46.8145 51.0451 46.9264 50.8636 47.0288C49.769 47.6466 48.6838 48.2817 47.5937 48.9082C46.2551 49.6779 44.9128 50.4415 43.5762 51.215C42.4528 51.865 41.338 52.5299 40.2146 53.1799C39.2093 53.7617 38.1953 54.3291 37.1896 54.9102C36.397 55.3682 35.6127 55.8402 34.8201 56.2986C34.6913 56.3733 34.6156 56.4745 34.5625 56.6037C33.4107 56.6405 32.2593 56.6388 31.1075 56.6037C31.1165 56.4167 31.2807 56.3613 31.4013 56.2907C32.4852 55.6552 33.5753 55.0308 34.6621 54.4002C35.6542 53.8245 36.6431 53.2435 37.6352 52.6686C38.5685 52.1276 39.5064 51.5941 40.4397 51.0527C41.7981 50.2644 43.1519 49.469 44.5111 48.6827C45.8354 47.9167 47.1637 47.1585 48.49 46.397C49.2361 45.9687 49.9813 45.5388 50.729 45.1131C50.8467 45.0462 50.9636 44.9685 51.1068 44.9619Z" fill="#4249B3"/>
<path d="M53.9055 34.6539C53.9055 42.0286 53.9026 49.4037 53.9088 56.7784C53.9096 57.8959 53.4429 58.6921 52.4203 59.1509C52.338 59.0596 52.3364 58.9481 52.3574 58.8395C52.5405 57.8864 52.4615 56.9213 52.4635 55.9632C52.4788 49.0969 52.4709 42.231 52.4742 35.3646C52.4742 35.1239 52.4105 34.8658 52.5907 34.6515C53.0289 34.6304 53.4672 34.6267 53.9055 34.6535V34.6539Z" fill="#6F76D4"/>
<path d="M51.187 47.5206C51.187 46.1999 51.187 44.8797 51.187 43.559C51.187 42.3214 51.187 41.0837 51.187 39.8461C51.187 38.4437 51.187 37.0417 51.187 35.6392C50.9969 35.351 51.0722 35.0413 51.1129 34.7344C51.1314 34.6882 51.1619 34.6518 51.2039 34.625C51.6388 34.6337 52.0734 34.6419 52.5083 34.6506C52.582 34.8079 52.5437 34.9752 52.5441 35.1375C52.5466 41.9753 52.5462 48.8132 52.5462 55.6506C52.5462 56.8985 51.7343 57.8764 50.5002 58.0879C50.0821 58.1597 49.6558 58.1659 49.2348 58.0804C49.043 57.9842 49.1216 57.9 49.2541 57.8343C49.4249 57.7501 49.613 57.7088 49.7813 57.615C50.7792 57.0596 51.2191 56.0941 51.0602 54.7933C51.052 54.726 51.0335 54.6599 51.0314 54.5905C51.0775 53.4375 51.0837 52.2849 51.0598 51.1319C51.0664 49.9269 51.1693 48.7252 51.187 47.5206Z" fill="#474B88"/>
<path d="M49.1303 57.995C49.6476 57.9752 50.1719 58.073 50.6809 57.9174C51.564 57.6469 52.1747 57.0923 52.4602 56.1961C52.5294 55.9789 52.5055 55.7605 52.5055 55.5428C52.508 49.4029 52.5076 43.263 52.5076 37.123C52.5076 36.2988 52.5076 35.4749 52.508 34.6506C52.5356 34.651 52.5631 34.6519 52.5903 34.6523C52.589 42.1393 52.5878 49.6263 52.5858 57.1133C52.5858 57.7968 52.6339 58.4852 52.4199 59.1513C52.3924 59.179 52.3652 59.207 52.3376 59.2347C51.9504 59.5304 51.4944 59.5333 51.041 59.5337C47.3789 59.5362 43.7169 59.5349 40.0549 59.5349C39.7804 59.5349 39.506 59.5275 39.2319 59.5358C38.9311 59.5448 38.7002 59.4515 38.576 59.16C38.3941 58.7871 38.2509 58.4009 38.1826 57.9896C38.3406 57.8438 38.5397 57.8657 38.7282 57.8653C42.0141 57.862 45.3 57.8616 48.5859 57.8653C48.7744 57.8653 48.9739 57.8434 49.1291 57.995H49.1303Z" fill="#595EAA"/>
<path d="M44.6046 24.9948C46.865 24.9948 49.1254 24.9841 51.3854 24.9985C52.687 25.0068 53.5125 25.7716 53.866 26.8957C53.9088 27.0315 53.9046 27.1662 53.9046 27.3029C53.9051 28.8135 53.9046 30.3241 53.9038 31.8347C53.4623 31.8772 53.0207 31.881 52.5792 31.831C52.4487 31.6815 52.4742 31.4977 52.473 31.3226C52.4689 30.6528 52.4718 29.983 52.4714 29.3132C52.4701 27.639 51.7656 26.7809 50.1369 26.4724C49.8805 26.4014 49.6188 26.4319 49.3599 26.4327C47.9633 26.4373 46.5666 26.4142 45.17 26.4439C45.1144 26.4451 45.0617 26.4319 45.0111 26.4084C45.0078 26.3947 45.0058 26.3807 45.0054 26.3667C44.8609 25.9124 44.6498 25.478 44.6046 24.9944V24.9948Z" fill="#6F76D4"/>
<path d="M49.1303 57.9951C45.4815 57.9934 41.8326 57.9914 38.1838 57.9897C38.022 57.573 37.9196 57.1407 37.85 56.7C37.9426 56.5596 38.0875 56.6017 38.2159 56.6001C38.6171 56.5951 39.0187 56.5968 39.4204 56.5955C39.5965 56.4613 39.8031 56.4622 40.0092 56.4622C41.5976 56.4634 43.1861 56.4568 44.7741 56.4642C46.158 56.4898 47.5443 56.5088 48.927 56.4589C49.8011 56.4275 50.4282 55.9199 50.829 55.1411C50.9093 54.985 50.9389 54.7959 51.1117 54.6992C51.271 55.2088 51.2286 55.7221 51.0776 56.2164C50.8171 57.0692 50.2348 57.623 49.3904 57.8997C49.3027 57.9286 49.1957 57.9026 49.1307 57.9947L49.1303 57.9951Z" fill="#393C6D"/>
<path d="M38.5768 59.16C38.7331 59.3549 38.9303 59.4074 39.1817 59.4065C43.205 59.3983 47.2287 59.3987 51.252 59.4037C51.6261 59.4041 51.973 59.2699 52.338 59.2343C52.0092 60.0103 51.4208 60.4732 50.615 60.6814C50.4928 60.7132 50.3727 60.7222 50.2496 60.7222C46.7259 60.7231 43.2021 60.7231 39.6784 60.7251C39.5249 60.7251 39.378 60.7127 39.2401 60.6413C38.9702 60.1693 38.7274 59.6849 38.5764 59.1592L38.5768 59.16Z" fill="#6269BC"/>
<path d="M50.2002 26.3898C51.3656 26.4571 52.1952 27.2145 52.4923 28.2993C52.5569 28.5356 52.5907 28.7788 52.5878 29.0299C52.5771 29.9636 52.5808 30.8973 52.5791 31.8314C52.1586 31.8512 51.7537 31.7579 51.3496 31.6604C51.2586 31.6303 51.1487 31.6311 51.1134 31.5118C51.0241 30.8209 51.0973 30.1267 51.0738 29.4342C51.0631 29.1216 51.094 28.8081 51.0508 28.4976C50.9426 27.9611 50.7241 27.4842 50.3056 27.1158C50.0607 26.8944 49.7669 26.7557 49.4797 26.6025C49.4085 26.5645 49.1542 26.5451 49.3751 26.3576C49.65 26.3749 49.9274 26.32 50.1994 26.3898H50.2002Z" fill="#474B88"/>
<path d="M51.1952 31.5888C51.2557 31.5925 51.3133 31.6032 51.3495 31.6598C51.1689 31.6759 51.1932 31.8114 51.1936 31.9311C51.1969 32.8289 51.2006 33.7267 51.2039 34.6245L51.1878 34.6555C51.129 34.6732 51.0841 34.6555 51.0528 34.6022C50.9236 34.2987 50.9833 33.9782 50.9779 33.6652C50.9693 33.1291 50.9635 32.5927 50.9829 32.0571C50.989 31.8841 50.9257 31.6524 51.1952 31.5884V31.5888Z" fill="#4F57BE"/>
<path d="M21.6218 55.7004C21.7909 55.7558 21.902 55.8702 21.9604 56.0374C21.8032 55.9701 21.6905 55.8574 21.6218 55.7004Z" fill="#4A52BA"/>
<path d="M21.9539 56.03C22.0039 56.0367 22.0353 56.0649 22.0498 56.1126C22.0018 56.1039 21.9659 56.0807 21.9539 56.03Z" fill="#4A52BA"/>
<path d="M51.1067 34.6482C51.1339 34.6491 51.1611 34.6515 51.1878 34.6561C51.1878 34.984 51.187 35.3114 51.187 35.6393C51.0635 35.7484 51.1096 35.8946 51.1088 36.0263C51.1047 36.7535 51.1022 37.4812 51.1096 38.2084C51.1117 38.4293 51.0681 38.5565 50.8368 38.6792C50.0414 39.1008 49.2739 39.5745 48.4945 40.0262C47.7032 40.485 46.9102 40.9414 46.1184 41.3989C45.2913 41.8771 44.4642 42.3558 43.6366 42.8336C42.8445 43.2911 42.0519 43.7474 41.2602 44.2058C40.3034 44.7596 39.3479 45.3159 38.3903 45.8688C38.1891 45.9849 37.9817 46.0902 37.7772 46.2004C37.6718 46.1112 37.662 45.9865 37.6624 45.8635C37.6644 44.7022 37.636 43.5406 37.6759 42.3805C37.7122 42.1943 37.8681 42.1278 38.0105 42.0456C42.2029 39.6228 46.3933 37.197 50.5837 34.7709C50.7397 34.6804 50.8936 34.5198 51.1072 34.6482H51.1067Z" fill="#4A52BA"/>
<path d="M37.7768 42.2401C37.7768 43.5603 37.7768 44.8805 37.7768 46.2008C37.7759 47.1993 37.7751 48.1979 37.7743 49.1964C37.7743 49.2922 37.769 49.388 37.7743 49.4834C37.785 49.675 37.6998 49.7543 37.5085 49.7514C37.113 49.7452 36.7171 49.7506 36.3217 49.7502C35.7077 49.7494 35.0937 49.7473 34.4798 49.7457C34.4757 49.7188 34.4715 49.692 34.4678 49.6651C34.5045 49.6238 34.5489 49.5941 34.6008 49.5755C35.3649 49.4805 36.1328 49.5487 36.899 49.5334C37.5455 49.5206 37.557 49.5198 37.5574 48.8566C37.5587 44.8314 37.5574 40.8058 37.5583 36.7807C37.5583 35.8569 37.5805 35.8301 38.5002 35.8363C39.8701 35.8453 41.2404 35.8045 42.6091 35.8581C42.6568 35.8676 42.7025 35.8854 42.7453 35.9089C42.8684 36.0147 42.777 36.0667 42.6906 36.1179C41.1989 37.0045 39.7117 37.8994 38.187 38.7295C37.943 38.8624 37.8821 39.0491 37.8838 39.3022C37.8895 40.1117 37.8875 40.9211 37.8846 41.7301C37.8842 41.9064 37.9064 42.0902 37.7759 42.2401H37.7768Z" fill="#4F57BE"/>
<path d="M34.3995 48.2622C34.3995 46.942 34.3995 45.6222 34.3995 44.3019C34.2794 44.1694 34.2691 44.0042 34.2695 43.839C34.2703 42.812 34.2526 41.7853 34.2785 40.7583C34.2596 39.3889 34.2576 38.0195 34.279 36.6501C34.3057 36.2574 34.0839 36.1748 33.7424 36.1773C32.4873 36.1856 31.2322 36.1897 29.9775 36.1719C29.7993 36.1695 29.5203 36.2826 29.4791 35.9407C29.633 35.8226 29.8153 35.8345 29.9919 35.8337C31.3066 35.83 32.6218 35.8275 33.9366 35.8345C34.5156 35.8374 34.6135 35.9308 34.6143 36.504C34.6201 40.7195 34.6189 44.935 34.6152 49.1509C34.6152 49.3281 34.6226 49.5114 34.4892 49.6572L34.4728 49.6762C34.4456 49.689 34.4213 49.6849 34.3999 49.6638C34.3999 49.1964 34.3999 48.7293 34.3995 48.2618V48.2622Z" fill="#535BC0"/>
<path d="M34.4 49.6643C34.4247 49.6651 34.4489 49.6693 34.4728 49.6767C34.4773 49.6994 34.4802 49.7225 34.4806 49.7457C34.4539 49.7184 34.4271 49.6916 34.4004 49.6643H34.4Z" fill="#4A52BA"/>
<path d="M34.3991 40.7543C34.3991 41.937 34.3991 43.1198 34.3991 44.3021C34.0497 44.3632 33.7847 44.5986 33.4905 44.7654C32.3605 45.4059 31.2453 46.0724 30.1219 46.7245C29.3174 47.1911 28.5071 47.6479 27.7018 48.1125C26.8965 48.5771 26.0936 49.0466 25.2891 49.5128C24.4961 49.972 23.7023 50.4296 22.909 50.8884C22.4711 51.1415 22.0324 51.3939 21.5967 51.6511C21.4312 51.7486 21.272 51.8551 21.0802 51.8944C21.0802 50.7104 21.0794 49.526 21.079 48.3421C21.1485 48.1703 21.3193 48.1249 21.4584 48.0452C25.0126 46.0117 28.5499 43.9486 32.0938 41.8978C32.6629 41.5687 33.2329 41.2408 33.8016 40.9112C33.9781 40.8088 34.1542 40.6283 34.3987 40.7547L34.3991 40.7543Z" fill="#4D55BD"/>
<path d="M21.0773 36.9562C21.0741 35.7606 21.072 34.5655 21.0662 33.37C21.0654 33.2209 21.1041 33.1367 21.2539 33.0545C22.0563 32.6134 22.8468 32.1509 23.6394 31.6925C24.432 31.2341 25.2208 30.7692 26.0142 30.312C26.8195 29.8478 27.6306 29.3936 28.4355 28.9286C29.24 28.4636 30.0474 28.0027 30.8391 27.5167C31.3618 27.1958 31.9432 26.9703 32.4053 26.5507C32.5304 26.4372 32.693 26.4814 32.8407 26.4814C34.8966 26.4793 36.9525 26.4801 39.0088 26.4801C39.0998 26.7717 38.8389 26.82 38.6854 26.9113C37.6257 27.5419 36.5533 28.1506 35.4859 28.7683C32.4029 30.5536 29.3207 32.3392 26.2377 34.1245C24.732 34.9962 23.2258 35.8684 21.7185 36.7373C21.5247 36.8492 21.3345 37.0136 21.0773 36.9562Z" fill="#565EC1"/>
<path d="M34.3991 40.7542C34.1749 40.7847 33.9889 40.9103 33.8012 41.0176C32.9827 41.4864 32.1716 41.9683 31.3569 42.444C30.0227 43.2233 28.6907 44.0058 27.3529 44.7785C26.157 45.4694 24.9538 46.1479 23.7551 46.8342C22.9954 47.2691 22.235 47.7023 21.4839 48.1516C21.3523 48.2304 21.2041 48.2598 21.0786 48.3424C21.0786 46.9684 21.0786 45.5945 21.0786 44.221C21.6428 43.7837 22.2835 43.4694 22.8967 43.1147C26.2019 41.2018 29.5071 39.289 32.8115 37.3741C33.2144 37.1407 33.6189 36.9111 34.0226 36.6795C34.1374 36.6138 34.2568 36.5201 34.3983 36.6291V40.7546L34.3991 40.7542Z" fill="#4F57BE"/>
<path d="M21.0774 36.9561C22.0918 36.4432 23.0522 35.8353 24.0365 35.2696C24.997 34.7174 25.9587 34.167 26.9175 33.6115C27.9117 33.0359 28.9018 32.4532 29.8956 31.8779C30.8544 31.3229 31.8178 30.7753 32.7766 30.2203C33.7708 29.6446 34.76 29.0611 35.7542 28.4854C36.7131 27.9304 37.6764 27.3828 38.6352 26.8274C38.7834 26.7415 38.9694 26.687 39.0089 26.4792C40.1059 26.4792 41.2034 26.4792 42.3005 26.4792C42.3108 26.8113 42.0293 26.9058 41.8186 27.026C40.6516 27.6913 39.4924 28.3706 38.3295 29.0433C35.995 30.3933 33.6605 31.7433 31.2573 33.1412C32.2667 33.1333 33.1955 33.1486 34.1259 33.1279C36.1102 33.1003 38.0933 33.1048 40.0763 33.1238C40.8281 33.1028 41.58 33.1048 42.3314 33.1164C42.8108 33.1238 42.9211 33.2258 42.9207 33.6991C42.9198 34.4102 42.977 35.1234 42.8845 35.8333C42.8659 35.8865 42.8355 35.9315 42.7935 35.9687C42.7651 35.9679 42.7367 35.9671 42.7083 35.9658C42.5684 35.8056 42.5836 35.6082 42.582 35.4174C42.5766 34.9227 42.5865 34.428 42.5779 33.9336C42.5705 33.5099 42.5293 33.4748 42.0972 33.4612C42.0289 33.4591 41.9602 33.46 41.8915 33.46C38.0266 33.46 34.1613 33.46 30.2964 33.46C30.2005 33.46 30.1042 33.4657 30.0088 33.462C29.7121 33.4513 29.5977 33.5962 29.5927 33.8874C29.5833 34.4775 29.6306 35.0689 29.5627 35.6569C29.5059 35.8816 29.3137 35.9728 29.1376 36.0732C26.6307 37.5012 24.1472 38.9693 21.6432 40.4015C21.4708 40.5002 21.3058 40.6472 21.0782 40.5852L21.0774 36.9553V36.9561Z" fill="#535BC0"/>
<path d="M21.0778 40.5862C22.0288 40.0782 22.9551 39.5269 23.8839 38.9797C24.883 38.3908 25.8974 37.8284 26.9027 37.2498C27.6949 36.7939 28.4837 36.3322 29.2722 35.8701C29.3331 35.8346 29.3923 35.8074 29.4619 35.8032C29.5018 35.8478 29.5067 35.8945 29.4722 35.9445C29.5722 36.1187 29.7417 36.0473 29.8804 36.0477C31.21 36.0531 32.5395 36.051 33.8687 36.051C33.9646 36.051 34.0609 36.0555 34.1564 36.051C34.3325 36.0423 34.4053 36.1274 34.3987 36.2988C34.3942 36.4086 34.3983 36.5185 34.3987 36.6283C34.0996 36.6684 33.8844 36.8806 33.6383 37.0198C32.5074 37.6591 31.3935 38.3277 30.2701 38.9793C29.4536 39.453 28.629 39.9122 27.8121 40.385C26.6879 41.0363 25.5694 41.6966 24.4456 42.3487C23.6411 42.8153 22.8341 43.2774 22.0243 43.7354C21.7161 43.9097 21.4321 44.1339 21.0786 44.2198C21.0786 43.0086 21.0778 41.7974 21.0774 40.5862H21.0778Z" fill="#5159BF"/>
<path d="M33.9892 33.2407H31.1107C31.0762 33.0862 31.191 33.0474 31.2786 32.997C32.6169 32.2277 33.958 31.4641 35.2937 30.6906C36.6056 29.9312 37.9097 29.1586 39.2212 28.3979C40.0364 27.925 40.8602 27.4666 41.6766 26.995C41.9116 26.8596 42.161 26.7345 42.3009 26.4801C43.0753 26.4801 43.8502 26.4817 44.6247 26.478C44.7555 26.4772 44.8991 26.5218 45.0119 26.4086C45.1423 26.317 45.2905 26.3153 45.4423 26.3157C46.9131 26.3174 48.3834 26.3157 49.8541 26.3178C49.973 26.3178 50.1023 26.2852 50.201 26.3901C49.9002 26.3929 49.599 26.3958 49.2982 26.3987C49.1508 26.5387 48.9644 26.5032 48.79 26.504C47.8167 26.5077 46.8435 26.5094 45.8703 26.5032C45.6127 26.5016 45.4032 26.5775 45.1864 26.7241C44.1741 27.408 43.091 27.9738 42.0359 28.5862C39.3557 30.141 36.6789 31.7012 33.9901 33.2411L33.9892 33.2407Z" fill="#535BC0"/>
<path d="M44.8518 56.5954H39.4199C39.5306 56.315 39.8076 56.2241 40.0322 56.0911C41.2417 55.3734 42.4597 54.6705 43.6778 53.9677C45.0144 53.1967 46.3551 52.4323 47.6925 51.6629C48.7694 51.0435 49.8426 50.4174 50.9228 49.803C51.0829 49.7117 51.1105 49.5928 51.1088 49.4313C51.1035 48.9233 51.1039 48.4154 51.1088 47.9075C51.1101 47.7757 51.0636 47.6291 51.1874 47.5205C51.1874 48.7305 51.1874 49.9409 51.1874 51.1509C51.0973 51.6394 51.1574 52.1325 51.1524 52.6231C51.15 52.8572 51.0742 53.0046 50.8693 53.1195C48.8492 54.253 46.8526 55.4275 44.8522 56.5954H44.8518Z" fill="#3D44AE"/>
<path d="M44.8519 56.5954C44.9938 56.2972 45.3 56.1981 45.5518 56.049C46.5502 55.4589 47.567 54.8998 48.569 54.3162C49.3357 53.8698 50.0916 53.4052 50.8805 52.9989C51.0517 52.9109 51.1138 52.7924 51.1093 52.607C51.1006 52.2506 51.1031 51.8938 51.1089 51.5374C51.1109 51.4057 51.0636 51.2595 51.1874 51.1509C51.1879 52.1056 51.1862 53.06 51.1912 54.0148C51.1924 54.2473 51.1792 54.4761 51.1113 54.6995C50.9109 55.5328 50.3974 56.0949 49.6225 56.4335C49.3822 56.5384 49.1377 56.6016 48.8707 56.5999C47.5312 56.5933 46.1913 56.5958 44.8519 56.5954Z" fill="#3A41AC"/>
<path d="M42.7935 35.9688C42.7951 35.9411 42.7972 35.9139 42.7988 35.8862C43.3466 35.4216 44.0042 35.1363 44.6161 34.7786C46.6246 33.605 48.6386 32.4409 50.6587 31.2866C50.901 31.1483 51.0084 30.9724 51.0031 30.6916C50.9907 30.0746 50.9961 29.4576 51.0014 28.8402C51.0027 28.6796 50.9714 28.507 51.1076 28.3752C51.2364 28.4979 51.1858 28.6577 51.187 28.8018C51.1936 29.7306 51.1936 30.6598 51.1957 31.5885C51.0562 31.707 51.1101 31.8689 51.1093 32.013C51.1047 32.8914 51.1072 33.7694 51.1072 34.6477C50.6875 34.753 50.3554 35.0289 49.9895 35.2358C49.027 35.7797 48.074 36.3396 47.1176 36.8942C46.3148 37.3597 45.5132 37.8275 44.7103 38.2925C43.919 38.7509 43.1264 39.2073 42.3351 39.6652C41.3783 40.219 40.4277 40.7835 39.4636 41.3241C38.906 41.6367 38.3862 42.0216 37.7776 42.2396C37.7768 41.2118 37.7842 40.1839 37.7694 39.156C37.7657 38.8988 37.8566 38.7683 38.0817 38.6543C39.0187 38.1802 39.9051 37.6149 40.8158 37.0929C41.1944 36.8761 41.5701 36.6543 41.947 36.435C42.0059 36.4008 42.0956 36.3826 42.1207 36.3322C42.2507 36.07 42.4869 36.0411 42.7342 36.0208C42.7556 36.0192 42.7742 35.9866 42.7943 35.9684L42.7935 35.9688Z" fill="#4D55BD"/>
<path d="M33.9893 33.2408C34.0049 33.0546 34.172 33.0042 34.293 32.9344C35.2859 32.3579 36.2879 31.7963 37.2821 31.2219C38.2167 30.6817 39.1434 30.1275 40.0771 29.5857C40.8812 29.1191 41.691 28.6627 42.4964 28.1982C43.3017 27.734 44.1379 27.3136 44.895 26.78C45.3333 26.4711 45.751 26.3799 46.2551 26.391C47.269 26.4137 48.2838 26.3985 49.2978 26.3989C49.592 26.5756 49.9282 26.6743 50.2027 26.8895C50.2665 26.9394 50.3331 26.9807 50.3665 27.058C50.3866 27.3429 50.1447 27.4185 49.9685 27.5192C48.4937 28.3625 47.0312 29.2273 45.5584 30.0738C43.7301 31.1252 41.9054 32.1832 40.0804 33.2408H33.9897H33.9893Z" fill="#525ABF"/>
<path d="M40.08 33.2402C40.0952 33.054 40.2627 33.004 40.3833 32.9338C41.3882 32.3507 42.4022 31.7837 43.4075 31.2023C44.5309 30.5523 45.6461 29.8878 46.7691 29.2378C47.7744 28.656 48.7875 28.0873 49.7933 27.5063C50.0031 27.3849 50.2418 27.2928 50.3657 27.0574C50.7977 27.3923 51.0265 27.8424 51.1072 28.376C51.1072 29.1862 51.094 29.9968 51.1138 30.8071C51.12 31.0693 51.0134 31.2151 50.8097 31.3315C49.8122 31.8998 48.8135 32.4647 47.8193 33.0387C46.8847 33.5785 45.9576 34.131 45.0247 34.6732C44.3869 35.0441 43.7449 35.4079 43.103 35.7717C43.0087 35.825 42.9128 35.8836 42.7984 35.8869C42.7972 35.1225 42.7984 34.3581 42.7935 33.5937C42.7914 33.2568 42.7836 33.2489 42.4491 33.2469C41.6594 33.2415 40.8697 33.2427 40.08 33.2411V33.2402Z" fill="#4F57BE"/>
<path d="M29.4726 35.9444C29.4693 35.8973 29.4656 35.8502 29.4623 35.8032C29.4685 35.1024 29.4742 34.402 29.4808 33.7012C29.4845 33.3225 29.4849 33.3192 29.8668 33.3192C34.0222 33.3188 38.1776 33.3192 42.333 33.3196C42.3742 33.3196 42.4157 33.3237 42.4565 33.3196C42.6478 33.2985 42.7305 33.3729 42.7219 33.5748C42.7096 33.8631 42.7203 34.1521 42.7186 34.4408C42.7161 34.9492 42.712 35.4579 42.7083 35.9663C41.2158 35.9683 39.7236 35.9704 38.2311 35.9725C38.1352 35.9725 38.0385 35.9812 37.9439 35.9712C37.7361 35.9498 37.6789 36.0551 37.6945 36.2405C37.7027 36.3359 37.6957 36.4325 37.6957 36.5287C37.6949 40.729 37.6937 44.9296 37.6929 49.1299C37.6929 49.2397 37.6879 49.3496 37.6929 49.4594C37.6999 49.6089 37.6488 49.6907 37.485 49.6878C36.4867 49.67 35.4876 49.7258 34.4893 49.6576C34.4893 45.21 34.4905 40.7624 34.4893 36.3148C34.4893 35.9783 34.4839 35.9733 34.1531 35.9725C32.7564 35.9704 31.3597 35.9725 29.9631 35.9708C29.7997 35.9708 29.6359 35.9539 29.4726 35.9444Z" fill="white"/>
</g>
<defs>
<clipPath id="clip0_413_1108">
<rect width="59" height="55" fill="white" transform="translate(21 14)"/>
</clipPath>
</defs>
</svg>
