<svg width="216" height="216" viewBox="0 0 216 216" fill="none" xmlns="http://www.w3.org/2000/svg">
<g filter="url(#filter0_d_162_1406)">
<rect x="53" y="49" width="110" height="110" rx="20" fill="white" fill-opacity="0.3" shape-rendering="crispEdges"/>
</g>
<path d="M94.072 129.768V131.96H91.096V141H88.36V131.96H85.384V129.768H94.072ZM98.1811 133.56C98.5011 133.069 98.9011 132.685 99.3811 132.408C99.8611 132.12 100.394 131.976 100.981 131.976V134.872H100.229C99.5465 134.872 99.0345 135.021 98.6931 135.32C98.3518 135.608 98.1811 136.12 98.1811 136.856V141H95.4451V132.072H98.1811V133.56ZM110.705 136.392C110.705 136.648 110.689 136.915 110.657 137.192H104.465C104.508 137.747 104.684 138.173 104.993 138.472C105.313 138.76 105.702 138.904 106.161 138.904C106.844 138.904 107.318 138.616 107.585 138.04H110.497C110.348 138.627 110.076 139.155 109.681 139.624C109.297 140.093 108.812 140.461 108.225 140.728C107.638 140.995 106.982 141.128 106.257 141.128C105.382 141.128 104.604 140.941 103.921 140.568C103.238 140.195 102.705 139.661 102.321 138.968C101.937 138.275 101.745 137.464 101.745 136.536C101.745 135.608 101.932 134.797 102.305 134.104C102.689 133.411 103.222 132.877 103.905 132.504C104.588 132.131 105.372 131.944 106.257 131.944C107.121 131.944 107.889 132.125 108.561 132.488C109.233 132.851 109.756 133.368 110.129 134.04C110.513 134.712 110.705 135.496 110.705 136.392ZM107.905 135.672C107.905 135.203 107.745 134.829 107.425 134.552C107.105 134.275 106.705 134.136 106.225 134.136C105.766 134.136 105.377 134.269 105.057 134.536C104.748 134.803 104.556 135.181 104.481 135.672H107.905ZM114.884 129.16V141H112.148V129.16H114.884ZM119.603 129.16V141H116.867V129.16H119.603ZM125.65 141.128C124.775 141.128 123.986 140.941 123.282 140.568C122.588 140.195 122.039 139.661 121.634 138.968C121.239 138.275 121.042 137.464 121.042 136.536C121.042 135.619 121.244 134.813 121.65 134.12C122.055 133.416 122.61 132.877 123.314 132.504C124.018 132.131 124.807 131.944 125.682 131.944C126.556 131.944 127.346 132.131 128.05 132.504C128.754 132.877 129.308 133.416 129.714 134.12C130.119 134.813 130.322 135.619 130.322 136.536C130.322 137.453 130.114 138.264 129.698 138.968C129.292 139.661 128.732 140.195 128.018 140.568C127.314 140.941 126.524 141.128 125.65 141.128ZM125.65 138.76C126.172 138.76 126.615 138.568 126.978 138.184C127.351 137.8 127.538 137.251 127.538 136.536C127.538 135.821 127.356 135.272 126.994 134.888C126.642 134.504 126.204 134.312 125.682 134.312C125.148 134.312 124.706 134.504 124.354 134.888C124.002 135.261 123.826 135.811 123.826 136.536C123.826 137.251 123.996 137.8 124.338 138.184C124.69 138.568 125.127 138.76 125.65 138.76Z" fill="white"/>
<path d="M80 112.676V67.3243C80.1097 67.2926 80.0928 67.1966 80.1118 67.1143C80.4652 65.63 81.3197 64.516 82.6047 63.71C83.1701 63.3555 83.8295 63.2574 84.4298 63H129.57C129.618 63.1329 129.741 63.0897 129.835 63.1139C131.832 63.6309 133.2 64.8124 133.764 66.839C133.822 67.0468 133.782 67.2873 134 67.4298V112.676C133.893 112.707 133.902 112.802 133.881 112.885C133.404 114.712 132.308 115.989 130.539 116.687C130.22 116.812 129.861 116.801 129.57 117H84.3243C84.2536 116.833 84.0837 116.882 83.9614 116.846C82.035 116.286 80.7838 115.046 80.173 113.139C80.1245 112.986 80.1973 112.776 80.0011 112.676H80ZM87.0176 88.6059H87.0207C87.0207 93.8437 87.0197 99.0816 87.0228 104.319C87.0228 104.751 87.0123 105.186 87.1842 105.601C87.6558 106.743 88.58 107.144 89.7299 107.146C93.4032 107.153 97.0766 107.154 100.75 107.146C102.448 107.141 103.498 106.08 103.499 104.379C103.502 93.8501 103.503 83.3216 103.501 72.7932C103.501 71.0672 102.471 70.0218 100.755 70.0186C97.0818 70.0112 93.4085 70.0155 89.7351 70.0165C89.329 70.0165 88.9291 70.0503 88.5504 70.2201C87.4163 70.7297 87.0102 71.6485 87.0123 72.8396C87.0228 78.0954 87.0165 83.3501 87.0165 88.6059H87.0176ZM110.498 81.9259C110.498 84.9135 110.498 87.9001 110.498 90.8877C110.498 91.334 110.487 91.7866 110.717 92.1896C111.257 93.1348 111.999 93.677 113.17 93.6644C116.86 93.6254 120.55 93.6549 124.241 93.6475C125.935 93.6443 126.974 92.6115 126.976 90.9247C126.982 84.8618 126.983 78.8001 126.978 72.7372C126.977 71.043 125.943 70.0207 124.244 70.0186C120.588 70.0133 116.934 70.0144 113.279 70.0186C111.527 70.0207 110.498 71.0567 110.497 72.8069C110.495 75.8472 110.497 78.8866 110.497 81.927L110.498 81.9259Z" fill="#007AC1"/>
<path d="M87.0175 88.6058C87.0175 83.3501 87.0228 78.0953 87.0133 72.8395C87.0112 71.6485 87.4174 70.7296 88.5514 70.2201C88.9302 70.0502 89.33 70.0165 89.7362 70.0165C93.4095 70.0165 97.0829 70.0112 100.756 70.0186C102.472 70.0217 103.502 71.0672 103.502 72.7931C103.504 83.3216 103.502 93.85 103.5 104.378C103.5 106.08 102.449 107.141 100.751 107.146C97.0776 107.154 93.4042 107.153 89.7309 107.146C88.581 107.144 87.6568 106.743 87.1853 105.601C87.0133 105.186 87.0249 104.751 87.0239 104.319C87.0207 99.0815 87.0218 93.8437 87.0218 88.6058H87.0186H87.0175Z" fill="#FDFEFE"/>
<path d="M110.497 81.927C110.497 78.8867 110.495 75.8473 110.497 72.807C110.497 71.0568 111.527 70.0208 113.279 70.0187C116.934 70.0145 120.588 70.0134 124.244 70.0187C125.942 70.0208 126.976 71.0431 126.978 72.7373C126.984 78.8002 126.984 84.8619 126.976 90.9248C126.974 92.6116 125.934 93.6444 124.241 93.6476C120.55 93.655 116.86 93.6254 113.17 93.6645C111.999 93.6771 111.258 93.1359 110.717 92.1897C110.487 91.7867 110.498 91.3341 110.498 90.8878C110.498 87.9002 110.498 84.9136 110.498 81.926L110.497 81.927Z" fill="#FDFEFE"/>
<defs>
<filter id="filter0_d_162_1406" x="0" y="0" width="216" height="216" filterUnits="userSpaceOnUse" color-interpolation-filters="sRGB">
<feFlood flood-opacity="0" result="BackgroundImageFix"/>
<feColorMatrix in="SourceAlpha" type="matrix" values="0 0 0 0 0 0 0 0 0 0 0 0 0 0 0 0 0 0 127 0" result="hardAlpha"/>
<feMorphology radius="8" operator="dilate" in="SourceAlpha" result="effect1_dropShadow_162_1406"/>
<feOffset dy="4"/>
<feGaussianBlur stdDeviation="22.5"/>
<feComposite in2="hardAlpha" operator="out"/>
<feColorMatrix type="matrix" values="0 0 0 0 1 0 0 0 0 1 0 0 0 0 1 0 0 0 0.25 0"/>
<feBlend mode="normal" in2="BackgroundImageFix" result="effect1_dropShadow_162_1406"/>
<feBlend mode="normal" in="SourceGraphic" in2="effect1_dropShadow_162_1406" result="shape"/>
</filter>
</defs>
</svg>
