<svg width="110" height="110" viewBox="0 0 110 110" fill="none" xmlns="http://www.w3.org/2000/svg">
<rect width="110" height="110" rx="20" fill="white" fill-opacity="0.3"/>
<path d="M41.072 80.768V82.96H38.096V92H35.36V82.96H32.384V80.768H41.072ZM45.1811 84.56C45.5011 84.0693 45.9011 83.6853 46.3811 83.408C46.8611 83.12 47.3945 82.976 47.9811 82.976V85.872H47.2291C46.5465 85.872 46.0345 86.0213 45.6931 86.32C45.3518 86.608 45.1811 87.12 45.1811 87.856V92H42.4451V83.072H45.1811V84.56ZM57.7049 87.392C57.7049 87.648 57.6889 87.9147 57.6569 88.192H51.4649C51.5075 88.7467 51.6835 89.1733 51.9929 89.472C52.3129 89.76 52.7022 89.904 53.1609 89.904C53.8435 89.904 54.3182 89.616 54.5849 89.04H57.4969C57.3475 89.6267 57.0755 90.1547 56.6809 90.624C56.2969 91.0933 55.8115 91.4613 55.2249 91.728C54.6382 91.9947 53.9822 92.128 53.2569 92.128C52.3822 92.128 51.6035 91.9413 50.9209 91.568C50.2382 91.1947 49.7049 90.6613 49.3209 89.968C48.9369 89.2747 48.7449 88.464 48.7449 87.536C48.7449 86.608 48.9315 85.7973 49.3049 85.104C49.6889 84.4107 50.2222 83.8773 50.9049 83.504C51.5875 83.1307 52.3715 82.944 53.2569 82.944C54.1209 82.944 54.8889 83.1253 55.5609 83.488C56.2329 83.8507 56.7555 84.368 57.1289 85.04C57.5129 85.712 57.7049 86.496 57.7049 87.392ZM54.9049 86.672C54.9049 86.2027 54.7449 85.8293 54.4249 85.552C54.1049 85.2747 53.7049 85.136 53.2249 85.136C52.7662 85.136 52.3769 85.2693 52.0569 85.536C51.7475 85.8027 51.5555 86.1813 51.4809 86.672H54.9049ZM61.8843 80.16V92H59.1483V80.16H61.8843ZM66.603 80.16V92H63.867V80.16H66.603ZM72.6498 92.128C71.7751 92.128 70.9858 91.9413 70.2818 91.568C69.5884 91.1947 69.0391 90.6613 68.6338 89.968C68.2391 89.2747 68.0418 88.464 68.0418 87.536C68.0418 86.6187 68.2444 85.8133 68.6497 85.12C69.0551 84.416 69.6098 83.8773 70.3138 83.504C71.0178 83.1307 71.8071 82.944 72.6818 82.944C73.5564 82.944 74.3458 83.1307 75.0498 83.504C75.7538 83.8773 76.3084 84.416 76.7138 85.12C77.1191 85.8133 77.3218 86.6187 77.3218 87.536C77.3218 88.4533 77.1138 89.264 76.6978 89.968C76.2924 90.6613 75.7324 91.1947 75.0178 91.568C74.3138 91.9413 73.5244 92.128 72.6498 92.128ZM72.6498 89.76C73.1724 89.76 73.6151 89.568 73.9778 89.184C74.3511 88.8 74.5378 88.2507 74.5378 87.536C74.5378 86.8213 74.3564 86.272 73.9938 85.888C73.6418 85.504 73.2044 85.312 72.6818 85.312C72.1484 85.312 71.7058 85.504 71.3538 85.888C71.0018 86.2613 70.8258 86.8107 70.8258 87.536C70.8258 88.2507 70.9964 88.8 71.3378 89.184C71.6898 89.568 72.1271 89.76 72.6498 89.76Z" fill="white"/>
<path d="M27 63.6757V18.3243C27.1097 18.2926 27.0928 18.1966 27.1118 18.1143C27.4652 16.63 28.3197 15.516 29.6047 14.71C30.1701 14.3555 30.8295 14.2574 31.4298 14H76.5702C76.6177 14.1329 76.7411 14.0897 76.835 14.1139C78.8321 14.6309 80.2003 15.8124 80.7637 17.839C80.8217 18.0468 80.7816 18.2873 81 18.4298V63.6757C80.8934 63.7074 80.9019 63.8023 80.8808 63.8846C80.4039 65.7118 79.3078 66.9894 77.5387 67.6867C77.2201 67.8122 76.8614 67.8006 76.5702 68H31.3243C31.2536 67.8333 31.0837 67.8818 30.9614 67.846C29.035 67.2858 27.7838 66.0462 27.173 64.1389C27.1245 63.9859 27.1973 63.776 27.0011 63.6757H27ZM34.0176 39.6059H34.0207C34.0207 44.8437 34.0197 50.0816 34.0228 55.3194C34.0228 55.7509 34.0123 56.1856 34.1842 56.6012C34.6558 57.7427 35.58 58.1436 36.7299 58.1457C40.4032 58.153 44.0766 58.1541 47.7499 58.1457C49.4484 58.1414 50.4981 57.0802 50.4991 55.3785C50.5023 44.8501 50.5034 34.3216 50.5012 23.7932C50.5012 22.0672 49.4705 21.0218 47.7552 21.0186C44.0818 21.0112 40.4085 21.0155 36.7351 21.0165C36.329 21.0165 35.9291 21.0503 35.5504 21.2201C34.4163 21.7297 34.0102 22.6485 34.0123 23.8396C34.0228 29.0954 34.0165 34.3501 34.0165 39.6059H34.0176ZM57.4977 32.9259C57.4977 35.9135 57.4977 38.9001 57.4977 41.8877C57.4977 42.334 57.4872 42.7866 57.7171 43.1896C58.2573 44.1348 58.9989 44.677 60.1699 44.6644C63.8601 44.6254 67.5504 44.6549 71.2406 44.6475C72.9349 44.6443 73.974 43.6115 73.9761 41.9247C73.9824 35.8618 73.9835 29.8001 73.9782 23.7372C73.9772 22.043 72.9433 21.0207 71.2438 21.0186C67.5884 21.0133 63.934 21.0144 60.2786 21.0186C58.5273 21.0207 57.4977 22.0567 57.4966 23.8069C57.4945 26.8472 57.4966 29.8866 57.4966 32.927L57.4977 32.9259Z" fill="#007AC1"/>
<path d="M34.0175 39.6058C34.0175 34.3501 34.0228 29.0953 34.0133 23.8395C34.0112 22.6485 34.4174 21.7296 35.5514 21.2201C35.9302 21.0502 36.33 21.0165 36.7362 21.0165C40.4095 21.0165 44.0829 21.0112 47.7562 21.0186C49.4716 21.0217 50.5023 22.0672 50.5023 23.7931C50.5044 34.3216 50.5023 44.85 50.5002 55.3785C50.5002 57.0801 49.4494 58.1414 47.7509 58.1456C44.0776 58.1541 40.4042 58.153 36.7309 58.1456C35.581 58.1435 34.6568 57.7426 34.1853 56.6012C34.0133 56.1855 34.0249 55.7509 34.0239 55.3194C34.0207 50.0815 34.0218 44.8437 34.0218 39.6058H34.0186H34.0175Z" fill="#FDFEFE"/>
<path d="M57.4967 32.927C57.4967 29.8867 57.4946 26.8473 57.4967 23.807C57.4967 22.0568 58.5274 21.0208 60.2786 21.0187C63.934 21.0145 67.5884 21.0134 71.2438 21.0187C72.9423 21.0208 73.9761 22.0431 73.9782 23.7373C73.9835 29.8002 73.9835 35.8619 73.9761 41.9248C73.974 43.6116 72.9338 44.6444 71.2406 44.6476C67.5504 44.655 63.8602 44.6254 60.1699 44.6645C58.9989 44.6771 58.2583 44.1359 57.7172 43.1897C57.4872 42.7867 57.4977 42.3341 57.4977 41.8878C57.4977 38.9002 57.4977 35.9136 57.4977 32.926L57.4967 32.927Z" fill="#FDFEFE"/>
</svg>
