<svg width="1017" height="724" viewBox="0 0 1017 724" fill="none" xmlns="http://www.w3.org/2000/svg">
<path d="M91.4348 253.214C105.763 190.859 67.7552 141.562 157.495 100.93C247.235 60.2991 365.718 173.103 634.239 170.086C902.76 167.07 966.736 257.066 942.172 356.841C917.608 456.615 945.15 493.692 895.718 545.527C846.286 597.362 735.652 606.821 587.186 536.133C438.72 465.445 245.944 564.342 167.064 550.47C88.1849 536.597 16.1572 500.089 18.0797 445.518C20.0022 390.947 73.5244 331.158 91.4348 253.214Z" fill="white" fill-opacity="0.2"/>
<path d="M118.435 236.214C132.763 173.859 94.7552 124.562 184.495 83.9305C274.235 43.2991 392.718 156.103 661.239 153.086C929.76 150.07 993.736 240.066 969.172 339.841C944.608 439.615 972.15 476.692 922.718 528.527C873.286 580.362 762.652 589.821 614.186 519.133C465.72 448.445 272.944 547.342 194.064 533.47C115.185 519.597 43.1572 483.089 45.0797 428.518C47.0022 373.947 100.524 314.158 118.435 236.214Z" stroke="white"/>
<g clip-path="url(#clip0_246_871)">
<path d="M305.854 395.704H291.743V635.426H305.854V395.704Z" fill="#FFBE21"/>
<path d="M305.859 399.001H291.743" stroke="#A15842" stroke-width="4" stroke-miterlimit="10"/>
<path d="M227.712 587.324C231.515 576.418 243.443 570.664 254.353 574.466C260.38 576.568 265.114 581.3 267.217 587.324C270.009 579.324 277.351 573.794 285.814 573.329C283.964 570.038 281.77 566.954 279.253 564.14L271.658 555.601C266.82 550.168 265.901 542.289 269.36 535.886L275.806 523.912C273.996 525.733 263.534 535.524 247.654 535.524C231.774 535.524 221.312 525.733 219.502 523.912H219.473L225.925 535.886C229.367 542.301 228.419 550.185 223.558 555.601L215.969 564.106C213.452 566.92 211.246 570.004 209.39 573.294C217.761 573.874 224.972 579.399 227.712 587.324V587.324Z" fill="#4756DF"/>
<path d="M286.969 599.424C278.069 599.424 270.141 605.058 267.217 613.46C263.425 602.554 251.503 596.788 240.593 600.584C234.555 602.68 229.809 607.424 227.712 613.46C224.133 603.186 213.268 597.374 202.731 600.085C203.024 613.339 208.368 625.979 217.669 635.426H277.529C286.814 625.996 292.157 613.391 292.467 600.165C290.675 599.671 288.825 599.424 286.969 599.424V599.424Z" fill="#4756DF"/>
<path d="M247.608 535.547C263.488 535.547 273.95 525.756 275.76 523.935H219.456C221.266 525.738 231.728 535.547 247.608 535.547V535.547Z" fill="#30242A"/>
<path d="M227.712 613.46C231.504 602.554 243.425 596.788 254.336 600.584C260.374 602.68 265.12 607.424 267.217 613.46C270.83 603.071 281.884 597.259 292.496 600.165C292.731 590.781 290.428 581.512 285.826 573.329C277.363 573.794 270.02 579.324 267.228 587.324C263.425 576.419 251.497 570.664 240.587 574.466C234.56 576.568 229.826 581.3 227.723 587.324C224.966 579.422 217.755 573.92 209.402 573.346C204.823 581.501 202.519 590.735 202.743 600.085C213.28 597.374 224.144 603.186 227.723 613.46H227.712V613.46Z" fill="#3EC1F3"/>
<path d="M251.779 533.905C252.928 526.875 258.151 499.011 271.284 483.868" stroke="#30242A" stroke-width="4" stroke-miterlimit="10" stroke-linecap="round"/>
<path d="M245.718 534.106C245.632 526.123 244.81 486.929 237.014 463.544" stroke="#30242A" stroke-width="4" stroke-miterlimit="10" stroke-linecap="round"/>
<path d="M280.274 506.68C291.789 501.615 300.201 495.41 299.061 492.821C297.921 490.231 287.661 492.238 276.146 497.303C264.63 502.368 256.219 508.573 257.359 511.162C258.499 513.752 268.758 511.745 280.274 506.68Z" fill="#30242A"/>
<path d="M280.267 435.432C284.407 429.837 286.181 424.133 284.23 422.69C282.278 421.247 277.34 424.612 273.2 430.207C269.06 435.801 267.286 441.506 269.237 442.949C271.189 444.392 276.127 441.026 280.267 435.432Z" fill="#30242A"/>
<path d="M217.919 510.654C232.931 508.385 244.776 504.397 244.375 501.747C243.974 499.097 231.479 498.788 216.467 501.058C201.455 503.327 189.61 507.315 190.011 509.965C190.412 512.615 202.907 512.923 217.919 510.654Z" fill="#30242A"/>
<path d="M207.431 471.515V471.555C212.332 474.294 214.079 480.485 211.344 485.378C208.936 489.679 203.794 491.632 199.135 490.018V490.053C211.717 495.704 223.788 496.134 226.086 491.017C228.384 485.901 220.019 477.166 207.431 471.515V471.515Z" fill="#FF7235"/>
<path d="M244.632 430.557C241.955 429.862 238.473 433.911 235.928 440.176C232.866 432.567 228.425 427.473 225.431 428.461C222.438 429.449 221.904 436.179 223.978 444.116C218.198 440.601 212.993 439.418 211.252 441.572C209.034 444.317 213.309 451.438 220.801 457.485C222.932 459.22 225.224 460.747 227.649 462.045C229.016 456.607 234.538 453.31 239.978 454.677C241.357 455.022 242.644 455.653 243.764 456.532C244.885 454.114 245.781 451.599 246.442 449.02C248.861 439.711 248.05 431.442 244.632 430.557V430.557Z" fill="#FF7235"/>
<path d="M303.039 472.83C302.211 470.188 296.931 469.384 290.267 470.533C295.104 463.911 297.081 457.451 294.662 455.435C292.243 453.419 286.239 456.526 280.597 462.481C280.529 455.716 278.776 450.674 276.03 450.336C272.531 449.905 268.739 457.302 267.567 466.846C267.222 469.574 267.136 472.33 267.314 475.075C272.652 473.358 278.38 476.287 280.098 481.628C280.534 482.983 280.684 484.419 280.529 485.832C283.177 485.499 285.785 484.919 288.325 484.109C297.5 481.255 304.09 476.195 303.039 472.83V472.83Z" fill="#FF7235"/>
<path d="M276.92 476.925C274.249 474.696 270.623 473.996 267.314 475.058C267.642 479.601 268.791 483.098 270.52 484.367C272.134 485.86 275.869 486.36 280.517 485.814C280.885 482.438 279.534 479.095 276.92 476.925V476.925Z" fill="#30242A"/>
<path d="M234.313 454.884C231.01 455.975 228.499 458.674 227.649 462.045C231.671 464.17 235.244 465.031 237.255 464.25C239.375 463.676 241.771 460.764 243.764 456.532C241.087 454.436 237.542 453.816 234.313 454.884Z" fill="#30242A"/>
<path d="M208.551 488.565C206.173 487.239 205.317 484.235 206.644 481.852C207.816 479.75 210.332 478.803 212.602 479.607C212.326 476.23 210.39 473.215 207.431 471.567L199.118 490.018C202.306 491.132 205.845 490.587 208.551 488.565Z" fill="#F5EBDD"/>
<path d="M206.437 482.231C205.397 484.568 206.316 487.308 208.551 488.548C211.361 486.463 212.889 483.075 212.602 479.589C210.172 478.722 207.489 479.876 206.437 482.231V482.231Z" fill="#4856DF"/>
<path d="M586.12 491.5H440L442.471 481.703H506.611L531.075 386.074C537.929 359.278 562.082 340.533 589.751 340.533C622.666 340.533 646.75 371.544 638.586 403.417L623.471 462.504C619.104 479.561 603.735 491.494 586.12 491.5V491.5Z" fill="#FFB7D5"/>
<path d="M534.258 582H441.132V592.372H534.258V582Z" fill="#A15842"/>
<path d="M549.598 629.855L525.375 485.74H450.009L425.787 629.855C425.35 632.462 427.114 634.926 429.722 635.363C429.981 635.408 430.245 635.426 430.509 635.426C432.761 635.426 434.703 633.858 435.186 631.658L466.911 485.74H508.496L540.21 631.658C540.687 633.858 542.634 635.426 544.886 635.426C547.529 635.426 549.667 633.272 549.661 630.63C549.661 630.372 549.638 630.108 549.598 629.855Z" fill="#A15842"/>
<path d="M611.405 582H518.28V592.372H611.405V582Z" fill="#FFBE21"/>
<path d="M626.745 629.855L602.5 485.74H527.162L502.94 629.855C502.504 632.462 504.267 634.926 506.876 635.363C507.134 635.408 507.398 635.426 507.663 635.426C509.915 635.426 511.857 633.858 512.334 631.658L544.048 485.74H585.638L617.352 631.658C617.829 633.858 619.782 635.426 622.034 635.426C624.677 635.426 626.814 633.272 626.809 630.63C626.809 630.372 626.786 630.108 626.745 629.855Z" fill="#FFBE21"/>
<path d="M550.626 462.505L559.865 426.388H498.637C473.938 426.388 452.382 443.117 446.257 467.036L440 491.5H513.27C530.885 491.5 546.26 479.566 550.626 462.505Z" fill="#FFB7D5"/>
<path d="M443.982 480.744H521.716" stroke="#A15842" stroke-width="4" stroke-linecap="round" stroke-linejoin="round"/>
<path d="M506.887 480.382L520.509 427.146" stroke="#A15842" stroke-width="4" stroke-linecap="round" stroke-linejoin="round"/>
<path d="M631.801 425.153H595.031" stroke="#A15842" stroke-width="4" stroke-linecap="round" stroke-linejoin="round"/>
<path d="M638.696 399.311H591.584" stroke="#A15842" stroke-width="4" stroke-linecap="round" stroke-linejoin="round"/>
<path d="M467.09 387.641C467.09 387.641 420.995 400.189 401.415 409.981C369.132 426.112 369.242 436.759 349.558 496.364C331.386 551.449 329.386 578.147 304.32 579.204C285.182 580.008 278.908 586.267 275.806 594.847L351.535 630.763C353.339 631.612 355.493 630.918 356.447 629.166C357.423 627.374 356.791 625.135 355.028 624.112L353.436 623.194C360.474 614.671 374.05 596.513 387.586 568.93L396.204 572.95C396.204 572.95 410.125 554.866 412.331 534.353C415.204 507.861 413.48 490.007 425.586 479.641L566.747 387.618L467.09 387.641V387.641Z" fill="#FF7235"/>
<path d="M296.88 583.459C298.379 580.341 306.71 561.344 311.501 563.641C317.735 566.627 301.556 585.699 301.556 585.699L296.88 583.459V583.459Z" fill="#30242A"/>
<path d="M275.8 595.117L351.529 631.027C353.402 631.923 355.642 631.124 356.539 629.252C357.383 627.483 356.722 625.359 355.022 624.382L353.43 623.463L353.591 623.268L301.539 598.706C302.32 596.547 302.866 594.307 303.171 592.033C310.961 593.383 326.726 594.836 326.807 588.341C326.893 582.288 309.674 584.717 303.383 586.428C303.245 584.102 302.797 581.805 302.039 579.6C284.682 580.794 278.776 586.882 275.8 595.117V595.117Z" fill="#30242A"/>
<path d="M401.415 409.981C397.79 411.79 394.578 413.53 391.7 415.276L387.282 429.42L404.288 417.446L419.967 429.943L414.187 412.812L431.946 404.68L418.22 402.957C412.498 404.996 406.89 407.345 401.415 409.981V409.981Z" fill="#FFB7D5"/>
<path d="M451.52 402.619L450.371 410.102L457.862 407.224L451.52 402.619Z" fill="#FFB7D5"/>
<path d="M408.309 440.05L397.365 454.447L381.806 446.965L391.022 462.51L376.618 474.605L395.055 472.302L401.398 493.613L407.735 472.302L427.901 466.542L408.309 458.479V440.05Z" fill="#FFB7D5"/>
<path d="M346.777 549.979L348.122 546.143L366.507 545.166L351.569 535.002L358.222 519.077L343.175 529.104L340.302 526.003C338.004 533.566 335.971 540.302 333.983 546.223H334.075C334.293 545.574 334.511 544.919 334.73 544.253L346.777 549.979V549.979Z" fill="#FFB7D5"/>
<path d="M346.777 549.979L334.712 544.276C334.494 544.942 334.276 545.597 334.057 546.246C326.766 567.954 320.125 578.808 304.331 579.474C303.556 579.474 302.809 579.548 302.073 579.6C302.832 581.805 303.28 584.102 303.418 586.428C309.737 584.705 326.927 582.288 326.841 588.341C326.749 594.836 310.996 593.383 303.205 592.033C302.895 594.307 302.343 596.547 301.556 598.706L353.608 623.268C360.687 614.654 374.148 596.587 387.58 569.234L346.777 549.979Z" fill="#EAA58B"/>
<path d="M392.751 506.282L391.028 521.833L374.895 521.259L388.724 531.63L383.553 550.059L397.393 537.959L409.832 546.252C410.177 545.155 410.493 544.041 410.78 542.915L406.011 531.045L413.4 522.953C413.52 521.448 413.635 519.967 413.744 518.525L400.84 520.679L392.751 506.282Z" fill="#FFB7D5"/>
<path d="M356.814 473.956C355.361 478.446 353.798 483.322 352.074 488.623L367.403 489.559L356.814 473.956Z" fill="#FFB7D5"/>
<path d="M410.941 614.252C411.182 610.806 411.935 590.075 417.232 590.448C424.126 590.93 416.111 614.614 416.111 614.614L410.941 614.252Z" fill="#30242A"/>
<path d="M538.538 388.486C538.538 388.486 480.918 399.167 449.227 412.41C417.232 425.785 417.542 449.537 423.299 514.057C428.47 571.819 437.708 599.866 418.703 608.503C401.271 616.429 395.216 626.364 396.043 635.449H481.849C483.883 635.449 485.532 633.8 485.532 631.768C485.532 629.735 483.883 628.086 481.849 628.086H480.401C483.107 619.237 487.031 601.962 487.571 573.375H498.212C498.212 573.375 503.681 548.107 497.637 525.572C491.317 501.963 485.537 497.932 482.085 481.806H533.717C573.147 481.806 602.661 445.351 594.083 406.886C591.406 394.866 587.522 388.509 587.522 388.509L538.538 388.486V388.486Z" fill="#FF7235"/>
<path d="M502.814 422.196L492.237 435.496L475.765 429.839L485.526 445.81L472.852 463.09L489.559 456.176L498.872 473.335L499.93 454.447L516.062 450.996L502.239 442.353L502.814 422.196Z" fill="#FFB7D5"/>
<path d="M479.798 524.865L489.565 540.836L476.891 558.116L493.598 551.225L499.792 562.636C500.699 553.769 501.148 540.652 498.252 528.058L496.275 530.545L479.798 524.865Z" fill="#FFB7D5"/>
<path d="M436.72 573.352L435.979 564.451L454.685 557.238L436.978 553.568L438.932 534.14L427.441 549.169L427.096 549.025C428.2 558.3 429.165 566.403 429.705 573.415V573.352H436.72V573.352Z" fill="#FFB7D5"/>
<path d="M481.849 628.063H480.401C483.107 619.214 487.031 601.939 487.571 573.352H429.688V573.404C429.734 573.978 429.774 574.552 429.814 575.126V575.287C431.015 593.233 429.056 603.731 418.68 608.446C401.248 616.371 395.193 626.306 396.02 635.391H481.849C483.883 635.385 485.526 633.732 485.52 631.699C485.515 629.671 483.871 628.035 481.849 628.029V628.063V628.063Z" fill="#EAA58B"/>
<path d="M558.675 389.973L532.207 392.316L534.964 402.952L518.033 411.979L539.124 414.799L546.26 430.598L553.596 414.236L575.049 410.848L556.417 401.258L558.675 389.973Z" fill="#FFB7D5"/>
<path d="M432.52 464.813L438.84 444.656L457.277 447.527L442.873 434.859L453.215 422.764L434.203 429.656L431.164 424.447C426.275 429.983 423.322 436.857 421.742 445.695L424.982 445.799L432.52 464.813V464.813Z" fill="#FFB7D5"/>
<path d="M481.849 401.579C477.96 402.659 474.087 403.79 470.307 404.956L485.538 415.293L481.849 401.579V401.579Z" fill="#FFB7D5"/>
<path d="M456.719 494.762L448.653 478.062L444.62 496.49L429.642 495.342L443.465 507.436L434.824 527.593L449.825 513.615L462.258 527.944L458.448 506.282L471.123 489.582L456.719 494.762Z" fill="#FFB7D5"/>
<path d="M422.517 621.327C430.136 619.225 445.004 613.816 442.316 607.906C439.811 602.393 425.275 611.926 420.317 616.17C419.065 613.873 417.467 611.788 415.577 609.979C400.536 617.635 395.256 626.903 396.043 635.426H481.849C483.883 635.426 485.532 633.778 485.532 631.745C485.532 629.712 483.883 628.063 481.849 628.063H423.879C423.661 625.778 423.207 623.521 422.517 621.327V621.327Z" fill="#30242A"/>
<path d="M481.849 483.075L467.015 482.868" stroke="#A15842" stroke-width="4" stroke-miterlimit="10" stroke-linecap="round"/>
<path d="M492.88 399.064C477.511 402.98 461.086 407.787 448.641 412.979C422.098 424.091 417.795 442.33 420.375 485.102" stroke="#A15842" stroke-width="4" stroke-miterlimit="10" stroke-linecap="round"/>
<path d="M687.921 395.704H673.811V635.426H687.921V395.704Z" fill="#FFBE21"/>
<path d="M687.921 399.001H673.811" stroke="#A15842" stroke-width="4" stroke-miterlimit="10"/>
<path d="M483.222 215.444C475.179 214.295 456.754 222.938 456.145 240.023C455.536 257.108 470.795 262.598 473.237 263.821L508.645 258.325L511.087 219.274L483.222 215.444V215.444Z" fill="#A15842"/>
<path d="M545.777 173.016C560.976 173.016 573.297 160.7 573.297 145.508C573.297 130.316 560.976 118 545.777 118C530.578 118 518.257 130.316 518.257 145.508C518.257 160.7 530.578 173.016 545.777 173.016Z" fill="#A15842"/>
<path d="M527.926 164.425C529.604 165.2 515.476 131.691 508.266 136.917C501.481 141.85 519.406 160.497 527.926 164.425Z" fill="#30242A"/>
<path d="M528.708 166.475C530.248 168.313 566.294 155.707 561.307 148.437C556.538 141.442 527.168 164.631 528.708 166.475Z" fill="#30242A"/>
<path d="M576.56 258.635C576.56 258.635 600.759 238.478 585.178 216.018C575.262 201.701 548.299 207.404 548.299 207.404C548.954 199.542 551.091 176.892 534.051 164.448C517.01 152.003 495.391 158.556 487.514 168.376C479.637 178.196 481.619 196.544 478.999 209.643C476.38 222.743 478.126 231.65 486.204 235.842C493.552 239.655 502.199 237.352 502.199 237.352L501.28 251.175C501.28 251.175 484.618 251.801 474.409 255.494C449.808 264.395 406.586 325.441 406.586 325.441C379.508 324.293 354.154 323.144 354.154 323.144L367.409 362.31C367.409 362.31 400.823 373.25 425.022 366.904C449.572 360.478 472.846 326.015 472.846 326.015L480.89 349.05L467.061 387.636H587.482L567.316 351.927C570.803 320.261 576.56 258.635 576.56 258.635V258.635Z" fill="#EAA58B"/>
<path d="M537.866 249.74L506.267 307.013L493.34 251.75C487.658 252.324 480.085 253.438 474.466 255.471C449.808 264.395 406.586 325.441 406.586 325.441C379.508 324.293 354.154 323.144 354.154 323.144L367.409 362.31C367.409 362.31 400.823 373.25 425.022 366.904C449.572 360.478 472.846 326.016 472.846 326.016L480.89 349.05L467.061 387.636H587.482L567.316 351.933C570.763 320.256 576.509 258.63 576.509 258.63C571.171 255.385 565.334 253.053 559.227 251.738C552.35 250.188 544.789 251.112 537.866 249.74V249.74Z" fill="#4756DF"/>
<path d="M374.223 383.61H474.007L451.319 311.986C449.951 307.656 445.93 304.71 441.385 304.71H357.056C351.305 304.71 346.634 309.367 346.634 315.116C346.634 316.19 346.8 317.252 347.122 318.274L365.875 377.505C367.03 381.141 370.408 383.61 374.223 383.61V383.61Z" fill="#30242A"/>
<path d="M389.091 337.11C391.74 333.493 403.753 343.049 404.638 343.835C405.098 343.049 411.354 333.498 415.939 337.11C419.921 340.246 411.171 354.253 408.844 357.825C408.459 358.25 407.804 358.284 407.373 357.899C407.344 357.876 407.321 357.848 407.298 357.825C403.052 354.253 386.793 340.246 389.091 337.11Z" fill="#A15842"/>
<path d="M403.647 339.535C404.65 339.222 404.688 336.483 403.732 333.415C402.777 330.348 401.189 328.114 400.186 328.426C399.183 328.738 399.145 331.478 400.101 334.546C401.057 337.613 402.645 339.847 403.647 339.535Z" fill="#A15842"/>
<path d="M531.948 375.547C532.965 378.815 531.144 382.289 527.875 383.306C527.283 383.489 526.662 383.587 526.042 383.587H374.223C370.408 383.587 367.029 381.118 365.875 377.482L365.254 375.524L531.948 375.547V375.547Z" fill="#30242A"/>
<path d="M712.235 383.61H267.429V398.007H712.235V383.61Z" fill="#FFBE21"/>
<path d="M623.465 462.505L632.703 426.388H578.812C554.113 426.388 532.557 443.117 526.438 467.036L520.176 491.5H586.103C603.718 491.5 619.098 479.566 623.465 462.505V462.505Z" fill="#FFB7D5"/>
<path d="M521.452 482.03L519.32 491.035" stroke="#A15842" stroke-width="4" stroke-linecap="round" stroke-linejoin="round"/>
<path d="M349.351 325.217C342.646 328.565 339.297 334.147 339.297 338.058C339.297 343.766 345.111 344.84 345.111 344.84C345.111 344.84 340.773 351.657 348.317 354.856C348.317 354.856 348.317 361.873 355.343 361.873C355.343 361.873 354.413 367.346 361.744 367.863C369.075 368.38 376.618 364.555 377.256 362.08C377.986 359.157 376.015 356.711 370.695 355.935C370.695 355.935 377.877 352.582 376.739 348.349C375.601 344.117 370.747 344.214 370.747 344.214C370.747 344.214 375.395 341.429 372.913 337.323C370.431 333.217 365.685 334.641 365.685 334.641C365.685 334.641 366.926 331.77 364.754 329.582C362.169 326.997 351.052 330.259 351.052 330.259L349.351 325.217V325.217Z" fill="#EAA58A"/>
<path d="M355.395 362.143C361.445 360.696 367.317 358.577 372.895 355.826" stroke="#A15842" stroke-width="4" stroke-miterlimit="10" stroke-linecap="round"/>
<path d="M348.3 354.821C356.688 352.524 364.697 349.015 372.074 344.41" stroke="#A15842" stroke-width="4" stroke-miterlimit="10" stroke-linecap="round"/>
<path d="M344.537 345.656C352.31 343.359 359.652 339.804 366.277 335.129" stroke="#A15842" stroke-width="4" stroke-miterlimit="10" stroke-linecap="round"/>
<path d="M585.207 216.018C575.291 201.701 548.328 207.404 548.328 207.404C548.983 199.542 551.12 176.892 534.08 164.448C517.039 152.003 495.42 158.556 487.543 168.376C484.337 172.396 482.768 177.805 481.855 183.709C487.083 184.588 494.753 182.79 494.753 182.79C505.238 194.58 514.632 196.452 514.632 196.452C521.969 189.119 534.838 189.36 536.929 200.472C539.101 212.01 520.664 217.195 520.664 217.195C520.664 217.195 518.941 237.927 528.133 245.415C530.954 247.649 534.292 249.142 537.837 249.763C544.731 251.135 552.321 250.211 559.25 251.75C565.357 253.065 571.194 255.396 576.532 258.641C578.634 256.786 580.559 254.736 582.277 252.519C588.321 244.858 595.549 230.949 585.207 216.018V216.018Z" fill="#A15842"/>
<path d="M505.692 178.586C502.245 181.458 498.223 183.181 493.593 184.329" stroke="#EAA58B" stroke-width="4" stroke-miterlimit="10" stroke-linecap="round"/>
<path d="M502.009 238.645C504.687 237.755 507.266 236.6 509.714 235.199" stroke="#A15842" stroke-width="4" stroke-miterlimit="10" stroke-linecap="round"/>
<path d="M521.371 205.612L526.611 202.339" stroke="#A15842" stroke-width="4" stroke-miterlimit="10" stroke-linecap="round"/>
<path d="M491.306 220.985C492.392 221.657 496.477 222.18 498.097 219.062" stroke="#A15842" stroke-width="4" stroke-miterlimit="10" stroke-linecap="round"/>
<path d="M501.981 206.249C503.066 206.249 503.946 205.37 503.946 204.285C503.946 203.201 503.066 202.321 501.981 202.321C500.896 202.321 500.016 203.201 500.016 204.285C500.016 205.37 500.896 206.249 501.981 206.249Z" fill="#30242A"/>
<path d="M485.693 203.648C486.778 203.648 487.658 202.769 487.658 201.684C487.658 200.599 486.778 199.72 485.693 199.72C484.607 199.72 483.728 200.599 483.728 201.684C483.728 202.769 484.607 203.648 485.693 203.648Z" fill="#30242A"/>
<path d="M491.226 209.27C490.835 210.505 490.496 211.849 490.72 212.297C491.03 212.865 491.496 213.33 492.064 213.635" stroke="#A15842" stroke-width="4" stroke-miterlimit="10" stroke-linecap="round"/>
<path d="M523.836 224.856C527.637 224.856 530.719 221.776 530.719 217.976C530.719 214.177 527.637 211.096 523.836 211.096C520.034 211.096 516.953 214.177 516.953 217.976C516.953 221.776 520.034 224.856 523.836 224.856Z" fill="#F5EBDD"/>
<path d="M490.718 202.789C491.909 196.671 488.407 190.843 482.898 189.772C477.388 188.7 471.956 192.791 470.765 198.908C469.574 205.026 473.076 210.854 478.585 211.926C484.095 212.997 489.527 208.906 490.718 202.789Z" stroke="#30242A" stroke-width="4" stroke-miterlimit="10" stroke-linecap="round"/>
<path d="M515.687 205.848C516.878 199.731 513.376 193.903 507.867 192.831C502.357 191.76 496.925 195.85 495.734 201.968C494.543 208.086 498.045 213.914 503.554 214.985C509.064 216.057 514.496 211.966 515.687 205.848Z" stroke="#30242A" stroke-width="4" stroke-miterlimit="10" stroke-linecap="round"/>
<path d="M491.197 201.862L495.167 202.287" stroke="#30242A" stroke-width="4" stroke-miterlimit="10" stroke-linecap="round"/>
<path d="M549.644 208.162L548.5 215.513" stroke="#30242A" stroke-width="4" stroke-miterlimit="10" stroke-linecap="round"/>
<path d="M466.515 311.044L472.076 327.222" stroke="#30242A" stroke-width="4" stroke-linecap="round" stroke-linejoin="round"/>
<path d="M495.896 347.901H481.275" stroke="#30242A" stroke-width="4" stroke-linecap="round" stroke-linejoin="round"/>
<path d="M507.421 306.438L512.029 328.898V349.63" stroke="#30242A" stroke-width="4" stroke-linecap="round" stroke-linejoin="round"/>
<path d="M476.776 254.971L485.526 274.761L475.156 273.613L512.029 328.898" stroke="#30242A" stroke-width="4" stroke-linecap="round" stroke-linejoin="round"/>
<path d="M562.03 252.617L547.179 273.612L561.008 272.458L510.3 317.378" stroke="#30242A" stroke-width="4" stroke-linecap="round" stroke-linejoin="round"/>
<path d="M569.752 323.018L558.704 307.593" stroke="#30242A" stroke-width="4" stroke-linecap="round" stroke-linejoin="round"/>
<path d="M582.535 379.871C576.52 377.867 565.725 373.997 559.215 370.109" stroke="#30242A" stroke-width="4" stroke-linecap="round" stroke-linejoin="round"/>
<path d="M416.611 236.974C422.853 236.974 427.912 231.916 427.912 225.677C427.912 219.439 422.853 214.381 416.611 214.381C410.37 214.381 405.31 219.439 405.31 225.677C405.31 231.916 410.37 236.974 416.611 236.974Z" fill="#FFB7D5"/>
<path d="M372.212 172.417L372.07 172.535C370.849 173.547 370.68 175.357 371.693 176.578L378.273 184.508C379.285 185.729 381.096 185.898 382.318 184.885L382.459 184.768C383.68 183.756 383.849 181.945 382.836 180.725L376.257 172.795C375.244 171.574 373.433 171.405 372.212 172.417Z" fill="#4756DF"/>
<path d="M394.67 190.359L388.052 182.377L269.084 280.98C266.924 282.772 266.625 285.977 268.417 288.136L268.55 288.297C270.342 290.456 273.542 290.755 275.702 288.963L312.897 258.124V366.336H323.279V249.51L394.67 190.359Z" fill="#3EC1F3"/>
<path d="M375.498 192.656L378.813 196.676C379.968 198.072 380.847 199.674 381.398 201.397" stroke="#4756DF" stroke-width="4" stroke-miterlimit="10"/>
<path d="M318.085 260.519C325.564 260.519 331.627 254.459 331.627 246.983C331.627 239.508 325.564 233.447 318.085 233.447C310.607 233.447 304.544 239.508 304.544 246.983C304.544 254.459 310.607 260.519 318.085 260.519Z" fill="#4756DF"/>
<path d="M318.085 252.186C320.96 252.186 323.291 249.857 323.291 246.983C323.291 244.11 320.96 241.78 318.085 241.78C315.211 241.78 312.88 244.11 312.88 246.983C312.88 249.857 315.211 252.186 318.085 252.186Z" fill="#3EC1F3"/>
<path d="M425.89 219.263L408.568 233.574" stroke="#A15842" stroke-width="4" stroke-miterlimit="10"/>
<path d="M403.449 188.912C399.807 188.487 396.468 186.672 394.13 183.847L389.534 178.294C386.15 174.222 380.112 173.659 376.032 177.036C371.959 180.413 371.396 186.454 374.774 190.526L379.371 196.096C381.697 198.91 382.858 202.511 382.605 206.158L381.456 222.95C380.887 231.167 382.973 239.345 387.408 246.288L388.879 248.585L443.994 202.89L442.017 201.035C436.019 195.396 428.366 191.829 420.185 190.865L403.449 188.912V188.912Z" fill="#3EC1F3"/>
<path d="M323.279 366.336H312.898L297.552 370.516C291.646 372.124 287.549 377.488 287.549 383.61H348.622C348.622 377.488 344.52 372.124 338.613 370.516L323.279 366.336V366.336Z" fill="#3EC1F3"/>
<path d="M433.537 194.764L383.099 236.434" stroke="#4756DF" stroke-width="4" stroke-miterlimit="10" stroke-linecap="round"/>
<path d="M312.645 365.147H323.279" stroke="#4756DF" stroke-width="4" stroke-miterlimit="10" stroke-linecap="round"/>
<path d="M289.566 376.431H346.26" stroke="#4756DF" stroke-width="4" stroke-miterlimit="10" stroke-linecap="round"/>
<path d="M616.323 531.763C617.472 522 616.898 500.085 604.224 483.385C591.55 466.685 608.82 473.623 613.991 478.217C622.264 485.568 629.549 492.614 635.886 516.228L616.323 531.763V531.763Z" fill="#30242A"/>
<path d="M769.361 635.426H837V633.215C837 626.725 831.732 621.465 825.239 621.465H769.01L769.361 635.426V635.426Z" fill="#A15842"/>
<path d="M604.362 570.877L618.627 635.426H645.136V631.406C645.136 626.007 640.77 621.631 635.369 621.614C635.369 621.614 648.618 611.685 656.684 601.893C656.684 601.893 670.513 618.737 690.104 615.854L691.524 622.746C693.046 630.119 699.532 635.414 707.065 635.426H771.314C799.811 635.426 813.829 631.078 814.634 614.861C814.737 612.328 812.761 610.186 810.227 610.088C810.164 610.088 810.101 610.088 810.037 610.088H792.101C790.601 610.088 789.182 609.411 788.246 608.245L780.61 598.775C775.991 593.05 768.453 590.546 761.323 592.36L745.966 596.283C745.966 596.283 718.756 557.197 694.109 530.051C670.553 504.134 626.246 501.337 608.791 535.093C603.178 546.142 601.615 558.8 604.362 570.882V570.877Z" fill="#A15842"/>
<path d="M764.977 635.426V633.215C764.977 626.725 759.714 621.465 753.222 621.465H745.385" stroke="#30242A" stroke-width="4" stroke-miterlimit="10"/>
<path d="M657.753 602.353C661.774 597.569 675.5 579.956 674.517 562.728C673.466 544.293 662.418 534.508 662.418 534.508" stroke="#30242A" stroke-width="4" stroke-miterlimit="10" stroke-linecap="round"/>
<path d="M686.617 591.516C686.617 591.516 687.352 605.144 688.829 615.32" stroke="#30242A" stroke-width="4" stroke-miterlimit="10" stroke-linecap="round"/>
<path d="M631.307 629.528V634.851" stroke="#30242A" stroke-width="4" stroke-miterlimit="10" stroke-linecap="round"/>
<path d="M637.644 629.528V634.851" stroke="#30242A" stroke-width="4" stroke-miterlimit="10" stroke-linecap="round"/>
<path d="M752.303 629.528V634.851" stroke="#30242A" stroke-width="4" stroke-miterlimit="10" stroke-linecap="round"/>
<path d="M758.64 629.528V634.851" stroke="#30242A" stroke-width="4" stroke-miterlimit="10" stroke-linecap="round"/>
<path d="M775.635 613.976C777.066 613.976 778.226 612.817 778.226 611.386C778.226 609.956 777.066 608.796 775.635 608.796C774.204 608.796 773.043 609.956 773.043 611.386C773.043 612.817 774.204 613.976 775.635 613.976Z" fill="#30242A"/>
<path d="M761.495 592.303V592.234L745.943 596.254L761.3 592.332L761.495 592.303Z" fill="#30242A"/>
<path d="M723.22 621.723C718.716 624.021 712.35 628.517 712.879 635.328H737.894L743.151 627.041C744.897 624.285 747.931 622.614 751.194 622.614H752.866L761.438 592.475L761.311 592.343L745.954 596.266L731.252 615.09C729.086 617.859 726.346 620.121 723.22 621.723V621.723Z" fill="#30242A"/>
<path d="M686.686 544.115C686.686 544.115 679.728 568.189 702.198 577.28C713.591 581.874 723.054 578.388 729.62 573.834C719.698 560.626 706.57 543.811 694.103 530.074C690.978 526.634 687.467 523.568 683.635 520.937C680.234 525.566 676.511 537.017 686.686 544.115V544.115Z" fill="#EAA58B"/>
<path d="M638.69 553.612C639.532 548.431 636.012 543.549 630.828 542.708C625.645 541.867 620.761 545.385 619.919 550.566C619.078 555.748 622.598 560.63 627.781 561.471C632.965 562.312 637.849 558.793 638.69 553.612Z" fill="#EAA58B"/>
<path d="M810.06 610.083H806.613C805.9 613.678 808.245 617.169 811.841 617.881C812.26 617.962 812.686 618.008 813.111 618.008C813.513 618.008 813.921 617.968 814.317 617.893C814.495 616.888 814.605 615.877 814.656 614.861C814.76 612.328 812.783 610.186 810.25 610.089C810.186 610.089 810.123 610.089 810.06 610.089V610.083Z" fill="#30242A"/>
<path d="M823.745 629.528V634.719" stroke="#30242A" stroke-width="4" stroke-miterlimit="10" stroke-linecap="round"/>
<path d="M830.083 629.528V634.719" stroke="#30242A" stroke-width="4" stroke-miterlimit="10" stroke-linecap="round"/>
<path d="M788.975 634.737C803.062 633.318 811.462 629.505 814.513 621.39" stroke="#30242A" stroke-width="4" stroke-linecap="round" stroke-linejoin="round"/>
<path d="M559.278 332.591C552.189 331.954 545.059 331.879 537.958 332.356C527.8 333.188 514.143 335.847 508.657 338.5C503.17 341.153 482.159 350.52 487.819 353.661C492.989 356.533 503.836 352.214 503.836 352.214C503.836 352.214 493.012 362.161 491.151 366.324C489.289 370.488 495.443 372.825 495.443 372.825C497.063 379.935 504.313 376.879 504.313 376.879C508.881 386.591 533.557 365.549 533.557 365.549C539.428 366.158 545.358 365.911 551.155 364.808C551.155 364.808 554.28 366.56 559.296 368.995L559.278 332.591V332.591Z" fill="#EAA58A"/>
<path d="M620.925 381.307C667.02 359.421 600.202 277.65 576.56 258.635L563.312 312.198L580.019 335.233C572.699 333.969 565.702 333.102 559.278 332.591V368.995C573.906 376.104 604.643 389.06 620.925 381.307V381.307Z" fill="#4756DF"/>
<path d="M501.63 352.817C505.721 349.435 512.512 343.968 517.579 340.671" stroke="#A15842" stroke-width="4" stroke-miterlimit="10" stroke-linecap="round"/>
<path d="M523.164 348.751C511.392 356.372 500.665 366.554 495.356 371.883" stroke="#A15842" stroke-width="4" stroke-miterlimit="10" stroke-linecap="round"/>
<path d="M528.386 357.371C520.342 362.89 511.006 371.257 504.911 377" stroke="#A15842" stroke-width="4" stroke-miterlimit="10" stroke-linecap="round"/>
<path d="M666.675 354.276C668.491 354.276 669.956 355.746 669.961 357.561V358.049C669.961 359.864 668.491 361.328 666.675 361.334H649.744V354.276H666.675V354.276ZM666.675 349.682H645.768C645.423 349.682 645.147 349.957 645.147 350.302V365.325C645.147 365.669 645.423 365.945 645.768 365.945H666.675C671.03 365.945 674.558 362.419 674.558 358.066V357.543C674.558 353.19 671.03 349.664 666.675 349.664V349.682V349.682Z" fill="#3EC1F3"/>
<path d="M641.396 347.206C624.275 347.206 616.364 333.567 616.364 333.567L627.854 383.61H654.903L666.393 333.567C660.97 342.113 651.525 347.27 641.396 347.206Z" fill="#3EC1F3"/>
<path d="M641.396 347.206C651.536 347.281 660.999 342.124 666.428 333.567H616.364C616.364 333.567 624.275 347.206 641.396 347.206V347.206Z" fill="#30242A"/>
</g>
<defs>
<clipPath id="clip0_246_871">
<rect width="647" height="518" fill="white" transform="translate(190 118)"/>
</clipPath>
</defs>
</svg>
