<svg width="557" height="299" viewBox="0 0 557 299" fill="none" xmlns="http://www.w3.org/2000/svg">
<path d="M540.544 298.445L45.7161 298.298C45.7161 298.298 45.538 298.105 45.2065 297.732C40.0664 291.917 -1.87696 241.983 17.9853 182.238C21.4451 171.823 26.7841 161.112 34.5243 150.283C83.3149 82.0119 140.198 86.6805 181.932 114.385C199.708 126.184 250.956 115.84 294.575 46.3728C308.508 24.1821 330.494 10.3422 355.508 4.03244C356.323 3.82522 357.141 3.6263 357.961 3.43566C358.208 3.38178 358.452 3.32583 358.699 3.26988C359.146 3.16835 359.598 3.07096 360.048 2.97357C369.108 1.03817 378.518 0.0621831 388.046 1.83325e-05C388.777 -0.00205383 389.511 -0.00205383 390.244 0.00209049C393.163 0.0269564 396.091 0.138853 399.02 0.333636C407.618 0.903479 416.243 2.20065 424.727 4.19821C425.897 4.47381 427.064 4.76184 428.226 5.0623C428.636 5.16798 429.044 5.27573 429.453 5.38556C429.494 5.39592 429.538 5.40628 429.579 5.41871C431.957 6.05901 434.323 6.75111 436.671 7.5033C456.614 13.8648 475.303 24.1738 490.463 38.0614C491.227 38.7639 491.987 39.4746 492.733 40.1937C493.5 40.9314 494.256 41.6794 495.002 42.4378C521.183 68.978 534.946 107.193 522.656 154.844C504.464 225.376 578.029 227.942 540.544 298.445Z" fill="#EBF3FA"/>
<path opacity="0.5" d="M490.465 38.0614C475.305 24.1738 456.616 13.8628 436.673 7.5033C434.325 6.75318 431.959 6.06108 429.581 5.41871C429.539 5.40628 429.496 5.39592 429.455 5.38556C429.046 5.27573 428.638 5.16798 428.228 5.0623C427.064 4.76184 425.899 4.47381 424.729 4.19821C423.173 3.83144 421.611 3.48953 420.047 3.17042C413.081 1.75099 406.043 0.797799 399.022 0.333636C396.093 0.138853 393.165 0.0290285 390.246 0.00209049C389.513 -0.00205383 388.779 -0.00205383 388.048 1.83326e-05C378.518 0.0497501 369.11 0.866181 360.05 2.48454C359.6 2.56328 359.148 2.64616 358.701 2.73112C358.454 2.77878 358.21 2.82437 357.963 2.87203V149.811H492.735V40.1937C491.989 39.4726 491.229 38.7618 490.465 38.0614Z" fill="#F8FCFF"/>
<path d="M391.151 250.043L398.477 266.044L412.592 296.878C412.833 297.398 413.351 297.732 413.924 297.732H414.04C415.076 297.732 415.826 296.743 415.549 295.745L404.342 255.64L402.708 249.79L391.151 250.043Z" fill="#F9DDBF"/>
<path d="M398.477 266.044C397.779 258.767 404.34 255.64 404.34 255.64L402.706 249.79L391.149 250.043L398.475 266.044H398.477Z" fill="#EAC3A2"/>
<path d="M466.823 250.043L474.149 266.044L488.264 296.878C488.504 297.398 489.022 297.732 489.594 297.732H489.71C490.746 297.732 491.496 296.743 491.219 295.745L480.012 255.64L478.38 249.79L466.823 250.043Z" fill="#F9DDBF"/>
<path d="M474.149 266.044C473.451 258.767 480.012 255.64 480.012 255.64L478.38 249.79L466.823 250.043L474.149 266.044Z" fill="#EAC3A2"/>
<path d="M153.959 218.524H488.252C489.922 218.524 491.277 219.879 491.277 221.549V248.278C491.277 249.948 489.922 251.303 488.252 251.303H153.959C152.289 251.303 150.934 249.948 150.934 248.278V221.549C150.934 219.879 152.289 218.524 153.959 218.524Z" fill="#F9DDBF"/>
<path d="M166.06 249.79L164.428 255.64L153.221 295.745C152.944 296.743 153.694 297.732 154.73 297.732H154.846C155.417 297.732 155.937 297.396 156.176 296.878L170.291 266.047L177.617 250.043L166.06 249.79Z" fill="#EAC3A2"/>
<path d="M225.682 249.79L224.047 255.64L212.841 295.745C212.563 296.743 213.313 297.732 214.349 297.732H214.465C215.037 297.732 215.557 297.396 215.795 296.878L229.91 266.047L237.236 250.043L225.68 249.79H225.682Z" fill="#EAC3A2"/>
<path d="M275.025 122.577H149.871C147.952 122.577 146.396 124.132 146.396 126.052V247.826C146.396 249.745 147.952 251.301 149.871 251.301H275.025C276.944 251.301 278.5 249.745 278.5 247.826V126.052C278.5 124.132 276.944 122.577 275.025 122.577Z" fill="#EAC3A2"/>
<path d="M283.039 125.996V229.376C283.039 231.255 281.678 232.793 280.015 232.793H153.961C152.297 232.793 150.936 231.255 150.936 229.376V125.996C150.936 124.116 152.297 122.579 153.961 122.579H280.015C281.678 122.579 283.039 124.116 283.039 125.996Z" fill="#F9DDBF"/>
<path d="M174.952 227.266C174.952 227.266 151.759 225.416 150.934 224.846V203.554C155.826 198.927 165.428 193.662 165.428 193.662L174.952 227.266Z" fill="#EAC3A2"/>
<path d="M181.571 147.442C181.571 146.214 182.425 145.219 183.477 145.219C184.53 145.219 185.383 146.214 185.383 147.442C185.383 148.671 184.53 149.666 183.477 149.666C182.425 149.666 181.571 148.671 181.571 147.442Z" fill="#EAC3A2"/>
<path d="M257.817 147.442C257.817 146.214 258.671 145.219 259.723 145.219C260.776 145.219 261.629 146.214 261.629 147.442C261.629 148.671 260.776 149.666 259.723 149.666C258.671 149.666 257.817 148.671 257.817 147.442Z" fill="#EAC3A2"/>
<path d="M181.571 189.366C181.571 188.137 182.425 187.143 183.477 187.143C184.53 187.143 185.383 188.137 185.383 189.366C185.383 190.595 184.53 191.59 183.477 191.59C182.425 191.59 181.571 190.595 181.571 189.366Z" fill="#273F76"/>
<path d="M257.817 189.366C257.817 188.137 258.671 187.143 259.723 187.143C260.776 187.143 261.629 188.137 261.629 189.366C261.629 190.595 260.776 191.59 259.723 191.59C258.671 191.59 257.817 190.595 257.817 189.366Z" fill="#EAC3A2"/>
<path d="M379.595 221.549V248.278C379.595 249.942 378.213 251.303 376.527 251.303H150.751C149.063 251.303 147.683 249.942 147.683 248.278V221.549C147.683 219.885 149.063 218.524 150.751 218.524H376.527C378.215 218.524 379.595 219.885 379.595 221.549Z" fill="#EAC3A2"/>
<path d="M224.497 178.148C224.497 178.148 216.009 202.817 220.459 218.737H235.131C235.131 218.737 240.543 189.702 224.497 178.148Z" fill="#ECF3FE"/>
<path d="M224.497 178.148C224.497 178.148 254.03 174.026 270.3 178.148L282.527 218.737H235.133C235.133 218.737 240.545 194.445 224.499 178.148H224.497Z" fill="white"/>
<path d="M387.447 217.496C387.157 217.338 387.001 217.253 387.001 217.253C387.209 217.311 387.356 217.394 387.447 217.496Z" fill="#D67330"/>
<path d="M166.982 178.148C166.982 178.148 158.494 202.817 162.944 218.737H177.616C177.616 218.737 183.028 189.702 166.982 178.148Z" fill="#ECF3FE"/>
<path d="M166.981 178.148C166.981 178.148 196.515 174.026 212.785 178.148L225.012 218.737H177.618C177.618 218.737 183.03 194.445 166.984 178.148H166.981Z" fill="white"/>
<path d="M131.492 196.19V198.757C131.492 199.657 131.202 200.39 130.846 200.39H37.1388C36.7846 200.39 36.4924 199.657 36.4924 198.757V196.19C36.4924 195.293 36.7846 194.557 37.1388 194.557H130.846C131.2 194.557 131.492 195.293 131.492 196.19Z" fill="#77A4E5"/>
<path d="M131.492 196.19V198.757C131.492 199.657 131.225 200.39 130.9 200.39H56.5059C56.1806 200.39 55.9133 199.657 55.9133 198.757V196.19C55.9133 195.293 56.1806 194.557 56.5059 194.557H130.898C131.223 194.557 131.49 195.293 131.49 196.19H131.492Z" fill="#9FC3F7"/>
<path d="M107.774 200.392H41.2493V297.373H107.774V200.392Z" fill="#77A4E5"/>
<path d="M126.416 200.392H59.8911V297.373H126.416V200.392Z" fill="#B0D4FF"/>
<path d="M122.844 292.019H63.467V203.132H122.842V292.019H122.844ZM64.1093 291.379H122.202V203.774H64.1093V291.379Z" fill="#77A4E5"/>
<path d="M122.523 232.536H63.7881V233.176H122.523V232.536Z" fill="#77A4E5"/>
<path d="M122.523 262.513H63.7881V263.154H122.523V262.513Z" fill="#77A4E5"/>
<path d="M99.1742 208.863H88.2745C87.7462 208.863 87.3132 208.43 87.3132 207.902C87.3132 207.373 87.7462 206.94 88.2745 206.94H99.1742C99.7025 206.94 100.136 207.373 100.136 207.902C100.136 208.43 99.7025 208.863 99.1742 208.863Z" fill="#77A4E5"/>
<path d="M99.1742 238.178H88.2745C87.7462 238.178 87.3132 237.745 87.3132 237.216C87.3132 236.688 87.7462 236.255 88.2745 236.255H99.1742C99.7025 236.255 100.136 236.688 100.136 237.216C100.136 237.745 99.7025 238.178 99.1742 238.178Z" fill="#77A4E5"/>
<path d="M99.1742 268.738H88.2745C87.7462 268.738 87.3132 268.305 87.3132 267.777C87.3132 267.248 87.7462 266.815 88.2745 266.815H99.1742C99.7025 266.815 100.136 267.248 100.136 267.777C100.136 268.305 99.7025 268.738 99.1742 268.738Z" fill="#77A4E5"/>
<path d="M67.8055 160.29C67.8055 160.29 62.3236 153.893 67.4678 149.829C67.4678 149.829 71.226 147.554 74.2881 147.739C74.2881 147.739 69.9477 155.02 71.3524 155.743C72.7571 156.469 75.6058 147.281 75.6058 147.281C75.6058 147.281 84.1561 146.452 86.9074 147.774C86.9074 147.774 79.5981 153.756 81.1375 154.113C82.6768 154.469 90.5724 148.597 90.5724 148.597C90.5724 148.597 98.5301 149.952 98.1054 154.807C97.6807 159.662 94.9397 161.162 93.7339 161.032C92.5282 160.903 85.4779 158.211 85.3246 159.198C85.1712 160.186 89.4143 163.412 92.3873 163.564C92.3873 163.564 86.7769 169.753 83.0477 167.967C79.3184 166.181 79.0015 163.35 76.6769 162.287C74.3524 161.226 72.3676 161.228 73.3289 162.312C74.2881 163.396 78.4959 164.446 79.824 166.798C81.154 169.15 82.3453 170.735 78.4877 170.155C74.63 169.575 68.3587 166.751 68.0831 163.518L67.8076 160.286L67.8055 160.29Z" fill="#82B378"/>
<path d="M94.1916 154.939C94.1916 154.939 72.5766 154.106 67.8032 160.29C67.8032 160.29 66.7466 163.452 63.5001 166.332L62.9946 167.712C62.9946 167.712 66.7404 163.763 68.0809 163.524C68.0809 163.524 65.9842 155.866 94.1937 154.941L94.1916 154.939Z" fill="#82B378"/>
<path d="M63.5003 166.33C63.5003 166.33 58.8615 169.761 58.5383 175.893L59.3795 175.968C59.3795 175.968 60.8608 169.627 63.5396 167.149C66.2184 164.67 63.5003 166.33 63.5003 166.33Z" fill="#82B378"/>
<path d="M48.6393 152.246C48.6393 152.246 57.3594 147.361 53.2904 140.733C53.2904 140.733 50.0357 136.663 46.5468 135.616C46.5468 135.616 48.4072 145.501 46.5468 145.735C44.6863 145.967 45.2685 134.57 45.2685 134.57C45.2685 134.57 36.0822 130.15 32.4793 130.5C32.4793 130.5 38.1768 140.152 36.3163 139.92C34.4558 139.688 28.0602 129.92 28.0602 129.92C28.0602 129.92 18.6419 128.175 17.1315 133.758C15.6191 139.34 18.0618 142.131 19.4561 142.479C20.8504 142.828 29.8047 142.712 29.5726 143.874C29.3406 145.037 23.293 146.897 19.9222 145.851C19.9222 145.851 23.6432 155.039 28.5264 154.573C33.4096 154.106 34.922 151.083 37.9447 150.851C40.9675 150.619 43.176 151.433 41.6656 152.246C40.1532 153.06 35.038 152.513 32.5974 154.589C30.1548 156.665 28.1783 157.944 32.7135 158.874C37.2486 159.805 45.3866 159.223 47.015 155.735L48.6434 152.246H48.6393Z" fill="#A8D29F"/>
<path d="M21.4305 135.498C21.4305 135.498 45.8465 143.406 48.6372 152.244C48.6372 152.244 48.5212 156.197 50.9618 160.733V162.478C50.9618 162.478 48.4031 156.547 47.0088 155.733C47.0088 155.733 52.4742 148.058 21.4285 135.498H21.4305Z" fill="#82B378"/>
<path d="M50.9638 160.735C50.9638 160.735 54.7282 166.454 52.5818 173.417L51.6122 173.156C51.6122 173.156 52.5528 165.489 50.5826 161.63C48.6123 157.774 50.9617 160.735 50.9617 160.735H50.9638Z" fill="#82B378"/>
<path d="M62.5119 145.509C62.5119 145.509 51.0176 139.071 56.3815 130.333C56.3815 130.333 60.6721 124.968 65.2715 123.588C65.2715 123.588 62.8185 136.617 65.2715 136.924C67.7245 137.231 66.9579 122.208 66.9579 122.208C66.9579 122.208 79.0655 116.383 83.8182 116.843C83.8182 116.843 76.3079 129.566 78.7609 129.259C81.2139 128.952 89.6419 116.076 89.6419 116.076C89.6419 116.076 102.056 113.776 104.049 121.134C106.042 128.492 102.823 132.171 100.983 132.631C99.1432 133.091 87.3423 132.937 87.6489 134.471C87.9555 136.004 95.9257 138.455 100.37 137.077C100.37 137.077 95.4657 149.187 89.0287 148.574C82.5917 147.96 80.5986 143.976 76.6145 143.669C72.6305 143.362 69.7176 144.436 71.7106 145.509C73.7037 146.582 80.4474 145.861 83.6648 148.597C86.8844 151.334 89.4886 153.019 83.5115 154.245C77.5344 155.472 66.8046 154.705 64.6603 150.107L62.514 145.509H62.5119Z" fill="#A8D29F"/>
<path d="M98.3765 123.434C98.3765 123.434 66.1913 133.859 62.5118 145.509C62.5118 145.509 62.6651 150.721 59.4456 156.699V158.999C59.4456 158.999 62.8164 151.181 64.6561 150.107C64.6561 150.107 57.4525 139.989 98.3744 123.434H98.3765Z" fill="#82B378"/>
<path d="M59.4457 156.699C59.4457 156.699 54.4817 164.237 57.3117 173.415L58.588 173.071C58.588 173.071 57.349 162.963 59.945 157.88C62.5409 152.797 59.4436 156.699 59.4436 156.699H59.4457Z" fill="#82B378"/>
<path d="M84.6406 170.796C84.6406 183.233 74.5593 193.316 62.1245 193.316C59.5285 193.316 57.0341 192.876 54.7137 192.066C45.9189 189.002 39.6062 180.634 39.6062 170.793H84.6386L84.6406 170.796Z" fill="#ED7D2B"/>
<path d="M69.8191 170.796C69.8191 179.233 67.7991 187.827 60.9311 191.683C59.7896 192.323 55.9671 191.629 54.7137 192.066C45.9189 189.002 39.6062 180.634 39.6062 170.793H69.8191V170.796Z" fill="#F99746"/>
<path d="M84.9514 194.462H39.2954C39.2954 193.695 39.6062 192.999 40.1096 192.497C40.6131 191.996 41.3071 191.683 42.0737 191.683H82.1731C83.7062 191.683 84.9514 192.926 84.9514 194.462Z" fill="#ED7D2B"/>
<path d="M63.5602 194.462H39.2954C39.2954 193.695 39.6062 192.999 40.1096 192.497C40.6131 191.996 41.3071 191.683 42.0737 191.683H60.7819C62.315 191.683 63.5602 192.926 63.5602 194.462Z" fill="#F99746"/>
<path d="M85.1525 170.793H38.8667V171.483H85.1525V170.793Z" fill="#B5453C"/>
<path d="M95.0203 181.498C95.0203 175.645 99.7647 170.901 105.615 170.901C111.466 170.901 116.21 175.647 116.21 181.498C116.21 187.35 111.466 192.095 105.615 192.095C99.7647 192.095 95.0203 187.35 95.0203 181.498Z" fill="#F99746"/>
<path d="M98.6107 189.288L97.3759 193.144C97.1667 193.795 97.6535 194.462 98.3372 194.462H98.6211C98.8718 194.462 99.1121 194.369 99.2985 194.201L102.203 191.573C102.698 191.124 102.63 190.326 102.064 189.969L100.113 188.741C99.5554 188.388 98.8158 188.66 98.6149 189.288H98.6107Z" fill="#F99746"/>
<path d="M113.2 189.288L114.435 193.144C114.644 193.795 114.157 194.462 113.474 194.462H113.19C112.939 194.462 112.699 194.369 112.512 194.201L109.608 191.573C109.113 191.124 109.181 190.326 109.747 189.969L111.698 188.741C112.256 188.388 112.995 188.66 113.196 189.288H113.2Z" fill="#F99746"/>
<path d="M95.213 168.902C93.1578 170.566 92.3892 173.228 93.0397 175.626C93.3899 176.921 94.9437 177.443 95.9879 176.598L102.58 171.26C103.589 170.443 103.477 168.835 102.334 168.224C100.109 167.037 97.2973 167.215 95.213 168.902Z" fill="#F99746"/>
<path d="M116.619 169.795C114.758 167.917 112.032 167.418 109.714 168.305C108.46 168.784 108.096 170.383 109.042 171.337L115.013 177.362C115.927 178.284 117.516 178.013 118.009 176.813C118.968 174.48 118.508 171.699 116.621 169.795H116.619Z" fill="#F99746"/>
<path d="M97.0134 181.498C97.0134 176.747 100.865 172.895 105.615 172.895C110.366 172.895 114.218 176.747 114.218 181.498C114.218 186.25 110.366 190.102 105.615 190.102C100.865 190.102 97.0134 186.25 97.0134 181.498Z" fill="white"/>
<path d="M111.757 184.702C111.964 184.818 112.036 185.081 111.92 185.288C111.804 185.495 111.541 185.568 111.334 185.452C111.127 185.336 111.054 185.073 111.17 184.866C111.286 184.658 111.549 184.586 111.757 184.702Z" fill="#B0D4FF"/>
<path d="M99.8955 178.015C100.103 178.131 100.175 178.394 100.059 178.601C99.9431 178.809 99.68 178.881 99.4728 178.765C99.2656 178.649 99.1931 178.386 99.3091 178.179C99.4252 177.971 99.6883 177.899 99.8955 178.015Z" fill="#B0D4FF"/>
<path d="M105.185 174.689C105.185 174.451 105.377 174.258 105.615 174.258C105.854 174.258 106.046 174.451 106.046 174.689C106.046 174.927 105.854 175.12 105.615 175.12C105.377 175.12 105.185 174.927 105.185 174.689Z" fill="#B0D4FF"/>
<path d="M105.185 188.307C105.185 188.069 105.377 187.876 105.615 187.876C105.854 187.876 106.046 188.069 106.046 188.307C106.046 188.546 105.854 188.738 105.615 188.738C105.377 188.738 105.185 188.546 105.185 188.307Z" fill="#B0D4FF"/>
<path d="M108.858 175.497C108.984 175.296 109.25 175.234 109.451 175.361C109.652 175.487 109.714 175.752 109.587 175.953C109.461 176.154 109.196 176.216 108.995 176.09C108.794 175.964 108.732 175.698 108.858 175.497Z" fill="#B0D4FF"/>
<path d="M101.642 187.045C101.768 186.844 102.034 186.782 102.234 186.909C102.435 187.035 102.498 187.3 102.371 187.501C102.245 187.702 101.98 187.765 101.779 187.638C101.578 187.512 101.516 187.246 101.642 187.045Z" fill="#B0D4FF"/>
<path d="M111.34 177.789C111.547 177.673 111.81 177.746 111.926 177.953C112.042 178.16 111.97 178.421 111.763 178.539C111.555 178.655 111.292 178.583 111.176 178.376C111.06 178.168 111.133 177.905 111.34 177.789Z" fill="#B0D4FF"/>
<path d="M99.4687 184.457C99.6758 184.341 99.9369 184.414 100.055 184.621C100.171 184.828 100.098 185.091 99.8913 185.207C99.6841 185.323 99.421 185.251 99.305 185.044C99.189 184.837 99.2615 184.573 99.4687 184.457Z" fill="#B0D4FF"/>
<path d="M112.423 181.069C112.662 181.069 112.854 181.262 112.854 181.5C112.854 181.739 112.662 181.931 112.423 181.931C112.185 181.931 111.992 181.739 111.992 181.5C111.992 181.262 112.185 181.069 112.423 181.069Z" fill="#B0D4FF"/>
<path d="M98.8076 181.069C99.0459 181.069 99.2386 181.262 99.2386 181.5C99.2386 181.739 99.0459 181.931 98.8076 181.931C98.5694 181.931 98.3767 181.739 98.3767 181.5C98.3767 181.262 98.5694 181.069 98.8076 181.069Z" fill="#B0D4FF"/>
<path d="M109.312 187.052C109.428 187.259 109.353 187.522 109.146 187.638C108.939 187.754 108.676 187.68 108.562 187.472C108.446 187.265 108.52 187.002 108.727 186.888C108.934 186.772 109.198 186.847 109.312 187.054V187.052Z" fill="#B0D4FF"/>
<path d="M102.671 175.164C102.787 175.371 102.713 175.634 102.506 175.748C102.298 175.864 102.035 175.79 101.921 175.582C101.805 175.375 101.88 175.112 102.087 174.996C102.294 174.88 102.557 174.954 102.671 175.162V175.164Z" fill="#B0D4FF"/>
<path d="M104.936 181.498C104.936 181.123 105.241 180.819 105.616 180.819C105.991 180.819 106.295 181.123 106.295 181.498C106.295 181.873 105.991 182.178 105.616 182.178C105.241 182.178 104.936 181.873 104.936 181.498Z" fill="#F99746"/>
<path d="M101.232 181.316C102.614 181.233 105.294 181.069 105.294 181.069V181.803L101.23 181.436C101.147 181.428 101.149 181.322 101.232 181.318V181.316Z" fill="#F99746"/>
<path d="M105.775 176.679C105.862 178.72 105.982 181.498 105.982 181.498H105.249L105.555 176.674C105.57 176.457 105.767 176.461 105.775 176.681V176.679Z" fill="#F99746"/>
<path d="M399.37 51.2093C399.37 48.4637 401.595 46.2382 404.34 46.2382C407.085 46.2382 409.311 48.4637 409.311 51.2093C409.311 53.9549 407.085 56.1804 404.34 56.1804C401.595 56.1804 399.37 53.9549 399.37 51.2093Z" fill="white"/>
<path d="M366.98 93.301C366.98 93.301 370.902 87.3995 380.281 88.0564C380.281 88.0564 393.897 78.2219 408.416 86.7447C408.416 86.7447 423.851 84.6331 435.281 88.5744C442.901 91.2019 445.418 93.9579 445.418 93.9579L366.98 93.3031V93.301Z" fill="#F8FCFF"/>
<path d="M412.377 146.124C412.377 146.124 408.66 124.922 427.091 116.476C445.521 108.03 452.911 109.891 460.299 91.8919C467.689 73.8932 490.465 84.4508 490.465 84.4508V146.025L412.377 146.127V146.124Z" fill="#A8D29F"/>
<path d="M473.418 218.878C473.418 218.878 426.521 197.526 418.074 197.473C409.629 197.419 371.276 207.976 362.48 206.217C353.683 204.458 305.124 189.408 298.439 189.366C291.753 189.325 187.923 200.39 172.441 218.739C169.596 222.109 217.767 285.919 246.078 282.303C264.88 279.901 306.782 218.099 312.021 217.256C317.263 216.412 418.057 218.524 418.057 218.524C440.696 218.524 473.416 218.878 473.416 218.878H473.418Z" fill="#9FC3F7"/>
<path d="M419.483 8.7839C417.426 14.0845 405.76 20.044 396.074 21.1008C386.391 22.1576 390.277 30.2515 382.185 36.1074C374.094 41.9633 360.05 41.0785 360.05 41.0785V2.48661C369.108 0.868253 378.518 0.0518223 388.046 1.83325e-05C388.777 -0.00205383 389.511 -0.00205383 390.244 0.00209049C393.163 0.0269564 396.091 0.138853 399.02 0.333636C406.041 0.797799 413.079 1.75099 420.045 3.17042C420.237 5.06437 420.154 7.05365 419.483 8.78183V8.7839Z" fill="#A8D29F"/>
<path d="M492.735 40.1937C491.989 39.4726 491.229 38.7619 490.465 38.0615V146.023H360.048V2.97156C359.598 3.06688 359.146 3.16634 358.699 3.26788C358.452 3.32382 358.208 3.37977 357.961 3.43365C357.141 3.62429 356.32 3.82321 355.508 4.03043V154.351H495.004V42.4379C494.258 41.6795 493.502 40.9314 492.735 40.1937Z" fill="#B5CFFC"/>
<path d="M507.352 154.351H342.104C342.104 149.809 345.786 146.125 350.329 146.125H499.127C503.668 146.125 507.352 149.807 507.352 154.351Z" fill="#B5CFFC"/>
<path d="M429.455 5.38559V149.811H424.727V4.19824C425.898 4.47384 427.064 4.76187 428.226 5.06233C428.636 5.16801 429.045 5.27576 429.453 5.38559H429.455Z" fill="#B5CFFC"/>
<path d="M319.976 70.8119C319.976 70.8119 311.871 71.4025 308.773 79.2187C305.676 87.0349 300.907 92.8265 303.414 96.3223C305.921 99.8159 308.985 101.921 308.247 103.544C307.51 105.166 302.579 105.177 298.746 109.157C294.913 113.14 287.898 124.636 298.957 126.872C307.406 128.58 301.122 139.214 306.675 143.362C313.779 148.671 338.174 153.918 346.161 147.65C354.148 141.379 351.274 128.762 348.684 124.415C346.095 120.067 354.458 113.882 355.726 111.727C360.887 102.955 344.309 101.892 346.733 96.9543C349.157 92.0163 351.664 87.2504 343.671 82.7248C339.745 80.5034 337.445 67.5607 319.976 70.8161V70.8119Z" fill="#233862"/>
<path d="M407.138 203.629C405.71 218.866 395.474 218.984 357.011 218.542C344.559 218.397 332.814 218.221 322.638 218.002C301.373 217.542 310.706 211.292 312.77 211.733C313.501 211.889 318.283 213.401 324.399 211.541C335.576 208.134 351.682 200.299 358.973 200.678C370.254 201.269 384.895 200.343 384.895 200.343C384.895 200.343 345.119 195.216 343.691 188.432C342.262 181.648 320.881 170.897 325.528 170.041C330.175 169.186 347.176 171.523 347.176 171.523C347.176 171.523 356.58 176.181 367.826 179.71C385.614 185.293 408.223 192.064 407.138 203.629Z" fill="#E8945B"/>
<path d="M334.571 121.174C331.148 122.761 324.421 122.533 321.486 120.164C319.959 118.934 319.273 118.366 320.207 117.222C321.769 116.14 323.419 110.338 321.796 101.119L322.532 101.138L334.938 101.443C334.938 101.443 335.319 105.268 335.922 108.826C336.425 111.791 337.105 114.779 337.838 115.017C339.784 115.838 341.843 117.8 334.571 121.174Z" fill="#FFB27D"/>
<path d="M334.94 101.443C334.94 101.443 335.319 105.266 335.924 108.824C329.178 109.793 324.573 104.279 322.534 101.136L334.94 101.443Z" fill="#E8945B"/>
<path d="M338.74 102.655C338.74 102.655 323.684 108.413 320.243 98.9808C316.802 89.5484 312.542 83.9369 322.008 79.8631C331.476 75.7871 334.667 78.7027 336.581 81.5705C338.495 84.4405 342.567 100.914 338.74 102.655Z" fill="#FFB27D"/>
<path d="M328.822 77.1217C328.822 77.1217 328.7 89.7018 322.93 93.6534C317.16 97.605 313.779 96.9025 313.779 96.9025C313.779 96.9025 317.251 91.2476 315.803 84.109C315.803 84.109 323.777 72.9898 328.822 77.1217Z" fill="#233862"/>
<path d="M328.122 78.3939C328.122 78.3939 332.118 79.7388 333.746 81.8669C335.375 83.995 337.739 85.9407 338.893 88.1269C338.893 88.1269 339.282 79.4652 334.223 76.4855C328.859 73.3254 328.122 78.3939 328.122 78.3939Z" fill="#233862"/>
<path d="M328.832 78.5597C328.832 78.5597 330.092 91.2288 323.411 97.8618C323.411 97.8618 328.851 87.8181 326.752 79.9169C324.652 72.0158 328.832 78.5597 328.832 78.5597Z" fill="#233862"/>
<path d="M333.506 98.6617C333.506 98.6617 338.472 96.5088 338.593 96.3368C338.713 96.1668 338.605 97.2817 338.852 97.8391C339.098 98.3944 337.323 99.2751 336.446 99.675C335.572 100.075 334.267 100.027 333.506 98.6617Z" fill="white"/>
<path d="M335.116 113.907C335.116 113.907 341.8 115.241 351.139 107.338C354.806 104.234 370.395 94.1984 375.027 91.0259C379.66 87.8513 394.601 81.7882 394.601 81.7882L397.417 84.6726C397.417 84.6726 380.289 99.2544 378.663 99.8947C377.037 100.535 361.362 115.086 360.773 116.464C360.183 117.84 353.922 123.403 354.519 130.382C354.869 134.473 335.116 113.907 335.116 113.907Z" fill="#FFB27D"/>
<path d="M321.351 115.1C321.351 115.1 316.076 115.635 311.897 111.105C308.638 107.574 292.644 97.9655 288.01 94.793C283.377 91.6184 264.172 84.9709 264.172 84.9709L262.464 87.6502C262.464 87.6502 282.747 103.022 284.371 103.662C285.998 104.302 298.049 115.691 300.022 119.174C301.882 122.458 307.42 130.496 309.459 134.06C312.624 139.591 321.349 115.1 321.349 115.1H321.351Z" fill="#FFB27D"/>
<path d="M345.044 113.907C345.044 113.907 355.072 129.833 355.66 133.375C356.25 136.914 351.334 153.431 351.137 155.791C350.94 158.151 347.008 171.523 347.008 171.523H317.321C317.321 171.523 315.801 150.031 313.613 144.357C311.423 138.683 306.509 126.961 306.509 126.961L322.366 116.611L345.042 113.909L345.044 113.907Z" fill="#FFB27D"/>
<path d="M431.562 276.074L423.803 277.448C423.084 276.067 422.307 274.689 421.497 273.324C414.859 262.211 405.459 251.744 399.277 243.885C380.946 220.596 404.997 212.349 365.631 213.061C326.265 213.774 310.986 207.077 310.806 195.471C310.735 191.007 317.489 171.523 317.489 171.523H347.176C347.176 171.523 344.174 173.759 345.407 176.523C346.639 179.283 387.773 191.107 393.476 192.858C403.406 195.904 404.529 204.122 412.056 222.32C415.976 231.794 425.228 257.984 429.426 269.955C430.744 273.711 431.564 276.072 431.564 276.072L431.562 276.074Z" fill="#FFB27D"/>
<path d="M266.571 85.9615C266.571 85.9615 261.934 82.7663 259.438 82.3125C256.941 81.8587 254.331 81.4049 254.784 82.3125C255.238 83.2201 258.188 83.2719 257.963 84.3245C257.735 85.3772 248.544 83.8251 249.34 85.9636C250.133 88.1021 255.856 89.6914 257.932 89.6914C260.007 89.6914 265.891 88.6118 265.891 88.6118L266.573 85.9636L266.571 85.9615Z" fill="#FFB27D"/>
<path d="M394.295 82.0119C394.295 82.0119 398.931 78.8167 401.428 78.3629C403.924 77.9091 406.535 77.4553 406.081 78.3629C405.627 79.2705 402.677 79.3223 402.903 80.3749C403.131 81.4276 412.321 79.8755 411.526 82.014C410.732 84.1525 405.01 85.7418 402.934 85.7418C400.858 85.7418 394.974 84.6622 394.974 84.6622L394.292 82.014L394.295 82.0119Z" fill="#FFB27D"/>
<path d="M319.126 114.955C319.126 114.955 327.844 133.567 311.477 138.582L316.132 157.215C316.132 157.215 325.352 164.409 351.009 157.424C351.009 157.424 356.657 140.155 355.66 133.374C354.732 127.054 340.32 113.457 340.32 113.457L338.474 113.67C338.474 113.67 345.552 123.356 345.158 126.107C344.764 128.861 334.354 131.269 327.612 127.042C325.671 125.826 321.026 115.121 321.026 115.121L319.124 114.957L319.126 114.955Z" fill="white"/>
<path d="M347.528 171.048L365.165 178.844C365.165 178.844 363.69 182.885 355.875 183.475C350.014 183.917 341.398 176.832 340.782 173.332L347.528 171.051V171.048Z" fill="#ED7D2B"/>
<path d="M317.489 171.521C317.489 171.521 316.94 170.881 317.363 169.853C317.363 169.853 330.921 175.578 347.601 170.062C347.601 170.062 348.011 170.628 347.176 171.521C347.176 171.521 333.022 177.511 317.489 171.521Z" fill="#ED7D2B"/>
<path d="M442.725 296.443C441.693 298.065 434.466 298.36 433.288 296.443C432.109 294.526 431.075 290.396 428.127 288.333C425.179 286.269 421.64 285.235 422.966 281.992C424.294 278.747 423.803 277.45 423.803 277.45C423.084 276.07 422.307 274.692 421.497 273.326C423.898 272.648 426.985 271.558 429.424 269.959C430.741 273.716 431.562 276.076 431.562 276.076C431.562 276.076 436.826 284.845 437.808 288.975C438.792 293.105 443.756 294.825 442.725 296.447V296.443Z" fill="white"/>
<path d="M332.901 218.2C311.637 217.74 296.239 216.893 296.506 215.962C296.898 214.589 298.073 212.032 304.982 211.441C311.889 210.85 313.068 207.311 316.754 207.164C320.44 207.017 319.998 211.294 322.062 211.735C322.793 211.891 327.374 210.482 333.49 208.621C333.658 211.319 334.435 214.989 332.899 218.2H332.901Z" fill="white"/>
<path d="M317.489 171.521C319.258 171.183 327.073 176.886 345.51 172.018C345.51 172.018 351.207 177.163 354.647 179.345C358.307 181.668 361.239 182.967 361.239 182.967C361.239 182.967 363.186 205.832 328.19 211.928C328.19 211.928 309.527 210.121 309.134 195.177C308.732 179.934 317.489 171.523 317.489 171.523V171.521Z" fill="#F99746"/>
<path d="M429.455 218.524C429.455 218.524 455.126 230.482 457.705 229.309C460.287 228.136 473.418 218.878 473.418 218.878L451.822 215.699L429.455 218.522V218.524Z" fill="#9FC3F7"/>
<path d="M246.081 282.303C246.081 282.303 244.15 285.299 246.081 288.975C246.081 288.975 248.637 288.975 250.591 287.176C250.591 287.176 249.858 282.512 246.081 282.303Z" fill="#9FC3F7"/>
<path d="M457.237 228.928C457.237 228.928 456.064 230.727 456.845 233.698C456.845 233.698 459.504 234.09 460.834 233.151C460.834 233.151 459.586 229.15 457.237 228.928Z" fill="#9FC3F7"/>
<path d="M556.368 297.523H0.631895C0.282909 297.523 0 297.806 0 298.155V298.368C0 298.717 0.282909 299 0.631895 299H556.368C556.717 299 557 298.717 557 298.368V298.155C557 297.806 556.717 297.523 556.368 297.523Z" fill="white"/>
</svg>
