<svg width="576" height="304" viewBox="0 0 576 304" fill="none" xmlns="http://www.w3.org/2000/svg">
<g clip-path="url(#clip0_302_4520)">
<path d="M542.501 303.236C509.578 303.236 29.9906 303.335 29.7139 302.611L29.6695 302.518C29.6695 302.518 29.623 302.429 29.623 302.385C29.4392 302.024 -44.2708 200.26 70.3195 129.416C78.2138 124.537 83.2393 119.949 86.3594 115.534C100.965 94.8677 73.7903 77.9684 103.168 52.5434C144.144 17.0831 188.862 56.3122 234.426 40.232C242.474 37.3923 250.552 32.8254 258.641 25.8136C263.193 21.8738 268.181 18.4238 273.523 15.4468C274.343 14.9907 275.171 14.541 276.003 14.1061C279.202 12.4423 282.518 10.9369 285.934 9.58354C288.228 8.67565 290.565 7.83533 292.945 7.06468C296.724 5.83798 300.603 4.7823 304.568 3.8892C310.196 2.62027 315.99 1.67649 321.901 1.03675C324.478 0.753827 327.078 0.534245 329.696 0.369559C353.543 -1.13373 378.793 2.0312 401.935 8.53419C428.198 15.9134 451.749 27.5913 467.466 41.6255C473.419 46.9419 500.488 74.4509 479.15 112.261C465.679 136.136 522.115 158.935 542.169 186.197C593.159 255.504 542.963 302.336 542.501 303.238V303.236Z" fill="#EBF3FA"/>
<path d="M467.571 212.944C467.271 211.434 468.028 211.079 468.028 211.079C468.028 211.079 483.166 206.299 484.429 205.718C485.694 205.136 495.464 191.992 495.464 191.992C495.464 191.992 499.161 186.577 502.833 187.202C506.024 187.744 507.529 189.987 508.23 192.216C509.064 194.872 508.158 197.769 505.986 199.513C501.111 203.428 491.339 211.164 488.939 212.211C483.596 214.544 468.497 214.945 468.497 214.945C468.497 214.945 467.804 214.13 467.569 212.946L467.571 212.944Z" fill="#98BAF4"/>
<path d="M467.102 210.936C466.344 210.532 464.625 209.652 464.574 209.903C464.538 210.085 464.658 210.368 464.886 210.651C463.885 210.416 462.886 210.304 460.647 211.037C460.199 211.183 459.814 211.497 459.614 211.924C459.426 212.319 459.396 212.783 460.028 213.072C461.291 213.651 460.896 213.258 462.66 214.111C464.422 214.964 466.45 214.981 467.544 214.086L469.107 213.617L468.97 210.965C468.97 210.965 468.045 210.972 467.1 210.936H467.102Z" fill="#ED975D"/>
<path d="M428.181 301.505L368.022 277.604C361.532 275.026 358.364 267.678 360.943 261.192L399.557 164.104C402.136 157.617 409.487 154.448 415.977 157.026L427.268 161.513C427.065 164.627 428.571 167.796 431.499 168.96C434.581 170.184 438.867 170.03 440.606 166.81L475.489 180.669C475.352 181.831 475.542 183.064 476.055 184.134C477.145 186.402 480.115 187.297 482.555 186.6C484.298 189.788 484.661 193.698 483.212 197.341L444.599 294.429C442.019 300.915 434.668 304.083 428.178 301.505H428.181Z" fill="#FFA412"/>
<path d="M449.667 254.269L384.848 228.517C379.647 226.45 377.106 220.559 379.174 215.361L404.23 152.36L427.27 161.515C427.067 164.629 428.574 167.798 431.502 168.962C434.584 170.186 438.87 170.032 440.608 166.812L447.721 169.639C447.394 170.769 447.309 171.983 447.44 173.203C447.846 176.974 450.315 180.792 454.103 182.297C458.562 184.069 463.575 181.094 465.675 176.772L475.489 180.671C475.352 181.833 475.542 183.066 476.055 184.136C477.145 186.404 480.116 187.299 482.555 186.602C482.858 186.516 483.151 186.406 483.43 186.271C484.245 185.878 484.909 185.297 485.397 184.607L487.885 185.595L462.829 248.596C460.761 253.794 454.867 256.334 449.667 254.267V254.269Z" fill="#FFB93E"/>
<path d="M440.701 209.65C436.911 208.145 434.444 204.327 434.038 200.556C433.878 199.066 434.038 197.586 434.569 196.255C435.426 194.098 437.013 192.447 438.933 191.475C438.939 191.473 438.941 191.471 438.946 191.469C441.204 190.327 443.927 190.12 446.464 191.129C451.166 192.998 454.455 198.713 452.586 203.413C450.718 208.111 445.401 211.516 440.701 209.65Z" fill="#FFA412"/>
<path opacity="0.5" d="M439.672 207.564C436.683 206.375 434.641 203.525 434.038 200.556C433.878 199.066 434.038 197.586 434.569 196.255C435.426 194.098 437.013 192.447 438.933 191.475C438.939 191.473 438.941 191.471 438.946 191.469C440.729 190.8 442.757 190.766 444.664 191.524C448.735 193.141 451.582 198.094 449.964 202.163C448.346 206.234 443.741 209.183 439.67 207.566L439.672 207.564Z" fill="#FFB93E"/>
<path d="M465.833 190.658C467.888 189.67 470.394 190.101 472.101 191.361C472.775 191.86 473.324 192.487 473.67 193.209C474.234 194.378 474.312 195.656 473.985 196.815V196.823C473.598 198.185 472.652 199.382 471.275 200.043C468.725 201.27 465.125 200.457 463.9 197.909C462.673 195.36 463.285 191.885 465.833 190.66V190.658Z" fill="#FFA412"/>
<path opacity="0.5" d="M467.082 191.024C468.704 190.244 470.65 190.485 472.101 191.361C472.775 191.86 473.324 192.487 473.67 193.209C474.234 194.378 474.313 195.656 473.985 196.815V196.823C473.584 197.809 472.83 198.656 471.794 199.154C469.587 200.216 466.469 199.511 465.408 197.305C464.346 195.098 464.874 192.088 467.082 191.026V191.024Z" fill="#FFB93E"/>
<path d="M446.578 231.526C445.287 229.028 445.731 225.926 447.227 223.779C447.818 222.93 448.572 222.234 449.451 221.78C450.875 221.045 452.446 220.903 453.887 221.267H453.898C455.592 221.695 457.1 222.82 457.964 224.493C459.565 227.592 458.689 232.053 455.588 233.656C452.489 235.256 448.179 234.625 446.578 231.526Z" fill="#FFA412"/>
<path opacity="0.5" d="M446.986 229.976C445.967 228.006 446.196 225.597 447.226 223.781C447.818 222.932 448.572 222.236 449.451 221.782C450.875 221.047 452.446 220.906 453.887 221.269H453.898C455.129 221.729 456.2 222.628 456.849 223.887C458.234 226.57 457.476 230.436 454.791 231.821C452.106 233.208 448.373 232.662 446.988 229.978L446.986 229.976Z" fill="#FFB93E"/>
<path d="M414.614 221.822C411.965 219.411 411.118 215.509 411.953 212.283C412.284 211.008 412.874 209.84 413.721 208.911C415.094 207.403 416.911 206.536 418.791 206.331H418.803C421.015 206.09 423.316 206.764 425.09 208.377C428.379 211.369 429.311 217.086 426.317 220.374C423.326 223.659 417.899 224.814 414.612 221.822H414.614Z" fill="#FFA412"/>
<path opacity="0.5" d="M414.416 219.789C412.324 217.886 411.53 214.909 411.955 212.283C412.286 211.007 412.876 209.84 413.723 208.911C415.096 207.403 416.913 206.536 418.793 206.331H418.805C420.479 206.331 422.156 206.93 423.491 208.144C426.336 210.735 427.143 215.688 424.553 218.532C421.961 221.378 417.261 222.379 414.416 219.789Z" fill="#FFB93E"/>
<path d="M402.14 203.219C399.994 202.856 398.279 201.137 397.645 199.213C397.396 198.453 397.313 197.662 397.442 196.908C397.649 195.685 398.293 194.647 399.187 193.925L399.193 193.92C400.245 193.072 401.644 192.66 403.082 192.905C405.746 193.357 408.102 195.975 407.65 198.637C407.197 201.299 404.802 203.671 402.14 203.219Z" fill="#FFA412"/>
<path opacity="0.5" d="M401.369 202.245C399.675 201.958 398.291 200.698 397.645 199.214C397.396 198.453 397.313 197.662 397.442 196.908C397.649 195.685 398.293 194.647 399.187 193.925L399.193 193.92C400.049 193.371 401.105 193.129 402.185 193.31C404.491 193.701 406.53 195.968 406.139 198.274C405.748 200.58 403.674 202.634 401.367 202.243L401.369 202.245Z" fill="#FFB93E"/>
<path d="M437.687 242.513C435.933 243.242 433.867 242.771 432.505 241.645C431.966 241.2 431.537 240.653 431.282 240.039C430.866 239.04 430.857 237.974 431.183 237.024V237.017C431.567 235.9 432.408 234.948 433.584 234.461C435.762 233.555 438.72 234.395 439.624 236.57C440.53 238.744 439.863 241.61 437.687 242.513Z" fill="#FFA412"/>
<path opacity="0.5" d="M436.664 242.152C435.28 242.729 433.671 242.439 432.502 241.645C431.964 241.2 431.535 240.653 431.279 240.039C430.863 239.04 430.855 237.974 431.18 237.024V237.017C431.56 236.215 432.226 235.544 433.109 235.176C434.993 234.393 437.555 235.119 438.339 237.003C439.123 238.886 438.546 241.369 436.662 242.152H436.664Z" fill="#FFB93E"/>
<path d="M405.144 171.001C406.179 167.573 409.335 165.128 412.61 164.488C413.903 164.237 415.212 164.266 416.416 164.629C418.37 165.218 419.936 166.481 420.931 168.09L420.937 168.1C422.107 169.99 422.492 172.357 421.799 174.654C420.515 178.908 415.755 182.215 411.499 180.933C407.244 179.652 403.862 175.256 405.144 171.001Z" fill="#FFA412"/>
<path opacity="0.5" d="M406.893 169.944C407.709 167.237 410.053 165.237 412.61 164.488C413.902 164.237 415.212 164.266 416.416 164.629C418.37 165.218 419.936 166.481 420.931 168.09L420.937 168.1C421.657 169.61 421.839 171.381 421.319 173.109C420.208 176.791 416.085 179.656 412.398 178.545C408.712 177.435 405.782 173.628 406.893 169.944Z" fill="#FFB93E"/>
<path d="M507.062 185.014C507.062 185.014 503.266 189.516 498.43 187.632C498.43 187.632 497.391 185.118 497.376 183.264C497.376 183.036 497.372 182.814 497.368 182.605C497.342 180.519 497.271 179.347 497.271 179.347H497.275C497.494 179.255 504.666 176.311 504.66 176.556C504.537 182.2 507.06 185.014 507.06 185.014H507.062Z" fill="#FFB27D"/>
<path d="M503.94 177.903C503.249 179.185 500.877 181.691 497.366 182.605C497.34 180.519 497.269 179.347 497.269 179.347H497.273C497.471 179.293 504.143 177.525 503.938 177.903H503.94Z" fill="#ED975D"/>
<path d="M495.769 179.132C495.769 179.132 503.832 181.028 504.937 175.991C506.039 170.953 507.825 167.805 502.721 166.382C497.619 164.959 496.193 166.663 495.416 168.255C494.639 169.846 493.699 178.511 495.767 179.134L495.769 179.132Z" fill="#FFB27D"/>
<path d="M504.66 177.363C504.77 177.432 505.416 178.583 508.703 172.04C509.219 171.012 510.659 168.174 509.457 166.211C508.255 164.247 504.493 163.122 500.95 162.45C497.408 161.779 498.346 165.345 495.608 165.203C495.154 165.18 495.021 165.419 494.953 165.575C494.362 166.945 495.35 168.782 496.842 168.886C498.139 168.976 499.032 168.603 499.825 168.852C501.098 169.253 501.55 171.261 501.645 171.905C501.741 172.549 501.888 173.083 503.492 172.509C505.095 171.934 504.216 174.778 503.961 175.323C503.961 175.323 503.743 176.772 504.662 177.361L504.66 177.363Z" fill="#233862"/>
<path d="M513.363 303.082H518.351C519.396 303.082 520.558 302.034 520.85 300.119C521.141 298.202 523.29 297.157 523.754 295.588C524.219 294.02 521.836 291.813 521.836 291.813L521.437 291.302L521.023 290.768L517.073 291.697C517.073 291.697 516.975 292.637 516.914 293.834C516.872 294.697 516.849 295.698 516.897 296.574C517.013 298.665 516.312 300.917 514.453 301.323C512.594 301.73 513.363 303.077 513.363 303.077V303.082Z" fill="#202F54"/>
<path d="M491.44 303.082H504.383C504.508 303.056 504.601 303.031 504.658 303.001C505.522 302.569 505.251 299.262 505.148 298.24C505.129 298.05 505.114 297.94 505.114 297.94C505.114 297.94 500.562 294.303 499.936 297.087C499.917 297.174 499.894 297.261 499.869 297.343C499.079 299.95 495.547 301.135 493.506 301.464C491.947 301.718 491.544 302.626 491.438 303.08L491.44 303.082Z" fill="#202F54"/>
<path d="M494.049 228.386C494.049 228.386 494.74 237.007 495.553 247.367C496.658 261.441 497.984 278.731 498.117 282.006C498.343 287.694 499.256 296.792 499.256 296.792C499.256 296.792 501.417 298.954 505.741 298.042C505.741 298.042 509.594 285.055 510.697 271.314C510.714 271.088 510.731 270.862 510.748 270.634C511.772 256.647 513.365 227.191 513.365 227.191L494.051 228.386H494.049Z" fill="#2B478B"/>
<path d="M494.049 228.386C494.049 228.386 494.74 237.007 495.553 247.367L510.695 271.314C510.712 271.088 510.729 270.862 510.746 270.634C511.77 256.647 513.363 227.191 513.363 227.191L494.049 228.386Z" fill="#233862"/>
<path d="M498.356 226.547C498.356 226.547 505.353 255.384 510.695 271.314C516.037 287.244 516.261 294.957 516.261 294.957C516.261 294.957 522.316 293.775 522.97 292.597C522.97 292.597 525.045 265.314 520.928 257.516C518.602 253.11 518.995 242.899 518.995 238.248C518.995 229.632 516.304 221.074 516.304 221.074L498.354 226.549L498.356 226.547Z" fill="#2B478B"/>
<path d="M522.307 240.045C522.39 240.573 496.447 245.484 492.967 241.751C492.9 241.679 492.534 230.913 492.236 222.525C492.101 218.623 491.981 215.236 491.911 213.68C491.894 213.29 491.882 213.015 491.871 212.876C491.858 212.694 491.846 212.515 491.833 212.333C491.622 209.286 491.468 206.284 491.419 203.615C491.379 201.301 491.413 199.234 491.56 197.602C491.588 197.267 491.622 196.954 491.664 196.658C492.192 192.651 494.136 189.835 495.956 187.717L497.461 186.053C499.17 186.203 500.929 185.905 502.598 184.835C504.406 183.676 506.16 184.016 506.525 184.22C509.326 185.859 511.775 188.452 513.293 193.92C514.111 196.863 522.223 239.462 522.307 240.045Z" fill="#B0D0FF"/>
<path d="M499.974 160.858C499.974 160.858 499.14 156.722 502.055 154.091C504.97 151.461 508.906 152.024 511.105 154.442C511.785 155.189 515.661 154.433 517.867 156.779C520.072 159.125 519.686 162.847 518.929 164.553C518.237 166.118 520.558 169.466 517.417 171.983C513.737 174.933 508.118 172.426 508.118 172.426C508.118 172.426 504.261 160.892 499.974 160.856V160.858Z" fill="#739AF0"/>
<path d="M495.215 165.269C495.215 165.269 507.309 166.335 506.654 175.708L511.551 168.751C511.551 168.751 511.192 159.809 499.869 159.687L495.217 165.271L495.215 165.269Z" fill="#AFCDFB"/>
<path d="M507.877 201.046C507.877 201.046 503.999 219.001 492.236 222.525C492.101 218.623 491.981 215.236 491.911 213.68L507.877 201.046Z" fill="#98BAF4"/>
<path d="M471.566 219.62C470.749 219.354 468.905 218.786 468.896 219.041C468.892 219.225 469.061 219.484 469.336 219.723C468.309 219.666 467.306 219.729 465.227 220.84C464.811 221.062 464.488 221.437 464.363 221.891C464.247 222.312 464.3 222.776 464.971 222.951C466.317 223.302 465.859 222.983 467.743 223.517C469.627 224.051 471.626 223.716 472.549 222.645L474.006 221.913L473.411 219.326C473.411 219.326 472.502 219.493 471.564 219.622L471.566 219.62Z" fill="#ED975D"/>
<path d="M472.377 220.939C471.82 219.504 472.504 219.024 472.504 219.024C472.504 219.024 486.582 211.692 487.727 210.9C488.872 210.108 496.21 195.468 496.21 195.468C496.21 195.468 498.91 189.493 502.636 189.472C505.873 189.453 507.746 191.399 508.822 193.473C510.104 195.945 509.715 198.954 507.879 201.048C503.758 205.75 495.477 215.061 493.295 216.51C488.439 219.734 473.639 222.749 473.639 222.749C473.639 222.749 472.815 222.067 472.377 220.939Z" fill="#B0D0FF"/>
<path d="M505.269 181.4C505.269 181.4 507.079 183.146 506.523 184.22C506.523 184.22 502.317 187.478 496.438 187.121C496.438 187.121 497.024 186.144 497.981 185.69C498.938 185.236 504.187 182.973 505.269 181.4Z" fill="#98BAF4"/>
<path d="M325.785 189.664H323.774V254.989H325.785V189.664Z" fill="#AFCDFB"/>
<path d="M368.398 189.664H366.387V273.643H368.398V189.664Z" fill="#AFCDFB"/>
<path d="M297.214 89.7412C297.875 90.932 300.639 89.2493 301.127 88.9853C301.79 88.7278 302.871 88.9093 302.871 88.9093C302.871 88.9093 303.406 86.0928 302.713 86.1371C301.805 86.1941 298.693 84.8576 297.943 85.2145C297.191 85.5734 296.481 88.4638 297.214 89.7412Z" fill="#ED985F"/>
<path d="M333.116 45.3202C333.213 44.9803 346.976 49.0953 347.094 49.6527C348.201 54.8171 347.115 55.9699 345.336 55.0029C344.196 54.3822 340.989 59.156 340.989 59.156L331.51 46.6398L333.114 45.3202H333.116Z" fill="#2C3A64"/>
<path d="M301.995 86.1686L301.537 88.5228C301.537 88.5228 301.684 88.5756 301.951 88.6495C302.785 88.8817 304.802 89.4708 307.126 90.0219C309.663 90.6447 312.581 91.2507 314.731 91.371C315.534 91.4175 316.229 91.3964 316.755 91.2824C319.702 90.6574 325.281 87.5347 329.474 83.9201C329.586 83.8356 329.681 83.7448 329.776 83.6519C331.977 81.7264 333.764 79.6741 334.51 77.7971C334.977 76.6528 335.203 75.6097 335.27 74.6554C335.361 73.397 335.165 72.3097 334.869 71.4356C334.835 71.2962 334.799 71.1611 334.721 71.0302C334.206 69.662 333.492 68.9125 333.492 68.9125C333.114 68.5684 332.554 68.6211 331.867 68.9822L331.861 69.0012C331.303 69.2841 330.629 69.7739 329.915 70.4369C329.888 70.4475 329.865 70.4601 329.858 70.477C329.706 70.61 329.55 70.7621 329.366 70.9289C329.315 70.9521 329.277 71.0006 329.246 71.0302C328.893 71.3828 328.532 71.7544 328.164 72.1471C324.134 76.298 319.055 82.9446 316.246 84.4711C315.728 84.7519 314.585 84.9968 313.159 85.2122C311.248 85.4972 308.829 85.7253 306.731 85.8899C304.101 86.0842 301.989 86.1708 301.989 86.1708L301.995 86.1686Z" fill="#ED985F"/>
<path d="M313.164 85.2101C313.039 86.5424 313.098 89.0486 314.731 91.3711C315.534 91.4175 316.229 91.3964 316.755 91.2824C319.702 90.6575 325.281 87.5348 329.474 83.9201C329.586 83.8356 329.681 83.7449 329.776 83.652C331.977 81.7264 333.764 79.6742 334.51 77.7972C334.977 76.6528 335.203 75.6098 335.271 74.6555C335.361 73.3971 335.165 72.3097 334.869 71.4356C334.835 71.2963 334.8 71.1612 334.721 71.0303C334.206 69.6621 336.274 67.5761 336.274 67.5761C335.896 67.2319 332.554 68.6212 331.867 68.9801L331.861 68.9991C331.303 69.282 330.63 69.7719 329.916 70.4348C329.888 70.4454 329.865 70.4581 329.858 70.475C329.706 70.608 329.55 70.76 329.366 70.9268C329.316 70.95 329.278 70.9986 329.246 71.0281C328.893 71.3807 328.532 71.7523 328.164 72.145C324.134 76.296 319.055 82.9425 316.246 84.4691C315.728 84.7499 314.585 84.9948 313.159 85.2101H313.164Z" fill="#B0D0FF"/>
<path d="M333.836 182.16L336.428 183.124C336.428 183.124 347.69 167.513 349.075 153.779C349.323 151.327 349.24 148.95 348.706 146.756C348.706 146.756 348.816 146.127 349.008 145.016C349.096 144.499 349.206 143.874 349.331 143.158C349.696 141.062 350.201 138.193 350.776 134.926C352.1 127.41 353.818 117.801 355.151 110.736L354.452 110.513L346.893 108.076L345.33 103.117L339.702 101.636C339.702 101.636 338.445 104.094 337.322 115.707C337.115 117.229 336.927 118.91 336.785 120.732C336.348 126.291 336.316 133.189 337.322 141.072C337.579 143.091 337.907 145.175 338.31 147.316C338.606 148.887 338.65 151.025 338.526 153.481C337.957 164.709 333.834 182.157 333.834 182.157L333.836 182.16Z" fill="#F99746"/>
<path d="M336.787 120.734L349.01 145.019C349.099 144.501 349.208 143.876 349.333 143.161C349.698 141.064 350.203 138.195 350.778 134.928C352.102 127.412 353.82 117.803 355.153 110.739L354.454 110.515L346.895 108.078L345.332 103.119L339.704 101.639C339.704 101.639 338.447 104.096 337.324 115.709C337.117 117.231 336.929 118.912 336.787 120.734Z" fill="#ED7D2B"/>
<path d="M342.164 104.753L342.447 102.327C347.187 103.585 359.851 98.8115 359.851 98.8115C359.851 98.8115 364.444 102.846 363.84 112.516C363.546 117.237 363.007 137.295 362.447 143.23C362.245 145.382 362.067 146.913 361.993 147.525C361.993 147.527 361.993 147.529 361.993 147.531C361.97 147.717 362.035 147.894 362.131 148.057C362.957 149.459 363.641 150.918 364.203 152.413C369.714 167.089 363.354 185.164 363.354 185.164L361.704 184.499C361.704 184.499 358.085 164.384 355.145 155.499C354.646 153.992 354.167 152.807 353.729 152.1C352.451 150.037 351.264 146.668 350.187 142.66C348.152 135.083 346.513 125.227 345.423 117.617C345.273 117.624 342.164 104.755 342.164 104.755V104.753Z" fill="#F99746"/>
<path d="M333.107 75.3396C334.594 76.0301 336.392 76.4988 338.566 76.617C346.716 77.0625 348.566 69.924 348.902 65.184C347.728 64.7596 346.699 64.7997 346.105 64.8314C345.526 64.8631 344.924 64.9222 344.426 64.9834C343.429 64.464 341.637 61.9346 340.602 57.7056L340.252 57.8681L334.371 60.6319C334.371 60.6319 334.996 62.5448 335.456 64.3754C335.815 65.8069 336.075 67.1919 335.858 67.5783C335.395 67.7662 335.116 67.8844 335.116 67.8844C335.116 67.8844 335.116 67.8865 335.114 67.8908C335.055 68.0407 333.777 71.2964 333.103 75.3396H333.107Z" fill="#FFB27D"/>
<path d="M331.069 80.6835C331.13 80.8461 331.198 81.0044 331.272 81.1691C333.335 85.6114 334.373 126.631 334.373 126.631C333.828 129.939 360.432 130.326 366.448 125.012C366.448 125.012 364 92.7077 354.602 68.3088L351.902 70.6102C351.454 70.2787 350.882 70.1394 350.926 69.7213C350.945 69.525 350.97 69.3286 351 69.1301C351.317 67.0631 352.181 65.1882 352.181 65.1882C349.994 64.3036 344.428 64.9834 344.428 64.9834L340.254 68.1315L335.862 67.5762C332.374 68.9443 330.448 70.6778 330.448 70.6778C332.55 72.0396 329.444 76.3742 331.069 80.6835Z" fill="#B0D0FF"/>
<path d="M334.373 60.634C334.373 60.634 334.998 62.5448 335.458 64.3774C338.895 63.4189 339.939 59.8084 340.254 57.8723L334.373 60.6361V60.634Z" fill="#ED985F"/>
<path d="M333.019 61.1237C333.019 61.1237 341.458 61.2504 341.456 55.9952C341.454 50.7401 342.542 47.2183 337.153 46.9164C331.764 46.6145 330.718 48.6182 330.292 50.3727C329.865 52.1272 330.822 60.9548 333.019 61.1237Z" fill="#FFB27D"/>
<path d="M330.538 47.4505C331.84 45.8691 332.826 46.2133 333.38 46.6883C337.989 44.1463 340.967 47.8897 340.967 47.8897C341.538 51.6585 344.261 53.8142 344.261 53.8142C344.261 53.8142 342.723 54.7664 339.176 53.8606C338.092 53.584 337.125 52.8155 336.301 51.8844C337.74 54.2871 339.696 56.0163 339.696 56.0163C335.456 54.0654 333.747 48.1811 333.576 47.5582C333.061 48.0206 332.047 49.0277 331.74 50.0116C331.322 51.3502 331.136 54.1055 330.333 54.0126C330.333 54.0126 328.586 49.8258 330.538 47.4526V47.4505Z" fill="#2C3A64"/>
<path d="M353.761 186.509H366.82C366.82 186.509 367.133 184.52 366.45 183.011C365.798 181.562 364.773 180.903 365.018 179.153C364.188 180.006 362.836 180.963 360.947 180.709C360.717 181.085 359.454 183.091 358.681 183.644C357.827 184.256 354.023 184.039 353.759 186.509H353.761Z" fill="#2B478B"/>
<path d="M325.722 186.509H338.781C338.781 186.509 339.269 184.427 338.412 183.01C337.653 181.756 337.943 181.043 338.507 180.006C337.915 180.249 337.151 180.468 336.308 180.42C335.657 180.382 334.968 180.088 334.366 179.738C333.804 180.378 331.398 183.103 330.646 183.644C329.793 184.256 325.988 184.039 325.724 186.509H325.722Z" fill="#2B478B"/>
<path d="M344.795 79.1125C344.711 78.686 344.345 78.3989 343.98 78.4728C343.614 78.5467 343.386 78.9499 343.473 79.3764C343.557 79.8029 343.923 80.0901 344.288 80.0162C344.654 79.9444 344.882 79.539 344.795 79.1125Z" fill="#233862"/>
<path d="M336.798 79.9043C336.713 79.4778 336.348 79.1906 335.982 79.2645C335.617 79.3384 335.389 79.7417 335.475 80.1682C335.56 80.5947 335.925 80.8818 336.291 80.8079C336.656 80.734 336.882 80.3308 336.798 79.9043Z" fill="#233862"/>
<path d="M345.786 88.4658C345.702 88.0393 345.336 87.7521 344.971 87.826C344.606 87.8999 344.379 88.3032 344.464 88.7297C344.548 89.1562 344.914 89.4433 345.279 89.3695C345.645 89.2956 345.873 88.8923 345.786 88.4658Z" fill="#233862"/>
<path d="M337.788 89.2575C337.704 88.831 337.338 88.5439 336.973 88.6178C336.607 88.6917 336.381 89.095 336.466 89.5215C336.55 89.948 336.916 90.2351 337.281 90.1612C337.647 90.0873 337.875 89.684 337.788 89.2575Z" fill="#233862"/>
<path d="M354.498 76.2009C354.498 76.2009 353.558 103.171 333.57 105.013L333.264 99.2485L344.132 90.6067L354.498 76.2009Z" fill="#98BAF4"/>
<path d="M325.059 100.549L325.743 103.06C325.743 103.06 326.605 102.908 327.974 102.654C328.38 102.578 328.608 102.528 328.608 102.528C329.723 102.3 331.043 102.021 332.463 101.692H332.488C334.466 101.21 336.673 100.653 338.65 100.045C339.107 99.918 339.563 99.766 339.994 99.6139C340.298 99.5126 340.577 99.4113 340.856 99.3099L336.696 93.8098C336.392 94.0378 336.063 94.2405 335.733 94.4432C334.035 95.5327 332.106 96.6475 330.357 97.6377C329.267 98.2711 328.226 98.8285 327.364 99.3099C325.969 100.07 325.055 100.551 325.055 100.551L325.059 100.549Z" fill="#FFB27D"/>
<path d="M335.739 94.4305C336.5 97.1035 337.584 98.8749 338.661 100.049C339.119 99.9074 339.567 99.7638 340 99.616C341.627 99.0481 343.04 98.44 344.003 97.8298C344.101 97.7728 344.181 97.7137 344.278 97.6335C346.572 95.9676 349.299 91.065 351.418 85.8099C351.714 85.0835 351.988 84.3594 352.263 83.652C353.243 81.0234 354.029 78.4349 354.498 76.2011C354.794 74.8667 354.99 73.6526 355.028 72.6519C355.047 72.2993 355.068 71.9635 355.047 71.6511C355.009 65.9631 352.185 65.1776 352.185 65.1776C352.126 65.1586 352.067 65.1396 351.988 65.1206C351.496 65.0425 350.987 65.374 350.457 66.0222C349.787 66.8245 349.084 68.1399 348.357 69.7276C347.238 72.257 346.061 75.5318 344.962 78.7875C344.356 80.5737 343.767 82.3578 343.177 84.0046C342.844 85.0054 342.51 85.945 342.195 86.8085C341.587 88.4554 341.037 89.7898 340.547 90.6322C340.233 91.1812 339.331 91.9455 338.133 92.809C337.425 93.3221 336.61 93.8689 335.737 94.4284L335.739 94.4305Z" fill="#B0D0FF"/>
<path d="M338.754 42.1259C338.754 42.1259 338.963 37.9792 342.419 36.1296C345.873 34.28 349.549 35.7686 351.101 38.6358C351.581 39.5226 355.516 39.7189 357.09 42.5186C358.664 45.3182 357.398 48.8315 356.256 50.3011C355.21 51.6502 356.657 55.4485 353.011 57.1355C348.739 59.1118 343.898 55.3409 343.898 55.3409C343.898 55.3409 342.896 43.1858 338.754 42.1259Z" fill="#739AF0"/>
<path d="M333.116 45.3201C333.116 45.3201 344.572 49.2473 341.692 58.1678L348.102 52.6001C348.102 52.6001 349.895 43.8549 338.957 41.0256L333.114 45.3201H333.116Z" fill="#B0D0FF"/>
<path d="M345.182 64.9053C345.182 64.9053 343.91 63.7271 342.808 63.1951C342.808 63.1951 339.874 66.5352 339.874 67.1708C339.874 67.8063 340.547 68.9549 340.547 68.9549C340.547 68.9549 342.804 68.5347 345.182 64.9032V64.9053Z" fill="#8CB8ED"/>
<path d="M335.712 65.4585C335.712 65.4585 334.417 66.6768 334.971 67.7493C334.971 67.7493 339.318 71.1338 345.184 70.777C345.184 70.777 344.599 69.8016 343.644 69.3497C342.69 68.8958 336.789 67.0293 335.712 65.4585Z" fill="#739AF0"/>
<path d="M321.113 7.22285L289.931 69.3602L289.652 69.9134L289.198 70.8213L287.428 74.3514L283.426 82.3218L275.811 97.4962L274.197 100.712L272.562 103.974L267.311 114.44L262.545 123.935L258.117 132.758L256.3 136.377C255.527 136.442 254.748 136.506 253.968 136.569L255.779 132.961L265.49 113.608L270.458 103.708L272.097 100.439L275.19 94.2785L281.601 81.5005L286.156 72.4259L288.237 68.2771L289.16 66.4423L319.326 6.32764L321.113 7.22285Z" fill="#FFD6A1"/>
<path d="M323.711 10.0541C322.864 11.3125 308.782 38.908 292.744 70.4791C291.665 72.6116 290.571 74.761 289.474 76.9209C285.397 84.9525 281.244 93.1404 277.197 101.128C276.645 102.215 276.098 103.296 275.549 104.375C275.426 104.62 275.3 104.867 275.177 105.112C272.604 110.19 270.086 115.158 267.674 119.929C265.46 124.296 263.337 128.497 261.332 132.458C260.705 133.693 260.09 134.907 259.49 136.094C258.713 136.166 257.931 136.237 257.143 136.305C257.597 135.41 258.214 134.187 258.977 132.68C260.111 130.442 261.56 127.575 263.263 124.215C263.586 123.582 263.914 122.932 264.254 122.26C266.852 117.13 269.951 111.013 273.337 104.328C273.377 104.248 273.417 104.172 273.458 104.092C274 103.019 274.552 101.934 275.105 100.836H275.107C276.935 97.2259 278.836 93.4782 280.777 89.6545C283.173 84.9293 285.63 80.0816 288.091 75.2339C288.325 74.7737 288.555 74.3176 288.79 73.8573C289.502 72.4533 290.201 71.083 290.879 69.7402C321.541 9.37848 321.97 8.96888 322.23 8.72607L323.601 10.1787C323.669 10.1132 323.707 10.0583 323.713 10.0541H323.711Z" fill="#FFD6A1"/>
<path d="M293.258 43.7769L292.309 44.9909L250.548 98.3366L247.988 101.607L222.078 134.707L219.337 138.205C218.483 138.22 217.63 138.233 216.772 138.246L219.499 134.758L245.577 101.447L248.144 98.1656L291.684 42.5481L292.894 43.4919L293.258 43.7769Z" fill="#FFD6A1"/>
<path d="M283.253 49.5957L236.53 97.5046L233.304 100.813L200.164 134.795L196.854 138.188C195.939 138.172 195.028 138.15 194.12 138.131L197.413 134.753L230.615 100.71L233.853 97.3885L281.821 48.2043L283.251 49.6L283.253 49.5957Z" fill="#FFD6A1"/>
<path d="M336.496 84.3339L335.547 85.5458L293.786 138.891L291.226 142.162L265.316 175.262L262.574 178.76C261.721 178.775 260.867 178.788 260.01 178.8L262.737 175.312L288.815 142.001L291.382 138.718L334.922 83.1008L336.132 84.0446L336.496 84.3296V84.3339Z" fill="#FFD6A1"/>
<path d="M322.323 98.4591L276.527 147.255L273.365 150.624L240.884 185.234L237.639 188.69C236.724 188.69 235.814 188.688 234.905 188.686L238.133 185.244L270.678 150.57L273.851 147.187L320.865 97.093L322.323 98.4612V98.4591Z" fill="#FFD6A1"/>
<path d="M301.926 20.3939L261.596 123.568L263.458 124.294L303.787 21.1207L301.926 20.3939Z" fill="#FFD6A1"/>
<path d="M270.266 136.571L266.609 139.626C286.336 98.2542 327.596 11.4392 328.411 8.91406L330.338 9.44613C329.685 11.8911 276.153 124.226 270.266 136.571Z" fill="#FFD6A1"/>
<path d="M275.684 143.224L270.777 149.292L332.313 11.8362L334.136 12.6512L275.684 143.224Z" fill="#FFD6A1"/>
<path d="M264.74 133.856L262.862 133.174C277.199 93.7717 304.452 18.5228 304.965 15.7463L306.932 16.1074C306.273 19.7072 266.436 129.198 264.742 133.856H264.74Z" fill="#FFD6A1"/>
<path d="M264.801 140.659L261.964 141.987L319.738 19.6165L321.546 20.4694L264.801 140.659Z" fill="#FFD6A1"/>
<path d="M324.752 100.211C324.752 100.211 323.54 99.654 321.833 99.3479C320.766 99.1557 319.38 98.9826 319.475 99.3479C319.57 99.7131 321.818 100.393 321.884 100.551C321.949 100.71 324.752 100.214 324.752 100.214V100.211Z" fill="#FFB27D"/>
<path d="M317.131 102.735C317.566 103.068 321.045 104.428 322.372 104.012C323.111 103.78 325.686 103.142 326.726 102.889C327.138 102.811 328.621 102.521 328.621 102.521L327.503 99.2656C327.503 99.2656 327.461 99.272 327.366 99.3057C326.941 99.4535 326.121 99.8568 325.05 100.017C323.73 100.214 322.082 99.386 321.225 99.8547C319.41 100.849 316.905 99.842 316.328 100.37C315.893 100.769 316.049 101.905 317.133 102.737L317.131 102.735Z" fill="#FFB27D"/>
<path d="M296.851 86.5257C297.123 85.8838 297.692 84.8197 299.092 84.9717C300.763 85.1512 303.782 86.8846 297.907 90.0622C296.16 91.0081 296.291 87.8453 296.851 86.5257Z" fill="#FFB27D"/>
<path d="M115.716 182.521H86.2981C83.1125 182.521 80.5078 179.915 80.5078 176.731C80.5078 173.547 83.1146 170.944 86.2981 170.944H115.716C118.902 170.944 121.506 173.55 121.506 176.731C121.506 179.915 118.9 182.521 115.716 182.521Z" fill="#6385DB"/>
<path d="M321.379 182.521H291.961C288.775 182.521 286.17 179.915 286.17 176.731C286.17 173.547 288.777 170.944 291.961 170.944H321.379C324.564 170.944 327.169 173.55 327.169 176.731C327.169 179.915 324.562 182.521 321.379 182.521Z" fill="#739AF0"/>
<path d="M301.959 134.094V278.153C301.959 291.585 291.065 302.473 277.626 302.473H133.866C120.427 302.473 109.533 291.585 109.533 278.153V134.094H301.959Z" fill="#6385DB"/>
<path d="M301.959 134.202V278.26C301.959 291.693 291.11 302.581 277.725 302.581H167.4C154.015 302.581 143.164 291.693 143.164 278.26V134.202H301.961H301.959Z" fill="#739AF0"/>
<path d="M302.736 140.234H108.756C106.816 140.234 105.228 138.649 105.228 136.708C105.228 134.77 106.814 133.182 108.756 133.182H302.736C304.676 133.182 306.264 134.768 306.264 136.708C306.264 138.647 304.678 140.234 302.736 140.234Z" fill="#4C79C9"/>
<path d="M291.94 199.097V161.116C291.94 161.116 293.108 148.462 283.936 147.464C274.765 146.465 271.434 151.792 273.099 161.116C274.763 170.439 271.766 222.047 276.096 226.044C280.427 230.039 289.088 230.039 290.755 226.044C292.421 222.05 291.938 199.097 291.938 199.097H291.94Z" fill="#88B3FF"/>
<path d="M255.356 206.873C255.352 206.611 254.87 180.57 254.161 161.124C253.39 139.966 248.729 127.165 241.376 126.002C238.205 125.501 235.408 126.623 233.063 129.338C231.2 131.491 230.706 133.159 230.697 133.185H227.413C228.817 129.255 233.801 121.904 241.826 123.168C253.924 125.081 256.546 147.704 257.031 161.021C257.741 180.492 258.223 206.561 258.227 206.823L255.356 206.875V206.873Z" fill="#FFD6A1"/>
<path d="M219.121 300.375C219.142 301.441 219.277 302.448 219.664 302.847H235.163C234.966 302.288 234.409 301.443 232.816 301.186C231.008 300.894 228.483 298.85 226.838 297.111C226.25 296.494 225.519 296.938 225.329 296.085C224.601 292.839 219.3 297.079 219.3 297.079C219.3 297.079 219.087 298.787 219.121 300.375Z" fill="#182D4F"/>
<path d="M195.455 300.375C195.476 301.441 195.611 302.448 195.998 302.847H211.497C211.3 302.288 210.743 301.443 209.15 301.185C207.342 300.894 204.524 300.022 202.878 298.284C202.291 297.668 201.856 296.937 201.663 296.087C200.935 292.841 195.634 297.081 195.634 297.081C195.634 297.081 195.421 298.789 195.455 300.377V300.375Z" fill="#1A2F51"/>
<path d="M225.321 298.46C223.589 299.013 221.299 298.95 219.195 298.158C217.837 297.647 209.693 277.766 209.201 268.16C209.165 267.461 209.028 266.488 208.812 265.299C208.362 262.82 207.574 259.412 206.668 255.652C204.236 245.579 200.947 232.976 201.019 228.948C201.129 222.696 219.66 227.636 219.66 227.636C219.66 227.636 220.933 232.765 221.189 240.191C221.692 254.928 223.075 279.823 226.838 297.113C226.996 297.845 226.037 298.234 225.319 298.462L225.321 298.46Z" fill="#233862"/>
<path d="M216.305 231.688L203.856 298.855C203.856 298.855 198.506 300.434 194.788 298.855C194.788 298.855 192.624 262.398 192.863 253.273C193.102 244.149 190.806 228.857 193.387 227.172C195.971 225.485 216.307 231.688 216.307 231.688H216.305Z" fill="#2B478B"/>
<path d="M209.526 183.921C209.526 183.921 218.044 185.375 219.987 188.371C222.767 192.655 229.517 206.93 229.631 214.098C229.787 223.751 219.271 226.997 217.985 223.188C216.918 220.025 214.303 200.214 212.404 194.068L209.526 183.923V183.921Z" fill="#CFE5FF"/>
<path d="M223.741 251.638C223.741 251.638 219.799 254.831 211.85 255.553C210.954 255.783 195.692 255.783 189.23 253.564C189.095 253.519 189.568 239.848 190.115 225.747C190.115 225.723 190.115 225.702 190.115 225.681C190.17 224.25 190.227 222.808 190.282 221.38C190.307 220.766 190.328 220.154 190.354 219.541C190.521 215.336 190.687 211.265 190.84 207.695C191.137 200.685 191.376 195.603 191.444 195.202C191.68 193.829 191.902 192.66 192.143 191.648C192.846 188.692 193.721 187.073 195.631 185.679C195.817 185.538 197.342 184.767 198.687 184.1C199.803 183.547 200.793 183.061 200.793 183.061C200.793 183.061 215.483 183.479 216.893 187.162C218.304 190.846 223.735 251.64 223.735 251.64L223.741 251.638Z" fill="#CFE5FF"/>
<path d="M208.248 184.883C207.479 185.033 206.488 185.745 205.55 185.675C203.715 185.542 201.803 184.309 200.183 183.241C201.287 180.604 201.74 178.522 201.902 177.173C201.913 177.101 201.919 177.031 201.925 176.964C201.999 176.265 201.989 175.792 201.953 175.574H207.834C207.834 175.574 209.442 176.309 209.442 176.818C209.442 177.09 209.444 177.35 209.448 177.597C209.461 178.273 209.486 178.864 209.522 179.371C209.634 181.02 209.824 181.797 209.824 181.797C209.824 181.797 210.542 184.43 208.246 184.881L208.248 184.883Z" fill="#FFB27D"/>
<path d="M209.526 179.373C205.069 180.234 202.483 177.8 201.902 177.175C201.82 177.086 201.778 177.033 201.778 177.033C201.824 177.01 201.875 176.989 201.926 176.968C203.584 176.296 207.348 176.831 209.45 177.601C209.463 178.277 209.488 178.868 209.524 179.375L209.526 179.373Z" fill="#E2915A"/>
<path d="M200.447 174.609C201.243 178.893 206.774 178.752 209.163 178.484C209.835 178.41 210.259 178.323 210.259 178.323C211.018 178.121 211.44 176.928 211.637 175.363C212.027 172.268 211.533 167.726 211.011 166.563C210.223 164.815 208.74 162.923 203.172 164.289C197.601 165.655 199.425 169.122 200.447 174.612V174.609Z" fill="#FFB27D"/>
<path d="M211.218 164.175C210.458 163.122 208.844 161.836 207.378 161.042C204.228 159.34 200.197 161.095 200.181 161.103C195.632 163.103 198.4 173.062 199.788 172.602C200.871 172.241 200.157 171.715 200.631 171.29C201.201 170.78 202.004 171.4 202.259 171.88C202.483 172.217 202.885 172.336 203.258 172.099C204.674 171.204 203.755 169.416 205.107 168.32C206.459 167.226 209.205 168.145 211.235 167.273C213.893 166.282 211.793 164.971 211.218 164.177V164.175Z" fill="#233862"/>
<path d="M207.836 175.577C207.836 175.577 208.565 176.242 209.741 176.035C210.438 175.912 210.829 175.007 210.829 175.007C210.829 175.007 209.488 174.766 207.836 175.577Z" fill="#CFE5FF"/>
<path d="M201.778 194.788C201.778 194.365 202.12 194.023 202.54 194.023C202.961 194.023 203.303 194.365 203.303 194.788C203.303 195.21 202.961 195.55 202.54 195.55C202.12 195.55 201.778 195.208 201.778 194.788Z" fill="#233862"/>
<path d="M210.83 194.023C210.83 193.601 211.172 193.261 211.592 193.261C212.013 193.261 212.355 193.603 212.355 194.023C212.355 194.444 212.013 194.788 211.592 194.788C211.172 194.788 210.83 194.446 210.83 194.023Z" fill="#233862"/>
<path d="M202.75 203.867C202.75 203.444 203.092 203.102 203.512 203.102C203.932 203.102 204.275 203.444 204.275 203.867C204.275 204.289 203.932 204.629 203.512 204.629C203.092 204.629 202.75 204.287 202.75 203.867Z" fill="#233862"/>
<path d="M211.801 203.104C211.801 202.682 212.143 202.342 212.564 202.342C212.984 202.342 213.329 202.684 213.329 203.104C213.329 203.525 212.986 203.869 212.564 203.869C212.141 203.869 211.801 203.527 211.801 203.104Z" fill="#233862"/>
<path d="M203.305 212.739C203.305 212.316 203.647 211.974 204.067 211.974C204.488 211.974 204.83 212.316 204.83 212.739C204.83 213.161 204.488 213.501 204.067 213.501C203.647 213.501 203.305 213.159 203.305 212.739Z" fill="#233862"/>
<path d="M212.357 211.974C212.357 211.552 212.699 211.212 213.12 211.212C213.54 211.212 213.882 211.554 213.882 211.974C213.882 212.395 213.54 212.739 213.12 212.739C212.699 212.739 212.357 212.397 212.357 211.974Z" fill="#233862"/>
<path d="M205.62 225.134C205.62 225.134 202.16 227.636 190.119 225.679C190.174 224.248 190.231 222.806 190.286 221.378C190.311 220.764 190.333 220.152 190.358 219.539C190.525 215.333 190.692 211.263 190.844 207.692C192.758 204.589 194.357 202.34 194.357 202.34C194.357 202.34 194.205 210.859 197.792 213.501C207.287 220.494 205.62 225.134 205.62 225.134Z" fill="#AFD1F2"/>
<path d="M206.942 160.299C206.942 160.299 207.716 156.245 204.895 153.701C202.075 151.157 198.269 151.701 196.141 154.041C195.482 154.763 191.733 154.032 189.601 156.302C187.468 158.572 187.842 162.171 188.575 163.82C189.246 165.334 186.999 168.573 190.036 171.008C193.596 173.862 199.031 171.438 199.031 171.438C199.031 171.438 202.798 160.332 206.942 160.299Z" fill="#AFD1F2"/>
<path d="M211.51 164.513C211.51 164.513 199.813 165.543 200.445 174.61L195.708 167.879C195.708 167.879 196.055 159.23 207.01 159.11L211.51 164.511V164.513Z" fill="#CFE5FF"/>
<path d="M219.117 226.709C219.117 226.709 219.33 200.997 220.002 200.997C220.674 200.997 222.56 206.873 222.56 211.495C222.56 217.312 220.285 226.931 219.117 226.709Z" fill="#AFD1F2"/>
<path d="M411.055 302.674H237.539C232.267 302.674 227.442 299.705 225.067 294.999L214.86 274.758H431.909L422.624 295.221C420.565 299.758 416.042 302.672 411.057 302.672L411.055 302.674Z" fill="#E86234"/>
<path d="M323.386 284.799C410.071 284.799 480.343 279.292 480.343 272.499C480.343 265.705 410.071 260.198 323.386 260.198C236.7 260.198 166.428 265.705 166.428 272.499C166.428 279.292 236.7 284.799 323.386 284.799Z" fill="#F77D48"/>
<path d="M432.262 272.023C432.218 272.04 432.173 272.051 432.129 272.064C428.574 273.071 424.317 274.014 419.448 274.893C418.375 275.087 417.268 275.277 416.135 275.461C412.246 276.101 408.017 276.698 403.488 277.247C402.373 277.382 401.24 277.517 400.089 277.646C395.987 278.106 391.665 278.529 387.144 278.911C385.469 279.052 383.766 279.189 382.038 279.318C382.034 279.318 382.032 279.32 382.028 279.32C375.646 279.797 368.914 280.197 361.9 280.507C361.146 280.539 360.39 280.572 359.629 280.602C357.8 280.678 355.947 280.745 354.082 280.809C353.907 280.815 353.733 280.819 353.558 280.826C349.982 280.944 346.342 281.037 342.649 281.109C340.345 281.151 338.019 281.187 335.674 281.212C335.216 281.216 334.755 281.221 334.295 281.225C331.821 281.246 329.324 281.256 326.808 281.256C325.995 281.256 325.186 281.256 324.377 281.252C324.007 281.252 323.639 281.252 323.272 281.248C301.23 281.157 280.71 280.209 263.322 278.636C263.073 278.613 262.824 278.59 262.577 278.564H262.574C259.911 278.322 257.319 278.06 254.811 277.787L254.697 277.775L254.051 277.703C252.04 277.479 250.083 277.247 248.182 277.004C247.861 276.966 247.542 276.924 247.225 276.882C223.832 273.85 209.171 269.498 209.171 264.665C209.171 264.665 208.867 262.689 210.749 260.542C216.548 253.897 233.522 240.699 266.016 239.278C290.603 238.202 308.584 243.436 319.474 248.112C327.625 251.619 331.808 254.814 331.808 254.814C331.831 254.795 331.971 254.691 332.222 254.514C333.494 253.631 337.651 250.914 344.286 248.262C355.432 243.809 373.576 239.54 396.787 244.455C410.668 247.394 419.697 251.48 425.386 255.61C435.931 263.266 435.004 271.075 432.27 272.017L432.262 272.023Z" fill="#FFE6C2"/>
<path d="M376.715 247.202C376.715 247.202 395.222 245.198 408.943 251.697C422.661 258.196 426.508 263.772 425.796 267.813C425.084 271.854 405.068 270.672 405.068 270.672C405.068 270.672 392.358 268.179 391.449 267.813C390.541 267.448 376.715 247.202 376.715 247.202Z" fill="#FFE6C2"/>
<path d="M365.645 276.584C365.272 278.586 363.345 279.838 361.898 280.509C361.144 280.541 360.388 280.574 359.627 280.604C360.827 280.264 364.541 278.362 364.925 276.293C365.075 275.478 364.754 274.551 363.968 273.529C360.168 268.595 348.676 273.594 348.558 273.645L348.342 272.591C348.372 272.579 351.353 271.272 354.785 270.624C359.464 269.743 362.72 270.442 364.462 272.705C365.483 274.025 365.878 275.332 365.645 276.584Z" fill="#EA9678"/>
<path d="M410.835 269.906C410.59 272.066 408.951 274.095 405.962 275.927C405.077 276.47 404.208 276.911 403.488 277.247C402.373 277.382 401.24 277.517 400.089 277.646C403.12 276.373 409.735 272.921 410.098 269.724C410.263 268.267 409.477 266.724 407.766 265.136C403.579 261.253 393.262 258.595 381.474 258.361C367.591 258.084 353.955 261.051 343.063 266.713L342.814 265.677C353.788 259.972 367.521 256.98 381.485 257.261C393.401 257.497 403.875 260.223 408.165 264.207C410.157 266.055 411.055 267.972 410.837 269.906H410.835Z" fill="#EA9678"/>
<path d="M229.586 213.222C229.586 213.222 230.938 224.372 221.814 229.659L219.117 226.711L223.462 215.652L229.584 213.222H229.586Z" fill="#CFE5FF"/>
<path d="M170.407 205.94L172.262 203.628C172.972 202.743 174.44 202.524 175.515 203.14L243.758 242.23C244.124 242.439 244.616 242.369 244.853 242.076L245.271 241.554C246.57 239.937 248.683 238.85 251.065 238.575C253.448 238.301 255.922 238.858 257.853 240.106L283.627 256.752C283.952 256.961 284.032 257.333 283.815 257.603L283.361 258.169C283.122 258.466 282.619 258.532 282.254 258.314L255.649 242.399C254.515 241.666 253.117 241.35 251.714 241.512C251.179 241.573 250.677 241.7 250.214 241.888C249.69 242.099 249.654 242.697 250.151 242.977L280.724 260.291C281.081 260.493 281.183 260.882 280.955 261.167L280.456 261.788C280.226 262.073 279.75 262.147 279.385 261.954L247.787 245.112C247.423 244.918 246.946 244.992 246.716 245.279L246.183 245.942C245.953 246.229 246.057 246.62 246.416 246.82L277.553 264.23C277.913 264.431 278.016 264.824 277.786 265.109L277.317 265.694C277.089 265.979 276.616 266.053 276.252 265.863L244.948 249.438C244.441 249.172 243.794 249.432 243.76 249.911C243.729 250.344 243.786 250.787 243.932 251.227C244.305 252.36 245.212 253.3 246.483 253.872L274.537 267.925C274.921 268.117 275.044 268.525 274.805 268.823L274.52 269.177C274.302 269.448 273.861 269.53 273.502 269.369L244.81 256.454C242.647 255.479 241.042 253.817 240.408 251.89C239.772 249.962 240.157 247.924 241.462 246.297C241.697 246.005 241.583 245.602 241.209 245.408L171.126 208.598C170.023 208.02 169.7 206.818 170.407 205.936V205.94Z" fill="#2B478B"/>
<path d="M199.103 222.21C199.103 222.21 200.863 221.917 201.697 222.39C202.532 222.863 204.612 223.15 204.521 223.631C204.429 224.11 201.828 224.319 201.139 224.083C200.453 223.846 199.103 222.212 199.103 222.212V222.21Z" fill="#FFB27D"/>
<path d="M198.736 222.449C197.924 222.972 197.831 224.121 198.548 224.769C199.69 225.806 201.169 227.132 201.532 227.393C202.145 227.837 205.411 228.202 206.26 227.051C206.26 227.051 203.518 225.871 203.129 224.043C202.715 222.094 199.105 222.21 199.105 222.21L198.738 222.447L198.736 222.449Z" fill="#FFB27D"/>
<path d="M198.609 225.951C198.609 225.951 182.66 222.21 181.124 211.974C179.77 202.95 187.681 189.402 189.76 187.128C192.187 184.474 196.617 183.54 199.061 183.222C199.162 183.209 199.262 183.196 199.357 183.184C200.217 183.082 200.768 183.061 200.8 183.059C200.8 183.059 200.607 183.676 200.286 184.721C200.162 185.126 200.016 185.595 199.857 186.118C198.355 191.036 193.659 202.992 192.147 209.574C191.184 213.762 200.288 222.109 200.521 222.128C200.538 222.128 198.609 225.953 198.609 225.953V225.951Z" fill="#CFE5FF"/>
<path d="M199.135 183.224C199.135 183.224 200.128 181.613 201.133 180.732C201.133 180.732 205.195 183.389 205.381 184.058C205.567 184.727 205.193 186.131 205.193 186.131C205.193 186.131 202.696 186.349 199.135 183.224Z" fill="#AFD1F2"/>
<path d="M217.849 227.056C217.849 227.056 218.193 231.198 219.161 231.612C220.128 232.026 221.945 230.641 222.142 229.779C222.338 228.918 219.919 226.361 218.954 226.293C217.986 226.226 217.849 227.056 217.849 227.056Z" fill="#FFB27D"/>
<path d="M209.788 181.678C209.788 181.678 211.304 182.877 210.945 184.144C210.945 184.144 207.16 188.532 200.808 189.421C200.808 189.421 201.222 188.251 202.145 187.56C203.068 186.868 208.974 183.593 209.788 181.678Z" fill="#BDD8F4"/>
<path d="M342.643 281.109C340.338 281.151 338.012 281.187 335.668 281.212C335.209 281.216 334.749 281.221 334.288 281.225C331.814 281.246 329.318 281.257 326.802 281.257C325.988 281.257 325.179 281.257 324.37 281.252C324.001 281.252 323.633 281.252 323.265 281.248C301.224 281.157 280.704 280.209 263.316 278.636C263.067 278.613 262.817 278.59 262.57 278.565H262.568C259.904 278.322 257.312 278.06 254.805 277.788C254.803 277.794 254.801 277.8 254.798 277.804C254.763 277.796 254.725 277.785 254.691 277.775C254.482 277.716 254.277 277.659 254.076 277.6C251.811 276.941 250.033 276.244 248.797 275.52C248.495 275.345 248.229 275.167 247.992 274.988C247.191 274.38 246.777 273.755 246.777 273.115C246.777 273.115 246.568 271.825 247.874 270.423C249.95 268.185 254.087 264.809 260.701 261.938C266.913 259.241 275.31 256.984 286.236 256.535C288.684 256.433 291.04 256.418 293.3 256.471C293.304 256.471 293.311 256.473 293.315 256.473C306.792 256.807 316.875 259.687 323.346 262.305C329.005 264.596 331.907 266.682 331.907 266.682C331.907 266.682 347.647 276.202 342.645 281.105L342.643 281.109Z" fill="#FFE6C2"/>
<path d="M324.372 281.254C324.002 281.254 323.635 281.254 323.267 281.25C320.929 278.609 317.443 275.005 313.123 271.527C305.58 265.453 293.87 258.526 280.946 260.039C273.838 260.871 264.125 263.498 258.218 271.289C256.366 273.734 255.349 276.096 254.804 277.787C254.802 277.794 254.8 277.8 254.798 277.804C254.762 277.796 254.724 277.785 254.69 277.775L254.044 277.703C254.055 277.669 254.065 277.633 254.076 277.6C254.631 275.818 255.685 273.301 257.669 270.668C261.011 266.232 267.75 260.62 280.885 259.083C294.012 257.546 305.873 264.564 313.514 270.719C318.273 274.553 322.029 278.541 324.374 281.25L324.372 281.254Z" fill="#EA9678"/>
<path d="M335.667 281.212C335.209 281.216 334.748 281.221 334.288 281.225C331.343 278.227 326.97 274.152 321.556 270.218C312.046 263.312 297.29 255.434 280.999 257.155C272.038 258.101 259.796 261.087 252.352 269.948C250.681 271.935 249.553 273.873 248.793 275.522C248.55 276.05 248.343 276.548 248.169 277.006C247.848 276.968 247.529 276.926 247.212 276.884C247.417 276.31 247.673 275.674 247.988 274.99C248.776 273.29 249.94 271.299 251.655 269.247C253.615 266.899 256.501 264.262 260.696 261.94C265.517 259.269 272.063 257.01 280.917 256.076C285.169 255.629 289.316 255.821 293.296 256.475C293.3 256.475 293.306 256.478 293.31 256.478C304.806 258.371 314.891 264.108 322.044 269.306C327.997 273.634 332.71 278.134 335.665 281.214L335.667 281.212Z" fill="#EA9678"/>
<path d="M300.438 275.047C299.21 277.141 295.163 278.271 291.223 278.71C290.564 278.784 289.909 278.835 289.269 278.873C284.791 279.118 278.694 278.583 275.023 276.345L275.291 275.486C278.261 277.295 283.587 278.229 289.193 277.92C294.607 277.623 298.792 276.255 299.857 274.437C300.469 273.394 300.429 271.992 299.751 270.592C297.673 266.308 290.6 263.151 279.474 265.755C274.725 266.865 268.373 269.266 265.067 274.388C263.989 276.058 263.518 277.593 263.316 278.64C263.066 278.617 262.817 278.594 262.57 278.569C262.766 277.42 263.254 275.701 264.454 273.822C267.198 269.509 272.194 266.481 279.305 264.815C291.553 261.948 298.296 265.877 300.351 270.115C301.194 271.854 301.228 273.7 300.438 275.049V275.047Z" fill="#EA9678"/>
<path d="M400.302 270.56C399.768 274.739 391.799 277.591 387.144 278.913C385.468 279.054 383.766 279.192 382.038 279.32C386.242 278.4 399.047 274.441 399.569 270.358C399.702 269.321 399.058 268.202 397.655 267.024C388.789 259.6 345.237 268.838 344.797 268.933L344.689 267.845C344.799 267.822 355.845 265.464 367.859 264.068C384.045 262.187 394.195 262.86 398.027 266.07C399.738 267.503 400.505 269.013 400.308 270.558L400.302 270.56Z" fill="#EA9678"/>
<path d="M354.553 280.794L354.078 280.811C353.902 280.817 353.729 280.821 353.554 280.828C351.669 278.142 339.962 261.688 331.626 255.308L331.8 254.82L331.971 254.332C332.051 254.396 332.133 254.457 332.214 254.52C341.346 261.665 354.426 280.606 354.553 280.794Z" fill="#EA9678"/>
<path d="M425.396 266.73C424.906 270.575 421.319 273.573 419.447 274.893C418.374 275.087 417.267 275.277 416.135 275.461C417.593 274.608 424.15 270.569 424.659 266.527C424.847 265.041 424.403 263.561 423.336 262.125C418.592 255.734 395.572 240.708 367.242 251.463C347.639 258.905 340.651 263.709 340.581 263.755L340.26 262.765C340.329 262.716 347.36 257.877 367.054 250.399C382.245 244.628 395.433 246.537 403.822 249.151C413.699 252.231 420.994 257.48 423.841 261.315C425.111 263.023 425.633 264.843 425.396 266.728V266.73Z" fill="#EA9678"/>
<path d="M274.045 238.531C274.045 238.531 269.125 241.09 273.912 246.805C278.699 252.521 292.611 246.972 298.596 250.118C304.583 253.264 299.728 257.915 306.592 261.982C313.455 266.048 320.067 252.388 326.802 256.273C333.536 260.158 356.507 265.628 356.893 257.795C357.28 249.962 368.214 246.966 372.35 244.616C376.487 242.268 361.532 238.529 354.078 237.566C348.913 236.899 324.066 223.623 309.127 227.505C294.187 231.39 280.982 234.623 274.045 238.529V238.531Z" fill="#C65447"/>
<path d="M318.675 228.988C319.095 225.635 318.244 215.709 317.591 215.103C316.939 214.497 310.962 220.413 310.122 223.513C309.279 226.612 310.449 230.848 312.735 232.972C315.02 235.096 318.25 232.387 318.675 228.988Z" fill="#8FC482"/>
<path d="M340.919 250.587C340.517 249.884 338.152 248.366 337.932 248.471C337.712 248.575 337.721 251.21 338.124 251.911C338.525 252.614 339.478 252.886 340.249 252.521C341.02 252.156 341.32 251.29 340.919 250.587Z" fill="#FFE6C2"/>
<path d="M291.327 240.769C291.961 240.224 292.918 237.741 292.746 237.577C292.575 237.412 289.795 238.14 289.162 238.685C288.528 239.23 288.5 240.136 289.098 240.712C289.696 241.288 290.693 241.314 291.325 240.769H291.327Z" fill="#FFE6C2"/>
<path d="M314.141 248.256C313.277 248.157 310.561 249.064 310.531 249.29C310.499 249.514 312.886 251.005 313.75 251.102C314.614 251.201 315.402 250.644 315.51 249.858C315.618 249.073 315.005 248.355 314.143 248.258L314.141 248.256Z" fill="#FFE6C2"/>
<path d="M308.548 223.133C305.235 221.209 294.303 221.214 294.086 221.957C293.868 222.7 302.371 234.025 305.681 235.949C308.993 237.872 312.415 235.651 313.18 233.046C313.945 230.44 311.86 225.056 308.548 223.133Z" fill="#A8D29F"/>
<path d="M341.426 240.737C342.265 240.528 344.396 238.746 344.331 238.529C344.265 238.311 341.434 237.762 340.596 237.971C339.757 238.18 339.261 238.968 339.491 239.732C339.719 240.497 340.587 240.946 341.426 240.737Z" fill="#FFE6C2"/>
<path d="M329.374 243.246C328.682 242.766 325.832 242.31 325.682 242.49C325.532 242.669 326.774 245.049 327.467 245.528C328.16 246.007 329.148 245.885 329.674 245.256C330.203 244.624 330.067 243.725 329.374 243.246Z" fill="#FFE6C2"/>
<path d="M407.252 302.474H436.381L431.565 292.673H402.436L407.252 302.474Z" fill="#FFE6C2"/>
<path d="M431.966 297.573C433.196 300.069 434.972 302.129 436.109 302.431C436.206 302.459 436.297 302.474 436.383 302.474C437.492 302.474 437.313 300.28 435.982 297.573C434.651 294.869 432.674 292.675 431.565 292.675C431.476 292.675 431.398 292.69 431.328 292.717C430.492 293.023 430.741 295.084 431.966 297.575V297.573Z" fill="#FFE6C2"/>
<path d="M407.252 302.474C406.743 302.474 406.05 302.009 405.319 301.245C405.174 301.093 405.024 300.926 404.878 300.749C404.498 300.299 404.119 299.779 403.756 299.212C403.653 299.049 403.551 298.884 403.452 298.715C403.236 298.35 403.029 297.97 402.837 297.577C402.829 297.558 402.818 297.539 402.81 297.52C402.727 297.351 402.651 297.187 402.579 297.024C402.427 296.684 402.294 296.355 402.182 296.04C402.123 295.871 402.068 295.705 402.02 295.544C401.878 295.077 401.783 294.651 401.741 294.277C401.718 294.098 401.709 293.931 401.711 293.781C401.72 293.091 401.958 292.679 402.438 292.679C402.917 292.679 403.564 293.093 404.248 293.781C404.4 293.933 404.555 294.1 404.707 294.277C405.032 294.651 405.357 295.077 405.674 295.544C405.784 295.705 405.892 295.869 406 296.04C406.196 296.355 406.388 296.686 406.572 297.024C406.659 297.189 406.745 297.354 406.828 297.52C406.838 297.539 406.847 297.558 406.857 297.577C407.049 297.968 407.218 298.35 407.362 298.715C407.43 298.884 407.491 299.051 407.548 299.212C407.744 299.779 407.875 300.301 407.939 300.749C407.964 300.926 407.979 301.091 407.981 301.245C408.006 302.009 407.768 302.474 407.259 302.474H407.252Z" fill="#FFE6C2"/>
<path d="M432.843 297.02V297.516H402.808C402.726 297.347 402.649 297.183 402.578 297.02H432.843Z" fill="#F2B499"/>
<path d="M402.018 295.54H405.67H432.219V296.036H405.993H402.18L402.018 295.54Z" fill="#F2B499"/>
<path d="M431.734 293.775V294.271H401.739C401.716 294.091 401.707 293.925 401.709 293.775H431.734Z" fill="#F2B499"/>
<path d="M433.76 298.711V299.207H403.754C403.651 299.045 403.549 298.88 403.45 298.711H433.76Z" fill="#F2B499"/>
<path d="M434.953 300.747V301.243H405.317C405.172 301.091 405.022 300.924 404.876 300.747H434.953Z" fill="#F2B499"/>
<path d="M431.966 297.573C433.196 300.069 434.972 302.129 436.109 302.431C436.943 302.125 436.694 300.064 435.469 297.573C434.241 295.077 432.465 293.019 431.328 292.715C430.492 293.021 430.741 295.082 431.966 297.573Z" fill="#EA9678"/>
<path d="M131.697 302.444C131.598 302.444 131.496 302.429 131.397 302.393C130.909 302.226 130.647 301.696 130.814 301.209L170.917 183.534C171.084 183.046 171.612 182.785 172.102 182.951C172.59 183.118 172.85 183.648 172.685 184.136L132.582 301.81C132.449 302.199 132.088 302.444 131.699 302.444H131.697Z" fill="#163560"/>
<path d="M76.2576 302.444C76.1583 302.444 76.0569 302.429 75.9555 302.393C75.4676 302.226 75.2077 301.696 75.3725 301.209L115.475 183.534C115.642 183.046 116.173 182.785 116.661 182.951C117.148 183.118 117.41 183.648 117.244 184.136L77.1406 301.81C77.0075 302.199 76.6463 302.444 76.2576 302.444Z" fill="#163560"/>
<path d="M154.934 233.316H100.443C99.9341 233.316 99.5222 232.898 99.5222 232.382C99.5222 231.867 99.9341 231.449 100.443 231.449H154.934C155.443 231.449 155.855 231.867 155.855 232.382C155.855 232.898 155.443 233.316 154.934 233.316Z" fill="#163560"/>
<path d="M144.731 262.59H89.8387C89.3233 262.59 88.905 262.172 88.905 261.657C88.905 261.141 89.3233 260.723 89.8387 260.723H144.731C145.246 260.723 145.665 261.141 145.665 261.657C145.665 262.172 145.246 262.59 144.731 262.59Z" fill="#163560"/>
<path d="M203.206 89.6929C198.734 88.1072 193.026 87.9658 191.625 90.5585C190.398 92.8282 175.431 127.068 172.763 133.183H170.351L190.512 86.6631C190.512 86.6631 194.551 81.1841 204.215 84.7882C213.88 88.3923 207.678 91.2764 203.206 89.6908V89.6929Z" fill="#163560"/>
<path d="M139.655 110.253C137.491 114.377 124.175 127.083 124.897 128.59C125.554 129.959 124.768 143.262 124.437 148.372V148.382C124.356 149.605 124.306 150.354 124.306 150.354C123.868 151.395 122.681 151.847 121.798 152.041C121.211 152.172 120.757 152.189 120.757 152.189C120.757 152.189 120.573 151.511 120.277 150.359C119.726 148.213 118.788 144.419 117.939 140.311C116.61 133.901 115.492 126.72 116.386 123.817C127.449 87.7906 138.795 99.5171 138.795 99.5171C138.795 99.5171 141.818 106.134 139.657 110.258L139.655 110.253Z" fill="#CFE5FF"/>
<path d="M124.436 148.37V148.38C124.356 149.603 124.305 150.352 124.305 150.352C123.868 151.393 122.681 151.845 121.798 152.039C121.297 151.553 120.773 150.992 120.277 150.354C119.726 148.209 118.788 144.415 117.938 140.306C119.109 132.917 123.729 121.912 123.729 121.912L124.436 148.372V148.37Z" fill="#AFD1F2"/>
<path d="M118.898 224.841C118.898 224.841 118.127 231.357 119.381 231.447C119.548 231.46 126.817 231.45 126.817 231.45H134.971C134.971 231.45 134.762 229.471 132.453 229.068C130.144 228.665 126.277 227.043 124.878 223.992C123.406 220.783 118.9 224.839 118.9 224.839L118.898 224.841Z" fill="#C65447"/>
<path d="M118.441 225.291C118.441 225.291 120.843 226.093 122.719 226.093C124.81 226.093 126.714 225.523 126.714 225.523C126.714 225.523 127.166 221.152 129.654 211.518C130.96 206.47 132.823 199.978 135.474 191.912C142.804 169.618 145.033 156.579 145.236 155.343C145.246 155.278 145.251 155.246 145.251 155.246L145.227 155.236L122.692 145.346C122.692 145.346 125.478 176.071 121.923 187.865C121.424 189.514 121 191.433 120.632 193.515C118.389 206.324 118.439 225.291 118.439 225.291H118.441Z" fill="#F99746"/>
<path d="M120.634 193.515L129.654 211.52C130.96 206.472 132.823 199.98 135.474 191.914C142.804 169.62 145.033 156.581 145.236 155.345C145.236 155.31 145.232 155.274 145.227 155.238L122.692 145.348C122.692 145.348 125.478 176.073 121.923 187.867C121.424 189.516 121 191.435 120.632 193.517L120.634 193.515Z" fill="#ED7D2B"/>
<path d="M136.499 224.841C136.499 224.841 136.799 231.357 138.051 231.447C138.218 231.46 144.511 231.42 144.511 231.42L152.53 231.447C152.53 231.447 152.363 229.471 150.052 229.07C147.741 228.667 143.875 227.045 142.477 223.994C141.004 220.785 136.499 224.841 136.499 224.841Z" fill="#C65447"/>
<path d="M149.277 146.072C149.277 146.072 149.571 165.983 146.123 190.428C142.678 214.873 143.846 225.251 143.846 225.251C143.846 225.251 141.478 226.017 140.523 226.095C138.087 226.294 135.592 225.525 135.592 225.525C135.592 225.525 130.66 201.069 132.073 188.834C133.488 176.598 125.317 146.847 125.317 146.847L149.279 146.07L149.277 146.072Z" fill="#F99746"/>
<path d="M132.863 98.6957L136.815 102.165L143.275 101.88C143.261 101.36 143.142 99.1961 143.032 97.2368C143.026 97.1207 143.018 97.0045 143.013 96.8926C142.918 95.2247 142.836 93.791 142.836 93.791L137.325 90.3685L135.269 89.0933C135.269 89.127 135.185 90.9175 135.172 91.1793C134.937 95.8158 132.867 98.6957 132.867 98.6957H132.863Z" fill="#FFB27D"/>
<path d="M150.589 146.934C150.498 157.442 149.796 182.027 149.281 182.527C143.806 187.81 119.717 181.079 118.439 175.258C117.163 169.437 123.294 100.623 132.648 97.8744C134.589 97.3043 143.273 102.817 143.273 102.817C143.273 102.817 146.592 104.914 147.661 110.336C148.056 112.344 149.349 126.678 150.101 136.255C150.299 138.807 150.462 141.022 150.559 142.576C150.597 143.218 150.608 144.782 150.589 146.934Z" fill="#CFE5FF"/>
<path d="M135.597 91.3228C136.579 93.6897 141.123 96.2592 143.031 97.2367C143.024 97.1206 143.016 97.0045 143.012 96.8926C142.917 95.2246 142.834 93.791 142.834 93.791L137.323 90.3685C136.026 90.1679 135.193 90.3474 135.599 91.3207L135.597 91.3228Z" fill="#FCA56B"/>
<path d="M144.87 94.0232C144.87 94.0232 134.895 94.95 134.414 88.7321C133.932 82.5141 132.32 78.4477 138.668 77.5926C145.016 76.7374 146.438 79.0135 147.105 81.051C147.771 83.0863 147.454 93.622 144.87 94.0232Z" fill="#FFB27D"/>
<path d="M145.992 80.9371L142.883 85.7426C141.537 85.1472 140.89 85.4111 140.66 87.5077C140.43 89.6042 136.987 91.8465 135.377 89.6718C135.377 89.6718 129.185 78.7518 130.829 76.8854C133.427 73.9379 139.701 74.7191 144.127 75.1161C148.74 75.5299 149.366 80.5486 145.994 80.9371H145.992Z" fill="#163560"/>
<path d="M150.589 146.934C133.873 130.123 132.935 113.312 132.935 113.312C141.852 118.34 147.154 118.426 149.902 127.562C150.101 130.115 150.464 141.022 150.559 142.576C150.597 143.218 150.608 144.782 150.589 146.934Z" fill="#AFD1F2"/>
<path d="M177.354 114.317C177.354 114.317 178.209 113.283 178.524 112.861C178.938 112.253 180.822 111.598 183.167 111.29C183.167 111.29 184.95 111.514 183.868 113.125C183.146 114.201 183.23 113.568 182.189 115.069C181.147 116.57 179.498 117.466 178.179 117.17L176.68 117.444L175.547 115.099L177.351 114.32L177.354 114.317Z" fill="#FFB27D"/>
<path d="M131.763 103.896C131.763 103.896 119.671 115.038 155.843 130.924C161.364 133.347 178.524 117.953 178.524 117.953C178.524 117.953 178.3 115.112 176.904 113.851C176.904 113.851 159.708 120.175 157.837 120.377C156.176 120.557 146.446 105.287 143.273 101.878C140.1 98.4677 131.763 103.896 131.763 103.896Z" fill="#CFE5FF"/>
<path d="M147.147 75.7833C147.147 75.7833 145.348 91.5361 135.115 91.8993L130.442 85.4259C130.442 85.4259 140.867 81.6845 139.859 73.1208L147.147 75.7833Z" fill="#CFE5FF"/>
<path d="M132.971 68.1949C132.971 68.1949 137.382 66.964 140.478 69.4575C143.575 71.951 143.637 75.9711 141.571 78.5554C140.933 79.3535 142.306 83.1075 140.312 85.6854C138.317 88.2634 134.532 88.4703 132.707 87.9868C131.032 87.5434 128.053 90.398 125.034 87.6617C121.496 84.4545 123.106 78.4414 123.106 78.4414C123.106 78.4414 124.705 68.8516 132.973 68.1949H132.971Z" fill="#739AF0"/>
<path d="M142.445 98.6239C142.323 98.5711 135.305 94.8382 134.486 95.1085C133.668 95.3787 132.648 97.8765 132.648 97.8765L143.935 102.644C143.935 102.644 144.019 99.289 142.445 98.626V98.6239Z" fill="#AFD1F2"/>
<path d="M58.1792 302.518H99.2285L92.439 288.708H51.3918L58.1792 302.518Z" fill="#FFE6C2"/>
<path d="M93.0054 295.612C94.7355 299.129 97.2409 302.032 98.8421 302.459C98.9773 302.497 99.1062 302.518 99.2266 302.518C100.788 302.518 100.536 299.427 98.6626 295.612C96.7867 291.801 94.0004 288.708 92.4393 288.708C92.3146 288.708 92.2048 288.727 92.1055 288.767C90.9268 289.197 91.2795 292.1 93.0054 295.612Z" fill="#FFE6C2"/>
<path d="M58.1796 302.518C57.4614 302.518 56.4854 301.863 55.4545 300.787C55.2496 300.571 55.0384 300.337 54.8314 300.086C54.2969 299.452 53.7625 298.72 53.2512 297.919C53.1076 297.691 52.9618 297.459 52.8224 297.218C52.5182 296.703 52.2267 296.167 51.9563 295.614C51.9436 295.588 51.931 295.561 51.9183 295.533C51.8021 295.297 51.6944 295.065 51.593 294.832C51.3796 294.355 51.1916 293.889 51.0353 293.445C50.9508 293.207 50.8726 292.972 50.805 292.746C50.6043 292.09 50.4734 291.488 50.4121 290.96C50.3804 290.709 50.3677 290.473 50.3699 290.259C50.3804 289.288 50.7163 288.705 51.3944 288.705C52.0725 288.705 52.9809 289.288 53.9441 290.259C54.1575 290.475 54.3751 290.707 54.5905 290.96C55.0468 291.488 55.5095 292.09 55.9531 292.746C56.1073 292.972 56.2594 293.205 56.4094 293.445C56.6882 293.889 56.9565 294.355 57.2163 294.832C57.3389 295.063 57.4593 295.295 57.5754 295.533C57.5902 295.559 57.6029 295.588 57.6156 295.614C57.8881 296.165 58.1247 296.703 58.3275 297.218C58.4225 297.457 58.5092 297.689 58.5873 297.919C58.8641 298.722 59.0478 299.452 59.1387 300.086C59.1746 300.335 59.1957 300.569 59.1999 300.787C59.2337 301.863 58.8979 302.518 58.1796 302.518Z" fill="#FFE6C2"/>
<path d="M94.2389 294.833V295.533H51.9178C51.8017 295.297 51.6939 295.065 51.5925 294.833H94.241H94.2389Z" fill="#F2B499"/>
<path d="M50.8025 292.747H55.9505H93.3622V293.445H56.4068H51.0327L50.8025 292.747Z" fill="#F2B499"/>
<path d="M92.6779 290.261V290.962H50.4097C50.378 290.711 50.3653 290.475 50.3674 290.261H92.6779Z" fill="#F2B499"/>
<path d="M95.5338 297.218V297.919H53.2509C53.1072 297.691 52.9614 297.459 52.822 297.218H95.5317H95.5338Z" fill="#F2B499"/>
<path d="M97.2132 300.085V300.786H55.452C55.2471 300.571 55.0359 300.337 54.8289 300.085H97.2111H97.2132Z" fill="#F2B499"/>
<path d="M93.0054 295.612C94.7355 299.129 97.2409 302.032 98.8421 302.459C100.019 302.028 99.666 299.125 97.9401 295.612C96.2121 292.096 93.7068 289.193 92.1055 288.767C90.9268 289.197 91.2795 292.1 93.0054 295.612Z" fill="#EA9678"/>
<path d="M151.068 301.585C139.143 304.724 129.424 299.106 126.302 287.27L137.644 284.282C139.568 291.585 144.522 291.184 148.077 290.249C155.555 288.279 154.86 282.367 154.216 279.918L165.558 276.93C168.031 286.315 164.552 298.033 151.066 301.585H151.068Z" fill="#FFE6C2"/>
<path d="M144.837 300.651C138.806 300.651 134.578 297.495 131.976 294.609C128.708 290.986 127.276 287.113 127.217 286.951L127.916 286.687C127.931 286.725 129.365 290.601 132.54 294.115C136.769 298.791 141.919 300.647 147.851 299.63C154.163 298.549 158.762 295.244 161.525 289.81C163.817 285.298 164.278 280.239 163.942 277.008L164.681 276.928C165.027 280.268 164.552 285.496 162.184 290.156C159.349 295.734 154.436 299.266 147.974 300.375C146.877 300.563 145.832 300.649 144.834 300.649L144.837 300.651Z" fill="#F2B499"/>
<path d="M145.242 297.947C141.617 297.947 138.123 296.368 134.963 293.266C131.695 290.061 129.963 286.421 129.891 286.269L130.563 285.942C130.58 285.978 132.32 289.626 135.495 292.736C139.707 296.862 144.319 298.139 149.207 296.534C154.607 294.761 158.227 291.083 159.964 285.6C161.267 281.485 160.963 277.84 160.961 277.802L161.702 277.733C161.717 277.887 162.026 281.546 160.682 285.804C159.438 289.753 156.476 294.942 149.437 297.254C148.028 297.717 146.628 297.947 145.244 297.947H145.242Z" fill="#F2B499"/>
<path d="M145.549 293.914C137.737 293.914 133.865 285.937 133.822 285.847L134.494 285.519C134.507 285.545 135.683 287.994 138.011 290.099C141.102 292.89 144.657 293.781 148.58 292.751C158.223 290.217 157.091 279.644 157.078 279.536L157.818 279.445C157.83 279.559 159.034 290.785 148.766 293.484C147.629 293.783 146.556 293.914 145.549 293.914Z" fill="#F2B499"/>
<path d="M137.717 284.261C137.825 284.671 135.358 285.678 132.206 286.507C129.054 287.337 126.409 287.677 126.302 287.268C126.194 286.858 128.661 285.851 131.813 285.021C134.965 284.191 137.61 283.851 137.717 284.261Z" fill="#EA9678"/>
<path d="M165.56 276.928C165.667 277.338 163.2 278.345 160.048 279.175C156.897 280.004 154.252 280.344 154.144 279.935C154.036 279.525 156.504 278.518 159.655 277.688C162.807 276.859 165.452 276.519 165.56 276.928Z" fill="#EA9678"/>
<path d="M451.739 300.975C440.181 296.678 435.473 286.489 439.742 275.015L450.735 279.103C448.101 286.182 452.381 288.705 455.828 289.987C463.078 292.681 465.915 287.449 466.798 285.076L477.792 289.164C474.407 298.259 464.808 305.837 451.739 300.977V300.975Z" fill="#FFE6C2"/>
<path d="M447.182 296.625C442.251 293.154 440.616 288.139 440.15 284.282C439.564 279.438 440.627 275.45 440.671 275.281L441.394 275.467C441.383 275.507 440.323 279.5 440.895 284.202C441.658 290.46 444.799 294.942 450.232 297.524C456.014 300.273 461.68 300.221 467.069 297.366C471.543 294.997 474.834 291.127 476.423 288.294L477.073 288.655C475.432 291.583 472.031 295.586 467.409 298.031C461.878 300.96 455.824 301.019 449.903 298.206C448.899 297.729 447.993 297.197 447.18 296.623L447.182 296.625Z" fill="#F2B499"/>
<path d="M449.071 294.649C446.107 292.563 444.159 289.261 443.365 284.905C442.541 280.403 443.221 276.432 443.251 276.265L443.988 276.383C443.982 276.424 443.302 280.406 444.106 284.776C445.173 290.572 448.207 294.271 453.127 295.774C458.564 297.434 463.642 296.509 468.222 293.027C471.659 290.413 473.512 287.259 473.529 287.227L474.175 287.597C474.097 287.73 472.242 290.899 468.689 293.608C465.396 296.118 459.984 298.658 452.898 296.494C451.481 296.061 450.203 295.443 449.073 294.647L449.071 294.649Z" fill="#F2B499"/>
<path d="M451.648 291.528C445.262 287.031 446.694 278.282 446.711 278.182L447.448 278.301C447.444 278.328 446.994 281.009 447.685 284.069C448.602 288.129 450.995 290.905 454.796 292.32C464.139 295.8 469.306 286.503 469.357 286.408L470.014 286.761C469.959 286.86 464.473 296.731 454.525 293.027C453.422 292.618 452.47 292.109 451.648 291.528Z" fill="#F2B499"/>
<path d="M450.807 279.128C450.659 279.525 448.061 278.928 445.006 277.792C441.952 276.656 439.594 275.412 439.742 275.015C439.89 274.618 442.486 275.216 445.543 276.352C448.597 277.488 450.955 278.731 450.807 279.128Z" fill="#EA9678"/>
<path d="M477.794 289.161C477.646 289.558 475.05 288.961 471.993 287.825C468.938 286.689 466.581 285.445 466.729 285.049C466.877 284.652 469.473 285.249 472.53 286.385C475.586 287.521 477.942 288.765 477.794 289.161Z" fill="#EA9678"/>
<path d="M0.65275 302.474H575.347C575.708 302.474 576 302.765 576 303.126V303.348C576 303.707 575.708 304 575.347 304H0.65275C0.291519 304 0 303.709 0 303.348V303.126C0 302.765 0.291519 302.474 0.65275 302.474Z" fill="#233862"/>
<path d="M371.696 190.483H320.355C319.254 190.483 318.36 189.59 318.36 188.49C318.36 187.39 319.254 186.497 320.355 186.497H371.696C372.796 186.497 373.69 187.39 373.69 188.49C373.69 189.59 372.796 190.483 371.696 190.483Z" fill="#AFCDFB"/>
</g>
<defs>
<clipPath id="clip0_302_4520">
<rect width="576" height="304" fill="white"/>
</clipPath>
</defs>
</svg>
