<svg width="457" height="208" viewBox="0 0 457 208" fill="none" xmlns="http://www.w3.org/2000/svg">
<g clip-path="url(#clip0_309_1097)">
<path d="M206.056 49.3077C204.594 37.4231 200.863 30.2307 197.208 23.2692C200.055 16.5769 200.286 6.34613 195.207 2.19229C188.59 -3.19233 173.624 2.34613 170.124 8.61536C153.465 9.38459 141.116 6.73075 115.455 9.42306C104.836 10.5384 93.1794 11.7307 82.5611 12.7692C56.477 15.3461 44.9739 20.6154 28.0462 23.1538C23.391 17.6923 7.57901 15.2307 2.15445 21.8846C-2.19289 27.1923 0.577098 37.9231 5.03986 43.7692C2.96237 51.0384 1.00029 58.6923 1.92362 70.1538C3.07778 84.2692 4.57819 100.231 6.23249 113.538C7.54054 124.231 10.6183 130.692 12.9266 137.308C9.1179 143.885 8.19457 156.231 13.9654 160.923C20.5826 166.308 35.2789 161.077 39.3954 154.885C55.3613 154.308 67.5185 157.192 93.7949 154.192C106.337 152.769 120.533 151.308 133.113 150.192C159.005 147.885 170.354 142.731 185.705 140C191.014 145.192 206.403 147.346 211.789 140.731C216.252 135.231 213.405 124.192 208.749 118.231C209.634 110.962 211.519 103.885 210.596 92.6538C209.519 79.2692 207.788 63.3461 206.056 49.3077Z" fill="#007393"/>
<path d="M13.4654 50.9614C13.4654 50.9614 0.461802 89.3076 21.7753 132.384C21.7753 132.384 35.7022 84.1922 13.4654 50.9614Z" fill="#FFF3E0"/>
<g style="mix-blend-mode:multiply" opacity="0.54">
<path d="M205.056 43.4232C144.232 88.6925 69.0957 116.077 1.80811 67.1155C1.80811 68.1155 1.88505 69.0771 1.96199 70.1155C3.11616 84.2309 4.61657 100.192 6.27087 113.5C7.57892 124.192 10.6567 130.654 12.965 137.269C9.15627 143.846 8.23294 156.192 14.0038 160.885C20.6209 166.269 35.3173 161.039 39.4338 154.846C55.3997 154.269 67.5569 157.154 93.8333 154.154C106.375 152.731 120.571 151.269 133.152 150.154C159.043 147.846 170.393 142.692 185.743 139.962C191.052 145.154 206.441 147.308 211.827 140.692C216.29 135.192 213.443 124.154 208.788 118.192C209.673 110.923 211.558 103.846 210.634 92.6155C209.557 79.2309 207.826 63.3078 206.095 49.2694C205.825 47.154 205.479 45.2309 205.095 43.3848L205.056 43.4232Z" fill="#99C9CB"/>
</g>
<path d="M280.692 94.3846C280.423 82.4231 277.461 74.8462 274.537 67.5769C278.038 61.2308 279.346 51.0385 274.691 46.4231C268.651 40.3846 253.223 44.3846 249.107 50.2692C232.448 49.3462 220.445 45.4616 194.63 45.5C183.974 45.5 172.24 45.5 161.583 45.5C135.345 45.4231 123.38 49.4616 106.26 50.3077C102.182 44.4231 86.6777 40.3462 80.6375 46.4231C75.7901 51.2692 77.4059 62.2308 81.2916 68.4616C78.5216 75.4616 75.7516 82.9231 75.4823 94.3846C75.1745 108.538 75.0976 124.577 75.3669 138C75.5977 148.769 77.983 155.5 79.5988 162.308C75.136 168.462 72.9431 180.654 78.2138 185.923C84.2539 191.962 99.4119 188.231 104.105 182.5C120.071 183.577 131.882 187.654 158.313 187.346C170.931 187.192 185.205 187.192 197.823 187.346C223.792 187.654 235.642 183.692 251.184 182.577C255.955 188.308 271.036 191.962 277.037 185.962C282.039 180.962 280.308 169.654 276.306 163.269C277.922 156.115 280.538 149.269 280.769 138C281.039 124.577 280.962 108.577 280.654 94.3846H280.692Z" fill="#61C2CB"/>
<path d="M88.9091 76.5C88.9091 76.5 72.0968 113.308 88.9091 158.346C88.9091 158.346 107.645 111.808 88.9091 76.5Z" fill="#FFF3E0"/>
<g style="mix-blend-mode:multiply" opacity="0.35">
<path d="M280.308 88.4232C215.174 127.308 137.653 146.923 75.6747 91.3463C75.5978 92.3463 75.5593 93.3078 75.5209 94.3463C75.2131 108.5 75.1361 124.539 75.4054 137.962C75.6363 148.731 78.0215 155.462 79.6374 162.269C75.1746 168.423 72.9817 180.616 78.2524 185.885C84.2925 191.923 99.4505 188.192 104.144 182.462C120.11 183.539 131.921 187.616 158.351 187.308C170.97 187.154 185.243 187.154 197.862 187.308C223.831 187.616 235.68 183.654 251.223 182.539C255.993 188.269 271.074 191.923 277.076 185.923C282.077 180.923 280.346 169.616 276.345 163.231C277.961 156.077 280.577 149.231 280.808 137.962C281.077 124.539 281 108.539 280.692 94.3463C280.654 92.2309 280.5 90.2694 280.269 88.3848L280.308 88.4232Z" fill="#99C9CB"/>
</g>
</g>
<g clip-path="url(#clip1_309_1097)">
<path d="M312 61.0786L326.548 185.301C326.548 185.301 326.502 185.533 326.502 185.65C326.502 190.769 338.936 194.935 354.266 194.935C369.595 194.935 382.029 190.769 382.029 185.65L396.624 61.0786H312Z" fill="#A7DDE2"/>
<path d="M396.624 61.0784C396.624 67.8038 377.686 73.2493 354.312 73.2493C330.938 73.2493 312 67.8038 312 61.0784C312 54.353 330.938 48.8843 354.312 48.8843C377.686 48.8843 396.624 54.3298 396.624 61.0551V61.0784Z" fill="#A7DDE2"/>
<path d="M354.312 74.1336C333.811 74.1336 312 69.5492 312 61.0784C312 52.6077 333.811 48 354.312 48C374.813 48 396.624 52.5844 396.624 61.0784C396.624 69.5725 374.813 74.1569 354.312 74.1569V74.1336ZM354.312 51.514C333.144 51.5372 318.389 56.5638 318.389 61.0784C318.389 65.5931 333.144 70.6197 354.312 70.6197C375.479 70.6197 390.234 65.5931 390.234 61.0784C390.234 56.5638 375.479 51.5372 354.312 51.5372V51.514Z" fill="#E0F7F9"/>
<path d="M386.327 99.6855C386.327 104.782 371.986 108.901 354.312 108.901C336.638 108.901 322.296 104.782 322.296 99.6855L331.237 176.108C331.237 176.108 331.168 176.295 331.168 176.388C331.168 179.041 341.51 181.205 354.243 181.205C366.975 181.205 377.318 179.064 377.318 176.388C377.318 176.388 377.318 176.341 377.318 176.318L386.304 99.6855H386.327Z" fill="#FFF7EA"/>
<path d="M354.312 90.4468C336.638 90.4468 322.296 94.5658 322.296 99.6622C322.296 104.759 336.638 108.878 354.312 108.878C371.986 108.878 386.327 104.759 386.327 99.6622C386.327 94.5658 371.986 90.4468 354.312 90.4468Z" fill="#FFFDFF"/>
<path d="M456.816 179.017C458.517 192.957 448.543 203.778 426.663 204.639C414.068 205.128 401.404 195.749 401.404 184.463C401.404 173.176 420.021 162.146 432.638 162.146C445.256 162.146 455.46 167.824 456.816 179.017Z" fill="#8C3923"/>
<path d="M454.013 177.528C454.013 188.814 443.785 197.983 431.167 197.983C418.55 197.983 408.322 188.838 408.322 177.528C408.322 166.218 418.55 157.072 431.167 157.072C443.785 157.072 454.013 166.218 454.013 177.528Z" fill="#8C3923"/>
<path d="M424.181 199.263C424.181 199.263 409.977 201.125 407.863 192.003C405.748 182.904 421.515 175.689 421.515 175.689C421.515 175.689 428.409 180.739 433.489 176.9C433.489 176.9 436.867 184.253 429.398 191.002C421.928 197.727 424.732 198.076 424.181 199.263Z" fill="#AB5228"/>
<path d="M443.624 159.214C443.624 159.214 439.533 173.595 425.445 167.475C425.445 167.475 423.055 161.099 418.113 162.076C413.172 163.053 427.697 151.65 443.624 159.214Z" fill="#AB5228"/>
<path d="M446.589 161.191C446.589 161.191 444.612 167.568 440.246 170.104C440.246 170.104 446.451 175.084 447.715 178.063C448.979 181.042 452.794 176.946 453.783 179.064C454.771 181.181 459.988 170.314 446.589 161.191Z" fill="#AB5228"/>
<path d="M454.197 182.601C454.197 182.601 449.968 179.576 446.727 181.601C443.486 183.602 446.015 192.887 447.922 192.887C449.83 192.887 456.311 184.905 454.197 182.625V182.601Z" fill="#AB5228"/>
<path d="M446.451 194.26C446.451 194.26 438.568 201.242 426.731 199.426C426.731 199.426 427.306 194.26 433.488 191.026C439.694 187.768 436.453 178.645 435.741 176.365C435.028 174.084 438.981 172.665 438.981 172.665C438.981 172.665 446.727 177.133 445.738 179.111C444.75 181.089 441.51 187.698 446.451 194.307V194.26Z" fill="#AB5228"/>
<path d="M436.568 170.267C436.568 170.267 434.592 177.505 425.307 175.713C425.307 175.713 426.226 171.338 424.709 169.29C423.192 167.219 428.823 172.618 436.591 170.291L436.568 170.267Z" fill="#AB5228"/>
<path d="M433.328 162.495C432.478 163.425 430.731 163.821 430.317 165.078C429.88 166.497 431.053 166.683 432.34 166.637C433.742 166.59 434.73 166.102 435.029 164.636C435.327 163.123 434.477 162.96 433.466 162.355L433.328 162.495Z" fill="#8C3923"/>
<path d="M448.979 167.475C447.876 168.196 446.52 169.849 446.865 171.175C447.141 172.339 449.508 174.34 450.68 173.758C452.013 173.107 451.484 171.036 451.277 170.012C451.163 169.383 450.036 165.381 449.14 167.475H449.002H448.979Z" fill="#8C3923"/>
<path d="M440.659 176.9C440.016 178.133 438.085 178.459 437.832 179.925C437.649 180.972 439.372 183.16 440.2 182.997C440.843 182.881 443.67 179.553 443.624 178.924C443.578 178.04 440.958 176.714 440.361 177.04L440.636 176.9H440.659Z" fill="#8C3923"/>
<path d="M426.571 181.903C425.675 182.415 423.698 184.626 423.744 185.766C423.813 187.186 425.95 187.418 427.099 186.86C427.904 186.487 427.996 185.813 428.364 185.138C428.593 184.719 429.467 183.741 429.536 183.323C429.811 181.67 427.743 181.484 426.709 181.88H426.571V181.903Z" fill="#8C3923"/>
<path d="M439.257 188.605C438.66 189.001 437.028 190.141 436.729 190.886C436.131 192.398 437.786 192.91 439.027 192.561C440.199 192.259 441.119 190.839 441.257 189.629C441.395 188.256 439.97 187.93 439.004 188.885L439.28 188.605H439.257Z" fill="#8C3923"/>
<g style="mix-blend-mode:multiply" opacity="0.34">
<g style="mix-blend-mode:multiply" opacity="0.34">
<path d="M418.848 160.284C418.848 160.284 416.228 162.099 415.539 162.239C413.148 163.589 409.931 169.872 409.126 171.71C408.299 173.595 407.54 175.736 406.943 177.947V191.328C407.678 192.608 408.391 196.564 409.977 199.077C411.034 200.753 412.895 201.242 413.953 201.847C446.198 182.02 418.871 160.54 418.848 160.284Z" fill="#8C3923"/>
</g>
</g>
<path d="M424.066 184.184C420.388 193.818 412.551 202.847 400.163 206.291C379.984 211.9 366.585 198.076 366.585 186.906C366.585 175.736 382.144 160.866 398.577 158.306C418.756 155.164 428.042 173.758 424.066 184.184Z" fill="#8C3923"/>
<path d="M420.939 179.971C417.262 189.606 406.713 195.377 395.29 199.822C379.777 205.826 365.849 192.654 365.849 181.484C365.849 170.314 379.984 157.073 396.417 154.513C416.596 151.371 424.916 169.546 420.939 179.971Z" fill="#8C3923"/>
<path d="M385.155 156.933C385.155 156.933 374.031 159.935 369.09 171.641C369.09 171.641 374.031 178.482 383.454 180.484C392.9 182.485 394.302 182.206 396.141 176.621C397.98 171.059 390.142 175.457 391.062 164.776C391.475 159.935 385.132 156.933 385.132 156.933H385.155Z" fill="#AB5228"/>
<path d="M366.838 189.606C366.838 189.606 359.943 181.903 368.24 172.618C368.24 172.618 371.48 178.319 377.824 181.112C384.167 183.904 373.181 178.18 366.838 189.606Z" fill="#AB5228"/>
<path d="M389.798 155.35C389.798 155.35 394.303 161.052 392.763 167.475C391.223 173.898 399.566 168.894 397.934 174.689C397.934 174.689 396.9 176.9 397.934 177.481C398.968 178.063 402.209 180.344 404.461 172.618C406.713 164.915 414.757 168.615 415.447 160.075C416.159 151.511 399.267 151.674 389.798 155.374V155.35Z" fill="#AB5228"/>
<path d="M405.725 197.588C405.725 197.588 400.508 195.587 405.725 182.904C405.725 182.904 406.438 179.855 403.404 178.25C403.404 178.25 406.713 168.941 419.538 164.938C419.538 164.938 436.453 176.784 405.725 197.611V197.588Z" fill="#AB5228"/>
<path d="M403.404 198.588C403.404 198.588 392.625 206.71 377.249 199.868C377.249 199.868 377.387 192.305 382.742 188.302C388.097 184.3 384.994 183.02 384.994 183.02C384.994 183.02 393.728 186.394 397.106 178.203C397.106 178.203 399.933 181.624 402.622 181.088C405.311 180.553 398.692 190.443 403.404 198.565V198.588Z" fill="#AB5228"/>
<path d="M375.571 199.263C375.571 199.263 367.389 196.447 367.688 191.328C367.964 186.185 379.8 183.741 382.213 181.624H383.615C383.615 181.624 384.236 186.022 378.26 190.443C374.698 193.073 375.594 199.263 375.594 199.263H375.571Z" fill="#AB5228"/>
<path d="M398.531 163.053C397.888 164.473 398.485 167.614 398.531 169.313C400.554 169.755 401.772 167.172 403.542 166.916C402.117 165.217 402.829 163.891 402.186 162.076C400.875 162.401 399.451 162.634 398.232 163.053H398.508H398.531Z" fill="#8C3923"/>
<path d="M409.954 172.478C410.115 174.666 408.184 175.922 407.862 177.877C408.414 178.133 410.505 179.157 411.103 179.064C412.298 178.878 412.873 176.62 413.332 175.62C413.792 174.642 414.458 173.595 413.47 172.874C412.804 172.385 411.195 172.548 410.413 172.338L410 172.478H409.954Z" fill="#8C3923"/>
<path d="M383.891 165.194C383.569 164.962 382.581 167.521 382.374 168.289C381.823 170.384 383.546 170.43 385.017 169.499C385.776 169.011 387.729 167.009 387.385 165.892C387.017 164.659 384.696 164.612 383.891 165.171V165.194Z" fill="#8C3923"/>
<path d="M373.388 187.348C373.112 187.162 372.262 189.327 372.078 190.001C371.618 191.793 373.089 191.84 374.353 191.049C375.02 190.63 376.674 188.908 376.376 187.977C376.054 186.93 374.077 186.883 373.388 187.372V187.348Z" fill="#8C3923"/>
<path d="M394.279 194.097C393.981 193.911 393.038 195.889 392.854 196.517C392.349 198.146 393.958 198.17 395.314 197.448C396.026 197.076 397.842 195.517 397.52 194.656C397.175 193.702 395.015 193.678 394.256 194.097H394.279Z" fill="#8C3923"/>
<path d="M408.437 184.649C408.138 184.463 407.219 186.441 407.012 187.069C406.507 188.698 408.115 188.721 409.471 188C410.184 187.628 412 186.069 411.678 185.208C411.333 184.253 409.173 184.23 408.414 184.649H408.437Z" fill="#8C3923"/>
<path d="M406.529 158.236C406.231 158.05 405.288 160.028 405.104 160.656C404.599 162.285 406.208 162.308 407.564 161.587C408.276 161.215 410.092 159.655 409.77 158.794C409.425 157.84 407.265 157.817 406.506 158.236H406.529Z" fill="#8C3923"/>
<path d="M388.097 172.897C386.488 173.083 385.454 173.083 385.661 174.712C385.798 175.852 386.212 177.924 387.246 178.04C388.373 178.18 390.395 176.946 390.349 175.783C390.326 174.898 388.97 172.92 388.097 172.897Z" fill="#8C3923"/>
<path d="M369.779 178.296C368.377 178.459 367.458 178.459 367.642 179.878C367.78 180.856 368.125 182.671 369.021 182.764C370.009 182.88 371.779 181.81 371.756 180.809C371.733 180.041 370.538 178.319 369.779 178.296Z" fill="#8C3923"/>
<path d="M396.692 185.184C396.807 186.441 395.359 188.14 395.29 189.652C395.221 191.398 397.842 191.351 398.899 190.234C399.703 189.373 400.117 186.93 399.818 185.766C399.473 184.51 397.037 183.811 396.715 185.045V185.184H396.692Z" fill="#8C3923"/>
<path d="M377.249 168.452C376.33 169.29 374.1 169.127 372.882 169.965C371.457 170.942 373.066 173.06 374.56 173.246C375.732 173.386 377.916 172.269 378.651 171.338C379.456 170.314 378.559 167.917 377.364 168.383L377.249 168.476V168.452Z" fill="#8C3923"/>
<path d="M384.305 191.165C384.305 191.165 384.42 193.818 384.603 194.027C385.132 194.632 387.637 193.841 388.074 193.306C388.855 192.352 388.212 190.35 387.109 189.862C386.028 189.396 385.04 190.327 384.305 191.002V191.142V191.165Z" fill="#8C3923"/>
</g>
<defs>
<clipPath id="clip0_309_1097">
<rect width="281" height="189" fill="white"/>
</clipPath>
<clipPath id="clip1_309_1097">
<rect width="145" height="159.571" fill="white" transform="translate(312 48)"/>
</clipPath>
</defs>
</svg>
