<svg width="511" height="299" viewBox="0 0 511 299" fill="none" xmlns="http://www.w3.org/2000/svg">
<g clip-path="url(#clip0_302_3139)">
<path d="M198.588 248.557C198.184 248.808 197.766 249.038 197.379 249.311C191.546 253.447 185.289 256.792 178.609 259.325C173.182 261.385 167.59 262.865 161.849 263.732C157.7 264.358 153.519 264.68 149.32 264.683C149.166 264.684 149.011 264.622 148.857 264.588C148.261 264.126 148.058 263.497 148.062 262.77C148.078 259.38 148.041 255.992 148.143 252.603C148.174 251.564 148.538 250.738 149.643 250.435C151.693 249.735 153.854 250.054 155.96 249.788C164.41 248.729 172.536 246.631 180.164 242.741C191.172 237.129 200.098 229.17 206.802 218.823C215.49 205.411 219.082 190.67 217.601 174.725C216.362 161.403 211.694 149.375 203.405 138.906C191.942 124.428 177.028 115.705 158.702 113.001C156.494 112.676 154.272 112.433 152.036 112.37C151.242 112.347 150.433 112.335 149.717 111.892C149.213 111.523 148.924 111.003 148.912 110.405C148.817 106.183 148.686 101.958 149.018 97.738C150.232 96.9511 151.445 96.9913 152.65 97.764C154.975 97.979 157.31 98.1243 159.625 98.421C172.776 100.097 184.845 104.669 195.836 112.094C196.363 112.449 196.913 112.767 197.453 113.103C199.326 113.854 201.073 114.766 202.035 116.683C204.931 119.193 207.758 121.776 210.357 124.603C217.384 132.247 222.822 140.883 226.661 150.536C229.012 156.452 230.665 162.559 231.587 168.845C233.076 178.999 232.764 189.112 230.571 199.152C228.411 209.035 224.561 218.216 219.058 226.695C215.129 232.751 210.484 238.213 205.129 243.057C204.538 243.591 203.968 244.149 203.389 244.696C202.411 246.757 200.804 248.031 198.592 248.554L198.588 248.557Z" fill="#367CFF"/>
<path d="M150.082 250.837C149.88 250.901 149.682 250.972 149.478 251.025C149.064 251.133 148.874 251.414 148.836 251.821C148.81 252.084 148.763 252.346 148.763 252.607C148.735 256.079 148.705 259.551 148.699 263.023C148.698 263.546 148.803 264.069 148.855 264.591C147.533 264.821 146.203 264.66 144.884 264.59C131.554 263.881 119.081 260.243 107.499 253.571C105.194 252.243 102.974 250.787 100.792 249.272C100.314 248.94 99.8169 248.632 99.3296 248.314C97.2235 247.608 95.51 246.413 94.457 244.395C94.1617 244.091 93.8834 243.767 93.5693 243.485C84.1558 235.043 77.0108 224.978 72.098 213.329C69.5647 207.322 67.8389 201.076 66.8195 194.643C63.9706 176.693 66.5795 159.569 74.7691 143.347C80.0912 132.803 87.408 123.837 96.557 116.374C96.763 116.206 96.9659 116.034 97.1693 115.864C98.2866 114.099 99.8294 112.9 101.853 112.342C102.172 112.154 102.5 111.979 102.806 111.772C108.373 108.005 114.346 105.029 120.648 102.719C123.338 101.732 126.099 100.966 128.87 100.221C132.012 99.3778 135.211 98.8963 138.413 98.4328C140.561 98.121 142.743 98.043 144.911 97.8581C145.385 97.8174 145.859 97.77 146.333 97.7271C147.284 97.253 148.23 96.8242 149.102 97.8705C149.459 98.2391 149.518 98.6684 149.513 99.181C149.48 102.841 149.5 106.501 149.469 110.16C149.464 110.729 149.57 111.207 149.934 111.63C149.831 111.892 149.624 112.032 149.371 112.119C144.378 112.324 139.418 112.73 134.512 113.807C121.66 116.623 110.522 122.581 101.104 131.759C89.7168 142.858 83.0542 156.372 80.8478 172.071C79.9951 178.145 80.1142 184.247 80.9023 190.369C82.241 200.761 85.7419 210.347 91.5908 218.953C104.682 238.214 122.933 248.611 146.213 250.037C146.903 250.078 147.594 250.068 148.287 250.123C148.866 250.414 149.736 249.977 150.087 250.84L150.082 250.837Z" fill="#367CFF"/>
<path d="M167.127 76.2146C168.056 73.6662 168.971 71.1138 169.916 68.5738C172.123 62.6423 174.345 56.7147 176.562 50.7858C176.656 50.5355 176.755 50.291 176.839 50.038C177.083 49.2922 177.041 49.1536 176.27 48.8368C172.927 47.458 169.578 46.0994 166.23 44.7309C164.901 44.1866 163.572 43.6495 162.249 43.09C161.649 42.8362 161.597 42.6834 161.915 42.128C163.025 40.1898 164.143 38.2546 165.263 36.3235C168.469 30.805 171.678 25.2883 174.889 19.7734C176.494 17.0148 178.108 14.2615 179.718 11.5065C179.826 11.3235 179.935 11.14 180.048 10.9605C180.681 9.95793 180.691 9.93724 181.828 10.4297C187.291 12.7961 192.751 15.1752 198.212 17.5492C199.138 17.9513 200.065 18.3534 200.985 18.7707C201.389 18.9547 201.443 19.1865 201.171 19.5128C200.661 20.1236 200.135 20.726 199.609 21.3261C195.195 26.3668 190.781 31.4074 186.37 36.4477C186.128 36.7259 185.835 36.9724 185.757 37.369C186.095 37.8328 186.646 37.926 187.122 38.1348C189.946 39.3741 192.779 40.5904 195.602 41.8345C197.012 42.4557 197.009 42.4773 195.989 43.645C188.646 52.0553 181.3 60.4682 173.951 68.8748C171.817 71.3162 169.666 73.7423 167.523 76.176C167.406 76.3353 167.273 76.3483 167.125 76.2173L167.127 76.2146Z" fill="white"/>
<path d="M222.446 83.4353C223.966 84.2536 225.18 85.4589 226.379 86.6602C229.933 90.224 232.467 94.4255 234.098 99.1871C236.432 106.001 236.712 112.939 235.417 119.979C234.799 123.344 233.807 126.594 232.47 129.742C232.304 130.131 232.103 130.506 231.888 130.872C231.81 131.005 231.64 131.074 231.469 130.981C231.33 130.904 231.191 130.827 231.062 130.732C225.744 126.827 220.427 122.917 215.107 119.013C212.191 116.872 209.27 114.735 206.346 112.603C206.047 112.385 205.715 112.217 205.395 112.025C204.032 111.986 203.233 111.252 202.883 109.968C203.436 108.571 204.41 107.429 205.284 106.249C210.58 99.092 215.753 91.8459 221.077 84.7093C221.458 84.1994 221.786 83.6422 222.444 83.4357L222.446 83.4353Z" fill="#C6C6C6"/>
<path d="M94.1311 111.363C92.8239 112.265 91.5019 113.151 90.2087 114.076C83.0412 119.206 75.8827 124.346 68.7193 129.484C67.461 130.386 67.4305 130.385 66.8664 128.991C65.6096 125.881 64.562 122.699 63.995 119.39C62.6358 111.474 63.1067 103.722 66.2798 96.2458C68.3541 91.3573 71.45 87.2346 75.5407 83.8596C76.0699 83.4225 76.5725 82.9346 77.2464 82.7039C77.8898 82.804 78.2333 83.2875 78.575 83.762C84.2765 91.6902 89.9351 99.6482 95.6325 107.58C96.0658 108.183 96.4807 108.81 96.4367 109.613C96.0648 110.719 95.3963 111.435 94.1334 111.363L94.1311 111.363Z" fill="#F4F2EB"/>
<path d="M96.1697 109.677C95.8082 108.842 95.2794 108.114 94.7493 107.379C93.1358 105.141 91.5586 102.875 89.9549 100.628C89.0303 99.3306 88.0747 98.0539 87.1501 96.7569C85.4847 94.4244 83.8372 92.0765 82.17 89.7467C81.1814 88.3647 80.1761 86.993 79.1593 85.6331C78.4598 84.6966 77.8081 83.7316 77.2446 82.7067C79.014 81.2226 81.058 80.2151 83.1602 79.3219C89.5192 76.6244 96.1161 76.1814 102.851 77.4129C109.558 78.6409 115.59 81.4286 121.035 85.5109C122.054 86.2748 123.036 87.0954 124.016 87.9093C124.373 88.2056 124.679 88.5636 124.973 88.8588C124.834 89.3566 124.463 89.5068 124.17 89.7184C117.652 94.3938 111.13 99.0608 104.608 103.732C102.837 105.002 101.074 106.277 99.3124 107.558C99.1031 107.711 98.9268 107.91 98.7346 108.09C98.2502 109.216 97.5439 109.986 96.1697 109.677Z" fill="#C6C6C6"/>
<path d="M222.446 83.4354C222.096 84.3967 221.501 85.2209 220.84 85.9746C220.384 86.495 219.964 87.0337 219.584 87.6086C218.067 89.9077 216.395 92.0889 214.68 94.2415C214.613 94.3252 214.549 94.4085 214.495 94.5011C213.231 96.6553 211.667 98.6068 210.139 100.558C208.702 102.392 207.596 104.46 206 106.18C205.396 106.833 204.966 107.652 204.482 108.414C204.077 109.05 203.608 109.613 202.971 110.023C201.817 110.244 201.128 109.728 200.8 108.644C200.436 108.335 200.091 108.003 199.707 107.722C193.87 103.446 188.028 99.1786 182.187 94.906C179.955 93.2729 177.728 91.6317 175.499 89.991C175.285 89.8338 175.077 89.6684 174.888 89.4851C174.71 89.3111 174.72 89.0965 174.89 88.924C175.148 88.6588 175.421 88.4047 175.703 88.1627C180.279 84.2476 185.383 81.2686 191.123 79.3887C196.927 77.4862 202.838 76.8257 208.894 77.7894C213.475 78.5162 217.718 80.1365 221.566 82.7505C221.873 82.959 222.149 83.2062 222.441 83.4363L222.446 83.4354Z" fill="#F4F2EB"/>
<path d="M144.735 68.1567C144.259 66.3735 143.802 64.7921 143.415 63.1916C142.367 58.8508 141.347 54.5017 140.321 50.1541C139.915 48.4361 139.918 48.4285 138.239 48.7754C135.48 49.3446 132.724 49.9251 129.969 50.4984C129.552 50.5833 129.135 50.6682 128.716 50.7281C128.325 50.7819 128.127 50.6121 128.098 50.1952C127.918 47.6511 127.747 45.1074 127.572 42.5623C127.379 39.7521 127.185 36.9445 126.995 34.1338C126.785 31.0072 126.574 27.8784 126.375 24.7495C126.33 24.037 126.415 23.9169 127.118 23.769C128.469 23.4865 129.82 23.1784 131.186 22.9887C134.295 22.5583 137.353 21.8673 140.435 21.3045C140.948 21.2116 141.453 21.0339 141.977 21.1165C142.226 21.6892 142.039 22.2109 141.976 22.7282C141.44 27.1607 140.894 31.5928 140.351 36.0245C140.299 36.4461 140.238 36.8673 140.206 37.292C140.162 37.8451 140.298 38.0111 140.797 37.9515C141.692 37.8438 142.59 37.7262 143.477 37.5688C144.941 37.3101 146.397 37.0016 147.862 36.738C148.637 36.5989 148.795 36.7581 148.701 37.5901C148.495 39.3861 148.266 41.1776 148.043 42.9723C147.072 50.8335 146.098 58.6928 145.124 66.5522C145.067 67.0169 145.093 67.4998 144.734 68.1523L144.735 68.1567Z" fill="white"/>
<path d="M30.9125 198.638C30.3631 195.359 29.7366 191.266 29.4121 187.121C28.4986 175.382 29.6715 163.861 32.8634 152.539C34.9795 145.029 37.9799 137.885 41.7757 131.071C41.9824 130.7 42.1903 130.323 42.4459 129.986C43.2093 128.98 44.4163 128.732 45.4078 129.35C46.3221 129.92 46.6754 131.081 46.2244 132.154C46.0387 132.594 45.7919 133.008 45.5594 133.425C41.1326 141.378 37.8972 149.785 35.8761 158.666C34.0737 166.594 33.3276 174.622 33.58 182.74C33.682 186.034 33.987 189.316 34.4435 192.586C34.8051 195.173 35.2262 197.743 35.8001 200.284C36.8707 205.01 38.2714 209.639 40.0188 214.159C40.0772 214.309 40.1612 214.446 40.2129 214.596C40.7471 216.164 39.8412 217.524 38.1961 217.637C37.2919 217.7 36.6611 217.261 36.2408 216.515C35.9812 216.054 35.79 215.551 35.6047 215.054C33.8804 210.464 32.1451 204.548 30.9111 198.632L30.9125 198.638Z" fill="white"/>
<path d="M264.471 166.971C265.374 171.839 266.029 176.734 266.301 181.686C266.734 189.59 266.231 197.428 264.768 205.198C262.924 214.996 259.688 224.314 255.034 233.133C253.418 236.198 251.637 239.16 249.713 242.035C249.477 242.389 249.253 242.755 248.978 243.077C248.224 243.959 247.039 244.131 246.107 243.52C245.168 242.905 244.84 241.744 245.344 240.714C245.507 240.381 245.727 240.075 245.933 239.767C249.934 233.766 253.248 227.408 255.813 220.666C259.767 210.27 261.851 199.508 262.007 188.381C262.058 184.816 261.886 181.261 261.554 177.707C261.13 173.192 260.379 168.737 259.338 164.331C258.96 162.727 258.481 161.145 258.054 159.553C257.958 159.194 257.849 158.833 257.8 158.465C257.641 157.308 258.289 156.319 259.373 156.019C260.312 155.76 261.429 156.293 261.883 157.261C262.106 157.741 262.309 158.244 262.433 158.758C263.081 161.504 264.007 164.179 264.471 166.971Z" fill="white"/>
<path d="M248.61 173.305C250.374 183.451 250.18 194.116 247.859 204.746C246.157 212.548 243.337 219.922 239.521 226.922C239.24 227.435 238.953 227.951 238.608 228.419C238.018 229.211 237.037 229.414 236.192 228.974C235.291 228.504 234.908 227.507 235.34 226.522C235.678 225.746 236.124 225.015 236.527 224.265C242.992 212.196 246.089 199.312 245.872 185.618C245.79 180.548 245.209 175.542 244.127 170.589C244.025 170.122 243.898 169.65 243.877 169.178C243.816 167.908 244.678 167.053 245.944 167.082C246.647 167.098 247.167 167.431 247.45 168.072C247.597 168.408 247.68 168.779 247.759 169.141C248.012 170.339 248.252 171.54 248.612 173.305L248.61 173.305Z" fill="white"/>
<path d="M47.5743 196.394C44.5717 181.845 45.3966 167.976 49.7012 154.295C50.7404 150.991 52.0248 147.779 53.4793 144.636C53.5909 144.393 53.6999 144.149 53.8407 143.924C54.3683 143.067 55.4604 142.69 56.325 143.051C57.1689 143.402 57.6354 144.489 57.3312 145.481C57.2058 145.885 57.0087 146.268 56.8308 146.655C53.3443 154.265 51.1026 162.224 50.1622 170.546C49.6116 175.423 49.5327 180.301 49.8713 185.203C50.2327 190.433 51.2793 195.533 52.5073 200.608C52.721 201.485 53.091 202.328 53.2684 203.209C53.5216 204.452 52.7088 205.421 51.4603 205.5C50.6149 205.553 49.9344 205.134 49.6203 204.268C49.2944 203.368 48.9918 202.455 48.7609 201.528C48.2999 199.668 47.8945 197.793 47.573 196.399L47.5743 196.394Z" fill="white"/>
<path d="M146.363 88.7054C145.2 88.6762 144.034 88.657 142.87 88.6161C141.221 88.5599 139.888 87.8904 139.014 86.464C137.21 83.5243 139.263 79.7565 142.729 79.6574C144.105 79.6176 145.484 79.6752 146.86 79.6844C149.879 79.7066 152.899 79.7217 155.917 79.7512C156.338 79.7542 156.767 79.7765 157.179 79.863C159.146 80.2772 160.833 82.0028 160.636 84.7125C160.48 86.8651 158.557 88.593 156.353 88.664C155.085 88.7052 153.817 88.723 152.546 88.753C150.478 89.63 148.413 89.7777 146.36 88.7036L146.363 88.7054Z" fill="#367CFF"/>
<path d="M217.158 257.415C217.348 258.453 217.619 259.472 217.431 260.557C217.046 262.796 215.356 264.628 213.141 265.147C211.992 265.416 210.868 265.491 209.702 265.129C207.392 264.408 205.475 261.606 205.735 259.563C205.755 259.41 205.711 259.248 205.697 259.09C205.754 258.833 205.806 258.572 205.874 258.318C206.01 257.807 205.835 257.406 205.503 257.016C204.242 255.523 202.991 254.022 201.754 252.508C200.685 251.201 199.64 249.875 198.583 248.556C200.182 247.27 201.78 245.984 203.38 244.698C205.603 247.384 207.837 250.061 210.038 252.765C210.542 253.384 211.06 253.655 211.9 253.68C213.928 253.74 215.516 254.72 216.618 256.441C216.817 256.751 216.976 257.087 217.154 257.411L217.158 257.415Z" fill="#2B2B37"/>
<path d="M94.4549 244.395C96.0791 245.702 97.7033 247.008 99.3275 248.314C97.1363 250.912 94.9623 253.525 92.7406 256.098C92.2138 256.708 92.0209 257.261 92.1259 258.097C92.4382 260.591 91.4913 262.584 89.3401 263.913C86.5774 265.618 82.9517 264.703 81.2702 261.926C79.5929 259.156 80.477 255.538 83.2631 253.845C84.135 253.314 85.0763 252.884 86.117 252.999C86.9881 253.095 87.4784 252.684 87.9859 252.072C90.1206 249.495 92.2927 246.952 94.4526 244.396L94.4549 244.395Z" fill="#2B2B37"/>
<path d="M146.363 88.7053C148.425 88.7219 150.488 88.7381 152.55 88.7547C152.564 91.286 152.574 93.8181 152.593 96.3507C152.596 96.8242 152.629 97.2962 152.649 97.771C151.472 98.0062 150.281 97.7281 149.101 97.8659C148.186 97.6483 147.242 98.0322 146.332 97.7225C146.343 94.7168 146.353 91.7133 146.364 88.7076L146.363 88.7053Z" fill="#2B2B37"/>
<path d="M200.804 108.643C201.528 109.102 202.252 109.562 202.975 110.022C203.781 110.689 204.587 111.356 205.395 112.023C204.225 113.542 203.006 115.026 202.033 116.686C200.511 115.483 198.824 114.497 197.451 113.105C198.569 111.618 199.687 110.132 200.804 108.643Z" fill="#2C2B37"/>
<path d="M96.1697 109.677C96.596 109.411 97.025 109.146 97.4504 108.874C97.874 108.606 98.2208 108.213 98.7342 108.087C99.7719 109.504 100.812 110.922 101.85 112.338C100.345 113.589 98.7959 114.778 97.1666 115.862C96.7446 114.902 96.0103 114.15 95.4402 113.287C95.0117 112.639 94.5672 112.003 94.1306 111.361C94.8096 110.8 95.4903 110.236 96.1715 109.675L96.1697 109.677Z" fill="#2C2B37"/>
<path d="M167.127 76.2146C167.259 76.2016 167.392 76.1863 167.524 76.1733C167.485 76.2654 167.462 76.3705 167.403 76.4502C167.315 76.5663 167.187 76.7278 167.039 76.5969C166.905 76.477 166.992 76.3215 167.127 76.2169L167.127 76.2146Z" fill="#405C61"/>
<path d="M150.082 250.836C149.799 250.663 149.49 250.716 149.186 250.734C148.879 250.75 148.572 250.78 148.289 250.615C148.1 248.246 147.982 245.881 148.473 243.527C151.219 242.668 151.444 240.541 151.355 238.104C151.277 235.932 151.268 233.748 151.37 231.571C151.451 229.852 150.992 228.528 149.172 227.997C148.864 227.908 148.634 227.661 148.48 227.363C148.049 224.564 148.278 221.747 148.28 218.939C148.288 209.903 148.392 200.867 148.385 191.832C148.384 191.138 148.423 190.45 148.491 189.764C148.768 188.57 149.582 188.785 150.352 189.118C151.718 189.709 153.035 190.412 154.466 190.851C155.079 191.039 155.695 191.222 156.337 191.215C157.583 191.202 158.071 190.53 157.675 189.331C157.321 188.256 156.621 187.366 155.998 186.44C154.851 184.735 154.87 184.246 156.477 182.986C160.244 180.035 164.134 177.243 167.677 174.01C171.451 170.568 175.332 167.243 178.76 163.445C179.244 162.91 180.271 162.294 179.614 161.487C179.076 160.826 178.219 161.568 177.595 161.861C173.642 163.722 169.998 166.132 166.271 168.396C161.035 171.577 156.134 175.234 151.264 178.938C150.924 179.197 150.593 179.472 150.2 179.636C149.401 179.967 148.729 179.964 148.495 178.921C148.524 164.318 148.586 149.717 148.695 135.118C148.896 134.696 149.282 134.505 149.698 134.42C151.37 134.08 151.856 132.927 151.867 131.391C151.884 128.43 151.88 125.469 151.888 122.509C151.892 120.48 151.611 120.173 149.593 119.48C149.189 119.34 148.776 119.226 148.645 118.741C148.845 117.103 148.784 115.455 148.799 113.81C148.807 113.079 148.699 112.3 149.333 111.723C149.529 111.692 149.728 111.661 149.925 111.63C151.513 111.729 153.104 111.806 154.692 111.927C178.789 113.767 201.22 128.528 212.187 152.089C215.266 158.704 217.227 165.657 218.065 172.895C221.564 203.043 205.915 229.521 182.145 242.398C175.499 245.999 168.452 248.423 161.003 249.713C157.803 250.267 154.585 250.619 151.339 250.697C150.916 250.706 150.497 250.789 150.075 250.838L150.082 250.836Z" fill="#F1F1F1"/>
<path d="M148.533 243.687C148.929 244.3 148.816 245.005 148.832 245.668C148.861 247.021 148.782 248.376 148.785 249.732C148.787 250.152 148.655 250.434 148.289 250.618C146.588 250.808 144.899 250.592 143.209 250.453C119.098 248.477 97.1067 233.744 86.2232 210.74C83.5469 205.084 81.651 199.16 80.625 192.981C75.5293 162.29 90.5675 134.428 114.77 120.664C119.265 118.108 123.982 116.077 128.938 114.579C133.488 113.203 138.125 112.304 142.851 111.871C144.912 111.682 146.988 111.68 149.058 111.601C149.151 111.599 149.247 111.68 149.342 111.723C149.565 113.231 149.38 114.749 149.455 116.262C149.475 116.678 149.478 117.098 149.48 117.516C149.48 118.076 149.319 118.548 148.764 118.801C146.6 120.522 146.815 122.94 146.842 125.317C146.864 127.176 146.931 129.04 146.843 130.897C146.771 132.39 147.039 133.636 148.447 134.419C148.679 134.547 148.818 134.794 148.869 135.068C149.232 135.487 149.367 135.953 149.362 136.526C149.327 142.134 149.329 147.744 149.301 153.352C149.285 156.581 149.213 159.81 149.196 163.039C149.178 167.06 149.195 171.08 149.191 175.103C149.19 176.161 149.173 177.221 149.157 178.277C149.152 178.619 148.971 178.878 148.732 179.1C147.921 179.494 147.439 178.856 146.922 178.471C142.064 174.846 137.251 171.158 132.502 167.392C125.188 161.591 117.372 156.576 109.184 152.123C108.481 151.741 107.526 150.89 106.912 151.634C106.276 152.405 107.342 153.148 107.86 153.732C111.041 157.318 114.588 160.535 118.115 163.773C124.828 169.934 132.304 175.14 139.432 180.783C140.391 181.54 141.358 182.289 142.336 183.024C143.722 184.066 143.771 184.614 142.77 186.091C142.117 187.055 141.288 187.909 140.872 189.028C140.27 190.645 140.859 191.392 142.558 191.167C144.108 190.963 145.519 190.34 146.933 189.722C147.541 189.456 148.154 188.994 148.87 189.474C149.204 190.401 149.065 191.371 149.066 192.314C149.066 196.651 148.991 200.99 148.97 205.329C148.951 209.243 148.977 213.157 148.967 217.071C148.96 220.139 148.932 223.207 148.904 226.274C148.9 226.642 148.828 227.009 148.786 227.375C148.747 227.474 148.715 227.612 148.631 227.645C146.394 228.578 146.274 230.496 146.323 232.521C146.377 234.847 146.362 237.177 146.292 239.503C146.249 240.972 146.479 242.249 147.973 242.954C148.255 243.088 148.46 243.359 148.538 243.689L148.533 243.687Z" fill="white"/>
<path d="M148.865 189.471C147.703 189.99 146.544 190.516 145.378 191.027C144.348 191.477 143.239 191.645 142.159 191.923C140.716 192.295 139.352 190.557 140.079 189.145C140.543 188.242 141.047 187.371 141.662 186.566C142.171 185.9 142.695 185.244 143.199 184.604C142.936 184.09 142.49 183.871 142.116 183.582C136.303 179.094 130.484 174.616 124.673 170.125C123.663 169.345 122.668 168.541 121.709 167.702C117.659 164.169 113.661 160.579 109.873 156.762C108.863 155.744 107.904 154.671 106.949 153.6C106.598 153.206 106.323 152.741 106.004 152.318C105.703 151.917 105.74 151.552 106.038 151.16C106.491 150.565 106.668 150.459 107.38 150.704C108.033 150.929 108.684 151.181 109.287 151.509C111.064 152.474 112.84 153.44 114.576 154.479C118.549 156.859 122.423 159.393 126.246 162.008C127.211 162.668 128.161 163.355 129.088 164.068C135.249 168.803 141.4 173.547 147.558 178.285C147.934 178.575 148.338 178.827 148.729 179.095C148.996 179.506 149.296 179.694 149.763 179.34C151.752 177.832 153.743 176.329 155.745 174.839C162.145 170.076 168.909 165.885 175.886 162.029C176.912 161.463 177.967 160.963 179.068 160.573C179.758 160.329 180.042 160.453 180.444 160.993C180.73 161.376 180.798 161.766 180.526 162.172C180.259 162.568 179.997 162.976 179.676 163.326C178.67 164.423 177.673 165.531 176.611 166.571C172.36 170.74 167.915 174.697 163.319 178.481C161.311 180.133 159.187 181.642 157.114 183.216C156.692 183.538 156.257 183.844 155.841 184.172C155.341 184.566 155.344 184.642 155.754 185.184C156.329 185.948 156.93 186.696 157.458 187.49C157.81 188.016 158.056 188.613 158.352 189.176C158.818 190.065 158.583 190.813 157.916 191.489C157.601 191.808 157.244 191.979 156.781 191.965C155.974 191.941 155.202 191.76 154.443 191.508C152.774 190.953 151.183 190.22 149.663 189.334C149.353 189.154 149.072 189.104 148.863 189.476L148.865 189.471Z" fill="#2B2B37"/>
<path d="M148.866 135.064C148.661 135.008 148.453 134.961 148.254 134.89C146.876 134.402 146.269 133.632 146.239 132.183C146.202 130.273 146.223 128.36 146.228 126.449C146.231 124.963 146.245 123.476 146.25 121.99C146.253 121.053 146.446 120.194 147.197 119.55C147.652 119.161 148.201 118.967 148.763 118.796C149.118 118.967 149.495 118.86 149.862 118.886C151.456 118.995 152.513 120.069 152.531 121.681C152.556 123.804 152.517 125.926 152.506 128.049C152.498 129.428 152.52 130.809 152.477 132.189C152.434 133.592 151.67 134.605 150.44 134.9C149.933 135.022 149.394 135.013 148.868 135.064L148.866 135.064Z" fill="#6D6E70"/>
<path d="M211.374 180.901C211.375 181.179 211.433 181.716 211.371 182.238C211.202 183.686 210.147 184.66 208.695 184.689C207.369 184.717 206.039 184.673 204.709 184.663C202.637 184.649 200.566 184.63 198.492 184.634C197.898 184.636 197.32 184.605 196.789 184.316C195.555 183.64 195.229 182.557 195.302 181.218C195.374 179.902 195.935 179.003 197.155 178.509C197.567 178.344 197.992 178.381 198.415 178.381C200.806 178.382 203.197 178.387 205.587 178.393C206.437 178.395 207.287 178.399 208.137 178.413C208.455 178.418 208.776 178.423 209.09 178.473C210.319 178.678 211.07 179.422 211.37 180.905L211.374 180.901Z" fill="#6D6E70"/>
<path d="M148.533 243.687C148.433 243.654 148.334 243.616 148.231 243.59C146.323 243.122 145.678 242.317 145.67 240.356C145.665 238.874 145.682 237.392 145.693 235.909C145.705 234.162 145.702 232.416 145.742 230.67C145.79 228.591 146.446 227.838 148.471 227.444C148.574 227.423 148.675 227.395 148.78 227.372C149.091 227.42 149.404 227.457 149.713 227.52C150.93 227.765 151.694 228.525 151.915 229.736C151.982 230.101 152.008 230.477 152.006 230.846C151.996 233.98 151.979 237.115 151.958 240.25C151.954 240.622 151.969 241.004 151.888 241.362C151.653 242.428 151.05 243.191 149.946 243.451C149.483 243.559 149.005 243.61 148.535 243.685L148.533 243.687Z" fill="#6D6E70"/>
<path d="M176.133 136.624C175.539 136.721 174.891 136.325 174.717 135.777C174.563 135.297 174.61 134.832 174.847 134.389C175.122 133.875 175.392 133.355 175.683 132.85C176.483 131.472 177.292 130.097 178.1 128.725C178.368 128.269 178.64 127.814 179.088 127.494C179.924 126.894 180.984 127.353 181.088 128.387C181.114 128.643 181.069 128.914 181.011 129.169C180.964 129.372 180.867 129.57 180.759 129.753C179.61 131.727 178.46 133.699 177.295 135.665C177.021 136.129 176.657 136.517 176.128 136.622L176.133 136.624Z" fill="#929699"/>
<path d="M201.469 149.782C202.354 149.583 202.916 149.821 203.218 150.43C203.491 150.982 203.391 151.544 202.892 152.015C202.663 152.232 202.395 152.413 202.121 152.571C200.282 153.633 198.436 154.686 196.589 155.733C196.316 155.889 196.023 156.033 195.721 156.118C195.072 156.302 194.487 156.089 194.174 155.604C193.853 155.107 193.901 154.494 194.344 153.988C194.55 153.752 194.797 153.532 195.066 153.376C196.994 152.257 198.932 151.154 200.872 150.051C201.1 149.921 201.353 149.832 201.466 149.781L201.469 149.782Z" fill="#929699"/>
<path d="M180.585 233.791C180.732 234.46 180.497 235.068 180.005 235.365C179.489 235.673 178.886 235.611 178.4 235.152C178.174 234.937 177.981 234.672 177.823 234.401C176.758 232.565 175.707 230.719 174.646 228.878C174.404 228.458 174.252 228.01 174.196 227.528C174.143 227.074 174.259 226.682 174.639 226.406C175.082 226.084 175.694 226.053 176.131 226.363C176.385 226.545 176.646 226.765 176.8 227.028C178.02 229.143 179.217 231.27 180.418 233.396C180.495 233.534 180.542 233.688 180.584 233.789L180.585 233.791Z" fill="#929699"/>
<path d="M194.829 206.829C195.283 206.736 195.73 206.876 196.153 207.122C198.075 208.239 200 209.353 201.921 210.475C202.337 210.72 202.69 211.035 202.897 211.488C203.309 212.388 202.793 213.245 201.814 213.295C201.315 213.322 200.875 213.152 200.459 212.908C198.587 211.806 196.719 210.699 194.852 209.589C194.488 209.372 194.138 209.132 193.91 208.756C193.403 207.916 193.827 206.984 194.824 206.83L194.829 206.829Z" fill="#929698"/>
<path d="M89.1755 177.797C89.9185 177.79 90.6623 177.776 91.4049 177.779C94.0083 177.788 96.6126 177.801 99.2156 177.82C99.6407 177.822 100.069 177.819 100.491 177.87C101.84 178.035 102.808 179.073 102.902 180.429C103.081 182.955 102.006 184.127 99.5009 184.119C96.4729 184.11 93.443 184.093 90.4154 184.074C90.0441 184.073 89.671 184.063 89.2996 184.026C88.1925 183.918 87.381 183.348 87.0106 182.309C86.6421 181.279 86.6546 180.207 87.1511 179.209C87.5564 178.393 88.2654 177.945 89.1755 177.797Z" fill="#6D6E70"/>
<path d="M124.004 134.578C124.151 135.381 123.925 135.899 123.384 136.208C122.924 136.47 122.383 136.414 121.917 136.005C121.681 135.798 121.459 135.554 121.303 135.284C120.162 133.312 119.035 131.332 117.919 129.348C117.765 129.076 117.656 128.766 117.598 128.461C117.487 127.883 117.709 127.424 118.2 127.098C118.666 126.788 119.175 126.801 119.666 127.205C119.946 127.435 120.208 127.721 120.39 128.034C121.506 129.96 122.599 131.898 123.69 133.838C123.844 134.113 123.941 134.418 124.009 134.579L124.004 134.578Z" fill="#929699"/>
<path d="M104.494 154.067C104.688 154.894 104.071 155.681 103.308 155.701C102.872 155.713 102.467 155.583 102.097 155.369C100.123 154.227 98.1519 153.083 96.1893 151.925C95.9214 151.767 95.6793 151.54 95.4726 151.305C95.0475 150.821 95.0066 150.358 95.2934 149.842C95.6212 149.252 96.0849 149.043 96.7512 149.164C97.1802 149.242 97.5478 149.443 97.9136 149.658C99.6973 150.705 101.479 151.753 103.267 152.79C103.831 153.116 104.326 153.494 104.493 154.065L104.494 154.067Z" fill="#929699"/>
<path d="M96.6125 212.728C95.8629 212.862 95.3114 212.629 95.0009 212.113C94.6981 211.612 94.7689 211.021 95.2611 210.528C95.5559 210.234 95.9078 209.98 96.2711 209.771C97.9636 208.791 99.671 207.838 101.364 206.862C101.83 206.594 102.311 206.389 102.846 206.333C103.426 206.274 103.89 206.525 104.154 207.029C104.406 207.51 104.314 207.975 103.994 208.363C103.764 208.641 103.469 208.89 103.157 209.073C101.24 210.19 99.3104 211.289 97.3802 212.385C97.1064 212.541 96.8032 212.645 96.6125 212.728Z" fill="#929699"/>
<path d="M118.64 235.175C117.7 235.36 116.939 234.667 117.076 233.808C117.133 233.448 117.252 233.078 117.432 232.761C118.537 230.82 119.66 228.89 120.794 226.966C120.953 226.695 121.16 226.438 121.395 226.229C121.871 225.805 122.519 225.759 123.017 226.071C123.538 226.395 123.734 226.92 123.548 227.6C123.465 227.904 123.341 228.208 123.181 228.479C122.112 230.317 121.034 232.151 119.948 233.979C119.787 234.25 119.584 234.502 119.384 234.748C119.173 235.006 118.868 235.11 118.643 235.175L118.64 235.175Z" fill="#929699"/>
</g>
<path d="M269.42 100.04C269.313 99.1867 269.26 98.4667 269.26 97.88C269.26 97.24 269.34 96.4667 269.5 95.56C271.366 95.6133 273.74 95.64 276.62 95.64C279.5 95.64 281.846 95.6133 283.66 95.56C283.82 96.36 283.9 97.16 283.9 97.96C283.9 98.76 283.846 99.4533 283.74 100.04L280.94 100.28C283.446 117.187 286.46 130.44 289.98 140.04H290.46C292.113 135.987 293.686 130.387 295.18 123.24C296.726 116.04 297.9 109.293 298.7 103C300.3 102.36 301.606 102.04 302.62 102.04C303.686 102.04 304.646 102.093 305.5 102.2C307.9 118.413 310.833 131.027 314.3 140.04H314.78C316.593 134.973 318.3 128.573 319.9 120.84C321.5 113.053 322.62 106.2 323.26 100.28L320.38 100.04C320.273 99.6133 320.22 99 320.22 98.2C320.22 97.3467 320.3 96.4667 320.46 95.56C322.38 95.6133 324.7 95.64 327.42 95.64C330.14 95.64 332.326 95.6133 333.98 95.56C334.14 96.36 334.22 97.0533 334.22 97.64C334.22 98.1733 334.166 98.9733 334.06 100.04L331.26 100.28C329.713 105.133 327.473 112.787 324.54 123.24C321.606 133.64 319.446 141.56 318.06 147C316.14 147.48 314.38 147.72 312.78 147.72C311.233 147.72 310.22 147.693 309.74 147.64C308.993 145.08 307.713 140.253 305.9 133.16C304.14 126.067 302.833 120.893 301.98 117.64H301.58C298.006 130.6 295.393 140.387 293.74 147C291.82 147.48 290.06 147.72 288.46 147.72C286.913 147.72 285.9 147.693 285.42 147.64C285.206 146.947 283.446 140.2 280.14 127.4C276.886 114.547 274.3 105.507 272.38 100.28L269.42 100.04ZM344.234 100.44C344.074 99.8 343.994 98.9733 343.994 97.96C343.994 96.9467 344.021 96.28 344.074 95.96C348.767 95.3733 352.261 95.08 354.554 95.08C356.847 95.08 358.794 95.3467 360.394 95.88C361.674 105.907 366.127 121.4 373.754 142.36L376.714 142.6C376.821 143.773 376.874 144.6 376.874 145.08C376.874 145.507 376.794 146.173 376.634 147.08C375.141 147.027 372.821 147 369.674 147C366.527 147 364.341 147.027 363.114 147.08C362.954 146.28 362.874 145.533 362.874 144.84C362.874 144.093 362.927 143.347 363.034 142.6L365.834 142.36C365.567 141.08 365.141 139.24 364.554 136.84C363.967 134.387 363.647 133.027 363.594 132.76C360.554 132.6 357.247 132.52 353.674 132.52C350.154 132.52 346.847 132.627 343.754 132.84L341.514 142.36L344.554 142.6C344.661 143.773 344.714 144.6 344.714 145.08C344.714 145.507 344.634 146.173 344.474 147.08C343.194 147.027 341.087 147 338.154 147C335.274 147 333.247 147.027 332.074 147.08C331.914 146.28 331.834 145.533 331.834 144.84C331.834 144.093 331.887 143.347 331.994 142.6L334.794 142.36C341.194 124.813 345.407 110.92 347.434 100.68L344.234 100.44ZM345.194 127.24C347.007 127.293 349.727 127.32 353.354 127.32C356.981 127.32 359.914 127.24 362.154 127.08C359.647 117.587 357.007 108.813 354.234 100.76H353.754C350.607 108.387 347.754 117.213 345.194 127.24ZM404.358 100.12C404.251 98.9467 404.198 98.1467 404.198 97.72C404.198 97.2933 404.278 96.6 404.438 95.64C405.718 95.6933 407.931 95.72 411.078 95.72C414.278 95.72 416.464 95.6933 417.638 95.64C417.798 96.44 417.878 97.0533 417.878 97.48C417.878 97.8533 417.824 98.7333 417.718 100.12L414.758 100.36L399.158 118.84C404.544 127.053 408.118 132.413 409.878 134.92C411.638 137.427 413.451 139.773 415.318 141.96L419.078 142.2C419.184 143.053 419.238 143.853 419.238 144.6C419.238 145.347 419.158 146.093 418.998 146.84L409.478 147.24C409.104 145.48 405.771 139.96 399.478 130.68C396.811 126.733 395.344 124.52 395.078 124.04L391.638 128.44C391.744 133.88 391.958 138.52 392.278 142.36L395.158 142.6C395.264 143.773 395.318 144.6 395.318 145.08C395.318 145.507 395.238 146.173 395.078 147.08C393.584 147.027 391.398 147 388.518 147C385.638 147 383.531 147.027 382.198 147.08C382.038 146.28 381.958 145.533 381.958 144.84C381.958 144.093 382.011 143.347 382.118 142.6L384.918 142.36C385.344 136.493 385.558 129.107 385.558 120.2C385.558 111.24 385.318 104.6 384.838 100.28L382.118 100.04C382.011 98.8667 381.958 98.0667 381.958 97.64C381.958 97.2133 382.038 96.52 382.198 95.56C383.638 95.6133 385.798 95.64 388.678 95.64C391.611 95.64 393.744 95.6133 395.078 95.56C395.238 96.36 395.318 96.9733 395.318 97.4C395.318 97.7733 395.264 98.6533 395.158 100.04L392.118 100.28C391.744 104.973 391.558 112.04 391.558 121.48C400.038 110.653 405.291 103.613 407.318 100.36L404.358 100.12ZM448.856 114.52C450.029 114.413 450.829 114.36 451.256 114.36C451.683 114.36 452.376 114.44 453.336 114.6C453.283 116.253 453.256 118.387 453.256 121C453.256 123.613 453.283 125.32 453.336 126.12C452.536 126.28 451.763 126.36 451.016 126.36C450.269 126.36 449.549 126.307 448.856 126.2L448.616 123.4C445.736 123.293 443.363 123.24 441.496 123.24C439.629 123.24 437.256 123.293 434.376 123.4C434.376 130.387 434.563 136.227 434.936 140.92C436.803 141.08 439.443 141.16 442.856 141.16C446.323 141.16 449.043 141.027 451.016 140.76L451.256 135.32C452.163 135.16 452.989 135.08 453.736 135.08C454.536 135.08 455.203 135.107 455.736 135.16C455.789 139.32 456.029 143.267 456.456 147L456.056 147.4C453.443 147.133 447.709 147 438.856 147C430.056 147 425.416 147.027 424.936 147.08C424.776 146.28 424.696 145.533 424.696 144.84C424.696 144.093 424.749 143.347 424.856 142.6L427.656 142.36C428.136 134.093 428.376 126.627 428.376 119.96C428.376 113.24 428.056 106.76 427.416 100.52L424.696 100.28C424.589 99.5867 424.536 98.8667 424.536 98.12C424.536 97.3733 424.616 96.6 424.776 95.8C426.109 95.8533 430.989 95.88 439.416 95.88C447.843 95.88 453.256 95.64 455.656 95.16L456.056 95.56C455.629 100.253 455.389 104.04 455.336 106.92C454.803 106.973 454.136 107 453.336 107C452.536 107 451.709 106.92 450.856 106.76L450.616 101.32C447.896 101.16 445.069 101.08 442.136 101.08C439.203 101.08 436.776 101.16 434.856 101.32C434.536 104.68 434.376 110.173 434.376 117.8C435.229 117.853 436.963 117.88 439.576 117.88C442.189 117.88 445.203 117.773 448.616 117.56L448.856 114.52ZM336.648 210.92C336.648 199.4 336.381 191.187 335.848 186.28L333.048 186.04C332.941 185.187 332.888 184.467 332.888 183.88C332.888 183.24 332.968 182.467 333.128 181.56C334.834 181.613 336.808 181.64 339.048 181.64C341.288 181.64 343.234 181.613 344.888 181.56C345.048 182.36 345.128 183.08 345.128 183.72C345.128 184.307 345.074 185.08 344.968 186.04L342.328 186.28C341.901 191.507 341.688 197.72 341.688 204.92C341.688 212.067 341.581 216.733 341.368 218.92C341.154 221.053 340.674 223.16 339.928 225.24C339.234 227.32 338.248 228.973 336.968 230.2C334.194 232.867 329.874 234.2 324.008 234.2C316.488 234.2 311.554 232.093 309.208 227.88C308.034 225.64 307.234 223.24 306.808 220.68C306.434 218.12 306.248 212.973 306.248 205.24C306.248 197.507 305.981 191.187 305.448 186.28L302.568 186.04C302.461 185.187 302.408 184.467 302.408 183.88C302.408 183.24 302.488 182.467 302.648 181.56C304.514 181.613 306.674 181.64 309.128 181.64C311.581 181.64 313.714 181.613 315.528 181.56C315.688 182.36 315.768 183.08 315.768 183.72C315.768 184.307 315.714 185.08 315.608 186.04L312.888 186.28C312.461 191.507 312.248 199.72 312.248 210.92C312.248 216.893 313.074 221.293 314.728 224.12C316.381 226.893 319.661 228.28 324.568 228.28C329.474 228.28 332.701 226.893 334.248 224.12C335.848 221.293 336.648 216.893 336.648 210.92ZM369.412 206.52C370.959 208.067 372.799 208.84 374.932 208.84C377.119 208.84 378.879 208.173 380.212 206.84C382.346 204.653 383.412 201.4 383.412 197.08C383.412 189.133 379.892 185.16 372.852 185.16C370.612 185.16 368.106 185.747 365.332 186.92C364.959 191.133 364.772 197.693 364.772 206.6C364.772 215.507 365.012 222.76 365.492 228.36L370.052 228.68C370.159 229.533 370.212 230.307 370.212 231C370.212 231.693 370.132 232.387 369.972 233.08C368.052 233.027 365.546 233 362.452 233C359.412 233 357.066 233.027 355.412 233.08C355.252 232.28 355.172 231.587 355.172 231C355.172 230.36 355.226 229.56 355.332 228.6L358.132 228.36C358.559 222.653 358.772 215.373 358.772 206.52C358.772 197.613 358.506 191 357.972 186.68L354.932 186.44C354.772 185.693 354.692 184.867 354.692 183.96C354.692 183.053 354.719 182.387 354.772 181.96C357.012 181.853 360.079 181.613 363.972 181.24C366.692 180.813 369.679 180.6 372.932 180.6C379.226 180.6 383.706 182.04 386.372 184.92C389.039 187.747 390.372 191.747 390.372 196.92C390.372 202.04 389.012 206.2 386.292 209.4C383.626 212.6 379.546 214.2 374.052 214.2C371.919 214.2 369.812 213.8 367.732 213C367.732 211.56 367.919 210.227 368.292 209C368.666 207.773 369.039 206.947 369.412 206.52ZM420.11 203C420.11 193.187 419.416 185.507 418.03 179.96C419.63 179.373 421.176 179.08 422.67 179.08C424.163 179.08 425.55 179.24 426.83 179.56C425.763 189.64 425.23 200.92 425.23 213.4C425.23 215.16 425.283 216.893 425.39 218.6C424.376 218.92 423.47 219.08 422.67 219.08C421.87 219.08 420.963 218.92 419.95 218.6C420.056 212.947 420.11 207.747 420.11 203ZM428.03 228.6C428.03 230.2 427.55 231.533 426.59 232.6C425.63 233.667 424.163 234.2 422.19 234.2C419.15 234.2 417.63 232.653 417.63 229.56C417.63 225.72 419.576 223.8 423.47 223.8C426.51 223.8 428.03 225.4 428.03 228.6Z" fill="white"/>
<defs>
<clipPath id="clip0_302_3139">
<rect width="235.193" height="256.352" fill="white" transform="translate(0 46.9709) rotate(-11.5201)"/>
</clipPath>
</defs>
</svg>
