<svg width="284" height="266" viewBox="0 0 284 266" fill="none" xmlns="http://www.w3.org/2000/svg">
<g clip-path="url(#clip0_302_3826)">
<path d="M98.6211 190.904C98.5395 187.741 98.4449 184.595 98.4449 181.551V12.6711H2.67259V181.551C2.67259 184.599 2.57807 187.741 2.49643 190.904C2.08395 194.227 2.0238 197.639 2.39331 201.009C2.54799 209.478 3.59207 217.5 7.60085 223.548C11.7299 229.772 17.1652 232.605 22.4844 234.747C31.6965 238.451 69.4254 238.451 78.6374 234.747C83.9566 232.609 89.3962 229.776 93.521 223.548C97.5297 217.5 98.5738 209.478 98.7285 201.009C99.098 197.639 99.0379 194.222 98.6254 190.904H98.6211Z" fill="#C6DFE5"/>
<path d="M92.9409 183.835C92.8679 180.796 92.7863 177.774 92.7863 174.851V12.6711H8.3313V174.851C8.3313 177.774 8.24966 180.796 8.17662 183.835C7.8114 187.024 7.75984 190.304 8.08209 193.54C8.21958 201.67 9.13907 209.375 12.6752 215.182C16.3145 221.162 21.1095 223.879 25.8015 225.935C33.9221 229.493 67.1954 229.493 75.3161 225.935C80.008 223.879 84.8031 221.162 88.4423 215.182C91.9785 209.375 92.898 201.67 93.0355 193.54C93.362 190.304 93.3061 187.024 92.9409 183.835Z" fill="#D4EFF4"/>
<path d="M92.7863 84.3928H8.3313V174.851C8.3313 177.774 8.24966 180.796 8.17662 183.835C7.8114 187.024 7.75984 190.303 8.08209 193.54C8.21958 201.67 9.13907 209.375 12.6752 215.182C16.3145 221.162 21.1095 223.879 25.8015 225.935C33.9221 229.493 67.1954 229.493 75.3161 225.935C80.008 223.879 84.8031 221.162 88.4423 215.182C91.9785 209.375 92.898 201.67 93.0355 193.54C93.362 190.303 93.3061 187.024 92.9409 183.835C92.8679 180.796 92.7863 177.774 92.7863 174.851V84.3928Z" fill="#FF5E48"/>
<path d="M50.5717 101.764C73.9004 101.764 92.812 96.0911 92.812 89.093C92.812 82.0949 73.9004 76.4219 50.5717 76.4219C27.243 76.4219 8.3313 82.0949 8.3313 89.093C8.3313 96.0911 27.243 101.764 50.5717 101.764Z" fill="#FF9580"/>
<path d="M50.5588 25.3423C77.0056 25.3423 98.4449 19.6693 98.4449 12.6712C98.4449 5.67307 77.0056 0 50.5588 0C24.112 0 2.67261 5.67307 2.67261 12.6712C2.67261 19.6693 24.112 25.3423 50.5588 25.3423Z" fill="#C6DFE5"/>
<path d="M50.5588 19.6592C73.8804 19.6592 92.7863 16.248 92.7863 12.0402C92.7863 7.83229 73.8804 4.42114 50.5588 4.42114C27.2372 4.42114 8.3313 7.83229 8.3313 12.0402C8.3313 16.248 27.2372 19.6592 50.5588 19.6592Z" fill="#D4EFF4"/>
<path opacity="0.42" d="M18.6991 52.4702C18.785 80.8087 18.8667 109.147 18.9526 137.485C18.9784 146.092 19.0085 154.745 19.8807 163.214C20.1643 165.961 20.5682 168.803 21.6208 170.906C22.6735 173.014 24.5512 174.108 25.9304 172.683C26.7897 171.795 27.2881 170.138 27.5932 168.477C28.6502 162.716 27.8381 156.492 27.1549 150.564C23.9453 122.672 23.8336 93.7116 26.8327 65.7466C27.5674 58.8745 30.2313 45.3105 26.0593 40.2712C21.0924 34.2662 18.6776 45.9243 18.6991 52.4617V52.4702Z" fill="white"/>
<path opacity="0.42" d="M21.1996 187.076C20.6754 189.964 20.8688 193.089 21.1266 196.085C21.6852 202.528 22.7507 209.521 25.84 213.199C26.4029 213.869 27.0302 214.414 27.7048 214.569C29.084 214.89 30.4589 213.504 31.2882 211.555C32.1131 209.606 32.474 207.177 32.6717 204.778C33.0025 200.816 32.9424 196.755 32.5041 192.823C32.1389 189.574 31.4686 186.294 30.1109 183.977C27.4813 179.482 22.3683 180.637 21.1996 187.071V187.076Z" fill="white"/>
<path d="M54.3569 141.821C55.3194 158.162 95.6306 172.469 163.964 172.469C232.298 172.469 273.009 161.604 273.563 141.821C274.122 122.037 235.912 107.529 165.632 107.829C106.441 108.083 56.8662 112.289 54.3569 141.821Z" fill="#F7D3B0"/>
<path d="M59.1047 141.641C60.0242 156.222 98.5952 168.983 163.969 168.983C229.342 168.983 268.291 159.291 268.824 141.641C269.357 123.99 232.805 111.049 165.567 111.315C108.937 111.542 61.5066 115.294 59.1047 141.641Z" fill="#E2BFA3"/>
<path d="M59.1047 141.692C59.8438 153.38 84.7772 163.901 128.315 167.614C125.978 166.03 123.705 164.352 121.505 162.583C108.035 151.749 97.2246 137.597 90.423 121.707C89.8516 120.372 89.2286 118.968 88.6313 117.53C71.3201 121.908 60.2348 129.304 59.1047 141.692Z" fill="#CEAD97"/>
<path d="M108.057 158.505C107.253 157.643 106.329 156.866 105.771 155.831C105.174 154.72 105.062 153.423 104.744 152.204C103.88 148.895 101.337 146.075 98.1313 144.869C97.3106 144.559 96.3955 144.315 95.8584 143.619C95.3127 142.915 95.3127 141.95 95.2096 141.065C94.8014 137.619 92.2621 134.52 88.9622 133.442C87.9482 133.112 86.844 132.94 85.9976 132.292C84.1199 130.858 84.4121 127.952 83.295 125.87C82.6677 124.703 81.6064 123.831 80.5752 122.999C78.7964 121.561 77.0176 120.119 75.2387 118.681C73.4127 117.204 71.4663 115.672 69.1418 115.345C67.9387 115.178 66.6111 115.32 65.61 114.624C64.7034 113.993 64.3424 112.852 63.8268 111.873C61.5754 107.615 55.1261 106.4 51.431 109.491C47.7359 112.581 47.7531 119.058 51.4224 122.183C48.8015 124.308 48.6124 128.424 50.0819 131.459C51.5513 134.494 54.2883 136.692 56.9522 138.76C57.6268 139.284 58.3228 139.829 58.7181 140.585C59.2853 141.675 59.1306 142.976 59.1392 144.203C59.1865 149.728 63.3671 154.956 68.7508 156.218L110.944 172.533C112.641 167.807 111.485 162.18 108.061 158.505H108.057Z" fill="#6FB56B"/>
<path d="M98.2345 127.798C95.9659 124.87 93.6715 121.9 92.2579 118.479C90.8486 115.058 90.4103 111.066 91.9056 107.683C92.288 106.816 92.795 105.984 92.9282 105.048C93.0872 103.932 92.6962 102.824 92.4813 101.717C91.7251 97.8838 93.1774 93.6945 96.1464 91.1534C99.1154 88.6123 103.485 87.8225 107.159 89.1574C109.53 87.2301 113.067 86.8653 115.782 88.2732C118.498 89.6811 120.238 92.7759 120.023 95.8235C122.927 95.0595 126.025 96.9352 127.568 99.5107C129.11 102.086 129.428 105.194 129.561 108.194C133.884 107.924 138.288 109.92 140.93 113.349C143.573 116.779 144.381 121.539 143.014 125.647C147.109 128.948 151.049 133.017 152.007 138.185C152.961 143.353 149.562 149.551 144.308 149.753C147.229 150.032 148.566 153.977 147.311 156.63C146.056 159.282 143.246 160.789 140.544 161.935C135.074 164.253 129.286 165.828 123.391 166.601C119.911 167.056 116.276 167.219 112.985 165.996C105.775 163.317 102.45 155.363 99.8802 148.736C97.6072 142.872 90.4146 132.725 98.2302 127.806L98.2345 127.798Z" fill="#81CC7A"/>
<path d="M200.955 111.791C202.91 108.855 206.862 107.413 210.253 108.404C210.631 104.155 214.167 100.391 218.386 99.7424C222.61 99.0942 227.113 101.627 228.745 105.567C231.448 103.365 235.895 105.898 236.625 109.302C237.356 112.705 235.551 116.139 233.42 118.895C236.221 119.754 237.584 123.145 237.15 126.042C236.716 128.939 234.958 131.437 233.248 133.82C236.905 136.563 237.639 142.199 235.414 146.186C233.188 150.178 228.569 152.479 224.002 152.676C219.233 152.887 215.267 150.938 211.112 148.955C196.4 167.073 176.833 124.703 201.255 121.591C199.365 118.65 198.931 114.817 200.946 111.791H200.955Z" fill="#6FB56B"/>
<path d="M221.398 129.253C223.374 125.982 225.72 122.866 228.75 120.531C230.958 118.827 233.48 117.577 235.981 116.341C242.873 112.929 251.255 109.542 257.868 113.47C259.075 114.186 260.154 115.126 261.421 115.732C264.223 117.075 267.501 116.642 270.608 116.625C273.77 116.607 277.044 117.097 279.712 118.788C282.385 120.479 284.327 123.574 283.957 126.716C283.764 128.373 282.96 129.931 282.939 131.601C282.922 133.039 283.48 134.412 283.687 135.833C284.206 139.46 281.822 143.504 278.204 144.126C276.932 144.345 275.617 144.156 274.341 144.345C268.708 145.165 266.315 152.406 261.06 154.595C259.582 155.213 257.958 155.385 256.433 155.874C254.809 156.394 253.322 157.256 251.775 157.969C241.85 162.532 229.149 160.119 221.591 152.234C214.949 145.302 216.822 136.833 221.398 129.257V129.253Z" fill="#81CC7A"/>
<path d="M202.669 155.921C203.176 156.037 203.717 156.226 204.198 156.029C204.813 155.776 205.023 155.037 205.242 154.411C206.506 150.856 210.824 148.719 214.42 149.865C215.198 150.114 215.975 150.496 216.783 150.406C217.926 150.281 218.738 149.285 219.649 148.586C221.974 146.792 225.583 146.933 227.757 148.903C228.346 149.436 228.857 150.097 229.579 150.427C230.365 150.783 231.28 150.698 232.109 150.942C234.997 151.784 235.736 156.089 238.632 156.883C240.527 153.681 245.395 153.17 248.454 155.29C251.509 157.415 252.824 161.416 252.592 165.129C252.072 173.349 244.024 180.319 235.805 179.667C232.109 179.371 228.573 177.77 224.865 177.783C221.29 177.796 217.918 179.311 214.596 180.628C206.54 183.831 198.518 182.697 196.086 173.507C194.716 168.326 192.499 153.556 202.664 155.921H202.669Z" fill="#6FB56B"/>
<path d="M209.608 111.778C209.608 111.778 200.761 128.858 223.71 138.902C246.662 148.951 253.137 129.416 253.137 129.416L209.604 111.778H209.608Z" fill="#E24C24"/>
<path d="M252.934 129.871C254.904 125.165 246.8 117.297 234.833 112.299C222.867 107.3 211.569 107.064 209.599 111.77C207.629 116.477 215.733 124.345 227.7 129.343C239.667 134.342 250.965 134.578 252.934 129.871Z" fill="#FF5A27"/>
<path d="M251.135 129.12C252.868 124.977 245.379 117.903 234.406 113.32C223.433 108.737 213.132 108.38 211.398 112.522C209.665 116.665 217.155 123.738 228.127 128.321C239.1 132.905 249.401 133.262 251.135 129.12Z" fill="#FF8B78"/>
<path d="M224.844 114.843C223.894 114.877 222.764 115.131 222.438 116.019C222.304 116.388 222.335 116.818 222.12 117.144C221.905 117.466 221.488 117.62 221.316 117.968C221.196 118.213 221.23 118.509 221.303 118.771C221.789 120.462 223.697 121.243 225.372 121.793C229.716 123.218 234.06 124.643 238.404 126.068C239.53 126.437 240.887 126.763 241.79 125.999C242.542 125.36 242.61 124.171 242.198 123.273C241.785 122.376 241.008 121.707 240.234 121.093C237.906 119.251 235.366 117.599 232.561 116.594C229.991 115.676 227.637 114.744 224.844 114.843Z" fill="#FF5A27"/>
<path d="M215.335 114.401C216.13 114.68 216.938 114.912 217.759 115.096C217.909 115.131 218.115 115.058 218.236 114.972C218.365 114.873 218.476 114.697 218.489 114.534C218.519 114.152 218.283 113.886 217.922 113.804C217.673 113.748 217.424 113.684 217.174 113.62C217.23 113.637 217.286 113.65 217.342 113.667C216.831 113.529 216.328 113.375 215.83 113.199C215.507 113.087 215.103 113.203 214.974 113.551C214.858 113.869 214.979 114.285 215.327 114.405L215.335 114.401Z" fill="#FFB164"/>
<path d="M218.098 112.735C218.871 113.057 219.378 111.855 218.601 111.534C217.827 111.212 217.32 112.413 218.098 112.735Z" fill="#FFB164"/>
<path d="M218.111 112.714C218.549 112.941 218.992 113.169 219.43 113.396C219.572 113.469 219.787 113.457 219.928 113.396C220.074 113.336 220.225 113.199 220.285 113.044C220.345 112.886 220.358 112.701 220.285 112.547C220.208 112.383 220.096 112.276 219.933 112.19C219.494 111.963 219.052 111.735 218.614 111.508C218.472 111.435 218.257 111.448 218.115 111.508C217.969 111.568 217.819 111.705 217.759 111.86C217.698 112.019 217.686 112.203 217.759 112.358C217.836 112.521 217.948 112.628 218.111 112.714Z" fill="#FFB164"/>
<path d="M223.237 111.491C223.228 111.628 223.228 111.774 223.254 111.911C223.28 112.049 223.318 112.19 223.374 112.319C223.49 112.577 223.662 112.809 223.881 112.985C223.95 113.045 224.027 113.079 224.118 113.096C224.199 113.126 224.285 113.135 224.371 113.118C224.457 113.109 224.534 113.079 224.603 113.032C224.681 112.997 224.745 112.942 224.797 112.873C224.827 112.821 224.857 112.774 224.887 112.723C224.93 112.615 224.947 112.499 224.93 112.384C224.9 112.216 224.822 112.066 224.685 111.959C224.65 111.933 224.62 111.903 224.59 111.873L224.711 111.993C224.646 111.929 224.59 111.856 224.547 111.774L224.629 111.92C224.582 111.838 224.547 111.748 224.522 111.658C224.534 111.714 224.552 111.765 224.565 111.821C224.543 111.731 224.53 111.641 224.53 111.551C224.53 111.607 224.53 111.662 224.53 111.718C224.53 111.697 224.53 111.675 224.53 111.654C224.543 111.568 224.539 111.486 224.509 111.405C224.496 111.323 224.457 111.246 224.406 111.177C224.354 111.104 224.29 111.049 224.212 111.014C224.139 110.963 224.057 110.933 223.967 110.924C223.8 110.911 223.624 110.941 223.49 111.049C223.361 111.156 223.245 111.315 223.237 111.486V111.491Z" fill="#FFB164"/>
<path d="M227.619 112.521L227.435 113.246C227.422 113.332 227.426 113.414 227.456 113.495C227.473 113.577 227.508 113.654 227.559 113.723C227.611 113.796 227.675 113.851 227.753 113.886C227.826 113.937 227.907 113.967 227.997 113.976C228.165 113.989 228.341 113.959 228.474 113.851L228.595 113.731C228.668 113.637 228.711 113.53 228.728 113.409L228.913 112.684C228.926 112.598 228.921 112.517 228.891 112.435C228.878 112.353 228.84 112.276 228.788 112.207C228.736 112.134 228.672 112.079 228.595 112.044C228.522 111.993 228.44 111.963 228.35 111.954C228.182 111.941 228.006 111.971 227.873 112.079L227.753 112.199C227.679 112.293 227.637 112.401 227.619 112.521Z" fill="#FFB164"/>
<path d="M235.426 116.672C235.701 116.56 235.981 116.444 236.256 116.333C236.337 116.303 236.406 116.255 236.462 116.191C236.531 116.135 236.578 116.066 236.612 115.981C236.651 115.899 236.664 115.813 236.66 115.727C236.668 115.642 236.651 115.56 236.617 115.483L236.535 115.337C236.462 115.242 236.376 115.174 236.264 115.126L236.097 115.079C235.981 115.066 235.873 115.079 235.766 115.122C235.491 115.234 235.212 115.35 234.937 115.461C234.855 115.491 234.786 115.539 234.73 115.603C234.662 115.659 234.614 115.727 234.58 115.813C234.541 115.895 234.528 115.981 234.533 116.066C234.524 116.152 234.541 116.234 234.576 116.311L234.657 116.457C234.73 116.552 234.816 116.62 234.928 116.667L235.096 116.715C235.212 116.728 235.319 116.715 235.426 116.672Z" fill="#FFB164"/>
<path d="M240.574 119.818C241.008 119.869 241.442 119.921 241.871 119.972C242.035 119.994 242.215 119.947 242.348 119.848C242.477 119.749 242.589 119.573 242.602 119.41C242.615 119.243 242.585 119.067 242.477 118.934C242.365 118.801 242.215 118.702 242.039 118.68C241.605 118.629 241.171 118.577 240.741 118.526C240.578 118.504 240.398 118.552 240.264 118.65C240.135 118.749 240.024 118.925 240.011 119.088C239.998 119.256 240.028 119.432 240.135 119.565C240.247 119.698 240.398 119.796 240.574 119.818Z" fill="#FFB164"/>
<path d="M244.011 123.209C244.634 123.522 245.296 123.741 245.979 123.887C246.129 123.922 246.336 123.853 246.456 123.763C246.585 123.664 246.697 123.488 246.709 123.325C246.722 123.158 246.692 122.982 246.585 122.848C246.469 122.707 246.327 122.634 246.147 122.595C246.013 122.565 245.884 122.535 245.756 122.501C245.811 122.518 245.867 122.531 245.923 122.548C245.438 122.415 244.969 122.235 244.518 122.011C244.213 121.857 243.779 122.046 243.663 122.363C243.534 122.715 243.685 123.054 244.015 123.218L244.011 123.209Z" fill="#FFB164"/>
<path d="M245.21 127.021C245.743 127.39 246.28 127.763 246.813 128.132C246.959 128.231 247.126 128.291 247.302 128.265C247.457 128.244 247.637 128.15 247.728 128.021C247.925 127.746 247.917 127.313 247.616 127.106C247.083 126.737 246.546 126.364 246.013 125.995C245.867 125.896 245.7 125.836 245.524 125.862C245.369 125.883 245.188 125.978 245.098 126.106C244.9 126.381 244.909 126.815 245.21 127.021Z" fill="#FFB164"/>
<path d="M241.648 127.965C241.858 128.364 242.069 128.763 242.284 129.162C242.314 129.244 242.361 129.313 242.426 129.369C242.482 129.437 242.55 129.484 242.636 129.519C242.782 129.579 242.989 129.587 243.135 129.519C243.289 129.45 243.431 129.33 243.491 129.167C243.547 129.012 243.573 128.819 243.491 128.669C243.281 128.27 243.07 127.87 242.855 127.471C242.825 127.39 242.778 127.321 242.714 127.265C242.658 127.197 242.589 127.149 242.503 127.115C242.357 127.055 242.151 127.046 242.005 127.115C241.85 127.184 241.708 127.304 241.648 127.467C241.592 127.621 241.566 127.815 241.648 127.965Z" fill="#FFB164"/>
<path d="M236.466 127.969C236.483 128.059 236.492 128.145 236.492 128.235V128.068C236.492 128.197 236.475 128.326 236.441 128.45C236.458 128.394 236.471 128.338 236.488 128.283C236.475 128.326 236.462 128.364 236.449 128.407C236.41 128.489 236.398 128.574 236.402 128.66C236.393 128.746 236.41 128.828 236.445 128.905C236.475 128.987 236.522 129.055 236.587 129.111C236.642 129.18 236.711 129.227 236.797 129.261C236.956 129.321 237.141 129.334 237.296 129.261C237.446 129.193 237.592 129.072 237.652 128.909C237.717 128.733 237.764 128.544 237.781 128.36C237.798 128.175 237.794 127.982 237.76 127.802C237.73 127.634 237.652 127.48 237.515 127.377C237.446 127.317 237.369 127.282 237.278 127.265C237.197 127.235 237.111 127.227 237.025 127.244C236.862 127.274 236.698 127.351 236.599 127.489C236.569 127.54 236.539 127.587 236.509 127.639C236.462 127.746 236.449 127.862 236.466 127.978V127.969Z" fill="#FFB164"/>
<path d="M229.613 126.085C229.604 126.231 229.579 126.377 229.54 126.518C229.557 126.462 229.57 126.407 229.587 126.351C229.54 126.518 229.475 126.681 229.39 126.836C229.351 126.917 229.338 127.003 229.342 127.089C229.334 127.175 229.351 127.257 229.385 127.334C229.445 127.48 229.583 127.63 229.738 127.69C229.897 127.75 230.081 127.763 230.236 127.69L230.382 127.609C230.477 127.536 230.545 127.45 230.593 127.338C230.67 127.192 230.734 127.042 230.777 126.883C230.837 126.673 230.889 126.467 230.906 126.248C230.919 126.076 230.885 125.913 230.782 125.771C230.73 125.698 230.666 125.643 230.588 125.608C230.515 125.557 230.434 125.527 230.343 125.518C230.176 125.505 230 125.535 229.866 125.643C229.733 125.75 229.626 125.904 229.613 126.08V126.085Z" fill="#FFB164"/>
<path d="M224.973 123.956C224.947 124.024 224.917 124.093 224.882 124.158L224.973 124.007C224.921 124.097 224.857 124.175 224.783 124.248L224.904 124.127C224.835 124.196 224.753 124.256 224.672 124.303L224.818 124.222C224.741 124.265 224.659 124.299 224.573 124.325C224.491 124.355 224.423 124.402 224.367 124.467C224.298 124.522 224.251 124.591 224.216 124.677C224.156 124.823 224.148 125.029 224.216 125.175C224.285 125.329 224.405 125.471 224.569 125.531L224.736 125.578C224.852 125.591 224.96 125.578 225.067 125.535C225.209 125.497 225.329 125.424 225.454 125.351C225.535 125.304 225.613 125.248 225.682 125.179C225.785 125.08 225.892 124.982 225.969 124.857C226.051 124.733 226.128 124.604 226.176 124.462C226.231 124.299 226.244 124.127 226.176 123.964C226.115 123.818 225.978 123.668 225.823 123.608C225.664 123.548 225.48 123.535 225.325 123.608C225.174 123.677 225.024 123.797 224.968 123.96L224.973 123.956Z" fill="#FFB164"/>
<path d="M220.813 119.899C220.599 119.994 220.38 120.067 220.152 120.131C220.208 120.118 220.259 120.101 220.315 120.088C219.98 120.178 219.636 120.23 219.288 120.247C219.133 120.256 218.953 120.372 218.863 120.492C218.764 120.621 218.7 120.818 218.73 120.981C218.76 121.144 218.837 121.307 218.975 121.406C219.026 121.436 219.073 121.466 219.125 121.496C219.232 121.543 219.348 121.556 219.464 121.539C220.096 121.509 220.732 121.359 221.312 121.106C221.467 121.037 221.6 120.912 221.669 120.754C221.729 120.608 221.737 120.402 221.669 120.256C221.6 120.101 221.479 119.959 221.316 119.899C221.153 119.839 220.977 119.826 220.818 119.899H220.813Z" fill="#FFB164"/>
<path d="M215.434 117.835C215.619 117.757 215.804 117.685 215.988 117.607C216.07 117.577 216.139 117.53 216.195 117.466C216.263 117.41 216.311 117.341 216.345 117.255C216.384 117.174 216.397 117.088 216.392 117.002C216.401 116.916 216.384 116.835 216.349 116.757C216.324 116.71 216.294 116.659 216.268 116.611C216.195 116.517 216.104 116.448 215.997 116.401C215.941 116.384 215.885 116.371 215.83 116.354C215.714 116.341 215.606 116.354 215.499 116.397C215.314 116.474 215.129 116.547 214.944 116.624C214.863 116.654 214.794 116.702 214.738 116.766C214.669 116.822 214.622 116.89 214.588 116.976C214.549 117.058 214.536 117.144 214.541 117.23C214.532 117.315 214.549 117.397 214.583 117.474L214.665 117.62C214.738 117.715 214.828 117.783 214.936 117.83C214.992 117.848 215.048 117.861 215.103 117.878C215.219 117.891 215.327 117.878 215.434 117.835Z" fill="#FFB164"/>
<path opacity="0.24" d="M211.988 127.789C212.886 129.111 213.857 130.48 215.288 131.193C215.808 131.45 216.564 131.545 216.848 131.043C217.08 130.635 216.818 130.133 216.556 129.742C215.98 128.892 215.357 128.042 215.099 127.051C214.661 125.359 214.278 121.449 211.589 121.471C208.804 121.492 211.271 126.733 211.988 127.793V127.789Z" fill="white"/>
<path d="M140.496 141.538C138.46 137.421 138.314 132.283 141.046 128.536C143.353 125.368 147.263 123.621 150.993 122.016C146.103 117.474 144.917 109.838 148.23 104.189C151.543 98.5406 159.066 95.3599 165.795 96.7635C164.291 91.7972 168.433 86.2772 173.821 85.1397C179.209 84.0022 185.01 86.7236 188.077 91.016C191.845 88.741 197.388 89.5609 200.224 92.8102C203.06 96.0596 202.802 101.296 199.657 104.288C204.998 108.744 205.526 117.333 200.761 122.329C203.648 124.625 205.199 128.304 204.77 131.82C204.34 135.339 201.938 138.593 198.574 140.224C199.27 142.529 199.949 145.087 198.81 147.234C197.483 149.74 194.153 150.706 191.158 150.77C188.163 150.835 185.13 150.273 182.199 150.835C183.33 153.638 181.035 156.827 178.088 158.003C175.14 159.179 171.789 158.887 168.596 158.57C165.009 158.214 161.421 157.862 157.833 157.505C155.822 157.308 153.704 157.072 152.071 155.956C150.185 154.668 149.468 151.513 147.727 149.753C145.042 147.036 142.223 145.032 140.496 141.538Z" fill="#89E269"/>
<path d="M207.322 141.58L206.94 148.611C206.94 148.611 210.557 158.729 225.75 160.622C242.847 162.751 255.531 157.312 255.634 146.989C255.651 145.315 253.404 140.846 253.404 140.846L207.03 141.207L207.322 141.58Z" fill="#59B24F"/>
<path d="M253.845 143.537C254.191 136.887 244.06 130.956 231.218 130.291C218.376 129.625 207.686 134.476 207.341 141.127C206.995 147.777 217.126 153.707 229.968 154.373C242.809 155.039 253.5 150.187 253.845 143.537Z" fill="#84D17D"/>
<path d="M252.295 143.07C252.407 148.135 242.95 152.775 231.121 152.397C219.288 152.019 208.856 146.448 208.744 141.383C208.633 136.318 218.906 131.227 230.739 131.605C242.572 131.982 252.183 138.005 252.295 143.07Z" fill="#B0EDA9"/>
<path d="M217.191 140.357C216.766 140.057 216.319 139.657 216.289 139.147C216.246 138.331 217.243 137.962 218.051 137.91C219.731 137.799 221.449 138.052 223.065 138.644C222.545 138.044 222.12 137.365 221.806 136.64C221.742 136.485 221.677 136.318 221.724 136.163C221.832 135.799 222.365 135.863 222.73 136.005C224.59 136.726 226.361 137.709 227.972 138.915C227.503 138.207 227.121 137.413 227.069 136.584C227.018 135.756 227.353 134.884 228.058 134.489C228.981 133.97 230.249 134.416 231.005 135.232C231.761 136.048 232.118 137.142 232.406 138.202C233.824 136.992 235.753 136.391 237.665 136.571C238.112 136.614 238.627 136.743 238.847 137.151C239.182 137.773 238.559 138.417 238.004 138.799C240.179 138.189 242.722 138.825 244.462 140.413C244.677 140.61 244.896 140.859 244.879 141.138C244.87 141.31 244.776 141.456 244.673 141.589C243.925 142.572 242.735 143.143 241.511 143.392C240.282 143.645 239.001 143.606 237.734 143.568C238.984 144.001 240.179 144.602 241.287 145.349C241.425 145.444 241.575 145.555 241.609 145.718C241.635 145.851 241.575 145.984 241.511 146.096C240.733 147.414 238.911 147.783 237.377 147.367C235.848 146.95 234.533 145.924 233.274 144.924C233.901 145.697 234.369 146.671 234.228 147.62C234.086 148.568 233.145 149.38 232.204 149.109C231.787 148.989 231.439 148.689 231.126 148.38C230.18 147.435 229.433 146.294 228.951 145.062C228.883 146.688 227.491 148.083 225.871 148.156C225.45 148.174 224.986 148.096 224.685 147.787C224.324 147.418 224.302 146.821 224.504 146.371C224.706 145.92 225.08 145.581 225.445 145.255C224.307 145.98 222.807 146.646 221.621 145.873C221.265 145.641 220.964 145.212 221.084 144.821C221.162 144.572 221.381 144.409 221.596 144.268C222.146 143.903 223.658 143.426 223.856 142.834C221.445 142.332 219.288 141.847 217.191 140.357Z" fill="#C1FFB8"/>
<path d="M130.992 178.426L138.636 184.286C138.636 184.286 154.087 189.2 172.472 177.89C193.165 165.159 200.478 150.183 188.761 141.971C186.861 140.64 179.347 139.014 179.347 139.014L130.249 178.384L130.988 178.431L130.992 178.426Z" fill="#59B24F"/>
<path d="M164.473 172.824C180.073 163.79 189.232 150.454 184.928 143.037C180.625 135.621 164.49 136.933 148.889 145.967C133.289 155.002 124.13 168.338 128.434 175.754C132.737 183.17 148.872 181.858 164.473 172.824Z" fill="#84D17D"/>
<path d="M180.713 141.696C186.629 145.59 181.852 157.213 168.785 166.888C155.719 176.559 138.202 180.972 132.285 177.074C126.369 173.181 131.508 160.51 144.57 150.839C157.631 141.168 174.792 137.803 180.709 141.696H180.713Z" fill="#B0EDA9"/>
<path d="M140.127 169.146C139.327 169.267 138.395 169.331 137.781 168.953C136.797 168.348 137.446 167.215 138.245 166.494C139.912 164.991 142.039 163.738 144.441 162.845C143.199 162.811 141.966 162.635 140.801 162.33C140.556 162.266 140.294 162.184 140.165 162.021C139.869 161.643 140.5 161.244 141.055 161.047C143.865 160.046 146.881 159.33 149.983 158.922C148.673 158.759 147.354 158.458 146.348 157.849C145.343 157.239 144.707 156.269 145.003 155.363C145.394 154.179 147.259 153.458 149.004 153.466C150.744 153.471 152.376 154.033 153.897 154.621C154.022 152.475 155.397 150.371 157.648 148.903C158.177 148.56 158.873 148.229 159.569 148.363C160.643 148.573 160.712 149.603 160.557 150.371C162.181 148.058 165.619 146.414 169.297 146.199C169.752 146.173 170.272 146.182 170.577 146.418C170.762 146.56 170.826 146.757 170.873 146.946C171.2 148.354 170.581 149.8 169.563 151.032C168.545 152.264 167.131 153.316 165.735 154.355C167.561 153.642 169.529 153.106 171.565 152.762C171.823 152.719 172.111 152.681 172.334 152.784C172.515 152.865 172.601 153.02 172.661 153.166C173.34 154.861 171.814 156.686 169.705 157.647C167.595 158.609 165.021 158.909 162.529 159.184C164.08 159.265 165.7 159.634 166.637 160.501C167.574 161.369 167.501 162.798 166.186 163.382C165.602 163.639 164.888 163.699 164.201 163.716C162.113 163.772 160.007 163.502 158.082 162.935C159.874 164.274 159.986 166.545 158.336 167.97C157.911 168.339 157.322 168.666 156.647 168.678C155.84 168.691 155.135 168.236 154.83 167.713C154.529 167.189 154.542 166.605 154.559 166.039C154.177 167.567 153.335 169.357 151.182 169.747C150.537 169.863 149.725 169.782 149.407 169.374C149.205 169.116 149.253 168.799 149.321 168.507C149.493 167.751 150.559 166.107 150.091 165.472C146.941 167.107 144.084 168.541 140.14 169.138L140.127 169.146Z" fill="#C1FFB8"/>
<path d="M141.076 96.536L134.077 99.6093C134.077 99.6093 125.862 108.151 130.786 124.08C136.328 142.01 147.263 151.865 157.335 146.903C158.968 146.096 162.31 141.688 162.31 141.688L141.308 96.0681L141.076 96.5403V96.536Z" fill="#59B24F"/>
<path d="M159.524 143.576C166.294 141.068 167.841 128.418 162.978 115.322C158.116 102.226 148.686 93.6432 141.916 96.1518C135.146 98.6604 133.599 111.31 138.461 124.406C143.323 137.502 152.753 146.085 159.524 143.576Z" fill="#84D17D"/>
<path d="M159.655 141.683C154.787 144.276 146.065 137.219 141.167 125.347C136.264 113.478 137.029 100.438 141.897 97.8452C146.765 95.2526 156.286 102.897 161.189 114.77C166.091 126.643 164.523 139.091 159.655 141.683Z" fill="#B0EDA9"/>
<path d="M146.658 105.679C146.761 105.112 146.95 104.473 147.431 104.198C148.204 103.751 149.008 104.558 149.42 105.331C150.275 106.936 150.8 108.761 150.937 110.645C151.289 109.838 151.758 109.083 152.321 108.417C152.441 108.276 152.578 108.13 152.75 108.1C153.15 108.031 153.33 108.585 153.352 109.014C153.481 111.203 153.313 113.435 152.858 115.62C153.339 114.809 153.936 114.04 154.722 113.581C155.504 113.122 156.501 113.027 157.197 113.529C158.113 114.186 158.241 115.659 157.786 116.805C157.331 117.951 156.428 118.839 155.526 119.646C157.335 120.449 158.774 122.063 159.453 124.042C159.612 124.505 159.715 125.076 159.419 125.488C158.963 126.123 158.061 125.827 157.442 125.462C159.006 127.312 159.518 130.132 158.753 132.631C158.658 132.94 158.512 133.279 158.233 133.399C158.065 133.472 157.876 133.451 157.704 133.416C156.415 133.159 155.333 132.266 154.542 131.176C153.751 130.085 153.214 128.806 152.686 127.536C152.823 128.982 152.772 130.459 152.54 131.918C152.51 132.103 152.467 132.304 152.325 132.42C152.209 132.515 152.054 132.519 151.912 132.506C150.284 132.386 149.12 130.763 148.84 129.047C148.561 127.33 148.974 125.531 149.382 123.797C148.913 124.793 148.17 125.737 147.186 126.063C146.202 126.39 144.995 125.857 144.836 124.797C144.767 124.325 144.9 123.836 145.064 123.376C145.558 121.981 146.335 120.681 147.319 119.603C145.708 120.333 143.732 119.646 142.941 118.079C142.735 117.672 142.606 117.178 142.774 116.727C142.971 116.186 143.543 115.877 144.071 115.852C144.6 115.826 145.094 116.032 145.575 116.234C144.363 115.465 143.048 114.311 143.272 112.761C143.341 112.298 143.62 111.791 144.054 111.714C144.329 111.667 144.587 111.808 144.819 111.946C145.42 112.31 146.555 113.568 147.221 113.474C146.636 110.847 146.146 108.477 146.658 105.679Z" fill="#C1FFB8"/>
<path d="M109.522 151.225C109.522 151.225 110.948 170.404 135.766 166.94C160.583 163.48 155.853 143.452 155.853 143.452L109.526 151.225H109.522Z" fill="#E24C24"/>
<path d="M134.165 156.7C146.978 154.691 156.724 148.977 155.932 143.937C155.14 138.897 144.111 136.44 131.297 138.449C118.483 140.458 108.738 146.173 109.529 151.213C110.321 156.253 121.351 158.709 134.165 156.7Z" fill="#FF5A27"/>
<path d="M133.993 155.61C145.742 153.768 154.702 148.679 154.005 144.243C153.308 139.808 143.218 137.705 131.469 139.548C119.719 141.39 110.76 146.479 111.456 150.915C112.153 155.35 122.243 157.453 133.993 155.61Z" fill="#FF8B78"/>
<path d="M124.105 145.855C123.314 146.379 122.48 147.19 122.674 148.118C122.751 148.5 123.005 148.852 122.992 149.242C122.979 149.629 122.704 149.98 122.738 150.363C122.764 150.637 122.949 150.869 123.151 151.054C124.453 152.243 126.489 151.903 128.204 151.496C132.651 150.435 137.098 149.375 141.545 148.315C142.696 148.04 144.028 147.607 144.393 146.482C144.698 145.542 144.131 144.495 143.311 143.945C142.49 143.396 141.476 143.237 140.496 143.117C137.549 142.765 134.52 142.692 131.598 143.306C128.93 143.868 126.433 144.31 124.109 145.851L124.105 145.855Z" fill="#FF5A27"/>
<path d="M115.778 150.461C116.598 150.285 117.41 150.054 118.209 149.787C118.356 149.736 118.493 149.569 118.549 149.431C118.609 149.281 118.609 149.071 118.536 148.925C118.364 148.586 118.02 148.483 117.672 148.598C117.432 148.68 117.187 148.757 116.942 148.83L117.11 148.779C116.603 148.929 116.096 149.058 115.58 149.169C115.245 149.242 114.961 149.556 115.034 149.916C115.103 150.247 115.421 150.539 115.782 150.461H115.778Z" fill="#FFB164"/>
<path d="M117.256 147.59C118.085 147.461 117.883 146.169 117.054 146.302C116.225 146.431 116.426 147.723 117.256 147.59Z" fill="#FFB164"/>
<path d="M117.256 147.568C117.75 147.53 118.244 147.495 118.738 147.457C118.897 147.444 119.073 147.319 119.163 147.195C119.258 147.066 119.314 146.869 119.279 146.71C119.245 146.543 119.163 146.379 119.017 146.285C118.867 146.186 118.712 146.156 118.532 146.169C118.038 146.208 117.544 146.242 117.049 146.281C116.89 146.294 116.714 146.418 116.624 146.543C116.529 146.671 116.474 146.869 116.508 147.028C116.542 147.195 116.624 147.358 116.77 147.452C116.92 147.551 117.075 147.581 117.256 147.568Z" fill="#FFB164"/>
<path d="M120.977 143.838C121.041 143.958 121.118 144.083 121.209 144.186C121.303 144.289 121.406 144.392 121.522 144.469C121.759 144.628 122.021 144.735 122.304 144.77C122.395 144.782 122.481 144.77 122.562 144.74C122.648 144.722 122.725 144.684 122.79 144.624C122.859 144.572 122.91 144.508 122.945 144.431C122.992 144.358 123.018 144.28 123.026 144.194C123.026 144.134 123.026 144.079 123.026 144.018C123.009 143.903 122.962 143.8 122.889 143.705C122.773 143.576 122.631 143.49 122.455 143.469C122.412 143.465 122.373 143.456 122.33 143.448L122.493 143.49C122.403 143.469 122.322 143.435 122.24 143.392L122.386 143.473C122.304 143.426 122.227 143.37 122.158 143.306C122.197 143.345 122.24 143.383 122.279 143.422C122.214 143.357 122.154 143.289 122.107 143.211C122.137 143.259 122.167 143.306 122.197 143.353C122.184 143.336 122.175 143.319 122.167 143.297C122.133 143.216 122.085 143.151 122.017 143.096C121.961 143.031 121.892 142.988 121.81 142.958C121.729 142.924 121.643 142.911 121.557 142.92C121.467 142.915 121.385 142.932 121.303 142.971C121.157 143.044 121.02 143.164 120.964 143.327C120.908 143.486 120.895 143.679 120.977 143.834V143.838Z" fill="#FFB164"/>
<path d="M125.252 142.426C125.325 142.662 125.398 142.902 125.475 143.138C125.51 143.22 125.557 143.284 125.626 143.34C125.682 143.405 125.75 143.447 125.832 143.478C125.914 143.512 125.999 143.525 126.085 143.516C126.176 143.52 126.257 143.503 126.339 143.465C126.485 143.392 126.622 143.271 126.678 143.108L126.721 142.945C126.734 142.825 126.717 142.713 126.665 142.602C126.592 142.366 126.519 142.125 126.442 141.889C126.408 141.808 126.36 141.743 126.292 141.688C126.236 141.623 126.167 141.58 126.085 141.55C126.004 141.516 125.918 141.503 125.832 141.512C125.742 141.507 125.66 141.524 125.578 141.563C125.432 141.636 125.295 141.756 125.239 141.919L125.196 142.083C125.183 142.203 125.2 142.314 125.252 142.426Z" fill="#FFB164"/>
<path d="M134.077 141.872C134.253 141.632 134.429 141.387 134.606 141.147C134.657 141.078 134.692 141.001 134.704 140.919C134.734 140.838 134.739 140.752 134.722 140.662C134.713 140.572 134.679 140.494 134.627 140.422C134.588 140.344 134.533 140.284 134.459 140.237C134.412 140.211 134.361 140.185 134.313 140.155C134.202 140.112 134.09 140.1 133.974 140.117L133.806 140.168C133.703 140.215 133.617 140.284 133.549 140.379C133.372 140.619 133.196 140.864 133.02 141.104C132.964 141.173 132.934 141.25 132.921 141.331C132.891 141.413 132.887 141.499 132.904 141.589C132.913 141.679 132.947 141.756 132.999 141.829C133.037 141.907 133.093 141.967 133.166 142.014C133.213 142.04 133.265 142.065 133.312 142.096C133.424 142.138 133.536 142.151 133.652 142.134C133.708 142.117 133.763 142.1 133.819 142.083C133.922 142.035 134.008 141.967 134.077 141.872Z" fill="#FFB164"/>
<path d="M140.11 141.855C140.505 141.671 140.9 141.49 141.3 141.306C141.45 141.237 141.579 141.104 141.639 140.95C141.699 140.799 141.699 140.589 141.626 140.443C141.553 140.297 141.433 140.16 141.27 140.104C141.102 140.048 140.926 140.044 140.763 140.117C140.367 140.301 139.972 140.482 139.573 140.666C139.422 140.735 139.293 140.868 139.233 141.022C139.173 141.173 139.173 141.383 139.246 141.529C139.319 141.675 139.439 141.812 139.603 141.868C139.77 141.924 139.946 141.928 140.11 141.855Z" fill="#FFB164"/>
<path d="M144.819 142.945C145.515 142.885 146.194 142.726 146.851 142.495C146.997 142.443 147.135 142.28 147.19 142.138C147.251 141.988 147.251 141.778 147.178 141.632C147.105 141.486 146.984 141.349 146.821 141.293C146.645 141.233 146.486 141.246 146.314 141.306C146.185 141.349 146.06 141.392 145.927 141.43L146.095 141.379C145.614 141.52 145.115 141.61 144.617 141.658C144.277 141.688 144.007 142.074 144.071 142.405C144.144 142.769 144.453 142.98 144.819 142.95V142.945Z" fill="#FFB164"/>
<path d="M147.839 145.564C148.488 145.598 149.137 145.637 149.79 145.671C149.966 145.68 150.138 145.641 150.276 145.529C150.396 145.431 150.499 145.255 150.512 145.096C150.533 144.761 150.301 144.392 149.936 144.375C149.287 144.34 148.639 144.302 147.985 144.268C147.809 144.259 147.637 144.298 147.5 144.409C147.38 144.508 147.276 144.68 147.264 144.843C147.242 145.177 147.474 145.547 147.839 145.564Z" fill="#FFB164"/>
<path d="M145.3 148.234L146.469 148.92C146.537 148.976 146.615 149.006 146.696 149.019C146.778 149.049 146.864 149.053 146.954 149.036C147.113 149.011 147.289 148.912 147.379 148.774C147.474 148.633 147.53 148.461 147.495 148.289C147.461 148.131 147.384 147.95 147.233 147.864L146.065 147.178C145.996 147.122 145.919 147.092 145.837 147.079C145.755 147.049 145.669 147.045 145.579 147.062C145.42 147.088 145.244 147.186 145.154 147.324C145.059 147.465 145.003 147.637 145.038 147.809C145.072 147.968 145.15 148.148 145.3 148.234Z" fill="#FFB164"/>
<path d="M140.892 150.951C140.952 151.019 141.003 151.088 141.055 151.165L140.965 151.024C141.033 151.135 141.085 151.251 141.124 151.376L141.072 151.208C141.085 151.251 141.094 151.29 141.102 151.333C141.111 151.423 141.145 151.5 141.197 151.573C141.235 151.65 141.291 151.71 141.364 151.758C141.433 151.813 141.51 151.844 141.592 151.856C141.674 151.886 141.76 151.891 141.85 151.874C142.017 151.839 142.181 151.758 142.275 151.612C142.37 151.47 142.43 151.294 142.391 151.127C142.353 150.942 142.297 150.758 142.211 150.59C142.125 150.427 142.026 150.264 141.901 150.127C141.79 150.002 141.639 149.912 141.467 149.89C141.377 149.878 141.291 149.89 141.21 149.921C141.124 149.938 141.046 149.976 140.982 150.036C140.857 150.148 140.758 150.298 140.746 150.47V150.646C140.767 150.762 140.814 150.865 140.887 150.959L140.892 150.951Z" fill="#FFB164"/>
<path d="M134.064 152.93C134.133 153.058 134.189 153.196 134.227 153.333C134.21 153.277 134.193 153.221 134.176 153.166C134.223 153.333 134.253 153.509 134.266 153.681C134.275 153.771 134.309 153.848 134.361 153.921C134.399 153.998 134.455 154.058 134.528 154.106C134.657 154.2 134.855 154.256 135.014 154.222C135.181 154.187 135.345 154.106 135.439 153.96L135.521 153.814C135.564 153.702 135.577 153.591 135.559 153.475C135.551 153.312 135.525 153.149 135.482 152.99C135.422 152.779 135.357 152.578 135.259 152.384C135.181 152.234 135.065 152.11 134.902 152.045C134.82 152.011 134.734 151.998 134.649 152.007C134.558 152.002 134.477 152.02 134.395 152.058C134.249 152.131 134.111 152.251 134.056 152.414C134 152.573 133.987 152.766 134.069 152.921L134.064 152.93Z" fill="#FFB164"/>
<path d="M128.998 153.548C129.016 153.621 129.024 153.694 129.024 153.767V153.591C129.024 153.694 129.011 153.797 128.985 153.895L129.028 153.732C129.003 153.827 128.968 153.917 128.921 154.003C128.947 153.955 128.973 153.904 129.003 153.857C128.96 153.934 128.908 154.007 128.848 154.071C128.792 154.14 128.762 154.217 128.749 154.299C128.719 154.38 128.715 154.466 128.732 154.556C128.758 154.715 128.857 154.891 128.994 154.981C129.136 155.076 129.308 155.131 129.48 155.097C129.535 155.08 129.591 155.063 129.647 155.046C129.75 154.998 129.836 154.93 129.905 154.835C130.004 154.728 130.068 154.604 130.137 154.475C130.184 154.389 130.219 154.303 130.24 154.209C130.279 154.067 130.313 153.93 130.317 153.784C130.317 153.638 130.317 153.483 130.287 153.342C130.249 153.17 130.171 153.02 130.025 152.917C129.896 152.822 129.699 152.766 129.54 152.801C129.372 152.835 129.209 152.917 129.114 153.063C129.024 153.2 128.96 153.38 128.998 153.548Z" fill="#FFB164"/>
<path d="M123.327 152.273C123.194 152.466 123.043 152.646 122.884 152.814L123 152.693C122.76 152.947 122.498 153.17 122.21 153.367C122.081 153.453 121.991 153.651 121.973 153.801C121.956 153.964 122.008 154.166 122.115 154.286C122.227 154.41 122.377 154.509 122.549 154.522H122.725C122.841 154.5 122.944 154.453 123.039 154.38C123.563 154.024 124.023 153.56 124.388 153.045C124.487 152.908 124.53 152.728 124.504 152.56C124.478 152.402 124.38 152.226 124.242 152.135C124.1 152.041 123.928 151.985 123.757 152.019C123.589 152.054 123.43 152.135 123.331 152.281L123.327 152.273Z" fill="#FFB164"/>
<path d="M117.66 153.329C117.776 153.166 117.896 153.007 118.012 152.844C118.068 152.775 118.098 152.698 118.111 152.616C118.141 152.535 118.145 152.449 118.128 152.359C118.119 152.269 118.085 152.191 118.033 152.118C117.995 152.041 117.939 151.981 117.866 151.934L117.72 151.852C117.608 151.809 117.496 151.796 117.38 151.814C117.324 151.831 117.269 151.848 117.213 151.865C117.11 151.912 117.024 151.981 116.955 152.075C116.839 152.238 116.719 152.397 116.603 152.56C116.547 152.629 116.517 152.706 116.504 152.788C116.474 152.869 116.469 152.955 116.487 153.045C116.495 153.136 116.53 153.213 116.581 153.286C116.62 153.363 116.676 153.423 116.749 153.47C116.796 153.496 116.848 153.522 116.895 153.552C117.007 153.595 117.118 153.608 117.234 153.591C117.29 153.573 117.346 153.556 117.402 153.539C117.505 153.492 117.591 153.423 117.66 153.329Z" fill="#FFB164"/>
<path opacity="0.24" d="M119.95 163.613C121.406 164.27 122.953 164.927 124.547 164.785C125.123 164.734 125.819 164.416 125.797 163.836C125.78 163.369 125.295 163.077 124.865 162.884C123.928 162.459 122.953 162.064 122.21 161.351C120.947 160.141 118.571 157.012 116.293 158.437C113.934 159.913 118.785 163.085 119.95 163.609V163.613Z" fill="white"/>
<path d="M161.962 137.619C161.962 137.619 174.006 152.621 192.503 135.734C211 118.848 195.751 105.014 195.751 105.014L161.962 137.619Z" fill="#E24C24"/>
<path d="M185.382 128.223C194.808 119.321 199.605 109.1 196.097 105.393C192.589 101.685 182.104 105.896 172.678 114.798C163.252 123.699 158.455 133.921 161.963 137.628C165.471 141.335 175.956 137.124 185.382 128.223Z" fill="#FF5A27"/>
<path d="M184.62 127.418C193.263 119.256 197.767 109.994 194.679 106.731C191.592 103.469 182.082 107.44 173.44 115.602C164.797 123.765 160.293 133.026 163.381 136.289C166.468 139.552 175.977 135.58 184.62 127.418Z" fill="#FF8B78"/>
<path d="M170.942 124.947C170.586 125.827 170.358 126.965 171.046 127.622C171.329 127.892 171.733 128.038 171.944 128.368C172.15 128.695 172.124 129.141 172.373 129.433C172.549 129.643 172.833 129.733 173.104 129.768C174.852 130.008 176.339 128.583 177.521 127.274C180.584 123.883 183.652 120.496 186.715 117.105C187.51 116.23 188.361 115.118 188.026 113.985C187.747 113.036 186.685 112.495 185.697 112.508C184.709 112.521 183.781 112.959 182.909 113.418C180.279 114.796 177.74 116.448 175.682 118.603C173.8 120.578 171.995 122.351 170.951 124.939L170.942 124.947Z" fill="#FF5A27"/>
<path d="M166.684 133.451C167.26 132.841 167.801 132.193 168.304 131.519C168.399 131.395 168.416 131.18 168.382 131.034C168.343 130.875 168.227 130.704 168.085 130.622C167.75 130.438 167.406 130.549 167.187 130.841C167.032 131.047 166.878 131.249 166.714 131.446L166.826 131.309C166.495 131.717 166.147 132.116 165.786 132.498C165.554 132.747 165.498 133.163 165.761 133.421C166.001 133.657 166.431 133.713 166.684 133.447V133.451Z" fill="#FFB164"/>
<path d="M166.281 130.249C166.891 129.673 165.997 128.72 165.383 129.3C164.772 129.875 165.666 130.828 166.281 130.249Z" fill="#FFB164"/>
<path d="M166.268 130.231C166.654 129.922 167.041 129.613 167.428 129.304C167.552 129.205 167.63 129.004 167.634 128.849C167.638 128.69 167.574 128.497 167.458 128.381C167.337 128.265 167.174 128.175 167.002 128.175C166.822 128.175 166.676 128.24 166.534 128.351C166.147 128.66 165.761 128.969 165.374 129.278C165.249 129.377 165.172 129.579 165.168 129.733C165.163 129.892 165.228 130.085 165.344 130.201C165.464 130.317 165.627 130.407 165.799 130.407C165.98 130.407 166.126 130.343 166.268 130.231Z" fill="#FFB164"/>
<path d="M167.222 125.055C167.346 125.119 167.475 125.179 167.613 125.209C167.75 125.244 167.892 125.265 168.034 125.265C168.317 125.265 168.597 125.201 168.85 125.072C168.932 125.033 168.996 124.973 169.048 124.9C169.108 124.836 169.151 124.763 169.172 124.677C169.198 124.596 169.207 124.514 169.189 124.428C169.189 124.342 169.164 124.261 169.121 124.188C169.086 124.141 169.052 124.093 169.018 124.046C168.936 123.96 168.837 123.9 168.725 123.87C168.558 123.827 168.39 123.84 168.236 123.922C168.197 123.943 168.158 123.956 168.12 123.973C168.171 123.952 168.227 123.935 168.279 123.913C168.193 123.943 168.102 123.965 168.012 123.973C168.068 123.969 168.124 123.96 168.18 123.956C168.085 123.965 167.991 123.965 167.896 123.947C167.952 123.956 168.008 123.965 168.059 123.973C167.969 123.96 167.883 123.935 167.797 123.896L167.952 123.965C167.952 123.965 167.913 123.947 167.896 123.939C167.823 123.892 167.746 123.866 167.66 123.857C167.578 123.836 167.497 123.84 167.411 123.857C167.325 123.874 167.247 123.909 167.183 123.969C167.106 124.016 167.045 124.076 167.002 124.158C166.921 124.304 166.878 124.48 166.925 124.643C166.972 124.806 167.067 124.973 167.222 125.055Z" fill="#FFB164"/>
<path d="M169.946 121.471C170.143 121.625 170.337 121.78 170.534 121.934C170.607 121.981 170.685 122.007 170.771 122.016C170.852 122.037 170.934 122.033 171.02 122.016C171.106 121.999 171.183 121.964 171.248 121.904C171.325 121.857 171.385 121.797 171.428 121.715C171.51 121.569 171.553 121.393 171.505 121.23C171.484 121.179 171.467 121.123 171.445 121.071C171.389 120.964 171.308 120.883 171.205 120.818C171.007 120.664 170.814 120.509 170.616 120.355C170.543 120.307 170.466 120.282 170.38 120.273C170.298 120.252 170.216 120.256 170.13 120.273C170.044 120.29 169.967 120.325 169.903 120.385C169.825 120.432 169.765 120.492 169.722 120.574C169.641 120.719 169.598 120.895 169.645 121.059C169.666 121.11 169.684 121.166 169.705 121.217C169.761 121.325 169.843 121.406 169.946 121.471Z" fill="#FFB164"/>
<path d="M176.906 116.019C176.915 115.719 176.923 115.423 176.932 115.122C176.936 115.036 176.923 114.955 176.885 114.877C176.859 114.792 176.816 114.719 176.752 114.654C176.691 114.586 176.623 114.538 176.537 114.508C176.464 114.47 176.382 114.448 176.296 114.448L176.129 114.465C176.013 114.491 175.914 114.547 175.828 114.629L175.716 114.766C175.656 114.865 175.626 114.972 175.622 115.084C175.613 115.384 175.604 115.68 175.596 115.981C175.591 116.066 175.604 116.148 175.643 116.225C175.669 116.311 175.712 116.384 175.776 116.449C175.836 116.517 175.905 116.564 175.991 116.594C176.064 116.633 176.146 116.655 176.232 116.655L176.399 116.637C176.515 116.612 176.614 116.556 176.7 116.474L176.812 116.337C176.872 116.238 176.902 116.131 176.906 116.019Z" fill="#FFB164"/>
<path d="M181.869 112.598C182.092 112.225 182.316 111.847 182.539 111.474C182.625 111.332 182.655 111.147 182.616 110.989C182.578 110.83 182.462 110.658 182.32 110.577C182.174 110.495 181.998 110.452 181.834 110.499C181.667 110.547 181.516 110.645 181.422 110.796C181.199 111.169 180.975 111.547 180.752 111.92C180.666 112.062 180.636 112.246 180.674 112.405C180.713 112.564 180.829 112.736 180.971 112.817C181.117 112.899 181.293 112.942 181.456 112.895C181.624 112.847 181.774 112.749 181.869 112.598Z" fill="#FFB164"/>
<path d="M186.372 110.834C186.909 110.392 187.381 109.873 187.79 109.31C187.88 109.186 187.901 108.971 187.867 108.825C187.828 108.667 187.712 108.495 187.571 108.413C187.424 108.332 187.248 108.289 187.085 108.336C186.909 108.383 186.784 108.486 186.673 108.632C186.591 108.739 186.509 108.847 186.428 108.954L186.539 108.817C186.221 109.207 185.865 109.564 185.478 109.881C185.212 110.1 185.212 110.568 185.452 110.804C185.723 111.066 186.092 111.062 186.376 110.83L186.372 110.834Z" fill="#FFB164"/>
<path d="M190.342 111.285C190.896 110.946 191.455 110.611 192.009 110.272C192.159 110.182 192.28 110.049 192.331 109.877C192.374 109.727 192.361 109.525 192.28 109.388C192.108 109.096 191.708 108.928 191.395 109.117L189.727 110.13C189.577 110.22 189.457 110.353 189.405 110.525C189.362 110.675 189.375 110.877 189.457 111.014C189.629 111.306 190.028 111.474 190.342 111.285Z" fill="#FFB164"/>
<path d="M189.762 114.92L191.115 114.826C191.201 114.83 191.283 114.817 191.36 114.779C191.446 114.753 191.519 114.71 191.584 114.646C191.7 114.534 191.79 114.354 191.79 114.191C191.79 114.023 191.738 113.843 191.614 113.723C191.498 113.611 191.326 113.508 191.158 113.517L189.805 113.611C189.719 113.607 189.637 113.62 189.56 113.659C189.474 113.684 189.401 113.727 189.336 113.792C189.22 113.903 189.13 114.083 189.13 114.247C189.13 114.414 189.182 114.594 189.306 114.714C189.422 114.826 189.594 114.929 189.762 114.92Z" fill="#FFB164"/>
<path d="M187.669 119.655C187.755 119.676 187.841 119.706 187.923 119.741C187.871 119.719 187.82 119.693 187.768 119.672C187.884 119.724 187.996 119.792 188.095 119.869L187.957 119.758C187.992 119.784 188.022 119.814 188.052 119.844C188.112 119.912 188.181 119.96 188.267 119.99C188.34 120.028 188.421 120.05 188.507 120.05C188.593 120.054 188.675 120.041 188.752 120.003C188.838 119.977 188.911 119.934 188.976 119.869C189.092 119.749 189.182 119.586 189.182 119.414C189.182 119.247 189.13 119.067 189.006 118.947C188.868 118.818 188.718 118.698 188.555 118.608C188.391 118.517 188.215 118.444 188.035 118.397C187.871 118.359 187.695 118.367 187.545 118.449C187.463 118.487 187.399 118.547 187.347 118.62C187.287 118.685 187.244 118.758 187.223 118.844C187.184 119.007 187.184 119.187 187.274 119.333L187.377 119.475C187.459 119.56 187.553 119.621 187.669 119.651V119.655Z" fill="#FFB164"/>
<path d="M183.162 125.145C183.291 125.214 183.416 125.295 183.527 125.385C183.48 125.347 183.437 125.312 183.39 125.274C183.527 125.385 183.648 125.51 183.755 125.652C183.815 125.72 183.884 125.767 183.97 125.797C184.043 125.836 184.124 125.858 184.21 125.858C184.369 125.862 184.563 125.797 184.679 125.682C184.795 125.561 184.885 125.398 184.885 125.227L184.868 125.059C184.842 124.943 184.786 124.845 184.705 124.759C184.606 124.63 184.49 124.51 184.365 124.407C184.198 124.265 184.03 124.136 183.837 124.033C183.686 123.952 183.519 123.917 183.351 123.956C183.265 123.973 183.188 124.008 183.123 124.068C183.046 124.115 182.986 124.175 182.943 124.257C182.861 124.402 182.818 124.578 182.866 124.742C182.913 124.905 183.007 125.068 183.162 125.154V125.145Z" fill="#FFB164"/>
<path d="M179.334 128.523C179.39 128.575 179.437 128.626 179.48 128.686L179.377 128.544C179.437 128.63 179.484 128.72 179.523 128.815C179.501 128.763 179.484 128.708 179.463 128.656C179.497 128.746 179.519 128.845 179.527 128.939C179.523 128.884 179.514 128.828 179.51 128.772C179.519 128.858 179.519 128.948 179.506 129.034C179.501 129.12 179.514 129.201 179.553 129.278C179.579 129.364 179.622 129.437 179.686 129.502C179.798 129.618 179.978 129.708 180.142 129.708C180.309 129.708 180.49 129.656 180.61 129.532C180.649 129.485 180.683 129.442 180.722 129.394C180.782 129.296 180.812 129.188 180.816 129.077C180.838 128.931 180.82 128.793 180.803 128.647C180.795 128.553 180.773 128.459 180.739 128.368C180.692 128.231 180.64 128.098 180.563 127.974C180.481 127.849 180.395 127.725 180.283 127.626C180.154 127.506 180.004 127.428 179.828 127.42C179.669 127.416 179.476 127.48 179.36 127.596C179.244 127.716 179.153 127.879 179.153 128.051C179.153 128.218 179.205 128.399 179.329 128.519L179.334 128.523Z" fill="#FFB164"/>
<path d="M173.937 130.674C173.937 130.905 173.916 131.141 173.881 131.373L173.907 131.21C173.851 131.554 173.761 131.888 173.636 132.21C173.58 132.356 173.615 132.567 173.688 132.7C173.765 132.841 173.92 132.979 174.083 133.022C174.246 133.06 174.427 133.06 174.573 132.97L174.715 132.867C174.801 132.785 174.861 132.687 174.895 132.575C175.123 131.987 175.243 131.343 175.248 130.712C175.248 130.545 175.187 130.369 175.071 130.244C174.96 130.128 174.779 130.038 174.616 130.038C174.448 130.038 174.268 130.09 174.148 130.214C174.027 130.339 173.946 130.493 173.941 130.669L173.937 130.674Z" fill="#FFB164"/>
<path d="M169.864 134.751C169.868 134.554 169.877 134.352 169.881 134.155C169.885 134.069 169.873 133.987 169.834 133.91C169.808 133.824 169.765 133.751 169.701 133.687C169.641 133.618 169.572 133.571 169.486 133.541C169.413 133.502 169.331 133.481 169.245 133.481L169.078 133.498C168.962 133.524 168.863 133.579 168.777 133.661L168.665 133.798C168.605 133.897 168.575 134.004 168.571 134.116C168.566 134.313 168.558 134.515 168.554 134.713C168.549 134.798 168.562 134.88 168.601 134.957C168.627 135.043 168.67 135.116 168.734 135.18C168.794 135.249 168.863 135.296 168.949 135.326C169.022 135.365 169.103 135.387 169.189 135.387L169.357 135.369C169.473 135.344 169.572 135.288 169.658 135.206L169.769 135.069C169.83 134.97 169.86 134.863 169.864 134.751Z" fill="#FFB164"/>
<path opacity="0.24" d="M177.577 141.932C179.153 141.649 180.799 141.319 182.028 140.301C182.475 139.932 182.866 139.28 182.522 138.816C182.243 138.438 181.676 138.473 181.212 138.554C180.202 138.735 179.171 138.962 178.157 138.795C176.429 138.511 172.7 137.275 171.626 139.739C170.517 142.289 176.313 142.16 177.572 141.937L177.577 141.932Z" fill="white"/>
<path d="M184.614 159.484C184.614 159.484 190.161 177.898 213.642 169.151C237.119 160.403 228.161 141.872 228.161 141.872L184.619 159.48L184.614 159.484Z" fill="#E24C24"/>
<path d="M209.854 159.522C221.929 154.79 230.206 147.103 228.341 142.354C226.476 137.605 215.176 137.591 203.101 142.323C191.026 147.056 182.749 154.742 184.614 159.491C186.479 164.24 197.78 164.254 209.854 159.522Z" fill="#FF5A27"/>
<path d="M209.45 158.491C220.521 154.152 228.166 147.245 226.525 143.066C224.884 138.886 214.577 139.015 203.506 143.354C192.434 147.693 184.789 154.599 186.43 158.779C188.072 162.959 198.378 162.83 209.45 158.491Z" fill="#FF8B78"/>
<path d="M197.689 151.084C197.032 151.766 196.391 152.736 196.782 153.603C196.941 153.96 197.264 154.247 197.337 154.634C197.405 155.011 197.212 155.415 197.337 155.784C197.423 156.046 197.65 156.23 197.887 156.368C199.416 157.243 201.328 156.479 202.914 155.707C207.026 153.711 211.137 151.71 215.249 149.714C216.315 149.199 217.518 148.487 217.634 147.311C217.729 146.328 216.947 145.426 216.027 145.07C215.108 144.714 214.081 144.774 213.097 144.873C210.141 145.169 207.167 145.748 204.452 146.98C201.968 148.105 199.627 149.079 197.689 151.088V151.084Z" fill="#FF5A27"/>
<path d="M190.557 157.385C191.321 157.033 192.065 156.634 192.782 156.2C192.915 156.119 193.014 155.926 193.036 155.78C193.061 155.621 193.019 155.415 192.911 155.286C192.67 154.99 192.31 154.964 191.996 155.153C191.777 155.286 191.558 155.415 191.334 155.539L191.489 155.453C191.029 155.711 190.557 155.947 190.08 156.166C189.77 156.308 189.56 156.677 189.71 157.012C189.848 157.321 190.226 157.535 190.557 157.381V157.385Z" fill="#FFB164"/>
<path d="M191.382 154.265C192.164 153.96 191.687 152.741 190.905 153.05C190.123 153.355 190.6 154.574 191.382 154.265Z" fill="#FFB164"/>
<path d="M191.373 154.243C191.846 154.101 192.322 153.955 192.795 153.814C192.945 153.767 193.092 153.608 193.156 153.466C193.22 153.32 193.233 153.114 193.165 152.968C193.096 152.814 192.98 152.672 192.817 152.608C192.649 152.543 192.49 152.547 192.318 152.599C191.846 152.741 191.369 152.887 190.896 153.028C190.746 153.075 190.599 153.234 190.535 153.376C190.471 153.522 190.458 153.728 190.526 153.874C190.595 154.028 190.711 154.17 190.874 154.234C191.042 154.299 191.201 154.294 191.373 154.243Z" fill="#FFB164"/>
<path d="M194.2 149.796C194.29 149.899 194.389 150.006 194.505 150.088C194.621 150.169 194.742 150.242 194.875 150.298C195.137 150.405 195.42 150.448 195.704 150.423C195.794 150.418 195.876 150.388 195.949 150.337C196.026 150.302 196.095 150.247 196.147 150.178C196.202 150.114 196.237 150.036 196.254 149.955C196.284 149.873 196.293 149.792 196.28 149.706C196.267 149.65 196.254 149.594 196.237 149.534C196.194 149.423 196.125 149.332 196.035 149.259C195.897 149.161 195.734 149.105 195.562 149.122C195.519 149.122 195.481 149.126 195.438 149.126C195.494 149.126 195.549 149.126 195.605 149.131C195.515 149.131 195.425 149.113 195.335 149.088L195.494 149.135C195.403 149.109 195.317 149.071 195.236 149.023L195.378 149.109C195.3 149.062 195.227 149.006 195.163 148.942L195.283 149.062C195.283 149.062 195.253 149.032 195.24 149.015C195.188 148.942 195.128 148.89 195.051 148.852C194.982 148.804 194.905 148.774 194.819 148.762C194.733 148.744 194.647 148.749 194.565 148.779C194.48 148.792 194.398 148.826 194.329 148.886C194.2 148.993 194.093 149.139 194.076 149.307C194.058 149.474 194.084 149.667 194.2 149.8V149.796Z" fill="#FFB164"/>
<path d="M198.067 147.491C198.192 147.706 198.316 147.925 198.441 148.139C198.493 148.212 198.553 148.264 198.63 148.302C198.699 148.35 198.776 148.38 198.862 148.392C198.948 148.41 199.034 148.405 199.116 148.375C199.202 148.362 199.283 148.328 199.352 148.268C199.481 148.161 199.588 148.015 199.605 147.847V147.68C199.597 147.56 199.554 147.452 199.481 147.358C199.356 147.143 199.232 146.924 199.107 146.71C199.055 146.637 198.995 146.585 198.918 146.547C198.849 146.499 198.772 146.469 198.686 146.457C198.6 146.439 198.514 146.444 198.432 146.474C198.347 146.487 198.265 146.521 198.196 146.581C198.067 146.688 197.96 146.834 197.943 147.002V147.169C197.951 147.289 197.994 147.397 198.067 147.491Z" fill="#FFB164"/>
<path d="M206.566 145.04C206.686 144.765 206.807 144.491 206.927 144.216C206.966 144.139 206.983 144.057 206.974 143.971C206.983 143.885 206.974 143.799 206.935 143.718C206.905 143.632 206.858 143.563 206.789 143.503C206.734 143.439 206.669 143.387 206.587 143.357L206.428 143.31C206.312 143.293 206.201 143.306 206.089 143.349L205.934 143.435C205.844 143.503 205.775 143.589 205.728 143.696C205.608 143.971 205.488 144.246 205.367 144.521C205.329 144.598 205.311 144.679 205.32 144.765C205.311 144.851 205.32 144.937 205.359 145.018C205.389 145.104 205.436 145.173 205.505 145.233C205.561 145.297 205.625 145.349 205.707 145.379L205.866 145.426C205.982 145.443 206.093 145.431 206.205 145.388L206.36 145.302C206.45 145.233 206.519 145.147 206.566 145.04Z" fill="#FFB164"/>
<path d="M212.448 143.718C212.796 143.456 213.144 143.19 213.488 142.928C213.621 142.829 213.715 142.671 213.741 142.508C213.767 142.349 213.724 142.143 213.617 142.014C213.509 141.885 213.363 141.778 213.196 141.761C213.019 141.739 212.848 141.774 212.701 141.885C212.353 142.147 212.005 142.413 211.662 142.675C211.528 142.774 211.434 142.933 211.408 143.096C211.382 143.254 211.425 143.46 211.533 143.589C211.64 143.718 211.786 143.825 211.954 143.842C212.13 143.864 212.302 143.83 212.448 143.718Z" fill="#FFB164"/>
<path d="M217.282 143.765C217.948 143.555 218.575 143.25 219.168 142.885C219.301 142.804 219.4 142.611 219.422 142.465C219.447 142.306 219.404 142.1 219.297 141.971C219.19 141.842 219.043 141.735 218.876 141.718C218.691 141.696 218.541 141.744 218.382 141.842C218.266 141.915 218.15 141.984 218.034 142.048L218.188 141.962C217.746 142.203 217.286 142.405 216.805 142.555C216.478 142.658 216.298 143.096 216.435 143.4C216.586 143.744 216.934 143.881 217.282 143.77V143.765Z" fill="#FFB164"/>
<path d="M220.796 145.667C221.437 145.559 222.081 145.456 222.721 145.349C222.893 145.319 223.056 145.246 223.164 145.104C223.263 144.98 223.323 144.791 223.301 144.632C223.25 144.297 222.945 143.993 222.584 144.053C221.944 144.16 221.299 144.263 220.659 144.37C220.487 144.4 220.324 144.473 220.216 144.615C220.117 144.74 220.057 144.928 220.079 145.087C220.13 145.422 220.435 145.727 220.796 145.667Z" fill="#FFB164"/>
<path d="M218.897 148.822L220.186 149.238C220.264 149.277 220.345 149.294 220.431 149.285C220.517 149.294 220.603 149.285 220.685 149.247C220.835 149.186 220.985 149.053 221.046 148.899C221.106 148.74 221.127 148.56 221.054 148.401C220.99 148.251 220.869 148.092 220.706 148.04C220.276 147.903 219.847 147.761 219.417 147.624C219.34 147.585 219.258 147.568 219.172 147.577C219.086 147.568 219 147.577 218.919 147.615C218.768 147.675 218.618 147.809 218.558 147.963C218.498 148.122 218.476 148.302 218.549 148.461C218.614 148.611 218.734 148.77 218.897 148.822Z" fill="#FFB164"/>
<path d="M215.181 152.427C215.254 152.479 215.322 152.539 215.387 152.603C215.348 152.565 215.31 152.522 215.267 152.483C215.357 152.577 215.434 152.68 215.494 152.792L215.408 152.637C215.43 152.676 215.447 152.715 215.464 152.753C215.494 152.839 215.542 152.908 215.61 152.968C215.666 153.032 215.731 153.084 215.812 153.114C215.89 153.153 215.971 153.17 216.057 153.161C216.143 153.17 216.229 153.161 216.311 153.123C216.465 153.054 216.607 152.938 216.672 152.775C216.732 152.62 216.753 152.431 216.68 152.277C216.603 152.105 216.508 151.938 216.388 151.792C216.272 151.65 216.135 151.513 215.984 151.406C215.847 151.307 215.683 151.251 215.512 151.268C215.421 151.273 215.34 151.303 215.267 151.354C215.185 151.388 215.121 151.444 215.069 151.513C214.97 151.646 214.906 151.818 214.931 151.985L214.974 152.157C215.017 152.268 215.086 152.358 215.176 152.431L215.181 152.427Z" fill="#FFB164"/>
<path d="M208.946 155.84C209.041 155.951 209.122 156.072 209.195 156.2C209.165 156.149 209.14 156.097 209.109 156.046C209.195 156.2 209.26 156.363 209.307 156.531C209.337 156.617 209.384 156.685 209.453 156.746C209.509 156.81 209.574 156.861 209.655 156.891C209.801 156.956 210.007 156.969 210.154 156.9C210.308 156.831 210.45 156.715 210.514 156.552L210.562 156.394C210.579 156.278 210.566 156.166 210.523 156.054C210.48 155.896 210.42 155.745 210.343 155.599C210.239 155.406 210.132 155.222 209.99 155.054C209.879 154.926 209.741 154.827 209.569 154.801C209.483 154.784 209.397 154.788 209.316 154.818C209.23 154.831 209.148 154.865 209.079 154.926C208.95 155.033 208.843 155.179 208.826 155.346C208.809 155.514 208.834 155.702 208.95 155.84H208.946Z" fill="#FFB164"/>
<path d="M204.134 157.54C204.164 157.604 204.19 157.677 204.207 157.746L204.164 157.574C204.19 157.673 204.198 157.776 204.198 157.879V157.711C204.198 157.81 204.186 157.904 204.155 157.999L204.203 157.84C204.177 157.926 204.143 158.007 204.1 158.08C204.061 158.158 204.044 158.239 204.052 158.325C204.044 158.411 204.052 158.497 204.091 158.578C204.151 158.729 204.284 158.879 204.439 158.939C204.598 158.999 204.778 159.02 204.937 158.947C204.989 158.917 205.041 158.892 205.092 158.862C205.182 158.793 205.251 158.707 205.298 158.6C205.371 158.475 205.41 158.338 205.449 158.196C205.475 158.106 205.492 158.012 205.492 157.913C205.496 157.767 205.505 157.625 205.475 157.479C205.444 157.333 205.41 157.188 205.346 157.054C205.273 156.896 205.161 156.767 204.998 156.694C204.852 156.63 204.645 156.617 204.499 156.685C204.345 156.754 204.203 156.87 204.138 157.033C204.078 157.188 204.057 157.376 204.13 157.531L204.134 157.54Z" fill="#FFB164"/>
<path d="M198.321 157.518C198.23 157.733 198.127 157.943 198.007 158.145C198.037 158.098 198.063 158.05 198.093 158.003C197.912 158.299 197.706 158.578 197.466 158.832C197.358 158.943 197.311 159.153 197.328 159.304C197.345 159.467 197.44 159.651 197.573 159.746C197.706 159.845 197.878 159.909 198.046 159.883L198.218 159.84C198.329 159.797 198.42 159.729 198.493 159.638C198.927 159.179 199.275 158.625 199.519 158.042C199.584 157.887 199.592 157.703 199.528 157.544C199.468 157.394 199.335 157.243 199.18 157.183C199.021 157.123 198.841 157.102 198.682 157.175C198.523 157.243 198.389 157.359 198.321 157.522V157.518Z" fill="#FFB164"/>
<path d="M193.019 159.776C193.1 159.591 193.178 159.411 193.259 159.227C193.298 159.149 193.315 159.068 193.306 158.982C193.315 158.896 193.306 158.81 193.268 158.729C193.238 158.643 193.19 158.574 193.122 158.514C193.066 158.45 193.001 158.398 192.92 158.368L192.761 158.321C192.645 158.304 192.533 158.317 192.421 158.359L192.267 158.445C192.176 158.514 192.108 158.6 192.06 158.707C191.979 158.892 191.901 159.072 191.82 159.257C191.781 159.334 191.764 159.415 191.773 159.501C191.764 159.587 191.773 159.673 191.811 159.754C191.841 159.84 191.889 159.909 191.957 159.969C192.013 160.034 192.078 160.085 192.159 160.115L192.318 160.162C192.434 160.179 192.546 160.167 192.658 160.124C192.709 160.094 192.761 160.068 192.812 160.038C192.903 159.969 192.971 159.883 193.019 159.776Z" fill="#FFB164"/>
<path opacity="0.24" d="M197.483 169.322C199.047 169.648 200.701 169.957 202.222 169.472C202.772 169.296 203.382 168.837 203.236 168.279C203.116 167.824 202.579 167.644 202.119 167.549C201.113 167.339 200.074 167.163 199.197 166.631C197.702 165.721 194.703 163.18 192.791 165.064C190.806 167.013 196.228 169.06 197.483 169.322Z" fill="white"/>
<path d="M77.6706 127.244C77.6706 127.244 59.6591 134.03 70.0011 156.835C80.3431 179.637 98.2344 169.442 98.2344 169.442L77.6706 127.248V127.244Z" fill="#E24C24"/>
<path d="M97.7686 169.656C102.384 167.472 101.625 156.209 96.0738 144.498C90.5225 132.787 82.2809 125.063 77.6656 127.246C73.0503 129.43 73.8091 140.693 79.3604 152.405C84.9117 164.116 93.1533 171.839 97.7686 169.656Z" fill="#FF5A27"/>
<path d="M96.9337 167.894C100.996 165.973 100.162 155.71 95.0719 144.971C89.9817 134.233 82.5624 127.086 78.5004 129.007C74.4384 130.929 75.2719 141.192 80.3622 151.93C85.4524 162.669 92.8717 169.816 96.9337 167.894Z" fill="#FF8B78"/>
<path d="M86.9472 139.7C86.221 139.091 85.207 138.52 84.3692 138.971C84.0255 139.155 83.7591 139.494 83.381 139.593C83.0072 139.688 82.5904 139.524 82.2338 139.67C81.9803 139.773 81.8084 140.014 81.6881 140.258C80.919 141.842 81.8127 143.697 82.6935 145.225C84.9707 149.187 87.2437 153.148 89.5209 157.11C90.1095 158.136 90.9001 159.291 92.086 159.321C93.0742 159.347 93.9206 158.51 94.2171 157.565C94.5136 156.625 94.3804 155.608 94.2171 154.634C93.7187 151.711 92.9367 148.783 91.5231 146.16C90.2298 143.761 89.0998 141.495 86.9601 139.705L86.9472 139.7Z" fill="#FF5A27"/>
<path d="M80.1713 133.021C80.5752 133.76 81.022 134.472 81.5075 135.159C81.5978 135.283 81.7997 135.369 81.9458 135.382C82.1091 135.395 82.3067 135.339 82.427 135.228C82.7063 134.966 82.7063 134.605 82.4958 134.309C82.3497 134.099 82.2036 133.888 82.0661 133.674L82.1606 133.82C81.8727 133.378 81.6021 132.927 81.3529 132.463C81.1896 132.163 80.8072 131.983 80.4849 132.154C80.1885 132.313 79.9994 132.704 80.1756 133.021H80.1713Z" fill="#FFB164"/>
<path d="M83.3422 133.631C83.7031 134.391 84.8847 133.833 84.5237 133.073C84.1628 132.313 82.9812 132.871 83.3422 133.631Z" fill="#FFB164"/>
<path d="M83.3637 133.622C83.5399 134.086 83.7118 134.55 83.8879 135.013C83.9438 135.163 84.1114 135.296 84.2575 135.348C84.4078 135.404 84.6141 135.399 84.7559 135.322C84.9062 135.245 85.0394 135.116 85.091 134.953C85.1426 134.781 85.1297 134.622 85.0652 134.455C84.8891 133.992 84.7172 133.528 84.541 133.064C84.4852 132.914 84.3176 132.781 84.1715 132.73C84.0211 132.674 83.8149 132.678 83.6731 132.755C83.5227 132.833 83.3895 132.961 83.338 133.124C83.2864 133.296 83.2993 133.455 83.3637 133.622Z" fill="#FFB164"/>
<path d="M87.9997 136.133C87.9009 136.232 87.802 136.339 87.729 136.455C87.6559 136.576 87.5915 136.704 87.5442 136.837C87.4583 137.108 87.4325 137.391 87.4755 137.67C87.4884 137.76 87.5228 137.842 87.5743 137.91C87.613 137.988 87.6731 138.048 87.7462 138.095C87.8149 138.147 87.8923 138.177 87.9782 138.189C88.0598 138.215 88.1415 138.22 88.2274 138.198L88.395 138.147C88.5024 138.095 88.5883 138.022 88.6528 137.923C88.743 137.777 88.786 137.614 88.7559 137.443C88.7473 137.4 88.743 137.361 88.743 137.318L88.7516 137.486C88.7516 137.395 88.7559 137.305 88.7731 137.215C88.7602 137.271 88.7473 137.322 88.7387 137.378C88.7602 137.284 88.7903 137.198 88.8332 137.112C88.8075 137.164 88.7817 137.211 88.7559 137.262C88.7989 137.181 88.8504 137.108 88.9106 137.039C88.8719 137.082 88.8375 137.125 88.7989 137.164C88.8117 137.146 88.8289 137.134 88.8418 137.116C88.9106 137.061 88.9621 136.996 88.9922 136.915C89.0352 136.842 89.061 136.764 89.0652 136.679C89.0781 136.588 89.0653 136.507 89.0309 136.425C89.0094 136.339 88.9707 136.262 88.9106 136.194C88.7946 136.073 88.6442 135.979 88.4723 135.97C88.3047 135.962 88.1114 136.005 87.9911 136.125L87.9997 136.133Z" fill="#FFB164"/>
<path d="M90.565 139.829L89.942 140.245C89.8732 140.301 89.8216 140.366 89.7916 140.447C89.7486 140.52 89.7228 140.597 89.7185 140.683C89.7056 140.773 89.7185 140.855 89.7529 140.936C89.7744 141.022 89.8131 141.1 89.8732 141.168C89.9892 141.288 90.1396 141.383 90.3115 141.391L90.479 141.383C90.595 141.361 90.7025 141.31 90.7927 141.233C90.9989 141.095 91.2095 140.958 91.4157 140.816C91.4844 140.76 91.536 140.696 91.5661 140.614C91.6091 140.542 91.6348 140.464 91.6391 140.378C91.652 140.288 91.6391 140.207 91.6048 140.125C91.5833 140.039 91.5446 139.962 91.4844 139.893C91.3684 139.773 91.2181 139.679 91.0462 139.67L90.8786 139.679C90.7626 139.7 90.6552 139.752 90.565 139.829Z" fill="#FFB164"/>
<path d="M93.5941 148.131C93.8777 148.229 94.157 148.332 94.4406 148.431C94.5222 148.465 94.6038 148.474 94.6898 148.461C94.7757 148.461 94.8616 148.444 94.9433 148.405C95.0249 148.371 95.0937 148.315 95.1452 148.246C95.2054 148.186 95.2526 148.118 95.2784 148.036C95.2913 147.98 95.3042 147.929 95.3128 147.873C95.3214 147.757 95.3042 147.646 95.2526 147.538L95.1581 147.392C95.0808 147.306 94.9905 147.242 94.8831 147.203C94.5995 147.105 94.3203 147.002 94.0367 146.903C93.955 146.873 93.8734 146.86 93.7875 146.873C93.7015 146.873 93.6156 146.89 93.534 146.929C93.4523 146.963 93.3836 147.019 93.332 147.088C93.2719 147.148 93.2246 147.216 93.1988 147.298L93.1645 147.461C93.1559 147.577 93.1731 147.688 93.2246 147.796L93.3191 147.942C93.3965 148.028 93.4867 148.092 93.5941 148.131Z" fill="#FFB164"/>
<path d="M95.3126 153.908C95.6005 154.234 95.8884 154.565 96.1763 154.891C96.2837 155.016 96.4513 155.101 96.6145 155.114C96.7778 155.127 96.9754 155.071 97.0958 154.96C97.2161 154.848 97.3106 154.694 97.3192 154.522C97.3278 154.346 97.2805 154.174 97.1645 154.041C96.8766 153.715 96.5888 153.384 96.3009 153.058C96.1935 152.934 96.0259 152.848 95.8626 152.835C95.6993 152.822 95.5017 152.878 95.3814 152.99C95.2611 153.106 95.1666 153.256 95.158 153.427C95.1494 153.603 95.1966 153.775 95.3126 153.908Z" fill="#FFB164"/>
<path d="M95.5962 158.729C95.8497 159.377 96.1977 159.982 96.6059 160.549C96.6962 160.673 96.8938 160.759 97.0442 160.772C97.2075 160.785 97.4051 160.729 97.5254 160.617C97.6457 160.501 97.7402 160.351 97.7488 160.179C97.7574 159.995 97.7016 159.845 97.5942 159.699C97.5168 159.591 97.4395 159.48 97.3664 159.364C97.3965 159.411 97.4309 159.463 97.461 159.51C97.1903 159.085 96.9583 158.638 96.7778 158.171C96.6532 157.853 96.2063 157.703 95.9099 157.861C95.579 158.037 95.4673 158.389 95.6005 158.729H95.5962Z" fill="#FFB164"/>
<path d="M93.9378 162.36L94.3846 164.257C94.4233 164.429 94.5135 164.583 94.6596 164.682C94.7885 164.772 94.9861 164.82 95.1408 164.785C95.4716 164.712 95.7552 164.386 95.6736 164.03L95.2267 162.132C95.1881 161.961 95.0978 161.806 94.9518 161.708C94.8229 161.617 94.6252 161.57 94.4705 161.604C94.1397 161.677 93.8561 162.004 93.9378 162.36Z" fill="#FFB164"/>
<path d="M90.6552 160.682C90.5435 161.119 90.4361 161.557 90.3243 161.995C90.29 162.077 90.2814 162.158 90.2943 162.244C90.2943 162.33 90.3115 162.416 90.3501 162.497C90.4189 162.643 90.565 162.785 90.7196 162.832C90.8829 162.884 91.0634 162.888 91.218 162.806C91.3641 162.729 91.5102 162.6 91.5532 162.437C91.6649 161.999 91.7723 161.561 91.884 161.124C91.9184 161.042 91.927 160.961 91.9141 160.875C91.9141 160.789 91.8969 160.703 91.8582 160.621C91.7895 160.475 91.6434 160.334 91.4887 160.287C91.3255 160.235 91.145 160.231 90.9903 160.312C90.8442 160.39 90.6982 160.518 90.6552 160.682Z" fill="#FFB164"/>
<path d="M86.8011 157.226C86.7539 157.304 86.698 157.376 86.6378 157.441L86.7496 157.316C86.6636 157.411 86.5648 157.497 86.4574 157.565C86.5046 157.535 86.5562 157.501 86.6035 157.471C86.5691 157.492 86.5304 157.518 86.4918 157.535C86.4101 157.57 86.3414 157.625 86.2898 157.694C86.2297 157.754 86.1824 157.823 86.1566 157.904C86.1222 157.986 86.1136 158.068 86.1265 158.153C86.1265 158.239 86.1437 158.325 86.1824 158.407C86.2597 158.557 86.3886 158.69 86.5519 158.741C86.7109 158.793 86.8999 158.797 87.0503 158.716C87.2136 158.626 87.3769 158.523 87.5144 158.394C87.6476 158.265 87.7765 158.123 87.8753 157.965C87.9655 157.823 88.0085 157.651 87.9784 157.484C87.9655 157.394 87.9311 157.312 87.8796 157.243C87.8409 157.166 87.7808 157.106 87.7077 157.059C87.5659 156.973 87.394 156.917 87.2265 156.956C87.1706 156.973 87.1148 156.99 87.0589 157.007C86.9515 157.059 86.8656 157.132 86.8011 157.231V157.226Z" fill="#FFB164"/>
<path d="M82.9684 151.247C82.861 151.35 82.7493 151.44 82.6247 151.522L82.7708 151.427C82.6247 151.522 82.4657 151.599 82.2981 151.659C82.2165 151.693 82.1477 151.749 82.0962 151.818C82.036 151.878 81.9888 151.947 81.963 152.028C81.9071 152.178 81.9114 152.384 81.9888 152.526C82.0661 152.676 82.195 152.809 82.3583 152.861L82.5216 152.895C82.6376 152.904 82.7493 152.887 82.8567 152.835C83.0114 152.779 83.1575 152.711 83.2992 152.625C83.484 152.509 83.6602 152.389 83.8191 152.238C83.9437 152.118 84.0297 151.972 84.0426 151.801C84.0555 151.71 84.0426 151.629 84.0082 151.547C83.9867 151.462 83.948 151.384 83.8879 151.316C83.7762 151.195 83.6215 151.101 83.4496 151.092C83.2778 151.084 83.093 151.127 82.9684 151.247Z" fill="#FFB164"/>
<path d="M80.9446 146.564C80.8801 146.598 80.8114 146.628 80.7426 146.65L80.9102 146.598C80.8114 146.628 80.7126 146.645 80.6095 146.65C80.6653 146.65 80.7212 146.645 80.777 146.641C80.6782 146.641 80.5837 146.637 80.4849 146.615L80.6481 146.65C80.5622 146.628 80.4805 146.603 80.3989 146.564C80.3173 146.534 80.2356 146.521 80.1497 146.534C80.0638 146.534 79.9778 146.551 79.8962 146.59C79.7501 146.658 79.6083 146.804 79.5611 146.959C79.5095 147.122 79.5052 147.302 79.5868 147.457L79.6814 147.603C79.7587 147.688 79.8489 147.753 79.9564 147.791C80.0896 147.856 80.2271 147.886 80.3688 147.916C80.4634 147.937 80.5579 147.946 80.6524 147.942C80.7985 147.942 80.9403 147.933 81.0821 147.895C81.2239 147.856 81.37 147.813 81.4989 147.74C81.6492 147.654 81.7738 147.538 81.834 147.371C81.8899 147.221 81.8856 147.015 81.8082 146.873C81.7309 146.723 81.602 146.59 81.4387 146.538C81.2797 146.491 81.0907 146.478 80.9403 146.564H80.9446Z" fill="#FFB164"/>
<path d="M80.5666 140.769C80.3432 140.696 80.1283 140.602 79.9221 140.499C79.9737 140.524 80.0209 140.55 80.0725 140.576C79.7631 140.417 79.471 140.228 79.2046 140.009C79.0843 139.911 78.8694 139.88 78.7233 139.906C78.5644 139.936 78.3839 140.039 78.298 140.181C78.212 140.323 78.1562 140.494 78.1949 140.662L78.2464 140.829C78.298 140.936 78.371 141.022 78.4698 141.087C78.9597 141.486 79.5354 141.799 80.1326 142.001C80.2916 142.057 80.4764 142.048 80.6311 141.975C80.7771 141.906 80.9189 141.761 80.9662 141.606C81.0178 141.443 81.0221 141.263 80.9404 141.108C80.8588 140.958 80.7342 140.829 80.5709 140.773L80.5666 140.769Z" fill="#FFB164"/>
<path d="M77.9498 135.64L78.5127 135.841C78.5943 135.876 78.676 135.884 78.7619 135.871C78.8478 135.871 78.9338 135.854 79.0154 135.816C79.097 135.781 79.1658 135.725 79.2174 135.657C79.2775 135.597 79.3248 135.528 79.3505 135.446L79.3849 135.283C79.3935 135.167 79.3763 135.056 79.3248 134.949L79.2302 134.803C79.1529 134.717 79.0627 134.652 78.9553 134.614C78.7662 134.545 78.5772 134.481 78.3924 134.412C78.3108 134.382 78.2291 134.369 78.1432 134.382C78.0573 134.382 77.9713 134.399 77.8897 134.438C77.8081 134.472 77.7393 134.528 77.6877 134.597C77.6276 134.657 77.5803 134.725 77.5546 134.807L77.5202 134.97C77.5116 135.086 77.5288 135.197 77.5803 135.305L77.6749 135.451C77.7522 135.537 77.8424 135.601 77.9498 135.64Z" fill="#FFB164"/>
<path opacity="0.24" d="M68.7249 140.739C68.5058 142.323 68.3125 143.988 68.8968 145.473C69.1073 146.01 69.6101 146.589 70.16 146.405C70.6069 146.255 70.7487 145.705 70.8131 145.242C70.9549 144.224 71.058 143.177 71.5307 142.267C72.3384 140.713 74.6672 137.554 72.6564 135.773C70.5725 133.931 68.8968 139.473 68.7249 140.739Z" fill="white"/>
<path d="M90.3973 147.543C93.0011 145.873 96.838 146.543 98.7199 148.993C100.98 145.933 105.711 145.345 109.006 147.251C112.302 149.157 114.123 153.058 114.171 156.861C119.52 155.136 125.162 159.038 128.289 163.704C128.809 164.476 129.312 165.3 130.085 165.82C131.026 166.446 132.212 166.524 133.334 166.665C142.804 167.867 151.045 175.701 152.72 185.093C153.232 187.964 153.12 191.128 151.461 193.531C150.134 195.459 147.994 196.643 145.936 197.755C143.581 199.034 141.128 200.339 138.455 200.519C130.782 201.039 125.729 192.69 118.734 189.497C113.041 186.895 106.42 187.904 100.718 185.414C96.2751 183.474 91.8367 179.53 87.901 176.619C84.5711 174.156 82.4528 171.559 81.1939 167.558C79.6256 162.575 80.3174 153.144 88.1244 155.587C86.9901 152.775 87.7377 149.251 90.3973 147.543Z" fill="#89E269"/>
<path d="M273.563 142.701H268.811C268.034 160.235 231.233 169.863 163.964 169.863C96.6961 169.863 60.3422 157.205 59.1176 142.701H54.357C54.357 142.701 52.6727 165.172 65.2447 192.295C84.1027 232.974 110.17 240.306 110.17 240.306L163.427 241.332L216.684 240.306C216.684 240.306 242.752 232.974 261.61 192.295C274.182 165.172 273.568 142.701 273.568 142.701H273.563Z" fill="#EDCEB9"/>
<path d="M217.759 249.131V239.731L163.965 232.97L110.17 240.301V249.131C110.17 249.131 109.715 253.385 126.034 259.003C148.346 266.687 184.601 264.159 201.9 259.003C218.437 254.076 217.763 249.131 217.763 249.131H217.759Z" fill="#EDCEB9"/>
<path d="M201.857 258.999C218.395 254.072 217.72 249.127 217.72 249.127V239.726L193.057 236.627C193.019 236.649 192.98 236.674 192.941 236.696C190.114 238.4 187.394 239.937 187.184 243.452C186.96 247.144 188.975 251.625 187.368 255.153C186.38 257.325 183.785 258.184 181.452 258.703C163.642 262.665 144.999 260.231 127.263 255.947C121.724 254.608 116.104 253.037 111.442 249.762C111.06 249.492 110.596 249.221 110.132 249.045V249.122C110.132 249.122 109.676 253.376 125.995 258.995C148.308 266.678 184.563 264.15 201.861 258.995L201.857 258.999Z" fill="#EABFAC"/>
<path opacity="0.38" d="M80.6912 177.164C79.5569 180.178 80.5193 183.543 81.6493 186.561C84.7515 194.823 89.0911 202.575 94.0022 209.911C97.5341 215.187 101.955 220.642 108.198 221.818C110.39 222.23 112.749 222.046 114.699 220.968C116.65 219.891 118.115 217.835 118.171 215.607C118.227 213.341 116.903 211.302 115.713 209.375C112.796 204.657 110.338 199.597 109.109 194.192C108.293 190.6 107.992 186.788 106.149 183.599C102.982 178.13 84.2488 167.717 80.6912 177.169V177.164Z" fill="white"/>
<path opacity="0.38" d="M118.446 243.881C117.93 243.898 117.393 243.946 116.955 244.22C116.044 244.791 115.932 246.156 116.452 247.096C116.972 248.036 117.943 248.633 118.897 249.127C122.854 251.183 127.254 252.234 131.641 253.028C133.325 253.333 135.121 253.595 136.698 252.93C138.275 252.264 139.435 250.32 138.644 248.8C137.893 247.358 135.985 247.101 134.365 246.95C129.084 246.465 123.61 243.718 118.442 243.881H118.446Z" fill="white"/>
<path d="M273.314 142.701H268.601C268.163 152.526 256.416 159.871 234.335 164.429C233.222 172.391 230.691 181.938 225.415 192.016C210.068 221.329 195.528 229.48 177.744 235.528C155.676 243.027 129.836 241.147 129.836 241.147C129.836 241.147 155.745 247.062 176.519 247.062C197.178 247.062 216.435 240.306 216.435 240.306C216.435 240.306 242.503 232.974 261.361 192.295C273.933 165.172 273.319 142.701 273.319 142.701H273.314Z" fill="#EABFAC"/>
<path d="M273.477 141.027H268.777C268.82 141.52 268.837 142.018 268.824 142.521C268.291 160.171 231.469 169.863 163.969 169.863C96.4684 169.863 60.0285 157.102 59.1047 142.521C59.1519 142.014 59.2164 141.516 59.2937 141.027H54.5202C54.4385 141.576 54.3698 142.134 54.3225 142.701C55.285 159.042 95.5961 173.349 163.93 173.349C232.264 173.349 272.975 162.485 273.529 142.701C273.546 142.139 273.529 141.581 273.482 141.027H273.477Z" fill="#FFDFCA"/>
<path d="M74.1302 122.964L73.1162 130.536C73.1162 130.536 76.1368 141.988 92.3179 146.079C110.527 150.68 124.646 146.482 125.643 135.309C125.806 133.498 123.774 128.351 123.774 128.351L73.8466 122.522L74.1302 122.964Z" fill="#59B24F"/>
<path d="M123.945 131.726C125.325 124.645 115.319 116.74 101.595 114.07C87.8711 111.401 75.6269 114.976 74.2466 122.057C72.8663 129.138 82.8726 137.042 96.5964 139.712C110.32 142.382 122.564 138.807 123.945 131.726Z" fill="#84D17D"/>
<path d="M122.39 130.609C122.072 136.112 111.502 139.876 98.8058 137.88C86.1092 135.884 75.3632 128.446 75.6812 122.943C75.9991 117.44 87.4927 113.298 100.185 115.294C112.882 117.29 122.708 125.106 122.39 130.609Z" fill="#B0EDA9"/>
<path d="M84.8546 122.96C84.4249 122.574 83.9738 122.084 83.991 121.531C84.0124 120.638 85.121 120.376 85.9932 120.427C87.8107 120.53 89.6411 121.037 91.3253 121.895C90.8183 121.174 90.4145 120.38 90.1438 119.556C90.0836 119.38 90.032 119.187 90.0965 119.028C90.2469 118.65 90.8097 118.788 91.1921 118.989C93.1299 120.02 94.9517 121.325 96.5801 122.848C96.1376 122.016 95.7939 121.106 95.8067 120.2C95.8239 119.294 96.2579 118.397 97.0528 118.062C98.0883 117.624 99.4159 118.277 100.159 119.264C100.903 120.251 101.19 121.483 101.414 122.668C103.042 121.543 105.173 121.153 107.214 121.608C107.696 121.715 108.237 121.925 108.435 122.393C108.74 123.114 108.018 123.728 107.386 124.067C109.779 123.698 112.461 124.724 114.196 126.681C114.411 126.922 114.626 127.222 114.583 127.527C114.557 127.712 114.441 127.858 114.321 127.986C113.432 128.952 112.104 129.411 110.759 129.519C109.419 129.626 108.044 129.416 106.682 129.205C107.988 129.841 109.225 130.652 110.351 131.609C110.493 131.729 110.643 131.875 110.665 132.056C110.682 132.206 110.604 132.339 110.523 132.45C109.569 133.777 107.58 133.927 105.968 133.27C104.357 132.614 103.034 131.326 101.762 130.072C102.368 130.991 102.789 132.116 102.557 133.124C102.325 134.133 101.242 134.889 100.254 134.468C99.8155 134.283 99.4632 133.91 99.1581 133.532C98.2215 132.382 97.5168 131.047 97.1043 129.643C96.8895 131.399 95.274 132.725 93.5209 132.584C93.0698 132.545 92.5757 132.399 92.2749 132.025C91.9183 131.575 91.9484 130.927 92.2019 130.463C92.4554 129.999 92.8893 129.686 93.3147 129.381C92.03 130.012 90.3586 130.532 89.1469 129.536C88.786 129.235 88.4981 128.733 88.6614 128.325C88.7645 128.068 89.018 127.918 89.2587 127.793C89.886 127.471 91.5488 127.158 91.8109 126.54C89.2629 125.673 86.9814 124.857 84.8546 122.96Z" fill="#C1FFB8"/>
<path d="M160.411 149.783C163.629 148.474 167.428 148.349 170.504 149.963C171.17 150.311 172.111 150.689 172.558 150.084C172.773 149.792 172.747 149.397 172.687 149.04C172.072 145.328 168.656 142.271 164.893 142.065C162.044 141.911 159.328 143.203 156.866 144.641C155.075 145.684 153.339 146.821 151.667 148.045C149.541 149.598 147.345 151.44 146.301 153.93C145.523 155.78 145.145 159.668 147.74 160.304C150.344 160.939 151.56 157.145 152.845 155.608C154.894 153.153 157.429 151.002 160.415 149.787L160.411 149.783Z" fill="#0A0B0C"/>
<path d="M167.707 141.786C163.629 141.117 159.419 142.297 155.792 144.28C152.166 146.263 149.029 149.015 145.927 151.745C142.675 154.604 142.812 160.424 144.814 163.978C146.675 167.275 150.258 169.511 154.035 169.82C157.76 170.125 161.395 168.687 164.746 167.034C168.274 165.296 171.746 163.218 174.229 160.166C176.708 157.115 178.057 152.912 176.885 149.161C175.651 145.22 171.789 142.456 167.707 141.786ZM169.142 152.758C168.089 154.805 166.143 156.243 164.154 157.406C162.28 158.505 160.308 159.432 158.267 160.179C156.566 160.802 154.774 161.3 152.965 161.175C151.156 161.051 149.321 160.201 148.389 158.647C144.737 152.547 154.254 147.766 158.439 146.057C160.763 145.109 163.359 144.641 165.808 145.19C166.732 145.401 167.647 145.761 168.356 146.388C170.083 147.912 170.19 150.706 169.138 152.753L169.142 152.758Z" fill="#36383F"/>
<path d="M111.773 109.945C114.991 108.636 118.79 108.512 121.866 110.126C122.532 110.473 123.473 110.851 123.92 110.246C124.135 109.954 124.109 109.559 124.049 109.203C123.434 105.49 120.019 102.434 116.255 102.228C113.406 102.073 110.69 103.365 108.228 104.803C106.437 105.846 104.701 106.984 103.03 108.207C100.903 109.761 98.7071 111.602 97.663 114.092C96.8853 115.938 96.5072 119.831 99.1024 120.466C101.706 121.101 102.922 117.307 104.207 115.77C106.256 113.315 108.791 111.164 111.778 109.95L111.773 109.945Z" fill="#0A0B0C"/>
<path d="M119.069 101.953C114.991 101.283 110.781 102.464 107.154 104.443C103.528 106.426 100.391 109.177 97.2892 111.907C94.0366 114.766 94.1741 120.586 96.1764 124.14C98.0368 127.437 101.62 129.673 105.397 129.982C109.122 130.287 112.757 128.849 116.109 127.197C119.636 125.458 123.108 123.381 125.591 120.329C128.07 117.277 129.42 113.075 128.247 109.323C127.013 105.383 123.151 102.618 119.069 101.949V101.953ZM120.504 112.924C119.451 114.972 117.505 116.41 115.516 117.573C113.642 118.672 111.67 119.599 109.629 120.346C107.928 120.968 106.136 121.466 104.327 121.342C102.518 121.217 100.684 120.367 99.7512 118.813C96.099 112.714 105.616 107.932 109.801 106.224C112.126 105.275 114.721 104.807 117.17 105.357C118.094 105.567 119.009 105.928 119.718 106.554C121.445 108.078 121.552 110.873 120.5 112.92L120.504 112.924Z" fill="#36383F"/>
<path d="M251.754 122.218C254.345 124.527 256.128 127.884 256.029 131.352C256.007 132.103 256.085 133.112 256.824 133.245C257.18 133.309 257.524 133.112 257.816 132.901C260.884 130.717 262.13 126.308 260.661 122.844C259.548 120.222 257.189 118.35 254.817 116.775C253.09 115.629 251.307 114.569 249.472 113.607C247.139 112.384 244.518 111.225 241.824 111.375C239.822 111.491 236.157 112.86 236.724 115.47C237.295 118.088 241.244 117.509 243.19 117.985C246.297 118.749 249.348 120.076 251.754 122.222V122.218Z" fill="#0A0B0C"/>
<path d="M262.152 125.252C260.957 121.299 258.053 118.037 254.675 115.654C251.298 113.272 247.448 111.667 243.629 110.083C239.629 108.422 234.455 111.1 232.14 114.461C229.991 117.577 229.562 121.78 230.941 125.304C232.303 128.781 235.194 131.412 238.155 133.691C241.27 136.091 244.664 138.297 248.497 139.181C252.329 140.065 256.699 139.43 259.556 136.726C262.556 133.884 263.346 129.201 262.152 125.248V125.252ZM252.922 131.365C250.619 131.322 248.471 130.206 246.55 128.931C244.742 127.733 243.036 126.368 241.472 124.866C240.166 123.613 238.928 122.222 238.245 120.548C237.562 118.874 237.519 116.848 238.507 115.333C242.387 109.375 250.869 115.809 254.241 118.818C256.115 120.488 257.679 122.608 258.259 125.051C258.478 125.973 258.555 126.948 258.302 127.862C257.692 130.081 255.225 131.403 252.922 131.365Z" fill="#36383F"/>
<path d="M175.948 136.322C175.948 136.322 184.176 156.784 208.053 150.856C231.929 144.928 241.45 130.206 243.633 127.609C248.222 122.14 248.003 114.002 248.003 114.002L175.948 136.322Z" fill="#FFECD7"/>
<path d="M186.754 132.987C186.574 133.043 192.795 146.95 204.07 144.723C226.391 140.314 222.726 121.887 222.726 121.887L186.754 132.983V132.987Z" fill="#FFDC31"/>
<path opacity="0.52" d="M236.565 124.514C235.182 129.175 230.546 131.927 227.04 135.296C226.365 135.944 225.669 136.872 226.043 137.734C226.313 138.361 227.087 138.649 227.761 138.563C228.44 138.477 229.037 138.095 229.596 137.704C232.359 135.764 234.688 133.283 236.943 130.776C239.401 128.046 241.91 125.016 242.323 121.367C242.366 120.994 242.383 120.608 242.237 120.26C241.588 118.685 239.401 119.552 238.494 120.346C237.278 121.415 236.999 123.033 236.561 124.514H236.565Z" fill="white"/>
</g>
<defs>
<clipPath id="clip0_302_3826">
<rect width="284" height="266" fill="white"/>
</clipPath>
</defs>
</svg>
