<svg width="540" height="299" viewBox="0 0 540 299" fill="none" xmlns="http://www.w3.org/2000/svg">
<g clip-path="url(#clip0_302_3996)">
<path d="M198.588 248.557C198.184 248.808 197.766 249.038 197.379 249.311C191.546 253.447 185.289 256.792 178.609 259.325C173.182 261.385 167.59 262.865 161.849 263.732C157.7 264.358 153.519 264.68 149.32 264.683C149.166 264.684 149.011 264.622 148.857 264.588C148.261 264.126 148.058 263.497 148.062 262.77C148.078 259.38 148.041 255.992 148.143 252.603C148.174 251.564 148.538 250.738 149.643 250.435C151.693 249.735 153.854 250.054 155.96 249.788C164.41 248.729 172.536 246.631 180.164 242.741C191.172 237.129 200.098 229.17 206.802 218.823C215.49 205.411 219.082 190.67 217.601 174.725C216.362 161.403 211.694 149.375 203.405 138.906C191.942 124.428 177.028 115.705 158.702 113.001C156.494 112.676 154.272 112.433 152.036 112.37C151.242 112.347 150.433 112.335 149.717 111.892C149.213 111.523 148.924 111.003 148.912 110.405C148.817 106.183 148.686 101.958 149.018 97.738C150.232 96.9511 151.445 96.9913 152.65 97.764C154.975 97.979 157.31 98.1243 159.625 98.421C172.776 100.097 184.845 104.669 195.836 112.094C196.363 112.449 196.913 112.767 197.453 113.103C199.326 113.854 201.073 114.766 202.035 116.683C204.931 119.193 207.758 121.776 210.357 124.603C217.384 132.247 222.822 140.883 226.661 150.536C229.012 156.452 230.665 162.559 231.587 168.845C233.076 178.999 232.764 189.112 230.571 199.152C228.411 209.035 224.561 218.216 219.058 226.695C215.129 232.751 210.484 238.213 205.129 243.057C204.538 243.591 203.968 244.149 203.389 244.696C202.411 246.757 200.804 248.031 198.592 248.554L198.588 248.557Z" fill="#7636FF"/>
<path d="M150.082 250.837C149.88 250.901 149.682 250.972 149.478 251.025C149.064 251.133 148.874 251.414 148.836 251.821C148.81 252.084 148.763 252.346 148.763 252.607C148.735 256.079 148.705 259.551 148.699 263.023C148.698 263.546 148.803 264.069 148.855 264.591C147.533 264.821 146.203 264.66 144.884 264.59C131.554 263.881 119.081 260.243 107.499 253.571C105.194 252.243 102.974 250.787 100.792 249.272C100.314 248.94 99.8169 248.632 99.3296 248.314C97.2235 247.608 95.51 246.413 94.457 244.395C94.1617 244.091 93.8834 243.767 93.5693 243.485C84.1558 235.043 77.0108 224.978 72.098 213.329C69.5647 207.322 67.8389 201.076 66.8195 194.643C63.9706 176.693 66.5795 159.569 74.7691 143.347C80.0912 132.803 87.408 123.837 96.557 116.374C96.763 116.206 96.9659 116.034 97.1693 115.864C98.2866 114.099 99.8294 112.9 101.853 112.342C102.172 112.154 102.5 111.979 102.806 111.772C108.373 108.005 114.346 105.029 120.648 102.719C123.338 101.732 126.099 100.966 128.87 100.221C132.012 99.3778 135.211 98.8963 138.413 98.4328C140.561 98.121 142.743 98.043 144.911 97.8581C145.385 97.8174 145.859 97.77 146.333 97.7271C147.284 97.253 148.23 96.8242 149.102 97.8705C149.459 98.2391 149.518 98.6684 149.513 99.181C149.48 102.841 149.5 106.501 149.469 110.16C149.464 110.729 149.57 111.207 149.934 111.63C149.831 111.892 149.624 112.032 149.371 112.119C144.378 112.324 139.418 112.73 134.512 113.807C121.66 116.623 110.522 122.581 101.104 131.759C89.7168 142.858 83.0542 156.372 80.8478 172.071C79.9951 178.145 80.1142 184.247 80.9023 190.369C82.241 200.761 85.7419 210.347 91.5908 218.953C104.682 238.214 122.933 248.611 146.213 250.037C146.903 250.078 147.594 250.068 148.287 250.123C148.866 250.414 149.736 249.977 150.087 250.84L150.082 250.837Z" fill="#7636FF"/>
<path d="M167.127 76.2146C168.056 73.6662 168.971 71.1138 169.916 68.5738C172.123 62.6423 174.345 56.7147 176.562 50.7858C176.656 50.5355 176.755 50.291 176.839 50.038C177.083 49.2922 177.041 49.1536 176.27 48.8368C172.927 47.458 169.578 46.0994 166.23 44.7309C164.901 44.1866 163.572 43.6495 162.249 43.09C161.649 42.8362 161.597 42.6834 161.915 42.128C163.025 40.1898 164.143 38.2546 165.263 36.3235C168.469 30.805 171.678 25.2883 174.889 19.7734C176.494 17.0148 178.108 14.2615 179.718 11.5065C179.826 11.3235 179.935 11.14 180.048 10.9605C180.681 9.95793 180.691 9.93724 181.828 10.4297C187.291 12.7961 192.751 15.1752 198.212 17.5492C199.138 17.9513 200.065 18.3534 200.985 18.7707C201.389 18.9547 201.443 19.1865 201.171 19.5128C200.661 20.1236 200.135 20.726 199.609 21.3261C195.195 26.3668 190.781 31.4074 186.37 36.4477C186.128 36.7259 185.835 36.9724 185.757 37.369C186.095 37.8328 186.646 37.926 187.122 38.1348C189.946 39.3741 192.779 40.5904 195.602 41.8345C197.012 42.4557 197.009 42.4773 195.989 43.645C188.646 52.0553 181.3 60.4682 173.951 68.8748C171.817 71.3162 169.666 73.7423 167.523 76.176C167.406 76.3353 167.273 76.3483 167.125 76.2173L167.127 76.2146Z" fill="white"/>
<path d="M222.446 83.4353C223.966 84.2536 225.18 85.4589 226.379 86.6602C229.933 90.224 232.467 94.4255 234.098 99.1871C236.432 106.001 236.712 112.939 235.417 119.979C234.799 123.344 233.807 126.594 232.47 129.742C232.304 130.131 232.103 130.506 231.888 130.872C231.81 131.005 231.64 131.074 231.469 130.981C231.33 130.904 231.191 130.827 231.062 130.732C225.744 126.827 220.427 122.917 215.107 119.013C212.191 116.872 209.27 114.735 206.346 112.603C206.047 112.385 205.715 112.217 205.395 112.025C204.032 111.986 203.233 111.252 202.883 109.968C203.436 108.571 204.41 107.429 205.284 106.249C210.58 99.092 215.753 91.8459 221.077 84.7093C221.458 84.1994 221.786 83.6422 222.444 83.4357L222.446 83.4353Z" fill="#C6C6C6"/>
<path d="M94.1311 111.363C92.8239 112.265 91.5019 113.151 90.2087 114.076C83.0412 119.206 75.8827 124.346 68.7193 129.484C67.461 130.386 67.4305 130.385 66.8664 128.991C65.6096 125.881 64.562 122.699 63.995 119.39C62.6358 111.474 63.1067 103.722 66.2798 96.2458C68.3541 91.3573 71.45 87.2346 75.5407 83.8596C76.0699 83.4225 76.5725 82.9346 77.2464 82.7039C77.8898 82.804 78.2333 83.2875 78.575 83.762C84.2765 91.6902 89.9351 99.6482 95.6325 107.58C96.0658 108.183 96.4807 108.81 96.4367 109.613C96.0648 110.719 95.3963 111.435 94.1334 111.363L94.1311 111.363Z" fill="#F4F2EB"/>
<path d="M96.1697 109.677C95.8082 108.842 95.2794 108.114 94.7493 107.379C93.1358 105.141 91.5586 102.875 89.9549 100.628C89.0303 99.3306 88.0747 98.0539 87.1501 96.7569C85.4847 94.4244 83.8372 92.0765 82.17 89.7467C81.1814 88.3647 80.1761 86.993 79.1593 85.6331C78.4598 84.6966 77.8081 83.7316 77.2446 82.7067C79.014 81.2226 81.058 80.2151 83.1602 79.3219C89.5192 76.6244 96.1161 76.1814 102.851 77.4129C109.558 78.6409 115.59 81.4286 121.035 85.5109C122.054 86.2748 123.036 87.0954 124.016 87.9093C124.373 88.2056 124.679 88.5636 124.973 88.8588C124.834 89.3566 124.463 89.5068 124.17 89.7184C117.652 94.3938 111.13 99.0608 104.608 103.732C102.837 105.002 101.074 106.277 99.3124 107.558C99.1031 107.711 98.9268 107.91 98.7346 108.09C98.2502 109.216 97.5439 109.986 96.1697 109.677Z" fill="#C6C6C6"/>
<path d="M222.446 83.4354C222.096 84.3967 221.501 85.2209 220.84 85.9746C220.384 86.495 219.964 87.0337 219.584 87.6086C218.067 89.9077 216.395 92.0889 214.68 94.2415C214.613 94.3252 214.549 94.4085 214.495 94.5011C213.231 96.6553 211.667 98.6068 210.139 100.558C208.702 102.392 207.596 104.46 206 106.18C205.396 106.833 204.966 107.652 204.482 108.414C204.077 109.05 203.608 109.613 202.971 110.023C201.817 110.244 201.128 109.728 200.8 108.644C200.436 108.335 200.091 108.003 199.707 107.722C193.87 103.446 188.028 99.1786 182.187 94.906C179.955 93.2729 177.728 91.6317 175.499 89.991C175.285 89.8338 175.077 89.6684 174.888 89.4851C174.71 89.3111 174.72 89.0965 174.89 88.924C175.148 88.6588 175.421 88.4047 175.703 88.1627C180.279 84.2476 185.383 81.2686 191.123 79.3887C196.927 77.4862 202.838 76.8257 208.894 77.7894C213.475 78.5162 217.718 80.1365 221.566 82.7505C221.873 82.959 222.149 83.2062 222.441 83.4363L222.446 83.4354Z" fill="#F4F2EB"/>
<path d="M144.734 68.1569C144.259 66.3736 143.801 64.7922 143.414 63.1918C142.366 58.8509 141.347 54.5019 140.321 50.1542C139.915 48.4362 139.918 48.4286 138.239 48.7755C135.48 49.3448 132.724 49.9252 129.968 50.4985C129.552 50.5834 129.135 50.6684 128.715 50.7282C128.325 50.782 128.127 50.6122 128.098 50.1953C127.918 47.6512 127.747 45.1075 127.571 42.5624C127.379 39.7522 127.185 36.9447 126.995 34.134C126.784 31.0074 126.574 27.8785 126.375 24.7497C126.33 24.0371 126.415 23.917 127.117 23.7691C128.469 23.4866 129.82 23.1785 131.186 22.9889C134.295 22.5584 137.353 21.8674 140.435 21.3046C140.948 21.2118 141.453 21.0341 141.976 21.1166C142.226 21.6893 142.038 22.2111 141.976 22.7283C141.44 27.1608 140.894 31.593 140.351 36.0246C140.299 36.4462 140.238 36.8674 140.205 37.2921C140.162 37.8452 140.298 38.0112 140.797 37.9516C141.692 37.8439 142.59 37.7264 143.477 37.5689C144.941 37.3102 146.397 37.0018 147.862 36.7381C148.636 36.599 148.795 36.7582 148.701 37.5902C148.495 39.3862 148.265 41.1777 148.043 42.9724C147.072 50.8336 146.098 58.693 145.124 66.5524C145.067 67.0171 145.093 67.4999 144.734 68.1524L144.734 68.1569Z" fill="white"/>
<path d="M30.9125 198.638C30.3631 195.359 29.7366 191.266 29.4121 187.121C28.4986 175.382 29.6715 163.861 32.8634 152.539C34.9795 145.029 37.9799 137.885 41.7757 131.071C41.9824 130.7 42.1903 130.323 42.4459 129.986C43.2093 128.98 44.4163 128.732 45.4078 129.35C46.3221 129.92 46.6754 131.081 46.2244 132.154C46.0387 132.594 45.7919 133.008 45.5594 133.425C41.1326 141.378 37.8972 149.785 35.8761 158.666C34.0737 166.594 33.3276 174.622 33.58 182.74C33.682 186.034 33.987 189.316 34.4435 192.586C34.8051 195.173 35.2262 197.743 35.8001 200.284C36.8707 205.01 38.2714 209.639 40.0188 214.159C40.0772 214.309 40.1612 214.446 40.2129 214.596C40.7471 216.164 39.8412 217.524 38.1961 217.637C37.2919 217.7 36.6611 217.261 36.2408 216.515C35.9812 216.054 35.79 215.551 35.6047 215.054C33.8804 210.464 32.1451 204.548 30.9111 198.632L30.9125 198.638Z" fill="white"/>
<path d="M264.471 166.971C265.374 171.839 266.029 176.734 266.301 181.686C266.734 189.59 266.231 197.428 264.768 205.198C262.924 214.996 259.688 224.314 255.034 233.133C253.418 236.198 251.637 239.16 249.713 242.035C249.477 242.389 249.253 242.755 248.978 243.077C248.224 243.959 247.039 244.131 246.107 243.52C245.168 242.905 244.84 241.744 245.344 240.714C245.507 240.381 245.727 240.075 245.933 239.767C249.934 233.766 253.248 227.408 255.813 220.666C259.767 210.27 261.851 199.508 262.007 188.381C262.058 184.816 261.886 181.261 261.554 177.707C261.13 173.192 260.379 168.737 259.338 164.331C258.96 162.727 258.481 161.145 258.054 159.553C257.958 159.194 257.849 158.833 257.8 158.465C257.641 157.308 258.289 156.319 259.373 156.019C260.312 155.76 261.429 156.293 261.883 157.261C262.106 157.741 262.309 158.244 262.433 158.758C263.081 161.504 264.007 164.179 264.471 166.971Z" fill="white"/>
<path d="M248.61 173.305C250.374 183.451 250.18 194.116 247.859 204.746C246.157 212.548 243.337 219.922 239.521 226.922C239.24 227.435 238.953 227.951 238.608 228.419C238.018 229.211 237.037 229.414 236.192 228.974C235.291 228.504 234.908 227.507 235.34 226.522C235.678 225.746 236.124 225.015 236.527 224.265C242.992 212.196 246.089 199.312 245.872 185.618C245.79 180.548 245.209 175.542 244.127 170.589C244.025 170.122 243.898 169.65 243.877 169.178C243.816 167.908 244.678 167.053 245.944 167.082C246.647 167.098 247.167 167.431 247.45 168.072C247.597 168.408 247.68 168.779 247.759 169.141C248.012 170.339 248.252 171.54 248.612 173.305L248.61 173.305Z" fill="white"/>
<path d="M47.5743 196.394C44.5717 181.845 45.3966 167.976 49.7012 154.295C50.7404 150.991 52.0248 147.779 53.4793 144.636C53.5909 144.393 53.6999 144.149 53.8407 143.924C54.3683 143.067 55.4604 142.69 56.325 143.051C57.1689 143.402 57.6354 144.489 57.3312 145.481C57.2058 145.885 57.0087 146.268 56.8308 146.655C53.3443 154.265 51.1026 162.224 50.1622 170.546C49.6116 175.423 49.5327 180.301 49.8713 185.203C50.2327 190.433 51.2793 195.533 52.5073 200.608C52.721 201.485 53.091 202.328 53.2684 203.209C53.5216 204.452 52.7088 205.421 51.4603 205.5C50.6149 205.553 49.9344 205.134 49.6203 204.268C49.2944 203.368 48.9918 202.455 48.7609 201.528C48.2999 199.668 47.8945 197.793 47.573 196.399L47.5743 196.394Z" fill="white"/>
<path d="M146.363 88.7054C145.2 88.6762 144.034 88.657 142.871 88.6161C141.221 88.5599 139.888 87.8904 139.014 86.464C137.211 83.5243 139.264 79.7565 142.729 79.6574C144.105 79.6176 145.484 79.6752 146.86 79.6844C149.879 79.7066 152.899 79.7217 155.917 79.7512C156.338 79.7542 156.767 79.7765 157.179 79.863C159.147 80.2772 160.833 82.0028 160.636 84.7125C160.48 86.8651 158.557 88.593 156.353 88.664C155.085 88.7052 153.817 88.723 152.547 88.753C150.478 89.63 148.413 89.7777 146.36 88.7036L146.363 88.7054Z" fill="#7636FF"/>
<path d="M217.158 257.415C217.348 258.453 217.619 259.472 217.431 260.557C217.046 262.796 215.356 264.628 213.141 265.147C211.992 265.416 210.868 265.491 209.702 265.129C207.392 264.408 205.475 261.606 205.735 259.563C205.755 259.41 205.711 259.248 205.697 259.09C205.754 258.833 205.806 258.572 205.874 258.318C206.01 257.807 205.835 257.406 205.503 257.016C204.242 255.523 202.991 254.022 201.754 252.508C200.685 251.201 199.64 249.875 198.583 248.556C200.182 247.27 201.78 245.984 203.38 244.698C205.603 247.384 207.837 250.061 210.038 252.765C210.542 253.384 211.06 253.655 211.9 253.68C213.928 253.74 215.516 254.72 216.618 256.441C216.817 256.751 216.976 257.087 217.154 257.411L217.158 257.415Z" fill="#2B2B37"/>
<path d="M94.4549 244.395C96.0791 245.702 97.7033 247.008 99.3275 248.314C97.1363 250.912 94.9623 253.525 92.7406 256.098C92.2138 256.708 92.0209 257.261 92.1259 258.097C92.4382 260.591 91.4913 262.584 89.3401 263.913C86.5774 265.618 82.9517 264.703 81.2702 261.926C79.5929 259.156 80.477 255.538 83.2631 253.845C84.135 253.314 85.0763 252.884 86.117 252.999C86.9881 253.095 87.4784 252.684 87.9859 252.072C90.1206 249.495 92.2927 246.952 94.4526 244.396L94.4549 244.395Z" fill="#2B2B37"/>
<path d="M146.363 88.7053C148.425 88.7219 150.488 88.7381 152.55 88.7547C152.564 91.286 152.574 93.8181 152.593 96.3507C152.596 96.8242 152.629 97.2962 152.649 97.771C151.472 98.0062 150.281 97.7281 149.101 97.8659C148.186 97.6483 147.242 98.0322 146.332 97.7225C146.343 94.7168 146.353 91.7133 146.364 88.7076L146.363 88.7053Z" fill="#2B2B37"/>
<path d="M200.804 108.643C201.528 109.102 202.252 109.562 202.975 110.022C203.781 110.689 204.587 111.356 205.395 112.023C204.225 113.542 203.006 115.026 202.033 116.686C200.511 115.483 198.824 114.497 197.451 113.105C198.569 111.618 199.687 110.132 200.804 108.643Z" fill="#2C2B37"/>
<path d="M96.1697 109.677C96.596 109.411 97.025 109.146 97.4504 108.874C97.874 108.606 98.2208 108.213 98.7342 108.087C99.7719 109.504 100.812 110.922 101.85 112.338C100.345 113.589 98.7959 114.778 97.1666 115.862C96.7446 114.902 96.0103 114.15 95.4402 113.287C95.0117 112.639 94.5672 112.003 94.1306 111.361C94.8096 110.8 95.4903 110.236 96.1715 109.675L96.1697 109.677Z" fill="#2C2B37"/>
<path d="M167.127 76.2146C167.259 76.2016 167.392 76.1863 167.524 76.1733C167.485 76.2654 167.462 76.3705 167.403 76.4502C167.315 76.5663 167.187 76.7278 167.039 76.5969C166.905 76.477 166.992 76.3215 167.127 76.2169L167.127 76.2146Z" fill="#405C61"/>
<path d="M150.081 250.836C149.799 250.663 149.49 250.716 149.186 250.734C148.879 250.75 148.572 250.78 148.289 250.615C148.1 248.246 147.982 245.881 148.473 243.527C151.219 242.668 151.443 240.541 151.355 238.104C151.276 235.932 151.267 233.748 151.37 231.571C151.451 229.852 150.992 228.528 149.171 227.997C148.864 227.908 148.634 227.661 148.48 227.363C148.049 224.564 148.278 221.747 148.279 218.939C148.288 209.903 148.392 200.867 148.385 191.832C148.383 191.138 148.423 190.45 148.491 189.764C148.768 188.57 149.581 188.785 150.352 189.118C151.718 189.709 153.035 190.412 154.466 190.851C155.078 191.039 155.694 191.222 156.337 191.215C157.582 191.202 158.071 190.53 157.675 189.331C157.32 188.256 156.621 187.366 155.998 186.44C154.85 184.735 154.87 184.246 156.477 182.986C160.244 180.035 164.133 177.243 167.677 174.01C171.45 170.568 175.332 167.243 178.76 163.445C179.244 162.91 180.271 162.294 179.614 161.487C179.075 160.826 178.219 161.568 177.595 161.861C173.641 163.722 169.998 166.132 166.271 168.396C161.035 171.577 156.134 175.234 151.263 178.938C150.924 179.197 150.593 179.472 150.199 179.636C149.401 179.967 148.728 179.964 148.495 178.921C148.524 164.318 148.586 149.717 148.695 135.118C148.896 134.696 149.282 134.505 149.698 134.42C151.369 134.08 151.855 132.927 151.867 131.391C151.884 128.43 151.88 125.469 151.888 122.509C151.892 120.48 151.61 120.173 149.593 119.48C149.189 119.34 148.776 119.226 148.644 118.741C148.845 117.103 148.784 115.455 148.799 113.81C148.806 113.079 148.699 112.3 149.333 111.723C149.529 111.692 149.728 111.661 149.925 111.63C151.513 111.729 153.104 111.806 154.692 111.927C178.789 113.767 201.22 128.528 212.187 152.089C215.266 158.704 217.227 165.657 218.065 172.895C221.564 203.043 205.914 229.521 182.145 242.398C175.499 245.999 168.452 248.423 161.003 249.713C157.803 250.267 154.585 250.619 151.339 250.697C150.916 250.706 150.497 250.789 150.075 250.838L150.081 250.836Z" fill="#F1F1F1"/>
<path d="M148.533 243.687C148.929 244.3 148.816 245.005 148.832 245.668C148.861 247.021 148.782 248.376 148.785 249.732C148.787 250.152 148.655 250.434 148.289 250.618C146.588 250.808 144.899 250.592 143.209 250.453C119.098 248.477 97.1067 233.744 86.2232 210.74C83.5469 205.084 81.651 199.16 80.625 192.981C75.5293 162.29 90.5675 134.428 114.77 120.664C119.265 118.108 123.982 116.077 128.938 114.579C133.488 113.203 138.125 112.304 142.851 111.871C144.912 111.682 146.988 111.68 149.058 111.601C149.151 111.599 149.247 111.68 149.342 111.723C149.565 113.231 149.38 114.749 149.455 116.262C149.475 116.678 149.478 117.098 149.48 117.516C149.48 118.076 149.319 118.548 148.764 118.801C146.6 120.522 146.815 122.94 146.842 125.317C146.864 127.176 146.931 129.04 146.843 130.897C146.771 132.39 147.039 133.636 148.447 134.419C148.679 134.547 148.818 134.794 148.869 135.068C149.232 135.487 149.367 135.953 149.362 136.526C149.327 142.134 149.329 147.744 149.301 153.352C149.285 156.581 149.213 159.81 149.196 163.039C149.178 167.06 149.195 171.08 149.191 175.103C149.19 176.161 149.173 177.221 149.157 178.277C149.152 178.619 148.971 178.878 148.732 179.1C147.921 179.494 147.439 178.856 146.922 178.471C142.064 174.846 137.251 171.158 132.502 167.392C125.188 161.591 117.372 156.576 109.184 152.123C108.481 151.741 107.526 150.89 106.912 151.634C106.276 152.405 107.342 153.148 107.86 153.732C111.041 157.318 114.588 160.535 118.115 163.773C124.828 169.934 132.304 175.14 139.432 180.783C140.391 181.54 141.358 182.289 142.336 183.024C143.722 184.066 143.771 184.614 142.77 186.091C142.117 187.055 141.288 187.909 140.872 189.028C140.27 190.645 140.859 191.392 142.558 191.167C144.108 190.963 145.519 190.34 146.933 189.722C147.541 189.456 148.154 188.994 148.87 189.474C149.204 190.401 149.065 191.371 149.066 192.314C149.066 196.651 148.991 200.99 148.97 205.329C148.951 209.243 148.977 213.157 148.967 217.071C148.96 220.139 148.932 223.207 148.904 226.274C148.9 226.642 148.828 227.009 148.786 227.375C148.747 227.474 148.715 227.612 148.631 227.645C146.394 228.578 146.274 230.496 146.323 232.521C146.377 234.847 146.362 237.177 146.292 239.503C146.249 240.972 146.479 242.249 147.973 242.954C148.255 243.088 148.46 243.359 148.538 243.689L148.533 243.687Z" fill="white"/>
<path d="M148.865 189.471C147.704 189.99 146.544 190.516 145.379 191.027C144.348 191.477 143.239 191.645 142.16 191.923C140.716 192.295 139.352 190.557 140.079 189.145C140.544 188.242 141.047 187.371 141.663 186.566C142.171 185.9 142.695 185.244 143.199 184.604C142.936 184.09 142.49 183.871 142.116 183.582C136.304 179.094 130.484 174.616 124.674 170.125C123.663 169.345 122.669 168.541 121.709 167.702C117.659 164.169 113.661 160.579 109.873 156.762C108.863 155.744 107.904 154.671 106.949 153.6C106.598 153.206 106.324 152.741 106.004 152.318C105.703 151.917 105.741 151.552 106.039 151.16C106.491 150.565 106.668 150.459 107.381 150.704C108.033 150.929 108.684 151.181 109.288 151.509C111.064 152.474 112.841 153.44 114.576 154.479C118.549 156.859 122.423 159.393 126.246 162.008C127.211 162.668 128.161 163.355 129.088 164.068C135.249 168.803 141.401 173.547 147.558 178.285C147.934 178.575 148.338 178.827 148.729 179.095C148.997 179.506 149.296 179.694 149.763 179.34C151.752 177.832 153.744 176.329 155.745 174.839C162.145 170.076 168.909 165.885 175.886 162.029C176.912 161.463 177.967 160.963 179.068 160.573C179.758 160.329 180.043 160.453 180.444 160.993C180.73 161.376 180.798 161.766 180.526 162.172C180.259 162.568 179.997 162.976 179.676 163.326C178.67 164.423 177.673 165.531 176.611 166.571C172.361 170.74 167.915 174.697 163.319 178.481C161.311 180.133 159.188 181.642 157.114 183.216C156.692 183.538 156.258 183.844 155.842 184.172C155.341 184.566 155.345 184.642 155.754 185.184C156.33 185.948 156.93 186.696 157.458 187.49C157.81 188.016 158.056 188.613 158.353 189.176C158.818 190.065 158.584 190.813 157.916 191.489C157.601 191.808 157.244 191.979 156.781 191.965C155.974 191.941 155.202 191.76 154.444 191.508C152.774 190.953 151.183 190.22 149.663 189.334C149.353 189.154 149.072 189.104 148.863 189.476L148.865 189.471Z" fill="#2B2B37"/>
<path d="M148.866 135.064C148.661 135.008 148.453 134.961 148.254 134.89C146.876 134.402 146.269 133.632 146.239 132.183C146.202 130.273 146.223 128.36 146.228 126.449C146.231 124.963 146.245 123.476 146.25 121.99C146.253 121.053 146.446 120.194 147.197 119.55C147.652 119.161 148.201 118.967 148.763 118.796C149.118 118.967 149.495 118.86 149.862 118.886C151.456 118.995 152.513 120.069 152.531 121.681C152.556 123.804 152.517 125.926 152.506 128.049C152.498 129.428 152.52 130.809 152.477 132.189C152.434 133.592 151.67 134.605 150.44 134.9C149.933 135.022 149.394 135.013 148.868 135.064L148.866 135.064Z" fill="#6D6E70"/>
<path d="M211.374 180.901C211.375 181.179 211.433 181.716 211.371 182.238C211.202 183.686 210.147 184.66 208.695 184.689C207.369 184.717 206.039 184.673 204.709 184.663C202.637 184.649 200.566 184.63 198.492 184.634C197.898 184.636 197.32 184.605 196.789 184.316C195.555 183.64 195.229 182.557 195.302 181.218C195.374 179.902 195.935 179.003 197.155 178.509C197.567 178.344 197.992 178.381 198.415 178.381C200.806 178.382 203.197 178.387 205.587 178.393C206.437 178.395 207.287 178.399 208.137 178.413C208.455 178.418 208.776 178.423 209.09 178.473C210.319 178.678 211.07 179.422 211.37 180.905L211.374 180.901Z" fill="#6D6E70"/>
<path d="M148.533 243.687C148.433 243.654 148.334 243.616 148.231 243.59C146.323 243.122 145.678 242.317 145.67 240.356C145.665 238.874 145.682 237.392 145.693 235.909C145.705 234.162 145.702 232.416 145.742 230.67C145.79 228.591 146.446 227.838 148.471 227.444C148.574 227.423 148.675 227.395 148.78 227.372C149.091 227.42 149.404 227.457 149.713 227.52C150.93 227.765 151.694 228.525 151.915 229.736C151.982 230.101 152.008 230.477 152.006 230.846C151.996 233.98 151.979 237.115 151.958 240.25C151.954 240.622 151.969 241.004 151.888 241.362C151.653 242.428 151.05 243.191 149.946 243.451C149.483 243.559 149.005 243.61 148.535 243.685L148.533 243.687Z" fill="#6D6E70"/>
<path d="M176.133 136.624C175.539 136.721 174.891 136.325 174.717 135.777C174.563 135.297 174.61 134.832 174.847 134.389C175.122 133.875 175.392 133.355 175.683 132.85C176.483 131.472 177.292 130.097 178.1 128.725C178.368 128.269 178.64 127.814 179.088 127.494C179.924 126.894 180.984 127.353 181.088 128.387C181.114 128.643 181.069 128.914 181.011 129.169C180.964 129.372 180.867 129.57 180.759 129.753C179.61 131.727 178.46 133.699 177.295 135.665C177.021 136.129 176.657 136.517 176.128 136.622L176.133 136.624Z" fill="#929699"/>
<path d="M201.469 149.782C202.354 149.583 202.916 149.821 203.218 150.43C203.491 150.982 203.391 151.544 202.892 152.015C202.663 152.232 202.395 152.413 202.121 152.571C200.282 153.633 198.436 154.686 196.589 155.733C196.316 155.889 196.023 156.033 195.721 156.118C195.072 156.302 194.487 156.089 194.174 155.604C193.853 155.107 193.901 154.494 194.344 153.988C194.55 153.752 194.797 153.532 195.066 153.376C196.994 152.257 198.932 151.154 200.872 150.051C201.1 149.921 201.353 149.832 201.466 149.781L201.469 149.782Z" fill="#929699"/>
<path d="M180.585 233.791C180.732 234.46 180.497 235.068 180.005 235.365C179.489 235.673 178.886 235.611 178.4 235.152C178.174 234.937 177.981 234.672 177.823 234.401C176.758 232.565 175.707 230.719 174.646 228.878C174.404 228.458 174.252 228.01 174.196 227.528C174.143 227.074 174.259 226.682 174.639 226.406C175.082 226.084 175.694 226.053 176.131 226.363C176.385 226.545 176.646 226.765 176.8 227.028C178.02 229.143 179.217 231.27 180.418 233.396C180.495 233.534 180.542 233.688 180.584 233.789L180.585 233.791Z" fill="#929699"/>
<path d="M194.829 206.829C195.283 206.736 195.73 206.876 196.153 207.122C198.075 208.239 200 209.353 201.921 210.475C202.337 210.72 202.69 211.035 202.897 211.488C203.309 212.388 202.793 213.245 201.814 213.295C201.315 213.322 200.875 213.152 200.459 212.908C198.587 211.806 196.719 210.699 194.852 209.589C194.488 209.372 194.138 209.132 193.91 208.756C193.403 207.916 193.827 206.984 194.824 206.83L194.829 206.829Z" fill="#929698"/>
<path d="M89.1755 177.797C89.9185 177.79 90.6623 177.776 91.4049 177.779C94.0083 177.788 96.6126 177.801 99.2156 177.82C99.6407 177.822 100.069 177.819 100.491 177.87C101.84 178.035 102.808 179.073 102.902 180.429C103.081 182.955 102.006 184.127 99.5009 184.119C96.4729 184.11 93.443 184.093 90.4154 184.074C90.0441 184.073 89.671 184.063 89.2996 184.026C88.1925 183.918 87.381 183.348 87.0106 182.309C86.6421 181.279 86.6546 180.207 87.1511 179.209C87.5564 178.393 88.2654 177.945 89.1755 177.797Z" fill="#6D6E70"/>
<path d="M124.003 134.578C124.151 135.381 123.925 135.899 123.384 136.208C122.924 136.47 122.383 136.414 121.917 136.005C121.681 135.798 121.459 135.554 121.303 135.284C120.162 133.312 119.035 131.332 117.919 129.348C117.765 129.076 117.655 128.766 117.598 128.461C117.487 127.883 117.709 127.424 118.2 127.098C118.666 126.788 119.175 126.801 119.666 127.205C119.946 127.435 120.207 127.721 120.39 128.034C121.506 129.96 122.599 131.898 123.689 133.838C123.843 134.113 123.94 134.418 124.008 134.579L124.003 134.578Z" fill="#929699"/>
<path d="M104.494 154.067C104.688 154.894 104.071 155.681 103.308 155.701C102.872 155.713 102.467 155.583 102.097 155.369C100.123 154.227 98.1519 153.083 96.1893 151.925C95.9214 151.767 95.6793 151.54 95.4726 151.305C95.0475 150.821 95.0066 150.358 95.2934 149.842C95.6212 149.252 96.0849 149.043 96.7512 149.164C97.1802 149.242 97.5478 149.443 97.9136 149.658C99.6973 150.705 101.479 151.753 103.267 152.79C103.831 153.116 104.326 153.494 104.493 154.065L104.494 154.067Z" fill="#929699"/>
<path d="M96.6125 212.728C95.8629 212.862 95.3114 212.629 95.0009 212.113C94.6981 211.612 94.7689 211.021 95.2611 210.528C95.5559 210.234 95.9078 209.98 96.2711 209.771C97.9636 208.791 99.671 207.838 101.364 206.862C101.83 206.594 102.311 206.389 102.846 206.333C103.426 206.274 103.89 206.525 104.154 207.029C104.406 207.51 104.314 207.975 103.994 208.363C103.764 208.641 103.469 208.89 103.157 209.073C101.24 210.19 99.3104 211.289 97.3802 212.385C97.1064 212.541 96.8032 212.645 96.6125 212.728Z" fill="#929699"/>
<path d="M118.64 235.175C117.7 235.36 116.939 234.667 117.076 233.808C117.133 233.448 117.252 233.078 117.432 232.761C118.537 230.82 119.66 228.89 120.794 226.966C120.953 226.695 121.16 226.438 121.395 226.229C121.871 225.805 122.519 225.759 123.017 226.071C123.538 226.395 123.734 226.92 123.548 227.6C123.465 227.904 123.341 228.208 123.181 228.479C122.112 230.317 121.034 232.151 119.948 233.979C119.787 234.25 119.584 234.502 119.384 234.748C119.173 235.006 118.868 235.11 118.643 235.175L118.64 235.175Z" fill="#929699"/>
</g>
<path d="M382.601 127.4C382.761 122.92 382.841 117.053 382.841 109.8C382.841 102.547 382.601 96.7067 382.121 92.28L379.161 92.04C379.054 91.1867 379.001 90.4667 379.001 89.88C379.001 89.24 379.081 88.4667 379.241 87.56C380.948 87.6133 382.894 87.64 385.081 87.64C387.321 87.64 389.268 87.6133 390.921 87.56C391.081 88.36 391.161 89.08 391.161 89.72C391.161 90.3067 391.108 91.08 391.001 92.04L388.201 92.28C387.828 96.6 387.641 104.733 387.641 116.68C387.641 128.573 388.094 135.96 389.001 138.84C387.401 139.373 386.228 139.64 385.481 139.64C384.788 139.64 383.534 139.587 381.721 139.48C381.348 137.827 379.774 134.84 377.001 130.52C374.228 126.147 370.761 120.947 366.601 114.92C362.494 108.893 359.534 104.387 357.721 101.4C357.668 103.693 357.641 108.36 357.641 115.4C357.641 122.44 357.881 128.76 358.361 134.36L361.321 134.6C361.428 135.453 361.481 136.2 361.481 136.84C361.481 137.427 361.401 138.173 361.241 139.08C359.534 139.027 357.561 139 355.321 139C353.081 139 351.134 139.027 349.481 139.08C349.321 138.28 349.241 137.587 349.241 137C349.241 136.36 349.294 135.56 349.401 134.6L352.201 134.36C352.628 128.6 352.841 121.32 352.841 112.52C352.841 103.667 352.601 97.0533 352.121 92.68L349.001 92.44C348.841 91.6933 348.761 90.8667 348.761 89.96C348.761 89.0533 348.788 88.3867 348.841 87.96C353.374 87.8533 356.734 87.72 358.921 87.56C359.934 91.4 362.814 97.16 367.561 104.84C372.308 112.52 377.321 120.04 382.601 127.4ZM400.392 112.84C400.392 95.3467 406.926 86.6 419.992 86.6C433.112 86.6 439.672 95.3467 439.672 112.84C439.672 116.04 439.539 118.84 439.272 121.24C439.059 123.64 438.526 126.093 437.672 128.6C436.872 131.107 435.779 133.16 434.392 134.76C433.006 136.36 431.086 137.667 428.632 138.68C426.232 139.693 423.352 140.2 419.992 140.2C416.686 140.2 413.806 139.693 411.352 138.68C408.952 137.667 407.059 136.36 405.672 134.76C404.286 133.16 403.166 131.107 402.312 128.6C401.512 126.093 400.979 123.64 400.712 121.24C400.499 118.84 400.392 116.04 400.392 112.84ZM413.272 132.52C415.086 133.693 417.326 134.28 419.992 134.28C422.712 134.28 424.979 133.693 426.792 132.52C428.659 131.347 430.046 129.667 430.952 127.48C432.552 123.693 433.352 118.84 433.352 112.92C433.352 98.52 428.899 91.32 419.992 91.32C411.139 91.32 406.712 98.52 406.712 112.92C406.712 123.213 408.899 129.747 413.272 132.52ZM312.263 179.08C311.89 183.24 311.703 189.933 311.703 199.16C311.703 208.333 311.916 215.4 312.343 220.36L316.983 220.84C317.09 221.693 317.143 222.387 317.143 222.92C317.143 223.4 317.063 224.12 316.903 225.08C314.983 225.027 312.21 225 308.583 225C305.01 225 302.396 225.027 300.743 225.08C300.583 224.28 300.503 223.613 300.503 223.08C300.503 222.547 300.556 221.8 300.663 220.84L305.063 220.36C305.49 214.653 305.703 207.427 305.703 198.68C305.703 189.88 305.463 183.347 304.983 179.08C302.903 179.133 300.023 179.32 296.343 179.64L296.103 185.56C295.25 185.72 294.45 185.8 293.703 185.8C292.956 185.8 292.263 185.773 291.623 185.72C291.463 181.347 291.223 177.293 290.903 173.56L291.303 173.16C295.25 173.64 301.57 173.88 310.263 173.88C318.956 173.88 324.396 173.64 326.583 173.16L326.983 173.56C326.61 177.667 326.37 181.453 326.263 184.92C325.623 184.973 324.93 185 324.183 185C323.49 185 322.69 184.92 321.783 184.76L321.543 179.4C319.303 179.293 316.21 179.187 312.263 179.08ZM344.379 178.28C344.005 182.6 343.819 189.293 343.819 198.36C343.819 207.427 344.059 214.76 344.539 220.36L347.419 220.6C347.525 221.453 347.579 222.2 347.579 222.84C347.579 223.427 347.499 224.173 347.339 225.08C345.472 225.027 343.312 225 340.859 225C338.405 225 336.272 225.027 334.459 225.08C334.299 224.28 334.219 223.587 334.219 223C334.219 222.36 334.272 221.56 334.379 220.6L337.179 220.36C337.605 214.6 337.819 207.267 337.819 198.36C337.819 189.4 337.579 182.707 337.099 178.28L334.379 178.04C334.272 177.187 334.219 176.467 334.219 175.88C334.219 175.24 334.299 174.467 334.459 173.56C336.325 173.613 338.485 173.64 340.939 173.64C343.392 173.64 345.525 173.613 347.339 173.56C347.499 174.36 347.579 175.08 347.579 175.72C347.579 176.307 347.525 177.08 347.419 178.04L344.379 178.28ZM410.809 173.96C410.863 174.387 410.889 175.053 410.889 175.96C410.889 176.867 410.809 177.693 410.649 178.44L407.609 178.68C407.556 180.173 407.529 182.387 407.529 185.32C407.529 198.387 408.116 210.067 409.289 220.36L412.249 220.6C412.356 221.453 412.409 222.2 412.409 222.84C412.409 223.427 412.329 224.173 412.169 225.08C410.303 225.027 408.143 225 405.689 225C403.236 225 401.103 225.027 399.289 225.08C399.129 224.28 399.049 223.587 399.049 223C399.049 222.36 399.103 221.56 399.209 220.6L401.849 220.36C401.956 216.52 402.009 212.147 402.009 207.24C402.009 202.28 401.769 195.4 401.289 186.6C400.756 187.72 399.423 190.44 397.289 194.76C392.543 204.2 389.289 211.16 387.529 215.64C386.463 216.067 385.316 216.28 384.089 216.28C382.916 216.28 382.116 216.253 381.689 216.2C379.823 211.72 377.156 206.307 373.689 199.96C370.276 193.56 368.249 189.773 367.609 188.6C367.183 196.173 366.969 202.6 366.969 207.88C366.969 213.107 367.023 217.267 367.129 220.36L370.089 220.6C370.196 221.453 370.249 222.2 370.249 222.84C370.249 223.427 370.169 224.173 370.009 225.08C368.303 225.027 366.329 225 364.089 225C361.849 225 359.903 225.027 358.249 225.08C358.089 224.28 358.009 223.587 358.009 223C358.009 222.36 358.063 221.56 358.169 220.6L360.969 220.36C362.089 210.653 362.649 199.16 362.649 185.88C362.649 183.32 362.569 180.92 362.409 178.68L359.449 178.44C359.289 177.693 359.209 176.867 359.209 175.96C359.209 175.053 359.236 174.387 359.289 173.96C363.663 173.853 366.969 173.72 369.209 173.56C370.116 178.467 375.503 190.013 385.369 208.2C393.529 192.253 398.303 180.707 399.689 173.56C401.663 173.72 405.369 173.853 410.809 173.96ZM446.333 192.52C447.506 192.413 448.306 192.36 448.733 192.36C449.159 192.36 449.853 192.44 450.813 192.6C450.759 194.253 450.733 196.387 450.733 199C450.733 201.613 450.759 203.32 450.813 204.12C450.013 204.28 449.239 204.36 448.493 204.36C447.746 204.36 447.026 204.307 446.333 204.2L446.093 201.4C443.213 201.293 440.839 201.24 438.973 201.24C437.106 201.24 434.733 201.293 431.853 201.4C431.853 208.387 432.039 214.227 432.413 218.92C434.279 219.08 436.919 219.16 440.332 219.16C443.799 219.16 446.519 219.027 448.493 218.76L448.733 213.32C449.639 213.16 450.466 213.08 451.213 213.08C452.013 213.08 452.679 213.107 453.213 213.16C453.266 217.32 453.506 221.267 453.933 225L453.533 225.4C450.919 225.133 445.186 225 436.333 225C427.533 225 422.893 225.027 422.413 225.08C422.253 224.28 422.173 223.533 422.173 222.84C422.173 222.093 422.226 221.347 422.333 220.6L425.133 220.36C425.613 212.093 425.853 204.627 425.853 197.96C425.853 191.24 425.533 184.76 424.893 178.52L422.173 178.28C422.066 177.587 422.013 176.867 422.013 176.12C422.013 175.373 422.093 174.6 422.253 173.8C423.586 173.853 428.466 173.88 436.893 173.88C445.319 173.88 450.733 173.64 453.133 173.16L453.533 173.56C453.106 178.253 452.866 182.04 452.813 184.92C452.279 184.973 451.613 185 450.813 185C450.013 185 449.186 184.92 448.333 184.76L448.093 179.32C445.373 179.16 442.546 179.08 439.613 179.08C436.679 179.08 434.253 179.16 432.333 179.32C432.013 182.68 431.853 188.173 431.853 195.8C432.706 195.853 434.439 195.88 437.053 195.88C439.666 195.88 442.679 195.773 446.093 195.56L446.333 192.52ZM486.414 195C486.414 185.187 485.721 177.507 484.334 171.96C485.934 171.373 487.481 171.08 488.974 171.08C490.468 171.08 491.854 171.24 493.134 171.56C492.068 181.64 491.534 192.92 491.534 205.4C491.534 207.16 491.588 208.893 491.694 210.6C490.681 210.92 489.774 211.08 488.974 211.08C488.174 211.08 487.268 210.92 486.254 210.6C486.361 204.947 486.414 199.747 486.414 195ZM494.334 220.6C494.334 222.2 493.854 223.533 492.894 224.6C491.934 225.667 490.468 226.2 488.494 226.2C485.454 226.2 483.934 224.653 483.934 221.56C483.934 217.72 485.881 215.8 489.774 215.8C492.814 215.8 494.334 217.4 494.334 220.6Z" fill="white"/>
<defs>
<clipPath id="clip0_302_3996">
<rect width="235.193" height="256.352" fill="white" transform="translate(0 46.9709) rotate(-11.5201)"/>
</clipPath>
</defs>
</svg>
