<svg width="347" height="273" viewBox="0 0 347 273" fill="none" xmlns="http://www.w3.org/2000/svg">
<g clip-path="url(#clip0_308_954)">
<path d="M230.838 102.764C230.838 102.764 229.897 108.332 234.593 109.655C239.289 110.978 300.775 125.75 300.775 125.75C300.775 125.75 312.891 112.645 287.235 106.208C261.583 99.7737 230.838 102.761 230.838 102.761V102.764Z" fill="#CCB59D"/>
<path d="M228.393 164.869C227.579 177.501 217.806 183.204 218.212 178.725C218.621 174.242 220.453 165.275 216.236 158.866C213.385 154.528 200.081 138.852 186.922 123.613C172.443 106.841 158.141 90.6052 158.141 90.6052L193.272 77.7241C193.272 77.7241 203.766 99.48 213.283 121.476C221.376 140.187 228.767 159.064 228.393 164.872V164.869Z" fill="#CCB59D"/>
<path d="M213.283 121.472C204.995 123.542 195.791 123.999 186.925 123.609C172.446 106.837 158.144 90.6017 158.144 90.6017L193.275 77.7207C193.275 77.7207 203.769 99.4766 213.286 121.472H213.283Z" fill="#C5A998"/>
<path d="M291.839 121.233C291.839 121.233 331.621 173.763 336.694 182.616C340.264 188.842 338.712 197.554 338.367 201.908C338.023 206.263 346.298 200.72 346.987 188.446C347.677 176.172 314.056 85.3594 314.056 85.3594L291.836 121.233H291.839Z" fill="#CCB59D"/>
<path d="M155.242 83.8868C155.242 83.8868 154.386 92.34 164.567 93.7424C172.134 94.7871 203.964 102.451 205.263 102.681C206.562 102.911 210.151 102.914 212.516 99.3172C215.163 95.2919 223.282 89.6947 232.674 95.6529C242.067 101.611 232.776 76.5006 209.972 78.3855C187.167 80.2704 155.245 83.8868 155.245 83.8868H155.242Z" fill="#CCB59D"/>
<path d="M314.059 85.3595L298.451 118.594C297.139 121.393 294.032 122.875 291.035 122.13L269.737 116.878L235.73 108.486C232.534 107.7 230.481 104.646 230.852 101.371C231.091 99.2788 230.906 96.9658 229.594 95.1608C228.588 93.7775 226.921 92.6945 224.272 92.2313C218.11 91.1515 213.42 95.6528 210.869 98.9881C209.34 100.982 206.783 101.886 204.334 101.339L186.529 97.3492L173.631 94.458L160.194 91.4454C155.881 90.4806 153.78 85.5735 156.053 81.7782L171.077 56.7222L210.959 64.7089L226.513 67.8238L256.386 73.8074L310.238 84.5959H310.241L314.059 85.3595Z" fill="#DDD0BE"/>
<path d="M210.958 64.7089L173.628 94.458L160.19 91.4454C155.877 90.4806 153.776 85.5735 156.049 81.7782L171.074 56.7222L210.955 64.7089H210.958Z" fill="#E3DBCC"/>
<path d="M310.241 84.5959L269.737 116.878L235.73 108.486C232.534 107.7 230.481 104.646 230.851 101.371C231.091 99.2787 230.906 96.9658 229.594 95.1608L256.389 73.8042L310.241 84.5927V84.5959Z" fill="#E3DBCC"/>
<path d="M297.365 97.6718L292.829 107.192C291.028 110.968 286.683 113.019 282.434 112.099L249.439 104.969C248.452 104.754 247.542 104.4 246.728 103.933C246.265 103.668 245.831 103.365 245.435 103.036C242.456 100.557 241.336 96.3588 243.203 92.6657L247.82 83.5545C249.659 79.9253 253.873 77.9605 258.017 78.8071L290.932 85.5288C292.851 85.9217 294.482 86.845 295.705 88.0941C295.779 88.1676 295.842 88.2379 295.913 88.3114C298.179 90.7809 298.93 94.3973 297.369 97.6718H297.365Z" fill="#AE3331"/>
<path d="M297.365 97.6719L296.797 98.8603L292.829 107.192C291.028 110.968 286.683 113.019 282.43 112.099L282.213 112.051L260.057 107.266H260.054L254.282 106.013L249.438 104.969C248.452 104.755 247.542 104.4 246.728 103.934C246.504 103.783 246.284 103.617 246.08 103.445C244.595 101.831 243.762 99.7293 243.791 97.5537C243.807 96.3301 244.104 95.081 244.704 93.8894L249.317 84.7781C251.159 81.1489 255.37 79.1842 259.514 80.0308L262.49 80.6378L278.676 83.9443L284.512 85.1359L292.429 86.7524C293.649 86.9984 294.744 87.4648 295.702 88.091C295.775 88.1645 295.839 88.2348 295.909 88.3082C298.176 90.7777 298.93 94.3941 297.365 97.6687V97.6719Z" fill="#E53E31"/>
<path d="M278.679 83.9474L254.285 106.013L249.442 104.969C248.455 104.754 247.545 104.4 246.731 103.933C246.508 103.783 246.287 103.617 246.083 103.445C244.598 101.831 243.765 99.7292 243.794 97.5536L262.496 80.6377L278.682 83.9442L278.679 83.9474Z" fill="#F95048"/>
<path d="M297.365 97.672L296.797 98.8604L282.216 112.048L260.06 107.262L284.515 85.1392L292.433 86.7557C293.652 87.0017 294.747 87.4681 295.705 88.0943C295.778 88.1677 295.842 88.238 295.913 88.3115C298.179 90.781 298.933 94.3974 297.368 97.672H297.365Z" fill="#F95048"/>
<path d="M214.039 79.4843L208.87 88.6786C206.878 92.2247 202.543 94.0649 198.338 93.1512L172.255 87.4742C169.902 86.9631 168.002 85.7012 166.735 84.0527C164.736 81.4522 164.305 77.8933 166.128 74.7944L171.205 66.1815C173.2 62.7983 177.36 61.0253 181.43 61.8176L207.603 66.9099C210.585 67.4882 212.868 69.2708 214.1 71.5454C215.393 73.9319 215.511 76.8582 214.036 79.4843H214.039Z" fill="#336B7C"/>
<path d="M215.077 76.162C214.984 77.2802 214.643 78.4079 214.039 79.4845L208.871 88.6789C206.878 92.225 202.543 94.0651 198.341 93.1514L196.697 92.7936L177.893 88.7012H177.89L173.446 87.7332L172.258 87.4745C169.905 86.9633 168.009 85.7014 166.741 84.0529C165.975 82.6505 165.614 81.0659 165.745 79.4589C165.841 78.2705 166.208 77.0725 166.879 75.9384L171.955 67.3255C173.95 63.9423 178.107 62.1724 182.184 62.9615L183.665 63.249L197.527 65.9486L202.067 66.8335L208.353 68.0571C210.808 68.5363 212.801 69.8301 214.11 71.5425C214.873 72.9513 215.227 74.5487 215.083 76.1588L215.077 76.162Z" fill="#54C2D2"/>
<path d="M197.521 65.9515L173.443 87.7329L172.255 87.4742C169.902 86.963 168.006 85.7011 166.738 84.0527C165.972 82.6502 165.611 81.0656 165.742 79.4587L183.659 63.252L197.521 65.9515Z" fill="#75CFD8"/>
<path d="M215.077 76.162L196.694 92.7904L177.89 88.698L202.061 66.8335L208.347 68.0571C210.802 68.5363 212.794 69.8301 214.103 71.5425C214.866 72.9514 215.221 74.5487 215.077 76.1588V76.162Z" fill="#75CFD8"/>
<path d="M131.821 83.5C133.12 90.9756 134.42 98.4448 135.719 105.917C141.779 140.752 147.828 175.584 153.885 210.416C155.181 217.872 156.477 225.322 157.773 232.779C158.115 234.763 158.463 236.743 158.805 238.727C159.912 245.088 156.752 251.414 151.021 254.381C142.079 259.02 130.905 263.793 117.656 267.374C104.339 270.975 92.2299 272.486 82.1446 272.978C79.6895 273.099 77.3079 272.601 75.188 271.598C71.8582 270.029 69.1541 267.224 67.743 263.636L65.4507 257.803L18.7722 138.966L9.95752 116.53L131.818 83.5H131.821Z" fill="#FFECD9"/>
<path d="M7.09067 105.927C7.09067 105.927 4.4153 98.9464 11.7901 96.4897C11.7901 96.4897 9.53298 85.6054 19.596 82.8771C19.596 82.8771 19.0245 75.673 26.3003 76.2321C26.3003 76.2321 24.0081 67.1975 35.463 64.9548C35.463 64.9548 39.3931 53.3708 51.9015 58.8338C51.9015 58.8338 54.3885 48.5021 63.8768 52.1377C63.8768 52.1377 75.6414 42.9721 82.6044 55.1088C82.6044 55.1088 88.6959 46.3297 97.4275 51.7799C97.4275 51.7799 103.972 50.0068 105.246 57.2492C105.246 57.2492 111.344 53.7574 114.996 59.8944C114.996 59.8944 121.021 57.8019 122.291 65.0443C122.291 65.0443 129.427 66.5618 128.929 72.9032C128.929 72.9032 112.429 86.3402 72.2924 97.2213C32.1523 108.099 7.09386 105.927 7.09386 105.927H7.09067Z" fill="#F5C575"/>
<path d="M10.6185 104.969C10.6185 104.969 6.40435 95.7648 14.9189 91.9024C14.9189 91.9024 16.8696 82.9636 26.7282 86.8037C34.8182 89.9568 31.2202 95.1195 31.2202 95.1195C31.2202 95.1195 38.6652 94.6051 41.248 100.975C44.8301 109.799 10.6185 104.966 10.6185 104.966V104.969Z" fill="#F5D482"/>
<path d="M72.005 84.0817C72.005 84.0817 66.185 86.8419 68.8029 92.3017C71.8103 98.5793 81.2283 90.1421 81.2283 90.1421C81.2283 90.1421 94.0816 89.2443 88.4052 81.6441C88.4052 81.6441 91.4413 79.4909 88.5393 75.7691C85.6373 72.0473 80.3408 71.5872 78.1124 77.3632C78.1124 77.3632 71.0664 76.1652 72.005 84.0817Z" fill="#F5D482"/>
<path d="M64.078 53.3291C64.078 53.3291 60.2341 55.1533 61.9645 58.7569C63.9503 62.9005 70.1694 57.3289 70.1694 57.3289C70.1694 57.3289 78.6584 56.7379 74.9104 51.7158C74.9104 51.7158 76.9153 50.2942 74.9966 47.8374C73.0778 45.3807 69.582 45.0772 68.1134 48.8917C68.1134 48.8917 63.4618 48.0994 64.0812 53.3291H64.078Z" fill="#F5EDC8"/>
<path d="M50.3915 77.0915C50.3915 77.0915 44.5714 79.8517 47.1893 85.3114C50.1967 91.589 59.6148 83.1518 59.6148 83.1518C59.6148 83.1518 72.4681 82.2541 66.7917 74.6539C66.7917 74.6539 69.8278 72.5007 66.9258 68.7789C64.0237 65.057 58.7273 64.597 56.4989 70.373C56.4989 70.373 49.4529 69.175 50.3915 77.0915Z" fill="#F5D482"/>
<path d="M34.0677 61.9328C34.0677 61.9328 28.2477 64.693 30.8656 70.1527C33.873 76.4303 43.2911 67.9931 43.2911 67.9931C43.2911 67.9931 56.1443 67.0954 50.468 59.4952C50.468 59.4952 53.5041 57.342 50.602 53.6202C47.7 49.8983 42.4035 49.4383 40.1751 55.2143C40.1751 55.2143 33.1291 54.0163 34.0677 61.9328Z" fill="#F5DBB1"/>
<path d="M90.0751 64.3C90.0751 64.3 95.5088 67.7598 98.7365 62.6387C102.446 56.7509 90.2954 53.2591 90.2954 53.2591C90.2954 53.2591 87.1156 44.3427 79.2842 51.7001C79.2842 51.7001 75.8458 50.2752 74.2432 54.7127C72.6405 59.1501 75.0668 63.8847 81.1391 62.6962C81.1391 62.6962 83.8751 69.3029 90.0751 64.2968V64.3Z" fill="#F5DBB1"/>
<path d="M58.7017 51.3197C58.7017 51.3197 50.7298 47.0229 50.8096 58.7826C50.8096 58.7826 46.7551 61.2041 48.8941 66.1431C51.0363 71.0822 59.42 68.635 61.6388 66.4818C61.6388 66.4818 67.9505 67.3571 68.3975 61.3735C68.8444 55.3898 64.9112 56.0479 64.9112 56.0479C64.9112 56.0479 66.7118 48.9429 58.6985 51.3197H58.7017Z" fill="#F5D482"/>
<path d="M19.1744 91.9535C15.3849 91.2667 14.8772 94.2441 15.4359 96.5347C15.4359 96.5347 13.6736 96.7136 13.7247 99.0234C13.7726 101.333 18.2294 103.86 20.3493 98.0746C20.3493 98.0746 22.7437 99.4131 24.1229 97.0363C25.5021 94.6594 23.3024 94.2473 23.3024 94.2473C23.727 93.1164 23.2418 91.8417 22.1914 91.2858C21.173 90.7459 19.8896 91.0239 19.1744 91.9535Z" fill="#F5B56B"/>
<path d="M16.2022 81.6823C16.2022 81.6823 10.5099 78.6154 10.5674 87.0111C10.5674 87.0111 7.6717 88.7394 9.20094 92.2664C10.7302 95.7933 16.8759 94.7614 17.9997 91.6977C17.9997 91.6977 22.8045 93.1353 23.1269 88.864C23.4462 84.5927 20.6367 85.0623 20.6367 85.0623C20.6367 85.0623 21.9233 79.9891 16.2022 81.6855V81.6823Z" fill="#F5EDC8"/>
<path d="M60.6908 60.0156C60.6908 60.0156 56.0839 57.5334 56.1318 64.3285C56.1318 64.3285 53.7884 65.7278 55.0271 68.5806C56.2627 71.4335 61.109 70.0215 62.3892 68.7755C62.3892 68.7755 66.0351 69.2803 66.2937 65.8236C66.5523 62.3669 64.2792 62.7471 64.2792 62.7471C64.2792 62.7471 65.32 58.6419 60.6908 60.0156Z" fill="#F5EDC8"/>
<path d="M96.2366 72.3088C96.2366 72.3088 89.3374 68.5902 89.4077 78.7685C89.4077 78.7685 85.899 80.8643 87.7507 85.1356C89.6024 89.4101 96.8591 87.292 98.7779 85.4295C98.7779 85.4295 104.24 86.1866 104.627 81.008C105.013 75.8294 101.61 76.3981 101.61 76.3981C101.61 76.3981 103.168 70.2483 96.2334 72.3057L96.2366 72.3088Z" fill="#F5EDC8"/>
<path d="M38.5374 84.81C38.5374 84.81 30.5655 80.5131 30.6453 92.2728C30.6453 92.2728 26.5908 94.6944 28.7298 99.6334C30.8688 104.572 39.2557 102.125 41.4745 99.972C41.4745 99.972 47.7862 100.847 48.2332 94.8637C48.6801 88.88 44.7469 89.5381 44.7469 89.5381C44.7469 89.5381 46.5475 82.4331 38.5342 84.81H38.5374Z" fill="#F5DBB1"/>
<path d="M114.453 79.8935C114.453 79.8935 123.188 77.4975 115.015 69.0411C115.015 69.0411 116.28 64.4887 111.325 62.393C106.37 60.2972 101.986 67.8591 101.868 70.9484C101.868 70.9484 96.6964 74.6734 100.499 79.3153C104.301 83.9572 106.695 80.7625 106.695 80.7625C106.695 80.7625 110.294 87.1487 114.453 79.8935Z" fill="#F5DBB1"/>
<path d="M95.946 60.1118C95.946 60.1118 90.4101 65.4884 95.0521 70.3572C99.2312 74.7371 110.715 71.1111 107.87 63.7793C107.87 63.7793 114.176 61.0159 110.606 54.4923C107.037 47.9687 103.238 55.0322 103.238 55.0322C103.238 55.0322 95.4831 50.7545 95.946 60.1118Z" fill="#F5D482"/>
<path d="M31.1178 73.3156C31.1178 73.3156 23.6408 72.009 24.4453 78.8041C24.4453 78.8041 21.1889 82.9061 26.5556 83.6345C26.5556 83.6345 29.7769 88.7396 32.9791 81.8934C32.9791 81.8934 42.0874 83.7495 39.5557 75.6286C36.9442 67.2553 31.1178 73.3156 31.1178 73.3156Z" fill="#F5D482"/>
<path d="M79.9769 82.6024C76.1873 81.9156 75.6797 84.893 76.2384 87.1836C76.2384 87.1836 74.4761 87.3625 74.5272 89.6723C74.5751 91.9821 79.0319 94.5091 81.1518 88.7235C81.1518 88.7235 83.5462 90.0621 84.9254 87.6852C86.3046 85.3115 84.1049 84.8962 84.1049 84.8962C84.5295 83.7653 84.0442 82.4906 82.9939 81.9347C81.9755 81.3948 80.6921 81.6728 79.9769 82.6024Z" fill="#F5B56B"/>
<path d="M104.39 57.9552C104.39 57.9552 107.066 56.2236 107.414 59.2522C107.414 59.2522 110.75 60.923 107.727 63.1817C107.727 63.1817 108.068 68.06 103.726 65.9036C103.726 65.9036 102.028 68.3923 100.313 65.6927C98.5991 62.9932 101.112 61.1595 102.085 61.2904C102.085 61.2904 100.754 57.575 104.39 57.9616V57.9552Z" fill="#F5B56B"/>
<path d="M69.847 77.1779C69.847 77.1779 62.37 75.8713 63.1745 82.6664C63.1745 82.6664 59.9181 86.7684 65.288 87.4968C65.288 87.4968 68.5093 92.6019 71.7115 85.7557C71.7115 85.7557 80.8198 87.6118 78.2881 79.4909C75.6766 71.1176 69.8502 77.1779 69.8502 77.1779H69.847Z" fill="#F5DBB1"/>
<path d="M41.3436 66.6702C44.8905 68.1686 46.0367 65.3764 45.9888 63.0155C45.9888 63.0155 47.7479 63.2264 48.2044 60.9613C48.661 58.6995 44.8618 55.2588 41.5352 60.4406C41.5352 60.4406 39.4919 58.6132 37.6274 60.6291C35.763 62.6449 37.819 63.5299 37.819 63.5299C37.1581 64.5394 37.3529 65.8907 38.2564 66.6639C39.1311 67.4114 40.4465 67.421 41.3436 66.6734V66.6702Z" fill="#F5B56B"/>
<path d="M39.1439 69.012C33.8762 69.29 34.1316 73.4175 35.6002 76.296C35.6002 76.296 33.3079 77.0882 34.0997 80.152C34.8882 83.2157 41.6245 85.1836 42.6334 76.8039C42.6334 76.8039 46.2442 77.8358 47.3392 74.2354C48.4343 70.6349 45.3694 70.7755 45.3694 70.7755C45.5769 69.1366 44.533 67.5872 42.959 67.1751C41.433 66.7757 39.808 67.5521 39.1471 69.012H39.1439Z" fill="#F5EDC8"/>
<path d="M82.8917 70.9226C80.8038 66.0762 77.0238 67.7471 74.8369 70.1271C74.8369 70.1271 73.2981 68.2518 70.7025 70.0568C68.1069 71.8618 68.6018 78.8646 76.8003 76.9031C76.8003 76.9031 77.0876 80.6505 80.8421 80.4268C84.5965 80.2032 83.3993 77.3759 83.3993 77.3759C85.0084 77.0021 86.0971 75.4814 85.9374 73.8649C85.781 72.2931 84.4912 71.0376 82.8917 70.9258V70.9226Z" fill="#F5EDC8"/>
<path d="M44.1085 98.0136C47.7927 101.79 50.7235 98.873 51.9143 95.87C51.9143 95.87 54.0214 97.068 55.7996 94.4547C57.5779 91.8383 54.6088 85.4776 47.6554 90.2505C47.6554 90.2505 46.0463 86.8546 42.6207 88.4104C39.1951 89.9662 41.3245 92.1769 41.3245 92.1769C39.9549 93.1034 39.4824 94.9116 40.2135 96.3652C40.9223 97.7772 42.576 98.4865 44.1085 98.0168V98.0136Z" fill="#F5EDC8"/>
<path d="M57.9034 80.5516C61.4503 82.0499 62.5965 79.2577 62.5486 76.8969C62.5486 76.8969 64.3077 77.1077 64.7642 74.8427C65.2208 72.5808 61.4216 69.1401 58.095 74.3219C58.095 74.3219 56.0517 72.4946 54.1873 74.5104C52.3228 76.5263 54.3788 77.4112 54.3788 77.4112C53.718 78.4207 53.9127 79.7721 54.8162 80.5452C55.691 81.2928 57.0063 81.3023 57.9034 80.5548V80.5516Z" fill="#F5B56B"/>
<path d="M117.18 55.8725C112.701 53.0867 110.552 56.62 110.111 59.8211C110.111 59.8211 107.778 59.1598 106.676 62.1245C105.575 65.0892 109.977 70.5585 115.59 64.2618C115.59 64.2618 117.962 67.1753 120.918 64.8464C123.871 62.5175 121.279 60.8818 121.279 60.8818C122.387 59.655 122.412 57.7861 121.359 56.5498C120.334 55.3485 118.559 55.0546 117.183 55.8757L117.18 55.8725Z" fill="#F5EDC8"/>
<path d="M79.6707 99.008L66.8271 102.49L110.502 263.792L123.345 260.31L79.6707 99.008Z" fill="#E53E31"/>
<path d="M103.608 264.288L94.3115 263.474L43.0325 107.566L55.8762 104.083L103.608 264.288Z" fill="#E53E31"/>
<path d="M85.216 263.41L78.4031 263.867L25.9109 111.732L36.0632 108.981L85.216 263.41Z" fill="#E53E31"/>
<path d="M75.188 271.601C71.8582 270.033 69.1541 267.228 67.743 263.64L65.4507 257.806L9.95752 116.53L17.061 114.604L73.3331 266.627C73.3331 266.627 74.2494 268.723 75.188 271.598V271.601Z" fill="#E53E31"/>
<path d="M131.048 256.851L138.663 251.452L104.295 90.96L91.4509 94.4422L131.048 256.851Z" fill="#E53E31"/>
<path d="M144.553 247.328L150.667 244.28L119.252 86.4331L109.099 89.1837L144.553 247.328Z" fill="#E53E31"/>
<path d="M131.821 83.5003C139.177 125.805 146.532 168.115 153.885 210.419L157.773 232.782L158.348 239.082C158.942 242.89 158.019 246.679 155.938 249.714C155.296 246.756 155.031 244.484 155.031 244.484L126.936 84.8229L131.824 83.4971L131.821 83.5003Z" fill="#E53E31"/>
<g style="mix-blend-mode:multiply">
<path d="M131.821 83.5003C133.12 90.9759 134.42 98.4451 135.719 105.917C121.841 104.106 101.262 103.854 75.9415 110.716C48.562 118.137 29.8631 130.022 18.7754 138.963L9.96069 116.527L131.821 83.4971V83.5003Z" fill="#E6E6E6"/>
</g>
<path d="M135.875 78.1393C135.904 80.5832 134.289 82.8291 131.821 83.5C113.904 90.3782 93.8198 97.1382 71.7049 103.128C49.6442 109.109 28.9405 113.402 10.0437 116.508C7.37467 116.843 4.81104 115.901 3.73515 113.933C1.95369 110.665 3.73515 106.834 7.09053 105.927C26.5333 102.096 47.1732 97.3682 68.7869 91.5027C90.2505 85.682 110.319 79.382 128.925 72.9064C129.375 72.7754 130.745 72.4623 132.332 73.0469C133.401 73.4367 134.343 74.1555 134.975 75.1618C135.582 76.1266 135.866 77.1489 135.875 78.1425V78.1393Z" fill="#FFECD9"/>
<path d="M135.875 78.1392C135.904 80.5831 134.289 82.829 131.821 83.4999C113.904 90.3781 93.8197 97.1381 71.7048 103.128C49.6442 109.109 28.9404 113.402 10.0436 116.508C7.37463 116.843 4.811 115.901 3.73511 113.933C23.976 110.527 45.9919 105.908 69.3743 99.6172C93.7463 93.0617 115.938 85.6723 135.808 78.1328C135.831 78.1328 135.853 78.136 135.875 78.1392Z" fill="#F3DDCF"/>
<path d="M157.773 232.782C158.115 234.766 158.463 236.747 158.805 238.731C159.912 245.091 156.752 251.417 151.021 254.385C142.079 259.024 130.905 263.796 117.656 267.378C104.339 270.978 92.2299 272.489 82.1446 272.981C75.8425 273.291 70.0512 269.515 67.7429 263.637L65.4507 257.803C76.3469 258.787 93.2547 259.017 112.95 253.823C133.57 248.382 148.69 239.258 157.77 232.782H157.773Z" fill="#F3DDCF"/>
<path d="M100.125 202.796C119.776 197.468 131.707 178.38 126.775 160.161C121.842 141.943 101.912 131.493 82.2611 136.821C62.6099 142.149 50.6784 161.237 55.6113 179.455C60.5442 197.674 80.4735 208.124 100.125 202.796Z" fill="#FFE2C4"/>
<path d="M92.0959 207.883C84.6061 208.301 77.1994 206.742 70.6004 203.279C61.2589 198.382 54.6503 190.267 51.9909 180.44C49.3315 170.61 50.9437 160.269 56.5371 151.324C62.073 142.468 70.859 136.037 81.2763 133.213C102.89 127.357 124.915 139.011 130.378 159.195C135.84 179.38 122.703 200.567 101.093 206.423C98.1139 207.231 95.0969 207.717 92.0991 207.883H92.0959ZM90.6209 139.241C88.1754 139.379 85.7012 139.772 83.2302 140.443C74.639 142.771 67.411 148.046 62.8807 155.295C58.4048 162.454 57.1022 170.687 59.2125 178.482C61.3228 186.277 66.6001 192.727 74.0739 196.647C81.6434 200.618 90.5411 201.519 99.1323 199.193C116.762 194.414 127.533 177.351 123.15 161.154C119.38 147.228 105.61 138.408 90.6209 139.245V139.241Z" fill="#E53E31"/>
<path d="M74.1983 171.505L69.3999 153.777L73.314 152.717C75.0603 152.244 76.4938 152.384 77.6176 153.138C78.7382 153.892 79.5714 155.266 80.111 157.26C80.6154 159.125 80.5324 160.713 79.8651 162.026C79.1947 163.339 78.0071 164.227 76.2958 164.69L75.9766 164.777L77.5537 170.597L74.2047 171.505H74.1983ZM73.4608 155.499L75.2295 162.036L75.3636 162.001C76.0851 161.806 76.5576 161.374 76.7779 160.71C76.9982 160.045 76.9599 159.17 76.6662 158.084C76.3788 157.02 75.9734 156.276 75.453 155.854C74.9326 155.432 74.2686 155.314 73.464 155.499H73.4608Z" fill="#E53E31"/>
<path d="M92.7792 157.326C93.5838 160.301 93.7594 162.639 93.306 164.339C92.8527 166.038 91.7704 167.118 90.0592 167.585C88.3192 168.057 86.8315 167.655 85.596 166.38C84.3604 165.105 83.3197 162.898 82.4673 159.758C81.6148 156.608 81.4009 154.173 81.8255 152.454C82.2502 150.736 83.3324 149.64 85.0724 149.167C86.8475 148.685 88.3512 149.094 89.5803 150.388C90.8094 151.685 91.8757 153.998 92.7761 157.326H92.7792ZM85.9056 158.716C86.5633 161.141 87.138 162.777 87.6328 163.626C88.1277 164.476 88.6736 164.821 89.2706 164.658C89.874 164.495 90.1773 163.92 90.1741 162.936C90.1741 161.952 89.8453 160.25 89.1876 157.825C88.5427 155.438 87.9649 153.809 87.4604 152.937C86.956 152.065 86.4037 151.71 85.8067 151.87C85.2033 152.033 84.9 152.605 84.9032 153.579C84.9032 154.553 85.2384 156.266 85.9025 158.713L85.9056 158.716Z" fill="#E53E31"/>
<path d="M97.4849 165.192L92.6865 147.464L96.6006 146.404C98.3469 145.931 99.7804 146.071 100.904 146.825C102.025 147.579 102.858 148.953 103.398 150.947C103.902 152.812 103.819 154.4 103.152 155.713C102.481 157.026 101.294 157.914 99.5825 158.377L99.2632 158.464L100.84 164.284L97.4913 165.192H97.4849ZM96.7475 149.186L98.5161 155.723L98.6502 155.688C99.3718 155.493 99.8443 155.061 100.065 154.4C100.285 153.736 100.247 152.86 99.9528 151.774C99.6655 150.71 99.26 149.966 98.7364 149.544C98.216 149.122 97.552 149.004 96.7475 149.189V149.186Z" fill="#E53E31"/>
<path d="M80.7176 184.52C80.9156 186.248 80.7017 187.667 80.0695 188.775C79.4406 189.884 78.4254 190.625 77.0238 191.005C75.2998 191.472 73.8153 191.072 72.5734 189.804C71.3315 188.536 70.2939 186.357 69.4574 183.268C68.5923 180.066 68.3911 177.594 68.8604 175.849C69.3297 174.105 70.4886 172.984 72.3403 172.482C73.6461 172.128 74.7922 172.22 75.7787 172.754C76.7652 173.287 77.6113 174.284 78.3136 175.738L75.4946 177.645C75.1562 176.715 74.7922 176.07 74.4027 175.712C74.0132 175.351 73.5631 175.239 73.0555 175.38C72.3691 175.565 72.0083 176.156 71.9764 177.156C71.9413 178.156 72.2573 179.881 72.9214 182.335C73.5631 184.705 74.1409 186.299 74.6517 187.111C75.1657 187.925 75.7532 188.242 76.4172 188.06C76.9121 187.925 77.2345 187.545 77.3846 186.916C77.5346 186.287 77.5187 185.405 77.3399 184.271L80.7176 184.523V184.52Z" fill="#E53E31"/>
<path d="M91.3871 177.591C92.1917 180.565 92.3673 182.903 91.9139 184.603C91.4606 186.303 90.3783 187.386 88.6671 187.849C86.9271 188.322 85.4394 187.919 84.2039 186.644C82.9684 185.37 81.9276 183.162 81.0752 180.022C80.2227 176.872 80.0088 174.437 80.4335 172.719C80.8581 171 81.9403 169.904 83.6803 169.431C85.4554 168.949 86.9591 169.358 88.1882 170.652C89.4173 171.949 90.4836 174.262 91.384 177.591H91.3871ZM84.5136 178.98C85.1712 181.405 85.7459 183.041 86.2407 183.894C86.7356 184.744 87.2815 185.089 87.8785 184.926C88.4819 184.763 88.7852 184.188 88.782 183.204C88.782 182.22 88.4532 180.517 87.7955 178.092C87.1506 175.706 86.5728 174.076 86.0683 173.204C85.5639 172.332 85.0116 171.977 84.4146 172.137C83.8112 172.3 83.5079 172.872 83.5111 173.846C83.5111 174.821 83.8463 176.533 84.5104 178.98H84.5136Z" fill="#E53E31"/>
<path d="M96.0931 185.459L91.2947 167.732L95.4642 166.601C97.2839 166.109 98.7749 166.153 99.9338 166.738C101.093 167.323 101.894 168.434 102.338 170.073C102.644 171.204 102.66 172.226 102.382 173.131C102.105 174.038 101.559 174.763 100.741 175.309L106.102 182.743L102.619 183.686L97.4404 176.13L97.1211 176.217L99.3815 184.564L96.0963 185.456L96.0931 185.459ZM96.6326 174.431C96.6773 174.418 96.7412 174.405 96.8306 174.389C96.9168 174.373 96.9838 174.361 97.0285 174.348C97.8841 174.115 98.4875 173.715 98.8387 173.147C99.1899 172.578 99.2601 171.891 99.043 171.092C98.8259 170.294 98.4301 169.747 97.8554 169.463C97.2807 169.179 96.5433 169.156 95.643 169.399L95.3014 169.492L96.639 174.431H96.6326Z" fill="#E53E31"/>
<path d="M108.231 182.169L103.433 164.441L106.782 163.534L111.357 171.364C111.586 171.748 111.966 172.438 112.496 173.431C113.026 174.428 113.671 175.667 114.431 177.156L114.651 177.095C113.796 175.019 113.068 173.172 112.464 171.559C111.861 169.949 111.452 168.738 111.232 167.93L109.818 162.71L112.847 161.889L117.646 179.616L114.361 180.507L110.003 173.214C109.942 173.108 109.84 172.933 109.693 172.69C108.47 170.661 107.506 168.866 106.798 167.297L106.6 167.352C107.442 169.409 108.158 171.256 108.751 172.894C109.345 174.533 109.792 175.91 110.096 177.028L111.264 181.344L108.225 182.169H108.231Z" fill="#E53E31"/>
<path d="M81.4296 58.6421C81.4296 58.6421 79 56.4505 81.9053 55.2972C81.9053 55.2972 82.6683 51.5434 85.714 53.9363C85.714 53.9363 90.4549 52.2942 89.478 57.1757C89.478 57.1757 92.396 58.198 90.1804 60.6196C87.9648 63.0412 85.4746 61.0381 85.3437 60.0381C85.3437 60.0381 82.0202 62.3511 81.4296 58.6421Z" fill="#F5B56B"/>
<path d="M115.446 58.2205C115.446 58.2205 117.142 57.1247 117.362 59.0415C117.362 59.0415 119.475 60.099 117.56 61.5302C117.56 61.5302 117.777 64.6195 115.025 63.2554C115.025 63.2554 113.949 64.8303 112.864 63.1212C111.778 61.412 113.371 60.2491 113.987 60.3322C113.987 60.3322 113.145 57.9777 115.45 58.2237L115.446 58.2205Z" fill="#F5B56B"/>
<path d="M61.0099 62.4791C61.0099 62.4791 62.7849 61.6964 62.7019 63.5493C62.7019 63.5493 64.544 64.8719 62.5136 65.9389C62.5136 65.9389 62.2486 68.9036 59.8478 67.1913C59.8478 67.1913 58.5867 68.5235 57.8173 66.7344C57.0479 64.9486 58.7336 64.086 59.305 64.2585C59.305 64.2585 58.8613 61.8976 61.0099 62.4791Z" fill="#F5B56B"/>
<path d="M16.4129 85.0912C16.4129 85.0912 18.1497 84.0306 18.0698 85.8803C18.0698 85.8803 19.9119 87.2029 17.8815 88.27C17.8815 88.27 17.6165 91.2346 15.2157 89.5223C15.2157 89.5223 13.9546 90.8545 13.1852 89.0654C12.4158 87.2796 14.1015 86.417 14.6729 86.5896C14.6729 86.5896 14.0057 84.3852 16.4129 85.088V85.0912Z" fill="#F5B56B"/>
<path d="M32.9439 10.5269C32.9439 10.5269 39.1599 8.84005 37.5508 3.00333C35.6991 -3.70554 24.9402 2.92985 24.9402 2.92985C24.9402 2.92985 16.2117 -0.721689 16.3713 10.0221C16.3713 10.0221 13.0032 11.6067 15.2028 15.7821C17.4025 19.9576 22.533 21.3505 25.7447 16.0569C25.7447 16.0569 32.4682 18.4817 32.9439 10.5237V10.5269Z" fill="#F5DBB1"/>
<path d="M22.945 13.1114C22.945 13.1114 19.6918 13.434 20.7932 10.5077C20.7932 10.5077 18.5329 7.41523 22.3512 6.77629C22.3512 6.77629 24.3306 2.16314 27.2805 6.17249C27.2805 6.17249 30.0006 4.69973 30.2975 7.97111C30.5944 11.2425 27.4369 11.7345 26.6132 11.1562C26.6132 11.1562 26.0833 15.172 22.945 13.1114Z" fill="#F5B56B"/>
<path d="M1.6058 54.0927C1.6058 54.0927 -1.71766 56.7412 1.19715 59.3097C4.54616 62.2584 9.0796 55.7476 9.0796 55.7476C9.0796 55.7476 17.5176 52.8117 12.0998 49.6234C12.0998 49.6234 13.6801 47.8407 10.9441 46.3041C8.20803 44.7674 4.55573 45.5118 4.28437 49.1697C4.28437 49.1697 -0.699229 49.831 1.6058 54.0927Z" fill="#F5D482"/>
<path d="M4.95171 50.2656C2.26357 50.5979 2.5509 52.3645 3.41289 53.5402C3.41289 53.5402 2.26996 53.9747 2.79034 55.2589C3.31073 56.5432 6.83852 57.1183 7.03646 53.4731C7.03646 53.4731 8.92646 53.7702 9.35107 52.1792C9.77568 50.5883 8.20813 50.7704 8.20813 50.7704C8.25282 50.058 7.65581 49.4318 6.83532 49.32C6.03718 49.2114 5.23585 49.6107 4.95171 50.2656Z" fill="#F5B56B"/>
<path d="M71.9124 41.0299C71.9124 41.0299 77.1386 40.7967 73.614 34.9887C73.614 34.9887 74.907 32.5863 72.3849 30.7717C69.8596 28.9571 66.4244 32.6566 65.9646 34.3817C65.9646 34.3817 62.5741 35.8194 64.1257 38.9214C65.6773 42.0235 67.4332 40.5283 67.4332 40.5283C67.4332 40.5283 68.6432 44.5856 71.9156 41.0299H71.9124Z" fill="#F5EDC8"/>
<path d="M70.3736 39.0809C70.3736 39.0809 69.253 40.6623 68.3719 39.033C68.3719 39.033 66.1115 38.8445 67.3088 36.883C67.3088 36.883 66.0158 34.2026 68.9561 34.4422C68.9561 34.4422 69.3552 32.6532 70.9323 33.7905C72.5094 34.9278 71.5038 36.5315 70.9259 36.6785C70.9259 36.6785 72.5158 38.4771 70.3736 39.0809Z" fill="#F5B56B"/>
</g>
<defs>
<clipPath id="clip0_308_954">
<rect width="347" height="273" fill="white"/>
</clipPath>
</defs>
</svg>
