<svg width="405" height="175" viewBox="0 0 405 175" fill="none" xmlns="http://www.w3.org/2000/svg">
<path d="M40.7264 140.321H34.7371V164.031H40.7264V140.321Z" fill="#785600"/>
<path d="M369.472 140.321H363.483V164.031H369.472V140.321Z" fill="#785600"/>
<path d="M77.4839 0H330.286C360.961 0 385.869 24.8395 385.869 55.4365V80.3121C385.869 87.0284 380.402 92.4818 373.668 92.4818H34.1117C27.3783 92.4818 21.9109 87.0284 21.9109 80.3121V55.4365C21.9057 24.8395 46.8139 0 77.4839 0Z" fill="#47794A"/>
<path d="M335.05 92.4869C360.201 86.2087 376.629 81.2295 376.629 81.2295C376.629 81.2295 350.336 50.7046 202.495 50.7046C54.6531 50.7046 32.1841 81.2295 32.1841 81.2295C32.1841 81.2295 38.8297 86.2138 51.6507 92.4869H335.05Z" fill="#476F3E"/>
<path d="M23.8953 40.6895C30.2256 36.767 46.0025 31.0609 58.8235 25.8343C86.5067 14.546 106.661 13.9223 142.757 9.86053C158.844 8.05131 182.791 5.02562 212.381 0H80.0109C50.917 0 33.0007 6.15446 23.8953 40.6895Z" fill="#5A935A"/>
<path d="M328.017 28.3598C334.069 33.205 350.088 42.9882 375.152 36.6276C376.609 36.2564 377.792 37.9523 377.084 39.4213C374.588 44.6015 370.588 53.524 370.878 57.0445C371.291 62.1371 374.304 78.5284 374.464 81.786C374.464 81.786 336.368 97.4917 313.677 76.2346C313.677 76.2346 321.516 58.7145 325.619 52.4467C327.738 49.2097 325.578 38.6533 325.268 29.9989C325.211 28.3958 326.849 27.4268 328.022 28.3649L328.017 28.3598Z" fill="#E5830F"/>
<path d="M371.085 59.0034C352.305 73.3071 326.808 67.5186 318.824 65.1836C316.023 70.967 313.667 76.2246 313.667 76.2246C336.358 97.4868 374.454 81.7811 374.454 81.7811C374.309 78.8688 371.886 65.4517 371.079 59.0034H371.085Z" fill="#E1770F"/>
<path d="M336.632 49.7352C329.686 54.7144 325.537 60.6215 324.834 59.9514C324.343 59.4875 326.55 56.8226 327.955 51.132C328.307 49.7146 328.886 46.9724 328.994 43.6116C329.216 36.7974 327.294 33.7717 328.472 32.7666C329.888 31.5605 332.89 35.7201 339.231 38.3592C346.383 41.3385 351.696 39.8489 351.897 41.2509C352.13 42.8591 344.967 43.756 336.627 49.7352H336.632Z" fill="#FC950F"/>
<path d="M76.0681 28.9322C69.6033 33.8599 54.1934 42.5143 30.6185 36.8598C28.7891 36.4217 27.3267 38.5556 28.2 40.3958C30.696 45.6585 34.21 53.7356 33.9413 57.0396C33.5279 62.1322 30.5151 78.5235 30.3549 81.7811C30.3549 81.7811 68.4509 97.4869 91.1421 76.2298C91.1421 76.2298 83.3028 58.7097 79.1997 52.4418C77.1739 49.3388 79.0705 39.5195 79.5046 31.0919C79.6079 29.0765 77.5615 27.793 76.0629 28.9373L76.0681 28.9322Z" fill="#E5830F"/>
<path d="M33.7294 59.0034C52.5087 73.3071 78.0059 67.5186 85.99 65.1836C88.7909 70.967 91.1473 76.2246 91.1473 76.2246C68.4561 97.4868 30.3601 81.7811 30.3601 81.7811C30.5048 78.8688 32.9284 65.4517 33.7346 59.0034H33.7294Z" fill="#E1770F"/>
<path d="M366.997 97.8372V66.3175C366.997 57.6941 373.291 50.7046 381.053 50.7046H382.092C394.742 50.7046 404.995 62.096 404.995 76.1523V94.9507C404.995 122.579 384.836 144.98 359.964 144.98H45.031C20.159 144.975 0 122.574 0 94.9455V76.1471C0 62.096 10.2526 50.7046 22.9031 50.7046H25.1458C32.9077 50.7046 39.2019 57.6941 39.2019 66.3175V97.8372H366.997Z" fill="#5A935A"/>
<path d="M360.052 76.2607H209.502C205.632 76.2607 202.495 79.3895 202.495 83.2502C202.495 79.3895 199.358 76.2607 195.488 76.2607H46.2041C42.3336 76.2607 39.1968 79.3895 39.1968 83.2502V110.626C39.1968 114.486 42.3336 117.615 46.2041 117.615H195.493C199.363 117.615 202.5 114.486 202.5 110.626C202.5 114.486 205.637 117.615 209.507 117.615H360.052C363.922 117.615 367.059 114.486 367.059 110.626V83.2502C367.059 79.3895 363.922 76.2607 360.052 76.2607Z" fill="#5F9C5A"/>
<path d="M215.636 117.615H353.913C361.168 117.615 367.049 118.878 367.049 108.796V104.605C351.541 109.497 321.558 113.13 282.33 112.801C245.764 112.491 217.739 109.419 202.495 104.605V108.796C202.495 118.733 205.177 117.615 215.631 117.615H215.636Z" fill="#568851"/>
<path d="M353.918 76.2606H215.636C208.381 76.2606 202.5 73.6627 202.5 83.5697V86.2191C207.59 84.6676 213.983 83.3686 221.481 82.1058C242.668 78.544 250.523 81.7501 281.762 81.7553C315.067 81.7553 321.165 78.1111 343.36 81.178C352.745 82.4718 360.729 84.3789 367.054 86.2191V85.0799C367.054 75.3276 361.173 76.2606 353.918 76.2606Z" fill="#6DA94C"/>
<path d="M52.2399 117.615H189.462C200.702 117.615 202.5 118.661 202.5 108.796V104.605C187.111 109.497 157.355 113.13 118.427 112.801C82.14 112.491 54.3277 110.43 39.2019 105.62V108.801C39.2019 118.089 41.7754 117.62 52.2399 117.62V117.615Z" fill="#568851"/>
<path d="M189.462 76.2607H52.2399C41.2121 76.2607 39.2019 75.6679 39.2019 85.08V86.2191C44.2559 84.6676 50.5966 83.3687 58.038 82.1058C79.0652 78.5441 86.8581 81.7502 117.859 81.7553C150.911 81.7553 156.963 78.1111 178.987 81.178C188.304 82.4718 196.226 84.379 202.5 86.2191V84.0285C202.5 74.2659 196.661 76.2607 189.462 76.2607Z" fill="#6DA94C"/>
<path d="M0 91.3944C6.22186 78.6216 17.6372 63.6065 37.7291 59.3644C35.4295 54.2305 30.6597 50.6997 25.1458 50.6997H22.9031C10.2526 50.6997 0 62.0963 0 76.1474V91.3944Z" fill="#5F9C5A"/>
<path d="M382.092 50.6997H381.053C373.291 50.6997 366.997 57.6892 366.997 66.3178V97.8375C366.997 97.8375 372.95 68.4827 398.628 58.55C394.458 53.7151 388.593 50.6997 382.092 50.6997Z" fill="#5F9C5A"/>
<path d="M45.0309 144.975H359.969C369.72 144.975 378.738 141.522 386.112 135.666H18.8877C26.2619 141.516 35.2795 144.975 45.0309 144.975Z" fill="#568851"/>
<path d="M41.5946 48.1019C39.5482 50.9059 39.0676 53.8543 37.8222 53.7409C36.9695 53.6636 36.6543 52.2358 35.0885 48.1379C32.7424 41.9783 31.7553 40.7413 32.3548 39.8598C33.1713 38.6588 35.5897 40.0609 40.1631 40.8701C47.3358 42.1381 52.395 40.6382 52.5242 41.4474C52.674 42.3752 45.7545 42.3958 41.5946 48.0967V48.1019Z" fill="#FC950F"/>
</svg>
