<svg width="362" height="222" viewBox="0 0 362 222" fill="none" xmlns="http://www.w3.org/2000/svg">
<g clip-path="url(#clip0_302_2947)">
<path d="M317.303 148.415C317.303 148.415 317.303 163.637 258.364 163.575C203.926 163.518 199.425 148.415 199.425 148.415V15.9561H317.299V148.415H317.303Z" fill="#C8C8C8"/>
<path d="M281.636 66.5678C280.321 89.5016 272.611 112.778 256.461 129.108C251.621 134.002 245.99 138.113 239.889 141.292C229.383 146.761 217.298 149.54 205.465 148.252C203.091 147.993 200.981 147.531 199.429 147.456V148.072C199.429 148.072 203.926 163.175 258.369 163.232C317.308 163.294 317.308 148.072 317.308 148.072V15.6174H276.879C280.352 32.4309 282.62 49.4774 281.644 66.5678H281.636Z" fill="#EBE4E1"/>
<path d="M258.364 31.9121C290.915 31.9121 317.303 24.7684 317.303 15.9561C317.303 7.14378 290.915 0 258.364 0C225.813 0 199.425 7.14378 199.425 15.9561C199.425 24.7684 225.813 31.9121 258.364 31.9121Z" fill="white"/>
<path d="M259.054 27.6383C288.588 27.6383 312.529 22.1323 312.529 15.3404C312.529 8.54844 288.588 3.04248 259.054 3.04248C229.521 3.04248 205.579 8.54844 205.579 15.3404C205.579 22.1323 229.521 27.6383 259.054 27.6383Z" fill="#EBE4E1"/>
<path d="M338.676 26.4909C359.389 25.4753 362.308 47.7496 361.974 52.5905C361.53 59.0406 360.888 65.6446 358.083 71.4748C351.164 85.8568 332.75 92.3861 326.97 107.265C325.796 110.281 325.181 113.588 323.277 116.204C321.374 118.82 317.51 120.464 314.859 118.609C313.149 117.413 312.508 115.201 312.253 113.13C311.54 107.357 313.026 101.338 316.336 96.5587C319.158 92.4828 323.154 89.4007 326.737 85.9799C334.988 78.1008 344.25 71.5408 347.744 60.6806C349.301 55.8529 351.257 41.4885 339.186 39.5847C332.021 38.4547 327.757 41.2159 325.458 45.4324C323.633 48.7784 324.381 53.0302 322.767 56.4817C321.264 59.6957 317.633 61.7798 314.099 61.4545C313.321 61.3841 312.516 61.1907 311.923 60.6806C311.347 60.1926 311.035 59.4671 310.789 58.7548C307.958 50.524 312.952 44.2233 317.264 37.8171C321.642 31.3055 330.724 26.8822 338.676 26.4909Z" fill="#EBE4E1"/>
<path d="M321.216 35.5527C320.824 36.1331 320.504 36.8146 320.587 37.5093C320.723 38.6085 321.893 39.3559 323 39.3647C324.108 39.3735 325.141 38.8195 326.055 38.1952C327.277 37.3598 328.385 36.3661 329.581 35.4955C333.999 32.2771 339.85 30.7909 345.089 32.343C345.551 32.4793 346.021 32.642 346.505 32.6244C346.988 32.6068 347.498 32.3694 347.678 31.9209C347.881 31.4197 347.608 30.8525 347.256 30.4436C346.184 29.1861 344.448 28.7508 342.808 28.531C338.834 27.9989 334.75 28.3815 330.93 29.5906C327.559 30.659 323.273 32.5101 321.216 35.5527Z" fill="#C8C8C8"/>
<path d="M321.668 93.2434C320.152 95.266 318.78 97.5171 318.464 100.028C318.336 101.039 318.517 102.283 319.449 102.71C320.534 103.202 321.699 102.195 322.363 101.202C323.273 99.8299 323.932 98.313 324.71 96.8664C328.675 89.4709 335.506 84.142 341.713 78.4965C342.263 77.9952 342.834 77.4544 343.028 76.7377C343.089 76.5091 343.107 76.2585 342.997 76.0518C342.742 75.5726 342.034 75.6473 341.533 75.8452C338.641 76.9708 335.95 79.644 333.546 81.5699C330.768 83.7946 328.06 86.1162 325.589 88.6795C324.196 90.1261 322.877 91.643 321.668 93.2522V93.2434Z" fill="#C8C8C8"/>
<path opacity="0.3" d="M210.362 41.6378C209.245 44.9882 209.76 48.6288 210.146 52.1374C211.36 63.1251 211.219 74.2622 209.72 85.2191C208.762 92.2145 207.285 99.522 209.663 106.17C210.489 108.478 212.05 110.835 214.459 111.292C216.604 111.701 218.797 110.391 220.028 108.588C221.259 106.786 221.712 104.57 222.024 102.406C224.121 87.7825 220.969 72.8245 222.635 58.1435C223.11 53.9709 223.971 49.7807 223.466 45.6125C222.543 37.9841 213.835 31.2393 210.366 41.6422L210.362 41.6378Z" fill="white"/>
<path opacity="0.3" d="M207.505 127.402C207.874 129.122 208.48 130.893 209.812 132.041C211.008 133.074 212.67 133.461 214.248 133.36C217.887 133.123 221.233 130.054 221.479 126.413C222.169 116.212 204.986 115.685 207.505 127.402Z" fill="white"/>
<path d="M247.594 18.5942C244.28 13.9995 241.616 8.92994 239.299 3.76367C219.545 5.57077 205.579 10.0072 205.579 15.1954C205.579 21.7379 227.804 27.0888 255.841 27.4713C252.698 24.93 249.964 21.8786 247.594 18.5942Z" fill="#D3BEB8"/>
<path d="M295.012 168.104C295.012 193.799 228.969 222 147.506 222C66.0428 222 0 193.799 0 168.104C0 142.409 66.0428 128.95 147.506 128.95C228.969 128.95 295.012 142.409 295.012 168.104Z" fill="#D3CFBC"/>
<path d="M147.506 214.626C228.971 214.626 295.012 193.797 295.012 168.104C295.012 142.41 228.971 121.581 147.506 121.581C66.0407 121.581 0 142.41 0 168.104C0 193.797 66.0407 214.626 147.506 214.626Z" fill="#E8E3CD"/>
<path d="M34.2345 181.096C56.1608 189.011 78.2498 196.964 101.275 200.605C129.839 205.121 159.005 202.874 187.772 199.897C211.127 197.479 234.64 194.546 256.83 186.865C261.116 185.383 265.547 183.58 268.395 180.05C271.244 176.519 271.82 170.755 268.461 167.708C266.918 166.31 264.826 165.69 262.777 165.307C251.784 163.267 240.658 166.934 229.831 169.726C174.131 184.104 115.447 175.82 58.3456 168.838C52.0508 168.068 45.7296 167.312 39.3864 167.422C35.6851 167.484 27.2452 166.974 25.1352 171.089C22.4537 176.33 30.6695 179.808 34.2345 181.092V181.096Z" fill="#D1C4A7"/>
<path d="M29.8959 139.806C23.544 147.399 21.9527 159.939 28.6475 167.158C32.1598 170.944 37.2106 172.681 42.0504 174.281C53.7564 178.155 65.4625 182.024 77.1685 185.898C90.4527 190.29 103.807 194.704 117.606 196.876C131.848 199.119 146.341 198.943 160.751 198.538C189.266 197.743 217.769 196.089 246.197 193.574C250.104 193.227 254.078 192.853 257.722 191.336C264.07 188.698 268.646 182.978 272.945 177.473C275.143 174.659 277.394 171.74 278.33 168.258C279.93 162.313 277.253 155.837 272.976 151.554C268.699 147.272 263.05 144.796 257.454 142.686C241.818 136.781 225.523 132.969 209.28 129.17C194.928 125.815 180.527 122.451 165.859 121.141C154.596 120.134 143.264 120.345 131.958 120.561C111.997 120.935 92.022 121.308 72.1002 122.772C58.0248 123.806 39.6063 128.189 29.8915 139.806H29.8959Z" fill="#FACA82"/>
<path d="M278.523 165.092C277.587 168.574 275.336 171.494 273.139 174.308C268.844 179.808 264.263 185.533 257.916 188.171C254.272 189.683 250.302 190.061 246.39 190.409C217.958 192.919 189.46 194.577 160.944 195.373C146.535 195.773 132.037 195.953 117.799 193.711C104.001 191.539 90.6462 187.129 77.362 182.732L42.2439 171.116C37.4041 169.515 32.3533 167.783 28.841 163.993C25.9046 160.827 24.5639 156.637 24.5155 152.288C23.8122 157.718 24.9991 163.232 28.6432 167.163C32.1555 170.948 37.2063 172.685 42.046 174.286C53.7521 178.159 65.4582 182.028 77.1642 185.902C90.4484 190.294 103.803 194.709 117.601 196.881C131.844 199.123 146.337 198.947 160.746 198.543C189.262 197.747 217.764 196.094 246.192 193.579C250.1 193.232 254.074 192.858 257.718 191.341C264.066 188.703 268.642 182.983 272.941 177.478C275.139 174.664 277.389 171.744 278.326 168.262C278.708 166.842 278.844 165.391 278.774 163.949C278.708 164.331 278.62 164.714 278.519 165.092H278.523Z" fill="#E0A870"/>
<path d="M268.321 153.401C268.031 152.09 267.591 150.661 268.171 149.452C268.395 148.982 268.756 148.595 269.059 148.173C265.578 145.843 261.635 144.181 257.714 142.699C242.078 136.794 225.782 132.982 209.54 129.183C195.187 125.828 180.787 122.465 166.118 121.154C154.856 120.148 143.523 120.359 132.217 120.574C112.256 120.948 92.2814 121.321 72.3595 122.786C60.7238 123.639 46.1253 126.787 35.927 134.415C35.0962 135.198 34.3225 136.024 33.6192 136.904C29.7685 141.71 28.309 149.171 31.9312 154.131C34.8808 158.167 40.1338 159.433 44.9692 160.26C59.9853 162.827 75.419 163.861 89.7098 169.242C99.4114 172.896 108.717 178.573 119.048 178.955C129.413 179.338 139.207 174.316 149.423 172.435C172.509 168.178 195.236 180.059 218.52 182.727C222.683 183.207 226.965 183.378 231.018 182.253C235.216 181.092 238.957 178.603 243.049 177.095C249.221 174.822 256.245 174.743 261.661 170.931C267.002 167.172 269.767 159.89 268.325 153.405L268.321 153.401Z" fill="#E8AB69"/>
<path d="M18.4579 137.581C12.7609 145.675 12.2159 158.307 19.4865 164.942C23.3021 168.425 28.4804 169.73 33.4345 170.926C45.4219 173.811 57.4093 176.699 69.3923 179.584C82.9973 182.859 96.6683 186.144 110.603 187.164C124.982 188.215 139.409 186.834 153.739 185.238C182.092 182.077 210.353 178.058 238.477 173.191C242.341 172.522 246.271 171.814 249.775 170.003C255.88 166.85 259.969 160.765 263.793 154.926C265.749 151.941 267.749 148.841 268.395 145.297C269.494 139.238 266.29 133.008 261.674 129.095C257.059 125.182 251.225 123.186 245.471 121.546C229.4 116.96 212.845 114.515 196.343 112.079C181.763 109.929 167.129 107.775 152.407 107.687C141.101 107.621 129.826 108.773 118.577 109.925C98.7168 111.956 78.8433 113.987 59.1104 117.1C45.1669 119.299 27.1792 125.199 18.4623 137.581H18.4579Z" fill="#FACA82"/>
<path d="M268.325 142.123C267.679 145.671 265.679 148.767 263.723 151.752C259.898 157.591 255.81 163.676 249.704 166.829C246.201 168.64 242.271 169.344 238.407 170.016C210.283 174.884 182.022 178.902 153.669 182.064C139.343 183.66 124.911 185.04 110.533 183.989C96.6024 182.969 82.927 179.685 69.3219 176.409C57.3345 173.525 45.3471 170.636 33.3641 167.752C28.41 166.56 23.2318 165.25 19.4162 161.768C16.2248 158.857 14.5412 154.79 14.1368 150.459C13.8907 155.929 15.5259 161.324 19.4865 164.938C23.3021 168.42 28.4804 169.726 33.4345 170.922C45.4219 173.806 57.4093 176.695 69.3923 179.579C82.9973 182.855 96.6683 186.14 110.603 187.16C124.982 188.21 139.409 186.83 153.739 185.234C182.092 182.072 210.353 178.054 238.477 173.186C242.341 172.518 246.271 171.81 249.775 169.999C255.88 166.846 259.969 160.761 263.793 154.922C265.749 151.937 267.749 148.837 268.395 145.293C268.659 143.846 268.672 142.391 268.483 140.958C268.448 141.345 268.395 141.732 268.325 142.119V142.123Z" fill="#C69466"/>
<path d="M257.186 131.32C256.786 130.036 256.232 128.651 256.711 127.398C256.896 126.91 257.221 126.497 257.489 126.048C253.828 124.012 249.757 122.689 245.726 121.537C229.655 116.951 213.1 114.507 196.598 112.071C182.017 109.921 167.384 107.766 152.662 107.678C141.356 107.612 130.081 108.764 118.832 109.916C98.9716 111.948 79.0982 113.979 59.3653 117.092C47.8395 118.908 33.5575 123.261 24.023 131.707C23.2625 132.555 22.5547 133.444 21.9305 134.376C18.493 139.485 17.6578 147.039 21.68 151.686C24.9505 155.463 30.2914 156.29 35.1795 156.712C50.3583 158.022 65.8228 157.771 80.5092 161.948C90.4789 164.784 100.229 169.669 110.55 169.19C120.911 168.711 130.252 162.894 140.279 160.168C162.935 154.008 186.567 163.958 209.992 164.683C214.182 164.811 218.459 164.63 222.406 163.175C226.49 161.667 230.011 158.875 233.967 157.033C239.928 154.254 246.922 153.59 252.003 149.343C257.01 145.152 259.164 137.669 257.19 131.324L257.186 131.32Z" fill="#E8AB69"/>
<path d="M54.4729 109.793C50.1123 117.857 49.7518 130.484 55.4004 137.154C58.3632 140.654 62.3722 141.986 66.2054 143.204C75.4761 146.15 84.7513 149.096 94.0221 152.042C104.546 155.383 115.126 158.738 125.892 159.829C137.004 160.95 148.143 159.644 159.199 158.114C181.081 155.093 202.893 151.215 224.591 146.489C227.576 145.838 230.605 145.152 233.304 143.358C238.003 140.236 241.133 134.169 244.056 128.352C245.55 125.375 247.084 122.289 247.564 118.745C248.386 112.695 245.876 106.447 242.293 102.512C238.71 98.5765 234.192 96.554 229.739 94.8832C217.303 90.2181 204.502 87.69 191.746 85.175C180.475 82.9502 169.16 80.7254 157.788 80.5627C149.053 80.4396 140.35 81.5344 131.668 82.6292C116.335 84.5638 100.998 86.494 85.7711 89.5103C75.0146 91.6383 61.1458 97.4509 54.4773 109.788L54.4729 109.793Z" fill="#FACA82"/>
<path d="M247.498 115.575C247.018 119.119 245.489 122.205 243.99 125.182C241.066 131.003 237.937 137.066 233.238 140.188C230.539 141.982 227.51 142.668 224.525 143.319C202.827 148.045 181.015 151.923 159.133 154.944C148.073 156.47 136.934 157.78 125.826 156.659C115.06 155.573 104.484 152.218 93.9561 148.872C84.6853 145.926 75.4101 142.98 66.1393 140.034C62.3062 138.816 58.3016 137.484 55.3344 133.984C52.8552 131.056 51.5364 126.985 51.1979 122.654C51.0353 128.123 52.3233 133.523 55.4003 137.159C58.3631 140.659 62.3721 141.991 66.2053 143.209C75.476 146.155 84.7512 149.101 94.022 152.046C104.546 155.388 115.126 158.743 125.892 159.833C137.004 160.954 148.143 159.649 159.199 158.118C181.081 155.098 202.893 151.22 224.591 146.493C227.576 145.843 230.604 145.157 233.303 143.363C238.003 140.241 241.132 134.173 244.056 128.356C245.55 125.38 247.084 122.293 247.564 118.749C247.761 117.303 247.766 115.847 247.612 114.414C247.585 114.801 247.546 115.188 247.493 115.575H247.498Z" fill="#E0A870"/>
<path d="M238.838 104.719C238.521 103.435 238.091 102.046 238.451 100.793C238.592 100.305 238.842 99.8914 239.044 99.4473C236.205 97.394 233.057 96.0486 229.936 94.879C217.501 90.214 204.7 87.6858 191.943 85.1708C180.672 82.946 169.358 80.7213 157.986 80.5586C149.251 80.4355 140.547 81.5303 131.866 82.6251C116.533 84.5597 101.196 86.4899 85.9689 89.5061C77.0762 91.2648 66.0646 95.5473 58.7412 103.945C58.1566 104.789 57.6159 105.673 57.1367 106.605C54.5036 111.697 53.9014 119.246 57.0312 123.911C59.5764 127.706 63.7085 128.554 67.4845 129.003C79.2169 130.388 91.156 130.212 102.524 134.464C110.238 137.348 117.79 142.281 125.764 141.855C133.765 141.428 140.952 135.655 148.684 132.982C166.153 126.936 184.457 137.001 202.555 137.84C205.79 137.99 209.096 137.827 212.138 136.394C215.285 134.908 217.993 132.133 221.035 130.313C225.624 127.565 231.022 126.936 234.926 122.715C238.772 118.552 240.398 111.077 238.842 104.724L238.838 104.719Z" fill="#E8AB69"/>
<path opacity="0.66" d="M7.84658 171.199C8.85762 174.365 10.8797 177.113 13.1479 179.54C19.1263 185.942 27.0563 190.497 35.593 192.44C37.281 192.823 39.4261 192.928 40.3449 191.46C41.0174 190.382 40.6218 188.905 39.769 187.964C38.9162 187.023 37.7162 186.496 36.5513 185.99C31.1664 183.651 25.7507 181.184 21.2011 177.469C16.6558 173.754 13.0029 168.614 12.26 162.788C11.8732 159.745 9.92141 159.868 8.33891 161.979C6.61136 164.283 7.03775 168.684 7.84219 171.203L7.84658 171.199Z" fill="white"/>
<path opacity="0.66" d="M46.8593 194.621C45.8087 194.405 45.1098 195.927 45.6153 196.877C46.1208 197.826 47.2286 198.248 48.244 198.596C49.8309 199.136 51.4222 199.682 53.0091 200.222C53.7652 200.482 54.5388 200.741 55.3345 200.702C56.1301 200.662 56.9609 200.258 57.2686 199.519C57.8005 198.226 56.5213 196.925 55.3081 196.239C52.6706 194.748 49.6243 193.992 46.5956 194.08L46.8593 194.621Z" fill="white"/>
<path opacity="0.66" d="M282.704 166.244C281.895 167.268 281.688 168.627 281.486 169.915C280.884 173.784 279.948 177.847 277.213 180.652C275.293 182.622 272.541 183.915 271.433 186.434C271.178 187.015 271.116 187.859 271.692 188.127C271.921 188.232 272.189 188.21 272.44 188.171C275.038 187.758 277.244 186.069 279.156 184.267C282.809 180.819 285.847 176.726 288.089 172.232C288.713 170.979 289.293 169.616 289.144 168.218C288.845 165.426 284.506 163.962 282.704 166.24V166.244Z" fill="white"/>
<path d="M79.7095 101.303C81.1337 100.942 82.5624 100.586 83.9866 100.225C84.3339 100.138 84.58 99.7286 84.4657 99.3813C84.3471 99.0207 83.9954 98.8097 83.6217 98.902L79.3446 99.9792C78.9973 100.067 78.7512 100.476 78.8655 100.823C78.9842 101.184 79.3358 101.395 79.7095 101.303Z" fill="#D89559"/>
<path d="M114.639 133.25C115.201 133.25 115.759 133.268 116.318 133.307C116.586 133.329 116.854 133.356 117.122 133.386C117.188 133.395 117.254 133.404 117.324 133.413C117.487 133.435 117.258 133.404 117.408 133.426C117.562 133.448 117.72 133.47 117.874 133.496C118.226 133.553 118.63 133.404 118.718 133.017C118.793 132.687 118.617 132.234 118.239 132.173C117.047 131.979 115.847 131.874 114.639 131.883C114.278 131.883 113.935 132.195 113.953 132.568C113.97 132.938 114.256 133.254 114.639 133.254V133.25Z" fill="#D89559"/>
<path d="M101.368 119.563H103.508C103.869 119.563 104.212 119.246 104.194 118.877C104.176 118.503 103.891 118.191 103.508 118.191H101.368C101.007 118.191 100.664 118.507 100.682 118.877C100.699 119.251 100.985 119.563 101.368 119.563Z" fill="#D89559"/>
<path d="M200.722 121.66C202.291 121.946 203.86 122.227 205.43 122.513C205.795 122.579 206.168 122.412 206.274 122.034C206.366 121.7 206.159 121.256 205.795 121.19C204.225 120.904 202.656 120.622 201.087 120.337C200.722 120.271 200.348 120.438 200.243 120.816C200.15 121.15 200.357 121.594 200.722 121.66Z" fill="#D89559"/>
<path d="M223.162 108.791C223.461 108.799 223.76 108.817 224.059 108.848C224.209 108.861 224.358 108.879 224.508 108.896C224.543 108.896 224.578 108.905 224.609 108.909C224.543 108.901 224.547 108.901 224.631 108.909C224.701 108.918 224.767 108.931 224.837 108.94C225.431 109.032 226.015 109.164 226.596 109.327C226.943 109.424 227.356 109.208 227.44 108.848C227.523 108.483 227.33 108.109 226.96 108.004C225.725 107.656 224.442 107.463 223.162 107.419C222.802 107.406 222.459 107.744 222.477 108.105C222.494 108.487 222.78 108.777 223.162 108.791Z" fill="#D89559"/>
<path d="M160.408 90.8338L161.916 90.4337C162.083 90.3897 162.241 90.2666 162.324 90.1171C162.412 89.972 162.448 89.7522 162.395 89.5895C162.28 89.2334 161.924 89.0135 161.551 89.1103C161.05 89.2422 160.549 89.3785 160.043 89.5104C159.876 89.5543 159.718 89.6775 159.634 89.8269C159.546 89.972 159.511 90.1919 159.564 90.3546C159.678 90.7107 160.034 90.9305 160.408 90.8338Z" fill="#D89559"/>
<path d="M163.015 123.217C164.083 123.129 165.151 123.041 166.223 122.957C166.58 122.926 166.927 122.663 166.909 122.271C166.892 121.924 166.606 121.555 166.223 121.585C165.155 121.673 164.087 121.761 163.015 121.845C162.658 121.875 162.311 122.139 162.329 122.531C162.346 122.878 162.632 123.247 163.015 123.217Z" fill="#D89559"/>
<path d="M194.48 130.265H195.548C195.724 130.265 195.909 130.19 196.032 130.062C196.15 129.944 196.238 129.75 196.234 129.579C196.225 129.403 196.168 129.218 196.032 129.095C195.895 128.972 195.733 128.893 195.548 128.893H194.48C194.304 128.893 194.119 128.968 193.996 129.095C193.878 129.214 193.79 129.407 193.794 129.579C193.803 129.755 193.86 129.939 193.996 130.062C194.133 130.185 194.295 130.265 194.48 130.265Z" fill="#D89559"/>
<path d="M239.198 150.829C240.478 150.319 241.761 149.809 243.04 149.299C243.374 149.167 243.643 148.833 243.52 148.454C243.414 148.133 243.032 147.834 242.676 147.975C241.396 148.485 240.113 148.995 238.834 149.505C238.499 149.637 238.231 149.971 238.354 150.349C238.46 150.67 238.842 150.969 239.198 150.829Z" fill="#D89559"/>
<path d="M247.506 140.931C248.003 140.712 248.5 140.487 248.997 140.268C249.142 140.202 249.269 140.004 249.313 139.859C249.357 139.696 249.34 139.476 249.243 139.331C249.151 139.186 249.01 139.054 248.834 139.014L248.654 138.988C248.531 138.988 248.416 139.019 248.307 139.08C247.81 139.3 247.313 139.524 246.816 139.744C246.671 139.81 246.544 140.004 246.5 140.153C246.456 140.316 246.473 140.536 246.57 140.681C246.662 140.826 246.803 140.958 246.979 140.997C247.041 141.006 247.102 141.015 247.159 141.024C247.282 141.024 247.397 140.993 247.506 140.931Z" fill="#D89559"/>
<path d="M141.334 104.297H142.631C142.807 104.297 142.992 104.222 143.115 104.095C143.238 103.967 143.321 103.783 143.317 103.611C143.308 103.435 143.251 103.251 143.115 103.128C142.978 103.004 142.816 102.925 142.631 102.925H141.334C141.159 102.925 140.974 103 140.851 103.128C140.728 103.255 140.644 103.44 140.649 103.611C140.657 103.787 140.715 103.972 140.851 104.095C140.987 104.218 141.15 104.297 141.334 104.297Z" fill="#D89559"/>
<path d="M80.9842 134.49C82.1799 134.648 83.3711 134.807 84.5668 134.965C84.9229 135.013 85.2657 134.618 85.2526 134.279C85.235 133.866 84.9492 133.642 84.5668 133.593C83.3711 133.435 82.1799 133.277 80.9842 133.118C80.6281 133.07 80.2853 133.466 80.2985 133.804C80.316 134.217 80.6018 134.442 80.9842 134.49Z" fill="#F9DB91"/>
<path d="M81.3095 139.058C82.8041 139.34 84.3206 139.436 85.8372 139.313C86.1933 139.287 86.5405 139.019 86.5229 138.627C86.5054 138.28 86.2196 137.911 85.8372 137.941C84.4349 138.056 83.0151 137.985 81.6744 137.735C81.3227 137.669 80.9183 137.831 80.8304 138.214C80.7556 138.553 80.9315 138.988 81.3095 139.058Z" fill="#F9DB91"/>
<path d="M93.8244 143.921C96.629 144.541 99.4335 145.161 102.238 145.781C103.1 145.97 103.464 144.647 102.603 144.458C99.7984 143.838 96.9938 143.218 94.1893 142.598C93.3277 142.409 92.9629 143.732 93.8244 143.921Z" fill="#F9DB91"/>
<path d="M94.8529 138.276C96.4925 138.707 98.1937 138.896 99.8861 138.817C100.255 138.799 100.572 138.513 100.572 138.131C100.572 137.77 100.26 137.427 99.8861 137.445C98.308 137.52 96.7431 137.357 95.2177 136.952C94.8617 136.86 94.4748 137.071 94.3737 137.432C94.277 137.788 94.4924 138.179 94.8529 138.276Z" fill="#F9DB91"/>
<path d="M120.41 150.213C120.863 149.918 121.351 149.624 121.856 149.439C121.694 149.501 121.918 149.417 121.944 149.404C121.997 149.382 122.045 149.364 122.098 149.342C122.234 149.29 122.371 149.241 122.511 149.197C122.771 149.114 123.034 149.039 123.303 148.977C123.65 148.894 123.892 148.476 123.782 148.133C123.663 147.768 123.311 147.566 122.938 147.654C121.799 147.927 120.696 148.393 119.716 149.03C119.417 149.224 119.263 149.646 119.469 149.967C119.663 150.266 120.085 150.42 120.406 150.213H120.41Z" fill="#F9DB91"/>
<path d="M136.855 142.382C137.796 142.048 138.732 141.714 139.673 141.375C140.011 141.257 140.27 140.901 140.152 140.531C140.046 140.197 139.668 139.925 139.308 140.052C138.367 140.386 137.431 140.72 136.49 141.059C136.152 141.178 135.892 141.534 136.011 141.903C136.116 142.237 136.494 142.51 136.855 142.382Z" fill="#F9DB91"/>
<path d="M135.743 148.916C137.554 149.325 139.409 149.549 141.268 149.58C142.152 149.593 142.152 148.221 141.268 148.208C139.528 148.177 137.804 147.975 136.108 147.593C135.747 147.509 135.365 147.702 135.264 148.072C135.167 148.415 135.378 148.832 135.743 148.916Z" fill="#F9DB91"/>
<path d="M80.3512 119.079C80.7688 122.812 78.6324 126.413 75.9114 129.003C73.1904 131.593 69.8671 133.457 66.9483 135.822C59.0227 142.237 54.3587 152.486 54.7236 162.678C54.8466 166.116 55.5675 169.66 57.638 172.404C59.7128 175.147 63.3789 176.88 66.6758 175.912C72.4607 174.211 73.3926 166.49 77.0895 161.728C81.8062 155.656 91.5693 154.051 94.2068 146.828C94.9057 144.91 94.9936 142.782 95.9168 140.962C97.9169 137.018 102.937 135.897 107.32 135.317C113.293 134.53 119.294 133.923 125.307 133.505C133.07 132.964 141.062 132.758 148.42 135.281C155.783 137.801 162.478 143.583 164.03 151.211C165.336 157.622 163.393 165.567 168.373 169.81C170.61 171.718 173.727 172.254 176.149 173.925C181.802 177.83 181.785 186.06 184.844 192.216C185.596 193.733 186.748 195.272 188.414 195.549C190.95 195.971 192.884 193.341 193.842 190.958C197.438 182.011 196.541 171.384 191.486 163.17C190.422 161.443 189.139 159.622 189.337 157.604C189.614 154.825 192.458 153.199 194.62 151.431C199.416 147.518 201.79 140.852 200.555 134.785C207.403 133.224 214.107 131.021 220.547 128.211C222.789 127.231 225.145 126.048 226.301 123.889C227.892 120.926 226.6 117.153 224.459 114.559C222.318 111.965 219.422 110.096 217.127 107.634C216.287 106.733 215.505 105.686 215.386 104.46C215.101 101.452 218.701 99.7067 221.672 99.1659C224.644 98.6251 228.288 97.8997 229.194 95.0197C230.213 91.7749 226.829 88.9301 223.795 87.3869C210.665 80.7037 195.873 78.1579 181.297 76.0035C159.907 72.8422 137.62 70.4107 117.03 77.0147C109.311 79.4902 102.08 83.3242 94.3343 85.7117C89.6527 87.1538 84.3689 87.0175 79.9731 89.2247C74.3377 92.0475 69.8891 98.0491 71.8409 104.482C73.5069 109.973 79.6698 113.126 80.3336 119.088L80.3512 119.079Z" fill="#2648BF"/>
<path d="M141.479 132.375C134.116 129.856 126.129 130.058 118.366 130.599C112.353 131.016 106.352 131.623 100.378 132.41C95.9958 132.986 90.9758 134.112 88.9757 138.056C88.0526 139.876 87.9647 142.004 87.2657 143.921C84.6282 151.141 74.8651 152.75 70.1484 158.822C66.4515 163.584 65.5196 171.309 59.7347 173.006C59.3523 173.12 58.9611 173.191 58.5698 173.235C60.7018 175.561 64.0118 176.928 67.0186 176.044C72.8035 174.343 73.7354 166.622 77.4323 161.86C82.149 155.788 91.9121 154.183 94.5496 146.959C95.2485 145.042 95.3364 142.914 96.2596 141.094C98.2597 137.15 103.28 136.029 107.662 135.448C113.636 134.661 119.637 134.055 125.65 133.637C132.688 133.144 139.906 132.938 146.68 134.78C145.031 133.8 143.273 132.991 141.479 132.375Z" fill="#3A1C8E"/>
<path d="M224.152 87.523C221.198 86.0193 218.156 84.7267 215.052 83.5967C215.659 83.8869 216.265 84.1815 216.868 84.4848C219.901 86.0281 223.286 88.8729 222.266 92.1177C221.36 95.002 217.716 95.7275 214.744 96.2639C211.773 96.8047 208.173 98.5503 208.458 101.558C208.573 102.78 209.36 103.831 210.199 104.732C212.494 107.194 215.386 109.063 217.531 111.657C219.677 114.251 220.965 118.019 219.373 120.987C218.217 123.142 215.861 124.329 213.619 125.309C207.179 128.119 200.476 130.326 193.627 131.883C194.867 137.95 192.488 144.611 187.693 148.529C185.53 150.296 182.686 151.923 182.409 154.702C182.207 156.72 183.495 158.541 184.558 160.268C189.609 168.482 190.51 179.109 186.915 188.056C186.431 189.257 185.701 190.519 184.769 191.424C184.906 191.741 185.051 192.049 185.2 192.356C185.952 193.873 187.104 195.412 188.77 195.689C191.306 196.111 193.24 193.482 194.198 191.099C197.794 182.151 196.897 171.524 191.842 163.311C190.778 161.583 189.495 159.763 189.693 157.745C189.97 154.966 192.814 153.339 194.976 151.572C199.772 147.658 202.146 140.993 200.911 134.925C207.76 133.364 214.463 131.162 220.903 128.352C223.145 127.371 225.501 126.189 226.657 124.03C228.248 121.066 226.956 117.294 224.815 114.7C222.675 112.106 219.778 110.237 217.483 107.775C216.648 106.873 215.861 105.827 215.742 104.6C215.457 101.593 219.057 99.8473 222.028 99.3065C225 98.7657 228.644 98.0402 229.55 95.1603C230.569 91.9155 227.185 89.0707 224.152 87.5274V87.523Z" fill="#3A1C8E"/>
<path d="M86.3427 90.513C84.8437 91.1373 83.1733 91.9683 82.7469 93.5336C81.8545 96.796 86.8658 98.6735 87.6438 101.962C88.1581 104.13 86.6987 106.548 87.6614 108.558C88.5054 110.316 90.7605 110.818 92.7078 110.883C97.974 111.073 103.152 109.714 108.282 108.514C122.226 105.26 136.429 103.127 150.711 102.151C158.689 101.606 166.755 101.413 174.532 99.544C176.347 99.1088 178.198 98.5548 179.626 97.35C181.055 96.1497 181.961 94.1448 181.367 92.3772C181.103 91.5902 180.558 90.7812 180.84 89.9985C181.178 89.0576 182.413 88.8905 183.244 88.3321C184.58 87.4352 184.756 85.4127 184 83.9925C183.24 82.5723 181.798 81.6534 180.347 80.9587C175.995 78.8834 171.107 78.2766 166.303 77.8897C138.473 75.6297 112.041 79.8463 86.3383 90.513H86.3427Z" fill="#302CDD"/>
<path d="M163.454 135.945C165.661 137.805 167.111 140.54 167.41 143.411C167.591 145.157 167.463 147.17 168.747 148.371C169.437 149.013 170.408 149.263 171.349 149.329C176.716 149.699 181.015 144.932 183.534 140.179C186.053 135.426 187.939 129.983 192.278 126.804C193.75 125.727 195.495 124.922 196.568 123.445C197.64 121.968 197.601 119.448 195.93 118.714C194.752 118.195 193.412 118.789 192.247 119.338C183.816 123.318 174.707 125.085 165.419 125.076C162.944 125.076 159.384 124.39 157.889 126.91C155.419 131.069 161.023 133.901 163.459 135.95L163.454 135.945Z" fill="#302CDD"/>
<path opacity="0.33" d="M93.5959 93.362C92.2156 94.2018 90.7078 95.3714 90.7166 96.9894C90.7298 99.3769 93.908 100.331 96.2553 99.9133C100.638 99.1307 104.269 96.1848 108.203 94.0963C120.23 87.7121 135.11 89.3873 147.612 83.9836C148.135 83.7594 148.675 83.5 148.996 83.0295C149.897 81.7104 148.385 79.9781 146.851 79.534C145.084 79.024 143.194 79.2746 141.374 79.5384C124.978 81.9171 108.01 84.6036 93.5915 93.3664L93.5959 93.362Z" fill="white"/>
<path d="M199.333 109.973C200.805 110.11 202.322 110.242 203.733 109.802C205.144 109.362 206.436 108.193 206.551 106.72C206.639 105.629 206.067 104.561 205.25 103.827C204.436 103.092 203.403 102.653 202.366 102.301C198.26 100.916 188.893 99.5134 186.809 104.834C184.616 110.435 196.392 109.696 199.328 109.969L199.333 109.973Z" fill="#3A1C8E"/>
<path d="M191.095 108.338C196.657 108.338 201.166 103.828 201.166 98.2645C201.166 92.7013 196.657 88.1914 191.095 88.1914C185.533 88.1914 181.024 92.7013 181.024 98.2645C181.024 103.828 185.533 108.338 191.095 108.338Z" fill="#367CFF"/>
<path d="M196.26 88.4465C196.326 88.552 196.396 88.6663 196.515 88.7059C196.625 88.7454 196.748 88.7059 196.862 88.6751C197.491 88.4728 198.124 88.275 198.752 88.0727L198.467 89.4885C199.262 89.4929 200.058 89.5017 200.858 89.5061C200.564 89.9941 200.269 90.4866 199.975 90.9746C200.498 90.979 201.025 90.9878 201.548 90.9922C201.786 90.9922 202.111 91.0977 202.063 91.3308C202.049 91.4099 201.988 91.4715 201.931 91.5286C201.276 92.1882 200.625 92.8477 199.917 93.45C199.596 93.7226 199.245 93.9909 198.827 94.0304C198.449 94.07 198.084 93.9117 197.746 93.7446C196.625 93.1906 194.765 92.2057 194.264 90.979C193.776 89.7787 194.915 88.4069 195.75 87.6594C195.948 87.9056 196.097 88.1739 196.264 88.4465H196.26Z" fill="#367CFF"/>
<path opacity="0.33" d="M187.838 90.9658C186.682 91.5594 185.75 92.6586 185.539 93.9425C185.49 94.2414 185.477 94.5536 185.565 94.8438C185.671 95.2 185.917 95.4989 186.194 95.7408C186.418 95.9342 186.695 96.1101 186.989 96.0793C187.46 96.0266 187.706 95.5165 187.948 95.1076C188.77 93.705 190.519 92.9092 192.115 93.2126C192.537 93.2917 193.091 93.3841 193.293 93.0059C193.35 92.896 193.363 92.7685 193.363 92.6454C193.355 89.8182 189.53 90.0952 187.838 90.9658Z" fill="white"/>
<path d="M172.263 91.6693C173.468 91.7792 174.712 91.8891 175.868 91.5286C177.024 91.168 178.079 90.2139 178.176 89.0048C178.246 88.1122 177.78 87.2373 177.112 86.6393C176.444 86.0413 175.6 85.6764 174.751 85.3906C171.393 84.2562 163.722 83.1087 162.012 87.4659C160.214 92.0518 169.854 91.4494 172.263 91.6693Z" fill="#3A1C8E"/>
<path d="M173.538 83.976C174.584 79.5423 171.839 75.0998 167.406 74.0534C162.973 73.0069 158.532 75.7528 157.486 80.1865C156.439 84.6202 159.185 89.0627 163.617 90.1091C168.05 91.1555 172.491 88.4097 173.538 83.976Z" fill="#367CFF"/>
<path d="M169.749 74.047C169.802 74.1349 169.863 74.2272 169.956 74.258C170.048 74.2888 170.145 74.258 170.237 74.2316C170.751 74.069 171.27 73.9019 171.784 73.7392C171.705 74.1261 171.631 74.513 171.551 74.9C172.202 74.9043 172.857 74.9087 173.508 74.9175C173.266 75.3176 173.024 75.7178 172.787 76.1223C173.217 76.1267 173.644 76.1311 174.075 76.1355C174.268 76.1355 174.532 76.2234 174.497 76.4125C174.483 76.4784 174.435 76.5268 174.391 76.5751C173.855 77.116 173.323 77.6568 172.743 78.1448C172.483 78.3646 172.189 78.5889 171.85 78.6197C171.543 78.6504 171.244 78.5229 170.962 78.3866C170.044 77.9338 168.523 77.1291 168.11 76.1223C167.709 75.1418 168.641 74.0162 169.327 73.405C169.49 73.6073 169.613 73.8271 169.749 74.0514V74.047Z" fill="#367CFF"/>
<path opacity="0.33" d="M162.852 76.1089C161.907 76.5969 161.142 77.4939 160.971 78.5447C160.931 78.7909 160.922 79.0459 160.993 79.2834C161.08 79.5736 161.278 79.8198 161.507 80.0176C161.691 80.1759 161.916 80.321 162.157 80.2946C162.544 80.2551 162.746 79.833 162.94 79.4988C163.612 78.3512 165.045 77.7005 166.351 77.9467C166.698 78.0127 167.151 78.0874 167.318 77.7797C167.366 77.6917 167.375 77.5862 167.375 77.4851C167.366 75.1679 164.237 75.401 162.852 76.1133V76.1089Z" fill="white"/>
<path d="M158.834 125.947C160.039 126.057 161.283 126.167 162.439 125.806C163.595 125.446 164.65 124.492 164.747 123.282C164.817 122.39 164.351 121.515 163.683 120.917C163.015 120.319 162.171 119.954 161.322 119.668C157.964 118.534 150.293 117.386 148.583 121.743C146.785 126.329 156.425 125.727 158.834 125.947Z" fill="#3A1C8E"/>
<path d="M157.919 122.192C161.14 118.97 161.14 113.748 157.919 110.527C154.699 107.305 149.477 107.305 146.257 110.527C143.036 113.748 143.036 118.97 146.257 122.192C149.477 125.413 154.699 125.413 157.919 122.192Z" fill="#367CFF"/>
<path d="M156.315 108.32C156.368 108.408 156.43 108.5 156.522 108.531C156.614 108.562 156.711 108.531 156.803 108.505C157.318 108.342 157.836 108.175 158.351 108.012C158.271 108.399 158.197 108.786 158.118 109.173L160.074 109.19L159.353 110.395C159.784 110.4 160.21 110.404 160.641 110.408C160.834 110.408 161.098 110.496 161.063 110.685C161.05 110.751 161.001 110.8 160.957 110.848C160.421 111.389 159.889 111.93 159.309 112.418C159.05 112.638 158.755 112.862 158.417 112.893C158.109 112.923 157.81 112.796 157.529 112.66C156.61 112.207 155.089 111.402 154.676 110.395C154.276 109.415 155.208 108.289 155.893 107.678C156.056 107.88 156.179 108.1 156.315 108.324V108.32Z" fill="#367CFF"/>
<path opacity="0.33" d="M149.423 110.382C148.478 110.87 147.713 111.767 147.541 112.818C147.502 113.064 147.493 113.319 147.563 113.557C147.651 113.847 147.849 114.093 148.078 114.291C148.262 114.449 148.486 114.594 148.728 114.568C149.115 114.528 149.317 114.106 149.511 113.772C150.183 112.624 151.616 111.974 152.922 112.22C153.269 112.286 153.722 112.361 153.889 112.053C153.937 111.965 153.946 111.859 153.946 111.758C153.937 109.441 150.807 109.674 149.423 110.386V110.382Z" fill="white"/>
<path d="M86.7736 105.035C87.9781 105.145 89.2221 105.255 90.3782 104.895C91.5343 104.534 92.5893 103.58 92.686 102.371C92.7563 101.478 92.2904 100.603 91.6222 100.006C90.954 99.4075 90.11 99.0426 89.2616 98.7568C85.9032 97.6224 78.2325 96.4749 76.5226 100.832C74.7247 105.418 84.3647 104.816 86.7736 105.035Z" fill="#3A1C8E"/>
<path d="M85.8622 101.283C89.0827 98.0618 89.0827 92.8391 85.8622 89.6179C82.6418 86.3967 77.4203 86.3967 74.1998 89.6179C70.9794 92.8391 70.9794 98.0617 74.1998 101.283C77.4203 104.504 82.6418 104.504 85.8622 101.283Z" fill="#367CFF"/>
<path d="M84.2592 87.4132C84.3119 87.5011 84.3734 87.5934 84.4658 87.6242C84.5581 87.655 84.6548 87.6242 84.7471 87.5978C85.2614 87.4352 85.7801 87.2681 86.2944 87.1054C86.2153 87.4923 86.1406 87.8792 86.0614 88.2662L88.0176 88.2837L87.2967 89.4885C87.7275 89.4929 88.1539 89.4973 88.5846 89.5017C88.7781 89.5017 89.0418 89.5896 89.0066 89.7787C88.9934 89.8446 88.9451 89.893 88.9011 89.9413C88.3649 90.4822 87.833 91.023 87.2527 91.511C86.9934 91.7309 86.6988 91.9551 86.3604 91.9859C86.0527 92.0167 85.7537 91.8891 85.4724 91.7528C84.5537 91.3 83.0327 90.4953 82.6195 89.4885C82.2195 88.508 83.1514 87.3824 83.8372 86.7712C83.9998 86.9735 84.1229 87.1933 84.2592 87.4176V87.4132Z" fill="#367CFF"/>
<path opacity="0.33" d="M77.362 89.4751C76.4169 89.9631 75.652 90.8601 75.4806 91.9109C75.441 92.1571 75.4322 92.4122 75.5025 92.6496C75.5905 92.9398 75.7883 93.186 76.0169 93.3839C76.2015 93.5421 76.4257 93.6872 76.6674 93.6609C77.0543 93.6213 77.2565 93.1992 77.4499 92.865C78.1225 91.7175 79.5555 91.0667 80.861 91.3129C81.2083 91.3789 81.6611 91.4536 81.8281 91.1459C81.8765 91.0579 81.8853 90.9524 81.8853 90.8513C81.8765 88.5342 78.7467 88.7672 77.362 89.4795V89.4751Z" fill="white"/>
<path d="M127.628 117.056C128.833 117.166 130.077 117.276 131.233 116.916C132.389 116.555 133.444 115.601 133.541 114.392C133.611 113.499 133.145 112.624 132.477 112.027C131.809 111.429 130.965 111.064 130.116 110.778C126.758 109.643 119.087 108.496 117.377 112.853C115.579 117.439 125.219 116.837 127.628 117.056Z" fill="#3A1C8E"/>
<path d="M126.714 113.298C129.935 110.077 129.935 104.854 126.714 101.633C123.494 98.4118 118.272 98.4118 115.052 101.633C111.831 104.854 111.831 110.077 115.052 113.298C118.272 116.519 123.494 116.519 126.714 113.298Z" fill="#367CFF"/>
<path d="M125.114 99.4298C125.167 99.5177 125.228 99.61 125.32 99.6408C125.413 99.6716 125.51 99.6408 125.602 99.6144C126.116 99.4518 126.635 99.2847 127.149 99.122C127.07 99.5089 126.995 99.8958 126.916 100.283C127.567 100.287 128.222 100.292 128.872 100.3C128.631 100.7 128.389 101.101 128.151 101.505L129.439 101.518C129.633 101.518 129.897 101.606 129.861 101.795C129.848 101.861 129.8 101.91 129.756 101.958C129.22 102.499 128.688 103.04 128.107 103.528C127.848 103.747 127.554 103.972 127.215 104.002C126.907 104.033 126.608 103.906 126.327 103.769C125.408 103.317 123.887 102.512 123.474 101.505C123.074 100.525 124.006 99.399 124.692 98.7878C124.855 98.9901 124.978 99.2099 125.114 99.4342V99.4298Z" fill="#367CFF"/>
<path opacity="0.33" d="M118.217 101.496C117.272 101.984 116.507 102.881 116.336 103.932C116.296 104.178 116.287 104.433 116.358 104.671C116.445 104.961 116.643 105.207 116.872 105.405C117.056 105.563 117.281 105.708 117.522 105.682C117.909 105.642 118.111 105.22 118.305 104.886C118.977 103.738 120.41 103.088 121.716 103.334C122.063 103.4 122.516 103.475 122.683 103.167C122.731 103.079 122.74 102.973 122.74 102.872C122.731 100.555 119.602 100.788 118.217 101.5V101.496Z" fill="white"/>
<path d="M139.207 112.009C140.411 112.119 141.655 112.229 142.811 111.868C143.967 111.508 145.022 110.554 145.119 109.344C145.189 108.452 144.723 107.577 144.055 106.979C143.387 106.381 142.543 106.016 141.695 105.73C138.336 104.596 130.666 103.448 128.956 107.806C127.158 112.391 136.798 111.789 139.207 112.009Z" fill="#3A1C8E"/>
<path d="M138.292 108.249C141.512 105.028 141.512 99.8054 138.292 96.5842C135.071 93.363 129.85 93.363 126.629 96.5842C123.409 99.8054 123.409 105.028 126.629 108.249C129.85 111.47 135.071 111.47 138.292 108.249Z" fill="#367CFF"/>
<path d="M136.692 94.3822C136.745 94.4701 136.807 94.5624 136.899 94.5932C136.991 94.624 137.088 94.5932 137.18 94.5668C137.695 94.4042 138.213 94.2371 138.728 94.0744C138.648 94.4613 138.574 94.8482 138.495 95.2352C139.145 95.2396 139.8 95.2439 140.451 95.2527C140.209 95.6529 139.967 96.053 139.73 96.4575L141.018 96.4707C141.211 96.4707 141.475 96.5586 141.44 96.7477C141.427 96.8136 141.378 96.862 141.334 96.9103C140.798 97.4512 140.266 97.992 139.686 98.48C139.426 98.6999 139.132 98.9241 138.793 98.9549C138.486 98.9856 138.187 98.8581 137.906 98.7218C136.987 98.269 135.466 97.4643 135.053 96.4575C134.653 95.477 135.585 94.3514 136.27 93.7402C136.433 93.9425 136.556 94.1623 136.692 94.3866V94.3822Z" fill="#367CFF"/>
<path opacity="0.33" d="M129.795 96.4441C128.85 96.9321 128.085 97.8291 127.914 98.8799C127.874 99.1261 127.866 99.3811 127.936 99.6186C128.024 99.9088 128.222 100.155 128.45 100.353C128.635 100.511 128.859 100.656 129.101 100.63C129.488 100.59 129.69 100.168 129.883 99.834C130.556 98.6864 131.989 98.0357 133.294 98.2819C133.642 98.3479 134.094 98.4226 134.261 98.1149C134.31 98.0269 134.319 97.9214 134.319 97.8203C134.31 95.5031 131.18 95.7362 129.795 96.4485V96.4441Z" fill="white"/>
</g>
<defs>
<clipPath id="clip0_302_2947">
<rect width="362" height="222" fill="white"/>
</clipPath>
</defs>
</svg>
