<svg width="550" height="190" viewBox="0 0 550 190" fill="none" xmlns="http://www.w3.org/2000/svg">
<path d="M11.017 168.509L1.01699 168.492L0.983036 188.492L10.983 188.509L11.017 168.509ZM539.983 189.407C545.506 189.417 549.991 184.947 550 179.424C550.009 173.902 545.54 169.417 540.017 169.407L539.983 189.407ZM10.983 188.509L539.983 189.407L540.017 169.407L11.017 168.509L10.983 188.509Z" fill="#929699"/>
<g clip-path="url(#clip0_302_4784)">
<path d="M102.892 161.507C102.892 168.41 97.3359 174 90.4758 174C83.6157 174 78.0596 168.41 78.0596 161.507C78.0596 154.605 83.6157 149.015 90.4758 149.015C97.3359 149.015 102.892 154.605 102.892 161.507Z" fill="#37474F"/>
<path d="M132.402 161.507C132.402 168.41 126.846 174 119.986 174C113.125 174 107.569 168.41 107.569 161.507C107.569 154.605 113.125 149.015 119.986 149.015C126.846 149.015 132.402 154.605 132.402 161.507Z" fill="#37474F"/>
<path d="M414.289 161.507C414.289 168.41 408.733 174 401.873 174C395.013 174 389.457 168.41 389.457 161.507C389.457 154.605 395.013 149.015 401.873 149.015C408.733 149.015 414.289 154.605 414.289 161.507Z" fill="#37474F"/>
<path d="M443.799 161.507C443.799 168.41 438.243 174 431.383 174C424.522 174 418.966 168.41 418.966 161.507C418.966 154.605 424.522 149.015 431.383 149.015C438.243 149.015 443.799 154.605 443.799 161.507Z" fill="#37474F"/>
<path d="M473.876 58H144.364C136.994 58 129.68 59.4261 122.849 62.2498C108.59 68.1539 83.8425 80.447 65.0764 100.755C53.9926 112.791 47.9829 128.707 47.9829 145.135V161.507H473.876V58Z" fill="#90A4AE"/>
<path d="M122.849 62.2498C116.697 64.7883 108.59 68.5532 99.8306 73.6017H473.876V58H144.364C136.994 58 129.68 59.4261 122.849 62.2498Z" fill="#CFD8DC"/>
<path d="M107.626 115.9V87.2637H79.7322C74.658 91.3138 69.6972 95.7918 65.1049 100.783C60.9095 105.318 57.4511 110.424 54.7581 115.9H107.626Z" fill="#37474F"/>
<path d="M413.07 87.2637H164.377V115.9H413.07V87.2637Z" fill="#37474F"/>
<path d="M212.653 92.7114H173.789V110.452H212.653V92.7114Z" fill="#80DEEA"/>
<path d="M260.391 92.7114H221.526V110.452H260.391V92.7114Z" fill="#80DEEA"/>
<path d="M308.128 92.7114H269.263V110.452H308.128V92.7114Z" fill="#80DEEA"/>
<path d="M355.865 92.7114H317V110.452H355.865V92.7114Z" fill="#80DEEA"/>
<path d="M403.602 92.7114H364.738V110.452H403.602V92.7114Z" fill="#80DEEA"/>
<path d="M155.533 87.2637H118.738V161.536H155.533V87.2637Z" fill="#37474F"/>
<path d="M458.681 87.2637H421.886V161.536H458.681V87.2637Z" fill="#37474F"/>
<path d="M149.212 92.7114H125.031V110.452H149.212V92.7114Z" fill="#80DEEA"/>
<path d="M452.388 92.7114H428.208V110.452H452.388V92.7114Z" fill="#80DEEA"/>
<path d="M107.626 124.371H51.3563C49.1735 131.017 47.9829 138.005 47.9829 145.135V161.507H107.626V124.371Z" fill="#CFD8DC"/>
<path d="M473.876 149.984H47.9829V161.507H473.876V149.984Z" fill="#37474F"/>
<path d="M481.983 70.7495H473.875V148.786H481.983V70.7495Z" fill="#37474F"/>
</g>
<path d="M212.581 26.2C213.408 26.2 214.048 26.4533 214.501 26.96C214.955 27.4667 215.181 28.0933 215.181 28.84C215.181 29.56 215.061 30.1467 214.821 30.6C215.995 31.56 217.341 32.04 218.861 32.04C220.408 32.04 221.568 31.6933 222.341 31C223.115 30.28 223.501 29.3067 223.501 28.08C223.501 26.8533 223.075 25.8 222.221 24.92C221.368 24.04 220.328 23.3067 219.101 22.72C217.901 22.1333 216.701 21.52 215.501 20.88C214.301 20.2133 213.275 19.3333 212.421 18.24C211.568 17.1467 211.141 15.8533 211.141 14.36C211.141 12.3067 211.821 10.7067 213.181 9.56C214.541 8.38667 216.288 7.8 218.421 7.8C220.555 7.8 222.395 8.30667 223.941 9.32C225.515 10.3333 226.301 11.7067 226.301 13.44C226.301 15.1467 225.608 16 224.221 16C223.395 16 222.755 15.7467 222.301 15.24C221.848 14.7333 221.621 14.08 221.621 13.28C221.621 12.48 221.781 11.8667 222.101 11.44C221.168 10.5867 220.021 10.16 218.661 10.16C217.301 10.16 216.275 10.5067 215.581 11.2C214.915 11.8933 214.581 12.76 214.581 13.8C214.581 14.84 214.888 15.7333 215.501 16.48C216.115 17.2 216.875 17.8 217.781 18.28C218.688 18.7333 219.675 19.2667 220.741 19.88C221.808 20.4667 222.795 21.0533 223.701 21.64C224.608 22.2267 225.368 23.0267 225.981 24.04C226.595 25.0267 226.901 26.16 226.901 27.44C226.901 29.5467 226.168 31.2667 224.701 32.6C223.261 33.9333 221.408 34.6 219.141 34.6C216.875 34.6 214.861 34.08 213.101 33.04C211.368 31.9733 210.501 30.4933 210.501 28.6C210.501 27 211.195 26.2 212.581 26.2ZM247.76 22.96C247.76 17.2 247.627 13.0933 247.36 10.64L245.96 10.52C245.907 10.0933 245.88 9.73333 245.88 9.44C245.88 9.12 245.92 8.73333 246 8.28C246.853 8.30667 247.84 8.32 248.96 8.32C250.08 8.32 251.053 8.30667 251.88 8.28C251.96 8.68 252 9.04 252 9.36C252 9.65333 251.973 10.04 251.92 10.52L250.6 10.64C250.387 13.2533 250.28 16.36 250.28 19.96C250.28 23.5333 250.227 25.8667 250.12 26.96C250.013 28.0267 249.773 29.08 249.4 30.12C249.053 31.16 248.56 31.9867 247.92 32.6C246.533 33.9333 244.373 34.6 241.44 34.6C237.68 34.6 235.213 33.5467 234.04 31.44C233.453 30.32 233.053 29.12 232.84 27.84C232.653 26.56 232.56 23.9867 232.56 20.12C232.56 16.2533 232.427 13.0933 232.16 10.64L230.72 10.52C230.667 10.0933 230.64 9.73333 230.64 9.44C230.64 9.12 230.68 8.73333 230.76 8.28C231.693 8.30667 232.773 8.32 234 8.32C235.227 8.32 236.293 8.30667 237.2 8.28C237.28 8.68 237.32 9.04 237.32 9.36C237.32 9.65333 237.293 10.04 237.24 10.52L235.88 10.64C235.667 13.2533 235.56 17.36 235.56 22.96C235.56 25.9467 235.973 28.1467 236.8 29.56C237.627 30.9467 239.267 31.64 241.72 31.64C244.173 31.64 245.787 30.9467 246.56 29.56C247.36 28.1467 247.76 25.9467 247.76 22.96ZM258.502 31.56C258.742 28.84 258.862 25.24 258.862 20.76C258.862 16.2533 258.729 12.9467 258.462 10.84L256.902 10.72C256.822 10.4 256.782 9.98667 256.782 9.48C256.782 8.97333 256.795 8.64 256.822 8.48C258.529 8.45333 260.049 8.33333 261.382 8.12C262.715 7.90667 264.129 7.8 265.622 7.8C268.315 7.8 270.355 8.42667 271.742 9.68C273.155 10.9067 273.862 12.7733 273.862 15.28C273.862 17.7867 273.009 19.68 271.302 20.96C274.155 22.1067 275.582 24.1467 275.582 27.08C275.582 29.56 274.809 31.44 273.262 32.72C271.715 33.9733 269.435 34.6 266.422 34.6C264.742 34.6 263.182 34.4933 261.742 34.28C259.209 34.0933 257.569 33.9733 256.822 33.92C256.795 33.76 256.782 33.44 256.782 32.96C256.782 32.48 256.822 32.0533 256.902 31.68L258.502 31.56ZM264.182 19.12C264.769 19.52 265.622 19.72 266.742 19.72C267.889 19.72 268.782 19.3467 269.422 18.6C270.062 17.8267 270.382 16.68 270.382 15.16C270.382 13.6133 269.955 12.3867 269.102 11.48C268.249 10.5467 267.035 10.08 265.462 10.08C264.475 10.08 263.382 10.32 262.182 10.8C261.969 13.0133 261.862 16.24 261.862 20.48C261.862 24.72 261.969 28.2 262.182 30.92C263.755 31.5333 265.182 31.84 266.462 31.84C270.222 31.84 272.102 30.2533 272.102 27.08C272.102 24.4133 270.862 22.7867 268.382 22.2C267.582 22.3333 266.795 22.4 266.022 22.4C265.275 22.4 264.382 22.2 263.342 21.8C263.342 20.5733 263.622 19.68 264.182 19.12ZM277.31 10.52C277.257 10.0933 277.23 9.73333 277.23 9.44C277.23 9.12 277.27 8.73333 277.35 8.28C278.283 8.30667 279.47 8.32 280.91 8.32C282.35 8.32 283.523 8.30667 284.43 8.28C284.51 8.68 284.55 9.08 284.55 9.48C284.55 9.88 284.523 10.2267 284.47 10.52L283.07 10.64C284.323 19.0933 285.83 25.72 287.59 30.52H287.83C288.657 28.4933 289.443 25.6933 290.19 22.12C290.963 18.52 291.55 15.1467 291.95 12C292.75 11.68 293.403 11.52 293.91 11.52C294.443 11.52 294.923 11.5467 295.35 11.6C296.55 19.7067 298.017 26.0133 299.75 30.52H299.99C300.897 27.9867 301.75 24.7867 302.55 20.92C303.35 17.0267 303.91 13.6 304.23 10.64L302.79 10.52C302.737 10.3067 302.71 10 302.71 9.6C302.71 9.17333 302.75 8.73333 302.83 8.28C303.79 8.30667 304.95 8.32 306.31 8.32C307.67 8.32 308.763 8.30667 309.59 8.28C309.67 8.68 309.71 9.02667 309.71 9.32C309.71 9.58666 309.683 9.98667 309.63 10.52L308.23 10.64C307.457 13.0667 306.337 16.8933 304.87 22.12C303.403 27.32 302.323 31.28 301.63 34C300.67 34.24 299.79 34.36 298.99 34.36C298.217 34.36 297.71 34.3467 297.47 34.32C297.097 33.04 296.457 30.6267 295.55 27.08C294.67 23.5333 294.017 20.9467 293.59 19.32H293.39C291.603 25.8 290.297 30.6933 289.47 34C288.51 34.24 287.63 34.36 286.83 34.36C286.057 34.36 285.55 34.3467 285.31 34.32C285.203 33.9733 284.323 30.6 282.67 24.2C281.043 17.7733 279.75 13.2533 278.79 10.64L277.31 10.52ZM314.717 10.72C314.637 10.4 314.597 9.98667 314.597 9.48C314.597 8.97333 314.61 8.64 314.637 8.48C316.984 8.18667 318.73 8.04 319.877 8.04C321.024 8.04 321.997 8.17333 322.797 8.44C323.437 13.4533 325.664 21.2 329.477 31.68L330.957 31.8C331.01 32.3867 331.037 32.8 331.037 33.04C331.037 33.2533 330.997 33.5867 330.917 34.04C330.17 34.0133 329.01 34 327.437 34C325.864 34 324.77 34.0133 324.157 34.04C324.077 33.64 324.037 33.2667 324.037 32.92C324.037 32.5467 324.064 32.1733 324.117 31.8L325.517 31.68C325.384 31.04 325.17 30.12 324.877 28.92C324.584 27.6933 324.424 27.0133 324.397 26.88C322.877 26.8 321.224 26.76 319.437 26.76C317.677 26.76 316.024 26.8133 314.477 26.92L313.357 31.68L314.877 31.8C314.93 32.3867 314.957 32.8 314.957 33.04C314.957 33.2533 314.917 33.5867 314.837 34.04C314.197 34.0133 313.144 34 311.677 34C310.237 34 309.224 34.0133 308.637 34.04C308.557 33.64 308.517 33.2667 308.517 32.92C308.517 32.5467 308.544 32.1733 308.597 31.8L309.997 31.68C313.197 22.9067 315.304 15.96 316.317 10.84L314.717 10.72ZM315.197 24.12C316.104 24.1467 317.464 24.16 319.277 24.16C321.09 24.16 322.557 24.12 323.677 24.04C322.424 19.2933 321.104 14.9067 319.717 10.88H319.477C317.904 14.6933 316.477 19.1067 315.197 24.12ZM341.716 10.52C341.663 10.0933 341.636 9.73333 341.636 9.44C341.636 9.12 341.676 8.73333 341.756 8.28C342.61 8.30667 343.663 8.32 344.916 8.32C346.196 8.32 347.303 8.30667 348.236 8.28C348.316 8.73333 348.356 9.16 348.356 9.56C348.356 9.93333 348.33 10.2533 348.276 10.52L346.876 10.64C343.223 18.5067 341.063 23.7067 340.396 26.24C340.476 28.2667 340.583 30.08 340.716 31.68L342.156 31.8C342.21 32.2267 342.236 32.6 342.236 32.92C342.236 33.2133 342.196 33.5867 342.116 34.04C341.183 34.0133 340.103 34 338.876 34C337.65 34 336.583 34.0133 335.676 34.04C335.596 33.64 335.556 33.2933 335.556 33C335.556 32.68 335.583 32.28 335.636 31.8L337.036 31.68C337.196 29.36 337.29 27.52 337.316 26.16C336.623 23.8667 334.756 19.68 331.716 13.6C330.863 11.9467 330.356 10.96 330.196 10.64L328.716 10.52C328.663 10.0933 328.636 9.73333 328.636 9.44C328.636 9.12 328.676 8.73333 328.756 8.28C329.69 8.30667 330.836 8.32 332.196 8.32C333.583 8.32 334.73 8.30667 335.636 8.28C335.716 8.68 335.756 9.04 335.756 9.36C335.756 9.65333 335.73 10.04 335.676 10.52L334.236 10.64C334.743 12.5333 335.583 14.76 336.756 17.32C337.93 19.88 338.676 21.5333 338.996 22.28H339.156C339.876 20.8933 340.636 19.0933 341.436 16.88C342.236 14.64 342.823 12.56 343.196 10.64L341.716 10.52ZM357.201 31.8C357.201 32.6 356.961 33.2667 356.481 33.8C356.001 34.3333 355.268 34.6 354.281 34.6C352.761 34.6 352.001 33.8267 352.001 32.28C352.001 30.36 352.974 29.4 354.921 29.4C356.441 29.4 357.201 30.2 357.201 31.8ZM367.982 31.8C367.982 32.6 367.742 33.2667 367.262 33.8C366.782 34.3333 366.049 34.6 365.062 34.6C363.542 34.6 362.782 33.8267 362.782 32.28C362.782 30.36 363.755 29.4 365.702 29.4C367.222 29.4 367.982 30.2 367.982 31.8ZM378.763 31.8C378.763 32.6 378.523 33.2667 378.043 33.8C377.563 34.3333 376.83 34.6 375.843 34.6C374.323 34.6 373.563 33.8267 373.563 32.28C373.563 30.36 374.537 29.4 376.483 29.4C378.003 29.4 378.763 30.2 378.763 31.8Z" fill="white"/>
<defs>
<clipPath id="clip0_302_4784">
<rect width="434" height="116" fill="white" transform="translate(47.9829 58)"/>
</clipPath>
</defs>
</svg>
