<svg width="628" height="241" viewBox="0 0 628 241" fill="none" xmlns="http://www.w3.org/2000/svg">
<g clip-path="url(#clip0_302_4266)">
<path opacity="0.4" d="M598.376 240.666L13.7104 240.547C13.7104 240.547 12.8835 211.867 15.137 179.559C15.1454 179.432 15.1537 179.304 15.1662 179.177C15.1724 179.049 15.1808 178.922 15.1933 178.795C16.9844 153.61 20.6645 126.344 28.0706 108.81C28.1227 108.685 28.1727 108.559 28.2268 108.43C28.2789 108.305 28.331 108.177 28.3872 108.048C29.0662 106.421 29.7972 104.782 30.5824 103.141C30.6407 103.014 30.7052 102.889 30.7656 102.759C30.824 102.634 30.8885 102.506 30.9489 102.377C35.0102 94.065 40.4669 85.6068 47.5772 77.086C49.4121 74.8854 51.2782 72.7745 53.1755 70.7429C54.8542 68.9411 56.5558 67.206 58.2823 65.5315C145.154 -18.7849 285.699 57.3155 332.335 30.4607C423.528 -22.0525 554.968 -4.31146 580.177 65.5315C580.793 67.2373 581.347 68.9745 581.833 70.7429C584.488 80.3849 585.196 90.9435 583.607 102.377C583.593 102.504 583.572 102.632 583.555 102.759C583.538 102.889 583.518 103.014 583.499 103.141C582.453 110.24 580.525 117.669 577.636 125.428C568.106 150.994 580.287 165.434 592.507 178.795H592.509C592.625 178.926 592.738 179.049 592.854 179.177H592.856C592.975 179.308 593.086 179.434 593.204 179.559H593.206C607.794 195.479 621.839 210.137 598.38 240.666H598.376Z" fill="white"/>
<path d="M263.552 102.761H344.937C348.164 102.761 350.782 105.385 350.782 108.62V173.318C350.782 176.552 348.164 179.177 344.937 179.177H263.552C260.325 179.177 257.708 176.552 257.708 173.318V108.62C257.708 105.385 260.325 102.761 263.552 102.761Z" fill="#AFCDFB"/>
<path d="M344.938 102.381H263.554C260.119 102.381 257.329 105.181 257.329 108.622V173.32C257.329 176.761 260.119 179.561 263.554 179.561H344.938C346.018 179.561 347.035 179.283 347.922 178.797C349.853 177.736 351.163 175.677 351.163 173.32V108.622C351.163 105.181 348.372 102.381 344.938 102.381ZM350.403 173.32C350.403 175.343 349.303 177.114 347.67 178.062C347.322 178.269 346.947 178.434 346.556 178.553C346.075 178.703 345.564 178.788 345.038 178.797C345.006 178.797 344.975 178.797 344.944 178.797H263.56C260.546 178.797 258.095 176.339 258.095 173.318V108.62C258.095 105.599 260.546 103.141 263.56 103.141H344.944C347.957 103.141 350.409 105.599 350.409 108.62V173.318L350.403 173.32Z" fill="#588EDD"/>
<path d="M62.9727 102.761H30.7616C30.7012 102.891 30.6366 103.016 30.5783 103.143C29.7931 104.784 29.0621 106.421 28.3831 108.05C28.329 108.179 28.2769 108.307 28.2227 108.432C28.1707 108.561 28.1207 108.687 28.0665 108.812C20.6604 126.346 16.9803 153.612 15.1892 178.797C15.1788 178.924 15.1704 179.052 15.1621 179.179H62.9706C66.1988 179.179 68.8167 176.557 68.8167 173.32V108.62C68.8167 105.386 66.2009 102.761 62.9706 102.761H62.9727Z" fill="#AFCDFB"/>
<path d="M62.9726 102.379H30.9469C30.8865 102.508 30.8219 102.636 30.7636 102.761C30.7032 102.891 30.6387 103.016 30.5803 103.143H62.9747C65.9863 103.143 68.4377 105.601 68.4377 108.62V173.32C68.4377 175.341 67.3401 177.112 65.7072 178.06H65.7052C65.3573 178.267 64.9804 178.434 64.5888 178.55H64.5867C64.1056 178.701 63.5954 178.786 63.0685 178.795C63.0372 178.795 63.006 178.795 62.9747 178.795H15.1912C15.1808 178.922 15.1725 179.049 15.1642 179.177C15.1538 179.304 15.1454 179.432 15.135 179.559H62.9726C64.0536 179.559 65.0699 179.283 65.9572 178.793C67.8899 177.734 69.1979 175.673 69.1979 173.318V108.618C69.1979 105.179 66.4091 102.377 62.9726 102.377V102.379Z" fill="#7FABEF"/>
<path d="M592.852 179.179H568.67C565.442 179.179 562.826 176.554 562.826 173.318V108.62C562.826 105.384 565.442 102.761 568.67 102.761H583.551C583.534 102.889 583.513 103.014 583.494 103.141C582.449 110.24 580.52 117.669 577.632 125.428C568.101 150.994 580.283 165.434 592.502 178.795H592.504C592.621 178.926 592.733 179.05 592.85 179.177H592.852V179.179Z" fill="#AFCDFB"/>
<path d="M593.2 179.559C593.081 179.434 592.971 179.308 592.852 179.179H592.85C592.733 179.049 592.621 178.926 592.504 178.797H568.67C565.656 178.797 563.207 176.337 563.207 173.318V108.62C563.207 105.601 565.656 103.143 568.67 103.143H583.495C583.513 103.014 583.534 102.888 583.551 102.761C583.567 102.632 583.588 102.504 583.603 102.377H568.67C565.238 102.377 562.447 105.177 562.447 108.62V173.318C562.447 176.759 565.235 179.561 568.67 179.561H593.2V179.559Z" fill="#7FABEF"/>
<path d="M114.453 85.2288H203.159C205.459 85.2288 207.327 87.1016 207.327 89.4067V235.062C207.327 237.367 205.459 239.24 203.159 239.24H114.453C112.154 239.24 110.285 237.369 110.285 235.062V89.4067C110.285 87.1016 112.154 85.2288 114.453 85.2288Z" fill="#AFCDFB"/>
<path d="M166.925 88.1079H199.586C202.16 88.1079 204.251 90.2042 204.251 92.7849V195.506C204.251 198.087 202.16 200.183 199.586 200.183H166.925C164.35 200.183 162.259 198.087 162.259 195.506V92.7849C162.259 90.2042 164.35 88.1079 166.925 88.1079Z" fill="#CFE3FF"/>
<path d="M159.554 85.2288H159.168V239.238H159.554V85.2288Z" fill="#7FABEF"/>
<g opacity="0.5">
<path opacity="0.5" d="M204.011 175.099L162.259 148.073L162.374 145.843L204.426 173.063L204.011 175.099Z" fill="#EE9849"/>
</g>
<g opacity="0.5">
<path opacity="0.5" d="M203.728 186.714L162.124 159.782L162.782 157.905L204.776 185.088L203.728 186.714Z" fill="#EE9849"/>
</g>
<path d="M151.881 200.183H119.22C116.646 200.183 114.555 198.087 114.555 195.506L114.555 92.785C114.555 90.2044 116.646 88.1081 119.22 88.1081H151.881C154.455 88.1081 156.546 90.2044 156.546 92.785V195.506C156.546 198.087 154.455 200.183 151.881 200.183Z" fill="#CFE3FF"/>
<g opacity="0.5">
<path opacity="0.5" d="M114.794 175.099L156.546 148.073L156.432 145.843L114.38 173.063L114.794 175.099Z" fill="#EE9849"/>
</g>
<g opacity="0.5">
<path opacity="0.5" d="M115.078 186.714L156.682 159.782L156.022 157.905L114.03 185.088L115.078 186.714Z" fill="#EE9849"/>
</g>
<path d="M199.585 200.645H166.924C164.098 200.645 161.801 198.34 161.801 195.508V92.785C161.801 89.9517 164.1 87.6487 166.924 87.6487H199.585C202.412 87.6487 204.709 89.9537 204.709 92.785V195.508C204.709 198.342 202.41 200.645 199.585 200.645ZM166.924 88.5695C164.604 88.5695 162.717 90.4611 162.717 92.787V195.511C162.717 197.836 164.604 199.728 166.924 199.728H199.585C201.906 199.728 203.793 197.836 203.793 195.511V92.785C203.793 90.459 201.906 88.5674 199.585 88.5674H166.924V88.5695Z" fill="#7FABEF"/>
<path d="M151.881 200.645H119.22C116.394 200.645 114.097 198.34 114.097 195.508V92.785C114.097 89.9517 116.396 87.6487 119.22 87.6487H151.881C154.707 87.6487 157.005 89.9537 157.005 92.785V195.508C157.005 198.342 154.705 200.645 151.881 200.645ZM119.22 88.5695C116.9 88.5695 115.013 90.4611 115.013 92.787V195.511C115.013 197.836 116.9 199.728 119.22 199.728H151.881C154.201 199.728 156.088 197.836 156.088 195.511V92.785C156.088 90.459 154.201 88.5674 151.881 88.5674H119.22V88.5695Z" fill="#7FABEF"/>
<path d="M426.232 85.2288H514.938C517.238 85.2288 519.106 87.1016 519.106 89.4067V235.062C519.106 237.367 517.238 239.24 514.938 239.24H426.232C423.933 239.24 422.064 237.369 422.064 235.062V89.4067C422.064 87.1016 423.931 85.2288 426.232 85.2288Z" fill="#AFCDFB"/>
<path d="M478.704 88.1079H511.365C513.939 88.1079 516.03 90.2042 516.03 92.7849V195.506C516.03 198.087 513.939 200.183 511.365 200.183H478.704C476.13 200.183 474.039 198.087 474.039 195.506V92.7849C474.039 90.2042 476.13 88.1079 478.704 88.1079Z" fill="#CFE3FF"/>
<path d="M471.333 85.2288H470.948V239.238H471.333V85.2288Z" fill="#7FABEF"/>
<g opacity="0.5">
<path opacity="0.5" d="M515.79 175.099L474.041 148.073L474.155 145.843L516.207 173.063L515.79 175.099Z" fill="#EE9849"/>
</g>
<g opacity="0.5">
<path opacity="0.5" d="M515.507 186.714L473.903 159.782L474.563 157.905L516.555 185.088L515.507 186.714Z" fill="#EE9849"/>
</g>
<path d="M463.66 200.183H430.999C428.425 200.183 426.334 198.087 426.334 195.506V92.785C426.334 90.2044 428.425 88.1081 430.999 88.1081H463.66C466.235 88.1081 468.326 90.2044 468.326 92.785V195.506C468.326 198.087 466.235 200.183 463.66 200.183Z" fill="#CFE3FF"/>
<g opacity="0.5">
<path opacity="0.5" d="M426.574 175.099L468.326 148.073L468.211 145.843L426.159 173.063L426.574 175.099Z" fill="#EE9849"/>
</g>
<g opacity="0.5">
<path opacity="0.5" d="M426.859 186.714L468.463 159.782L467.803 157.905L425.811 185.088L426.859 186.714Z" fill="#EE9849"/>
</g>
<path d="M511.366 200.645H478.706C475.879 200.645 473.582 198.34 473.582 195.508V92.785C473.582 89.9517 475.881 87.6487 478.706 87.6487H511.366C514.193 87.6487 516.49 89.9537 516.49 92.785V195.508C516.49 198.342 514.191 200.645 511.366 200.645ZM478.706 88.5695C476.385 88.5695 474.498 90.4611 474.498 92.787V195.511C474.498 197.836 476.385 199.728 478.706 199.728H511.366C513.687 199.728 515.574 197.836 515.574 195.511V92.785C515.574 90.459 513.687 88.5674 511.366 88.5674H478.706V88.5695Z" fill="#7FABEF"/>
<path d="M463.66 200.645H430.999C428.173 200.645 425.876 198.34 425.876 195.508V92.785C425.876 89.9517 428.175 87.6487 430.999 87.6487H463.66C466.487 87.6487 468.784 89.9537 468.784 92.785V195.508C468.784 198.342 466.485 200.645 463.66 200.645ZM430.999 88.5695C428.679 88.5695 426.792 90.4611 426.792 92.787V195.511C426.792 197.836 428.679 199.728 430.999 199.728H463.66C465.981 199.728 467.867 197.836 467.867 195.511V92.785C467.867 90.459 465.981 88.5674 463.66 88.5674H430.999V88.5695Z" fill="#7FABEF"/>
<path d="M281.3 210.56C281.3 210.56 280.251 226.654 281.825 233.452C281.825 233.452 286.517 234.4 288.742 233.838L289.331 217.396L281.3 210.562V210.56Z" fill="#2C3A64"/>
<path d="M297.639 231.68C297.639 231.68 299.98 234.575 300.884 234.953C301.788 235.331 304.094 236.501 305.576 236.824C307.059 237.148 308.249 238.066 308.436 239.3H292.316C292.316 239.3 291.739 237.246 292.316 235.67C292.893 234.095 290.771 229.065 290.771 229.065L297.637 231.68H297.639Z" fill="#2C3A64"/>
<path d="M286.984 231.366C286.984 231.366 289.016 234.573 289.92 234.953C290.824 235.333 293.13 236.501 294.613 236.824C296.096 237.148 297.285 238.066 297.472 239.3H281.352C281.352 239.3 280.775 237.246 281.352 235.67C281.929 234.093 282.012 227.779 282.012 227.779L286.986 231.368L286.984 231.366Z" fill="#2C3A64"/>
<path d="M245.365 166.706C241.702 168.996 234.288 166.514 234.288 166.514C234.288 166.514 236.21 164.106 236.087 160.193C236.058 159.246 235.908 158.21 235.583 157.099L238.597 158.471L241.835 159.945C241.835 159.945 242.085 160.953 242.306 162.776C242.362 163.246 242.418 163.77 242.466 164.342C244.42 164.843 245.365 166.708 245.365 166.708V166.706Z" fill="#FFB07B"/>
<path d="M242.306 162.772C237.053 162.653 235.908 158.208 235.583 157.097L238.597 158.469L241.835 159.943C241.835 159.943 242.085 160.951 242.306 162.774V162.772Z" fill="#EA8E50"/>
<path d="M242.464 161.087C242.464 161.087 235.57 161.164 235.589 156.859C235.608 152.554 234.731 149.666 239.132 149.434C243.535 149.203 244.382 150.85 244.724 152.288C245.065 153.727 244.257 160.955 242.464 161.087Z" fill="#FFB07B"/>
<path d="M247.036 150.015C247.65 148.787 247.827 147.743 247.827 147.743C247.827 147.743 246.704 148.737 244.64 147.04C242.577 145.344 238.859 143.298 235.966 144.977C235.783 145.083 235.604 145.2 235.429 145.327C235.606 144.63 236.135 143.768 236.135 143.768C234.973 144.549 234.448 146.179 234.448 146.179C234.414 146.215 234.381 146.25 234.348 146.286C233.581 146.355 232.292 147.338 232.292 147.338C232.684 147.088 233.2 147.104 233.615 147.184C232.25 149.113 231.711 151.558 232.692 153.088C234.127 155.327 234.55 154.686 235.633 157.452C235.633 157.452 236.647 157.158 236.595 156.446C236.543 155.732 235.606 154.09 236.847 153.98C238.088 153.869 237.859 154.813 238.463 154.562C239.067 154.312 238.551 151.982 241.267 152.044C243.98 152.107 246.425 151.243 247.038 150.015H247.036Z" fill="#233862"/>
<path d="M239.975 200.402L257.199 198.461C257.199 198.461 278.705 198.444 283.521 201.052C289.504 204.292 298.845 233.204 298.845 233.204C298.845 233.204 296.758 235.319 292.728 234.208C290.504 233.596 280.049 217.219 278.453 211.274C277.625 208.188 250.112 214.529 244.801 212.301C239.49 210.072 239.975 200.402 239.975 200.402Z" fill="#1C468A"/>
<path d="M257.549 198.227C257.459 198.344 257.345 198.427 257.199 198.461C256.21 198.676 253.946 199.613 251.463 200.279C250.512 200.536 249.526 200.753 248.568 200.872C247.377 201.029 246.215 201.077 245.055 201.037C243.393 200.983 241.731 200.749 239.975 200.403C239.579 200.325 238.653 200.073 238.578 199.668C238.488 199.225 238.386 198.576 238.255 197.761C237.803 194.922 237.032 190.036 235.431 184.566C235.204 183.787 234.995 183.008 234.804 182.236C234.746 181.998 234.689 181.76 234.633 181.522C234.223 179.768 233.906 178.045 233.696 176.396C232.998 170.984 233.421 166.372 235.316 164.127C235.529 163.885 237.272 164.29 238.873 164.67C240.356 165.021 241.702 164.785 242.899 164.24L244.413 165.063C246.271 166.134 248.391 167.683 249.795 170.454C250.991 172.813 252.392 177.241 253.669 181.868C254.248 183.967 254.812 186.086 255.296 188.109L255.312 188.182C255.375 188.378 255.427 188.598 255.473 188.798C256.741 193.986 257.618 198.131 257.545 198.225L257.549 198.227Z" fill="white"/>
<path d="M269.602 176.066L263.004 184.326L270.158 184.86L275.806 177.181L269.602 176.066Z" fill="#B64C41"/>
<path d="M274.051 173.59L275.807 177.181L270.864 176.293L274.051 173.59Z" fill="#AA413E"/>
<path d="M275.337 176.763L273.526 173.59L270.479 176.225L275.337 176.763Z" fill="white"/>
<path d="M270.096 176.156L270.221 175.726L275.338 176.763L275.548 177.135L270.096 176.156Z" fill="#B2CBFD"/>
<path d="M270.22 175.726L269.881 176.116L270.147 176.164L270.22 175.726Z" fill="#739CF3"/>
<path d="M266.951 182.645L266.301 186.115C266.301 186.115 253.984 196.315 249.872 195.97C247.846 195.801 244.351 189.777 241.325 183.708C241.325 183.708 241.325 183.706 241.321 183.701C238.203 177.45 235.583 171.151 235.583 171.151C235.72 166.522 245.682 167.685 247 169.019C247.694 169.721 249.352 174.295 250.797 178.684C250.797 178.688 250.797 178.69 250.797 178.69C252.095 182.63 253.219 186.422 253.323 187.128C253.542 188.621 266.949 182.647 266.949 182.647L266.951 182.645Z" fill="#FFB07B"/>
<path d="M266.951 182.645C266.951 182.645 267.859 180.831 269.027 180.797C270.195 180.766 272.561 179.392 273.18 179.68C273.799 179.968 271.203 185.391 269.689 185.391C268.175 185.391 263.225 187.08 263.225 187.08L266.948 182.645H266.951Z" fill="#FFB07B"/>
<path d="M250.799 178.69C250.799 178.69 247.277 182.534 241.327 183.71C241.327 183.71 241.327 183.708 241.323 183.703C238.205 177.452 235.585 171.153 235.585 171.153C235.722 166.524 245.684 167.687 247.002 169.021C247.696 169.723 249.354 174.297 250.799 178.686C250.799 178.69 250.799 178.692 250.799 178.692V178.69Z" fill="white"/>
<path d="M269.518 213.799H249.193V240.121H269.518V213.799Z" fill="#C4DAFC"/>
<path d="M275.654 213.799H248.985C243.174 213.799 238.016 210.093 236.15 204.576L225.099 171.932C224.503 170.169 225.444 168.255 227.202 167.658C228.96 167.061 230.87 168.004 231.466 169.767L242.516 202.411C243.458 205.19 246.057 207.059 248.985 207.059H275.654C277.512 207.059 279.016 208.568 279.016 210.429C279.016 212.289 277.51 213.799 275.654 213.799Z" fill="#F99746"/>
<path d="M269.518 195.506H233.717V190.639H264.664C267.346 190.639 269.518 192.819 269.518 195.506Z" fill="#F99746"/>
<path d="M276.537 239.24H243.095C243.095 237.279 244.68 235.69 246.636 235.69H272.997C274.952 235.69 276.537 237.279 276.537 239.24Z" fill="#C4DAFC"/>
<path d="M585.051 208.228H564.726V238.843H585.051V208.228Z" fill="#C4DAFC"/>
<path d="M591.186 208.228H564.517C558.707 208.228 553.548 204.522 551.682 199.006L540.631 166.361C540.033 164.599 540.976 162.684 542.734 162.087C544.492 161.49 546.402 162.434 546.998 164.196L558.048 196.841C558.99 199.62 561.589 201.488 564.517 201.488H591.186C593.044 201.488 594.548 202.998 594.548 204.858C594.548 206.718 593.042 208.228 591.186 208.228Z" fill="#F99746"/>
<path d="M585.051 189.936H549.249V185.069H580.196C582.878 185.069 585.051 187.249 585.051 189.936Z" fill="#F99746"/>
<path d="M592.071 239.24H558.629C558.629 237.279 560.214 235.69 562.17 235.69H588.531C590.486 235.69 592.071 237.279 592.071 239.24Z" fill="#C4DAFC"/>
<path d="M581.829 70.7449H53.1736C54.8522 68.943 56.5538 67.208 58.2804 65.5334H580.173C580.789 67.2393 581.343 68.9764 581.829 70.7449Z" fill="#F99746"/>
<path d="M369.118 84.4939C368.801 84.4939 368.543 84.2246 368.543 83.8905V71.5927C368.543 71.2607 368.801 70.9893 369.118 70.9893C369.434 70.9893 369.693 71.2586 369.693 71.5927V83.8905C369.693 84.2225 369.434 84.4939 369.118 84.4939Z" fill="#163560"/>
<path d="M369.176 98.6063C369.153 98.6063 369.13 98.6063 369.11 98.6063C368.056 98.5875 367.22 98.1302 366.691 97.2867C365.727 95.7479 365.763 92.8729 366.796 88.743C367.541 85.7572 368.531 83.2288 368.572 83.1223L369.122 81.7234L369.666 83.1244C369.707 83.233 370.699 85.8053 371.446 88.8244C372.481 93.0044 372.508 95.8857 371.528 97.3849C371.005 98.1845 370.193 98.6063 369.176 98.6063ZM369.116 85.0954C367.941 88.5112 366.333 94.4597 367.679 96.6061C367.995 97.1134 368.458 97.3535 369.128 97.3661C369.786 97.3786 370.24 97.1615 370.553 96.6833C371.915 94.5996 370.295 88.5592 369.114 85.0954H369.116Z" fill="#163560"/>
<path d="M369.232 71.8934C369.168 71.8934 369.101 71.885 369.035 71.8683C368.67 71.7723 368.464 71.4382 368.572 71.1188C369.755 67.6445 368.631 65.661 368.62 65.6401C368.447 65.3436 368.581 64.9803 368.918 64.8279C369.255 64.6755 369.67 64.7924 369.843 65.0889C369.901 65.187 371.23 67.5296 369.891 71.4633C369.801 71.7243 369.528 71.8934 369.232 71.8934Z" fill="#163560"/>
<path d="M393.244 167.894C393.244 167.894 391.469 170.151 391.534 170.955C391.601 171.758 392.761 173.026 393.74 173.178C394.718 173.331 395.468 171.366 395.241 169.247C395.014 167.129 393.244 167.892 393.244 167.892V167.894Z" fill="#EF8535"/>
<path d="M390.274 125.121C390.274 125.121 401.858 146.52 401.362 148.601C400.867 150.685 396.437 152.61 394.558 152.132C392.729 151.666 382.324 136.368 382.545 135.715C382.766 135.061 390.274 125.121 390.274 125.121Z" fill="#EF8535"/>
<path d="M396.547 168.103C399.175 160.822 401.389 148.378 401.389 148.378L393.908 147.708C393.908 147.708 391.288 164.929 392.642 168.418C392.642 168.418 395.616 170.681 396.547 168.1V168.103Z" fill="#EF8535"/>
<path d="M367.075 101.765C367.075 101.765 366.252 97.9882 366.702 96.9422C367.15 95.8982 368.98 94.706 370.09 94.9252C371.201 95.1445 371.074 98.0905 369.834 100.817C368.595 103.544 367.075 101.763 367.075 101.763V101.765Z" fill="#FFB27D"/>
<path d="M386.271 233.55C386.271 233.55 385.925 239.148 384.844 239.227C384.701 239.238 379.365 239.238 379.365 239.238L372.554 239.198C372.554 239.198 372.598 237.553 374.589 237.206C376.58 236.858 379.912 235.457 381.118 232.818C382.387 230.043 386.271 233.55 386.271 233.55Z" fill="#163560"/>
<path d="M401.441 233.55C401.441 233.55 401.096 239.148 400.015 239.227C399.871 239.238 394.535 239.238 394.535 239.238L387.725 239.198C387.725 239.198 387.768 237.553 389.759 237.206C391.75 236.858 395.083 235.457 396.289 232.818C397.557 230.043 401.441 233.55 401.441 233.55Z" fill="#163560"/>
<path d="M378.727 173.391C378.727 173.391 380.508 184.812 387.154 205.088C393.8 225.362 394.703 234.141 394.703 234.141L401.833 233.941C401.833 233.941 401.893 211.784 398.831 201.589C395.77 191.393 398.171 164.833 398.171 164.833L378.727 173.391Z" fill="#163560"/>
<path d="M375.257 165.457C375.257 165.457 375.005 182.668 377.975 203.8C380.945 224.932 379.939 233.901 379.939 233.901L387.054 234.139C387.054 234.139 391.304 212.999 390.086 202.422C388.868 191.844 395.907 166.127 395.907 166.127L375.257 165.457Z" fill="#1C468A"/>
<path d="M389.03 125.181L385.675 127.672L380.827 126.649C380.893 126.207 381.214 124.369 381.506 122.705C381.522 122.607 381.541 122.509 381.558 122.413C381.808 120.997 382.022 119.78 382.022 119.78L386.552 117.517L388.241 116.673C388.237 116.702 388.11 118.245 388.093 118.469C387.777 122.465 389.033 125.181 389.033 125.181H389.03Z" fill="#FFB27D"/>
<path d="M381.164 123.924C381.27 123.881 387.76 121.96 388.466 122.194C389.17 122.427 389.589 123.795 389.589 123.795L378.973 126.2C378.973 126.2 379.808 124.497 381.164 123.924Z" fill="#EF8535"/>
<path d="M398.642 167.583C397.543 172.615 379.231 173.212 374.512 168.643C373.977 168.123 373.948 165.701 374.152 162.436C374.431 157.962 375.137 151.907 375.553 146.996C375.73 144.904 375.853 143.02 375.87 141.555C375.895 139.187 376.218 136.765 376.651 134.566C376.963 132.971 377.744 131.37 378.642 129.948C380.377 127.192 382.543 125.121 382.543 125.121C382.543 125.121 387.916 123.302 389.589 123.795C397.651 126.169 399.742 162.551 398.642 167.583Z" fill="#F99746"/>
<path d="M387.751 118.54C386.756 120.448 383.051 122.097 381.505 122.705C381.522 122.607 381.541 122.509 381.557 122.413C381.807 120.997 382.022 119.78 382.022 119.78L386.552 117.516C387.554 117.502 388.162 117.754 387.751 118.54Z" fill="#FCA56B"/>
<path d="M379.821 119.515C379.821 119.515 387.991 122.07 389.501 116.945C391.011 111.819 393.081 108.695 387.929 106.847C382.776 105 381.181 106.653 380.262 108.242C379.344 109.831 377.734 118.717 379.821 119.515Z" fill="#FFB27D"/>
<path d="M380.583 107.747C380.583 107.747 381.103 113.712 382.334 113.453C383.565 113.195 384.682 113.002 384.5 114.8C384.319 116.598 382.613 118.675 386.406 118.993C390.199 119.31 395.649 109.507 394.608 107.649C391.602 102.294 376.238 101.212 380.583 107.745V107.747Z" fill="#163560"/>
<path d="M384.282 135.949C384.282 135.949 382.211 145.017 375.555 146.996C375.732 144.904 375.855 143.02 375.872 141.555C375.897 139.187 376.22 136.765 376.653 134.566C376.965 132.971 377.746 131.37 378.644 129.948C381.533 132.094 384.284 135.949 384.284 135.949H384.282Z" fill="#EF8535"/>
<path d="M386.475 125.121C386.475 125.121 384.692 123.133 381.503 122.705C378.623 122.317 368.457 118.181 368.089 116.855C367.816 115.878 370.415 99.5 370.444 99.8612C370.444 99.8612 368.62 97.9487 366.46 99.1221C366.46 99.1221 359.373 118.275 360.579 120.834C362.43 124.766 385.079 136.705 384.723 138.055C384.013 140.745 386.475 125.123 386.475 125.123V125.121Z" fill="#F99746"/>
<path d="M304.82 84.6255C304.504 84.6255 304.246 84.3562 304.246 84.0221V71.7243C304.246 71.3923 304.502 71.1208 304.82 71.1208C305.139 71.1208 305.395 71.3902 305.395 71.7243V84.0221C305.395 84.3541 305.137 84.6255 304.82 84.6255Z" fill="#163560"/>
<path d="M304.877 98.7398C304.854 98.7398 304.833 98.7398 304.81 98.7398C303.756 98.7211 302.921 98.2638 302.392 97.4203C301.428 95.8815 301.463 93.0064 302.496 88.8765C303.242 85.8908 304.231 83.3623 304.273 83.2558L304.823 81.8569L305.366 83.2579C305.408 83.3665 306.399 85.9388 307.147 88.9579C308.182 93.138 308.209 96.0193 307.228 97.5184C306.705 98.3181 305.893 98.7398 304.877 98.7398ZM304.816 85.2289C303.642 88.6448 302.034 94.5932 303.379 96.7396C303.696 97.247 304.158 97.4871 304.829 97.4996C305.489 97.5121 305.941 97.295 306.253 96.8169C307.616 94.7331 305.995 88.6928 304.814 85.2289H304.816Z" fill="#163560"/>
<path d="M304.933 72.0269C304.869 72.0269 304.802 72.0186 304.735 72.0019C304.371 71.9058 304.165 71.5718 304.273 71.2523C305.456 67.778 304.331 65.7945 304.321 65.7736C304.148 65.4771 304.281 65.1138 304.619 64.9614C304.956 64.809 305.371 64.9259 305.543 65.2224C305.602 65.3205 306.931 67.6632 305.591 71.5968C305.502 71.8578 305.229 72.0269 304.933 72.0269Z" fill="#163560"/>
<path d="M421.302 89.9183C420.985 89.9183 420.727 89.5759 420.727 89.1541V73.5574C420.727 73.1356 420.985 72.7932 421.302 72.7932C421.618 72.7932 421.877 73.1356 421.877 73.5574V89.1541C421.877 89.5759 421.618 89.9183 421.302 89.9183Z" fill="#163560"/>
<path d="M421.358 107.82C421.335 107.82 421.315 107.82 421.292 107.82C420.238 107.795 419.403 107.217 418.874 106.148C417.909 104.195 417.945 100.55 418.978 95.3113C419.723 91.5259 420.713 88.3189 420.754 88.1832L421.304 86.4084L421.848 88.1874C421.889 88.3252 422.881 91.5865 423.628 95.4157C424.664 100.717 424.691 104.371 423.71 106.273C423.187 107.288 422.375 107.822 421.358 107.822V107.82ZM421.298 90.6845C420.123 95.0169 418.515 102.561 419.861 105.283C420.177 105.926 420.64 106.231 421.31 106.248C421.971 106.265 422.423 105.989 422.735 105.383C424.097 102.74 422.477 95.0796 421.296 90.6845H421.298Z" fill="#163560"/>
<path d="M421.415 73.9395C421.35 73.9395 421.283 73.929 421.217 73.9082C420.852 73.7871 420.646 73.3611 420.754 72.9561C421.937 68.5506 420.813 66.0325 420.802 66.0075C420.629 65.6317 420.763 65.1723 421.1 64.9781C421.438 64.7861 421.852 64.9343 422.025 65.308C422.081 65.4312 423.412 68.4023 422.073 73.3925C421.983 73.7244 421.71 73.9374 421.415 73.9374V73.9395Z" fill="#163560"/>
<path d="M295.596 84.6255C295.279 84.6255 295.021 84.3562 295.021 84.0221V71.7243C295.021 71.3923 295.277 71.1208 295.596 71.1208C295.914 71.1208 296.171 71.3902 296.171 71.7243V84.0221C296.171 84.3541 295.912 84.6255 295.596 84.6255Z" fill="#163560"/>
<path d="M295.652 98.7398C295.629 98.7398 295.608 98.7398 295.586 98.7398C294.532 98.7211 293.697 98.2638 293.168 97.4203C292.203 95.8815 292.239 93.0064 293.272 88.8765C294.017 85.8908 295.007 83.3623 295.048 83.2558L295.598 81.8569L296.142 83.2579C296.183 83.3665 297.175 85.9388 297.922 88.9579C298.957 93.138 298.985 96.0193 298.004 97.5184C297.481 98.3181 296.669 98.7398 295.652 98.7398ZM295.592 85.2289C294.417 88.6448 292.809 94.5932 294.155 96.7396C294.471 97.247 294.934 97.4871 295.604 97.4996C296.262 97.5121 296.717 97.295 297.029 96.8169C298.391 94.7331 296.771 88.6928 295.592 85.2289Z" fill="#163560"/>
<path d="M295.709 72.0269C295.644 72.0269 295.577 72.0186 295.511 72.0019C295.146 71.9058 294.94 71.5718 295.048 71.2523C296.231 67.778 295.107 65.7945 295.096 65.7736C294.923 65.4771 295.057 65.1138 295.394 64.9614C295.731 64.809 296.146 64.9259 296.319 65.2224C296.377 65.3205 297.706 67.6632 296.367 71.5968C296.277 71.8578 296.004 72.0269 295.709 72.0269Z" fill="#163560"/>
<path d="M253.328 84.6255C253.011 84.6255 252.753 84.3562 252.753 84.0221V71.7243C252.753 71.3923 253.011 71.1208 253.328 71.1208C253.644 71.1208 253.903 71.3902 253.903 71.7243V84.0221C253.903 84.3541 253.644 84.6255 253.328 84.6255Z" fill="#163560"/>
<path d="M253.386 98.7398C253.363 98.7398 253.342 98.7398 253.319 98.7398C252.266 98.7211 251.43 98.2638 250.901 97.4203C249.937 95.8815 249.973 93.0064 251.006 88.8765C251.751 85.8908 252.74 83.3623 252.782 83.2558L253.332 81.8569L253.876 83.2579C253.917 83.3665 254.909 85.9388 255.656 88.9579C256.691 93.138 256.718 96.0193 255.738 97.5184C255.215 98.3181 254.402 98.7398 253.386 98.7398ZM253.326 85.2289C252.151 88.6448 250.543 94.5932 251.889 96.7396C252.205 97.247 252.668 97.4871 253.34 97.4996C253.998 97.5121 254.452 97.295 254.765 96.8169C256.127 94.7331 254.507 88.6928 253.326 85.2289Z" fill="#163560"/>
<path d="M253.44 72.0269C253.375 72.0269 253.309 72.0186 253.242 72.0019C252.878 71.9058 252.671 71.5718 252.78 71.2523C253.963 67.778 252.838 65.7945 252.828 65.7736C252.655 65.4771 252.788 65.1138 253.126 64.9614C253.463 64.809 253.877 64.9259 254.05 65.2224C254.107 65.3205 255.437 67.6632 254.098 71.5968C254.009 71.8578 253.736 72.0269 253.44 72.0269Z" fill="#163560"/>
<path d="M438.418 117.855C438.418 117.855 444.924 110.015 448.369 115.032C448.369 115.032 450.939 116.101 451.868 120.486C452.815 124.96 449.847 128.361 448.313 127.52C447.327 126.981 446.584 128.708 446.584 128.708L438.416 117.853L438.418 117.855Z" fill="#233862"/>
<path d="M437.437 135.452C437.437 135.452 437.016 134.406 434.96 133.195C432.905 131.984 424.814 125.455 424.293 123.273C423.77 121.093 421.423 110.017 421.423 110.017H419.421C419.421 110.017 420.052 124.417 420.573 125.987C421.096 127.557 431.353 141.051 434.157 141.713L437.437 135.452Z" fill="#FFB27D"/>
<path d="M464.206 166.946C464.025 167.384 463.239 167.775 462.108 168.057C459.574 168.689 455.3 168.773 452.182 167.614C448.839 166.374 446.415 148.662 445.384 139.584C445.024 136.416 444.834 134.299 444.834 134.299C444.834 134.299 446.755 131.286 454.186 132.291C461.617 133.295 462.369 135.807 463.035 140.327C463.704 144.847 464.789 165.522 464.206 166.946Z" fill="#466AA5"/>
<path d="M462.108 168.057C459.574 168.689 455.3 168.773 452.182 167.614C448.839 166.374 446.415 148.662 445.384 139.584C446.265 136.46 446.963 134.403 446.963 134.403C446.963 134.403 456.294 133.274 458.11 136.099C459.734 138.625 461.709 162.947 462.108 168.054V168.057Z" fill="#2B478B"/>
<path d="M447.659 114.238C447.659 114.238 448.533 110.731 453.674 111.827C453.674 111.827 451.212 111.516 450.539 112.466C450.539 112.466 452.488 111.57 453.711 112.32C454.932 113.069 455.134 115.591 454.95 116.358C454.767 117.124 453.419 119.41 452.526 119.41C451.633 119.41 450.577 118.625 450.577 118.625L447.661 114.241L447.659 114.238Z" fill="#233862"/>
<path d="M455.35 169.147C452.795 163.401 451.572 161.776 451.528 159.968C451.495 158.538 452.197 156.995 453.563 153.214C453.884 152.322 454.107 151.406 454.244 150.479C455.325 143.188 451.118 135.304 448.504 134.767C447.777 134.575 446.544 131.94 446.559 127.697L446.232 127.762L440.727 128.854C440.727 128.854 440.852 130.591 440.857 132.226C440.861 133.589 440.777 134.882 440.469 135.045C440.073 135.08 439.838 135.105 439.838 135.105C439.838 135.105 435.248 141.496 434.863 147.439C434.477 153.383 438.539 155.964 434.831 167.842C431.047 179.972 456.76 172.322 455.348 169.147H455.35Z" fill="#FFB27D"/>
<path d="M440.726 128.854C440.726 128.854 440.851 130.591 440.855 132.226C443.935 132.138 445.564 129.322 446.23 127.76L440.726 128.852V128.854Z" fill="#FCA56B"/>
<path d="M446.8 127.161C446.8 127.161 448.415 124.603 448.802 122.417C449.079 120.855 448.285 115.07 442.485 115.903C442.485 115.903 440.8 116.07 439.217 117.141C437.957 117.993 436.141 119.834 438.172 124.883L438.699 126.589L446.798 127.159L446.8 127.161Z" fill="#233862"/>
<path d="M439.698 130.403C439.698 130.403 446.986 130.524 446.992 125.973C446.996 121.421 447.942 118.373 443.287 118.103C438.634 117.834 437.728 119.569 437.357 121.089C436.987 122.607 437.801 130.257 439.698 130.405V130.403Z" fill="#FFB27D"/>
<path d="M439.967 117.991C439.967 117.991 441.963 123.329 445.026 124.119C448.088 124.908 449.417 124.085 449.417 124.085C449.417 124.085 447.067 122.214 446.58 118.949C446.58 118.949 441.473 115.447 439.967 117.988V117.991Z" fill="#233862"/>
<path d="M440.463 118.425C440.463 118.425 438.972 119.617 438.61 120.776C438.245 121.935 438.083 124.321 437.389 124.24C437.389 124.24 435.885 120.611 437.574 118.558C439.366 116.381 440.463 118.427 440.463 118.427V118.425Z" fill="#233862"/>
<path d="M448.896 224.284C447.063 231.596 444.301 237.202 444.301 237.202L441.898 237.035C441.898 237.035 443.077 231.414 443.008 223.819C442.96 218.509 442.306 212.233 440.213 206.243C433.021 185.654 434.184 170.667 434.184 170.667L447.707 172.253L448.336 172.326C448.392 178.553 448.552 187.007 448.692 193.617C448.815 199.561 448.925 204.015 448.925 204.015C451.524 209.629 450.581 217.553 448.892 224.282L448.896 224.284Z" fill="#B24646"/>
<path d="M464.828 175.249L462.639 175.907C462.639 175.907 455.421 163.902 454.765 160.778C454.55 159.761 454.025 157.726 453.413 155.446C452.145 150.723 450.51 144.945 450.51 144.945L449.97 142.607L448.133 134.631C448.133 134.631 451.651 134.992 453.709 135.855C454.39 136.141 454.91 136.479 455.092 136.88C456.604 140.212 458.112 148.622 459.174 154.621C459.765 157.964 460.215 160.559 460.45 161.11C461.106 162.645 463.112 171.086 464.824 175.254L464.828 175.249Z" fill="#FFB27D"/>
<path d="M456.656 223.117C455.879 231.437 452.455 236.816 452.455 236.816L451.308 237.653C451.308 237.653 450.22 231.792 449.452 224.819C448.719 218.19 447.715 211.176 446.58 209.036C442.071 200.547 440.713 168.495 440.713 168.495L454.425 167.812C455.804 170.136 456.406 173.949 456.548 178.283C456.908 189.222 454.344 203.484 453.961 205.547C453.961 205.547 453.961 205.549 453.961 205.551C453.932 205.71 453.978 205.869 454.051 206.013C456.779 211.427 457.172 217.62 456.66 223.117H456.656Z" fill="#CE544E"/>
<path d="M440.186 118.604C440.186 118.604 441.608 124.196 445.472 125.987C445.472 125.987 441.609 122.553 441.279 118.861C440.95 115.17 440.186 118.604 440.186 118.604Z" fill="#233862"/>
<path d="M429.279 239.223L429.264 239.238H428.512C428.577 239.228 428.643 239.223 428.712 239.223H429.279Z" fill="#283250"/>
<path d="M464.674 174.886C464.674 174.886 465.339 176.458 466.032 176.897C466.726 177.335 467.709 178.396 467.528 179.235C467.344 180.077 467.163 181.392 466.288 181.392C465.414 181.392 463.373 177.519 463.116 176.788C462.86 176.058 462.642 175.911 462.642 175.911L464.674 174.888V174.886Z" fill="#FFB27D"/>
<path d="M421.596 110.843C421.596 110.843 421.396 108.557 421.756 107.82C422.116 107.083 422.402 105.663 421.808 105.043C421.215 104.423 420.371 103.398 419.625 103.857C418.88 104.317 419.163 108.689 419.328 109.445C419.492 110.2 419.592 111.393 419.592 111.393L421.594 110.846L421.596 110.843Z" fill="#FFB27D"/>
<path d="M457.068 173.295C457.093 173.759 457.068 174.128 456.983 174.393C456.691 175.314 455.69 175.734 453.268 175.481C451.787 175.327 451.126 172.84 450.833 170.717C449.943 173.752 448.698 175.456 447.09 175.813C444.741 176.337 432.897 177.78 432.122 172.136C431.27 165.927 433.823 154.934 433.963 149.006C433.615 146.904 433.496 145.081 433.534 143.513C433.632 139.291 434.869 136.924 435.819 135.972C436.087 135.765 436.358 135.635 437.439 135.45C437.991 135.356 438.757 135.247 439.84 135.103C439.84 135.103 440.282 135.053 440.273 135.07C440.074 135.429 437.391 139.502 437.599 140.548C437.818 141.644 447.334 140.657 447.99 140.055C448.646 139.452 449.685 134.836 449.685 134.836C449.685 134.836 453.055 135.205 454.702 136.406C454.702 136.406 454.696 136.414 454.686 136.427C454.886 136.571 455.034 136.721 455.119 136.884C456.877 140.239 458.633 148.71 459.868 154.752C456.875 156.406 454.259 155.913 453.447 155.696C454.507 162.655 456.912 170.126 457.071 173.295H457.068Z" fill="#F9DDBF"/>
<path d="M439.838 135.105C439.838 135.105 439.834 135.114 439.823 135.13C439.501 135.642 434.446 143.743 433.961 149.009C433.613 146.906 433.494 145.083 433.532 143.515C434.181 141.526 437.149 137.005 438.67 135.205C438.778 135.078 439.84 135.105 439.84 135.105H439.838Z" fill="#466AA5"/>
<path d="M456.656 223.117C455.879 231.438 452.455 236.816 452.455 236.816L451.287 237.883C451.287 237.883 450.22 231.79 449.452 224.819C450.262 224.877 453.834 225.009 456.658 223.117H456.656Z" fill="#FFB27D"/>
<path d="M448.896 224.284C447.063 231.596 444.301 237.202 444.301 237.202L441.898 237.035C441.898 237.035 443.077 231.414 443.008 223.819C443.824 224.23 445.507 224.648 448.894 224.282L448.896 224.284Z" fill="#FFB27D"/>
<path d="M445.686 239.223H444.151C443.637 239.142 443.258 238.994 442.731 238.925C441.931 238.82 441.562 239.148 441.489 239.223C441.479 239.234 441.475 239.238 441.475 239.238H434.956C434.791 239.004 434.95 238.459 435.104 238.06C435.208 237.789 435.435 237.582 435.714 237.501C436.406 237.3 437.768 237.121 439.015 235.989C439.717 235.352 442.406 233.651 442.406 233.651L442.42 233.646C442.479 233.646 442.76 233.734 443.982 234.77C444.616 235.304 445.692 234.016 445.692 234.016C445.692 234.016 445.894 234.183 446.046 234.496C446.167 234.743 446.257 235.081 446.186 235.498C446.088 236.087 446.403 237.181 446.652 237.92C446.805 238.369 446.932 238.687 446.932 238.687C446.932 238.687 447.004 239.056 445.684 239.221L445.686 239.223Z" fill="#ED8435"/>
<path d="M446.046 234.496C445.68 234.755 444.907 235.265 444.395 235.331C443.703 235.423 442.408 233.651 442.408 233.651L442.422 233.646C442.481 233.646 442.762 233.734 443.984 234.77C444.617 235.304 445.694 234.016 445.694 234.016C445.694 234.016 445.896 234.183 446.048 234.496H446.046Z" fill="#F99746"/>
<path d="M445.686 239.223H444.151C443.637 239.142 443.258 238.994 442.731 238.925C441.931 238.82 441.562 239.148 441.489 239.223C441.479 239.234 441.475 239.238 441.475 239.238H434.956C434.791 239.004 434.95 238.459 435.104 238.06C435.302 237.883 435.358 238.827 435.466 238.977C435.575 239.127 440.783 239.031 441.083 238.812C441.383 238.593 442.287 238.209 443.543 238.511C444.638 238.772 446.251 238.102 446.65 237.923C446.802 238.372 446.929 238.689 446.929 238.689C446.929 238.689 447.002 239.058 445.682 239.223H445.686Z" fill="#F99746"/>
<path d="M453.876 239.223H452.341C451.826 239.142 451.447 238.994 450.92 238.925C450.12 238.82 449.752 239.148 449.679 239.223C449.668 239.234 449.664 239.238 449.664 239.238H443.145C442.981 239.004 443.139 238.459 443.293 238.06C443.397 237.789 443.624 237.582 443.904 237.501C444.595 237.3 445.957 237.121 447.205 235.989C447.906 235.352 450.595 233.651 450.595 233.651L450.61 233.646C450.668 233.646 450.949 233.734 452.172 234.77C452.805 235.304 453.882 234.016 453.882 234.016C453.882 234.016 454.084 234.183 454.236 234.496C454.357 234.743 454.446 235.081 454.375 235.498C454.277 236.087 454.592 237.181 454.842 237.92C454.994 238.369 455.121 238.687 455.121 238.687C455.121 238.687 455.194 239.056 453.873 239.221L453.876 239.223Z" fill="#FFA35F"/>
<path d="M454.234 234.496C453.867 234.755 453.094 235.265 452.582 235.331C451.891 235.423 450.595 233.651 450.595 233.651L450.61 233.646C450.668 233.646 450.949 233.734 452.172 234.77C452.805 235.304 453.882 234.016 453.882 234.016C453.882 234.016 454.084 234.183 454.236 234.496H454.234Z" fill="#F99746"/>
<path d="M453.876 239.223H452.341C451.826 239.142 451.447 238.994 450.92 238.925C450.12 238.82 449.752 239.148 449.679 239.223C449.668 239.234 449.664 239.238 449.664 239.238H443.145C442.981 239.004 443.139 238.459 443.293 238.06C443.491 237.883 443.547 238.827 443.656 238.977C443.764 239.127 448.973 239.031 449.273 238.812C449.573 238.593 450.477 238.209 451.732 238.511C452.828 238.772 454.44 238.102 454.84 237.923C454.992 238.372 455.119 238.689 455.119 238.689C455.119 238.689 455.192 239.058 453.871 239.223H453.876Z" fill="#F99746"/>
<path d="M457.068 173.295C455.442 172.75 453.353 171.301 450.845 168.052C444.207 159.452 450.281 149.345 451.095 149.157C451.909 148.969 453.442 155.696 453.442 155.696C454.502 162.655 456.908 170.126 457.066 173.295H457.068Z" fill="#EAC3A2"/>
<path d="M453.351 134.216C453.351 134.216 446.671 138.778 446.169 148.445C445.667 158.112 454.352 160.081 454.352 160.081L453.788 157.026C453.788 157.026 446.753 154.473 448.589 146.772C450.426 139.072 455.937 134.886 455.937 134.886L453.348 134.216H453.351Z" fill="#466AA5"/>
<path d="M438.67 135.205C438.67 135.205 437.11 134.767 431.282 130.334C431.282 130.334 430.795 132.224 430.252 133.806C429.533 135.901 428.25 136.771 428.25 136.771C428.25 136.771 432.919 141.344 433.532 143.517C433.532 143.517 435.25 138.431 438.67 135.207V135.205Z" fill="#F9DDBF"/>
<path d="M86.374 232.262C86.1949 233.394 87.7569 233.776 89.5814 233.989C91.4058 234.202 90.8289 234.54 93.3073 235.162C95.7857 235.785 96.8375 235.162 97.0416 234.834C97.2228 234.544 96.0877 233.995 94.8798 233.379C94.7277 233.302 94.5757 233.223 94.4237 233.145C93.0657 232.435 92.3639 231.126 91.3496 229.886C90.3894 228.713 89.6418 225.111 89.6418 225.111L86.2803 224.155C86.2803 224.155 87.028 227.402 87.2696 228.784C87.4133 229.596 87.0655 230.471 86.7635 231.135C86.601 231.496 86.4365 231.865 86.374 232.264V232.262Z" fill="#FFB27D"/>
<path d="M89.5813 233.987C91.4057 234.2 90.8288 234.538 93.3072 235.16C95.7856 235.782 96.8374 235.16 97.0415 234.832C97.2227 234.542 96.0876 233.993 94.8797 233.377L94.8588 233.398C94.8588 233.398 93.0552 233.882 91.0558 233.191C89.4251 232.629 87.8859 231.529 86.7634 231.13C86.6009 231.492 86.4364 231.861 86.3739 232.26C86.1948 233.392 87.7568 233.774 89.5813 233.987Z" fill="#233862"/>
<path d="M63.7037 231.824C63.0123 232.736 64.2077 233.813 65.7156 234.866C67.2235 235.918 66.5529 235.943 68.444 237.666C70.3351 239.388 71.5534 239.34 71.8888 239.146C72.1866 238.977 71.4451 237.954 70.6704 236.839C70.5725 236.699 70.4767 236.557 70.3788 236.415C69.5166 235.146 69.5145 233.659 69.2062 232.087C68.9126 230.598 71.3389 225.126 71.3389 225.126L67.4422 224.635C67.4422 224.635 66.934 227.94 66.4966 229.272C66.2384 230.055 65.1575 230.573 64.5785 231.014C64.2661 231.254 63.9453 231.502 63.7016 231.824H63.7037Z" fill="#FFB27D"/>
<path d="M65.7156 234.866C67.2235 235.918 66.5529 235.943 68.444 237.666C70.3351 239.388 71.5534 239.34 71.8888 239.146C72.1866 238.977 71.4451 237.954 70.6704 236.839L70.6433 236.847C70.6433 236.847 68.8251 236.419 67.3901 234.862C66.2196 233.594 65.3824 231.895 64.5805 231.011C64.2681 231.252 63.9474 231.5 63.7037 231.822C63.0123 232.734 64.2077 233.811 65.7156 234.864V234.866Z" fill="#233862"/>
<path d="M79.6178 203.846L76.0584 213.446L71.4119 225.982C71.4119 225.982 70.1519 226.103 68.9439 225.756C67.8317 225.435 66.5571 224.591 66.5571 224.591C66.5571 224.591 67.8463 211.13 70.2539 203.405C70.8704 201.422 71.5619 199.818 72.3241 198.914C76.0543 194.494 79.6178 203.846 79.6178 203.846Z" fill="#AF4138"/>
<path d="M80.2071 191.082C78.1744 189.713 65.5095 187.982 58.7261 187.393L58.3408 184.597L50.4703 180.521C50.4703 180.521 42.9767 189.376 43.6244 196.582C43.6786 197.177 44.0805 198.649 44.4221 199.828C44.7095 200.814 45.6071 201.49 46.6298 201.49C52.68 201.495 72.7719 201.511 73.6653 201.586C75.3898 201.728 75.1045 205.186 75.7501 209.086C76.3958 212.989 86.7156 228.7 86.7156 228.7C86.7156 228.7 88.8149 229.327 89.7771 229.251C90.8123 229.17 91.285 228.811 91.285 228.811C91.285 228.811 84.7891 194.174 80.203 191.084L80.2071 191.082Z" fill="#C65447"/>
<path d="M54.4941 143.949C52.4801 143.398 49.706 143.876 49.2457 143.914C43.7473 144.373 42.2436 152.861 42.5706 155.26C43.1767 159.682 41.0294 160.849 38.401 164.282C33.1297 171.165 36.4183 177.087 40.4733 178.661C42.9059 179.605 46.3382 177.367 46.3382 177.367C46.3986 177.392 55.3188 169.403 59.7279 165.526C67.0153 162.793 59.6259 145.357 54.4941 143.949Z" fill="#233862"/>
<path d="M55.0042 164.096C55.0292 164.104 52.7257 165.507 50.8971 165.136C49.1768 164.787 47.4231 162.465 47.446 162.459C48.1521 162.269 48.7977 161.471 48.4999 157.239L48.8269 157.281L54.3356 157.995C54.3356 157.995 54.3273 159.717 54.4314 161.333C54.5189 162.691 54.6855 163.97 55.0062 164.096H55.0042Z" fill="#FFB27D"/>
<path d="M54.3358 157.995C54.3358 157.995 54.3274 159.717 54.4316 161.333C51.3846 161.452 49.5914 158.778 48.8291 157.281L54.3379 157.995H54.3358Z" fill="#ED975D"/>
<path d="M55.452 159.456C55.452 159.456 48.2625 160.058 47.9584 155.565C47.6544 151.071 46.5193 148.121 51.0971 147.547C55.6749 146.973 56.6829 148.626 57.1494 150.103C57.6159 151.579 57.3139 159.185 55.452 159.456Z" fill="#FFB27D"/>
<path d="M56.3706 147.775C56.3706 147.775 52.7488 152.623 49.7768 153.606C46.8047 154.59 45.4385 153.865 45.4385 153.865C45.4385 153.865 46.9026 151.978 47.4525 149.332C47.6149 148.553 48.1793 147.917 48.9374 147.681C51.068 147.013 55.1647 146.019 56.3706 147.777V147.775Z" fill="#233862"/>
<path d="M53.5005 148.046C53.5005 148.046 55.3145 149.165 56.0206 150.136C56.7037 151.073 57.3847 153.525 57.2389 154.589C57.2389 154.589 58.5719 149.535 56.7683 147.618C54.8563 145.586 53.5005 148.046 53.5005 148.046Z" fill="#233862"/>
<path d="M60.5671 176.034C60.3505 190.543 60.5067 187.512 58.9239 188.888C58.5427 189.22 57.4702 189.416 56.0581 189.51C51.6198 189.804 43.818 189.071 43.5223 188.249C42.4997 185.405 43.2224 184.52 42.3664 180.164C42.2768 179.701 42.1664 179.2 42.0373 178.653C41.325 175.661 40.6315 174.644 43.1578 169.837C45.4488 165.484 47.8293 161.951 48.0438 162.079C54.0878 165.676 54.5752 162.653 54.5752 162.653C54.5752 162.653 60.6713 168.954 60.565 176.032L60.5671 176.034Z" fill="white"/>
<path d="M76.0584 213.448L71.3057 226.506C71.3057 226.506 69.5979 227.063 68.3545 226.881C67.0882 226.698 66.3926 226.004 66.3926 226.004C66.3926 226.004 67.8442 211.132 70.2518 203.407L76.0563 213.448H76.0584Z" fill="#C65447"/>
<path d="M54.5793 162.655C54.5793 162.655 60.7983 163.712 61.5293 166.397C62.2604 169.082 67.6004 183.875 67.6004 183.875C67.6004 183.875 63.3954 186.651 61.9355 185.188C60.4755 183.724 56.8537 170.384 56.8537 170.384L54.5814 162.657L54.5793 162.655Z" fill="white"/>
<path d="M56.0601 189.512C51.6219 189.806 43.8201 189.073 43.5243 188.251C42.5017 185.407 43.2244 184.522 42.3684 180.166L44.449 175.414C44.449 175.414 44.1533 180.851 46.1339 182.622C48.1104 184.392 54.2377 186.038 55.2 187.518C55.6644 188.228 55.9685 188.94 56.058 189.512H56.0601Z" fill="#DFEBFD"/>
<path d="M56.2727 187.315C56.2727 187.315 57.1891 188.501 57.4911 188.643C57.791 188.785 57.9868 188.75 57.9868 188.75L57.3682 187.635L56.2727 187.315Z" fill="#FFB27D"/>
<path d="M56.0601 186.094L58.728 187.393C58.728 187.393 58.6134 187.579 58.2865 187.564C57.9574 187.549 57.1306 187.244 57.1306 187.244L56.0621 186.094H56.0601Z" fill="#FFB27D"/>
<path d="M50.9762 186.681C50.9762 186.681 55.3541 185.704 56.0601 186.092C56.7661 186.482 58.4927 187.9 58.7093 188.393C58.9259 188.886 57.1368 188.017 56.5537 187.86C56.1767 187.76 55.1853 188.105 54.6938 188.27C52.6278 188.961 51.3615 188.606 51.3615 188.606L50.9741 186.679L50.9762 186.681Z" fill="#ED975D"/>
<path d="M48.0438 162.079C48.0438 162.079 42.1644 162.442 40.1296 165.288C37.2638 169.293 31.5822 186.366 34.8395 188.641C38.5071 191.205 51.5324 189.312 51.5324 189.312C51.5324 189.312 51.9656 187.28 51.3637 186.299C50.7597 185.315 40.9606 183.728 40.5065 183.275C40.0546 182.822 44.976 176.264 44.4512 175.009C42.7725 170.988 48.0438 162.079 48.0438 162.079Z" fill="white"/>
<path d="M77.5765 188.416C77.5765 188.416 81.2066 189.399 81.5795 189.963C81.9523 190.529 82.6833 192.255 82.652 192.706C82.6208 193.157 81.6294 191.815 81.2587 191.47C81.0192 191.247 80.1465 191.118 79.7196 191.049C78.6408 190.873 78.1201 190.378 77.716 190.132C77.4453 189.967 77.1162 189.998 77.1162 189.998L77.5765 188.418V188.416Z" fill="#FFB27D"/>
<path d="M81.2629 190.953C81.2629 190.953 81.4837 192.191 81.6524 192.414C81.8211 192.638 81.9794 192.686 81.9794 192.686L81.9544 191.617L81.265 190.953H81.2629Z" fill="#FFB27D"/>
<path d="M81.5815 189.963L83.0582 191.967C83.0582 191.967 82.902 192.061 82.6646 191.921C82.4271 191.781 81.9294 191.234 81.9294 191.234L81.5836 189.963H81.5815Z" fill="#FFB27D"/>
<path d="M77.7161 190.132C77.7161 190.132 78.0535 190.951 78.7241 191.245C79.3968 191.539 79.8883 191.98 79.9966 191.821C80.1049 191.663 79.4884 190.827 79.4884 190.827L77.7161 190.132Z" fill="#FFB27D"/>
<path d="M66.3446 181.595L78.1307 188.535C78.1307 188.535 77.7891 189.971 77.4413 190.101C75.5981 190.777 64.7722 189.46 61.9355 185.188L66.3446 181.597V181.595Z" fill="white"/>
<path d="M181.245 141.795C180.789 140.914 191.18 137.744 191.344 146.432C191.344 146.432 210.807 145.952 201.514 135.076C198.296 131.311 198.627 128.198 198.725 125.3C198.823 122.402 196.722 113.979 189.518 114.827C189.518 114.827 187.631 114.057 185.277 115.282C179.923 118.068 167.928 144.998 181.247 141.793L181.245 141.795Z" fill="#163560"/>
<path d="M213.065 151.508C213.065 151.508 214.331 149.574 215.354 149.537C216.374 149.499 218.265 148.969 218.116 149.347C217.963 149.727 216.791 149.764 216.678 149.992C216.566 150.219 218.417 150.56 218.946 150.599C219.476 150.637 220.723 150.599 220.686 150.865C220.648 151.13 218.436 152.23 216.876 152.078C215.316 151.925 213.388 152.533 213.388 152.533L213.067 151.51L213.065 151.508Z" fill="#FFB27D"/>
<path d="M194.741 152.134C194.741 152.134 195.431 153.502 196.678 155.072C198.184 156.961 200.504 159.145 203.42 159.578C204.811 159.784 206.173 159.484 207.425 158.926C207.429 158.926 207.429 158.926 207.429 158.926C210.97 157.352 213.629 153.729 213.629 153.729C214.254 152.023 213.232 150.867 213.232 150.867C213.232 150.867 206.084 152.479 205.403 152.136C204.722 151.796 200.752 140.327 199.806 138.886C198.861 137.446 195.639 136.696 195.639 136.696L194.739 152.136L194.741 152.134Z" fill="#F9DDBF"/>
<path d="M196.68 155.072C198.186 156.961 200.506 159.145 203.422 159.577C204.813 159.784 206.175 159.484 207.427 158.926C207.289 158.945 203.753 159.381 202.345 156.855C200.908 154.276 199.354 150.182 197.217 151.547C196.297 152.136 196.336 153.6 196.68 155.074V155.072Z" fill="#EAC3A2"/>
<path d="M168.076 229.481C168.076 229.481 165.896 231.477 166.321 232.895C166.745 234.312 168.714 235.258 168.98 236.991C169.247 238.724 170.311 239.67 171.267 239.67H175.832C175.832 239.67 176.536 238.451 174.835 238.083C173.133 237.716 172.492 235.68 172.598 233.788C172.704 231.899 172.437 229.379 172.437 229.379L168.82 228.539L168.074 229.485L168.076 229.481Z" fill="#233862"/>
<path d="M186.535 230.327C186.535 230.327 185.75 238.781 186.708 239.253L198.963 239.227C198.963 239.227 198.963 237.81 196.995 237.494C195.026 237.179 191.569 236.025 190.984 233.45C190.399 230.878 186.537 230.327 186.537 230.327H186.535Z" fill="#233862"/>
<path d="M177.805 169.683C180.327 164.014 181.87 162.386 181.574 160.628C181.356 159.319 182.243 136.21 182.243 136.21C182.543 136.116 183.143 136.034 183.47 135.961C184.505 135.731 185.361 135.003 185.717 134.003C186.146 132.798 186.487 131.019 186.479 128.789L186.802 128.854L192.234 129.931C192.234 129.931 192.111 131.645 192.107 133.259C192.107 133.272 192.107 133.286 192.107 133.299C192.1 134.7 193.017 135.938 194.36 136.326C195.045 136.525 195.643 136.694 195.643 136.694C195.643 136.694 197.638 142.402 198.017 148.265C198.398 154.13 194.391 156.677 198.046 168.395C201.781 180.363 176.409 172.815 177.802 169.683H177.805Z" fill="#FFB27D"/>
<path d="M192.232 129.929C192.232 129.929 192.109 131.643 192.104 133.257C189.066 133.172 187.458 130.393 186.8 128.852L192.232 129.929Z" fill="#E8945B"/>
<path d="M193.246 131.46C193.246 131.46 186.054 131.579 186.05 127.088C186.046 122.596 185.113 119.588 189.705 119.323C194.295 119.057 195.189 120.769 195.555 122.269C195.92 123.768 195.116 131.313 193.246 131.46Z" fill="#FFB27D"/>
<path d="M192.981 119.212C192.981 119.212 191.013 124.48 187.991 125.258C184.969 126.037 183.659 125.225 183.659 125.225C183.659 125.225 185.977 123.379 186.458 120.158C186.458 120.158 191.496 116.704 192.981 119.212Z" fill="#163560"/>
<path d="M192.492 119.64C192.492 119.64 193.952 120.187 194.551 121.254C195.139 122.298 195.641 123.68 195.524 125.375C195.524 125.375 197.007 121.795 195.341 119.769C193.573 117.621 192.492 119.638 192.492 119.638V119.64Z" fill="#163560"/>
<path d="M177.109 146.432C177.109 146.432 176.926 149.013 177.109 152.109C177.23 154.162 179.302 156.911 179.596 157.592C180.333 159.298 181.164 159.576 181.164 159.576L187.597 161.156L189.859 161.711L196.992 159.576C196.992 159.576 200.241 150.483 198.938 145.365C197.634 140.248 195.639 136.692 195.639 136.692C195.639 136.692 189.817 142.407 182.239 136.208L177.107 146.43L177.109 146.432Z" fill="#F9DDBF"/>
<path d="M178.992 152.948C179.112 155.001 179.302 156.913 179.596 157.594C180.333 159.3 181.164 159.578 181.164 159.578L187.597 161.158L190.392 160.335C190.392 160.335 181.064 158.918 182.097 150.873L178.992 152.951V152.948Z" fill="#F2CCAA"/>
<path d="M196.543 160.958C196.543 160.958 200.075 171.982 200.302 175.736C200.529 179.49 193.548 229.055 193.269 230.784C193.004 232.414 190.984 233.454 190.984 233.454C190.984 233.454 190.055 234.003 188.73 233.627C186.891 233.108 186.31 232.483 186.31 232.483C186.31 232.483 183.561 197.133 185.263 184.505C186.964 171.877 186.985 160.958 186.985 160.958H196.545H196.543Z" fill="#ED7D2B"/>
<path d="M181.574 160.628C181.574 160.628 176.186 167.877 175.682 172.777C175.18 177.678 174.895 194.89 173.824 199.665C172.754 204.443 168.822 213.636 168.822 228.535C168.822 228.535 169.23 229.389 170.492 229.844C170.896 229.99 171.436 230.13 171.962 230.251C173.004 230.492 174.072 229.98 174.547 229.022C177.207 223.656 185.675 206.347 186.108 202.754C186.416 200.21 189.089 183.384 194.922 173.51C196.322 171.14 194.062 161.713 194.062 161.713L181.574 160.63V160.628Z" fill="#F99746"/>
<path d="M197.105 159.254C197.105 159.254 195.687 160.379 192.869 160.436C189.503 160.505 181.164 159.575 181.164 159.575C181.164 159.575 180.793 160.613 180.808 161.709C180.808 161.709 190.992 164.286 196.895 162.085C196.895 162.085 197.655 160.649 197.105 159.254Z" fill="#233862"/>
<path d="M192.142 161.601C192.142 160.64 192.831 159.857 193.677 159.857C194.523 159.857 195.212 160.638 195.212 161.601C195.212 162.563 194.523 163.342 193.677 163.342C192.831 163.342 192.142 162.561 192.142 161.601ZM192.65 161.601C192.65 162.279 193.111 162.832 193.677 162.832C194.244 162.832 194.704 162.279 194.704 161.601C194.704 160.922 194.244 160.369 193.677 160.369C193.111 160.369 192.65 160.922 192.65 161.601Z" fill="white"/>
<path d="M170.208 161.248L180.642 170.356L193.08 156.037L182.647 146.929L170.208 161.248Z" fill="#B5453C"/>
<path d="M183.52 161.283C183.52 161.283 187.344 161.732 187.331 162.64C187.319 163.551 186.379 165.419 185.906 165.503C185.434 165.587 182.795 162.975 182.795 162.975L183.52 161.281V161.283Z" fill="#FFB27D"/>
<path d="M182.241 136.209C182.241 136.209 177.136 136.569 175.18 141.337C173.225 146.106 169.511 154.111 169.511 155.458C169.511 156.805 171.586 160.958 182.722 163.344C182.722 163.344 183.874 162.129 183.805 161.168C183.805 161.168 176.853 155.182 176.872 154.483C176.907 153.159 178.011 151.412 184.115 145.292C185.775 143.628 182.243 136.209 182.243 136.209H182.241Z" fill="#F9DDBF"/>
<path d="M220.144 65.5334H215.689V240.486H220.144V65.5334Z" fill="#F99746"/>
<path d="M222.778 239.24H213.054C213.054 237.576 214.4 236.225 216.062 236.225H219.771C221.431 236.225 222.778 237.574 222.778 239.24Z" fill="#F99746"/>
<path d="M532.737 65.5334H528.282V240.486H532.737V65.5334Z" fill="#F99746"/>
<path d="M535.372 239.24H525.647C525.647 237.576 526.993 236.225 528.655 236.225H532.364C534.024 236.225 535.372 237.574 535.372 239.24Z" fill="#F99746"/>
<path d="M525.647 70.5193H535.372C535.372 72.1854 534.026 73.5342 532.364 73.5342H528.655C526.995 73.5342 525.647 72.1854 525.647 70.5193Z" fill="#F99746"/>
<path d="M410.428 65.5334H405.973V240.486H410.428V65.5334Z" fill="#F99746"/>
<path d="M413.061 239.24H403.336C403.336 237.576 404.682 236.225 406.344 236.225H410.053C411.713 236.225 413.061 237.574 413.061 239.24Z" fill="#F99746"/>
<path d="M403.338 70.5193H413.063C413.063 72.1854 411.717 73.5342 410.055 73.5342H406.346C404.686 73.5342 403.338 72.1854 403.338 70.5193Z" fill="#F99746"/>
<path d="M213.054 70.5195H222.778C222.778 72.1857 221.433 73.5345 219.771 73.5345H216.062C214.402 73.5345 213.054 72.1857 213.054 70.5195Z" fill="#F99746"/>
<path d="M102.711 65.5334H98.2556V240.486H102.711V65.5334Z" fill="#F99746"/>
<path d="M105.345 239.24H95.6211C95.6211 237.576 96.9665 236.225 98.6285 236.225H102.338C103.998 236.225 105.345 237.574 105.345 239.24Z" fill="#F99746"/>
<path d="M95.6211 70.5193H105.345C105.345 72.1854 104 73.5342 102.338 73.5342H98.6285C96.9686 73.5342 95.6211 72.1854 95.6211 70.5193Z" fill="#F99746"/>
<path d="M62.9687 208.228H42.6436V238.843H62.9687V208.228Z" fill="#C4DAFC"/>
<path d="M69.1021 208.228H42.4352C36.6244 208.228 31.4656 204.522 29.5995 199.006L18.5486 166.361C17.953 164.599 18.8944 162.684 20.6522 162.087C22.41 161.49 24.3198 162.434 24.9155 164.196L35.9663 196.841C36.9077 199.62 39.5069 201.488 42.4352 201.488H69.1042C70.962 201.488 72.4657 202.998 72.4657 204.858C72.4657 206.718 70.9599 208.228 69.1042 208.228H69.1021Z" fill="#F99746"/>
<path d="M28.6748 188.347H58.2159C60.838 188.347 62.9686 190.481 62.9686 193.112V193.216H28.6748V188.349V188.347Z" fill="#F99746"/>
<path d="M43.1309 235.69H63.3998C65.1409 235.69 66.5571 237.108 66.5571 238.856V239.24H39.9756V238.856C39.9756 237.11 41.3897 235.69 43.133 235.69H43.1309Z" fill="#C4DAFC"/>
<path d="M330.577 159.458C330.577 159.458 335.288 160.799 336.448 162.369C337.61 163.939 337.91 181.647 338.666 182.405C340.297 184.04 341.438 187.259 342.686 190.122C342.686 190.122 342.99 190.65 341.684 190.65C340.378 190.65 335.938 186.313 335.536 184.465C335.132 182.618 330.577 159.458 330.577 159.458Z" fill="#F7AA74"/>
<path d="M321.965 150.334C321.965 150.334 323.021 152.167 322.684 153.036C322.344 153.905 324.415 155.422 325.25 154.971C326.085 154.52 321.965 150.334 321.965 150.334Z" fill="#D86C23"/>
<path d="M360.06 238.317C360.181 239.528 361.739 239.478 363.497 239.179C365.254 238.881 364.802 239.392 367.275 239.33C369.747 239.267 370.569 238.332 370.676 237.939C370.771 237.59 369.57 237.348 368.285 237.058C368.122 237.022 367.962 236.985 367.799 236.945C366.35 236.603 365.225 235.638 364.096 234.473C363.678 234.041 361.832 228.688 361.832 228.688L358.506 228.948C358.506 228.948 360.631 233.108 360.845 234.456C360.983 235.321 360.245 236.281 360.135 237.045C360.077 237.461 360.016 237.887 360.06 238.313V238.317Z" fill="#F7AA74"/>
<path d="M363.496 239.179C365.254 238.881 364.802 239.392 367.274 239.33C369.747 239.267 370.569 238.332 370.675 237.939C370.771 237.59 369.57 237.348 368.284 237.058L368.27 237.085C368.27 237.085 366.71 238.092 364.667 237.95C363.001 237.835 361.282 237.142 360.135 237.052C360.077 237.467 360.016 237.893 360.06 238.319C360.181 239.53 361.739 239.48 363.496 239.181V239.179Z" fill="#163560"/>
<path d="M363.38 232.926L360.545 233.433C360.545 233.433 356.663 227.698 353.348 222.248C351.075 218.513 349.07 214.914 348.759 213.387C347.999 209.631 348.082 206.259 346.552 206.213C345.779 206.19 340.558 206.99 335.184 207.08C329.913 207.17 324.496 206.572 323.003 203.841C319.987 198.331 324.706 189.447 324.706 189.447C324.706 189.447 347.62 192.907 351.825 195.663C351.833 195.669 351.844 195.676 351.854 195.682C353.31 196.682 355.137 201.442 356.903 207.241C360.248 218.219 363.382 232.924 363.382 232.924L363.38 232.926Z" fill="#F7AA74"/>
<path d="M356.901 207.24L353.345 222.246C351.073 218.511 349.067 214.912 348.757 213.385C347.997 209.629 348.08 206.257 346.549 206.211C345.777 206.188 340.555 206.988 335.182 207.078C333.951 204.708 333.426 202.488 334.099 200.695C336.034 195.542 345.31 195.072 351.852 195.682C353.308 196.682 355.134 201.442 356.901 207.24Z" fill="#E89258"/>
<path d="M346.675 238.317C346.797 239.528 348.353 239.478 350.111 239.179C351.869 238.881 351.417 239.392 353.889 239.33C356.361 239.267 357.184 238.332 357.29 237.939C357.386 237.59 356.184 237.348 354.899 237.058C354.737 237.022 354.576 236.985 354.414 236.945C352.964 236.603 351.84 235.638 350.711 234.473C350.292 234.041 350.25 229.7 350.25 229.7L347.076 229.558C347.076 229.558 347.391 231.915 347.462 234.456C347.487 235.333 346.862 236.281 346.752 237.045C346.693 237.461 346.633 237.887 346.677 238.313L346.675 238.317Z" fill="#F7AA74"/>
<path d="M350.111 239.179C351.869 238.881 351.417 239.392 353.889 239.33C356.361 239.267 357.184 238.332 357.29 237.939C357.386 237.59 356.184 237.348 354.899 237.058L354.885 237.085C354.885 237.085 353.325 238.092 351.282 237.95C349.615 237.835 347.897 237.142 346.75 237.052C346.691 237.467 346.631 237.893 346.675 238.319C346.798 239.53 348.353 239.48 350.111 239.181V239.179Z" fill="#163560"/>
<path d="M323.892 195.22C323.892 195.22 345.908 193.646 350.113 196.402C354.318 199.158 350.482 233.694 350.482 233.694L347.46 234.459C347.46 234.459 344.067 219.781 343.184 216.058C341.641 209.548 344.127 206.257 342.595 206.211C341.064 206.165 322.061 209.351 319.048 203.839C316.032 198.327 319.358 192.721 319.358 192.721L323.894 195.218L323.892 195.22Z" fill="#F7AA74"/>
<path d="M326.932 162.285C328.73 162.703 331.058 161.411 331.035 161.4C330.723 161.271 330.598 160.018 330.556 158.696C330.554 158.613 330.55 158.529 330.55 158.446C330.513 156.949 330.573 155.445 330.573 155.445L325.139 154.581L324.816 154.529C324.821 154.65 324.825 154.769 324.829 154.884C324.92 158.709 324.054 159.615 323.721 160.233C323.263 161.083 325.243 161.891 326.934 162.283L326.932 162.285Z" fill="#F7AA74"/>
<path d="M324.827 154.886C325.816 156.481 327.497 158.281 330.546 158.287C330.509 156.79 330.571 155.448 330.571 155.448L325.137 154.583L324.814 154.531C324.819 154.652 324.823 154.771 324.827 154.886Z" fill="#E89258"/>
<path d="M324.246 153.869C324.246 153.869 322.461 151.57 321.884 149.512C321.474 148.042 321.692 142.423 327.328 142.676C327.328 142.676 328.959 142.676 330.575 143.555C331.862 144.254 333.774 145.847 332.299 150.875L331.954 152.56L324.246 153.867V153.869Z" fill="#D86C23"/>
<path d="M331.354 156.31C331.354 156.31 324.381 157.11 323.952 152.75C323.523 148.391 322.332 145.555 326.766 144.86C331.2 144.165 332.231 145.743 332.726 147.163C333.222 148.583 333.158 155.988 331.354 156.31Z" fill="#F7AA74"/>
<path d="M336.775 175.406C335.326 184.232 335.126 188.842 335.217 191.241C335.295 193.266 335.58 193.713 335.497 193.786C334.274 194.849 332.856 194.362 328.93 194.859C327.909 194.989 326.878 195.235 325.881 195.669C325.358 195.897 324.814 195.966 324.271 195.916C321.534 195.678 318.82 192.533 318.82 192.427C318.82 192.42 318.822 192.414 318.824 192.408C318.843 192.345 318.862 192.283 318.879 192.22C318.887 192.195 318.895 192.17 318.902 192.145C319.204 191.191 319.895 189.491 320.38 187.65C320.822 185.975 321.093 184.186 320.747 182.735C320.643 182.302 320.199 179.811 319.862 176.884C319.422 173.076 319.168 168.524 320.082 166.785C322.313 162.549 324.052 159.106 324.262 159.229C330.144 162.728 330.577 159.461 330.577 159.461C330.577 159.461 338.179 166.862 336.775 175.408V175.406Z" fill="#1C468A"/>
<path d="M326.489 147.196C326.489 147.196 332.477 145.173 332.724 147.165C332.724 147.165 334.012 143.446 331.402 142.356C328.792 141.266 324.137 141.266 321.528 144.144L326.487 147.196H326.489Z" fill="#D86C23"/>
<path d="M326.489 147.196C326.489 147.196 326.035 150.508 323.479 150.531C320.922 150.553 321.532 144.144 321.532 144.144L326.491 147.196H326.489Z" fill="#D86C23"/>
<path d="M354.893 201.252C354.893 201.252 353.089 201.432 351.785 201.52C350.479 201.607 342.688 207.088 342.688 207.088C342.688 207.088 339.17 207.126 331.391 207.075C322.586 207.019 320.63 207.096 320.63 207.096C317.237 204.324 317.227 199.956 317.477 197.484C317.537 196.891 318.17 194.634 318.82 192.429C318.82 192.422 318.822 192.416 318.824 192.41C318.843 192.347 318.862 192.285 318.879 192.222C318.887 192.197 318.895 192.172 318.901 192.147C319.591 189.813 320.27 187.618 320.27 187.618C320.27 187.618 320.307 187.631 320.382 187.652C320.932 187.81 323.458 188.539 326.445 189.311C329.409 190.082 332.826 190.896 335.217 191.245C338.444 191.717 343.769 192.865 347.601 193.819C349.85 194.379 351.585 194.872 352.081 195.12C353.42 195.79 354.893 201.256 354.893 201.256V201.252Z" fill="#1C468A"/>
<path d="M342.688 207.086C342.688 207.086 339.17 207.124 331.391 207.074C322.586 207.017 320.63 207.094 320.63 207.094C317.237 204.322 317.227 199.954 317.477 197.482C317.537 196.889 318.17 194.632 318.82 192.427C318.82 192.421 318.822 192.414 318.824 192.408C318.843 192.345 318.862 192.283 318.879 192.22C318.887 192.195 318.895 192.17 318.901 192.145C319.591 189.811 320.27 187.616 320.27 187.616C320.27 187.616 320.307 187.629 320.382 187.65C320.824 185.975 321.095 184.186 320.749 182.735C320.645 182.302 320.201 179.812 319.864 176.884L321.699 176.717C321.699 176.717 326.62 184.917 326.445 189.276C326.445 189.289 326.445 189.299 326.445 189.312C326.355 191.22 325.287 193.632 324.271 195.92C322.967 198.864 321.755 201.605 322.848 202.816C324.796 204.973 338.489 203.192 342.69 207.09L342.688 207.086Z" fill="#163560"/>
<path d="M324.263 159.227C324.263 159.227 318.939 160.358 317.475 162.526C314.728 166.591 314.378 183.879 315.467 185.796C316.557 187.712 321.509 190.7 330.186 193.776C330.186 193.776 330.984 193.089 330.761 191.623C330.761 191.623 320.907 183.146 320.749 182.733C320.589 182.319 322.551 172.85 322.315 171.919C322.08 170.988 324.265 159.227 324.265 159.227H324.263Z" fill="#F7AA74"/>
<path d="M321.751 159.945C321.751 159.945 317.819 161.01 317.05 163.294C316.284 165.578 314.893 172.353 314.893 172.353C314.893 172.353 315.561 176.421 322.846 176.809L324.815 163.632L321.751 159.943V159.945Z" fill="#1C468A"/>
<path d="M324.446 142.669C324.446 142.669 323.157 140.751 319.401 142.669C315.646 144.588 313.876 152.942 314.007 155.306C314.224 159.227 314.911 161.818 318.77 161.333C322.63 160.849 321.62 170.957 321.997 173.575C322.374 176.195 325.664 177.584 325.664 177.584C325.664 177.584 325.725 175.842 327.695 174.882C329.665 173.923 331.015 169.518 329.796 167.165C328.578 164.81 326.926 159.227 324.265 159.227C322.359 159.227 321.495 152.165 323.098 148.067C324.294 145.014 324.446 142.669 324.446 142.669Z" fill="#D86C23"/>
<path d="M330.577 159.458C330.577 159.458 335.536 161.037 336.448 162.369C337.363 163.699 339.123 172.203 339.123 172.203C339.123 172.203 337.427 174.166 335.143 174.362C332.86 174.558 330.575 159.461 330.575 159.461L330.577 159.458Z" fill="#1C468A"/>
<path d="M336.32 188.226L342.062 187.616C342.062 187.616 343.815 192.324 343.657 193.13C343.497 193.938 342.976 194.504 341.801 194.809C340.627 195.114 335.116 196.06 335.116 196.06L336.322 188.224L336.32 188.226Z" fill="#739AF0"/>
<path d="M332.883 188.05C332.883 188.05 330.302 193.667 330.577 194.884C330.767 195.717 333.32 196.17 335.113 196.062C335.907 196.014 336.519 195.343 336.498 194.546L336.321 188.226L332.885 188.05H332.883Z" fill="#4A75CB"/>
<path d="M332.883 188.05C332.883 188.05 337.592 186.612 342.059 187.614L336.317 188.224L332.881 188.048L332.883 188.05Z" fill="#4A75CB"/>
<path d="M334.92 188.28C334.913 188.251 334.768 187.547 334.78 186.787C334.803 185.403 335.342 184.962 335.79 184.835C336.311 184.687 336.834 184.768 337.298 185.069C338.052 185.555 338.598 186.572 338.793 187.858L338.277 187.938C338.106 186.816 337.635 185.908 337.015 185.507C336.673 185.288 336.309 185.23 335.93 185.336C335.084 185.576 335.29 187.51 335.43 188.169L334.92 188.278V188.28Z" fill="#4A75CB"/>
<path d="M337.336 188.28C337.329 188.251 337.184 187.547 337.196 186.787C337.219 185.403 337.758 184.962 338.206 184.835C338.727 184.687 339.25 184.768 339.714 185.069C340.468 185.555 341.014 186.572 341.209 187.858L340.693 187.938C340.522 186.816 340.051 185.908 339.431 185.507C339.089 185.288 338.725 185.23 338.346 185.336C337.5 185.576 337.706 187.51 337.846 188.169L337.336 188.278V188.28Z" fill="#739AF0"/>
<path d="M330.011 190.976C330.011 190.976 331.556 192.011 332.468 192.063C333.383 192.116 334.491 191.986 335.241 192.934C335.99 193.882 336.544 194.634 336.496 195.06C336.449 195.485 334.882 195.354 334.066 195.06C333.249 194.765 332.187 195.03 331.423 194.471C330.659 193.911 330.184 193.773 330.184 193.773L330.009 190.976H330.011Z" fill="#F7AA74"/>
<path d="M342.953 190.176C342.953 190.176 341.42 192.251 341.93 192.838C342.44 193.425 343.44 193.734 343.921 193.285C344.402 192.838 344.794 191.391 344.519 190.94C344.244 190.487 342.953 190.176 342.953 190.176Z" fill="#F7AA74"/>
<path d="M335.742 213.799H315.417V240.121H335.742V213.799Z" fill="#C4DAFC"/>
<path d="M341.876 213.799H315.207C309.396 213.799 304.237 210.093 302.371 204.576L291.32 171.932C290.722 170.169 291.666 168.255 293.424 167.658C295.182 167.061 297.091 168.004 297.687 169.767L308.738 202.411C309.679 205.19 312.278 207.059 315.207 207.059H341.876C343.731 207.059 345.237 208.568 345.237 210.429C345.237 212.289 343.731 213.799 341.876 213.799Z" fill="#F99746"/>
<path d="M335.742 195.506H299.94V190.639H330.887C333.57 190.639 335.742 192.819 335.742 195.506Z" fill="#F99746"/>
<path d="M342.761 239.24H309.319C309.319 237.279 310.904 235.69 312.859 235.69H339.22C341.176 235.69 342.761 237.279 342.761 239.24Z" fill="#C4DAFC"/>
<path d="M144.104 73.5344H172.554C174.004 73.5344 175.18 74.7141 175.18 76.1673V79.2261C175.18 80.6793 174.004 81.859 172.554 81.859H144.104C142.655 81.859 141.478 80.6793 141.478 79.2261V76.1673C141.478 74.7141 142.655 73.5344 144.104 73.5344Z" fill="#CFE3FF"/>
<path d="M456.36 73.5344H484.81C486.259 73.5344 487.436 74.7141 487.436 76.1673V79.2261C487.436 80.6793 486.259 81.859 484.81 81.859H456.36C454.911 81.859 453.734 80.6793 453.734 79.2261V76.1673C453.734 74.7141 454.911 73.5344 456.36 73.5344Z" fill="#CFE3FF"/>
<path d="M627.269 239.24H0.731029C0.327293 239.24 0 239.568 0 239.973V240.269C0 240.674 0.327293 241.002 0.731029 241.002H627.269C627.673 241.002 628 240.674 628 240.269V239.973C628 239.568 627.673 239.24 627.269 239.24Z" fill="#2E3552"/>
</g>
<defs>
<clipPath id="clip0_302_4266">
<rect width="628" height="241" fill="white"/>
</clipPath>
</defs>
</svg>
