<svg width="475" height="386" viewBox="0 0 475 386" fill="none" xmlns="http://www.w3.org/2000/svg">
<path fill-rule="evenodd" clip-rule="evenodd" d="M247.141 37.5614C286.916 25.6346 329.751 15.9168 368.476 30.9085C413.096 48.1828 470.588 76.9358 472.427 124.778C474.398 176.005 397.679 193.408 376.521 240.097C359.409 277.858 394.425 331.33 365.411 360.929C336.986 389.927 287.662 369.699 247.141 372.084C203.183 374.671 155.636 398.858 118.314 375.471C80.7552 351.934 79.5956 299.101 64.2717 257.49C48.1544 213.724 1.72894 165.782 26.5563 126.306C53.3143 83.7612 122.584 109.418 169.193 90.6662C199.088 78.6387 216.276 46.8168 247.141 37.5614Z" fill="white" fill-opacity="0.25"/>
<path fill-rule="evenodd" clip-rule="evenodd" d="M231.625 32.1002C271.399 20.1989 314.234 10.5019 352.959 25.4615C397.58 42.6988 455.071 71.3903 456.911 119.13C458.881 170.248 382.162 187.614 361.004 234.202C343.892 271.882 378.908 325.24 349.894 354.775C321.469 383.711 272.146 363.527 231.625 365.906C187.666 368.488 140.119 392.623 102.798 369.286C65.2386 345.8 64.079 293.08 48.7551 251.558C32.6378 207.886 -13.7877 160.046 11.0397 120.655C37.7977 78.2011 107.067 103.803 153.676 85.0913C183.572 73.0895 200.759 41.3357 231.625 32.1002Z" stroke="white" stroke-width="2"/>
<path d="M247.731 50.9937H181.487V149.057H247.731V50.9937Z" fill="#3EC1F3"/>
<path d="M162.08 50.9937H181.487V149.057H137.978V75.1128C137.978 61.7932 148.769 50.9937 162.08 50.9937Z" fill="#3EC1F3"/>
<path d="M158.556 129.837C163.866 129.837 168.172 125.129 168.172 119.32C168.172 113.512 163.866 108.803 158.556 108.803C153.245 108.803 148.939 113.512 148.939 119.32C148.939 125.129 153.245 129.837 158.556 129.837Z" fill="#F4E6D8"/>
<path d="M172.08 119.547H145.032C145.032 125.045 148.354 130 153.443 132.075V135.498H163.67V132.075C168.758 130 172.08 125.045 172.08 119.547Z" fill="#4756DF"/>
<path d="M137.478 93.2759L180.662 75.7332" stroke="#4756DF" stroke-width="4" stroke-miterlimit="10" stroke-linecap="round"/>
<path d="M180.704 50.9937V149.057" stroke="#4756DF" stroke-width="4" stroke-miterlimit="10"/>
<path d="M424.12 308.311V270.658L401.386 247.515H337.494L314.76 270.658V305.568H235.189V291.051C209.71 288.304 217.548 269.477 203.438 269.477H178.352C176.522 269.469 174.731 269.991 173.192 270.975L137.776 249.072H101.326L55.6611 277.312H55.7595V312.868L25.0898 331.835V364.392H446.854V331.446L424.12 308.311Z" fill="#F5EBDD"/>
<path d="M462.144 364.401H437.447C437.447 357.58 442.976 350.675 449.795 350.675C456.615 350.675 462.144 357.58 462.144 364.401Z" fill="#FFB7D5"/>
<path d="M474.999 364.401H456.652C456.652 359.335 460.761 354.205 465.824 354.205C470.886 354.205 474.999 359.335 474.999 364.401Z" fill="#FFB7D5"/>
<path d="M114.589 199.67C126.561 195.961 141.953 190.629 188.794 228.962C235.634 267.295 253.357 242.226 248.564 236.433C244.716 231.769 223.226 244.353 239.221 261.318C254.421 277.449 298.97 262.02 311.186 252.144C328.571 238.093 353.46 227.041 375.398 226.245" stroke="#FFB7D5" stroke-width="4" stroke-linecap="round" stroke-linejoin="round"/>
<path d="M146.995 277.32L101.326 249.081" stroke="#FFB7D5" stroke-width="4" stroke-linecap="round" stroke-linejoin="round"/>
<path d="M56.1865 277.32H147.092V363.973" stroke="#FFB7D5" stroke-width="4" stroke-linecap="round" stroke-linejoin="round"/>
<path d="M54.584 364.135L55.0116 313.296" stroke="#FFB7D5" stroke-width="4" stroke-linecap="round" stroke-linejoin="round"/>
<path d="M25.5176 331.844H54.4855" stroke="#FFB7D5" stroke-width="4" stroke-linecap="round" stroke-linejoin="round"/>
<path d="M55.0752 325.764H146.404" stroke="#FFB7D5" stroke-width="4" stroke-linecap="round" stroke-linejoin="round"/>
<path d="M313.777 338.711H378.456" stroke="#FFB7D5" stroke-width="4" stroke-linecap="round" stroke-linejoin="round"/>
<path d="M146.994 277.32H168.304" stroke="#FFB7D5" stroke-width="4" stroke-linecap="round" stroke-linejoin="round"/>
<path d="M315.188 270.654H378.652V363.973" stroke="#FFB7D5" stroke-width="4" stroke-linecap="round" stroke-linejoin="round"/>
<path d="M378.652 363.545V270.654H423.265" stroke="#FFB7D5" stroke-width="4" stroke-linecap="round" stroke-linejoin="round"/>
<path d="M210.493 291.834H234.762" stroke="#FFB7D5" stroke-width="4" stroke-linecap="round" stroke-linejoin="round"/>
<path d="M401.386 363.973V331.455H446.182" stroke="#FFB7D5" stroke-width="4" stroke-linecap="round" stroke-linejoin="round"/>
<path d="M401.138 247.763L378.652 270.654" stroke="#FFB7D5" stroke-width="4" stroke-linecap="round" stroke-linejoin="round"/>
<path d="M378.652 308.311L401.386 331.455" stroke="#FFB7D5" stroke-width="4" stroke-linecap="round" stroke-linejoin="round"/>
<path d="M423.461 307.331H378.849" stroke="#FFB7D5" stroke-width="4" stroke-linecap="round" stroke-linejoin="round"/>
<path d="M178.831 270.261C164.722 270.261 172.559 289.087 147.08 291.834H210.591C185.1 289.091 192.941 270.261 178.831 270.261Z" stroke="#FFB7D5" stroke-width="4" stroke-linecap="round" stroke-linejoin="round"/>
<path d="M147.08 363.545V291.838H210.579V363.973" stroke="#FFB7D5" stroke-width="4" stroke-linecap="round" stroke-linejoin="round"/>
<path d="M210.493 363.545V312.624H313.781V363.973" stroke="#FFB7D5" stroke-width="4" stroke-linecap="round" stroke-linejoin="round"/>
<path d="M210.677 311.666L234.535 304.777" stroke="#FFB7D5" stroke-width="4" stroke-linecap="round" stroke-linejoin="round"/>
<path d="M313.781 305.992V312.624H210.493" stroke="#FFB7D5" stroke-width="4" stroke-linecap="round" stroke-linejoin="round"/>
<path d="M231.012 324.395H231.115C234.98 324.395 238.11 327.527 238.11 331.395V364.405H224V331.395C224 327.527 227.13 324.395 230.995 324.395H231.012Z" fill="#FFB7D5"/>
<path d="M294.121 324.395H294.241C298.106 324.395 301.236 327.527 301.236 331.395V364.405H287.126V331.395C287.126 327.527 290.256 324.395 294.121 324.395Z" fill="#FFB7D5"/>
<path d="M262.566 324.395H262.686C266.551 324.395 269.681 327.527 269.681 331.395V364.405H255.571V331.395C255.571 327.527 258.701 324.395 262.566 324.395Z" fill="#FFB7D5"/>
<path d="M424.847 340.474H424.966C428.832 340.474 431.961 343.606 431.961 347.474V364.401H417.852V347.474C417.852 343.606 420.981 340.474 424.847 340.474Z" fill="#FFB7D5"/>
<path d="M74.5176 340.474H74.6245C78.4898 340.474 81.6196 343.606 81.6196 347.474V364.401H67.5098V347.474C67.5098 343.606 70.6396 340.474 74.5048 340.474H74.5176Z" fill="#FFB7D5"/>
<path d="M128.216 340.474H128.336C132.201 340.47 135.335 343.598 135.339 347.466V364.401H121.229V347.474C121.229 343.61 124.355 340.478 128.216 340.474Z" fill="#FFB7D5"/>
<path d="M101.364 340.474H101.484C105.349 340.474 108.479 343.606 108.479 347.474V364.401H94.3691V347.474C94.3691 343.606 97.499 340.474 101.364 340.474Z" fill="#FFB7D5"/>
<path d="M81.6274 289.874H67.5176V313.801H81.6274V289.874Z" fill="#FFB7D5"/>
<path d="M135.33 289.874H121.22V313.801H135.33V289.874Z" fill="#FFB7D5"/>
<path d="M108.479 289.874H94.3691V313.801H108.479V289.874Z" fill="#FFB7D5"/>
<path d="M173.534 303.994H161.81V321.644H173.534V303.994Z" fill="#FFB7D5"/>
<path d="M195.844 303.994H184.12V321.644H195.844V303.994Z" fill="#FFB7D5"/>
<path d="M173.534 334.985H161.81V352.634H173.534V334.985Z" fill="#FFB7D5"/>
<path d="M195.844 334.985H184.12V352.634H195.844V334.985Z" fill="#FFB7D5"/>
<path d="M340.91 280.461H329.187V298.111H340.91V280.461Z" fill="#FFB7D5"/>
<path d="M363.221 280.461H351.497V298.111H363.221V280.461Z" fill="#FFB7D5"/>
<path d="M408.299 280.461H396.575V298.111H408.299V280.461Z" fill="#FFB7D5"/>
<path d="M340.91 311.447H329.187V329.097H340.91V311.447Z" fill="#FFB7D5"/>
<path d="M363.221 311.447H351.497V329.097H363.221V311.447Z" fill="#FFB7D5"/>
<path d="M116.812 177.494C116.812 186.321 107.405 196.517 103.677 196.517C99.9482 196.517 90.5459 186.321 90.5459 177.494C90.6784 170.237 96.6644 164.457 103.916 164.589C110.984 164.718 116.683 170.421 116.812 177.494Z" fill="#FFB7D5"/>
<path d="M103.676 181.614C105.95 181.614 107.794 179.769 107.794 177.494C107.794 175.218 105.95 173.373 103.676 173.373C101.402 173.373 99.5586 175.218 99.5586 177.494C99.5586 179.769 101.402 181.614 103.676 181.614Z" fill="white"/>
<path d="M403.738 206.482C403.738 215.309 394.331 225.505 390.607 225.505C386.883 225.505 377.477 215.309 377.477 206.482C377.477 199.225 383.356 193.342 390.607 193.342C397.859 193.342 403.738 199.225 403.738 206.482Z" fill="#FFB7D5"/>
<path d="M390.607 210.602C392.881 210.602 394.724 208.758 394.724 206.482C394.724 204.206 392.881 202.362 390.607 202.362C388.333 202.362 386.489 204.206 386.489 206.482C386.489 208.758 388.333 210.602 390.607 210.602Z" fill="white"/>
<path d="M12.8574 364.401H37.5539C37.5539 357.58 32.0254 350.675 25.2057 350.675C18.3859 350.675 12.8574 357.58 12.8574 364.401Z" fill="#FFB7D5"/>
<path d="M0 364.401H18.347C18.347 359.335 14.2381 354.205 9.17566 354.205C4.11323 354.205 0 359.335 0 364.401H0Z" fill="#FFB7D5"/>
<path d="M223.757 121.515C193.326 140.132 182.744 191.99 176.296 210.911C169.323 231.371 153.964 230.905 136.143 236.861C118.322 242.817 118.985 255.803 118.985 255.803C114.82 258.644 110.84 261.746 107.068 265.092L129.631 293.947C134.954 290.272 142.856 285.664 153.695 279.113C176.082 265.58 196.123 252.872 209.057 238.752C221.991 224.632 255.983 162.719 255.983 162.719L223.757 121.515Z" fill="#4856DF"/>
<path d="M129.63 293.947L107.063 265.096C96.9726 274.081 90.9267 282.639 87.8867 287.619L119.702 328.293C124.183 320.163 120.621 308.722 120.985 303.729C121.229 300.721 123.957 297.867 129.63 293.947Z" fill="#30242A"/>
<path d="M85.416 292.103L116.697 332.096C117.903 331.005 118.912 329.722 119.69 328.297L87.8788 287.624C86.9766 289.07 86.1557 290.567 85.416 292.103Z" fill="#3EC1F3"/>
<path d="M118.061 295.659L124.119 299.035" stroke="white" stroke-width="4" stroke-linecap="round" stroke-linejoin="round"/>
<path d="M115.362 301.76L121.434 303.138" stroke="white" stroke-width="4" stroke-linecap="round" stroke-linejoin="round"/>
<path d="M126.198 267.3L115.389 275.754" stroke="#3EC1F3" stroke-width="4" stroke-miterlimit="10" stroke-linecap="round"/>
<path d="M120.725 260.295L109.916 268.75" stroke="#3EC1F3" stroke-width="4" stroke-miterlimit="10" stroke-linecap="round"/>
<path d="M131.67 274.304L120.861 282.759" stroke="#3EC1F3" stroke-width="4" stroke-miterlimit="10" stroke-linecap="round"/>
<path d="M137.144 281.308L126.335 289.763" stroke="#3EC1F3" stroke-width="4" stroke-miterlimit="10" stroke-linecap="round"/>
<path d="M118.006 256.175L141.723 286.537" stroke="#3EC1F3" stroke-width="4" stroke-miterlimit="10" stroke-linecap="round"/>
<path d="M233.175 202.161C228.022 194.031 222.981 185.046 219.15 175.774" stroke="#30242A" stroke-width="4" stroke-linecap="round" stroke-linejoin="round"/>
<path d="M241.654 7.45352C243.711 7.45352 245.378 5.78499 245.378 3.72676C245.378 1.66853 243.711 0 241.654 0C239.597 0 237.93 1.66853 237.93 3.72676C237.93 5.78499 239.597 7.45352 241.654 7.45352Z" fill="#4756DF"/>
<path d="M253.476 58.0536L253.22 53.7235C258.201 54.3482 261.891 53.608 264.529 52.2559L253.22 43.1465C253.22 43.1465 257.136 41.5805 254.785 33.3397L267.372 28.7615C266.71 27.05 266.269 22.9253 264.999 18.4926L257.504 21.7572C255.755 25.116 253.246 28.0213 250.176 30.2419C248.906 28.9284 247.49 27.7688 245.955 26.7847C245.75 26.6521 245.528 26.528 245.323 26.4039H245.301C245.092 26.2841 244.874 26.1686 244.664 26.0574H244.63C244.416 25.9504 244.202 25.8434 243.984 25.7493L243.942 25.6723C243.732 25.5739 243.514 25.4883 243.296 25.4027H243.236C243.018 25.3257 242.809 25.253 242.586 25.1845H242.514C242.3 25.1203 242.086 25.0647 241.864 25.0176H241.787C241.569 24.9706 241.359 24.9363 241.137 24.9107H241.051C240.837 24.8893 240.624 24.8764 240.406 24.8721C238.537 24.8465 236.686 25.6081 235.142 27.7688C234.219 29.0225 233.723 30.5329 233.714 32.0903C233.744 36.6899 238.02 41.0756 241.838 42.3592C238.819 48.7302 229.066 52.7052 225.325 54.0273C225.445 55.4863 225.56 56.8427 225.663 58.0536H253.476Z" fill="#EAA58B"/>
<path d="M329.558 84.3334C327.788 84.3334 326.933 82.8958 327.647 81.1244L333.633 66.3329L333.586 66.2901L333.688 66.1917C335.343 64.6342 336.882 62.9612 338.297 61.1856C341 57.7412 341.812 55.2382 340.863 54.2155C340.589 53.9417 340.23 53.7706 339.845 53.7363C339.452 53.6893 339.058 53.7107 338.674 53.8048C335.621 54.4723 330.392 58.6355 324.564 65.5028C317.513 73.7992 303.801 90.2166 303.801 90.2166C302.373 89.1256 300.299 87.2772 297.815 85.0479L278.087 110.429C282.316 113.724 286.826 116.629 291.572 119.119C294.035 111.49 302.21 107.306 309.83 109.77C313.661 111.007 316.803 113.784 318.509 117.429C330.396 108.542 339.785 92.6854 344.185 84.3334H329.558Z" fill="#EAA58B"/>
<path d="M264.197 63.5431H258.168C269.665 70.4746 264.582 83.5504 264.582 83.5504C264.582 83.5504 280.286 94.5338 269.682 107.871C270.461 107.053 271.119 106.125 271.641 105.124C271.641 105.124 274.172 107.451 278.054 110.429L297.782 85.0479C288.62 76.867 273.744 63.5431 264.197 63.5431Z" fill="#FFB7D5"/>
<path d="M203.832 84.7185C203.832 84.7185 192.287 94.3499 200.09 107.246L204.199 84.1409L203.832 84.7185Z" fill="#FF7235"/>
<path d="M225.646 58.0536V58.1948L226.142 58.0536H225.646Z" fill="#FF7235"/>
<path d="M241.803 42.3592C238.002 41.0756 233.726 36.7028 233.679 32.0903L223.884 36.3691C224.264 41.7688 224.816 48.5762 225.273 54.0273C229.049 52.7052 238.81 48.7302 241.803 42.3592Z" fill="#30242A"/>
<path d="M253.221 43.1465L264.53 52.2559C266.77 51.1777 268.545 49.3207 269.528 47.0359C271.196 42.8598 270.118 39.2657 268.818 34.6019C268.818 34.6019 272.132 32.3813 271.615 30.3232C271.187 28.6502 267.412 28.8813 267.412 28.8813L267.373 28.7743L254.786 33.3525C257.137 41.5805 253.221 43.1465 253.221 43.1465Z" fill="#EAA58B"/>
<path d="M250.176 30.2334C253.246 28.0127 255.756 25.1075 257.504 21.7487L245.96 26.7762C247.495 27.7603 248.91 28.9198 250.176 30.2334Z" fill="#30242A"/>
<path d="M243.986 25.7121L243.941 25.6723L243.986 25.7121Z" fill="#4756DF"/>
<path d="M235.134 27.726C236.677 25.5653 238.529 24.8037 240.397 24.8294H240.354C239.281 12.9559 241.928 6.49936 243.89 3.43581C242.009 3.71392 240.149 4.13324 238.332 4.69375C224.731 8.81415 223.17 22.2365 223.551 30.2205C223.624 31.8208 223.76 33.9516 223.927 36.3562L233.723 32.0775C233.718 30.5158 234.214 28.9883 235.134 27.726Z" fill="#4756DF"/>
<path d="M245.301 26.3825C245.092 26.2627 244.874 26.1472 244.664 26.036C244.882 26.1472 245.092 26.2627 245.301 26.3825Z" fill="#3EC1F3"/>
<path d="M245.956 26.7762C245.751 26.6435 245.528 26.5195 245.323 26.3954C245.537 26.528 245.751 26.6435 245.956 26.7762Z" fill="#3EC1F3"/>
<path d="M242.505 25.1631C242.292 25.0989 242.078 25.0433 241.855 24.9962C242.074 25.0433 242.292 25.0989 242.505 25.1631Z" fill="#3EC1F3"/>
<path d="M244.63 26.0189C244.416 25.9119 244.202 25.8049 243.984 25.7108C244.202 25.8049 244.416 25.9119 244.63 26.0189Z" fill="#3EC1F3"/>
<path d="M241.042 24.8679C240.828 24.8465 240.615 24.8336 240.396 24.8294C240.61 24.8165 240.828 24.8465 241.042 24.8679Z" fill="#3EC1F3"/>
<path d="M241.779 24.9834C241.561 24.9363 241.351 24.9021 241.129 24.8764C241.347 24.9021 241.561 24.9363 241.779 24.9834Z" fill="#3EC1F3"/>
<path d="M243.228 25.3984C243.01 25.3214 242.8 25.2487 242.578 25.1802C242.796 25.2444 243.01 25.3214 243.228 25.3984Z" fill="#3EC1F3"/>
<path d="M243.942 25.6723C243.732 25.5739 243.514 25.4883 243.296 25.4027C243.514 25.5054 243.723 25.591 243.942 25.6723Z" fill="#3EC1F3"/>
<path d="M240.354 24.8165H240.397C240.61 24.8165 240.824 24.8165 241.042 24.855H241.128C241.346 24.8807 241.555 24.9149 241.778 24.962H241.855C242.073 25.0091 242.282 25.0647 242.505 25.1289H242.577C242.795 25.1973 243.005 25.2701 243.227 25.3471H243.287C243.505 25.4327 243.715 25.5182 243.933 25.6166L243.984 25.638C244.202 25.7322 244.412 25.8391 244.63 25.9461H244.664C244.882 26.0574 245.091 26.1729 245.301 26.2927H245.322C245.536 26.4168 245.75 26.5409 245.955 26.6735L257.5 21.646L264.995 18.3813C262.707 10.3973 257.726 1.37775 243.886 3.34595C241.927 6.49509 239.281 12.9517 240.354 24.8165Z" fill="#3EC1F3"/>
<path d="M305.349 109.047C299.051 109.047 293.471 113.121 291.543 119.119C297.837 122.32 304.494 124.288 309.663 122.384C312.832 121.165 315.803 119.496 318.497 117.429C316.115 112.316 310.989 109.047 305.349 109.047Z" fill="#CA7358"/>
<path d="M266.175 133.171C280.285 123.95 270.451 108.251 269.681 107.871C280.263 94.5339 264.584 83.5504 264.584 83.5504C264.584 83.5504 269.664 70.4747 258.171 63.5431H253.801L253.476 58.0536H226.154L225.658 58.1948L226.12 63.5431H217.304L204.199 84.1451L200.09 107.25L200.299 107.597C200.158 107.858 200.017 108.119 199.872 108.38C197.221 113.6 196.831 118.041 197.511 121.644C198.927 129.179 204.99 133.149 204.99 133.149H266.175V133.171Z" fill="#FF7235"/>
<path d="M205.007 140.047H266.154V134.544V133.171H205.007V134.544V140.047Z" fill="#30242A"/>
<path d="M198.619 83.5504H264.585" stroke="#A15842" stroke-width="4" stroke-miterlimit="10" stroke-linecap="round"/>
<path d="M200.192 107.871H270.023" stroke="#A15842" stroke-width="4" stroke-miterlimit="10" stroke-linecap="round"/>
<path d="M254.785 66.2901L254.64 63.971" stroke="#A15842" stroke-width="4" stroke-miterlimit="10" stroke-linecap="round"/>
<path d="M247.337 65.1134L246.948 58.8365" stroke="#A15842" stroke-width="4" stroke-miterlimit="10" stroke-linecap="round"/>
<path d="M241.457 65.1134L241.068 58.8365" stroke="#A15842" stroke-width="4" stroke-miterlimit="10" stroke-linecap="round"/>
<path d="M235.578 65.1134L235.188 58.8365" stroke="#A15842" stroke-width="4" stroke-miterlimit="10" stroke-linecap="round"/>
<path d="M302.98 89.8872L298.294 95.7105" stroke="#A15842" stroke-width="4" stroke-linecap="round" stroke-linejoin="round"/>
<path d="M247.729 53.347C249.461 53.9545 251.257 54.3653 253.083 54.5749" stroke="#A15842" stroke-width="4" stroke-miterlimit="10" stroke-linecap="round"/>
<path d="M338.299 61.1856C338.32 62.3365 339.154 63.1495 340.467 63.1495H353.255C355.025 63.1495 357.043 61.7119 357.762 59.9362L361.661 50.2749C362.375 48.5035 361.52 47.0658 359.75 47.0658H346.957C345.187 47.0658 343.169 48.5035 342.455 50.2749L340.864 54.2156C341.813 55.2424 341.001 57.7626 338.299 61.1856Z" fill="#F5EBDD"/>
<path d="M364.631 40.7932H361.177L360.873 41.542C360.386 42.6802 359.304 43.446 358.073 43.5402H351.479C350.381 43.5402 349.846 42.6459 350.291 41.542L350.594 40.7932H347.14C345.365 40.7932 343.351 42.2309 342.633 44.0066L338.674 53.8091C339.059 53.715 339.452 53.6936 339.845 53.7406C340.23 53.7749 340.589 53.946 340.863 54.2198L342.453 50.2791C343.167 48.5078 345.186 47.0701 346.956 47.0701H359.749C361.519 47.0701 362.374 48.5078 361.66 50.2791L357.76 59.9405C357.042 61.7161 355.024 63.1538 353.254 63.1538H340.465C339.135 63.1538 338.327 62.3408 338.297 61.1899C336.878 62.9655 335.334 64.6385 333.675 66.1917L333.62 66.3329L327.634 81.1244C326.92 82.8958 327.775 84.3334 329.545 84.3334H347.041C348.811 84.3334 350.83 82.8958 351.544 81.1244L366.509 44.0066C367.261 42.2309 366.406 40.7932 364.631 40.7932ZM347.529 78.4459C347.294 78.9893 346.917 79.4557 346.438 79.798C345.964 80.1702 345.382 80.3799 344.779 80.4056H335.014C333.928 80.4056 333.406 79.5284 333.842 78.4459C334.325 77.3334 335.386 76.5761 336.596 76.4863H346.396C347.456 76.4863 347.978 77.3677 347.542 78.4502H347.529V78.4459Z" fill="#4756DF"/>
<path d="M346.375 76.4905H336.575C335.365 76.5804 334.304 77.3377 333.821 78.4502C333.394 79.5327 333.907 80.4098 334.993 80.4098H344.793C345.396 80.3842 345.977 80.1745 346.452 79.8023C346.931 79.46 347.307 78.9936 347.542 78.4502C347.978 77.3677 347.457 76.4905 346.375 76.4905Z" fill="#3EC1F3"/>
<path d="M351.48 43.5402H358.073C359.305 43.446 360.386 42.6802 360.874 41.542L361.177 40.7932H350.595L350.291 41.542C349.847 42.6459 350.381 43.5402 351.48 43.5402Z" fill="#3EC1F3"/>
<path d="M274.778 14.907L248.517 26.6735" stroke="#30242A" stroke-width="4" stroke-linecap="round" stroke-linejoin="round"/>
<path d="M266.343 39.4497C265.556 39.6594 262.982 39.2272 262.559 37.0151" stroke="black" stroke-width="4" stroke-miterlimit="10" stroke-linecap="round"/>
<path d="M262.293 28.2609C262.992 28.2609 263.559 27.6939 263.559 26.9944C263.559 26.2949 262.992 25.7279 262.293 25.7279C261.594 25.7279 261.027 26.2949 261.027 26.9944C261.027 27.6939 261.594 28.2609 262.293 28.2609Z" fill="#30242A"/>
<path d="M240.568 32.7407L245.165 35.6673" stroke="#A15842" stroke-width="4" stroke-miterlimit="10" stroke-linecap="round"/>
<path d="M293.968 134.544C297.213 134.544 299.847 137.18 299.847 140.427C299.855 143.679 297.23 146.323 293.981 146.332H293.968" stroke="#FF7235" stroke-width="4" stroke-miterlimit="10"/>
<path d="M302.215 134.544C305.456 134.553 308.077 137.184 308.077 140.427C308.085 143.679 305.464 146.319 302.215 146.332" stroke="#FF7235" stroke-width="4" stroke-miterlimit="10"/>
<path d="M344.591 135.327H279.831C277.04 135.327 274.777 137.591 274.777 140.385V140.47C274.777 143.263 277.04 145.528 279.831 145.528H344.591C347.382 145.528 349.645 143.263 349.645 140.47V140.385C349.645 137.591 347.382 135.327 344.591 135.327Z" fill="#30242A"/>
<path d="M316.447 135.582L306.414 137.386L345.42 354.542L355.452 352.737L316.447 135.582Z" fill="#30242A"/>
<path d="M279.917 135.327H279.831C277.04 135.327 274.777 137.591 274.777 140.385V140.47C274.777 143.263 277.04 145.528 279.831 145.528H279.917C282.708 145.528 284.971 143.263 284.971 140.47V140.385C284.971 137.591 282.708 135.327 279.917 135.327Z" stroke="#FF7235" stroke-width="4" stroke-miterlimit="10"/>
<path d="M328.841 134.865C331.205 135.686 332.792 137.92 332.792 140.427C332.792 142.763 331.41 144.877 329.273 145.814" stroke="#FF7235" stroke-width="4" stroke-miterlimit="10" stroke-linecap="round"/>
<path d="M335.682 134.865C338.046 135.686 339.632 137.92 339.632 140.427C339.632 142.763 338.251 144.877 336.113 145.814" stroke="#FF7235" stroke-width="4" stroke-miterlimit="10" stroke-linecap="round"/>
<path d="M350.429 354.205H207.359V364.405H350.429V354.205Z" fill="#30242A"/>
<path d="M216.175 376.954C223.103 376.954 228.72 371.334 228.72 364.401C228.72 357.467 223.103 351.847 216.175 351.847C209.246 351.847 203.63 357.467 203.63 364.401C203.63 371.334 209.246 376.954 216.175 376.954Z" fill="#30242A"/>
<path d="M216.175 369.107C218.772 369.107 220.878 367 220.878 364.401C220.878 361.801 218.772 359.694 216.175 359.694C213.577 359.694 211.472 361.801 211.472 364.401C211.472 367 213.577 369.107 216.175 369.107Z" fill="#FFB7D5"/>
<path d="M365.045 366.431C366.155 359.587 361.511 353.139 354.672 352.028C347.834 350.917 341.39 355.564 340.28 362.408C339.169 369.252 343.814 375.7 350.652 376.811C357.491 377.922 363.935 373.275 365.045 366.431Z" fill="#30242A"/>
<path d="M352.652 369.107C355.249 369.107 357.355 367 357.355 364.401C357.355 361.801 355.249 359.694 352.652 359.694C350.054 359.694 347.948 361.801 347.948 364.401C347.948 367 350.054 369.107 352.652 369.107Z" fill="#FFB7D5"/>
<path d="M235.775 364.401H196.58C196.738 353.571 205.645 344.92 216.466 345.078C227.066 345.236 235.617 353.794 235.775 364.401Z" fill="#FF7235"/>
<path d="M372.247 364.401H333.052C333.21 353.571 342.116 344.92 352.938 345.078C363.538 345.236 372.089 353.794 372.247 364.401Z" fill="#FF7235"/>
<path d="M254.904 320.078H291.564C291.992 313.659 293.206 304.7 294.698 292.394C297.845 266.41 300.205 242.787 297.058 223.892C293.911 204.997 266.153 140.029 266.153 140.029H213.874C209.77 175.478 244.052 215.788 254.964 232.531C266.765 250.643 256.931 262.452 250.637 280.166C244.343 297.88 254.964 305.363 254.964 305.363C254.639 310.262 254.618 315.174 254.904 320.078Z" fill="#4856DF"/>
<path d="M260.83 349.498H312.447C308.8 340.941 297.614 336.709 293.912 333.337C291.633 331.266 291.102 327.227 291.564 320.073H254.904C255.704 333.765 258.752 343.961 260.83 349.498Z" fill="#30242A"/>
<path d="M262.831 354.205H313.584C313.473 352.583 313.088 350.991 312.446 349.498H260.83C261.412 351.103 262.079 352.673 262.831 354.205Z" fill="#3EC1F3"/>
<path d="M269.159 306.741V319.62" stroke="#3EC1F3" stroke-width="4" stroke-miterlimit="10" stroke-linecap="round"/>
<path d="M260.274 306.741V319.62" stroke="#3EC1F3" stroke-width="4" stroke-miterlimit="10" stroke-linecap="round"/>
<path d="M278.045 306.741V319.62" stroke="#3EC1F3" stroke-width="4" stroke-miterlimit="10" stroke-linecap="round"/>
<path d="M286.93 306.741V319.62" stroke="#3EC1F3" stroke-width="4" stroke-miterlimit="10" stroke-linecap="round"/>
<path d="M255.059 306.347H292.685" stroke="#3EC1F3" stroke-width="4" stroke-miterlimit="10" stroke-linecap="round"/>
<path d="M278.683 170.481C277.4 167.306 276.177 164.234 275.002 161.346L255.761 157.966V158.034C254.97 162.544 257.98 166.844 262.487 167.636L278.683 170.481Z" fill="#3EC1F3"/>
<path d="M285.753 330.667L291.829 328.177" stroke="white" stroke-width="4" stroke-linecap="round" stroke-linejoin="round"/>
<path d="M288.893 336.555L293.968 332.456" stroke="white" stroke-width="4" stroke-linecap="round" stroke-linejoin="round"/>
<path d="M351.997 80.0119C351.997 80.0119 358.727 80.2772 359.266 74.394C359.266 74.394 364.072 72.1819 362.815 67.7876C362.815 67.7876 367.21 66.5297 365.953 62.1312C365.872 61.8531 368.45 61.3524 368.322 57.7284C368.134 52.4399 364.551 48.6318 362.986 48.2382C358.283 47.0615 360.07 54.7076 359.848 54.5151C357.107 52.1618 353.105 51.0921 351.677 52.2901C349.188 54.3781 350.916 57.1679 350.916 57.1679C350.916 57.1679 347.726 56.4148 346.165 58.721C344.267 61.5193 347.662 64.1293 347.662 64.1293C347.662 64.1293 344.104 64.5272 344.699 67.8218C345.357 71.5058 350.886 72.3273 353.507 76.1867L351.997 80.0119Z" fill="#EAA58B"/>
<path d="M347.516 63.4533C351.261 64.861 357.777 67.9802 359.629 73.1275" stroke="#A15842" stroke-width="4" stroke-linecap="round" stroke-linejoin="round"/>
<path d="M351.716 56.9069C354.923 58.6569 360.588 62.251 363.14 66.9404" stroke="#A15842" stroke-width="4" stroke-linecap="round" stroke-linejoin="round"/>
<path d="M360.454 53.9118C362.562 55.7858 364.85 58.2803 366.248 61.1856" stroke="#A15842" stroke-width="4" stroke-linecap="round" stroke-linejoin="round"/>
<path d="M226.173 63.5431C226.173 63.5431 240.223 84.7185 236.366 105.124C233.621 119.637 200.694 132.212 181.487 136.491V125.127C181.487 125.127 221.469 115.324 226.173 97.6701C229.025 86.9734 217.549 63.5431 217.549 63.5431" fill="#F5EBDD"/>
<path d="M319.07 132.212C316.718 126.325 309.27 120.052 300.646 116.911C284.073 110.883 243.809 119.658 243.809 119.658L237.776 106.767L208.09 121.314C212.366 129.662 217.496 136.679 222.738 141.531C227.767 135.297 236.895 134.326 243.121 139.362C246.028 141.711 247.918 145.095 248.393 148.805C264.807 147.521 282.962 140.012 288.11 135.378C288.11 135.378 291.244 138.125 294.771 138.515C294.771 139.691 289.285 155.381 299.085 151.851C299.085 151.851 301.826 155.381 305.747 151.462C305.747 151.462 308.492 155.381 312.413 151.851C312.413 151.851 314.551 153.191 317.505 149.892C321.028 145.904 322.072 139.696 319.07 132.212Z" fill="#EAA58B"/>
<path d="M217.548 63.5431H216.577C208.62 63.5431 195.592 69.4306 197.161 84.68C198.538 97.4434 202.241 109.852 208.085 121.28L237.772 106.732L217.548 63.5431Z" fill="#FFB7D5"/>
<path d="M234.014 136.11C229.636 136.11 225.489 138.087 222.739 141.497C223.825 142.511 224.967 143.465 226.16 144.351C231.68 148.39 239.791 149.425 248.393 148.754C247.457 141.523 241.3 136.106 234.014 136.11Z" fill="#CA7358"/>
<path d="M299.427 151.193C301.137 147.77 305.019 138.896 302.215 132.974" stroke="#A15842" stroke-width="4" stroke-linecap="round" stroke-linejoin="round"/>
<path d="M233.62 120.814L242.86 118.918" stroke="#A15842" stroke-width="4" stroke-linecap="round" stroke-linejoin="round"/>
<path d="M306.366 151.039C308.145 147.427 311.993 138.72 309.269 132.974" stroke="#A15842" stroke-width="4" stroke-linecap="round" stroke-linejoin="round"/>
<path d="M313.209 151.466C314.919 148.018 318.72 138.861 315.937 132.974" stroke="#A15842" stroke-width="4" stroke-linecap="round" stroke-linejoin="round"/>
</svg>
