<?xml version="1.0" encoding="UTF-8"?><svg xmlns="http://www.w3.org/2000/svg" viewBox="0 0 486.15 402.5"><defs><style>.d{fill:#f4e6d8;}.e{fill:#eaa58b;}.f{fill:#f5ebdd;}.g{fill:#ffbe21;}.h{fill:#ffb7d5;}.i{fill:#ff7235;}.j{fill:#a15842;}.k{fill:#4756df;}.l{fill:#30242a;}.m{stroke:#fff;stroke-width:2px;}.m,.n,.o,.p,.q,.r,.s,.t,.u,.v{fill:none;}.n,.o,.p,.q,.r,.s,.t,.u{stroke-linecap:round;}.n,.p,.q,.r,.s,.t,.u{stroke-width:4px;}.n,.s{stroke:#000;}.n,.t,.u{stroke-linejoin:round;}.o,.p,.q,.r,.s,.v{stroke-miterlimit:10;}.o,.r,.v{stroke:#a15842;}.o,.v{stroke-width:8px;}.p{stroke:#4756df;}.q,.u{stroke:#30242a;}.t{stroke:#724342;}.w{fill:rgba(255,255,255,.25);fill-rule:evenodd;}</style></defs><g id="a"/><g id="b"><g id="c"><path class="w" d="M56.99,109.15c23.21-36.58,47.83-78.18,89.37-89.78,39.38-11,73.93,34.53,114.72,32.77,53.74-2.32,105.98-73.02,151.35-44.27,42.38,26.86,2.32,97.63,11.18,147.27,8.46,47.41,60.18,91.75,39.25,135.25-21.05,43.74-86.7,34.26-130.6,54.59-38.07,17.63-67.35,58.77-109.1,56.42-42.16-2.37-68.37-44.02-102.84-68.35-40.89-28.86-103.95-38.93-117.63-87.29-13.63-48.18,27.38-94.21,54.29-136.61Z"/><path class="m" d="M74.32,109.15c23.21-36.58,47.83-78.18,89.37-89.78,39.38-11,73.93,34.53,114.72,32.77,53.74-2.32,105.98-73.02,151.35-44.27,42.38,26.86,2.32,97.63,11.18,147.27,8.46,47.41,60.18,91.75,39.25,135.25-21.05,43.74-86.7,34.26-130.6,54.59-38.07,17.63-67.35,58.77-109.1,56.42-42.16-2.37-68.37-44.02-102.84-68.35-40.89-28.86-103.95-38.93-117.63-87.29-13.63-48.18,27.38-94.21,54.29-136.61Z"/><path class="g" d="M214.11,154.43H35.91v192.23H214.11V154.43Z"/><path class="g" d="M224.63,336.14H25.38v10.52H224.63v-10.52Z"/><path class="f" d="M203.59,164.95H46.43v171.18H203.59V164.95Z"/><path class="g" d="M211.3,227.74H38.71v10.52H211.3v-10.52Z"/><path class="e" d="M76.06,243.62s7.95,.44,13.87-2.89c5.61-3.16,6.52-8.1,4.56-17.89,0,0,3.51-2.1,3.16-4.21-.23-1.39-4.21-2.81-4.21-2.81-.5-2.67-1.13-6.71-2.15-10.85-2.56,.5-5.17,.77-7.78,.8-7.83,8.81-16.38,9.35-16.38,9.35-1.24-1.85-2.92-3.36-4.89-4.4l-11.68,4.65c-.11,.38-.2,.76-.27,1.15-1.62,9.21,9.82,12.63,9.82,12.63-2.31,8.82-9.82,12.28-15.46,13.63l.48,4.38h31.52l-.59-3.55Z"/><path class="e" d="M151.56,313.46c27.36-8.07,29.11-72.61,29.11-72.61l-14.27-18.37s2.7-13.2-.11-15.66c-3.39-2.96-7.66,6.31-12.28,17.89-4.86,12.16-13.92,47.93-14.62,50.39,0,0-6.8-3.2-14.87-6.92l-1.14,3.76-10.4,35.08c11.41,4.67,27.57,9.69,38.59,6.44Z"/><path class="j" d="M60.11,229.15s-11.45-3.42-9.82-12.63c.07-.39,.16-.77,.27-1.15l-8.51,3.38c0,.24,.04,.47,.06,.7l2.54,23.33c5.65-1.36,13.15-4.82,15.46-13.63Z"/><path class="j" d="M67.13,215.12s8.55-.54,16.38-9.35c2.61-.03,5.21-.3,7.78-.8-.44-1.75-.94-3.53-1.55-5.22l-27.49,10.97c1.97,1.04,3.65,2.55,4.89,4.4h0Z"/><path class="l" d="M50.56,215.37l11.68-4.65c-4.82-2.45-10.12-.66-11.68,4.65Z"/><path class="l" d="M62.24,210.72l27.49-10.97c-.96-2.7-2.15-5.19-3.66-7.09-5.87-7.34-20.29-12.67-33.02-3.37-12.25,8.96-11.51,23.19-11,29.47l8.51-3.39c1.56-5.31,6.85-7.1,11.68-4.65Z"/><path class="k" d="M95.02,262.6l-.84-7.22c-9.66-2.82-16.64-2.95-16.64-2.95l-.88-5.26h-31.54l.49,4.56c-3.13,0-6.25,.26-9.32,.8l4.41,10.08h54.31Z"/><path class="k" d="M49.89,283.65h47.57l-1.22-10.52H45.3l4.6,10.52Z"/><path class="k" d="M54.49,294.17l4.6,10.52h40.73l-.42-3.99,.04,.02-.76-6.56H54.49Z"/><path class="k" d="M66.78,320.7s22.86,1.52,35.08,3.51l-.94-8.99h-36.62l2.48,5.49Z"/><path class="h" d="M96.24,273.12l-1.22-10.52H40.7l4.6,10.52h50.95Z"/><path class="h" d="M49.89,283.65l4.6,10.52h44.19l-1.22-10.52H49.89Z"/><path class="h" d="M60.11,305.97l4.18,9.25h36.62l-1.1-10.52H59.52l.6,1.28Z"/><path class="k" d="M124.5,268.17c-3.99-1.84-8.28-3.82-12.2-5.57-3.44-1.55-6.61-2.95-9.04-3.99-2.96-1.26-5.99-2.34-9.07-3.23l.84,7.22,1.22,10.52,1.22,10.52,1.22,10.52,.76,6.56c.35,.18,3.44,1.85,8.12,3.97,1.56,.7,3.29,1.46,5.15,2.22l.25,.1,10.41-35.08,1.14-3.76h-.02Z"/><path class="e" d="M64.3,315.22l-4.18-9.25-.6-1.28h-.43l.92,2.1-34.18,12.43c5.76,11.47,12.28,21.31,17.1,26.03,16.84,16.49,60.93,6.22,60.93,6.22,0,0,5.02,3.96,11.68,5.36,11.93,23.5,18.49,15.34,18.49,15.34,0,0,4.21,4.56,7.37-.35,6.31,.35,5.96-3.51,.35-16.84,6.32,7.72,12.6,7.84,12.73,5.71,.35-5.61-15.44-24.2-29.92-30.27-8.71-3.65-22.7-6.22-22.7-6.22-12.22-1.97-35.08-3.51-35.08-3.51l-2.48-5.49Z"/><path class="k" d="M36.3,252.52c-6.51,1.12-14.85,3.76-19.67,10.08-2.14,2.81-3.59,6.32-3.86,10.75-.8,12.77,5.46,30.74,13.06,45.88l34.17-12.43-23.71-54.28Z"/><path class="u" d="M70.18,247.64l.7,6.19"/><path class="u" d="M64.22,247.64l.7,6.19"/><path class="r" d="M76.08,244.36c-2.29-.17-4.53-.77-6.61-1.75"/><path class="r" d="M142.5,354.81c-1.35-3-2.9-6.24-4.29-8.71"/><path class="r" d="M131.62,349.59c4.38,7.7,7.77,16.36,9.82,22.21"/><path class="r" d="M123.85,354.15c3.16,5.79,6.75,12.78,9.33,17.98"/><path class="u" d="M99.86,300.58l-1.27-13.07"/><path class="r" d="M138.6,274.96l-2.36,9.26"/><path class="u" d="M45.48,251.02h4.35"/><path class="u" d="M78.29,252.46l.66,3.95"/><path class="p" d="M85.83,191.83l-44.2,16.84"/><path class="r" d="M66.18,319.87l-9.58-.57"/><path class="u" d="M66.53,320.22l-13.19-29.21"/><path class="r" d="M167.61,219.42c-.81,3.18-1.94,7.37-3.07,10.56,0,0,5.96,10.52-.35,22.8"/><path class="v" d="M181.7,323.2h-15.22c-.1,0-.2-.04-.28-.11s-.12-.17-.12-.28v-11.15c0-.1,.04-.2,.12-.28,.07-.07,.17-.12,.28-.12h15.22c1.58,0,3.1,.63,4.22,1.75,1.12,1.12,1.75,2.64,1.75,4.22,0,.79-.15,1.56-.45,2.29-.3,.73-.74,1.38-1.29,1.94-.55,.56-1.21,1-1.94,1.3-.72,.3-1.5,.46-2.29,.46h0Z"/><path class="i" d="M161.93,309.44c-12.56,0-18.37-10.01-18.37-10.01l8.45,36.74h19.85l8.44-36.74c-1.96,3.09-4.68,5.63-7.89,7.38-3.21,1.75-6.82,2.66-10.48,2.63h0Z"/><path class="j" d="M161.93,309.44c3.66,.03,7.26-.88,10.48-2.63,3.21-1.75,5.93-4.29,7.89-7.38h-36.74s5.81,10.01,18.37,10.01Z"/><path class="r" d="M62.46,221.56l-5.26-3.86"/><path class="l" d="M87.25,217.23c.8,0,1.46-.65,1.46-1.45s-.65-1.46-1.46-1.46-1.46,.65-1.46,1.46,.65,1.45,1.46,1.45Z"/><path class="u" d="M32.48,222l66.84-25.34"/><path class="r" d="M85.85,225.68c.35,.7,2.31,2.32,4.19,1.22"/><path class="o" d="M179.55,253.15c-.85-.86-1.5-2.3-1.33-4.58,0,0-3.16,1.75-5.26,0-2.76-2.3-1.75-5.61-1.75-5.61,0,0-3.16,1.05-4.56-1.4-1.52-2.66,.35-6.31,.35-6.31,0,0-2.52,.35-3.16-2.11-.81-3.11,.88-5.93,2.65-7.98"/><path class="l" d="M124.51,187.44l49.76-18.9c3.4-1.29,5.11-5.09,3.82-8.49l-13.68-36c-1.29-3.4-5.09-5.11-8.49-3.82l-49.76,18.9c-3.4,1.29-5.11,5.09-3.82,8.49l13.68,36c1.29,3.4,5.09,5.1,8.49,3.82Z"/><path class="l" d="M183.22,274.3c.55,1.45,2.17,2.18,3.62,1.63,1.45-.55,2.18-2.17,1.63-3.62l-36.29-95.52c-.55-1.45-2.17-2.18-3.62-1.63-1.45,.55-2.18,2.17-1.63,3.62l36.29,95.52Z"/><path class="h" d="M146.1,142.67c-1.61-.69-3.43-.71-5.06-.07-1.63,.65-2.93,1.92-3.63,3.53l-.76,1.78-1.78-.77c-1.61-.67-3.41-.67-5.02-.02-1.61,.65-2.9,1.92-3.59,3.51-.69,1.6-.72,3.4-.09,5.02s1.88,2.93,3.46,3.64l1.78,.77,12.15,5.23,5.24-12.15,.76-1.78c.35-.8,.53-1.66,.54-2.53s-.15-1.73-.47-2.54c-.32-.81-.8-1.54-1.41-2.17-.61-.62-1.33-1.12-2.13-1.46h0Z"/><path class="e" d="M176.22,218.79c3.27,1.96,2.57,5.76,2.57,5.76,0,0,6.57-.9,6.38,5.82,0,0,5.24,2.41,2.83,7.64,0,0,3.6,.94,1.8,6.7-1.75,5.61-5.34,9.15-7.72,9.47-1.26,.17-4.21-1.05-3.86-5.61,0,0-3.16,1.75-5.26,0-2.76-2.3-1.75-5.61-1.75-5.61,0,0-3.16,1.05-4.56-1.4-1.52-2.66,.35-6.31,.35-6.31,0,0-2.52,.35-3.16-2.11-1.35-5.18,4.24-9.58,5.61-10.87l-1.05-2.81s4.56-2.62,7.82-.66Z"/><path class="r" d="M165.77,236.5c3.98-2.34,10.01-6.67,13.4-11.83"/><path class="r" d="M170.39,243.81c5.78-3.35,10.88-7.77,15.01-13.02"/><path class="r" d="M178.43,249.01c2.81-2.1,6.67-5.96,9.92-10.4"/><path class="h" d="M437.21,46.04h-178.2V238.27h178.2V46.04Z"/><path class="h" d="M447.73,227.74H248.49v10.52h199.25v-10.52Z"/><path class="f" d="M426.69,56.56h-157.15V227.74h157.15V56.56Z"/><path class="h" d="M434.4,119.35h-172.59v10.52h172.59v-10.52Z"/><path class="l" d="M331.98,109.47l3.85,10.54-42.51,15.52c-1.4,.51-2.94,.45-4.29-.18-1.35-.63-2.4-1.77-2.91-3.16-.51-1.4-.44-2.94,.18-4.29,.63-1.35,1.77-2.4,3.16-2.91l42.51-15.52Z"/><path class="l" d="M298.44,121.72l3.85,10.54-8.96,3.27c-1.4,.51-2.94,.44-4.29-.18-1.35-.63-2.39-1.77-2.91-3.16-.51-1.4-.45-2.94,.18-4.29s1.77-2.4,3.16-2.91l8.96-3.27Z"/><path class="k" d="M340.18,124.73c6.78,0,12.28-5.5,12.28-12.28s-5.5-12.28-12.28-12.28-12.28,5.5-12.28,12.28,5.5,12.28,12.28,12.28Z"/><path class="q" d="M286.26,132.1c-14.73,5.26-33.2,13.03-45.25-2.11-15.08-18.94,14.38-38.59,22.45-13.68,9.1,28.09-46.54,47.86-32.27,73.31,12.98,23.15,53.84-1.8,77.52,6.66,19.64,7.02,20.16,30.96,20.16,30.96"/><path class="j" d="M326.01,111.63c-.7-4.21-3.51-7.37-5.26-7.78-4.18-.99-6.5,2.81-6.5,2.81,0,0-3.31-3.03-7.94,1.04,0,0-5.3-1.66-7.6,3.11,0,0-2.36-.89-4.97,3.99-2.13,3.98-3.86,9.93-1.4,11.58,1.05,.7,4.21,.35,5.26-2.11,0,0,.95,1.75,2.81,1.4,3.86-.7,4.21-3.86,4.21-3.86,0,0,.33,1.19,2.46,1.4,3.45,.35,5.26-3.16,5.26-3.16,0,0,1.31,.87,3.86,0,3.41-1.17,4.29-6.26,4.29-6.26l5.53-2.15Z"/><path class="l" d="M458.83,168.8c5.87-6.12,4.92-16.56-2.12-23.32-7.04-6.76-17.51-7.28-23.38-1.16-5.87,6.12-4.92,16.56,2.12,23.32,7.04,6.76,17.51,7.28,23.38,1.16Z"/><path class="n" d="M428.09,158.64s12.28-7.72,14.03-21.75"/><path class="l" d="M390.93,147.18c2.95-9.31-1.21-18.93-9.3-21.49-8.08-2.56-17.03,2.91-19.98,12.21-2.95,9.31,1.21,18.93,9.3,21.49,8.08,2.56,17.03-2.91,19.98-12.21Z"/><path class="k" d="M438.65,141.88c-.32-1.11,18.99,10.79,15.08,14.73-3.69,3.7-13.48-9.11-15.08-14.73Z"/><path class="k" d="M438.81,142.57c-.63-1.36,16.02-18.36,18.81-13.62,2.68,4.56-18.18,14.97-18.81,13.62Z"/><path class="j" d="M419.67,144.96c-4.56-1.4-14.38-2.1-19.99-2.81-11.93-6.32-8.77-22.8-8.77-22.8,.7-.35,12.12-2.42,10.54-11.34-1.4-8.07-10.9-8.07-16.11-2.37,0,0-7.41-3.12-9.52-13.3,0,0-6.26,.72-10.6-.43-.94,4.17-1.18,8.74-2.03,13.41,0,0-4.56,.35-4.91,2.11-.35,1.85,3.26,4.04,3.26,4.04-2.46,8.92-2.1,17,3.41,20.16,4.91,2.81,10.87,1.75,10.87,1.75l-.7,8.42c-6.14,.23-12.2,1.54-17.89,3.86-11.64,4.74-38.94,22.8-38.94,22.8,2.1-7.02,10.74-29.14,14.03-43.15,1.4-5.96,2.81-11.58-.7-11.93-3.84-.39-9.47,11.58-9.47,11.58l-23.85,8.77c-14.06,19.02-30.52,62.09-9.12,72.96,19.29,9.82,62.44-14.03,62.44-14.03l-3.86,35.08h70.16l15.79-74.72s.07-.07,.19-.21c-4.93-4.27-10.87-6.83-14.22-7.86Z"/><path class="g" d="M410.55,138.07h-35.12l-.31,3.73c-2.74,.08-5.46,.4-8.14,.95-.89,.18-1.84,.39-2.83,.64-2.36,.6-4.67,1.35-6.92,2.27-.49,.2-1.02,.43-1.57,.68-1.02,.46-2.11,1-3.29,1.59-7.91,4.02-18.8,10.74-26.12,15.39l9.51,19.01,4.77,9.54,2.54,5.08c5.22-2.46,8.55-4.29,8.55-4.29l-3.86,35.08h70.16l15.79-74.72c.84-.94,1.62-1.93,2.33-2.98v-.1l-25.48-11.88Z"/><path class="i" d="M360.49,148l-4.84-1.66c-1.02,.46-2.11,1-3.29,1.59l3.96,6.49-7.88,10.74,10.38-4.29,5.78,10.67,.66-11.74,10.03-2.15-8.59-5.37,.27-9.51c-.89,.18-1.84,.39-2.83,.64l-3.66,4.61Z"/><path class="i" d="M342.96,188.3l8.59-1.28,.1-2.56-4.44-2.03,3.67-10.93-9.8,6.44-6.16-7.02,.89,11.38-.05,.02,4.77,9.54,2.44-3.57Z"/><path class="i" d="M397.06,158.96l3.94,13.25,3.94-13.25,12.53-3.58-12.18-5.01v-11.46l-6.8,8.95-9.67-4.65,5.73,9.67-8.95,7.52,11.46-1.43Z"/><path class="i" d="M385.13,224.86l-7.37-10.91,6.33-9.55-10.62,3.7-5.49-9.22-.57,11.23-11.62,1.32,10.34,5.14-3.42,11.18h1.81l8.17-6.83,12.42,3.94Z"/><path class="i" d="M388.72,202.73l8.59-7.52,9.67,6.44-4.3-10.74,7.52-8.23-10.74,1.79-5.01-8.95-1.08,9.67-10.02-.36,8.59,6.44-3.22,11.46Z"/><path class="l" d="M375.82,92.34c2.11,10.17,9.52,13.3,9.52,13.3,5.21-5.69,14.69-5.69,16.11,2.37,1.58,8.92-9.84,10.99-10.54,11.34,0,0-3.16,16.49,8.77,22.8,5.61,.7,15.43,1.4,19.99,2.81,3.35,1.03,9.29,3.6,14.22,7.86,1.75-1.98,15.1-18.06,2.62-33.82-8.67-10.95-22.91-9.07-22.91-9.07,.47-5.69,1.4-20.38-10.9-29.39s-27.96-4.26-33.65,2.85c-2.03,2.54-3.12,5.42-3.82,8.53,4.34,1.15,10.6,.43,10.6,.43Z"/><path class="q" d="M321.5,124.69c-.5,1.15-1.01,2.46-1.45,3.78,0,0-8.07,1.75-10.24,7.19"/><path class="u" d="M319.3,167.77l-4.17,10.92"/><path class="t" d="M352.32,179.69l-1.46,13.13"/><path class="q" d="M374.42,134.43c3.23-.51,6.37-1.43,9.36-2.74"/><path class="q" d="M390.1,111.76l4.56-2.81"/><path class="s" d="M414.13,109.78c-.26,2.6-.61,5.85-.95,8.42"/><path class="d" d="M388.42,116.02l-1.28,7.76c-.06,.34-.02,.69,.09,1.02,.12,.32,.32,.61,.58,.84,.26,.23,.58,.38,.92,.45,.34,.07,.69,.05,1.02-.06l6.83-2.19c.33-.1,.63-.29,.86-.55,.24-.25,.4-.56,.48-.9,.08-.34,.07-.69-.02-1.02-.09-.33-.27-.64-.52-.88l-5.54-5.58c-.26-.27-.59-.46-.96-.55-.36-.09-.75-.08-1.1,.04-.36,.12-.67,.33-.92,.61-.24,.29-.4,.63-.46,1Z"/><path class="u" d="M372.01,114.07c-.32,4.64-5.1,4.95-6.22,1.66l6.22-1.66Z"/><path class="u" d="M372.78,105.51c-.85,.42-3.88,.5-4.86-1.92"/><path class="j" d="M419.67,144.96l-.11,56.6s-34.48-20.64-37.15-20.81c-1.96-.12-3.42,4.32,.12,7.99-9.54-1.77-19.02-2.7-20.51,.2-.9,1.75,.56,3.58,.56,3.58-1.14,.14-2.26,.45-2.9,1.2-1.53,1.8,.57,4.56,.57,4.56-1.94,.94-1.27,3.86,.48,5.26,4.29,3.43,17.14,5.88,17.14,5.88-4.62,.57-13.52,1.09-13.04,3.72,.7,3.86,20.35,3.86,20.35,3.86,7.37,4.91,13.44,4.78,13.44,4.78,0,0,17.99,18.47,36.13,22.8,46.65,8.07,10.17-79.28,.35-90.5-6.1-6.97-15.43-9.12-15.43-9.12Z"/><path class="u" d="M375.04,210.21c2.46-.02,5.11-.04,7.8,0"/><path class="u" d="M359.93,199.07c5.74,1.05,15.88,2.99,23.27,4.82"/><path class="u" d="M362.24,192.69c7.11,.97,17.32,2.45,23.76,3.83"/><path class="u" d="M383.29,188.33c2.58,.59,5.12,1.33,7.61,2.23"/><path class="g" d="M440.35,169.6l-.66,11.75-5.78-10.66-10.38,4.29,7.88-10.74-6.07-9.93,10.23,3.51,1.19-1.52c-.5-.78-1.06-1.52-1.66-2.23-6.1-6.97-15.43-9.12-15.43-9.12l-.08,42.06,3.11,3.05,8.59-9.41-4.34,12.92,.76,.56,23.67-5.09c-2.26-6.85-4.89-13.56-7.88-20.12l-3.14,.67Z"/><path class="i" d="M425.33,154.31l6.07,9.93-7.88,10.74,10.38-4.29,5.79,10.67,.66-11.75,3.16-.67c-2.48-5.39-4.85-9.8-6.72-12.63l-1.2,1.51-10.25-3.51Z"/><path class="i" d="M426.95,193.58l4.34-12.93-8.59,9.41-3.11-3.05-.02,8.88,8.13-1.75-.76-.56Z"/><path class="t" d="M418.86,179.17v21.08"/><path class="u" d="M418.72,200.25s6.8,4.11,17.33,10.43"/><path class="q" d="M297.96,111.1c-.95,3.54-1.8,8.53-1.08,13.64"/><path class="q" d="M305.39,107.94c-.92,2.77-1.9,7.56-1.32,14.66"/><path class="q" d="M313.49,106.59c-1,2.94-2.35,7.56-1.77,13.46"/><path class="q" d="M321.5,109.42s-.1,2.18-.27,4.56"/></g></g></svg>