<?xml version="1.0" encoding="UTF-8"?><svg xmlns="http://www.w3.org/2000/svg" xmlns:xlink="http://www.w3.org/1999/xlink" viewBox="0 0 457.72 370.79"><defs><style>.e,.f,.g,.h,.i,.j,.k,.l,.m,.n,.o{fill:none;}.p{fill:#eaa58b;}.q{fill:#f5ebdd;}.r{fill:#fff;}.s{fill:#ffbe21;}.t{fill:#ffb7d5;}.u{fill:#ff7235;}.v{fill:#a15842;}.w{fill:#3ec1f3;}.x{fill:#4856df;}.y{fill:#4756df;}.a`{fill:#30242a;}.f{stroke:#fff;stroke-width:2px;}.g{stroke:#000;}.g,.h,.i,.j,.k,.l,.m,.o{stroke-linecap:round;}.g,.i,.j,.k,.l,.m,.n{stroke-width:4px;}.g,.o{stroke-linejoin:round;}.h,.i,.j,.k,.l,.m,.n{stroke-miterlimit:10;}.h,.l,.n{stroke:#a15842;}.h,.o{stroke-width:8px;}.i{stroke:#4756df;}.j,.o{stroke:#30242a;}.k{stroke:#4856df;}.m{stroke:#f5ebdd;}.aa{clip-path:url(#d);}.ab{fill:rgba(255,255,255,.25);fill-rule:evenodd;}</style><clipPath id="d"><rect class="e" x="37.38" y="54.85" width="401.81" height="286.77"/></clipPath></defs><g id="a"/><g id="b"><g id="c"><path class="ab" d="M457.6,231.24c2.14,44.55-26.45,88.45-62.66,114.49-33.66,24.2-78.84,13.3-120.13,16.95-35.79,3.16-71.14,14.68-105.1,2.95-36.25-12.51-63.53-40.12-88.03-69.62C51.94,260.22,11.17,224.41,13.78,177.95c2.63-46.79,42.11-84.34,80.74-110.87,33.72-23.15,77.28-15.55,117.09-24.95,42.1-9.95,83.76-50.77,122.57-31.67,38.95,19.16,29.06,78.8,50.24,116.69,21.21,37.95,71.09,60.67,73.17,104.09Z"/><path class="f" d="M444.94,226.81c2.14,44.54-26.45,88.45-62.66,114.49-33.66,24.2-78.84,13.3-120.13,16.96-35.79,3.16-71.14,14.68-105.1,2.95-36.25-12.51-63.53-40.12-88.03-69.62C39.28,255.79-1.49,219.98,1.12,173.51,3.74,126.72,43.23,89.17,81.86,62.65c33.72-23.15,77.28-15.55,117.09-24.95,42.1-9.95,83.76-50.77,122.58-31.67,38.95,19.16,29.06,78.8,50.24,116.69,21.21,37.95,71.08,60.67,73.17,104.09Z"/><g class="aa"><g><path class="q" d="M182,128.16H54.26c-5.74,0-10.39,4.6-10.39,10.27v126.31c0,5.67,4.65,10.27,10.39,10.27h127.74c5.74,0,10.39-4.6,10.39-10.27v-126.31c0-5.67-4.65-10.27-10.39-10.27Z"/><path class="v" d="M164.65,123.77c1.98,0,3.59-1.59,3.59-3.54s-1.61-3.54-3.59-3.54-3.58,1.59-3.58,3.54,1.6,3.54,3.58,3.54Z"/><path class="n" d="M164.65,107.9v11.14"/><path class="v" d="M180.1,111.62h-5.46v46.59h5.46v-46.59Z"/><path class="s" d="M193.61,73.2c-1.09,2.13-5.67,9.58-16.24,9.58s-15.14-7.45-16.24-9.58l-10.22,38.41h52.92l-10.22-38.41Z"/><path class="m" d="M189.2,73.95l6.87,37.67"/><path class="m" d="M165.54,74.44l-6.78,37.18"/><path class="m" d="M172.91,74.2l-2.63,37.41"/><path class="m" d="M181.82,74.2l2.64,37.48"/><path class="u" d="M177.38,82.78c10.57,0,15.15-7.45,16.24-9.58v-.07h-32.47l-.02,.07c1.09,2.14,5.67,9.58,16.25,9.58Z"/><path class="q" d="M385.15,56.25h-127.74c-5.74,0-10.39,4.6-10.39,10.27v126.31c0,5.67,4.65,10.27,10.39,10.27h127.74c5.74,0,10.39-4.6,10.39-10.27V66.52c0-5.67-4.65-10.27-10.39-10.27Z"/><path class="a`" d="M177.19,340.84c-2.04,0-3.76-1.5-4.01-3.5l-2.99-24.84h14l-2.99,24.84c-.25,2-1.97,3.51-4.01,3.5Z"/><path class="a`" d="M334.25,340.84c-2.04,0-3.76-1.5-4.01-3.5l-2.99-24.84h14l-2.99,24.84c-.25,2-1.97,3.51-4.01,3.5Z"/><path class="t" d="M95.05,209.85h62.84v102.97H66.4v-74.65c0-15.64,12.83-28.33,28.65-28.33Z"/><path class="t" d="M165.39,158.2h216.52c15.82,0,28.65,12.69,28.65,28.33v126.28H136.74v-126.29c0-15.65,12.83-28.33,28.65-28.33h0Z"/><path class="l" d="M136.73,225.03v87.79"/><path class="t" d="M165.39,251.04h216.52c15.82,0,28.65,12.69,28.65,28.33v33.45H136.74v-33.45c0-15.65,12.82-28.33,28.65-28.33Z"/><path class="l" d="M297.77,251.04H164.35c-15.26,0-27.63,12.23-27.63,27.32v34.47"/><path class="n" d="M318.38,251.47v61.35"/><path class="n" d="M410.56,209.18h-63.89"/><path class="p" d="M117.62,198.36c8.19,1.01,10.75-2.43,11.95-5.4,1.36-3.37,.49-6.27-.58-10.04,0,0,2.71-1.46,2.29-3.13-.35-1.35-3.43-1.5-3.43-1.5-.12-.6-.23-1.23-.32-1.87-.68-4.73-1.71-7.43-1.71-7.43-2.39,.68-5.46,.35-6.49,0-1.38,3.79-3.88,7.08-7.17,9.46,0,0-7.51-8.1-12.29-2.02-3.9,4.96,1.71,11.14,5.46,11.81-2.23,4.65-8.24,7.35-11.36,8.48,.19,1.46,.37,2.82,.53,4.01h23.38l-.26-2.36Z"/><path class="p" d="M198.93,227.75c1.23-4.34,2.24-8.74,3.02-13.18l-8.19-21.94s3.41-9.11,.35-10.47c-3.06-1.36-9.92,7.44-12.65,14.52-1.18,3.06-4.4,10.1-7.68,17.1l25.15,13.97Z"/><path class="w" d="M165.07,232.13s-19.8-16.54-28.37-22.62c-8.57-6.08-18.4-5.06-18.4-5.06l-.43-3.72h-23.38c.36,2.64,.58,4.39,.58,4.39l-17.41,61.44,51.89-4.05-1.36-18.91s27.99,23.12,44.05,20.93c14.48-1.98,22.71-22.66,26.68-36.78l-25.15-13.97c-4.3,9.2-8.7,18.34-8.7,18.34Z"/><path class="a`" d="M105.32,188.25c-3.76-.68-9.36-6.86-5.46-11.81,4.78-6.08,12.29,2.02,12.29,2.02,3.29-2.38,5.79-5.67,7.17-9.46,1.02,.35,4.1,.68,6.49,0,0,0,5.12-1.69,4.78-5.74-.46-5.44-8.88-3.04-8.88-3.04,0,0-9.21-6.75-19.13-2.36-10.57,4.7-11.6,14.18-10.92,20.6,.39,3.68,1.46,11.91,2.29,18.27,3.14-1.13,9.14-3.83,11.37-8.48Z"/><path class="h" d="M200.29,218.8c-1.56,.64-2.93,.82-3.54,.48-1.53-.86-1.77-2.67,.05-5.2,0,0-4.32,1.66-5.65-.5-1.33-2.16,.67-4.16,.67-4.16,0,0-3.06,.83-3.8-1.86-.75-2.69,1.77-4.1,1.77-4.1,0,0-1.72-.63-1.77-2.41-.07-2.58,4.19-4.68,5.41-5.23"/><path class="i" d="M128.95,243.53l-1.27-14.6"/><path class="l" d="M117.29,198.99c-1.98-.44-3.89-1.16-5.67-2.13"/><path class="i" d="M79.89,262.01l8.8-23.13"/><path class="l" d="M126.2,186.38c-.56,.35-2.68,.62-3.54-.99"/><path class="v" d="M123.08,178.79c.57,0,1.02-.45,1.02-1.01s-.46-1.01-1.02-1.01-1.02,.45-1.02,1.01,.46,1.01,1.02,1.01Z"/><path class="l" d="M104.3,180.82l3.76,2.02"/><path class="p" d="M200.09,327.09l26.15-7.65c-1.99-6.82-5.81-19.74-8.26-27.26l-32.63,13.47c4.27,7.56,9.21,14.74,14.75,21.45Z"/><path class="s" d="M200.59,327.67c-.76,2.87-1.24,5.82-1.42,8.78h46.27c-.89-2.11-2.46-3.87-4.48-4.99l-13.4-7.5s-.51-1.75-1.31-4.52l-26.15,7.66c.32,.38,.5,.58,.5,.58Z"/><path class="u" d="M199.22,340.84h47.11l-.15-1.44c-.1-1.01-.36-2-.75-2.94h-46.27c-.1,1.46-.09,2.93,.05,4.39Z"/><path class="v" d="M176,284.12c2.26,7.71,5.72,15.1,9.34,21.52l32.64-13.47c-.35-1.13-.71-2.14-1.01-2.99-10.21-29.18-16.39-52.65-31.41-55.02-23.65-3.72-63.87,36.55-69.91,42.73l8.7,5.22,27.35,12.7,9.96,2.27,14.33-12.96Z"/><path class="j" d="M175.26,283.82c-.77-3.73-1.15-7.54-1.13-11.35"/><path class="a`" d="M301.99,204.11s-32.72,8.54-47.11,16.54c-16.39,9.11-17.41,21.27-27.65,51.99-3.3,9.89-5.63,17.83-7.79,24.07l28.21,13.17,.05-.11s13.82-2.01,15.02-18.91c.91-12.61,1.35-21.96,5.8-31.4l76.14-55.36h-42.67Z"/><path class="x" d="M204.22,315.26c-9.87,1.48-13.98,3.38-15.59,7.8l18.64,8.58s9.99-2.8,15.37-1.43v.02c3.61,.84,7.12,2,10.51,3.48,5.55-7.49,10.41-15.46,14.52-23.82l-28.21-13.17c-4.04,11.68-7.42,17.37-15.25,18.55Z"/><path class="a`" d="M218.15,336.65l9.09,4.18c2.1-2.27,4.07-4.65,5.89-7.13-3.39-1.48-6.9-2.64-10.51-3.48l-4.47,6.43Z"/><path class="m" d="M213.48,307.98l6.33,2.74"/><path class="m" d="M209.89,312.32l6.33,2.74"/><path class="s" d="M335.1,129c1.98,0,3.58-1.59,3.58-3.54s-1.6-3.54-3.58-3.54-3.58,1.59-3.58,3.54,1.6,3.54,3.58,3.54Z"/><path class="a`" d="M347.74,103.17c7.92,0,14.34-6.35,14.34-14.18s-6.42-14.18-14.34-14.18-14.34,6.35-14.34,14.18,6.42,14.18,14.34,14.18Z"/><path class="w" d="M337.85,98.45c.88,.4-6.49-16.88-10.24-14.18-3.55,2.54,5.79,12.17,10.24,14.18Z"/><path class="w" d="M338.24,99.5c.8,.95,19.59-5.55,17-9.3-2.52-3.6-17.8,8.34-17,9.3Z"/><path class="a`" d="M373.35,167.32l1.64-.25v-.48c-.53,.28-1.08,.52-1.64,.73Z"/><path class="v" d="M328.62,163.6c15.98,.29,24.05-15.8,26.1-20.6-.71-.13-1.42-.24-2.2-.33-9.21-1.01-10.92-1.35-14-5.4-3.08-4.05-3.42-12.15-3.42-12.15,0,0,7.96-1.75,6.83-8.1-1.02-5.74-7.85-5.74-11.61-1.69,0,0-5.81-1.35-11.27-7.43,0,0-4,.93-6.73,.48-.71,4.42-.67,9.37-1.47,13.37-1.37,6.75-.35,11.14,3.76,13.51s8.88,.67,8.88,.67l-1.02,6.08s-5.96,.68-10.93,2.23c.99,7.63,4.54,19.15,17.09,19.38Z"/><path class="v" d="M350.81,204.11l1.86-1.25-3.22,1.25h1.36Z"/><path class="v" d="M277.06,164.95s-17.9-24.17-22.19-29.04c-4.78-5.4-11.27-11.14-13.32-9.11-2.05,2.03,3.75,8.78,3.75,8.78l-1.02,21.94s11.76,31.36,24.58,35.45c6.41,2.05,18.59-3.35,27.19-7.91l-13.31-23.82c-3.38,2.19-5.69,3.71-5.69,3.71Z"/><path class="u" d="M373.35,167.32s-1.37-7.43-3.07-11.48c-2.55-6.07-6.77-11.21-15.56-12.84-2.05,4.8-10.11,20.89-26.1,20.6-12.55-.22-16.1-11.75-17.08-19.38-1.05,.32-2.07,.7-3.07,1.15-3.6,1.66-17.68,10.68-25.72,15.88l13.29,23.8c5.59-2.97,9.68-5.6,9.68-5.6l-3.76,24.64h47.47l3.22-1.25,22.32-14.97c-.03-6.88-.57-13.75-1.63-20.56Z"/><path class="a`" d="M383.25,150.1c-2.45-11.49-15.02-11.14-15.02-11.14,1.24-5.59-.42-11.41-4.44-15.53-6.83-7.09-16.39-4.05-16.39-4.05,.36-4.05,1.02-14.51-7.85-20.93-8.88-6.41-20.14-3.04-24.24,2.02-1.67,2.06-2.48,4.86-2.96,7.9,2.72,.45,6.73-.48,6.73-.48,5.46,6.08,11.27,7.43,11.27,7.43,3.76-4.05,10.58-4.05,11.61,1.69,1.13,6.35-6.83,8.1-6.83,8.1,0,0,.35,8.1,3.42,12.15,3.06,4.05,4.78,4.39,14,5.4,.77,.08,1.5,.2,2.2,.33,8.79,1.63,13,6.77,15.56,12.84,1.71,4.05,3.07,11.48,3.07,11.48,.56-.21,1.1-.45,1.63-.73,3.31-1.7,10.38-6.57,8.26-16.49Z"/><path class="j" d="M334.43,119.38l2.73-1.68"/><path class="j" d="M316.95,127.3c.57,.35,2.68,.62,3.54-.99"/><path class="a`" d="M322.52,119.71c.56,0,1.02-.45,1.02-1.01s-.46-1.01-1.02-1.01-1.02,.45-1.02,1.01,.46,1.01,1.02,1.01Z"/><path class="a`" d="M314.62,118.36c.57,0,1.02-.45,1.02-1.01s-.46-1.01-1.02-1.01-1.02,.45-1.02,1.01,.46,1.01,1.02,1.01Z"/><path class="j" d="M317.35,120.05s-.93,2.31-.71,2.77c.16,.3,.41,.54,.71,.7"/><path class="o" d="M247.52,162.09c.56,0,1.09-.18,1.54-.51,1.21-1.19,.96-2.94-1.4-4.85,0,0,4.47,.46,5.15-1.91,.68-2.36-1.7-3.71-1.7-3.71,0,0,3.07,0,3.07-2.7s-2.73-3.38-2.73-3.38c0,0,1.45-1.03,1.02-2.7-.68-2.7-6.49-3.38-6.49-3.38l-.8-.97"/><path class="j" d="M323.68,136.58c1.44-.57,2.85-1.21,4.21-1.94"/><path class="j" d="M277.91,164.88l3.59,4.8"/><path class="l" d="M306.9,168.32l-1.74,10.82"/><path class="l" d="M349.1,190.27l-.17-17.38"/><path class="g" d="M368.74,139.43c-.49,1.82-1.15,3.6-1.97,5.3"/><path class="g" d="M348.02,119.77l-.97,5.02"/><path class="a`" d="M327.26,204.45s-29.37,9.11-45.75,16.88c-16.3,7.71-14.34,25.66-11.27,57.05,1.09,11.1,2.36,19.79,3,26.67h31.17c1.6-.88,11.05-6.88,5.42-23.29-4.12-11.98-7.67-19.92-7.67-30.33h26.07c15.42,0,28.04-12.13,28.48-27.37l.57-19.61h-30.03Z"/><path class="x" d="M267.29,327.25c-8.3,5.47-11.22,8.91-10.79,13.59l20.55-.03s7.85-6.72,13.32-7.73c3.62-.68,7.3-1.02,10.98-1.01,1.25-6.06,2.6-15.14,2.83-26.89l.23-.12h-31.17c1.09,11.55,.4,18-5.94,22.19Z"/><path class="a`" d="M289.08,340.79h10.03s1.09-3.02,2.27-8.71c-3.68,0-7.36,.33-10.98,1.01l-1.31,7.7Z"/><path class="g" d="M301.84,252.05h-8.05"/><path class="m" d="M272.61,318.39h7.7"/><path class="m" d="M270.9,323.79h7.7"/><path class="r" d="M166.95,264.88c8.39,0,15.19-6.73,15.19-15.02s-6.8-15.02-15.19-15.02-15.19,6.73-15.19,15.02,6.8,15.02,15.19,15.02Z"/><path class="x" d="M166.95,241.08c2.36,0,4.27,1.89,4.27,4.22v5.06c0,2.33-1.91,4.22-4.27,4.22s-4.27-1.89-4.27-4.22v-5.06c0-2.33,1.91-4.22,4.27-4.22Z"/><path class="k" d="M166.95,253.23v4.73"/><path class="k" d="M164.51,257.96h4.89"/><path class="r" d="M59.74,149.42c3.11,0,5.63-2.49,5.63-5.57s-2.52-5.57-5.63-5.57-5.63,2.49-5.63,5.57,2.52,5.57,5.63,5.57Z"/><path class="r" d="M76.81,149.42c3.11,0,5.63-2.49,5.63-5.57s-2.52-5.57-5.63-5.57-5.63,2.49-5.63,5.57,2.52,5.57,5.63,5.57Z"/><path class="r" d="M93.88,149.42c3.11,0,5.63-2.49,5.63-5.57s-2.52-5.57-5.63-5.57-5.63,2.49-5.63,5.57,2.52,5.57,5.63,5.57Z"/><path class="q" d="M181.99,128.16c5.74,0,10.39,4.6,10.39,10.27v126.31c0,5.67-4.65,10.27-10.39,10.27H54.25c-5.74,0-10.39-4.6-10.39-10.27v-126.31c0-5.67,4.65-10.27,10.39-10.27h127.73Zm0-1.4H54.25c-6.51,0-11.8,5.23-11.8,11.67v126.31c0,6.44,5.29,11.66,11.8,11.67h127.73c6.51,0,11.8-5.23,11.8-11.67v-126.31c0-6.44-5.29-11.66-11.8-11.67Z"/><path class="t" d="M347.71,209.85h62.85v102.97h-91.49v-74.65c0-15.64,12.82-28.32,28.64-28.33Z"/><path class="y" d="M394.86,312.87c2.23-6.34,9.24-9.69,15.65-7.48,3.55,1.22,6.33,3.98,7.57,7.48,1.64-4.65,5.96-7.86,10.93-8.14-1.09-1.92-2.38-3.71-3.86-5.35l-4.46-4.94c-2.85-3.16-3.39-7.74-1.36-11.46l3.79-6.96c-1.06,1.05-7.21,6.75-16.55,6.75s-15.48-5.69-16.54-6.75l3.79,6.96c2.03,3.73,1.48,8.31-1.37,11.46l-4.46,4.94c-1.48,1.64-2.78,3.44-3.86,5.36,4.9,.35,9.12,3.54,10.73,8.13Z"/><path class="y" d="M429.68,319.9c-5.23,0-9.89,3.27-11.61,8.16-2.23-6.34-9.23-9.69-15.64-7.49-3.55,1.22-6.34,3.98-7.58,7.49-2.1-5.97-8.49-9.35-14.68-7.77,.17,7.71,3.32,15.06,8.79,20.55h35.17c5.46-5.48,8.61-12.81,8.79-20.5-1.06-.28-2.15-.43-3.24-.43Z"/><path class="a`" d="M406.55,282.77c9.33,0,15.48-5.69,16.55-6.75h-33.09c1.06,1.06,7.21,6.75,16.54,6.75Z"/><path class="w" d="M394.86,328.07c2.23-6.34,9.23-9.69,15.64-7.49,3.55,1.22,6.35,3.98,7.58,7.49,2.12-6.04,8.61-9.42,14.85-7.73,.14-5.45-1.21-10.84-3.92-15.6-4.97,.27-9.29,3.49-10.93,8.14-2.23-6.34-9.24-9.69-15.65-7.48-3.55,1.22-6.33,3.98-7.57,7.48-1.62-4.6-5.86-7.79-10.77-8.13-2.69,4.74-4.03,10.11-3.9,15.55,6.2-1.58,12.58,1.8,14.68,7.77h-.02Z"/><path class="j" d="M409,281.82c.67-4.08,3.74-20.29,11.46-29.07"/><path class="j" d="M405.44,281.93c-.05-4.64-.53-27.42-5.11-41.02"/><path class="a`" d="M425.74,265.97c6.77-2.95,11.71-6.55,11.04-8.06-.67-1.51-6.7-.34-13.47,2.61-6.77,2.95-11.71,6.55-11.04,8.06,.67,1.51,6.7,.34,13.47-2.61Z"/><path class="a`" d="M425.74,224.57c2.43-3.25,3.47-6.57,2.33-7.41-1.15-.84-4.05,1.12-6.48,4.37-2.43,3.25-3.47,6.57-2.33,7.41,1.15,.84,4.05-1.12,6.48-4.37Z"/><path class="a`" d="M389.1,268.32c8.82-1.32,15.78-3.64,15.55-5.18-.24-1.54-7.58-1.72-16.4-.4-8.82,1.32-15.78,3.64-15.55,5.18,.24,1.54,7.58,1.72,16.4,.4Z"/><path class="u" d="M382.94,245.54v.02c2.88,1.59,3.9,5.19,2.29,8.04-1.41,2.49-4.43,3.63-7.17,2.69v.02c7.4,3.29,14.49,3.53,15.84,.56,1.35-2.98-3.57-8.05-10.97-11.34Z"/><path class="u" d="M404.8,221.73c-1.58-.4-3.62,1.95-5.12,5.6-1.8-4.42-4.41-7.38-6.17-6.81-1.76,.57-2.08,4.49-.86,9.11-3.39-2.05-6.46-2.73-7.48-1.48-1.3,1.6,1.21,5.74,5.61,9.25,1.25,1.01,2.6,1.9,4.03,2.65,.8-3.16,4.05-5.08,7.24-4.28,.81,.2,1.57,.57,2.22,1.08,.66-1.4,1.19-2.87,1.58-4.36,1.42-5.43,.95-10.24-1.06-10.75Z"/><path class="u" d="M439.13,246.31c-.49-1.53-3.59-2.01-7.51-1.34,2.83-3.85,4.01-7.6,2.59-8.78-1.42-1.17-4.96,.63-8.27,4.09-.04-3.93-1.06-6.86-2.68-7.06-2.06-.25-4.29,4.05-4.96,9.6-.2,1.59-.25,3.19-.14,4.78,3.14-1,6.5,.71,7.51,3.82,.26,.78,.34,1.61,.25,2.43,1.56-.19,3.09-.52,4.58-.98,5.38-1.67,9.26-4.61,8.64-6.57Z"/><path class="a`" d="M423.78,248.7c-1.57-1.29-3.7-1.7-5.64-1.09,.19,2.64,.87,4.66,1.88,5.41,.95,.87,3.14,1.16,5.87,.84,.22-1.96-.58-3.9-2.11-5.17Z"/><path class="a`" d="M398.74,235.88c-1.94,.63-3.42,2.2-3.91,4.16,2.37,1.24,4.46,1.75,5.64,1.28,1.25-.35,2.65-2.02,3.83-4.49-1.57-1.22-3.66-1.58-5.56-.96Z"/><path class="q" d="M383.6,255.45c-1.39-.77-1.89-2.52-1.11-3.9,.69-1.22,2.16-1.76,3.49-1.3-.16-1.97-1.31-3.72-3.05-4.68l-4.87,10.73c1.87,.65,3.95,.34,5.54-.84Z"/><path class="x" d="M382.35,251.78c-.62,1.36-.08,2.96,1.24,3.68,1.65-1.21,2.55-3.18,2.38-5.21-1.42-.5-3,.16-3.62,1.52Z"/><path class="r" d="M262.89,77.51c3.11,0,5.63-2.49,5.63-5.57s-2.52-5.57-5.63-5.57-5.63,2.49-5.63,5.57,2.52,5.57,5.63,5.57Z"/><path class="r" d="M279.96,77.51c3.11,0,5.63-2.49,5.63-5.57s-2.52-5.57-5.63-5.57-5.63,2.49-5.63,5.57,2.52,5.57,5.63,5.57Z"/><path class="r" d="M297.03,77.51c3.11,0,5.63-2.49,5.63-5.57s-2.52-5.57-5.63-5.57-5.63,2.49-5.63,5.57,2.52,5.57,5.63,5.57Z"/><path class="q" d="M385.15,56.25c5.74,0,10.39,4.6,10.39,10.27v126.31c0,5.67-4.65,10.27-10.39,10.27h-127.74c-5.74,0-10.39-4.6-10.39-10.27V66.52c0-5.67,4.65-10.27,10.39-10.27h127.74Zm0-1.4h-127.74c-6.52,0-11.8,5.23-11.81,11.67v126.31c0,6.44,5.29,11.66,11.81,11.67h127.74c6.52,0,11.8-5.23,11.81-11.67V66.52c0-6.44-5.29-11.67-11.81-11.67Z"/><path class="v" d="M245.65,135.58s-7.51,0-8.53,3.04c-1.02,3.04,1.36,5.4,1.36,5.4,0,0-4.1,2.02-1.36,5.74,0,0-2.05,3.38,1.36,5.4,0,0-2.05,2.36,1.37,4.73,3.42,2.36,8.19,2.7,9.21,1.69,1.21-1.19,.96-2.94-1.4-4.85,0,0,4.47,.46,5.15-1.91,.68-2.36-1.7-3.71-1.7-3.71,0,0,3.07,0,3.07-2.7s-2.73-3.38-2.73-3.38c0,0,1.45-1.03,1.02-2.7-.5-1.99-3.77-2.88-5.47-3.21-.45-.08-.91-.14-1.36-.17v-3.38Z"/><path class="j" d="M238.87,155.45c3.39,1.01,6.89,1.66,10.42,1.94"/><path class="j" d="M237.6,150.03c4.94,1.21,10.03,1.73,15.12,1.54"/><path class="j" d="M238.68,144.42c4.68,1.11,9.53,1.42,14.32,.9"/><path class="v" d="M348.42,199.74s-27.65,7.09-37.22,14.18c-4.32,3.2-9.57,9.11-11.27,11.81-1.7,2.71-8.88,12.83-5.46,13.17,3.42,.34,7.17-5.74,7.17-5.74,0,0-2.05,7.43-1.7,9.79,.35,2.36,3.76,1.69,3.76,1.69,2.73,2.7,5.12-.68,5.12-.68,4.78,3.04,9.92-13.17,9.92-13.17,2.81-1.37,5.39-3.13,7.68-5.23,0,0,30.56-.17,40.12-8.61,6.79-5.99,8.46-17.8,8.46-29.05h-26.57v11.83Z"/><path class="j" d="M348.68,198.92l6.23-1.54"/><path class="j" d="M300.3,235.84c1.77-5.95,3.19-9.46,4.25-11.62"/><path class="j" d="M309.33,226.24c-3.08,6.55-4.96,14.45-5.84,18.35"/><path class="j" d="M314.12,228.6c-2.01,4.55-3.83,11.4-4.96,15.64"/><path class="g" d="M306.14,211.56c-8.32,2.93-17.61,6.44-24.64,9.78-12.6,5.95-14.29,18.04-12.99,37.71"/><path class="p" d="M106.03,308.44c-13.97,2.8-23.92,6.4-23.92,6.4l-13.44-5.89,.03-.29-31.32,28.12,.68,.81c1.73,2.05,4.29,3.24,7,3.24h62.86l-1.89-32.39Z"/><path class="v" d="M82.09,314.84s9.95-3.62,23.92-6.4l1.89,32.39h44.86c12.13,0,22.76-8.41,25.02-20.19,1.5-7.86-.85-16.28-9.3-22.01-13.6-9.21-42.68-21.27-50.19-23.63l-41.31,9.46c-7.85,8.44-6.15,22.28-6.15,22.28l11.25,8.1Z"/><path class="j" d="M106.13,308.88c9.29-1.77,19.66-3.31,34.19-2.64"/><path class="j" d="M119.01,274.66c6.57,2.07,29.66,11.56,44.43,20.07"/><path class="s" d="M75.36,308.91l-34.46,30.92c1.29,.66,2.72,1,4.17,1h25.09l11.94-25.99c-1.87-2.36-4.15-4.37-6.73-5.93Z"/><path class="u" d="M70.84,306.74l-33.46,30.05,.68,.81c.78,.93,1.75,1.69,2.83,2.24l34.47-30.92c-1.42-.89-2.94-1.62-4.52-2.17Z"/><path class="j" d="M63.15,334.93v5.98"/><path class="j" d="M57.69,334.93v5.98"/><path class="i" d="M95.22,204.56c1.06-.1,3.28-.28,5.5-.28"/><path class="p" d="M193.75,192.64s6.66-2.18,8.5,.56c1.84,2.75,.13,5.74,.13,5.74,0,0,4.64,.91,2.95,5.34,0,0,2.97,2.8,.14,5.74,0,0,2.69,1.8-.05,5.07-2.75,3.27-7.4,4.9-8.7,4.18-1.53-.86-1.77-2.67,.05-5.2,0,0-4.32,1.66-5.65-.5-1.33-2.16,.67-4.16,.67-4.16,0,0-3.06,.83-3.8-1.86-.75-2.69,1.77-4.1,1.77-4.1,0,0-1.72-.63-1.77-2.41-.07-2.58,4.51-4.83,5.74-5.38l.03-3.04Z"/><path class="l" d="M188.72,203.93c2.63-.46,9.3-1.86,13.73-4.9"/><path class="l" d="M189.78,210.24c5.55-.69,10.88-2.59,15.59-5.58"/><path class="l" d="M194.74,215.38c.95-.33,7.12-2.52,10.86-4.87"/><path class="w" d="M100.22,258.6c-6.18,.75-13.08,1.85-20.84,3.22l10.92-29.03,4.78-27.67s-15.7,1.69-22.87,9.81c-6.61,7.47-27.32,42.2-19.13,60.43,8.19,18.23,32.78,11.8,38.58,10.11,3.16-.92,7.96-3.04,12.88-4.62l-4.32-22.24Z"/><path class="p" d="M116.25,279.06c7.51,1.01,16.05,4.73,17.41,0,0,0,4.6-.12,3.15-4.44,0,0,2.31-.28,2.65-1.97,.68-3.37-7.51-6.41-7.51-6.41,0,0,6.49,1.01,7.85-.35,1.74-1.72,.05-4.47-10.55-7.01-7.69-1.84-17-1.73-29.05-.27l4.32,22.23c4.12-1.3,8.3-2.23,11.71-1.77Z"/><path class="l" d="M134.87,266.66c-3.64-1.38-10.55-3.67-15.55-4.48"/><path class="l" d="M136.96,274.47c-4.75-2.1-13.91-6-18.83-6.73"/><path class="l" d="M133.28,279.41c-3.66-1.83-10.98-5.28-16.18-6.26"/><path class="i" d="M100.28,259.11c-3.34,.43-14.01,1.88-29.95,4.93"/><path class="r" d="M370.1,192.97c8.39,0,15.19-6.73,15.19-15.02s-6.8-15.02-15.19-15.02-15.19,6.73-15.19,15.02,6.8,15.02,15.19,15.02Z"/><path class="x" d="M370.1,169.17c2.36,0,4.27,1.89,4.27,4.22v5.06c0,2.33-1.91,4.22-4.27,4.22s-4.27-1.89-4.27-4.22v-5.06c0-2.33,1.91-4.22,4.27-4.22Z"/><path class="k" d="M370.1,181.33v4.73"/><path class="k" d="M367.66,186.05h4.9"/></g></g></g></g></svg>