<?xml version="1.0" encoding="UTF-8"?><svg xmlns="http://www.w3.org/2000/svg" xmlns:xlink="http://www.w3.org/1999/xlink" viewBox="0 0 500 447.46"><defs><style>.e,.f,.g,.h,.i,.j,.k,.l,.m,.n,.o,.p{fill:none;}.q{fill:#f4e6d8;}.r{fill:#eaa58b;}.s{fill:#f5ebdd;}.t{fill:#fff;}.u{fill:#ffbe21;}.v{fill:#ffb7d5;}.w{fill:#ff7235;}.x{fill:#a15842;}.y{fill:#ca7358;}.a`{fill:#3ec1f3;}.aa{fill:#724342;}.ab{fill:#4756df;}.ac{fill:#30242a;}.f,.g,.h,.i,.j,.k,.l,.m,.n,.o{stroke-width:4px;}.f,.g,.h,.i,.j,.k,.l,.n{stroke-linecap:round;}.f,.g,.n,.o{stroke-linejoin:round;}.f,.k,.o{stroke:#000;}.g,.j{stroke:#bb7259;}.h{stroke:#30242a;}.h,.i,.j,.k,.l,.m{stroke-miterlimit:10;}.i,.n{stroke:#724342;}.l{stroke:#f5ebdc;}.m,.p{stroke:#fff;}.ad{clip-path:url(#d);}.ae{fill:rgba(255,255,255,.25);fill-rule:evenodd;}</style><clipPath id="d"><rect class="e" y="45.39" width="500" height="388"/></clipPath></defs><g id="a"/><g id="b"><g id="c"><path class="ae" d="M84.63,113.4C124.24,63.07,170.02-8.34,233.02,3.21c63.7,11.67,59.52,107.84,102.61,156.18,36.73,41.21,109.74,45.88,124.8,98.98,17.19,60.58,4.06,138.58-46.9,175.56-49.29,35.76-114.39-10.18-175.14-14.46-51.27-3.62-106.75,22.2-148.1-8.33-44.57-32.92-61.44-91.79-62.49-147.19-1.06-55.75,22.35-106.73,56.83-150.55Z"/><path class="p" d="M98.54,111.94C138.16,61.61,183.94-9.8,246.94,1.74c63.7,11.67,59.52,107.84,102.61,156.18,36.73,41.21,109.74,45.88,124.8,98.98,17.19,60.58,4.06,138.58-46.91,175.56-49.29,35.76-114.39-10.18-175.14-14.46-51.27-3.62-106.75,22.2-148.1-8.33-44.57-32.92-61.44-91.79-62.49-147.19-1.06-55.75,22.35-106.73,56.83-150.55Z"/><g class="ad"><g><path class="t" d="M480.46,59.94c9.9,0,17.93,8.04,17.93,17.97V248.31c0,9.92-8.03,17.97-17.93,17.97h-220.64c-9.9,0-17.93-8.04-17.93-17.97V77.91c0-9.92,8.03-17.97,17.93-17.97h220.64Zm0-1.61h-220.64c-10.79,.01-19.53,8.77-19.54,19.58V248.31c.01,10.81,8.75,19.56,19.54,19.58h220.64c10.79-.01,19.52-8.77,19.54-19.58V77.91c-.01-10.81-8.75-19.56-19.54-19.58Z"/><path class="s" d="M480.46,59.94h-220.64c-9.9,0-17.93,8.04-17.93,17.97V248.31c0,9.92,8.03,17.97,17.93,17.97h220.64c9.9,0,17.93-8.04,17.93-17.97V77.91c0-9.92-8.03-17.97-17.93-17.97Z"/><path class="m" d="M241.89,98.55H499.2"/><path class="t" d="M260.76,85.68c3.77,0,6.82-3.06,6.82-6.84s-3.05-6.84-6.82-6.84-6.82,3.06-6.82,6.84,3.05,6.84,6.82,6.84Z"/><path class="t" d="M281.44,85.68c3.77,0,6.82-3.06,6.82-6.84s-3.05-6.84-6.82-6.84-6.82,3.06-6.82,6.84,3.05,6.84,6.82,6.84Z"/><path class="t" d="M302.12,85.68c3.77,0,6.82-3.06,6.82-6.84s-3.06-6.84-6.82-6.84-6.82,3.06-6.82,6.84,3.05,6.84,6.82,6.84Z"/><path class="t" d="M254.47,181.41c9.9,0,17.93,8.04,17.93,17.97v170.4c0,9.92-8.03,17.97-17.93,17.97H33.83c-9.9,0-17.93-8.04-17.93-17.97V199.38c0-9.92,8.03-17.97,17.93-17.97H254.47Zm0-1.61H33.83c-10.79,.01-19.53,8.77-19.54,19.58v170.4c.01,10.81,8.75,19.56,19.54,19.58H254.47c10.79-.01,19.52-8.77,19.54-19.58V199.38c-.01-10.81-8.75-19.56-19.54-19.58Z"/><path class="s" d="M254.47,181.41H33.83c-9.9,0-17.93,8.04-17.93,17.97v170.4c0,9.92,8.03,17.97,17.93,17.97H254.47c9.9,0,17.93-8.04,17.93-17.97V199.38c0-9.92-8.03-17.97-17.93-17.97Z"/><path class="m" d="M15.9,220.02H273.2"/><path class="t" d="M34.77,207.15c3.77,0,6.82-3.06,6.82-6.84s-3.05-6.84-6.82-6.84-6.82,3.06-6.82,6.84,3.06,6.84,6.82,6.84Z"/><path class="t" d="M55.45,207.15c3.77,0,6.82-3.06,6.82-6.84s-3.05-6.84-6.82-6.84-6.82,3.06-6.82,6.84,3.06,6.84,6.82,6.84Z"/><path class="t" d="M76.12,207.15c3.77,0,6.82-3.06,6.82-6.84s-3.05-6.84-6.82-6.84-6.82,3.06-6.82,6.84,3.05,6.84,6.82,6.84Z"/><path class="a`" d="M205.14,193.72v-.65l.19-.15-.19-.04c0-3.46-.29-13.73-3.64-21.56-2.98-6.95-7.09-10.17-9.94-8.94-2.85,1.23-3.36,6.43-.4,13.38,1.65,3.87,4.26,7.61,6.77,10.69-5.05-4.8-11.95-10.75-18.18-14.02-8.43-4.42-14.98-4.29-16.8-.82-1.82,3.47,1.81,8.96,10.23,13.39,5.48,2.88,12.96,5.02,19.32,6.47-3.41-.12-6.82,.17-10.16,.86-7.37,1.66-11.27,5.12-10.59,8.15,.68,3.03,5.68,4.49,13.05,2.84,8.21-1.85,16.6-7.52,19.48-9.61l.51,.08c.21,.2,.33,.31,.33,.31v-.26h.12l-.09-.11Z"/><path class="a`" d="M286.18,230.29l-.12-.12v.25l.12-.13Z"/><path class="a`" d="M276.56,240.03l-.1-19.38-9.88-9.79,.2,39.07,9.78-9.89Z"/><path class="a`" d="M208.34,186.69l.33,65.2,9.88,9.79-.43-84.88-9.77,9.9Z"/><path class="a`" d="M175.98,219.46l23.1,22.91-.23-46.06-22.86,23.15Z"/><path class="a`" d="M257.28,259.54l-.29-58.2-9.88-9.8,.39,77.9,9.78-9.9Z"/><path class="a`" d="M237.52,182.02l-9.87-9.79,.5,98.97,8.9,8.82,.97-.98-.49-97.03Z"/><path class="ab" d="M198.84,196.31l.23,46.06,9.6,9.52-.33-65.2-9.5,9.62Z"/><path class="ab" d="M225.11,169.72l-7,7.08,.43,84.88,9.59,9.52-.5-98.97-2.53-2.51Z"/><path class="ab" d="M247.51,269.44l-.39-77.9-9.59-9.52,.49,97.03,9.5-9.61Z"/><path class="ab" d="M266.78,249.93l-.2-39.07-9.59-9.52,.29,58.2,9.5-9.61Z"/><path class="ab" d="M286.06,230.42v-.25l-9.6-9.52,.1,19.38,9.5-9.61Z"/><path class="o" d="M240.35,185.04l-49.05,49.65"/><path class="ab" d="M227.65,167.15l-54.22,54.88,14.73,14.61,54.22-54.88-14.73-14.61Z"/><path class="r" d="M212.99,255.82s5.22-17.29,2.01-20.11c-3.88-3.4-10.44,7.64-15.72,20.91-5.56,13.95-21.68,53.49-22.48,56.31,0,0-27.46-15.04-39.74-20.51-10.84-4.83-24.04-6.58-24.04-6.58l-1.68-10.1s7.84,2.82,14.56-1.12c6.72-3.94,8.4-11.23,6.16-22.45-1.33-6.65-1.28-14.88-2.41-22.22-4.47,.76-11.02-.78-11.02-.78-8.96,10.1-18.46,12.34-18.46,12.34-6.16-6.73-17.37-6.73-19.04,2.82-1.86,10.56,11.2,13.47,11.2,13.47,0,0,2.66,15.32-2.96,30.61-7.81,21.24-39.28,26.87-52.18,17.7-23.28,16.49-2.69,66.6,16.86,90.1,16.06,19.31,73.06,9.25,73.06,9.25,0,0,6.42,4.83,14.05,6.44,13.65,26.95,19.27,19.31,19.27,19.31,0,0,4.82,5.23,8.43-.4,7.22,.4,6.82-4.02,.4-19.31,7.23,8.85,14.3,8.88,14.45,6.44,.4-6.44-20.87-28.96-34.12-34.59-9.95-4.23-14.85-5.63-14.85-5.63l-2.01-32.58s42.6,23.44,62.62,12.47c25.69-14.08,36.13-83.26,36.13-83.26l-18.46-18.5Z"/><path class="ac" d="M89.36,288.4c5.62-15.28,2.94-30.62,2.94-30.62,0,0-13.06-2.91-11.2-13.47,1.68-9.54,12.88-9.54,19.04-2.82,0,0,9.52-2.24,18.46-12.34,0,0,6.55,1.54,11.02,.78-.78-5.06-2.12-9.7-4.87-13.13-6.72-8.41-25.2-14.03-39.76-3.37-14.56,10.66-13.44,28.06-12.88,34.79,0,0-25.18-6.18-38.58,12.81-16.46,23.33,3.61,45.05,3.61,45.05,12.92,9.18,44.39,3.55,52.2-17.69Z"/><path class="w" d="M133.41,356.52l-.7-11.41h.04l-3.36-55.57c-3.71-1.15-7.47-2.1-11.28-2.84l-1.85,38.3h-31.31l-11.89-19.37c-4.25,2.1-8.79,3.52-13.48,4.21l17.89,44.42,6.68,16.59s15.25,.8,28.9,2.82c13.65,2.01,21.68,4.02,21.68,4.02l-1.3-21.17Z"/><path class="j" d="M213.59,256.82c-.33,1.05-.67,2.07-1,3.02,0,0,10.24,11.86,3.81,27.15"/><path class="j" d="M175.86,312.57l-4.21,10.81"/><path class="j" d="M170.84,413.35c-1.7-3.86-3.8-8.37-5.65-11.67"/><path class="j" d="M157.66,405.7c4.82,8.5,8.59,18.02,10.96,24.7"/><path class="j" d="M150.17,410.46c3.61,6.64,7.13,14.39,9.74,20.47"/><path class="i" d="M134.12,361.4l-53.39-.4"/><path class="y" d="M64.54,386.8c-5.3-1.8-11.15-.68-15.41,2.96,1.63,2.3,3.27,4.46,4.9,6.43,4.44,5.34,12.01,8.45,20.63,10.11,2.19-8.2-2.17-16.76-10.12-19.5Z"/><path class="y" d="M195.33,357.58c3.49-1.91,6.69-4.83,9.63-8.47-1.9-2.87-4.7-5.03-7.95-6.15-8.33-2.87-17.45,1.72-20.38,10.24-.76,2.22-1.05,4.58-.83,6.92,7.29,.86,14.21,.37,19.53-2.54Z"/><path class="u" d="M59.57,309.84c-8.65,1.29-17.09,.02-22.39-3.75-16.92,11.99-10.67,41.72,1.52,66.1l38.77-17.93-17.89-44.42Z"/><path class="u" d="M89.36,288.4c-2.9,7.88-9.06,13.61-16.31,17.23l11.89,19.37h31.31l1.85-38.28c-3.08-.61-5.09-.88-5.09-.88l-.78-4.68h-20.79c-.53,2.46-1.23,4.88-2.1,7.24Z"/><path class="u" d="M137.05,292.42c-2.5-1.1-5.06-2.05-7.67-2.86l3.36,55.57c5.33,2.83,10.81,5.37,16.42,7.6l16.46-45.83c-9.02-4.83-21.39-11.26-28.57-14.48Z"/><path class="ac" d="M31.55,326.63c10.75-6.22,15.1-18.85,9.71-28.21-5.39-9.36-18.48-11.9-29.23-5.68-10.75,6.22-15.1,18.85-9.71,28.21,5.39,9.36,18.48,11.9,29.23,5.68Z"/><path class="f" d="M27.34,287.79s2.81,16.89,16.46,22.12"/><path class="l" d="M330.81,188.45l1.61,12.07"/><path class="x" d="M464.28,174.17s18.06-21.32-2.01-39.42c-12.27-11.06-27-7.98-27-7.98,.56-6.73,1.68-24.13-12.88-34.79-14.56-10.66-33.04-5.05-39.76,3.37s-5.04,24.13-7.28,35.35c-2.24,11.22-.56,18.5,6.16,22.45s14.56,1.12,14.56,1.12l-1.68,10.1s-13.2,1.75-24.04,6.58c-12.28,5.47-39.74,20.51-39.74,20.51-.8-2.82-5.22-48.67-7.23-63.55-1.53-11.34-6.82-25.34-10.84-22.52-4.01,2.82-2.41,11.66-2.41,11.66l-20.47,21.32s-10.12,73.09,14.05,92.91c17.66,14.48,63.82-8.85,63.82-8.85l-6.02,43.84h55.08s-10.33,2.75-31.8,12.47c-24.89,11.26-39.34,42.63-37.73,45.05,1.61,2.41,6.42,.4,12.85-7.64-5.62,20.92,0,19.31,3.61,18.9,3.67,5.29,8.43-1.21,8.43-1.21,0,0,6.42,6.03,16.46-22.12,4.56-2.15,8.76-5,12.44-8.45,0,0,63.82-4.02,76.27-26.55,12.44-22.52,4.01-81.25-12.84-102.57Z"/><path class="ac" d="M380.84,125.62c.92,0,1.66-.75,1.66-1.67s-.74-1.67-1.66-1.67-1.67,.75-1.67,1.67,.75,1.67,1.67,1.67Z"/><path class="j" d="M83.94,370.25l-9.23-.4"/><path class="j" d="M111.2,276.68c-2.43-.83-4.78-1.87-7.04-3.08"/><path class="f" d="M71.51,248.12c.31,3.07,.72,6.89,1.12,9.91"/><path class="n" d="M109.21,360.96s-9.3-13.19-4.98-14.92c3.49-1.4,4.48,8.86,4.98,14.92Z"/><path class="n" d="M109.51,361.2s4.57-10.58,7.44-8.89c2.32,1.37-3.79,6.12-7.44,8.89Z"/><path class="j" d="M113.93,286.12l.71,4.29"/><path class="j" d="M93.95,248.76l-5-2.78"/><path class="g" d="M117.81,258.17c.29,5.28,5.7,5.72,7.02,2.01l-7.02-2.01Z"/><path class="aa" d="M114.57,248.9c.92,0,1.67-.75,1.67-1.67s-.75-1.67-1.67-1.67-1.67,.75-1.67,1.67,.75,1.67,1.67,1.67Z"/><path class="aa" d="M126.96,245.88c.92,0,1.67-.75,1.67-1.67s-.75-1.67-1.67-1.67-1.67,.75-1.67,1.67,.75,1.67,1.67,1.67Z"/><path class="j" d="M122.7,249.27c.4,1.07,.78,2.24,.66,2.68-.17,.53-.51,.98-.97,1.28"/><path class="v" d="M107.97,204.62l2.12,2.34,1.4,1.55c.9,3.14-5.62,8.14-14.68,11.23s-17.26,3.12-18.47,.09l.17-2.09,.26-3.15c3.4,.8,9.3,.16,15.61-2.01,6.31-2.17,11.38-5.23,13.57-7.96Z"/><path class="w" d="M91.95,205.44c4.74-1.61,8.77-3.76,11.42-5.88l4.6,5.07c-2.19,2.74-7.27,5.82-13.58,7.98-6.32,2.16-12.21,2.82-15.61,2.01l.55-6.84c3.39,.06,7.89-.72,12.63-2.34Z"/><path class="v" d="M98.45,194.13l4.92,5.42c-2.65,2.12-6.69,4.26-11.42,5.88-4.74,1.62-9.23,2.41-12.63,2.34l.59-7.31c6.55-.79,12.87-2.95,18.54-6.34Z"/><path class="w" d="M87.07,191.11c2.14-.73,4.23-1.6,6.25-2.63l5.13,5.65c-5.67,3.38-11.99,5.54-18.54,6.34l.62-7.61c2.22-.43,4.41-1.01,6.55-1.75Z"/><path class="v" d="M80.53,192.86l1.37-16.97,11.43,12.6c-2.02,1.02-4.11,1.9-6.25,2.63-2.14,.74-4.33,1.32-6.55,1.75Z"/><path class="w" d="M80.93,179.25c3.41,0,6.18-2.77,6.18-6.19s-2.77-6.19-6.18-6.19-6.18,2.77-6.18,6.19,2.77,6.19,6.18,6.19Z"/><path class="q" d="M90.76,264.67c2.77,0,5.02-2.25,5.02-5.03s-2.25-5.03-5.02-5.03-5.02,2.25-5.02,5.03,2.25,5.03,5.02,5.03Z"/><path class="v" d="M405.32,285.92l1.03,2.31,6.18,13.88c19.03-2.36,55.5-8.94,64.59-25.38,12.44-22.52,4.01-81.25-12.84-102.57-14.05,15.48-35.77,11.26-44.49-1.61-1.61,.4-3.24,.67-4.89,.81-2.57,.24-5.16,.14-7.71-.31-3.05-.51-5.94-1.73-8.43-3.56-3.18-2.39-4.34-4.98-4.34-4.98l-.54-.08c-2.46,.37-13.93,2.23-23.55,6.51-12.28,5.47-39.74,20.51-39.74,20.51-.36-1.26-1.45-11.21-2.72-23.13l-15.59,6.03-1.69,.66-8.06,3.13-14.66,5.69c1.05,18.94,5,38.55,15.84,47.44,17.66,14.48,63.82-8.85,63.82-8.85l-6.02,43.84h55.08s-5.65,1.51-17.26,6.21l2.67,6,3.31,7.44Z"/><path class="w" d="M329.4,213.59c-10.2,0-18.46,8.28-18.46,18.5,0,.96,.07,1.92,.22,2.87,10.52,2.82,24.99-.49,36.64-4.42-.81-9.58-8.8-16.95-18.4-16.95Z"/><path class="w" d="M311.34,180.2c0-1.74-.25-3.49-.73-5.16l-8.06,3.13-14.66,5.69c.27,4.85,.73,9.75,1.45,14.5,10.01,1.96,19.71-4.57,21.67-14.6,.23-1.17,.35-2.36,.35-3.56Z"/><path class="w" d="M364.73,193.07c10.2,0,18.46-8.29,18.46-18.51,0-2.59-.55-5.15-1.6-7.52-3.84,1.02-7.6,2.32-11.24,3.9-5.65,2.52-14.52,7.06-22.45,11.24,2.99,6.62,9.57,10.88,16.83,10.88Z"/><path class="w" d="M409.68,235.31c10.2,0,18.46-8.28,18.46-18.5s-8.27-18.5-18.46-18.5-18.47,8.28-18.47,18.5,8.27,18.5,18.47,18.5Z"/><path class="w" d="M373.56,246.16c-3.4,0-6.74,.94-9.63,2.73l-2.41,17.38h30.43c.05-.53,.08-1.07,.08-1.61,0-10.22-8.26-18.5-18.46-18.5Z"/><path class="w" d="M439.82,183.97c0,.35-.03,.7-.03,1.05,0,10.22,8.27,18.5,18.47,18.49,6.73,0,12.92-3.67,16.16-9.57-2.84-7.98-6.27-14.88-10.15-19.78-7.09,7.81-16.12,10.6-24.45,9.81Z"/><path class="w" d="M457.05,262.25c0,9.72,7.51,17.79,17.2,18.45,1.11-1.21,2.07-2.54,2.87-3.97,4.09-7.41,5.93-18.74,5.95-31.37-9.3-4.18-20.23,0-24.4,9.32-1.06,2.38-1.61,4.96-1.61,7.57Z"/><path class="w" d="M418.11,280.76c-4.77,0-9.36,1.85-12.79,5.17l1.03,2.31,6.18,13.88c8.06-.98,16.07-2.37,23.99-4.16-.68-9.69-8.72-17.2-18.41-17.2Z"/><path class="l" d="M449.22,254.81c-10.79,3.68-25.34,8.17-34.32,11.06"/><path class="l" d="M437.79,215.72l3.81,41.51"/><path class="h" d="M358.83,317.2c1.32-4.07,4.12-12.44,6.59-17.8"/><path class="h" d="M373.26,302.77c-5.6,12.07-8.88,25.82-10.1,31.52"/><path class="h" d="M381.1,306.7c-3.61,8.35-6.78,19.75-8.55,26.76"/><path class="l" d="M368.83,208.14l-2.18,14.6"/><path class="ac" d="M462.27,134.75c-12.27-11.06-27-7.98-27-7.98,.56-6.73,1.68-24.13-12.88-34.79-14.56-10.66-33.04-5.05-39.76,3.37-2.74,3.43-4.08,8.08-4.86,13.13,4.47,.76,11.03-.78,11.03-.78,8.96,10.1,18.46,12.34,18.46,12.34,6.16-6.73,17.36-6.73,19.04,2.82,1.86,10.56-11.2,13.47-11.2,13.47,0,0-2.77,15.05,1.81,30.21,.65,2.14,1.62,4.18,2.88,6.03,8.71,12.87,30.44,17.09,44.48,1.61,.69-.86,1.34-1.75,1.93-2.69,4.07-6.29,11.86-22.51-3.92-36.74Z"/><path class="h" d="M396,154.98c2.6-.76,5.1-1.81,7.46-3.14"/><path class="k" d="M435.89,126.65c-.3,3.07-.71,6.89-1.12,9.91"/><path class="h" d="M413.45,127.29l5-2.78"/><path class="h" d="M385.04,140.35c.92,.57,4.36,1.02,5.76-1.63"/><path class="ac" d="M394.09,127.83c.92,0,1.67-.75,1.67-1.67s-.74-1.67-1.67-1.67-1.67,.75-1.67,1.67,.75,1.67,1.67,1.67Z"/><path class="h" d="M384.84,130.23c-.26,1.11-.47,2.32-.29,2.74,.24,.5,.64,.9,1.14,1.14"/><path class="k" d="M384.17,125.51c1-4.33-1.34-8.57-5.23-9.47-3.89-.9-7.85,1.87-8.85,6.2-1,4.33,1.34,8.57,5.23,9.47s7.85-1.87,8.85-6.2Z"/><path class="k" d="M401.84,128.33c1-4.33-1.34-8.57-5.23-9.47-3.89-.9-7.85,1.87-8.85,6.2-1,4.33,1.34,8.57,5.23,9.47,3.89,.9,7.85-1.87,8.85-6.2Z"/><path class="k" d="M384.6,124.9l2.81,.4"/><path class="h" d="M305.11,119.27s7.63,6.43,8.43,8.04c0,0-12.44,12.87-2.81,28.56"/><path class="ac" d="M344.93,73.19c1.51,.92,1.98,2.9,1.06,4.41l-60.8,99.59c-.92,1.51-2.89,1.99-4.4,1.06-1.51-.92-1.98-2.9-1.06-4.41l60.81-99.59c.92-1.51,2.89-1.99,4.4-1.06Z"/><path class="a`" d="M351.51,51.72l6.91-5.54c1.52-1.22,3.74-.98,4.96,.55,.65,.81,.91,1.86,.71,2.88l-1.66,8.72c-.27,1.4,.34,2.84,1.53,3.62l7.39,4.87c1.63,1.07,2.09,3.27,1.02,4.9-.57,.87-1.49,1.44-2.51,1.57l-8.76,1.12c-1.42,.18-2.59,1.2-2.97,2.58l-2.34,8.55c-.52,1.89-2.46,3-4.35,2.47-.99-.27-1.82-.97-2.26-1.9l-3.77-8.04c-.61-1.29-1.94-2.08-3.36-2.01l-8.83,.4c-1.95,.12-3.62-1.36-3.74-3.31-.06-1.06,.35-2.09,1.12-2.81l6.45-6.07c1.04-.98,1.39-2.49,.89-3.83l-3.12-8.3c-.69-1.83,.23-3.88,2.05-4.57,.97-.37,2.05-.29,2.96,.21l7.76,4.28c1.25,.69,2.8,.56,3.92-.34Z"/><path class="x" d="M310.13,117.05c-2.81-2.41-8.21-3.98-10.84-2.41-4.44,2.64-3.35,7.78-3.35,7.78,0,0-7.23-1.13-7.14,6.29,0,0-5.82,2.55-3.27,8.38,0,0-5.03,1.28-2.64,7.49,1.95,5.06,6.44,7.71,9.17,9.09,2.41,1.21,6.1-.54,4.82-5.23,0,0,2.81,.8,4.42-.8,2.21-2.22,1.2-6.44,1.2-6.44,0,0,2.81,.81,4.82-.8,2.45-1.96,1.2-5.63,1.2-5.63,1.83-.24,3.37-1.48,4.01-3.22,1.61-4.02-4.42-8.85-4.42-8.85l2.01-5.63Z"/><path class="h" d="M285.25,137.31c3.53,4.3,7.43,8.29,11.64,11.92"/><path class="h" d="M288.86,128.67c4.14,5.07,8.86,9.63,14.07,13.59"/><path class="h" d="M295.28,122.75c3.79,4.99,8.36,9.35,13.52,12.9"/><path class="h" d="M305.11,119.27s3.76,3.17,6.28,5.63"/><path class="u" d="M399.43,83.16l-2.12,2.34-1.41,1.55c-.9,3.14,5.62,8.14,14.68,11.23,9.06,3.1,17.26,3.12,18.46,.09l-.17-2.09-.25-3.15c-3.4,.8-9.3,.16-15.62-2.01-6.32-2.17-11.38-5.23-13.58-7.96Z"/><path class="w" d="M415.45,83.97c-4.74-1.61-8.77-3.76-11.42-5.88l-4.6,5.07c2.2,2.74,7.27,5.82,13.58,7.98,6.32,2.16,12.21,2.82,15.62,2.01l-.55-6.84c-3.39,.06-7.89-.72-12.63-2.34Z"/><path class="u" d="M408.95,72.67l-4.92,5.42c2.65,2.12,6.69,4.26,11.42,5.88,4.74,1.62,9.23,2.41,12.63,2.34l-.59-7.31c-6.55-.79-12.87-2.95-18.54-6.33Z"/><path class="w" d="M420.33,69.64c-2.14-.73-4.24-1.6-6.25-2.63l-5.13,5.63c5.67,3.38,11.99,5.54,18.54,6.33l-.61-7.61c-2.22-.42-4.41-1-6.55-1.73Z"/><path class="u" d="M426.88,71.39l-1.37-16.97-11.43,12.6c2.02,1.02,4.11,1.9,6.25,2.63,2.14,.74,4.33,1.32,6.55,1.75Z"/><path class="w" d="M426.47,57.78c3.41,0,6.18-2.77,6.18-6.19s-2.77-6.19-6.18-6.19-6.18,2.77-6.18,6.19,2.77,6.19,6.18,6.19Z"/></g></g></g></g></svg>