<svg width="669" height="313" viewBox="0 0 669 313" fill="none" xmlns="http://www.w3.org/2000/svg">
<line x1="78" y1="10" x2="669" y2="10" stroke="white" stroke-opacity="0.25" stroke-width="2"/>
<line x1="78" y1="57" x2="669" y2="57" stroke="white" stroke-opacity="0.25" stroke-width="2"/>
<line x1="78" y1="106" x2="669" y2="106" stroke="white" stroke-opacity="0.25" stroke-width="2"/>
<line x1="78" y1="153" x2="669" y2="153" stroke="white" stroke-opacity="0.25" stroke-width="2"/>
<rect x="617" y="65" width="30" height="89" fill="#FFFBFB"/>
<rect x="582" y="113" width="30" height="41" fill="#CBD4FF"/>
<rect x="547" y="134" width="30" height="20" fill="#A3B2FF"/>
<rect x="463" y="82" width="30" height="72" fill="#FFFBFB"/>
<rect x="428" y="120.831" width="30" height="33.1685" fill="#CBD4FF"/>
<rect x="393" y="137.82" width="30" height="16.1798" fill="#A3B2FF"/>
<rect x="309" y="100" width="30" height="54" fill="#FFFBFB"/>
<rect x="274" y="129.124" width="30" height="24.8764" fill="#CBD4FF"/>
<rect x="239" y="141.865" width="30" height="12.1348" fill="#A3B2FF"/>
<rect x="159" y="113" width="30" height="41" fill="#FFFBFB"/>
<rect x="124" y="135.112" width="30" height="18.8876" fill="#CBD4FF"/>
<rect x="89" y="144.787" width="30" height="9.21348" fill="#A3B2FF"/>
<path d="M42.96 147.016C42.96 145.171 43.2693 143.731 43.888 142.696C44.5173 141.651 45.5947 141.128 47.12 141.128C48.6453 141.128 49.7173 141.651 50.336 142.696C50.9653 143.731 51.28 145.171 51.28 147.016C51.28 148.883 50.9653 150.344 50.336 151.4C49.7173 152.445 48.6453 152.968 47.12 152.968C45.5947 152.968 44.5173 152.445 43.888 151.4C43.2693 150.344 42.96 148.883 42.96 147.016ZM49.488 147.016C49.488 146.152 49.4293 145.421 49.312 144.824C49.2053 144.227 48.9813 143.741 48.64 143.368C48.2987 142.984 47.792 142.792 47.12 142.792C46.448 142.792 45.9413 142.984 45.6 143.368C45.2587 143.741 45.0293 144.227 44.912 144.824C44.8053 145.421 44.752 146.152 44.752 147.016C44.752 147.912 44.8053 148.664 44.912 149.272C45.0187 149.88 45.2427 150.371 45.584 150.744C45.936 151.117 46.448 151.304 47.12 151.304C47.792 151.304 48.2987 151.117 48.64 150.744C48.992 150.371 49.2213 149.88 49.328 149.272C49.4347 148.664 49.488 147.912 49.488 147.016ZM52.922 144.152C52.922 143.373 53.146 142.765 53.594 142.328C54.0527 141.88 54.6393 141.656 55.354 141.656C56.0687 141.656 56.65 141.88 57.098 142.328C57.5567 142.765 57.786 143.373 57.786 144.152C57.786 144.931 57.5567 145.544 57.098 145.992C56.65 146.44 56.0687 146.664 55.354 146.664C54.6393 146.664 54.0527 146.44 53.594 145.992C53.146 145.544 52.922 144.931 52.922 144.152ZM62.682 141.864L56.298 153H54.506L60.89 141.864H62.682ZM55.354 142.76C54.682 142.76 54.346 143.224 54.346 144.152C54.346 145.091 54.682 145.56 55.354 145.56C55.674 145.56 55.9193 145.448 56.09 145.224C56.2713 144.989 56.362 144.632 56.362 144.152C56.362 143.224 56.026 142.76 55.354 142.76ZM59.434 150.696C59.434 149.917 59.658 149.309 60.106 148.872C60.5647 148.424 61.1513 148.2 61.866 148.2C62.57 148.2 63.146 148.424 63.594 148.872C64.0527 149.309 64.282 149.917 64.282 150.696C64.282 151.475 64.0527 152.088 63.594 152.536C63.146 152.984 62.57 153.208 61.866 153.208C61.1513 153.208 60.5647 152.984 60.106 152.536C59.658 152.088 59.434 151.475 59.434 150.696ZM61.85 149.304C61.178 149.304 60.842 149.768 60.842 150.696C60.842 151.624 61.178 152.088 61.85 152.088C62.522 152.088 62.858 151.624 62.858 150.696C62.858 149.768 62.522 149.304 61.85 149.304Z" fill="white"/>
<path d="M43.968 108.52C44.992 107.635 45.7973 106.909 46.384 106.344C46.9813 105.768 47.4773 105.171 47.872 104.552C48.2667 103.933 48.464 103.315 48.464 102.696C48.464 102.056 48.3093 101.555 48 101.192C47.7013 100.829 47.2267 100.648 46.576 100.648C45.9467 100.648 45.456 100.851 45.104 101.256C44.7627 101.651 44.5813 102.184 44.56 102.856H42.8C42.832 101.64 43.1947 100.712 43.888 100.072C44.592 99.4213 45.4827 99.096 46.56 99.096C47.7227 99.096 48.6293 99.416 49.28 100.056C49.9413 100.696 50.272 101.549 50.272 102.616C50.272 103.384 50.0747 104.125 49.68 104.84C49.296 105.544 48.832 106.179 48.288 106.744C47.7547 107.299 47.072 107.944 46.24 108.68L45.52 109.32H50.592V110.84H42.816V109.512L43.968 108.52ZM51.9064 102.152C51.9064 101.373 52.1304 100.765 52.5784 100.328C53.037 99.88 53.6237 99.656 54.3384 99.656C55.053 99.656 55.6344 99.88 56.0824 100.328C56.541 100.765 56.7704 101.373 56.7704 102.152C56.7704 102.931 56.541 103.544 56.0824 103.992C55.6344 104.44 55.053 104.664 54.3384 104.664C53.6237 104.664 53.037 104.44 52.5784 103.992C52.1304 103.544 51.9064 102.931 51.9064 102.152ZM61.6664 99.864L55.2824 111H53.4904L59.8744 99.864H61.6664ZM54.3384 100.76C53.6664 100.76 53.3304 101.224 53.3304 102.152C53.3304 103.091 53.6664 103.56 54.3384 103.56C54.6584 103.56 54.9037 103.448 55.0744 103.224C55.2557 102.989 55.3464 102.632 55.3464 102.152C55.3464 101.224 55.0104 100.76 54.3384 100.76ZM58.4184 108.696C58.4184 107.917 58.6424 107.309 59.0904 106.872C59.549 106.424 60.1357 106.2 60.8504 106.2C61.5544 106.2 62.1304 106.424 62.5784 106.872C63.037 107.309 63.2664 107.917 63.2664 108.696C63.2664 109.475 63.037 110.088 62.5784 110.536C62.1304 110.984 61.5544 111.208 60.8504 111.208C60.1357 111.208 59.549 110.984 59.0904 110.536C58.6424 110.088 58.4184 109.475 58.4184 108.696ZM60.8344 107.304C60.1624 107.304 59.8264 107.768 59.8264 108.696C59.8264 109.624 60.1624 110.088 60.8344 110.088C61.5064 110.088 61.8424 109.624 61.8424 108.696C61.8424 107.768 61.5064 107.304 60.8344 107.304Z" fill="white"/>
<path d="M42.736 62.568V61.192L48.112 53.48H50.32V60.984H51.808V62.568H50.32V65H48.528V62.568H42.736ZM48.608 55.336L44.832 60.984H48.608V55.336ZM53.0314 56.152C53.0314 55.3733 53.2554 54.7653 53.7034 54.328C54.162 53.88 54.7487 53.656 55.4634 53.656C56.178 53.656 56.7594 53.88 57.2074 54.328C57.666 54.7653 57.8954 55.3733 57.8954 56.152C57.8954 56.9307 57.666 57.544 57.2074 57.992C56.7594 58.44 56.178 58.664 55.4634 58.664C54.7487 58.664 54.162 58.44 53.7034 57.992C53.2554 57.544 53.0314 56.9307 53.0314 56.152ZM62.7914 53.864L56.4074 65H54.6154L60.9994 53.864H62.7914ZM55.4634 54.76C54.7914 54.76 54.4554 55.224 54.4554 56.152C54.4554 57.0907 54.7914 57.56 55.4634 57.56C55.7834 57.56 56.0287 57.448 56.1994 57.224C56.3807 56.9893 56.4714 56.632 56.4714 56.152C56.4714 55.224 56.1354 54.76 55.4634 54.76ZM59.5434 62.696C59.5434 61.9173 59.7674 61.3093 60.2154 60.872C60.674 60.424 61.2607 60.2 61.9754 60.2C62.6794 60.2 63.2554 60.424 63.7034 60.872C64.162 61.3093 64.3914 61.9173 64.3914 62.696C64.3914 63.4747 64.162 64.088 63.7034 64.536C63.2554 64.984 62.6794 65.208 61.9754 65.208C61.2607 65.208 60.674 64.984 60.2154 64.536C59.7674 64.088 59.5434 63.4747 59.5434 62.696ZM61.9594 61.304C61.2874 61.304 60.9514 61.768 60.9514 62.696C60.9514 63.624 61.2874 64.088 61.9594 64.088C62.6314 64.088 62.9674 63.624 62.9674 62.696C62.9674 61.768 62.6314 61.304 61.9594 61.304Z" fill="white"/>
<path d="M49.232 9.04C49.1147 8.54933 48.9013 8.18133 48.592 7.936C48.2827 7.69067 47.8507 7.568 47.296 7.568C46.4533 7.568 45.824 7.89333 45.408 8.544C44.992 9.184 44.7733 10.2507 44.752 11.744C45.0293 11.2747 45.4347 10.912 45.968 10.656C46.5013 10.4 47.0773 10.272 47.696 10.272C48.4 10.272 49.0187 10.4267 49.552 10.736C50.096 11.0347 50.5173 11.472 50.816 12.048C51.1253 12.624 51.28 13.312 51.28 14.112C51.28 14.8587 51.1307 15.5253 50.832 16.112C50.544 16.6987 50.112 17.1627 49.536 17.504C48.96 17.8347 48.2667 18 47.456 18C46.3573 18 45.4933 17.76 44.864 17.28C44.2453 16.7893 43.808 16.1013 43.552 15.216C43.3067 14.3307 43.184 13.2267 43.184 11.904C43.184 8 44.56 6.048 47.312 6.048C48.3787 6.048 49.216 6.336 49.824 6.912C50.4427 7.488 50.8053 8.19733 50.912 9.04H49.232ZM47.296 11.808C46.6453 11.808 46.0907 12.0053 45.632 12.4C45.184 12.784 44.96 13.344 44.96 14.08C44.96 14.816 45.168 15.4027 45.584 15.84C46.0107 16.2667 46.6027 16.48 47.36 16.48C48.032 16.48 48.56 16.272 48.944 15.856C49.3387 15.44 49.536 14.8853 49.536 14.192C49.536 13.4667 49.344 12.8907 48.96 12.464C48.5867 12.0267 48.032 11.808 47.296 11.808ZM52.9376 9.152C52.9376 8.37333 53.1616 7.76533 53.6096 7.328C54.0683 6.88 54.655 6.656 55.3696 6.656C56.0843 6.656 56.6656 6.88 57.1136 7.328C57.5723 7.76533 57.8016 8.37333 57.8016 9.152C57.8016 9.93067 57.5723 10.544 57.1136 10.992C56.6656 11.44 56.0843 11.664 55.3696 11.664C54.655 11.664 54.0683 11.44 53.6096 10.992C53.1616 10.544 52.9376 9.93067 52.9376 9.152ZM62.6976 6.864L56.3136 18H54.5216L60.9056 6.864H62.6976ZM55.3696 7.76C54.6976 7.76 54.3616 8.224 54.3616 9.152C54.3616 10.0907 54.6976 10.56 55.3696 10.56C55.6896 10.56 55.935 10.448 56.1056 10.224C56.287 9.98933 56.3776 9.632 56.3776 9.152C56.3776 8.224 56.0416 7.76 55.3696 7.76ZM59.4496 15.696C59.4496 14.9173 59.6736 14.3093 60.1216 13.872C60.5803 13.424 61.167 13.2 61.8816 13.2C62.5856 13.2 63.1616 13.424 63.6096 13.872C64.0683 14.3093 64.2976 14.9173 64.2976 15.696C64.2976 16.4747 64.0683 17.088 63.6096 17.536C63.1616 17.984 62.5856 18.208 61.8816 18.208C61.167 18.208 60.5803 17.984 60.1216 17.536C59.6736 17.088 59.4496 16.4747 59.4496 15.696ZM61.8656 14.304C61.1936 14.304 60.8576 14.768 60.8576 15.696C60.8576 16.624 61.1936 17.088 61.8656 17.088C62.5376 17.088 62.8736 16.624 62.8736 15.696C62.8736 14.768 62.5376 14.304 61.8656 14.304Z" fill="white"/>
<path d="M588.48 171.904H583.12V175.088C583.344 174.789 583.675 174.539 584.112 174.336C584.56 174.133 585.035 174.032 585.536 174.032C586.432 174.032 587.157 174.224 587.712 174.608C588.277 174.992 588.677 175.477 588.912 176.064C589.157 176.651 589.28 177.269 589.28 177.92C589.28 178.709 589.125 179.413 588.816 180.032C588.517 180.64 588.064 181.12 587.456 181.472C586.859 181.824 586.123 182 585.248 182C584.085 182 583.152 181.712 582.448 181.136C581.744 180.56 581.323 179.797 581.184 178.848H582.96C583.077 179.349 583.339 179.749 583.744 180.048C584.149 180.336 584.656 180.48 585.264 180.48C586.021 180.48 586.587 180.251 586.96 179.792C587.344 179.333 587.536 178.725 587.536 177.968C587.536 177.2 587.344 176.613 586.96 176.208C586.576 175.792 586.011 175.584 585.264 175.584C584.741 175.584 584.299 175.717 583.936 175.984C583.584 176.24 583.328 176.592 583.168 177.04H581.44V170.304H588.48V171.904ZM591.179 176.016C591.179 174.171 591.488 172.731 592.107 171.696C592.736 170.651 593.813 170.128 595.339 170.128C596.864 170.128 597.936 170.651 598.555 171.696C599.184 172.731 599.499 174.171 599.499 176.016C599.499 177.883 599.184 179.344 598.555 180.4C597.936 181.445 596.864 181.968 595.339 181.968C593.813 181.968 592.736 181.445 592.107 180.4C591.488 179.344 591.179 177.883 591.179 176.016ZM597.707 176.016C597.707 175.152 597.648 174.421 597.531 173.824C597.424 173.227 597.2 172.741 596.859 172.368C596.517 171.984 596.011 171.792 595.339 171.792C594.667 171.792 594.16 171.984 593.819 172.368C593.477 172.741 593.248 173.227 593.131 173.824C593.024 174.421 592.971 175.152 592.971 176.016C592.971 176.912 593.024 177.664 593.131 178.272C593.237 178.88 593.461 179.371 593.803 179.744C594.155 180.117 594.667 180.304 595.339 180.304C596.011 180.304 596.517 180.117 596.859 179.744C597.211 179.371 597.44 178.88 597.547 178.272C597.653 177.664 597.707 176.912 597.707 176.016ZM601.141 173.152C601.141 172.373 601.365 171.765 601.813 171.328C602.271 170.88 602.858 170.656 603.573 170.656C604.287 170.656 604.869 170.88 605.317 171.328C605.775 171.765 606.005 172.373 606.005 173.152C606.005 173.931 605.775 174.544 605.317 174.992C604.869 175.44 604.287 175.664 603.573 175.664C602.858 175.664 602.271 175.44 601.813 174.992C601.365 174.544 601.141 173.931 601.141 173.152ZM610.901 170.864L604.517 182H602.725L609.109 170.864H610.901ZM603.573 171.76C602.901 171.76 602.565 172.224 602.565 173.152C602.565 174.091 602.901 174.56 603.573 174.56C603.893 174.56 604.138 174.448 604.309 174.224C604.49 173.989 604.581 173.632 604.581 173.152C604.581 172.224 604.245 171.76 603.573 171.76ZM607.653 179.696C607.653 178.917 607.877 178.309 608.325 177.872C608.783 177.424 609.37 177.2 610.085 177.2C610.789 177.2 611.365 177.424 611.813 177.872C612.271 178.309 612.501 178.917 612.501 179.696C612.501 180.475 612.271 181.088 611.813 181.536C611.365 181.984 610.789 182.208 610.085 182.208C609.37 182.208 608.783 181.984 608.325 181.536C607.877 181.088 607.653 180.475 607.653 179.696ZM610.069 178.304C609.397 178.304 609.061 178.768 609.061 179.696C609.061 180.624 609.397 181.088 610.069 181.088C610.741 181.088 611.077 180.624 611.077 179.696C611.077 178.768 610.741 178.304 610.069 178.304Z" fill="white"/>
<path d="M426.736 179.568V178.192L432.112 170.48H434.32V177.984H435.808V179.568H434.32V182H432.528V179.568H426.736ZM432.608 172.336L428.832 177.984H432.608V172.336ZM437.319 176.016C437.319 174.171 437.629 172.731 438.247 171.696C438.877 170.651 439.954 170.128 441.479 170.128C443.005 170.128 444.077 170.651 444.695 171.696C445.325 172.731 445.639 174.171 445.639 176.016C445.639 177.883 445.325 179.344 444.695 180.4C444.077 181.445 443.005 181.968 441.479 181.968C439.954 181.968 438.877 181.445 438.247 180.4C437.629 179.344 437.319 177.883 437.319 176.016ZM443.847 176.016C443.847 175.152 443.789 174.421 443.671 173.824C443.565 173.227 443.341 172.741 442.999 172.368C442.658 171.984 442.151 171.792 441.479 171.792C440.807 171.792 440.301 171.984 439.959 172.368C439.618 172.741 439.389 173.227 439.271 173.824C439.165 174.421 439.111 175.152 439.111 176.016C439.111 176.912 439.165 177.664 439.271 178.272C439.378 178.88 439.602 179.371 439.943 179.744C440.295 180.117 440.807 180.304 441.479 180.304C442.151 180.304 442.658 180.117 442.999 179.744C443.351 179.371 443.581 178.88 443.687 178.272C443.794 177.664 443.847 176.912 443.847 176.016ZM447.281 173.152C447.281 172.373 447.505 171.765 447.953 171.328C448.412 170.88 448.999 170.656 449.713 170.656C450.428 170.656 451.009 170.88 451.457 171.328C451.916 171.765 452.145 172.373 452.145 173.152C452.145 173.931 451.916 174.544 451.457 174.992C451.009 175.44 450.428 175.664 449.713 175.664C448.999 175.664 448.412 175.44 447.953 174.992C447.505 174.544 447.281 173.931 447.281 173.152ZM457.041 170.864L450.657 182H448.865L455.249 170.864H457.041ZM449.713 171.76C449.041 171.76 448.705 172.224 448.705 173.152C448.705 174.091 449.041 174.56 449.713 174.56C450.033 174.56 450.279 174.448 450.449 174.224C450.631 173.989 450.721 173.632 450.721 173.152C450.721 172.224 450.385 171.76 449.713 171.76ZM453.793 179.696C453.793 178.917 454.017 178.309 454.465 177.872C454.924 177.424 455.511 177.2 456.225 177.2C456.929 177.2 457.505 177.424 457.953 177.872C458.412 178.309 458.641 178.917 458.641 179.696C458.641 180.475 458.412 181.088 457.953 181.536C457.505 181.984 456.929 182.208 456.225 182.208C455.511 182.208 454.924 181.984 454.465 181.536C454.017 181.088 453.793 180.475 453.793 179.696ZM456.209 178.304C455.537 178.304 455.201 178.768 455.201 179.696C455.201 180.624 455.537 181.088 456.209 181.088C456.881 181.088 457.217 180.624 457.217 179.696C457.217 178.768 456.881 178.304 456.209 178.304Z" fill="white"/>
<path d="M273.928 171.216C273.992 170.224 274.371 169.451 275.064 168.896C275.768 168.341 276.664 168.064 277.752 168.064C278.499 168.064 279.144 168.197 279.688 168.464C280.232 168.731 280.643 169.093 280.92 169.552C281.197 170.011 281.336 170.528 281.336 171.104C281.336 171.765 281.16 172.331 280.808 172.8C280.456 173.269 280.035 173.584 279.544 173.744V173.808C280.173 174 280.664 174.352 281.016 174.864C281.368 175.365 281.544 176.011 281.544 176.8C281.544 177.429 281.4 177.989 281.112 178.48C280.824 178.971 280.397 179.36 279.832 179.648C279.267 179.925 278.589 180.064 277.8 180.064C276.648 180.064 275.699 179.771 274.952 179.184C274.216 178.587 273.821 177.733 273.768 176.624H275.528C275.571 177.189 275.789 177.653 276.184 178.016C276.579 178.368 277.112 178.544 277.784 178.544C278.435 178.544 278.936 178.368 279.288 178.016C279.64 177.653 279.816 177.189 279.816 176.624C279.816 175.877 279.576 175.349 279.096 175.04C278.627 174.72 277.901 174.56 276.92 174.56H276.504V173.056H276.936C277.8 173.045 278.456 172.901 278.904 172.624C279.363 172.347 279.592 171.909 279.592 171.312C279.592 170.8 279.427 170.395 279.096 170.096C278.765 169.787 278.296 169.632 277.688 169.632C277.091 169.632 276.627 169.787 276.296 170.096C275.965 170.395 275.768 170.768 275.704 171.216H273.928ZM283.46 174.016C283.46 172.171 283.769 170.731 284.388 169.696C285.017 168.651 286.095 168.128 287.62 168.128C289.145 168.128 290.217 168.651 290.836 169.696C291.465 170.731 291.78 172.171 291.78 174.016C291.78 175.883 291.465 177.344 290.836 178.4C290.217 179.445 289.145 179.968 287.62 179.968C286.095 179.968 285.017 179.445 284.388 178.4C283.769 177.344 283.46 175.883 283.46 174.016ZM289.988 174.016C289.988 173.152 289.929 172.421 289.812 171.824C289.705 171.227 289.481 170.741 289.14 170.368C288.799 169.984 288.292 169.792 287.62 169.792C286.948 169.792 286.441 169.984 286.1 170.368C285.759 170.741 285.529 171.227 285.412 171.824C285.305 172.421 285.252 173.152 285.252 174.016C285.252 174.912 285.305 175.664 285.412 176.272C285.519 176.88 285.743 177.371 286.084 177.744C286.436 178.117 286.948 178.304 287.62 178.304C288.292 178.304 288.799 178.117 289.14 177.744C289.492 177.371 289.721 176.88 289.828 176.272C289.935 175.664 289.988 174.912 289.988 174.016ZM293.422 171.152C293.422 170.373 293.646 169.765 294.094 169.328C294.553 168.88 295.139 168.656 295.854 168.656C296.569 168.656 297.15 168.88 297.598 169.328C298.057 169.765 298.286 170.373 298.286 171.152C298.286 171.931 298.057 172.544 297.598 172.992C297.15 173.44 296.569 173.664 295.854 173.664C295.139 173.664 294.553 173.44 294.094 172.992C293.646 172.544 293.422 171.931 293.422 171.152ZM303.182 168.864L296.798 180H295.006L301.39 168.864H303.182ZM295.854 169.76C295.182 169.76 294.846 170.224 294.846 171.152C294.846 172.091 295.182 172.56 295.854 172.56C296.174 172.56 296.419 172.448 296.59 172.224C296.771 171.989 296.862 171.632 296.862 171.152C296.862 170.224 296.526 169.76 295.854 169.76ZM299.934 177.696C299.934 176.917 300.158 176.309 300.606 175.872C301.065 175.424 301.651 175.2 302.366 175.2C303.07 175.2 303.646 175.424 304.094 175.872C304.553 176.309 304.782 176.917 304.782 177.696C304.782 178.475 304.553 179.088 304.094 179.536C303.646 179.984 303.07 180.208 302.366 180.208C301.651 180.208 301.065 179.984 300.606 179.536C300.158 179.088 299.934 178.475 299.934 177.696ZM302.35 176.304C301.678 176.304 301.342 176.768 301.342 177.696C301.342 178.624 301.678 179.088 302.35 179.088C303.022 179.088 303.358 178.624 303.358 177.696C303.358 176.768 303.022 176.304 302.35 176.304Z" fill="white"/>
<path d="M124.968 177.52C125.992 176.635 126.797 175.909 127.384 175.344C127.981 174.768 128.477 174.171 128.872 173.552C129.267 172.933 129.464 172.315 129.464 171.696C129.464 171.056 129.309 170.555 129 170.192C128.701 169.829 128.227 169.648 127.576 169.648C126.947 169.648 126.456 169.851 126.104 170.256C125.763 170.651 125.581 171.184 125.56 171.856H123.8C123.832 170.64 124.195 169.712 124.888 169.072C125.592 168.421 126.483 168.096 127.56 168.096C128.723 168.096 129.629 168.416 130.28 169.056C130.941 169.696 131.272 170.549 131.272 171.616C131.272 172.384 131.075 173.125 130.68 173.84C130.296 174.544 129.832 175.179 129.288 175.744C128.755 176.299 128.072 176.944 127.24 177.68L126.52 178.32H131.592V179.84H123.816V178.512L124.968 177.52ZM132.97 177.568V176.192L138.346 168.48H140.554V175.984H142.042V177.568H140.554V180H138.762V177.568H132.97ZM138.842 170.336L135.066 175.984H138.842V170.336ZM143.266 171.152C143.266 170.373 143.49 169.765 143.938 169.328C144.396 168.88 144.983 168.656 145.698 168.656C146.412 168.656 146.994 168.88 147.442 169.328C147.9 169.765 148.13 170.373 148.13 171.152C148.13 171.931 147.9 172.544 147.442 172.992C146.994 173.44 146.412 173.664 145.698 173.664C144.983 173.664 144.396 173.44 143.938 172.992C143.49 172.544 143.266 171.931 143.266 171.152ZM153.026 168.864L146.642 180H144.85L151.234 168.864H153.026ZM145.698 169.76C145.026 169.76 144.69 170.224 144.69 171.152C144.69 172.091 145.026 172.56 145.698 172.56C146.018 172.56 146.263 172.448 146.434 172.224C146.615 171.989 146.706 171.632 146.706 171.152C146.706 170.224 146.37 169.76 145.698 169.76ZM149.778 177.696C149.778 176.917 150.002 176.309 150.45 175.872C150.908 175.424 151.495 175.2 152.21 175.2C152.914 175.2 153.49 175.424 153.938 175.872C154.396 176.309 154.626 176.917 154.626 177.696C154.626 178.475 154.396 179.088 153.938 179.536C153.49 179.984 152.914 180.208 152.21 180.208C151.495 180.208 150.908 179.984 150.45 179.536C150.002 179.088 149.778 178.475 149.778 177.696ZM152.194 176.304C151.522 176.304 151.186 176.768 151.186 177.696C151.186 178.624 151.522 179.088 152.194 179.088C152.866 179.088 153.202 178.624 153.202 177.696C153.202 176.768 152.866 176.304 152.194 176.304Z" fill="white"/>
<path d="M8.96 153.272L11.232 153.272L11.232 149.608L13.344 149.608L13.344 153.272L15.808 153.272L15.808 149.128L18 149.128L18 156.008L6.768 156.008L6.768 149.128L8.96 149.128L8.96 153.272ZM4.512 150.776L6.128 154.632L4.24 154.632L2.384 150.776L4.512 150.776ZM8.976 135.96C8.976 134.85 9.312 133.97 9.984 133.32C10.656 132.658 11.5893 132.328 12.784 132.328L18 132.328L18 135.048L13.152 135.048C12.576 135.048 12.1333 135.202 11.824 135.512C11.504 135.81 11.344 136.226 11.344 136.76C11.344 137.293 11.504 137.714 11.824 138.024C12.1333 138.322 12.576 138.472 13.152 138.472L18 138.472L18 141.192L13.152 141.192C12.576 141.192 12.1333 141.346 11.824 141.656C11.504 141.954 11.344 142.37 11.344 142.904C11.344 143.437 11.504 143.858 11.824 144.168C12.1333 144.466 12.576 144.616 13.152 144.616L18 144.616L18 147.352L9.072 147.352L9.072 144.616L10.192 144.616C9.81867 144.338 9.52533 143.976 9.312 143.528C9.088 143.08 8.976 142.573 8.976 142.008C8.976 141.336 9.12 140.738 9.408 140.216C9.696 139.682 10.1067 139.266 10.64 138.968C10.1493 138.658 9.74933 138.237 9.44 137.704C9.13067 137.17 8.976 136.589 8.976 135.96ZM8.144 129.038C8.144 129.518 8.00533 129.913 7.728 130.222C7.44 130.521 7.088 130.67 6.672 130.67C6.24533 130.67 5.89333 130.521 5.616 130.222C5.328 129.913 5.184 129.518 5.184 129.038C5.184 128.569 5.328 128.185 5.616 127.886C5.89333 127.577 6.24533 127.422 6.672 127.422C7.088 127.422 7.44 127.577 7.728 127.886C8.00533 128.185 8.144 128.569 8.144 129.038ZM9.072 127.678L18 127.678L18 130.414L9.072 130.414L9.072 127.678ZM18.128 122.063C18.128 122.842 17.9947 123.535 17.728 124.143C17.4613 124.751 17.0987 125.231 16.64 125.583C16.1707 125.935 15.648 126.133 15.072 126.175L15.072 123.471C15.3813 123.439 15.632 123.295 15.824 123.039C16.016 122.783 16.112 122.469 16.112 122.095C16.112 121.754 16.048 121.493 15.92 121.311C15.7813 121.119 15.6053 121.023 15.392 121.023C15.136 121.023 14.9493 121.157 14.832 121.423C14.704 121.69 14.5653 122.122 14.416 122.719C14.2667 123.359 14.112 123.893 13.952 124.319C13.7813 124.746 13.52 125.114 13.168 125.423C12.8053 125.733 12.32 125.887 11.712 125.887C11.2 125.887 10.736 125.749 10.32 125.471C9.89333 125.183 9.55733 124.767 9.312 124.223C9.06666 123.669 8.944 123.013 8.944 122.255C8.944 121.135 9.22133 120.255 9.776 119.615C10.3307 118.965 11.0667 118.591 11.984 118.495L11.984 121.023C11.6747 121.066 11.4293 121.205 11.248 121.439C11.0667 121.663 10.976 121.962 10.976 122.335C10.976 122.655 11.04 122.901 11.168 123.071C11.2853 123.242 11.4507 123.327 11.664 123.327C11.92 123.327 12.112 123.194 12.24 122.927C12.368 122.65 12.496 122.223 12.624 121.647C12.7947 120.986 12.9653 120.447 13.136 120.031C13.296 119.615 13.5627 119.253 13.936 118.943C14.2987 118.623 14.7893 118.458 15.408 118.447C15.9307 118.447 16.4 118.597 16.816 118.895C17.2213 119.183 17.5413 119.605 17.776 120.159C18.0107 120.703 18.128 121.338 18.128 122.063ZM18.128 113.142C18.128 113.92 17.9947 114.614 17.728 115.222C17.4613 115.83 17.0987 116.31 16.64 116.662C16.1707 117.014 15.648 117.211 15.072 117.254L15.072 114.55C15.3813 114.518 15.632 114.374 15.824 114.118C16.016 113.862 16.112 113.547 16.112 113.174C16.112 112.832 16.048 112.571 15.92 112.39C15.7813 112.198 15.6053 112.102 15.392 112.102C15.136 112.102 14.9493 112.235 14.832 112.502C14.704 112.768 14.5653 113.2 14.416 113.798C14.2667 114.438 14.112 114.971 13.952 115.398C13.7813 115.824 13.52 116.192 13.168 116.502C12.8053 116.811 12.32 116.966 11.712 116.966C11.2 116.966 10.736 116.827 10.32 116.55C9.89333 116.262 9.55733 115.846 9.312 115.302C9.06666 114.747 8.944 114.091 8.944 113.334C8.944 112.214 9.22133 111.334 9.776 110.694C10.3307 110.043 11.0667 109.67 11.984 109.574L11.984 112.102C11.6747 112.144 11.4293 112.283 11.248 112.518C11.0667 112.742 10.976 113.04 10.976 113.414C10.976 113.734 11.04 113.979 11.168 114.15C11.2853 114.32 11.4507 114.406 11.664 114.406C11.92 114.406 12.112 114.272 12.24 114.006C12.368 113.728 12.496 113.302 12.624 112.726C12.7947 112.064 12.9653 111.526 13.136 111.11C13.296 110.694 13.5627 110.331 13.936 110.022C14.2987 109.702 14.7893 109.536 15.408 109.526C15.9307 109.526 16.4 109.675 16.816 109.974C17.2213 110.262 17.5413 110.683 17.776 111.238C18.0107 111.782 18.128 112.416 18.128 113.142ZM8.144 106.476C8.144 106.956 8.00533 107.35 7.728 107.66C7.44 107.958 7.088 108.108 6.672 108.108C6.24533 108.108 5.89333 107.958 5.616 107.66C5.328 107.35 5.184 106.956 5.184 106.476C5.184 106.006 5.328 105.622 5.616 105.324C5.89333 105.014 6.24533 104.86 6.672 104.86C7.088 104.86 7.44 105.014 7.728 105.324C8.00533 105.622 8.144 106.006 8.144 106.476ZM9.072 105.116L18 105.116L18 107.852L9.072 107.852L9.072 105.116ZM18.128 99.069C18.128 99.9437 17.9413 100.733 17.568 101.437C17.1947 102.13 16.6613 102.68 15.968 103.085C15.2747 103.48 14.464 103.677 13.536 103.677C12.6187 103.677 11.8133 103.474 11.12 103.069C10.416 102.664 9.87733 102.109 9.504 101.405C9.13066 100.701 8.944 99.9117 8.944 99.037C8.944 98.1623 9.13066 97.373 9.504 96.669C9.87733 95.965 10.416 95.4103 11.12 95.005C11.8133 94.5997 12.6187 94.397 13.536 94.397C14.4533 94.397 15.264 94.605 15.968 95.021C16.6613 95.4263 17.1947 95.9863 17.568 96.701C17.9413 97.405 18.128 98.1943 18.128 99.069ZM15.76 99.069C15.76 98.5463 15.568 98.1037 15.184 97.741C14.8 97.3677 14.2507 97.181 13.536 97.181C12.8213 97.181 12.272 97.3623 11.888 97.725C11.504 98.077 11.312 98.5143 11.312 99.037C11.312 99.5703 11.504 100.013 11.888 100.365C12.2613 100.717 12.8107 100.893 13.536 100.893C14.2507 100.893 14.8 100.722 15.184 100.381C15.568 100.029 15.76 99.5917 15.76 99.069ZM8.976 87.5055C8.976 86.4602 9.31733 85.6282 10 85.0095C10.672 84.3802 11.6 84.0655 12.784 84.0655L18 84.0655L18 86.7855L13.152 86.7855C12.5547 86.7855 12.0907 86.9402 11.76 87.2495C11.4293 87.5588 11.264 87.9748 11.264 88.4975C11.264 89.0202 11.4293 89.4362 11.76 89.7455C12.0907 90.0548 12.5547 90.2095 13.152 90.2095L18 90.2095L18 92.9455L9.072 92.9455L9.072 90.2095L10.256 90.2095C9.86133 89.9322 9.552 89.5588 9.328 89.0895C9.09333 88.6202 8.976 88.0922 8.976 87.5055ZM18.128 78.5322C18.128 79.3109 17.9947 80.0042 17.728 80.6122C17.4613 81.2202 17.0987 81.7002 16.64 82.0522C16.1707 82.4042 15.648 82.6016 15.072 82.6442L15.072 79.9402C15.3813 79.9082 15.632 79.7642 15.824 79.5082C16.016 79.2522 16.112 78.9376 16.112 78.5642C16.112 78.2229 16.048 77.9616 15.92 77.7802C15.7813 77.5882 15.6053 77.4922 15.392 77.4922C15.136 77.4922 14.9493 77.6256 14.832 77.8922C14.704 78.1589 14.5653 78.5909 14.416 79.1882C14.2667 79.8282 14.112 80.3616 13.952 80.7882C13.7813 81.2149 13.52 81.5829 13.168 81.8922C12.8053 82.2016 12.32 82.3562 11.712 82.3562C11.2 82.3562 10.736 82.2176 10.32 81.9402C9.89333 81.6522 9.55733 81.2362 9.312 80.6922C9.06666 80.1376 8.944 79.4816 8.944 78.7242C8.944 77.6042 9.22133 76.7242 9.776 76.0842C10.3307 75.4336 11.0667 75.0602 11.984 74.9642L11.984 77.4922C11.6747 77.5349 11.4293 77.6736 11.248 77.9082C11.0667 78.1322 10.976 78.4309 10.976 78.8042C10.976 79.1242 11.04 79.3696 11.168 79.5402C11.2853 79.7109 11.4507 79.7962 11.664 79.7962C11.92 79.7962 12.112 79.6629 12.24 79.3962C12.368 79.1189 12.496 78.6922 12.624 78.1162C12.7947 77.4549 12.9653 76.9162 13.136 76.5002C13.296 76.0842 13.5627 75.7216 13.936 75.4122C14.2987 75.0922 14.7893 74.9269 15.408 74.9162C15.9307 74.9162 16.4 75.0656 16.816 75.3642C17.2213 75.6522 17.5413 76.0736 17.776 76.6282C18.0107 77.1722 18.128 77.8069 18.128 78.5322ZM13.392 61.4357C13.648 61.4357 13.9147 61.4517 14.192 61.4837L14.192 67.6757C14.7467 67.6331 15.1733 67.4571 15.472 67.1477C15.76 66.8277 15.904 66.4384 15.904 65.9797C15.904 65.2971 15.616 64.8224 15.04 64.5557L15.04 61.6437C15.6267 61.7931 16.1547 62.0651 16.624 62.4597C17.0933 62.8437 17.4613 63.3291 17.728 63.9157C17.9947 64.5024 18.128 65.1584 18.128 65.8837C18.128 66.7584 17.9413 67.5371 17.568 68.2197C17.1947 68.9024 16.6613 69.4357 15.968 69.8197C15.2747 70.2037 14.464 70.3957 13.536 70.3957C12.608 70.3957 11.7973 70.2091 11.104 69.8357C10.4107 69.4517 9.87733 68.9184 9.504 68.2357C9.13066 67.5531 8.944 66.7691 8.944 65.8837C8.944 65.0197 9.12533 64.2517 9.488 63.5797C9.85066 62.9077 10.368 62.3851 11.04 62.0117C11.712 61.6277 12.496 61.4357 13.392 61.4357ZM12.672 64.2357C12.2027 64.2357 11.8293 64.3957 11.552 64.7157C11.2747 65.0357 11.136 65.4357 11.136 65.9157C11.136 66.3744 11.2693 66.7637 11.536 67.0837C11.8027 67.3931 12.1813 67.5851 12.672 67.6597L12.672 64.2357ZM6.784 64.0437L8.4 67.8997L6.512 67.8997L4.656 64.0437L6.784 64.0437ZM15.44 55.9764L9.072 54.0404L9.07199 51.1284L18 54.2964L18 57.6724L9.072 60.8404L9.072 57.9124L15.44 55.9764ZM8.14399 48.6007C8.14399 49.0807 8.00533 49.4754 7.728 49.7847C7.43999 50.0834 7.08799 50.2327 6.672 50.2327C6.24533 50.2327 5.89333 50.0834 5.61599 49.7847C5.32799 49.4754 5.18399 49.0807 5.18399 48.6007C5.18399 48.1314 5.32799 47.7474 5.61599 47.4487C5.89333 47.1394 6.24533 46.9847 6.672 46.9847C7.08799 46.9847 7.43999 47.1394 7.72799 47.4487C8.00533 47.7474 8.14399 48.1314 8.14399 48.6007ZM9.07199 47.2407L18 47.2407L18 49.9767L9.07199 49.9767L9.07199 47.2407ZM15.68 40.282L18 40.282L18 41.674C18 42.666 17.76 43.4393 17.28 43.994C16.7893 44.5487 15.9947 44.826 14.896 44.826L11.344 44.826L11.344 45.914L9.07199 45.914L9.07199 44.826L6.896 44.826L6.89599 42.09L9.07199 42.09L9.07199 40.298L11.344 40.298L11.344 42.09L14.928 42.09C15.1947 42.09 15.3867 42.026 15.504 41.898C15.6213 41.77 15.68 41.5567 15.68 41.258L15.68 40.282ZM13.392 30.342C13.648 30.342 13.9147 30.358 14.192 30.39L14.192 36.582C14.7467 36.5393 15.1733 36.3633 15.472 36.054C15.76 35.734 15.904 35.3447 15.904 34.886C15.904 34.2033 15.616 33.7287 15.04 33.462L15.04 30.55C15.6267 30.6993 16.1547 30.9713 16.624 31.366C17.0933 31.75 17.4613 32.2353 17.728 32.822C17.9947 33.4087 18.128 34.0647 18.128 34.79C18.128 35.6647 17.9413 36.4433 17.568 37.126C17.1947 37.8087 16.6613 38.342 15.968 38.726C15.2747 39.11 14.464 39.302 13.536 39.302C12.608 39.302 11.7973 39.1153 11.104 38.742C10.4107 38.358 9.87733 37.8247 9.50399 37.142C9.13066 36.4593 8.94399 35.6753 8.94399 34.79C8.94399 33.926 9.12533 33.158 9.48799 32.486C9.85066 31.814 10.368 31.2913 11.04 30.918C11.712 30.534 12.496 30.342 13.392 30.342ZM12.672 33.142C12.2027 33.142 11.8293 33.302 11.552 33.622C11.2747 33.942 11.136 34.342 11.136 34.822C11.136 35.2807 11.2693 35.67 11.536 35.99C11.8027 36.2993 12.1813 36.4913 12.672 36.566L12.672 33.142ZM6.78399 32.95L8.39999 36.806L6.51199 36.806L4.65599 32.95L6.78399 32.95ZM13.392 20.4826C13.648 20.4826 13.9147 20.4986 14.192 20.5306L14.192 26.7226C14.7467 26.68 15.1733 26.504 15.472 26.1946C15.76 25.8746 15.904 25.4853 15.904 25.0266C15.904 24.344 15.616 23.8693 15.04 23.6026L15.04 20.6906C15.6267 20.84 16.1547 21.112 16.624 21.5066C17.0933 21.8906 17.4613 22.376 17.728 22.9626C17.9947 23.5493 18.128 24.2053 18.128 24.9306C18.128 25.8053 17.9413 26.584 17.568 27.2666C17.1947 27.9493 16.6613 28.4826 15.968 28.8666C15.2747 29.2506 14.464 29.4426 13.536 29.4426C12.608 29.4426 11.7973 29.256 11.104 28.8826C10.4107 28.4986 9.87733 27.9653 9.50399 27.2826C9.13066 26.6 8.94399 25.816 8.94399 24.9306C8.94399 24.0666 9.12533 23.2986 9.48799 22.6266C9.85066 21.9546 10.368 21.432 11.04 21.0586C11.712 20.6746 12.496 20.4826 13.392 20.4826ZM12.672 23.2826C12.2027 23.2826 11.8293 23.4426 11.552 23.7626C11.2747 24.0826 11.136 24.4826 11.136 24.9626C11.136 25.4213 11.2693 25.8106 11.536 26.1306C11.8027 26.44 12.1813 26.632 12.672 26.7066L12.672 23.2826ZM18.128 15.4072C18.128 16.1859 17.9947 16.8792 17.728 17.4872C17.4613 18.0952 17.0987 18.5752 16.64 18.9272C16.1707 19.2792 15.648 19.4766 15.072 19.5192L15.072 16.8152C15.3813 16.7832 15.632 16.6392 15.824 16.3832C16.016 16.1272 16.112 15.8126 16.112 15.4392C16.112 15.0979 16.048 14.8366 15.92 14.6552C15.7813 14.4632 15.6053 14.3672 15.392 14.3672C15.136 14.3672 14.9493 14.5006 14.832 14.7672C14.704 15.0339 14.5653 15.4659 14.416 16.0632C14.2667 16.7032 14.112 17.2366 13.952 17.6632C13.7813 18.0899 13.52 18.4579 13.168 18.7672C12.8053 19.0766 12.32 19.2312 11.712 19.2312C11.2 19.2312 10.736 19.0926 10.32 18.8152C9.89333 18.5272 9.55733 18.1112 9.31199 17.5672C9.06666 17.0126 8.94399 16.3566 8.94399 15.5992C8.94399 14.4792 9.22133 13.5992 9.77599 12.9592C10.3307 12.3086 11.0667 11.9352 11.984 11.8392L11.984 14.3672C11.6747 14.4099 11.4293 14.5486 11.248 14.7832C11.0667 15.0072 10.976 15.3059 10.976 15.6792C10.976 15.9992 11.04 16.2446 11.168 16.4152C11.2853 16.5859 11.4507 16.6712 11.664 16.6712C11.92 16.6712 12.112 16.5379 12.24 16.2712C12.368 15.9939 12.496 15.5672 12.624 14.9912C12.7947 14.3299 12.9653 13.7912 13.136 13.3752C13.296 12.9592 13.5627 12.5966 13.936 12.2872C14.2987 11.9672 14.7893 11.8019 15.408 11.7912C15.9307 11.7912 16.4 11.9406 16.816 12.2392C17.2213 12.5272 17.5413 12.9486 17.776 13.5032C18.0107 14.0472 18.128 14.6819 18.128 15.4072Z" fill="white"/>
<rect x="42" y="291" width="20" height="20" fill="white"/>
<rect x="312" y="257" width="20" height="20" fill="#CBD4FF"/>
<rect x="42" y="257" width="20" height="20" fill="#A3B2FF"/>
<path d="M79.384 295.88V297.368H76.424V307H74.6V297.368H71.624V295.88H79.384ZM89.3113 302.376C89.3113 302.707 89.2899 303.005 89.2473 303.272H82.5113C82.5646 303.976 82.8259 304.541 83.2953 304.968C83.7646 305.395 84.3406 305.608 85.0233 305.608C86.0046 305.608 86.6979 305.197 87.1033 304.376H89.0712C88.8046 305.187 88.3193 305.853 87.6153 306.376C86.9219 306.888 86.0579 307.144 85.0233 307.144C84.1806 307.144 83.4233 306.957 82.7513 306.584C82.0899 306.2 81.5673 305.667 81.1833 304.984C80.8099 304.291 80.6233 303.491 80.6233 302.584C80.6233 301.677 80.8046 300.883 81.1673 300.2C81.5406 299.507 82.0579 298.973 82.7193 298.6C83.3913 298.227 84.1593 298.04 85.0233 298.04C85.8553 298.04 86.5966 298.221 87.2473 298.584C87.8979 298.947 88.4046 299.459 88.7673 300.12C89.1299 300.771 89.3113 301.523 89.3113 302.376ZM87.4073 301.8C87.3966 301.128 87.1566 300.589 86.6873 300.184C86.2179 299.779 85.6366 299.576 84.9433 299.576C84.3139 299.576 83.7753 299.779 83.3273 300.184C82.8793 300.579 82.6126 301.117 82.5273 301.8H87.4073ZM86.6233 295.816L83.0873 297.56V296.216L86.6233 294.264V295.816ZM92.9303 295.16V307H91.1063V295.16H92.9303ZM103.405 302.376C103.405 302.707 103.384 303.005 103.341 303.272H96.605C96.6583 303.976 96.9197 304.541 97.389 304.968C97.8583 305.395 98.4343 305.608 99.117 305.608C100.098 305.608 100.792 305.197 101.197 304.376H103.165C102.898 305.187 102.413 305.853 101.709 306.376C101.016 306.888 100.152 307.144 99.117 307.144C98.2743 307.144 97.517 306.957 96.845 306.584C96.1837 306.2 95.661 305.667 95.277 304.984C94.9037 304.291 94.717 303.491 94.717 302.584C94.717 301.677 94.8983 300.883 95.261 300.2C95.6343 299.507 96.1517 298.973 96.813 298.6C97.485 298.227 98.253 298.04 99.117 298.04C99.949 298.04 100.69 298.221 101.341 298.584C101.992 298.947 102.498 299.459 102.861 300.12C103.224 300.771 103.405 301.523 103.405 302.376ZM101.501 301.8C101.49 301.128 101.25 300.589 100.781 300.184C100.312 299.779 99.7303 299.576 99.037 299.576C98.4077 299.576 97.869 299.779 97.421 300.184C96.973 300.579 96.7063 301.117 96.621 301.8H101.501ZM100.717 295.816L97.181 297.56V296.216L100.717 294.264V295.816ZM107.328 299.672V304.552C107.328 304.883 107.403 305.123 107.552 305.272C107.712 305.411 107.979 305.48 108.352 305.48H109.472V307H108.032C107.211 307 106.581 306.808 106.144 306.424C105.707 306.04 105.488 305.416 105.488 304.552V299.672H104.448V298.184H105.488V295.992H107.328V298.184H109.472V299.672H107.328ZM112.977 299.464C113.244 299.016 113.596 298.669 114.033 298.424C114.481 298.168 115.009 298.04 115.617 298.04V299.928H115.153C114.438 299.928 113.894 300.109 113.521 300.472C113.158 300.835 112.977 301.464 112.977 302.36V307H111.153V298.184H112.977V299.464ZM116.686 302.552C116.686 301.667 116.867 300.883 117.23 300.2C117.603 299.517 118.104 298.989 118.734 298.616C119.374 298.232 120.078 298.04 120.846 298.04C121.539 298.04 122.142 298.179 122.654 298.456C123.176 298.723 123.592 299.059 123.902 299.464V298.184H125.742V307H123.902V305.688C123.592 306.104 123.171 306.451 122.638 306.728C122.104 307.005 121.496 307.144 120.814 307.144C120.056 307.144 119.363 306.952 118.734 306.568C118.104 306.173 117.603 305.629 117.23 304.936C116.867 304.232 116.686 303.437 116.686 302.552ZM123.902 302.584C123.902 301.976 123.774 301.448 123.518 301C123.272 300.552 122.947 300.211 122.542 299.976C122.136 299.741 121.699 299.624 121.23 299.624C120.76 299.624 120.323 299.741 119.918 299.976C119.512 300.2 119.182 300.536 118.926 300.984C118.68 301.421 118.558 301.944 118.558 302.552C118.558 303.16 118.68 303.693 118.926 304.152C119.182 304.611 119.512 304.963 119.918 305.208C120.334 305.443 120.771 305.56 121.23 305.56C121.699 305.56 122.136 305.443 122.542 305.208C122.947 304.973 123.272 304.632 123.518 304.184C123.774 303.725 123.902 303.192 123.902 302.584ZM131.546 305.368L134.042 298.184H135.977L132.618 307H130.442L127.098 298.184H129.049L131.546 305.368ZM136.748 302.552C136.748 301.667 136.93 300.883 137.292 300.2C137.666 299.517 138.167 298.989 138.796 298.616C139.436 298.232 140.14 298.04 140.908 298.04C141.602 298.04 142.204 298.179 142.716 298.456C143.239 298.723 143.655 299.059 143.964 299.464V298.184H145.804V307H143.964V305.688C143.655 306.104 143.234 306.451 142.7 306.728C142.167 307.005 141.559 307.144 140.876 307.144C140.119 307.144 139.426 306.952 138.796 306.568C138.167 306.173 137.666 305.629 137.292 304.936C136.93 304.232 136.748 303.437 136.748 302.552ZM143.964 302.584C143.964 301.976 143.836 301.448 143.58 301C143.335 300.552 143.01 300.211 142.604 299.976C142.199 299.741 141.762 299.624 141.292 299.624C140.823 299.624 140.386 299.741 139.98 299.976C139.575 300.2 139.244 300.536 138.988 300.984C138.743 301.421 138.62 301.944 138.62 302.552C138.62 303.16 138.743 303.693 138.988 304.152C139.244 304.611 139.575 304.963 139.98 305.208C140.396 305.443 140.834 305.56 141.292 305.56C141.762 305.56 142.199 305.443 142.604 305.208C143.01 304.973 143.335 304.632 143.58 304.184C143.836 303.725 143.964 303.192 143.964 302.584ZM149.128 297.016C148.797 297.016 148.52 296.904 148.296 296.68C148.072 296.456 147.96 296.179 147.96 295.848C147.96 295.517 148.072 295.24 148.296 295.016C148.52 294.792 148.797 294.68 149.128 294.68C149.448 294.68 149.72 294.792 149.944 295.016C150.168 295.24 150.28 295.517 150.28 295.848C150.28 296.179 150.168 296.456 149.944 296.68C149.72 296.904 149.448 297.016 149.128 297.016ZM150.024 298.184V307H148.2V298.184H150.024ZM154.243 295.16V307H152.419V295.16H154.243ZM168.074 296.904H162.714V300.088C162.938 299.789 163.268 299.539 163.706 299.336C164.154 299.133 164.628 299.032 165.13 299.032C166.026 299.032 166.751 299.224 167.306 299.608C167.871 299.992 168.271 300.477 168.506 301.064C168.751 301.651 168.874 302.269 168.874 302.92C168.874 303.709 168.719 304.413 168.41 305.032C168.111 305.64 167.658 306.12 167.05 306.472C166.452 306.824 165.716 307 164.842 307C163.679 307 162.746 306.712 162.042 306.136C161.338 305.56 160.916 304.797 160.778 303.848H162.554C162.671 304.349 162.932 304.749 163.338 305.048C163.743 305.336 164.25 305.48 164.858 305.48C165.615 305.48 166.18 305.251 166.554 304.792C166.938 304.333 167.13 303.725 167.13 302.968C167.13 302.2 166.938 301.613 166.554 301.208C166.17 300.792 165.604 300.584 164.858 300.584C164.335 300.584 163.892 300.717 163.53 300.984C163.178 301.24 162.922 301.592 162.762 302.04H161.034V295.304H168.074V296.904ZM176.097 297.016C175.766 297.016 175.489 296.904 175.265 296.68C175.041 296.456 174.929 296.179 174.929 295.848C174.929 295.517 175.041 295.24 175.265 295.016C175.489 294.792 175.766 294.68 176.097 294.68C176.417 294.68 176.689 294.792 176.913 295.016C177.137 295.24 177.249 295.517 177.249 295.848C177.249 296.179 177.137 296.456 176.913 296.68C176.689 296.904 176.417 297.016 176.097 297.016ZM176.993 308.728C176.993 309.592 176.774 310.216 176.337 310.6C175.91 310.995 175.286 311.192 174.465 311.192H173.521V309.656H174.145C174.518 309.656 174.779 309.581 174.929 309.432C175.089 309.293 175.169 309.059 175.169 308.728V298.184H176.993V308.728ZM183.212 307.144C182.38 307.144 181.628 306.957 180.956 306.584C180.284 306.2 179.756 305.667 179.372 304.984C178.988 304.291 178.796 303.491 178.796 302.584C178.796 301.688 178.993 300.893 179.388 300.2C179.782 299.507 180.321 298.973 181.004 298.6C181.686 298.227 182.449 298.04 183.292 298.04C184.134 298.04 184.897 298.227 185.58 298.6C186.262 298.973 186.801 299.507 187.196 300.2C187.59 300.893 187.788 301.688 187.788 302.584C187.788 303.48 187.585 304.275 187.18 304.968C186.774 305.661 186.22 306.2 185.516 306.584C184.822 306.957 184.054 307.144 183.212 307.144ZM183.212 305.56C183.681 305.56 184.118 305.448 184.524 305.224C184.94 305 185.276 304.664 185.532 304.216C185.788 303.768 185.916 303.224 185.916 302.584C185.916 301.944 185.793 301.405 185.548 300.968C185.302 300.52 184.977 300.184 184.572 299.96C184.166 299.736 183.729 299.624 183.26 299.624C182.79 299.624 182.353 299.736 181.948 299.96C181.553 300.184 181.238 300.52 181.004 300.968C180.769 301.405 180.652 301.944 180.652 302.584C180.652 303.533 180.892 304.269 181.372 304.792C181.862 305.304 182.476 305.56 183.212 305.56ZM197.575 298.184V307H195.751V305.96C195.463 306.323 195.084 306.611 194.615 306.824C194.156 307.027 193.665 307.128 193.143 307.128C192.449 307.128 191.825 306.984 191.271 306.696C190.727 306.408 190.295 305.981 189.975 305.416C189.665 304.851 189.511 304.168 189.511 303.368V298.184H191.319V303.096C191.319 303.885 191.516 304.493 191.911 304.92C192.305 305.336 192.844 305.544 193.527 305.544C194.209 305.544 194.748 305.336 195.143 304.92C195.548 304.493 195.751 303.885 195.751 303.096V298.184H197.575ZM201.805 299.464C202.072 299.016 202.424 298.669 202.861 298.424C203.309 298.168 203.837 298.04 204.445 298.04V299.928H203.981C203.267 299.928 202.723 300.109 202.349 300.472C201.987 300.835 201.805 301.464 201.805 302.36V307H199.981V298.184H201.805V299.464ZM209.322 307.144C208.629 307.144 208.005 307.021 207.45 306.776C206.906 306.52 206.474 306.179 206.154 305.752C205.834 305.315 205.663 304.829 205.642 304.296H207.53C207.562 304.669 207.738 304.984 208.058 305.24C208.389 305.485 208.799 305.608 209.29 305.608C209.802 305.608 210.197 305.512 210.474 305.32C210.762 305.117 210.906 304.861 210.906 304.552C210.906 304.221 210.746 303.976 210.426 303.816C210.117 303.656 209.621 303.48 208.938 303.288C208.277 303.107 207.738 302.931 207.322 302.76C206.906 302.589 206.543 302.328 206.234 301.976C205.935 301.624 205.786 301.16 205.786 300.584C205.786 300.115 205.925 299.688 206.202 299.304C206.479 298.909 206.874 298.6 207.386 298.376C207.909 298.152 208.506 298.04 209.178 298.04C210.181 298.04 210.986 298.296 211.594 298.808C212.213 299.309 212.543 299.997 212.586 300.872H210.762C210.73 300.477 210.57 300.163 210.282 299.928C209.994 299.693 209.605 299.576 209.114 299.576C208.634 299.576 208.266 299.667 208.01 299.848C207.754 300.029 207.626 300.269 207.626 300.568C207.626 300.803 207.711 301 207.882 301.16C208.053 301.32 208.261 301.448 208.506 301.544C208.751 301.629 209.114 301.741 209.594 301.88C210.234 302.051 210.757 302.227 211.162 302.408C211.578 302.579 211.935 302.835 212.234 303.176C212.533 303.517 212.687 303.971 212.698 304.536C212.698 305.037 212.559 305.485 212.282 305.88C212.005 306.275 211.61 306.584 211.098 306.808C210.597 307.032 210.005 307.144 209.322 307.144ZM220.589 291.896L216.237 309.8H214.445L218.781 291.896H220.589ZM226.088 307.144C225.394 307.144 224.77 307.021 224.216 306.776C223.672 306.52 223.24 306.179 222.92 305.752C222.6 305.315 222.429 304.829 222.408 304.296H224.296C224.328 304.669 224.504 304.984 224.824 305.24C225.154 305.485 225.565 305.608 226.056 305.608C226.568 305.608 226.962 305.512 227.24 305.32C227.528 305.117 227.672 304.861 227.672 304.552C227.672 304.221 227.512 303.976 227.192 303.816C226.882 303.656 226.386 303.48 225.704 303.288C225.042 303.107 224.504 302.931 224.088 302.76C223.672 302.589 223.309 302.328 223 301.976C222.701 301.624 222.552 301.16 222.552 300.584C222.552 300.115 222.69 299.688 222.968 299.304C223.245 298.909 223.64 298.6 224.152 298.376C224.674 298.152 225.272 298.04 225.944 298.04C226.946 298.04 227.752 298.296 228.36 298.808C228.978 299.309 229.309 299.997 229.352 300.872H227.528C227.496 300.477 227.336 300.163 227.048 299.928C226.76 299.693 226.37 299.576 225.88 299.576C225.4 299.576 225.032 299.667 224.776 299.848C224.52 300.029 224.392 300.269 224.392 300.568C224.392 300.803 224.477 301 224.648 301.16C224.818 301.32 225.026 301.448 225.272 301.544C225.517 301.629 225.88 301.741 226.36 301.88C227 302.051 227.522 302.227 227.928 302.408C228.344 302.579 228.701 302.835 229 303.176C229.298 303.517 229.453 303.971 229.464 304.536C229.464 305.037 229.325 305.485 229.048 305.88C228.77 306.275 228.376 306.584 227.864 306.808C227.362 307.032 226.77 307.144 226.088 307.144ZM239.514 302.376C239.514 302.707 239.493 303.005 239.45 303.272H232.714C232.768 303.976 233.029 304.541 233.498 304.968C233.968 305.395 234.544 305.608 235.226 305.608C236.208 305.608 236.901 305.197 237.306 304.376H239.274C239.008 305.187 238.522 305.853 237.818 306.376C237.125 306.888 236.261 307.144 235.226 307.144C234.384 307.144 233.626 306.957 232.954 306.584C232.293 306.2 231.77 305.667 231.386 304.984C231.013 304.291 230.826 303.491 230.826 302.584C230.826 301.677 231.008 300.883 231.37 300.2C231.744 299.507 232.261 298.973 232.922 298.6C233.594 298.227 234.362 298.04 235.226 298.04C236.058 298.04 236.8 298.221 237.45 298.584C238.101 298.947 238.608 299.459 238.97 300.12C239.333 300.771 239.514 301.523 239.514 302.376ZM237.61 301.8C237.6 301.128 237.36 300.589 236.89 300.184C236.421 299.779 235.84 299.576 235.146 299.576C234.517 299.576 233.978 299.779 233.53 300.184C233.082 300.579 232.816 301.117 232.73 301.8H237.61ZM251.981 298.04C252.675 298.04 253.293 298.184 253.837 298.472C254.392 298.76 254.824 299.187 255.133 299.752C255.453 300.317 255.613 301 255.613 301.8V307H253.805V302.072C253.805 301.283 253.608 300.68 253.213 300.264C252.819 299.837 252.28 299.624 251.597 299.624C250.915 299.624 250.371 299.837 249.965 300.264C249.571 300.68 249.373 301.283 249.373 302.072V307H247.565V302.072C247.565 301.283 247.368 300.68 246.973 300.264C246.579 299.837 246.04 299.624 245.357 299.624C244.675 299.624 244.131 299.837 243.725 300.264C243.331 300.68 243.133 301.283 243.133 302.072V307H241.309V298.184H243.133V299.192C243.432 298.829 243.811 298.547 244.269 298.344C244.728 298.141 245.219 298.04 245.741 298.04C246.445 298.04 247.075 298.189 247.629 298.488C248.184 298.787 248.611 299.219 248.909 299.784C249.176 299.251 249.592 298.829 250.157 298.52C250.723 298.2 251.331 298.04 251.981 298.04ZM257.326 302.552C257.326 301.667 257.508 300.883 257.87 300.2C258.244 299.517 258.745 298.989 259.374 298.616C260.014 298.232 260.718 298.04 261.486 298.04C262.18 298.04 262.782 298.179 263.294 298.456C263.817 298.723 264.233 299.059 264.542 299.464V298.184H266.382V307H264.542V305.688C264.233 306.104 263.812 306.451 263.278 306.728C262.745 307.005 262.137 307.144 261.454 307.144C260.697 307.144 260.004 306.952 259.374 306.568C258.745 306.173 258.244 305.629 257.87 304.936C257.508 304.232 257.326 303.437 257.326 302.552ZM264.542 302.584C264.542 301.976 264.414 301.448 264.158 301C263.913 300.552 263.588 300.211 263.182 299.976C262.777 299.741 262.34 299.624 261.87 299.624C261.401 299.624 260.964 299.741 260.558 299.976C260.153 300.2 259.822 300.536 259.566 300.984C259.321 301.421 259.198 301.944 259.198 302.552C259.198 303.16 259.321 303.693 259.566 304.152C259.822 304.611 260.153 304.963 260.558 305.208C260.974 305.443 261.412 305.56 261.87 305.56C262.34 305.56 262.777 305.443 263.182 305.208C263.588 304.973 263.913 304.632 264.158 304.184C264.414 303.725 264.542 303.192 264.542 302.584ZM269.706 297.016C269.375 297.016 269.098 296.904 268.874 296.68C268.65 296.456 268.538 296.179 268.538 295.848C268.538 295.517 268.65 295.24 268.874 295.016C269.098 294.792 269.375 294.68 269.706 294.68C270.026 294.68 270.298 294.792 270.522 295.016C270.746 295.24 270.858 295.517 270.858 295.848C270.858 296.179 270.746 296.456 270.522 296.68C270.298 296.904 270.026 297.016 269.706 297.016ZM270.602 298.184V307H268.778V298.184H270.602ZM277.445 298.04C278.138 298.04 278.757 298.184 279.301 298.472C279.856 298.76 280.288 299.187 280.597 299.752C280.906 300.317 281.061 301 281.061 301.8V307H279.253V302.072C279.253 301.283 279.056 300.68 278.661 300.264C278.266 299.837 277.728 299.624 277.045 299.624C276.362 299.624 275.818 299.837 275.413 300.264C275.018 300.68 274.821 301.283 274.821 302.072V307H272.997V298.184H274.821V299.192C275.12 298.829 275.498 298.547 275.957 298.344C276.426 298.141 276.922 298.04 277.445 298.04ZM291.468 302.376C291.468 302.707 291.446 303.005 291.404 303.272H284.668C284.721 303.976 284.982 304.541 285.452 304.968C285.921 305.395 286.497 305.608 287.18 305.608C288.161 305.608 288.854 305.197 289.26 304.376H291.227C290.961 305.187 290.476 305.853 289.772 306.376C289.078 306.888 288.214 307.144 287.18 307.144C286.337 307.144 285.58 306.957 284.908 306.584C284.246 306.2 283.724 305.667 283.34 304.984C282.966 304.291 282.78 303.491 282.78 302.584C282.78 301.677 282.961 300.883 283.324 300.2C283.697 299.507 284.214 298.973 284.876 298.6C285.548 298.227 286.316 298.04 287.18 298.04C288.012 298.04 288.753 298.221 289.404 298.584C290.054 298.947 290.561 299.459 290.924 300.12C291.286 300.771 291.468 301.523 291.468 302.376ZM289.564 301.8C289.553 301.128 289.313 300.589 288.844 300.184C288.374 299.779 287.793 299.576 287.1 299.576C286.47 299.576 285.932 299.779 285.484 300.184C285.036 300.579 284.769 301.117 284.684 301.8H289.564Z" fill="white"/>
<path d="M349.384 261.88V263.368H346.424V273H344.6V263.368H341.624V261.88H349.384ZM359.311 268.376C359.311 268.707 359.29 269.005 359.247 269.272H352.511C352.565 269.976 352.826 270.541 353.295 270.968C353.765 271.395 354.341 271.608 355.023 271.608C356.005 271.608 356.698 271.197 357.103 270.376H359.071C358.805 271.187 358.319 271.853 357.615 272.376C356.922 272.888 356.058 273.144 355.023 273.144C354.181 273.144 353.423 272.957 352.751 272.584C352.09 272.2 351.567 271.667 351.183 270.984C350.81 270.291 350.623 269.491 350.623 268.584C350.623 267.677 350.805 266.883 351.167 266.2C351.541 265.507 352.058 264.973 352.719 264.6C353.391 264.227 354.159 264.04 355.023 264.04C355.855 264.04 356.597 264.221 357.247 264.584C357.898 264.947 358.405 265.459 358.767 266.12C359.13 266.771 359.311 267.523 359.311 268.376ZM357.407 267.8C357.397 267.128 357.157 266.589 356.687 266.184C356.218 265.779 355.637 265.576 354.943 265.576C354.314 265.576 353.775 265.779 353.327 266.184C352.879 266.579 352.613 267.117 352.527 267.8H357.407ZM356.623 261.816L353.087 263.56V262.216L356.623 260.264V261.816ZM362.93 261.16V273H361.106V261.16H362.93ZM373.405 268.376C373.405 268.707 373.384 269.005 373.341 269.272H366.605C366.658 269.976 366.92 270.541 367.389 270.968C367.858 271.395 368.434 271.608 369.117 271.608C370.098 271.608 370.792 271.197 371.197 270.376H373.165C372.898 271.187 372.413 271.853 371.709 272.376C371.016 272.888 370.152 273.144 369.117 273.144C368.274 273.144 367.517 272.957 366.845 272.584C366.184 272.2 365.661 271.667 365.277 270.984C364.904 270.291 364.717 269.491 364.717 268.584C364.717 267.677 364.898 266.883 365.261 266.2C365.634 265.507 366.152 264.973 366.813 264.6C367.485 264.227 368.253 264.04 369.117 264.04C369.949 264.04 370.69 264.221 371.341 264.584C371.992 264.947 372.498 265.459 372.861 266.12C373.224 266.771 373.405 267.523 373.405 268.376ZM371.501 267.8C371.49 267.128 371.25 266.589 370.781 266.184C370.312 265.779 369.73 265.576 369.037 265.576C368.408 265.576 367.869 265.779 367.421 266.184C366.973 266.579 366.706 267.117 366.621 267.8H371.501ZM370.717 261.816L367.181 263.56V262.216L370.717 260.264V261.816ZM377.328 265.672V270.552C377.328 270.883 377.403 271.123 377.552 271.272C377.712 271.411 377.979 271.48 378.352 271.48H379.472V273H378.032C377.211 273 376.581 272.808 376.144 272.424C375.707 272.04 375.488 271.416 375.488 270.552V265.672H374.448V264.184H375.488V261.992H377.328V264.184H379.472V265.672H377.328ZM382.977 265.464C383.244 265.016 383.596 264.669 384.033 264.424C384.481 264.168 385.009 264.04 385.617 264.04V265.928H385.153C384.438 265.928 383.894 266.109 383.521 266.472C383.158 266.835 382.977 267.464 382.977 268.36V273H381.153V264.184H382.977V265.464ZM386.686 268.552C386.686 267.667 386.867 266.883 387.23 266.2C387.603 265.517 388.104 264.989 388.734 264.616C389.374 264.232 390.078 264.04 390.846 264.04C391.539 264.04 392.142 264.179 392.654 264.456C393.176 264.723 393.592 265.059 393.902 265.464V264.184H395.742V273H393.902V271.688C393.592 272.104 393.171 272.451 392.638 272.728C392.104 273.005 391.496 273.144 390.814 273.144C390.056 273.144 389.363 272.952 388.734 272.568C388.104 272.173 387.603 271.629 387.23 270.936C386.867 270.232 386.686 269.437 386.686 268.552ZM393.902 268.584C393.902 267.976 393.774 267.448 393.518 267C393.272 266.552 392.947 266.211 392.542 265.976C392.136 265.741 391.699 265.624 391.23 265.624C390.76 265.624 390.323 265.741 389.918 265.976C389.512 266.2 389.182 266.536 388.926 266.984C388.68 267.421 388.558 267.944 388.558 268.552C388.558 269.16 388.68 269.693 388.926 270.152C389.182 270.611 389.512 270.963 389.918 271.208C390.334 271.443 390.771 271.56 391.23 271.56C391.699 271.56 392.136 271.443 392.542 271.208C392.947 270.973 393.272 270.632 393.518 270.184C393.774 269.725 393.902 269.192 393.902 268.584ZM401.546 271.368L404.042 264.184H405.977L402.618 273H400.442L397.098 264.184H399.049L401.546 271.368ZM406.748 268.552C406.748 267.667 406.93 266.883 407.292 266.2C407.666 265.517 408.167 264.989 408.796 264.616C409.436 264.232 410.14 264.04 410.908 264.04C411.602 264.04 412.204 264.179 412.716 264.456C413.239 264.723 413.655 265.059 413.964 265.464V264.184H415.804V273H413.964V271.688C413.655 272.104 413.234 272.451 412.7 272.728C412.167 273.005 411.559 273.144 410.876 273.144C410.119 273.144 409.426 272.952 408.796 272.568C408.167 272.173 407.666 271.629 407.292 270.936C406.93 270.232 406.748 269.437 406.748 268.552ZM413.964 268.584C413.964 267.976 413.836 267.448 413.58 267C413.335 266.552 413.01 266.211 412.604 265.976C412.199 265.741 411.762 265.624 411.292 265.624C410.823 265.624 410.386 265.741 409.98 265.976C409.575 266.2 409.244 266.536 408.988 266.984C408.743 267.421 408.62 267.944 408.62 268.552C408.62 269.16 408.743 269.693 408.988 270.152C409.244 270.611 409.575 270.963 409.98 271.208C410.396 271.443 410.834 271.56 411.292 271.56C411.762 271.56 412.199 271.443 412.604 271.208C413.01 270.973 413.335 270.632 413.58 270.184C413.836 269.725 413.964 269.192 413.964 268.584ZM419.128 263.016C418.797 263.016 418.52 262.904 418.296 262.68C418.072 262.456 417.96 262.179 417.96 261.848C417.96 261.517 418.072 261.24 418.296 261.016C418.52 260.792 418.797 260.68 419.128 260.68C419.448 260.68 419.72 260.792 419.944 261.016C420.168 261.24 420.28 261.517 420.28 261.848C420.28 262.179 420.168 262.456 419.944 262.68C419.72 262.904 419.448 263.016 419.128 263.016ZM420.024 264.184V273H418.2V264.184H420.024ZM424.243 261.16V273H422.419V261.16H424.243ZM431.562 270.52C432.586 269.635 433.391 268.909 433.978 268.344C434.575 267.768 435.071 267.171 435.466 266.552C435.86 265.933 436.058 265.315 436.058 264.696C436.058 264.056 435.903 263.555 435.594 263.192C435.295 262.829 434.82 262.648 434.17 262.648C433.54 262.648 433.05 262.851 432.698 263.256C432.356 263.651 432.175 264.184 432.154 264.856H430.394C430.426 263.64 430.788 262.712 431.482 262.072C432.186 261.421 433.076 261.096 434.154 261.096C435.316 261.096 436.223 261.416 436.874 262.056C437.535 262.696 437.866 263.549 437.866 264.616C437.866 265.384 437.668 266.125 437.274 266.84C436.89 267.544 436.426 268.179 435.882 268.744C435.348 269.299 434.666 269.944 433.834 270.68L433.114 271.32H438.186V272.84H430.41V271.512L431.562 270.52ZM445.112 263.016C444.782 263.016 444.504 262.904 444.28 262.68C444.056 262.456 443.944 262.179 443.944 261.848C443.944 261.517 444.056 261.24 444.28 261.016C444.504 260.792 444.782 260.68 445.112 260.68C445.432 260.68 445.704 260.792 445.928 261.016C446.152 261.24 446.264 261.517 446.264 261.848C446.264 262.179 446.152 262.456 445.928 262.68C445.704 262.904 445.432 263.016 445.112 263.016ZM446.008 274.728C446.008 275.592 445.79 276.216 445.352 276.6C444.926 276.995 444.302 277.192 443.48 277.192H442.536V275.656H443.16C443.534 275.656 443.795 275.581 443.944 275.432C444.104 275.293 444.184 275.059 444.184 274.728V264.184H446.008V274.728ZM452.227 273.144C451.395 273.144 450.643 272.957 449.971 272.584C449.299 272.2 448.771 271.667 448.387 270.984C448.003 270.291 447.811 269.491 447.811 268.584C447.811 267.688 448.008 266.893 448.403 266.2C448.798 265.507 449.336 264.973 450.019 264.6C450.702 264.227 451.464 264.04 452.307 264.04C453.15 264.04 453.912 264.227 454.595 264.6C455.278 264.973 455.816 265.507 456.211 266.2C456.606 266.893 456.803 267.688 456.803 268.584C456.803 269.48 456.6 270.275 456.195 270.968C455.79 271.661 455.235 272.2 454.531 272.584C453.838 272.957 453.07 273.144 452.227 273.144ZM452.227 271.56C452.696 271.56 453.134 271.448 453.539 271.224C453.955 271 454.291 270.664 454.547 270.216C454.803 269.768 454.931 269.224 454.931 268.584C454.931 267.944 454.808 267.405 454.563 266.968C454.318 266.52 453.992 266.184 453.587 265.96C453.182 265.736 452.744 265.624 452.275 265.624C451.806 265.624 451.368 265.736 450.963 265.96C450.568 266.184 450.254 266.52 450.019 266.968C449.784 267.405 449.667 267.944 449.667 268.584C449.667 269.533 449.907 270.269 450.387 270.792C450.878 271.304 451.491 271.56 452.227 271.56ZM466.59 264.184V273H464.766V271.96C464.478 272.323 464.1 272.611 463.63 272.824C463.172 273.027 462.681 273.128 462.158 273.128C461.465 273.128 460.841 272.984 460.286 272.696C459.742 272.408 459.31 271.981 458.99 271.416C458.681 270.851 458.526 270.168 458.526 269.368V264.184H460.334V269.096C460.334 269.885 460.532 270.493 460.926 270.92C461.321 271.336 461.86 271.544 462.542 271.544C463.225 271.544 463.764 271.336 464.158 270.92C464.564 270.493 464.766 269.885 464.766 269.096V264.184H466.59ZM470.821 265.464C471.088 265.016 471.44 264.669 471.877 264.424C472.325 264.168 472.853 264.04 473.461 264.04V265.928H472.997C472.282 265.928 471.738 266.109 471.365 266.472C471.002 266.835 470.821 267.464 470.821 268.36V273H468.997V264.184H470.821V265.464ZM478.338 273.144C477.644 273.144 477.02 273.021 476.466 272.776C475.922 272.52 475.49 272.179 475.17 271.752C474.85 271.315 474.679 270.829 474.658 270.296H476.546C476.578 270.669 476.754 270.984 477.074 271.24C477.404 271.485 477.815 271.608 478.306 271.608C478.818 271.608 479.212 271.512 479.49 271.32C479.778 271.117 479.922 270.861 479.922 270.552C479.922 270.221 479.762 269.976 479.442 269.816C479.132 269.656 478.636 269.48 477.954 269.288C477.292 269.107 476.754 268.931 476.338 268.76C475.922 268.589 475.559 268.328 475.25 267.976C474.951 267.624 474.802 267.16 474.802 266.584C474.802 266.115 474.94 265.688 475.218 265.304C475.495 264.909 475.89 264.6 476.402 264.376C476.924 264.152 477.522 264.04 478.194 264.04C479.196 264.04 480.002 264.296 480.61 264.808C481.228 265.309 481.559 265.997 481.602 266.872H479.778C479.746 266.477 479.586 266.163 479.298 265.928C479.01 265.693 478.62 265.576 478.13 265.576C477.65 265.576 477.282 265.667 477.026 265.848C476.77 266.029 476.642 266.269 476.642 266.568C476.642 266.803 476.727 267 476.898 267.16C477.068 267.32 477.276 267.448 477.522 267.544C477.767 267.629 478.13 267.741 478.61 267.88C479.25 268.051 479.772 268.227 480.178 268.408C480.594 268.579 480.951 268.835 481.25 269.176C481.548 269.517 481.703 269.971 481.714 270.536C481.714 271.037 481.575 271.485 481.298 271.88C481.02 272.275 480.626 272.584 480.114 272.808C479.612 273.032 479.02 273.144 478.338 273.144ZM489.604 257.896L485.252 275.8H483.46L487.796 257.896H489.604ZM495.103 273.144C494.41 273.144 493.786 273.021 493.231 272.776C492.687 272.52 492.255 272.179 491.935 271.752C491.615 271.315 491.444 270.829 491.423 270.296H493.311C493.343 270.669 493.519 270.984 493.839 271.24C494.17 271.485 494.58 271.608 495.071 271.608C495.583 271.608 495.978 271.512 496.255 271.32C496.543 271.117 496.687 270.861 496.687 270.552C496.687 270.221 496.527 269.976 496.207 269.816C495.898 269.656 495.402 269.48 494.719 269.288C494.058 269.107 493.519 268.931 493.103 268.76C492.687 268.589 492.324 268.328 492.015 267.976C491.716 267.624 491.567 267.16 491.567 266.584C491.567 266.115 491.706 265.688 491.983 265.304C492.26 264.909 492.655 264.6 493.167 264.376C493.69 264.152 494.287 264.04 494.959 264.04C495.962 264.04 496.767 264.296 497.375 264.808C497.994 265.309 498.324 265.997 498.367 266.872H496.543C496.511 266.477 496.351 266.163 496.063 265.928C495.775 265.693 495.386 265.576 494.895 265.576C494.415 265.576 494.047 265.667 493.791 265.848C493.535 266.029 493.407 266.269 493.407 266.568C493.407 266.803 493.492 267 493.663 267.16C493.834 267.32 494.042 267.448 494.287 267.544C494.532 267.629 494.895 267.741 495.375 267.88C496.015 268.051 496.538 268.227 496.943 268.408C497.359 268.579 497.716 268.835 498.015 269.176C498.314 269.517 498.468 269.971 498.479 270.536C498.479 271.037 498.34 271.485 498.063 271.88C497.786 272.275 497.391 272.584 496.879 272.808C496.378 273.032 495.786 273.144 495.103 273.144ZM508.53 268.376C508.53 268.707 508.509 269.005 508.466 269.272H501.73C501.783 269.976 502.045 270.541 502.514 270.968C502.983 271.395 503.559 271.608 504.242 271.608C505.223 271.608 505.917 271.197 506.322 270.376H508.29C508.023 271.187 507.538 271.853 506.834 272.376C506.141 272.888 505.277 273.144 504.242 273.144C503.399 273.144 502.642 272.957 501.97 272.584C501.309 272.2 500.786 271.667 500.402 270.984C500.029 270.291 499.842 269.491 499.842 268.584C499.842 267.677 500.023 266.883 500.386 266.2C500.759 265.507 501.277 264.973 501.938 264.6C502.61 264.227 503.378 264.04 504.242 264.04C505.074 264.04 505.815 264.221 506.466 264.584C507.117 264.947 507.623 265.459 507.986 266.12C508.349 266.771 508.53 267.523 508.53 268.376ZM506.626 267.8C506.615 267.128 506.375 266.589 505.906 266.184C505.437 265.779 504.855 265.576 504.162 265.576C503.533 265.576 502.994 265.779 502.546 266.184C502.098 266.579 501.831 267.117 501.746 267.8H506.626ZM520.997 264.04C521.69 264.04 522.309 264.184 522.853 264.472C523.408 264.76 523.84 265.187 524.149 265.752C524.469 266.317 524.629 267 524.629 267.8V273H522.821V268.072C522.821 267.283 522.624 266.68 522.229 266.264C521.834 265.837 521.296 265.624 520.613 265.624C519.93 265.624 519.386 265.837 518.981 266.264C518.586 266.68 518.389 267.283 518.389 268.072V273H516.581V268.072C516.581 267.283 516.384 266.68 515.989 266.264C515.594 265.837 515.056 265.624 514.373 265.624C513.69 265.624 513.146 265.837 512.741 266.264C512.346 266.68 512.149 267.283 512.149 268.072V273H510.325V264.184H512.149V265.192C512.448 264.829 512.826 264.547 513.285 264.344C513.744 264.141 514.234 264.04 514.757 264.04C515.461 264.04 516.09 264.189 516.645 264.488C517.2 264.787 517.626 265.219 517.925 265.784C518.192 265.251 518.608 264.829 519.173 264.52C519.738 264.2 520.346 264.04 520.997 264.04ZM526.342 268.552C526.342 267.667 526.523 266.883 526.886 266.2C527.259 265.517 527.761 264.989 528.39 264.616C529.03 264.232 529.734 264.04 530.502 264.04C531.195 264.04 531.798 264.179 532.31 264.456C532.833 264.723 533.249 265.059 533.558 265.464V264.184H535.398V273H533.558V271.688C533.249 272.104 532.827 272.451 532.294 272.728C531.761 273.005 531.153 273.144 530.47 273.144C529.713 273.144 529.019 272.952 528.39 272.568C527.761 272.173 527.259 271.629 526.886 270.936C526.523 270.232 526.342 269.437 526.342 268.552ZM533.558 268.584C533.558 267.976 533.43 267.448 533.174 267C532.929 266.552 532.603 266.211 532.198 265.976C531.793 265.741 531.355 265.624 530.886 265.624C530.417 265.624 529.979 265.741 529.574 265.976C529.169 266.2 528.838 266.536 528.582 266.984C528.337 267.421 528.214 267.944 528.214 268.552C528.214 269.16 528.337 269.693 528.582 270.152C528.838 270.611 529.169 270.963 529.574 271.208C529.99 271.443 530.427 271.56 530.886 271.56C531.355 271.56 531.793 271.443 532.198 271.208C532.603 270.973 532.929 270.632 533.174 270.184C533.43 269.725 533.558 269.192 533.558 268.584ZM538.722 263.016C538.391 263.016 538.114 262.904 537.89 262.68C537.666 262.456 537.554 262.179 537.554 261.848C537.554 261.517 537.666 261.24 537.89 261.016C538.114 260.792 538.391 260.68 538.722 260.68C539.042 260.68 539.314 260.792 539.538 261.016C539.762 261.24 539.874 261.517 539.874 261.848C539.874 262.179 539.762 262.456 539.538 262.68C539.314 262.904 539.042 263.016 538.722 263.016ZM539.618 264.184V273H537.794V264.184H539.618ZM546.461 264.04C547.154 264.04 547.773 264.184 548.317 264.472C548.871 264.76 549.303 265.187 549.613 265.752C549.922 266.317 550.077 267 550.077 267.8V273H548.269V268.072C548.269 267.283 548.071 266.68 547.677 266.264C547.282 265.837 546.743 265.624 546.061 265.624C545.378 265.624 544.834 265.837 544.429 266.264C544.034 266.68 543.837 267.283 543.837 268.072V273H542.013V264.184H543.837V265.192C544.135 264.829 544.514 264.547 544.973 264.344C545.442 264.141 545.938 264.04 546.461 264.04ZM560.483 268.376C560.483 268.707 560.462 269.005 560.419 269.272H553.683C553.736 269.976 553.998 270.541 554.467 270.968C554.936 271.395 555.512 271.608 556.195 271.608C557.176 271.608 557.87 271.197 558.275 270.376H560.243C559.976 271.187 559.491 271.853 558.787 272.376C558.094 272.888 557.23 273.144 556.195 273.144C555.352 273.144 554.595 272.957 553.923 272.584C553.262 272.2 552.739 271.667 552.355 270.984C551.982 270.291 551.795 269.491 551.795 268.584C551.795 267.677 551.976 266.883 552.339 266.2C552.712 265.507 553.23 264.973 553.891 264.6C554.563 264.227 555.331 264.04 556.195 264.04C557.027 264.04 557.768 264.221 558.419 264.584C559.07 264.947 559.576 265.459 559.939 266.12C560.302 266.771 560.483 267.523 560.483 268.376ZM558.579 267.8C558.568 267.128 558.328 266.589 557.859 266.184C557.39 265.779 556.808 265.576 556.115 265.576C555.486 265.576 554.947 265.779 554.499 266.184C554.051 266.579 553.784 267.117 553.699 267.8H558.579Z" fill="white"/>
<path d="M79.384 261.88V263.368H76.424V273H74.6V263.368H71.624V261.88H79.384ZM89.3113 268.376C89.3113 268.707 89.2899 269.005 89.2473 269.272H82.5113C82.5646 269.976 82.8259 270.541 83.2953 270.968C83.7646 271.395 84.3406 271.608 85.0233 271.608C86.0046 271.608 86.6979 271.197 87.1033 270.376H89.0712C88.8046 271.187 88.3193 271.853 87.6153 272.376C86.9219 272.888 86.0579 273.144 85.0233 273.144C84.1806 273.144 83.4233 272.957 82.7513 272.584C82.0899 272.2 81.5673 271.667 81.1833 270.984C80.8099 270.291 80.6233 269.491 80.6233 268.584C80.6233 267.677 80.8046 266.883 81.1673 266.2C81.5406 265.507 82.0579 264.973 82.7193 264.6C83.3913 264.227 84.1593 264.04 85.0233 264.04C85.8553 264.04 86.5966 264.221 87.2473 264.584C87.8979 264.947 88.4046 265.459 88.7673 266.12C89.1299 266.771 89.3113 267.523 89.3113 268.376ZM87.4073 267.8C87.3966 267.128 87.1566 266.589 86.6873 266.184C86.2179 265.779 85.6366 265.576 84.9433 265.576C84.3139 265.576 83.7753 265.779 83.3273 266.184C82.8793 266.579 82.6126 267.117 82.5273 267.8H87.4073ZM86.6233 261.816L83.0873 263.56V262.216L86.6233 260.264V261.816ZM92.9303 261.16V273H91.1063V261.16H92.9303ZM103.405 268.376C103.405 268.707 103.384 269.005 103.341 269.272H96.605C96.6583 269.976 96.9197 270.541 97.389 270.968C97.8583 271.395 98.4343 271.608 99.117 271.608C100.098 271.608 100.792 271.197 101.197 270.376H103.165C102.898 271.187 102.413 271.853 101.709 272.376C101.016 272.888 100.152 273.144 99.117 273.144C98.2743 273.144 97.517 272.957 96.845 272.584C96.1837 272.2 95.661 271.667 95.277 270.984C94.9037 270.291 94.717 269.491 94.717 268.584C94.717 267.677 94.8983 266.883 95.261 266.2C95.6343 265.507 96.1517 264.973 96.813 264.6C97.485 264.227 98.253 264.04 99.117 264.04C99.949 264.04 100.69 264.221 101.341 264.584C101.992 264.947 102.498 265.459 102.861 266.12C103.224 266.771 103.405 267.523 103.405 268.376ZM101.501 267.8C101.49 267.128 101.25 266.589 100.781 266.184C100.312 265.779 99.7303 265.576 99.037 265.576C98.4077 265.576 97.869 265.779 97.421 266.184C96.973 266.579 96.7063 267.117 96.621 267.8H101.501ZM100.717 261.816L97.181 263.56V262.216L100.717 260.264V261.816ZM107.328 265.672V270.552C107.328 270.883 107.403 271.123 107.552 271.272C107.712 271.411 107.979 271.48 108.352 271.48H109.472V273H108.032C107.211 273 106.581 272.808 106.144 272.424C105.707 272.04 105.488 271.416 105.488 270.552V265.672H104.448V264.184H105.488V261.992H107.328V264.184H109.472V265.672H107.328ZM112.977 265.464C113.244 265.016 113.596 264.669 114.033 264.424C114.481 264.168 115.009 264.04 115.617 264.04V265.928H115.153C114.438 265.928 113.894 266.109 113.521 266.472C113.158 266.835 112.977 267.464 112.977 268.36V273H111.153V264.184H112.977V265.464ZM116.686 268.552C116.686 267.667 116.867 266.883 117.23 266.2C117.603 265.517 118.104 264.989 118.734 264.616C119.374 264.232 120.078 264.04 120.846 264.04C121.539 264.04 122.142 264.179 122.654 264.456C123.176 264.723 123.592 265.059 123.902 265.464V264.184H125.742V273H123.902V271.688C123.592 272.104 123.171 272.451 122.638 272.728C122.104 273.005 121.496 273.144 120.814 273.144C120.056 273.144 119.363 272.952 118.734 272.568C118.104 272.173 117.603 271.629 117.23 270.936C116.867 270.232 116.686 269.437 116.686 268.552ZM123.902 268.584C123.902 267.976 123.774 267.448 123.518 267C123.272 266.552 122.947 266.211 122.542 265.976C122.136 265.741 121.699 265.624 121.23 265.624C120.76 265.624 120.323 265.741 119.918 265.976C119.512 266.2 119.182 266.536 118.926 266.984C118.68 267.421 118.558 267.944 118.558 268.552C118.558 269.16 118.68 269.693 118.926 270.152C119.182 270.611 119.512 270.963 119.918 271.208C120.334 271.443 120.771 271.56 121.23 271.56C121.699 271.56 122.136 271.443 122.542 271.208C122.947 270.973 123.272 270.632 123.518 270.184C123.774 269.725 123.902 269.192 123.902 268.584ZM131.546 271.368L134.042 264.184H135.977L132.618 273H130.442L127.098 264.184H129.049L131.546 271.368ZM136.748 268.552C136.748 267.667 136.93 266.883 137.292 266.2C137.666 265.517 138.167 264.989 138.796 264.616C139.436 264.232 140.14 264.04 140.908 264.04C141.602 264.04 142.204 264.179 142.716 264.456C143.239 264.723 143.655 265.059 143.964 265.464V264.184H145.804V273H143.964V271.688C143.655 272.104 143.234 272.451 142.7 272.728C142.167 273.005 141.559 273.144 140.876 273.144C140.119 273.144 139.426 272.952 138.796 272.568C138.167 272.173 137.666 271.629 137.292 270.936C136.93 270.232 136.748 269.437 136.748 268.552ZM143.964 268.584C143.964 267.976 143.836 267.448 143.58 267C143.335 266.552 143.01 266.211 142.604 265.976C142.199 265.741 141.762 265.624 141.292 265.624C140.823 265.624 140.386 265.741 139.98 265.976C139.575 266.2 139.244 266.536 138.988 266.984C138.743 267.421 138.62 267.944 138.62 268.552C138.62 269.16 138.743 269.693 138.988 270.152C139.244 270.611 139.575 270.963 139.98 271.208C140.396 271.443 140.834 271.56 141.292 271.56C141.762 271.56 142.199 271.443 142.604 271.208C143.01 270.973 143.335 270.632 143.58 270.184C143.836 269.725 143.964 269.192 143.964 268.584ZM149.128 263.016C148.797 263.016 148.52 262.904 148.296 262.68C148.072 262.456 147.96 262.179 147.96 261.848C147.96 261.517 148.072 261.24 148.296 261.016C148.52 260.792 148.797 260.68 149.128 260.68C149.448 260.68 149.72 260.792 149.944 261.016C150.168 261.24 150.28 261.517 150.28 261.848C150.28 262.179 150.168 262.456 149.944 262.68C149.72 262.904 149.448 263.016 149.128 263.016ZM150.024 264.184V273H148.2V264.184H150.024ZM154.243 261.16V273H152.419V261.16H154.243ZM160.314 263V261.336H163.642V273H161.802V263H160.314ZM171.472 263.016C171.141 263.016 170.864 262.904 170.64 262.68C170.416 262.456 170.304 262.179 170.304 261.848C170.304 261.517 170.416 261.24 170.64 261.016C170.864 260.792 171.141 260.68 171.472 260.68C171.792 260.68 172.064 260.792 172.288 261.016C172.512 261.24 172.624 261.517 172.624 261.848C172.624 262.179 172.512 262.456 172.288 262.68C172.064 262.904 171.792 263.016 171.472 263.016ZM172.368 274.728C172.368 275.592 172.149 276.216 171.712 276.6C171.285 276.995 170.661 277.192 169.84 277.192H168.896V275.656H169.52C169.893 275.656 170.154 275.581 170.304 275.432C170.464 275.293 170.544 275.059 170.544 274.728V264.184H172.368V274.728ZM178.587 273.144C177.755 273.144 177.003 272.957 176.331 272.584C175.659 272.2 175.131 271.667 174.747 270.984C174.363 270.291 174.171 269.491 174.171 268.584C174.171 267.688 174.368 266.893 174.763 266.2C175.157 265.507 175.696 264.973 176.379 264.6C177.061 264.227 177.824 264.04 178.667 264.04C179.509 264.04 180.272 264.227 180.955 264.6C181.637 264.973 182.176 265.507 182.571 266.2C182.965 266.893 183.163 267.688 183.163 268.584C183.163 269.48 182.96 270.275 182.555 270.968C182.149 271.661 181.595 272.2 180.891 272.584C180.197 272.957 179.429 273.144 178.587 273.144ZM178.587 271.56C179.056 271.56 179.493 271.448 179.899 271.224C180.315 271 180.651 270.664 180.907 270.216C181.163 269.768 181.291 269.224 181.291 268.584C181.291 267.944 181.168 267.405 180.923 266.968C180.677 266.52 180.352 266.184 179.947 265.96C179.541 265.736 179.104 265.624 178.635 265.624C178.165 265.624 177.728 265.736 177.323 265.96C176.928 266.184 176.613 266.52 176.379 266.968C176.144 267.405 176.027 267.944 176.027 268.584C176.027 269.533 176.267 270.269 176.747 270.792C177.237 271.304 177.851 271.56 178.587 271.56ZM192.95 264.184V273H191.126V271.96C190.838 272.323 190.459 272.611 189.99 272.824C189.531 273.027 189.04 273.128 188.518 273.128C187.824 273.128 187.2 272.984 186.646 272.696C186.102 272.408 185.67 271.981 185.35 271.416C185.04 270.851 184.886 270.168 184.886 269.368V264.184H186.694V269.096C186.694 269.885 186.891 270.493 187.286 270.92C187.68 271.336 188.219 271.544 188.902 271.544C189.584 271.544 190.123 271.336 190.518 270.92C190.923 270.493 191.126 269.885 191.126 269.096V264.184H192.95ZM197.18 265.464C197.447 265.016 197.799 264.669 198.236 264.424C198.684 264.168 199.212 264.04 199.82 264.04V265.928H199.356C198.642 265.928 198.098 266.109 197.724 266.472C197.362 266.835 197.18 267.464 197.18 268.36V273H195.356V264.184H197.18V265.464ZM207.417 257.896L203.065 275.8H201.273L205.609 257.896H207.417ZM212.916 273.144C212.222 273.144 211.598 273.021 211.044 272.776C210.5 272.52 210.068 272.179 209.748 271.752C209.428 271.315 209.257 270.829 209.236 270.296H211.124C211.156 270.669 211.332 270.984 211.652 271.24C211.982 271.485 212.393 271.608 212.884 271.608C213.396 271.608 213.79 271.512 214.068 271.32C214.356 271.117 214.5 270.861 214.5 270.552C214.5 270.221 214.34 269.976 214.02 269.816C213.71 269.656 213.214 269.48 212.532 269.288C211.87 269.107 211.332 268.931 210.916 268.76C210.5 268.589 210.137 268.328 209.828 267.976C209.529 267.624 209.38 267.16 209.38 266.584C209.38 266.115 209.518 265.688 209.796 265.304C210.073 264.909 210.468 264.6 210.98 264.376C211.502 264.152 212.1 264.04 212.772 264.04C213.774 264.04 214.58 264.296 215.188 264.808C215.806 265.309 216.137 265.997 216.18 266.872H214.356C214.324 266.477 214.164 266.163 213.876 265.928C213.588 265.693 213.198 265.576 212.708 265.576C212.228 265.576 211.86 265.667 211.604 265.848C211.348 266.029 211.22 266.269 211.22 266.568C211.22 266.803 211.305 267 211.476 267.16C211.646 267.32 211.854 267.448 212.1 267.544C212.345 267.629 212.708 267.741 213.188 267.88C213.828 268.051 214.35 268.227 214.756 268.408C215.172 268.579 215.529 268.835 215.828 269.176C216.126 269.517 216.281 269.971 216.292 270.536C216.292 271.037 216.153 271.485 215.876 271.88C215.598 272.275 215.204 272.584 214.692 272.808C214.19 273.032 213.598 273.144 212.916 273.144ZM226.343 268.376C226.343 268.707 226.321 269.005 226.279 269.272H219.543C219.596 269.976 219.857 270.541 220.327 270.968C220.796 271.395 221.372 271.608 222.055 271.608C223.036 271.608 223.729 271.197 224.135 270.376H226.102C225.836 271.187 225.351 271.853 224.647 272.376C223.953 272.888 223.089 273.144 222.055 273.144C221.212 273.144 220.455 272.957 219.783 272.584C219.121 272.2 218.599 271.667 218.215 270.984C217.841 270.291 217.655 269.491 217.655 268.584C217.655 267.677 217.836 266.883 218.199 266.2C218.572 265.507 219.089 264.973 219.751 264.6C220.423 264.227 221.191 264.04 222.055 264.04C222.887 264.04 223.628 264.221 224.279 264.584C224.929 264.947 225.436 265.459 225.799 266.12C226.161 266.771 226.343 267.523 226.343 268.376ZM224.439 267.8C224.428 267.128 224.188 266.589 223.719 266.184C223.249 265.779 222.668 265.576 221.975 265.576C221.345 265.576 220.807 265.779 220.359 266.184C219.911 266.579 219.644 267.117 219.559 267.8H224.439ZM238.81 264.04C239.503 264.04 240.122 264.184 240.666 264.472C241.22 264.76 241.652 265.187 241.962 265.752C242.282 266.317 242.442 267 242.442 267.8V273H240.634V268.072C240.634 267.283 240.436 266.68 240.042 266.264C239.647 265.837 239.108 265.624 238.426 265.624C237.743 265.624 237.199 265.837 236.794 266.264C236.399 266.68 236.202 267.283 236.202 268.072V273H234.394V268.072C234.394 267.283 234.196 266.68 233.802 266.264C233.407 265.837 232.868 265.624 232.186 265.624C231.503 265.624 230.959 265.837 230.554 266.264C230.159 266.68 229.962 267.283 229.962 268.072V273H228.138V264.184H229.962V265.192C230.26 264.829 230.639 264.547 231.098 264.344C231.556 264.141 232.047 264.04 232.57 264.04C233.274 264.04 233.903 264.189 234.458 264.488C235.012 264.787 235.439 265.219 235.738 265.784C236.004 265.251 236.42 264.829 236.986 264.52C237.551 264.2 238.159 264.04 238.81 264.04ZM244.155 268.552C244.155 267.667 244.336 266.883 244.699 266.2C245.072 265.517 245.573 264.989 246.203 264.616C246.843 264.232 247.547 264.04 248.315 264.04C249.008 264.04 249.611 264.179 250.123 264.456C250.645 264.723 251.061 265.059 251.371 265.464V264.184H253.211V273H251.371V271.688C251.061 272.104 250.64 272.451 250.107 272.728C249.573 273.005 248.965 273.144 248.283 273.144C247.525 273.144 246.832 272.952 246.203 272.568C245.573 272.173 245.072 271.629 244.699 270.936C244.336 270.232 244.155 269.437 244.155 268.552ZM251.371 268.584C251.371 267.976 251.243 267.448 250.987 267C250.741 266.552 250.416 266.211 250.011 265.976C249.605 265.741 249.168 265.624 248.699 265.624C248.229 265.624 247.792 265.741 247.387 265.976C246.981 266.2 246.651 266.536 246.395 266.984C246.149 267.421 246.027 267.944 246.027 268.552C246.027 269.16 246.149 269.693 246.395 270.152C246.651 270.611 246.981 270.963 247.387 271.208C247.803 271.443 248.24 271.56 248.699 271.56C249.168 271.56 249.605 271.443 250.011 271.208C250.416 270.973 250.741 270.632 250.987 270.184C251.243 269.725 251.371 269.192 251.371 268.584ZM256.534 263.016C256.204 263.016 255.926 262.904 255.702 262.68C255.478 262.456 255.366 262.179 255.366 261.848C255.366 261.517 255.478 261.24 255.702 261.016C255.926 260.792 256.204 260.68 256.534 260.68C256.854 260.68 257.126 260.792 257.35 261.016C257.574 261.24 257.686 261.517 257.686 261.848C257.686 262.179 257.574 262.456 257.35 262.68C257.126 262.904 256.854 263.016 256.534 263.016ZM257.43 264.184V273H255.606V264.184H257.43ZM264.273 264.04C264.966 264.04 265.585 264.184 266.129 264.472C266.684 264.76 267.116 265.187 267.425 265.752C267.734 266.317 267.889 267 267.889 267.8V273H266.081V268.072C266.081 267.283 265.884 266.68 265.489 266.264C265.094 265.837 264.556 265.624 263.873 265.624C263.19 265.624 262.646 265.837 262.241 266.264C261.846 266.68 261.649 267.283 261.649 268.072V273H259.825V264.184H261.649V265.192C261.948 264.829 262.326 264.547 262.785 264.344C263.254 264.141 263.75 264.04 264.273 264.04ZM278.296 268.376C278.296 268.707 278.274 269.005 278.232 269.272H271.496C271.549 269.976 271.81 270.541 272.28 270.968C272.749 271.395 273.325 271.608 274.008 271.608C274.989 271.608 275.682 271.197 276.088 270.376H278.056C277.789 271.187 277.304 271.853 276.6 272.376C275.906 272.888 275.042 273.144 274.008 273.144C273.165 273.144 272.408 272.957 271.736 272.584C271.074 272.2 270.552 271.667 270.168 270.984C269.794 270.291 269.608 269.491 269.608 268.584C269.608 267.677 269.789 266.883 270.152 266.2C270.525 265.507 271.042 264.973 271.704 264.6C272.376 264.227 273.144 264.04 274.008 264.04C274.84 264.04 275.581 264.221 276.232 264.584C276.882 264.947 277.389 265.459 277.752 266.12C278.114 266.771 278.296 267.523 278.296 268.376ZM276.392 267.8C276.381 267.128 276.141 266.589 275.672 266.184C275.202 265.779 274.621 265.576 273.928 265.576C273.298 265.576 272.76 265.779 272.312 266.184C271.864 266.579 271.597 267.117 271.512 267.8H276.392Z" fill="white"/>
<path d="M276.984 212.016H272.792L272.12 214H269.256L273.32 202.768H276.488L280.552 214H277.656L276.984 212.016ZM276.28 209.904L274.888 205.792L273.512 209.904H276.28ZM281.245 209.536C281.245 208.608 281.432 207.797 281.805 207.104C282.189 206.411 282.717 205.877 283.389 205.504C284.072 205.131 284.85 204.944 285.725 204.944C286.845 204.944 287.778 205.237 288.525 205.824C289.282 206.411 289.778 207.237 290.013 208.304H287.101C286.856 207.621 286.381 207.28 285.677 207.28C285.176 207.28 284.776 207.477 284.477 207.872C284.178 208.256 284.029 208.811 284.029 209.536C284.029 210.261 284.178 210.821 284.477 211.216C284.776 211.6 285.176 211.792 285.677 211.792C286.381 211.792 286.856 211.451 287.101 210.768H290.013C289.778 211.813 289.282 212.635 288.525 213.232C287.768 213.829 286.834 214.128 285.725 214.128C284.85 214.128 284.072 213.941 283.389 213.568C282.717 213.195 282.189 212.661 281.805 211.968C281.432 211.275 281.245 210.464 281.245 209.536ZM296.452 211.68V214H295.06C294.068 214 293.295 213.76 292.74 213.28C292.186 212.789 291.908 211.995 291.908 210.896V207.344H290.82V205.072H291.908V202.896H294.644V205.072H296.436V207.344H294.644V210.928C294.644 211.195 294.708 211.387 294.836 211.504C294.964 211.621 295.178 211.68 295.476 211.68H296.452ZM299.352 204.144C298.872 204.144 298.478 204.005 298.168 203.728C297.87 203.44 297.72 203.088 297.72 202.672C297.72 202.245 297.87 201.893 298.168 201.616C298.478 201.328 298.872 201.184 299.352 201.184C299.822 201.184 300.206 201.328 300.504 201.616C300.814 201.893 300.968 202.245 300.968 202.672C300.968 203.088 300.814 203.44 300.504 203.728C300.206 204.005 299.822 204.144 299.352 204.144ZM300.712 205.072V214H297.976V205.072H300.712ZM307.175 207.344H305.703V214H302.967V207.344H301.975V205.072H302.967V204.816C302.967 203.717 303.282 202.885 303.911 202.32C304.54 201.744 305.463 201.456 306.679 201.456C306.882 201.456 307.031 201.461 307.127 201.472V203.792C306.604 203.76 306.236 203.835 306.023 204.016C305.81 204.197 305.703 204.523 305.703 204.992V205.072H307.175V207.344ZM320.267 209.392C320.267 209.648 320.251 209.915 320.219 210.192H314.027C314.07 210.747 314.246 211.173 314.555 211.472C314.875 211.76 315.265 211.904 315.723 211.904C316.406 211.904 316.881 211.616 317.147 211.04H320.059C319.91 211.627 319.638 212.155 319.243 212.624C318.859 213.093 318.374 213.461 317.787 213.728C317.201 213.995 316.545 214.128 315.819 214.128C314.945 214.128 314.166 213.941 313.483 213.568C312.801 213.195 312.267 212.661 311.883 211.968C311.499 211.275 311.307 210.464 311.307 209.536C311.307 208.608 311.494 207.797 311.867 207.104C312.251 206.411 312.785 205.877 313.467 205.504C314.15 205.131 314.934 204.944 315.819 204.944C316.683 204.944 317.451 205.125 318.123 205.488C318.795 205.851 319.318 206.368 319.691 207.04C320.075 207.712 320.267 208.496 320.267 209.392ZM317.467 208.672C317.467 208.203 317.307 207.829 316.987 207.552C316.667 207.275 316.267 207.136 315.787 207.136C315.329 207.136 314.939 207.269 314.619 207.536C314.31 207.803 314.118 208.181 314.043 208.672H317.467ZM327.151 204.976C328.196 204.976 329.028 205.317 329.647 206C330.276 206.672 330.591 207.6 330.591 208.784V214H327.871V209.152C327.871 208.555 327.716 208.091 327.407 207.76C327.097 207.429 326.681 207.264 326.159 207.264C325.636 207.264 325.22 207.429 324.911 207.76C324.601 208.091 324.447 208.555 324.447 209.152V214H321.711V205.072H324.447V206.256C324.724 205.861 325.097 205.552 325.567 205.328C326.036 205.093 326.564 204.976 327.151 204.976ZM340.859 211.68V214H339.467C338.475 214 337.701 213.76 337.147 213.28C336.592 212.789 336.315 211.995 336.315 210.896V207.344H335.227V205.072H336.315V202.896H339.051V205.072H340.843V207.344H339.051V210.928C339.051 211.195 339.115 211.387 339.243 211.504C339.371 211.621 339.584 211.68 339.883 211.68H340.859ZM350.799 209.392C350.799 209.648 350.783 209.915 350.751 210.192H344.559C344.601 210.747 344.777 211.173 345.087 211.472C345.407 211.76 345.796 211.904 346.255 211.904C346.937 211.904 347.412 211.616 347.679 211.04H350.591C350.441 211.627 350.169 212.155 349.775 212.624C349.391 213.093 348.905 213.461 348.319 213.728C347.732 213.995 347.076 214.128 346.351 214.128C345.476 214.128 344.697 213.941 344.015 213.568C343.332 213.195 342.799 212.661 342.415 211.968C342.031 211.275 341.839 210.464 341.839 209.536C341.839 208.608 342.025 207.797 342.399 207.104C342.783 206.411 343.316 205.877 343.999 205.504C344.681 205.131 345.465 204.944 346.351 204.944C347.215 204.944 347.983 205.125 348.655 205.488C349.327 205.851 349.849 206.368 350.223 207.04C350.607 207.712 350.799 208.496 350.799 209.392ZM347.999 208.672C347.999 208.203 347.839 207.829 347.519 207.552C347.199 207.275 346.799 207.136 346.319 207.136C345.86 207.136 345.471 207.269 345.151 207.536C344.841 207.803 344.649 208.181 344.575 208.672H347.999ZM348.191 202.784L344.335 204.4V202.512L348.191 200.656V202.784ZM354.978 202.16V214H352.242V202.16H354.978ZM365.377 209.392C365.377 209.648 365.361 209.915 365.329 210.192H359.137C359.179 210.747 359.355 211.173 359.665 211.472C359.985 211.76 360.374 211.904 360.833 211.904C361.515 211.904 361.99 211.616 362.257 211.04H365.169C365.019 211.627 364.747 212.155 364.353 212.624C363.969 213.093 363.483 213.461 362.897 213.728C362.31 213.995 361.654 214.128 360.929 214.128C360.054 214.128 359.275 213.941 358.593 213.568C357.91 213.195 357.377 212.661 356.993 211.968C356.609 211.275 356.417 210.464 356.417 209.536C356.417 208.608 356.603 207.797 356.977 207.104C357.361 206.411 357.894 205.877 358.577 205.504C359.259 205.131 360.043 204.944 360.929 204.944C361.793 204.944 362.561 205.125 363.233 205.488C363.905 205.851 364.427 206.368 364.801 207.04C365.185 207.712 365.377 208.496 365.377 209.392ZM362.577 208.672C362.577 208.203 362.417 207.829 362.097 207.552C361.777 207.275 361.377 207.136 360.897 207.136C360.438 207.136 360.049 207.269 359.729 207.536C359.419 207.803 359.227 208.181 359.153 208.672H362.577ZM362.769 202.784L358.913 204.4V202.512L362.769 200.656V202.784ZM371.796 211.68V214H370.404C369.412 214 368.639 213.76 368.084 213.28C367.529 212.789 367.252 211.995 367.252 210.896V207.344H366.164V205.072H367.252V202.896H369.988V205.072H371.78V207.344H369.988V210.928C369.988 211.195 370.052 211.387 370.18 211.504C370.308 211.621 370.521 211.68 370.82 211.68H371.796ZM376.056 206.56C376.376 206.069 376.776 205.685 377.256 205.408C377.736 205.12 378.269 204.976 378.856 204.976V207.872H378.104C377.421 207.872 376.909 208.021 376.568 208.32C376.227 208.608 376.056 209.12 376.056 209.856V214H373.32V205.072H376.056V206.56ZM379.62 209.52C379.62 208.603 379.791 207.797 380.132 207.104C380.484 206.411 380.959 205.877 381.556 205.504C382.153 205.131 382.82 204.944 383.556 204.944C384.185 204.944 384.735 205.072 385.204 205.328C385.684 205.584 386.052 205.92 386.308 206.336V205.072H389.044V214H386.308V212.736C386.041 213.152 385.668 213.488 385.188 213.744C384.719 214 384.169 214.128 383.54 214.128C382.815 214.128 382.153 213.941 381.556 213.568C380.959 213.184 380.484 212.645 380.132 211.952C379.791 211.248 379.62 210.437 379.62 209.52ZM386.308 209.536C386.308 208.853 386.116 208.315 385.732 207.92C385.359 207.525 384.9 207.328 384.356 207.328C383.812 207.328 383.348 207.525 382.964 207.92C382.591 208.304 382.404 208.837 382.404 209.52C382.404 210.203 382.591 210.747 382.964 211.152C383.348 211.547 383.812 211.744 384.356 211.744C384.9 211.744 385.359 211.547 385.732 211.152C386.116 210.757 386.308 210.219 386.308 209.536ZM395.039 211.44L396.975 205.072H399.887L396.719 214H393.343L390.175 205.072H393.103L395.039 211.44ZM400.495 209.52C400.495 208.603 400.666 207.797 401.007 207.104C401.359 206.411 401.834 205.877 402.431 205.504C403.028 205.131 403.695 204.944 404.431 204.944C405.06 204.944 405.61 205.072 406.079 205.328C406.559 205.584 406.927 205.92 407.183 206.336V205.072H409.919V214H407.183V212.736C406.916 213.152 406.543 213.488 406.063 213.744C405.594 214 405.044 214.128 404.415 214.128C403.69 214.128 403.028 213.941 402.431 213.568C401.834 213.184 401.359 212.645 401.007 211.952C400.666 211.248 400.495 210.437 400.495 209.52ZM407.183 209.536C407.183 208.853 406.991 208.315 406.607 207.92C406.234 207.525 405.775 207.328 405.231 207.328C404.687 207.328 404.223 207.525 403.839 207.92C403.466 208.304 403.279 208.837 403.279 209.52C403.279 210.203 403.466 210.747 403.839 211.152C404.223 211.547 404.687 211.744 405.231 211.744C405.775 211.744 406.234 211.547 406.607 211.152C406.991 210.757 407.183 210.219 407.183 209.536ZM413.274 204.144C412.794 204.144 412.4 204.005 412.09 203.728C411.792 203.44 411.642 203.088 411.642 202.672C411.642 202.245 411.792 201.893 412.09 201.616C412.4 201.328 412.794 201.184 413.274 201.184C413.744 201.184 414.128 201.328 414.426 201.616C414.736 201.893 414.89 202.245 414.89 202.672C414.89 203.088 414.736 203.44 414.426 203.728C414.128 204.005 413.744 204.144 413.274 204.144ZM414.634 205.072V214H411.898V205.072H414.634ZM419.353 202.16V214H416.617V202.16H419.353ZM428.406 217.344C427.372 216.352 426.566 215.072 425.99 213.504C425.414 211.936 425.126 210.245 425.126 208.432C425.126 206.597 425.425 204.885 426.022 203.296C426.62 201.696 427.468 200.395 428.566 199.392H431.254V199.648C430.134 200.757 429.27 202.091 428.662 203.648C428.054 205.195 427.75 206.789 427.75 208.432C427.75 210.064 428.044 211.637 428.63 213.152C429.217 214.667 430.044 215.979 431.11 217.088V217.344H428.406ZM431.855 205.264C431.855 204.4 432.101 203.733 432.591 203.264C433.093 202.795 433.738 202.56 434.527 202.56C435.317 202.56 435.957 202.795 436.447 203.264C436.938 203.733 437.183 204.4 437.183 205.264C437.183 206.128 436.938 206.795 436.447 207.264C435.957 207.733 435.317 207.968 434.527 207.968C433.738 207.968 433.093 207.733 432.591 207.264C432.101 206.795 431.855 206.128 431.855 205.264ZM442.719 202.736L436.559 214H433.919L440.079 202.736H442.719ZM434.511 204.16C433.999 204.16 433.743 204.528 433.743 205.264C433.743 205.989 433.999 206.352 434.511 206.352C434.757 206.352 434.949 206.261 435.087 206.08C435.226 205.899 435.295 205.627 435.295 205.264C435.295 204.528 435.034 204.16 434.511 204.16ZM439.471 211.472C439.471 210.608 439.717 209.941 440.207 209.472C440.698 209.003 441.338 208.768 442.127 208.768C442.917 208.768 443.557 209.003 444.047 209.472C444.538 209.941 444.783 210.608 444.783 211.472C444.783 212.336 444.538 213.003 444.047 213.472C443.557 213.941 442.917 214.176 442.127 214.176C441.338 214.176 440.698 213.941 440.207 213.472C439.717 213.003 439.471 212.336 439.471 211.472ZM442.111 210.368C441.866 210.368 441.674 210.459 441.535 210.64C441.407 210.821 441.343 211.099 441.343 211.472C441.343 212.197 441.599 212.56 442.111 212.56C442.357 212.56 442.549 212.469 442.687 212.288C442.826 212.107 442.895 211.835 442.895 211.472C442.895 211.109 442.826 210.837 442.687 210.656C442.549 210.464 442.357 210.368 442.111 210.368ZM445.537 217.344V217.088C446.604 215.979 447.431 214.667 448.017 213.152C448.604 211.637 448.897 210.064 448.897 208.432C448.897 206.789 448.593 205.195 447.985 203.648C447.377 202.091 446.513 200.757 445.393 199.648V199.392H448.081C449.18 200.395 450.028 201.696 450.625 203.296C451.223 204.885 451.521 206.597 451.521 208.432C451.521 210.245 451.233 211.936 450.657 213.504C450.081 215.072 449.276 216.352 448.241 217.344H445.537Z" fill="white"/>
</svg>
