<?xml version="1.0" encoding="UTF-8"?><svg xmlns="http://www.w3.org/2000/svg" xmlns:xlink="http://www.w3.org/1999/xlink" viewBox="0 0 495 429.52"><defs><style>.e,.f,.g,.h,.i,.j,.k,.l,.m,.n{fill:none;}.o{fill:#f5b5d3;}.p{fill:#f5ebdd;}.q{fill:#f5e6d8;}.r{fill:#fcbd26;}.s{fill:#a25942;}.t{fill:#c97358;}.u{fill:#42c0f0;}.v{fill:#4657a3;}.w{fill:#30242a;}.f{stroke:#f5b5d3;}.f,.g,.h,.i,.j,.k,.l,.m{stroke-width:4px;}.f,.g,.h,.i,.j,.k,.m{stroke-linecap:round;}.f,.g,.m{stroke-linejoin:round;}.g{stroke:#42c0f0;}.h,.i,.j,.k,.l{stroke-miterlimit:10;}.h,.m{stroke:#30242a;}.i,.l{stroke:#c97358;}.j{stroke:#a25942;}.k{stroke:#f5ebdd;}.x{clip-path:url(#d);}.n{stroke:#fff;}.y{fill:rgba(255,255,255,.25);fill-rule:evenodd;}</style><clipPath id="d"><rect class="e" y="19.74" width="495" height="363"/></clipPath></defs><g id="a"/><g id="b"><g id="c"><path class="y" d="M89.48,158.03c10.63-36.18-10.72-81.44,14.61-109.38,25.48-28.09,70.65-19.03,107.98-25.79,41.62-7.53,84.74-34.54,122.74-15.97,38.27,18.71,42.67,70.11,63.73,107.14,24.44,42.97,73.12,77.64,69.41,126.93-3.76,50.15-49.83,85.15-87.82,118.12-37.55,32.59-78.51,64.5-128.02,69.21-49.42,4.7-98.49-14.48-138.5-43.86-37.33-27.41-70.09-66.86-75-112.91-4.5-42.26,38.89-72.73,50.87-113.51Z"/><path class="n" d="M104.48,158.03c10.63-36.18-10.72-81.44,14.61-109.38,25.48-28.09,70.65-19.03,107.98-25.79,41.62-7.53,84.74-34.54,122.74-15.97,38.27,18.71,42.67,70.11,63.73,107.14,24.44,42.97,73.12,77.64,69.41,126.93-3.76,50.15-49.83,85.15-87.82,118.12-37.55,32.59-78.51,64.5-128.02,69.21-49.42,4.7-98.49-14.48-138.5-43.86-37.33-27.41-70.09-66.86-75-112.91-4.5-42.26,38.89-72.73,50.87-113.51Z"/><g class="x"><g><path class="o" d="M168.56,32.07h7.99c37.83,0,68.5,30.66,68.5,68.48V235.64H100.07V100.54c0-37.82,30.67-68.48,68.5-68.48Z"/><path class="t" d="M198.92,155.2v82.56h-64.41v-82.56h64.41Zm1.67-1.67h-67.74v85.89h67.74v-85.89Z"/><path class="t" d="M200.59,153.54h-67.74v17.76h67.74v-17.76Z"/><path class="t" d="M132.52,110.61v127.57h-38.8V110.61h38.8Zm1.67-1.67h-42.13V239.84h42.13V108.94Z"/><path class="t" d="M252.1,84.8V237.75h-51.19V84.8h51.19Zm1.67-1.67h-54.52V239.41h54.52V83.13Z"/><path class="t" d="M221.25,103.99h.8c3.77,0,6.83,3.06,6.83,6.83v15.88h-14.45v-15.88c0-3.77,3.06-6.83,6.83-6.83Z"/><path class="f" d="M212.77,116.37h17.76"/><path class="p" d="M221.25,144.73h.8c3.77,0,6.83,3.05,6.83,6.83v15.89h-14.45v-15.89c0-3.77,3.06-6.83,6.83-6.83h0Z"/><path class="f" d="M212.77,157.12h17.76"/><path class="p" d="M221.25,185.47h.8c3.77,0,6.83,3.06,6.83,6.83v15.88h-14.45v-15.88c0-3.77,3.06-6.83,6.83-6.83Z"/><path class="f" d="M212.77,197.86h17.76"/><path class="w" d="M221.25,226.21h.8c3.77,0,6.83,3.05,6.83,6.83v14.59h-14.45v-14.59c0-3.77,3.06-6.83,6.83-6.83Z"/><path class="p" d="M104.53,137.74h.8c3.77,0,6.83,3.05,6.83,6.83v15.88h-14.45v-15.88c0-3.77,3.06-6.83,6.83-6.83Z"/><path class="f" d="M96.05,150.13h17.76"/><path class="p" d="M104.53,178.48h.8c3.77,0,6.83,3.06,6.83,6.83v15.89h-14.45v-15.89c0-3.77,3.05-6.83,6.82-6.83h0Z"/><path class="f" d="M96.05,190.87h17.76"/><path class="t" d="M104.53,219.23h.8c3.77,0,6.83,3.05,6.83,6.83v15.88h-14.45v-15.88c0-3.77,3.06-6.83,6.83-6.83Z"/><path class="f" d="M96.05,231.62h17.76"/><path class="t" d="M253.77,83.13h-54.52v6.81h54.52v-6.81Z"/><path class="t" d="M134.19,105.64h-42.13v6.81h42.13v-6.81Z"/><path class="p" d="M159.49,187.4h-14.46v18.58h14.46v-18.58Z"/><path class="f" d="M143.38,195.66h17.76"/><path class="f" d="M152.26,206.81v-11.15"/><path class="t" d="M159.49,220.96h-14.46v18.58h14.46v-18.58Z"/><path class="f" d="M143.38,229.21h17.76"/><path class="f" d="M152.26,240.37v-11.15"/><path class="w" d="M186.75,187.4h-14.46v18.58h14.46v-18.58Z"/><path class="f" d="M170.64,195.66h17.76"/><path class="f" d="M179.52,206.81v-11.15"/><path class="p" d="M186.75,220.96h-14.46v18.58h14.46v-18.58Z"/><path class="f" d="M170.64,229.21h17.76"/><path class="f" d="M179.52,240.37v-11.15"/><path class="p" d="M142.45,82.51c5.93,0,10.74-4.81,10.74-10.74s-4.81-10.74-10.74-10.74-10.74,4.81-10.74,10.74,4.81,10.74,10.74,10.74Z"/><path class="p" d="M263.64,235.71H81.48v12.39h182.16v-12.39Z"/><path class="p" d="M175.44,19.74h-5.76c-45.28,0-82,36.71-82,81.98V248.1h169.77V101.73c0-45.28-36.72-81.98-82.01-81.98Zm-9.08,215.97H100.08v-103.23h66.28v103.23Zm0-115.62H100.08v-17.94c0-37.21,29.11-67.92,66.28-69.91V120.09Zm78.69,115.62h-66.28v-103.23h66.28v103.23Zm0-115.62h-66.28V32.23c37.17,1.99,66.28,32.7,66.28,69.91v17.94Z"/><path class="s" d="M216.18,224.83s-28.62-68.68-29.87-86.58c-4.2-60.26,61.19-25.93,71.41-20,7.45,4.32,36.64,20.65,42.47,26.47,3.75,3.75,1.14,6.53,1.14,6.53,0,0,4.38,5.75-1.78,6.43,4.38,5.75-2.6,6.53-2.6,6.53,0,0,1.87,5.61-5.39,3.93-7.82-1.82-67.12-27.48-67.12-27.48,0,0,13.25,41.81,17.38,55.04l-25.65,29.13Z"/><path class="h" d="M280.1,163.35c1.41-.28,2.36-1.09,2.08-2.84-.9-5.73-10.48-11.15-10.48-11.15,0,0,3.84-9.25-3.7-16.39"/><path class="h" d="M296.85,163.91c-3.44-2.01-16.05-9.38-19.04-10.92"/><path class="h" d="M299.67,157.49c-4.3-2.58-14.78-9.1-19.11-11.37"/><path class="h" d="M301.23,150.45c-5.42-3.59-15.64-10.25-19.68-12.29"/><path class="h" d="M277.33,152.2c1.44-2.61,3.91-7.79,4.04-16.1"/><path class="m" d="M224.29,141.63l-9.76-4.43"/><path class="s" d="M144.99,336.51H75.53v8.03h69.45v-8.03Z"/><path class="r" d="M156.43,378.17l-17.21-103.21h10.54c2.35,0,4.25-1.9,4.25-4.25s-1.9-4.25-4.25-4.25H70.86c-2.35,0-4.25,1.9-4.25,4.25s1.91,4.25,4.25,4.25h10.42l-17.2,103.2c-.33,1.94,.98,3.78,2.92,4.12,.2,.03,.4,.05,.6,.05,1.68,0,3.13-1.17,3.49-2.81l22.81-104.56h32.74l22.79,104.55c.35,1.64,1.81,2.81,3.49,2.81,1.97,0,3.57-1.59,3.58-3.56,0-.2-.02-.4-.05-.6Z"/><path class="s" d="M149.76,274.97c2.35,0,4.25-1.9,4.25-4.25s-1.91-4.25-4.25-4.25H70.86c-2.35,0-4.25,1.9-4.25,4.25s1.91,4.25,4.25,4.25h10.42l-.02,.13h12.59l.03-.13h32.74l.03,.13h12.6l-.02-.13h10.54Z"/><path class="o" d="M116.87,374.88H18.88L.4,318.03c-1.37-4.22,.94-7.63,5.15-7.63H88.28c4.22,0,8.75,3.42,10.12,7.63l18.48,56.85Z"/><path class="o" d="M178.6,374.88H82.24c.97,2.99-.67,6.2-3.66,7.16-.57,.18-1.16,.28-1.76,.28h96.36c3.14,0,5.69-2.53,5.7-5.67,0-.6-.09-1.2-.28-1.77Z"/><path class="t" d="M82.24,374.88H18.97l.74,2.28c1,3.08,3.87,5.17,7.11,5.17h50.02c3.14-.01,5.68-2.57,5.67-5.71,0-.59-.1-1.17-.28-1.73Z"/><path class="p" d="M110.2,374.88H26.4l-17.49-53.74H92.71l17.49,53.74Z"/><path class="u" d="M78.85,364.22h-25.81c-2.87,0-5.94-2.33-6.88-5.19l-6.22-19.17c-.93-2.86,.64-5.19,3.51-5.19h25.81c2.86,0,5.94,2.32,6.87,5.19l6.22,19.17c.93,2.86-.64,5.19-3.5,5.19Z"/><path class="i" d="M19.35,374.06H116.07"/><path class="k" d="M75.97,338.94l-10.18,10.87c-1.97,2.08-5.73,2.08-9.07,0l-16.81-10.59"/><path class="k" d="M66.19,349.49l16.05,10.11"/><path class="k" d="M46.42,359.85l9.6-10.25"/><path class="v" d="M76.96,342.13c-3.21,0-6.67-2.63-7.73-5.83-.49-1.52-.36-2.92,.37-3.91,.67-.92,1.8-1.42,3.18-1.42,3.21,0,6.67,2.62,7.72,5.86,.5,1.52,.37,2.92-.37,3.91-.67,.9-1.8,1.41-3.18,1.41Z"/><path class="p" d="M72.78,331.77c2.83,0,6,2.42,6.93,5.28,.42,1.25,.32,2.38-.25,3.17-.61,.74-1.54,1.15-2.5,1.08-2.83,0-6-2.42-6.93-5.28-.42-1.25-.32-2.38,.25-3.16,.51-.7,1.4-1.08,2.5-1.08Zm0-1.67c-3.55,0-5.5,2.88-4.34,6.43,1.15,3.55,4.97,6.43,8.52,6.43s5.5-2.88,4.34-6.43c-1.15-3.55-4.97-6.43-8.52-6.43Z"/><path class="u" d="M415.83,187.21h-.11c-.74,1.34-5.63,9.55-14.22,9.55s-13.48-8.21-14.23-9.55h-.1l-13.37,60.35h55.4l-13.37-60.35Z"/><path class="k" d="M380.14,219.32c11.35,1.19,28.97,11.32,35.09,28.07"/><path class="k" d="M387.49,247.88c1.27-13.65,12.09-36.21,31.56-43.26"/><path class="k" d="M401.3,192.32c-4.78,5.04-10.81,9.73-17.63,12.88"/><path class="w" d="M401.51,196.76c8.59,0,13.48-8.21,14.22-9.55h-28.45c.75,1.34,5.63,9.55,14.23,9.55Z"/><path class="s" d="M323.44,382.33c-2.02,0-3.66-1.64-3.66-3.66,0-.39,.06-.78,.18-1.15l11.5-34.97c.5-1.5,1.9-2.5,3.48-2.5h8.05c2.02,0,3.66,1.64,3.67,3.66,0,.62-.16,1.24-.47,1.79l-19.54,34.97c-.65,1.15-1.88,1.86-3.2,1.86Z"/><path class="s" d="M477.25,382.33c2.02,0,3.67-1.64,3.67-3.66,0-.39-.06-.78-.18-1.15l-11.5-34.97c-.5-1.5-1.9-2.5-3.48-2.5h-8.05c-2.02,0-3.66,1.64-3.66,3.66,0,.62,.16,1.24,.47,1.79l19.54,34.97c.65,1.15,1.88,1.86,3.2,1.86Z"/><path class="o" d="M495,246.88h-188.66v107.97h188.66v-107.97Z"/><path class="t" d="M480.8,260.8v80.13h-160.26v-80.13h160.26Zm1.67-1.67h-163.6v83.47h163.6v-83.47Z"/><path class="l" d="M400.5,258.98v83.77"/><path class="w" d="M419.45,305.72c2.68,0,4.86-2.17,4.86-4.85s-2.18-4.86-4.86-4.86-4.86,2.17-4.86,4.86,2.17,4.85,4.86,4.85Z"/><path class="w" d="M381.89,305.72c2.68,0,4.86-2.17,4.86-4.85s-2.17-4.86-4.86-4.86-4.86,2.17-4.86,4.86,2.17,4.85,4.86,4.85Z"/><path class="v" d="M122.54,214.62c6.74,0,12.2,5.46,12.2,12.2v39.76h-24.4v-39.76c0-6.74,5.46-12.2,12.2-12.2Z"/><path class="u" d="M134.74,230.2h-24.41v22.73h24.41v-22.73Z"/><path class="w" d="M127.96,208.29h-10.85v7.68h10.85v-7.68Z"/><path class="w" d="M271.79,143.81c8.33,0,15.09-6.75,15.09-15.09s-6.76-15.09-15.09-15.09-15.09,6.75-15.09,15.09,6.76,15.09,15.09,15.09Z"/><path class="r" d="M260.07,138.05c1.21,.55-9.01-23.34-14.13-19.55-4.82,3.55,8.04,16.78,14.13,19.55Z"/><path class="r" d="M258.78,138c1,1.25,25.12-6.67,21.89-11.58-3.09-4.71-22.89,10.34-21.89,11.58Z"/><path class="w" d="M288.33,120.66c5.37,0,9.72-4.35,9.72-9.71s-4.35-9.71-9.72-9.71-9.72,4.35-9.72,9.71,4.35,9.71,9.72,9.71Z"/><path class="t" d="M221.97,283.12h49.62l2.62-12.4h-59.79l7.55,12.4Z"/><path class="t" d="M221.53,242.19s10.13-13.23,29.15-14.47l12.63-27.12c-3.37-.54-5.8-.88-5.8-.88,.5-1.21,2.2-5.21,4.26-10.14-3.72-2.47-9.79-7.33-11.2-13.46,4.46-.67,13.34-4.88,9.83-12.24-4.29-9.03-15.66-2.08-15.66-2.08-3.45-3.91-5.65-8.76-6.33-13.94-1.38,.14-5.33-.28-8.14-1.8l-.19-.11c-1.5,2.95-2.85,5.97-4.03,9.06-.31,.79-.61,1.56-.93,2.29,0,0-3.92-.67-4.73,.95-1,2,1.99,4.58,1.99,4.58-2.38,4.49-4.5,8.16-3.73,12.81,.68,4.1,4.55,9.09,13.67,9.93l-4.59,14.46-17.09,29.67c3.35,1.96,7.85,5.7,10.88,12.49Z"/><path class="t" d="M342.29,184.11c-5.38-6.71-24.6-34.13-31.01-39.27-4.14-3.31-6.62-.42-6.62-.42,0,0-6.2-3.72-6.2,2.48-6.2-3.72-6.2,3.3-6.2,3.3,0,0-5.79-1.25-3.3,5.79,2.67,7.57,32.67,62.19,32.67,62.19,0,0-31.02-11.57-43.01-14.66-2.2-.57-4.9-1.12-7.62-1.63-1.76,4.11-4.5,10.84-8.92,22.09-6,15.23-3.08,30.46,14.29,36.5l3.08-14.59s32.1,12.06,50.02,11.57c60.79-1.65,20.27-64.07,12.83-73.37Z"/><path class="w" d="M238.42,147.86c.67,5.19,2.88,10.05,6.34,13.97,0,0,11.36-6.97,15.66,2.08,3.51,7.36-5.37,11.57-9.83,12.24,1.4,6.13,7.48,10.99,11.2,13.46,3.05-7.33,6.88-16.73,8.68-22.09,2.66-7.94,4.04-20.25-7.92-29.15-11.19-8.31-24.02-2.8-26.91,.1-1.72,1.72-3.34,3.33-5.52,7.5l.19,.11c2.79,1.47,6.74,1.89,8.12,1.77Z"/><path class="r" d="M262.07,224.01c4.42-11.23,7.17-17.97,8.92-22.09-2.68-.5-5.39-.96-7.67-1.32l-12.62,27.13c-19.02,1.25-29.15,14.47-29.15,14.47-3.04-6.79-7.54-10.53-10.88-12.5l-3.81,6.61c-3.96,7.09-3.8,15.77,.42,22.7l7.12,11.7h59.79l2.15-10.21c-17.37-6.03-20.29-21.26-14.29-36.49Z"/><path class="h" d="M232.59,186.42c2.59-.01,5.17-.4,7.66-1.13"/><path class="h" d="M293.46,164.46c.3-1.06,1.05-1.75,2.53-1.64,5.79,.42,11.99,9.51,11.99,9.51,0,0,8.9-4.58,16.65,2.31"/><path class="h" d="M293.1,149.99c3.23,5.1,9.25,14.59,10.73,16.97"/><path class="h" d="M299.07,146.45c3.33,4.91,9.17,13.29,11.38,16.79"/><path class="h" d="M305.6,144.52c4.17,5.32,10.55,13.57,12.71,17.09"/><path class="h" d="M304.67,166.96c2.5-1.67,7.44-4.55,15.71-5.37"/><path class="h" d="M257.41,198.84l-7.33-.88"/><path class="h" d="M231.48,278.98l-.41-.83"/><path class="h" d="M279.03,246.71l-4.14-1.62"/><path class="h" d="M331.13,221.11l-9.4-3.69"/><path class="m" d="M274.21,270.71h-59.79"/><path class="m" d="M250.09,227.72l-6.04,13.49c-1.85,4.13-5.95,6.78-10.48,6.78h-29.6"/><path class="h" d="M224.65,167.86c.71,.61,3.61,1.45,5.15-.64"/><path class="j" d="M254.02,166.56l-5.24,2.03"/><path class="m" d="M234.49,158.38c-1.61,.4-3.24-.57-3.64-2.19-.02-.06-.03-.12-.04-.19"/><path class="q" d="M248.55,173.95l-1.89,7.73c-.32,1.28,.45,2.59,1.73,2.91,.38,.1,.77,.1,1.15,0l7.07-1.67c1.29-.31,2.08-1.61,1.76-2.89-.09-.37-.27-.71-.51-1l-5.17-6.05c-.86-1-2.38-1.12-3.38-.25-.37,.32-.63,.74-.76,1.21Z"/><path class="m" d="M264.47,353.57c-4.14-4.96-18.52-22.92-18.52-22.92"/><path class="v" d="M376.19,313.31c-1.52-4.1-4.3-10.97-7.74-19.22l-36.87,10.76-4.23,1.33c1.9,12.29,3.36,18.28,3.36,18.28,0,0-39.69-36.38-59.13-41.34h-49.64l-16.95,99.21h148.03c42.19,0,30.2-50.02,23.16-69.02Z"/><path class="s" d="M336.05,218.49c-.99-2.36-3.51-3.69-6.01-3.18-7.35,1.64-7.92,15.55-9.66,23.57-2.89,13.23-9.1,18.19-9.51,26.87-.42,8.33,12.82,11.57,12.82,11.57,.45,4.36,.91,8.42,1.37,12.16l36.84-11.01c-10.11-23.81-22.07-51.32-25.85-59.98Z"/><path class="s" d="M327.34,306.08v.1l4.23-1.33-4.23,1.24Z"/><path class="u" d="M368.46,294.07c-.11-.25-.21-.51-.32-.77l-36.55,11.54,36.88-10.77Z"/><path class="u" d="M368.14,293.3c-1.92-4.61-4.04-9.63-6.25-14.82l-36.84,11.01c.79,6.43,1.57,11.96,2.28,16.59l4.24-1.25,36.57-11.53Z"/><path class="g" d="M256.44,282.99c13.22,13.86,81.55,84.1,102.81,77.01,15.52-5.17-7.33-56.13-9.51-62.83"/><path class="m" d="M348.68,339.39c-4.79-4.29-13.34-11.95-17.88-15.99"/><path class="m" d="M322.03,267.82l.81,8.64"/><path class="m" d="M332.42,216.05l1.57,4.39"/><path class="m" d="M328.67,216.46l2.54,6.23"/><path class="v" d="M232.59,338.24l-.23-.07,8.62-55.14h-19.03s-76.07,29.02-93.43,56.71c-16.42,26.18,13.65,42.58,22.33,42.58h75.73l6.01-44.08Z"/><path class="t" d="M312.52,382.33c9.93,0,6.62-11.16-.42-14.88-7.04-3.72-15.3-7.44-23.98-19.02-8.68-11.57-19.02-8.68-25.64-.42,0,0-5.05-1.81-12.46-4.27l-5.8,38.58h68.3Z"/><path class="u" d="M233.32,338.46l-.73-.22-6.02,44.08h17.65l5.8-38.6c-4.82-1.58-10.63-3.45-16.71-5.27Z"/><path class="m" d="M307.97,377.78l6.11,3.71"/><path class="m" d="M191.78,328.59c17.37,3.3,24.88,5.42,40.59,10.42"/><path class="m" d="M303.01,379.85l3.56,2.06"/><path class="m" d="M263.32,347.5l5.79,2.17"/><path class="h" d="M402.82,191.72c.88-5.22,4.9-25.91,14.74-37.11"/><path class="w" d="M423.61,172.67c8.59-3.71,14.87-8.29,14.04-10.22-.84-1.93-8.47-.49-17.06,3.22s-14.87,8.29-14.04,10.22c.84,1.93,8.47,.49,17.06-3.22Z"/><path class="w" d="M424.46,118.65c3.1-4.14,4.45-8.37,3.01-9.46-1.44-1.08-5.13,1.4-8.24,5.53-3.11,4.14-4.45,8.37-3.01,9.46,1.44,1.08,5.13-1.4,8.24-5.54Z"/><path class="r" d="M441.23,146.56c-.61-1.97-4.52-2.6-9.48-1.77,3.63-4.9,5.13-9.69,3.33-11.21-1.8-1.51-6.25,.77-10.49,5.17,0-5.03-1.3-8.79-3.33-9.05-2.6-.34-5.45,5.14-6.37,12.24-.27,2.03-.35,4.07-.23,6.11,3.98-1.25,8.22,.97,9.47,4.95,.32,1,.42,2.06,.3,3.11,1.97-.23,3.91-.64,5.8-1.22,6.83-2.09,11.76-5.82,11-8.33Z"/><path class="w" d="M421.78,149.48c-1.97-1.67-4.67-2.21-7.13-1.43,.22,3.38,1.06,5.97,2.34,6.94,1.19,1.12,3.96,1.51,7.42,1.12,.28-2.51-.7-5-2.63-6.63Z"/><path class="h" d="M400.09,191.06c-.29-5.93-2.01-35.01-8.46-52.18"/><path class="w" d="M378.81,174.38c11.09-2.11,19.78-5.41,19.4-7.37-.37-1.96-9.67-1.83-20.75,.28-11.09,2.11-19.78,5.41-19.4,7.37,.37,1.96,9.67,1.83,20.75-.28Z"/><path class="r" d="M396.36,114.15c-2.01-.44-4.48,2.67-6.2,7.39-2.5-5.57-5.94-9.22-8.13-8.41-2.19,.82-2.4,5.83-.64,11.67-4.39-2.45-8.29-3.18-9.52-1.53-1.57,2.08,1.8,7.27,7.54,11.55,1.63,1.23,3.38,2.3,5.22,3.2,.86-4.08,4.87-6.68,8.95-5.82,1.03,.22,2.01,.65,2.86,1.27,.76-1.82,1.36-3.72,1.78-5.65,1.53-6.99,.7-13.1-1.87-13.66Z"/><path class="w" d="M389.38,132.52c-2.42,.9-4.21,2.98-4.75,5.51,3.05,1.46,5.72,2,7.2,1.37,1.56-.49,3.26-2.72,4.62-5.92-2.05-1.48-4.7-1.84-7.07-.96Z"/><path class="r" d="M370.14,145.12v.03c3.41,1.93,4.79,6.15,3.16,9.72-1.63,3.56-5.72,5.29-9.41,3.97v.03c9.33,4.26,18.3,4.64,20.01,.83,1.71-3.8-4.42-10.32-13.75-14.58Z"/><path class="p" d="M370.89,157.8c-1.77-.99-2.4-3.22-1.41-4.99,.88-1.57,2.77-2.27,4.47-1.65-.19-2.52-1.62-4.77-3.82-6.01l-6.25,13.69c2.36,.85,4.99,.46,7.02-1.03Z"/><path class="w" d="M369.35,153.08c-.79,1.73-.12,3.79,1.54,4.72,2.1-1.54,3.25-4.05,3.05-6.64-1.8-.65-3.8,.18-4.6,1.92Z"/></g></g></g></g></svg>