<svg width="650" height="450" viewBox="0 0 650 450" fill="none" xmlns="http://www.w3.org/2000/svg">
<g clip-path="url(#clip0_135_687)">
<path d="M514.113 400.984H430.934V410.253H514.113V400.984Z" fill="#A15842"/>
<path d="M527.811 443.751L506.178 314.938H438.869L417.236 443.751C416.862 446.084 418.446 448.273 420.777 448.647C420.997 448.68 421.223 448.702 421.448 448.702C423.455 448.702 425.198 447.305 425.622 445.341L453.948 314.91H491.094L519.419 445.341C519.848 447.305 521.586 448.702 523.599 448.702C525.958 448.702 527.866 446.782 527.866 444.422C527.866 444.197 527.849 443.971 527.811 443.751Z" fill="#A15842"/>
<path d="M583.022 400.984H499.843V410.253H583.022V400.984Z" fill="#CA7358"/>
<path d="M596.72 443.751L575.086 314.938H507.778L486.139 443.751C485.771 446.084 487.36 448.278 489.691 448.647C489.911 448.68 490.131 448.702 490.357 448.702C492.364 448.702 494.107 447.305 494.531 445.341L522.856 314.91H559.98L588.306 445.341C588.735 447.305 590.473 448.702 592.485 448.702C594.844 448.713 596.764 446.804 596.775 444.444C596.775 444.213 596.758 443.982 596.72 443.751Z" fill="#CA7358"/>
<path d="M528.735 294.173L536.983 261.895H482.295C460.244 261.895 440.992 276.835 435.515 298.199L429.928 320.092H495.367C511.105 320.092 524.836 309.421 528.735 294.173Z" fill="#FFB7D5"/>
<path d="M560.437 320.092H429.928L432.127 311.329H489.417L511.264 225.861C517.385 201.911 538.958 185.156 563.67 185.156C593.068 185.156 614.581 212.874 607.3 241.362L593.8 294.167C589.906 309.421 576.175 320.086 560.437 320.092Z" fill="#FFB7D5"/>
<path d="M433.48 310.477H502.911" stroke="#A15842" stroke-width="4" stroke-linecap="round" stroke-linejoin="round"/>
<path d="M489.669 310.158L501.833 262.572" stroke="#A15842" stroke-width="4" stroke-linecap="round" stroke-linejoin="round"/>
<path d="M393.953 74.3848C390.307 65.1053 383.697 54.3791 380.106 57.4539C379.237 58.202 378.715 59.4727 378.456 61.1064C377.758 65.7104 379.226 73.2077 381.118 80.0285L375.443 82.5093C375.404 82.6798 375.36 82.8503 375.3 83.0153C374.26 86.0847 370.845 86.3982 370.845 86.3982C370.845 86.3982 374.854 88.8845 373.073 92.9604C371.291 97.0364 365.5 95.7107 365.5 95.7107C369.229 99.6932 368.717 102.51 366.336 104.418C365.852 104.77 365.28 104.99 364.687 105.056C364.846 110.073 365.165 115.815 365.748 121.844L403.867 109.743C400.722 96.7063 396.812 81.6622 393.953 74.3848Z" fill="#A15842"/>
<path d="M380.288 81.1231C380.65 82.2727 380.98 83.2518 381.129 83.6204C381.129 83.6204 378.055 90.8042 379.589 98.4995" stroke="#30242A" stroke-width="4" stroke-linecap="round" stroke-linejoin="round"/>
<path d="M366.336 104.44C368.717 102.532 369.229 99.7152 365.5 95.7327C365.5 95.7327 371.291 97.0419 373.073 92.9824C374.854 88.923 370.846 86.4202 370.846 86.4202C370.846 86.4202 375.102 86.0462 375.558 81.8822" stroke="#30242A" stroke-width="8" stroke-linecap="round" stroke-linejoin="round"/>
<path d="M361.409 64.4397C363.642 65.1108 373.6 65.2208 374.992 71.6895C375.652 74.7369 371.577 75.947 371.577 75.947C371.577 75.947 375.976 78.0978 375.558 81.8657C375.531 82.0857 375.492 82.3002 375.443 82.5147L381.129 80.0285C379.237 73.2077 377.769 65.7269 378.467 61.1063L371.72 46.2547L364.494 30.3414L349.097 37.3437L356.322 53.257L358.698 58.4826L361.409 64.4397Z" fill="#EAA58B"/>
<path d="M371.577 75.947C371.577 75.947 375.652 74.7369 374.992 71.6895C373.601 65.2208 363.642 65.0888 361.409 64.4397L358.715 58.4826C358.599 58.4826 353.628 59.2636 351.621 62.3715C348.476 67.245 352.309 70.7379 352.309 70.7379C352.309 70.7379 344.555 73.3892 348.498 80.7051C348.498 80.7051 344.049 86.2717 349.597 90.7217C349.597 90.7217 345.396 94.4731 350.879 99.5227C355.416 103.714 361.464 105.612 364.703 105.062C365.297 104.996 365.869 104.776 366.353 104.424C368.734 102.515 369.246 99.6987 365.517 95.7162C365.517 95.7162 371.308 97.0254 373.089 92.9659C374.871 88.9065 370.862 86.4037 370.862 86.4037C370.862 86.4037 374.277 86.0902 375.317 83.0208C375.377 82.8558 375.421 82.6853 375.46 82.5148C375.509 82.3002 375.548 82.0857 375.575 81.8657C375.976 78.1088 371.577 75.947 371.577 75.947Z" fill="#A15842"/>
<path d="M371.847 75.8755C366.089 75.3255 357.945 73.9448 351.83 70.6664" stroke="#30242A" stroke-width="4" stroke-linecap="round" stroke-linejoin="round"/>
<path d="M372.463 87.5698C366.81 87.1298 357.362 85.4411 348.932 81.5191" stroke="#30242A" stroke-width="4" stroke-linecap="round" stroke-linejoin="round"/>
<path d="M368.118 97.2619C364.621 96.4973 355.542 94.3521 349.521 91.5853" stroke="#30242A" stroke-width="4" stroke-linecap="round" stroke-linejoin="round"/>
<path d="M555.504 161.086C555.515 160.31 555.493 159.534 555.427 158.759L554.559 153.874C551.072 141.558 538.936 132.202 534.476 117.477L519.26 117.625V117.339L499.573 126.201L491.93 110.221H491.792L484.731 126.201L476.609 117.565V117.625C476.609 117.625 451.924 118.505 409.356 133.379C409.356 133.379 406.98 122.515 403.901 109.787L365.781 121.888C368.03 145.073 374.261 172.417 390.89 178.545C410.379 185.723 457.566 171.872 457.566 171.872L464.231 224.711H551.93V214.948C551.93 214.948 559.112 211.372 559.112 203.149C559.095 188.275 554.987 186.223 555.504 161.086Z" fill="#3EC1F3"/>
<path d="M491.786 110.221H477.56L476.604 117.565L484.726 126.201L491.786 110.221Z" fill="#F5EBDD"/>
<path d="M491.957 110.221L499.601 126.201L519.287 117.339C519.364 116.525 519.612 114.039 519.942 110.524V110.221H491.957Z" fill="#F5EBDD"/>
<path d="M454.47 155.442L456.411 171.245" stroke="#4756DF" stroke-width="4" stroke-linecap="round" stroke-linejoin="round"/>
<path d="M491.655 143.132C494.063 143.132 496.015 141.179 496.015 138.77C496.015 136.361 494.063 134.408 491.655 134.408C489.246 134.408 487.294 136.361 487.294 138.77C487.294 141.179 489.246 143.132 491.655 143.132Z" fill="#30242A"/>
<path d="M377.796 135.948C380.205 135.948 382.157 133.995 382.157 131.586C382.157 129.177 380.205 127.224 377.796 127.224C375.388 127.224 373.436 129.177 373.436 131.586C373.436 133.995 375.388 135.948 377.796 135.948Z" fill="#30242A"/>
<path d="M410.439 133.643L412.413 143.126" stroke="#4756DF" stroke-width="4" stroke-linecap="round" stroke-linejoin="round"/>
<path d="M491.792 110.221H491.963L491.913 110.117H519.958V110.221H519.997C520.228 107.741 520.508 104.781 520.805 101.585C515.988 99.9682 503.951 95.1387 499.727 86.2167C506.838 83.8459 515.125 73.7688 509.208 65.4683C501.355 54.4671 487.877 69.0272 487.877 69.0272C487.877 69.0272 479.579 63.6916 475.432 52.4319C473.656 53.0205 468.322 53.6145 464.176 52.4319C464.176 52.4319 462.394 57.1734 461.212 65.4683C461.047 66.6125 460.865 67.7126 460.662 68.7687C460.359 70.3529 455.289 68.4442 454.701 70.815C453.964 73.7468 458.666 76.8656 458.666 76.8656C456.824 83.4664 455.295 88.5764 457.659 94.4951C459.749 99.7152 464.181 105.755 478.402 103.978L477.605 110.1H491.858L491.792 110.221Z" fill="#A15842"/>
<path d="M475.411 52.4319C479.557 63.6916 487.855 69.0272 487.855 69.0272C487.855 69.0272 501.333 54.4726 509.186 65.4683C515.108 73.7688 506.816 83.8459 499.705 86.2167C503.929 95.1387 515.966 99.9682 520.783 101.585C521.823 90.2816 523.076 75.969 523.406 69.0272C523.956 57.7125 522.856 41.1171 504.446 32.8717C487.261 25.1708 471.264 37.0192 471.264 37.0192C471.264 37.0192 456.653 32.8112 455.867 42.3548C455.273 49.467 464.165 52.4319 464.165 52.4319C468.3 53.6145 473.645 53.0204 475.411 52.4319Z" fill="#EAA58B"/>
<path d="M478.765 105.062C481.591 104.572 485.55 103.533 488.74 101.343" stroke="#30242A" stroke-width="4" stroke-miterlimit="10" stroke-linecap="round"/>
<path d="M463.466 82.3442C464.451 82.9548 468.119 83.4444 469.609 80.606" stroke="#30242A" stroke-width="4" stroke-miterlimit="10" stroke-linecap="round"/>
<path d="M470.67 68.4497C471.66 68.4497 472.463 67.6468 472.463 66.6565C472.463 65.6661 471.66 64.8633 470.67 64.8633C469.68 64.8633 468.877 65.6661 468.877 66.6565C468.877 67.6468 469.68 68.4497 470.67 68.4497Z" fill="#30242A"/>
<path d="M501.481 72.5806L494.965 76.7281" stroke="#30242A" stroke-width="4" stroke-miterlimit="10" stroke-linecap="round"/>
<path d="M464.214 224.695C464.214 224.695 420.107 241.114 403.725 249.833C375.251 264.965 371.781 273.051 354.233 326.341C348.371 344.009 344.417 358.409 340.684 369.641L388.102 391.319L388.162 391.198L395.861 394.801C395.861 394.801 408.284 378.618 410.274 360.301C412.848 336.649 411.308 320.658 422.114 311.39L547.195 224.678L464.214 224.695Z" fill="#30242A"/>
<path d="M333.034 388.041L343.378 392.865C350.527 396.209 349.977 401.044 349.13 402.909C348.349 404.378 347.491 405.808 346.556 407.183L372.347 419.378C378.126 410.335 383.389 400.967 388.102 391.325L340.683 369.641C338.187 377.194 335.8 383.305 333.034 388.041Z" fill="#A15842"/>
<path d="M343.378 392.865L333.034 388.041C330.284 392.722 327.205 396.055 323.262 398.074C320.309 399.532 317.07 400.329 313.776 400.395C312.913 400.428 312.083 400.483 311.263 400.538C313.463 404.477 314.464 410.511 314.464 410.511C320.579 412.161 327.909 410.104 333.16 407.997C335.14 407.2 336.817 406.391 338.011 405.797C339.693 404.928 341.684 404.895 343.394 405.698L346.584 407.205C347.518 405.83 348.376 404.4 349.157 402.931C349.993 401.045 350.554 396.209 343.378 392.865Z" fill="#FF7235"/>
<path d="M346.557 407.183L343.367 405.676C341.657 404.873 339.666 404.906 337.984 405.775C336.79 406.391 335.113 407.2 333.133 407.975C327.909 410.082 320.579 412.145 314.437 410.489C314.437 410.489 313.436 404.438 311.236 400.516C310.686 400.555 310.197 400.599 309.691 400.648C299.743 401.6 293.826 404.295 290.307 408.305L357.665 439.714C360.464 436.32 364.423 431.21 369.031 424.406C370.131 422.816 371.231 421.149 372.331 419.378L346.557 407.183Z" fill="#30242A"/>
<path d="M287.04 413.927L353.26 444.73C353.26 444.73 354.909 443.036 357.659 439.686L290.306 408.305C288.871 409.955 287.76 411.864 287.04 413.927Z" fill="#FF7235"/>
<path d="M515.768 224.695C515.768 224.695 461.773 239.491 435.581 255.498C408.388 272.094 408.085 285.625 412.056 330.043" stroke="black" stroke-width="4" stroke-linecap="round" stroke-linejoin="round"/>
<path d="M502.774 311.445L500.728 319.503" stroke="#A15842" stroke-width="4" stroke-linecap="round" stroke-linejoin="round"/>
<path d="M602.037 260.795H567.674" stroke="#A15842" stroke-width="4" stroke-linecap="round" stroke-linejoin="round"/>
<path d="M280.975 400.984H197.796V410.253H280.975V400.984Z" fill="#A15842"/>
<path d="M184.098 443.751L205.731 314.938H273.045L294.678 443.751C295.052 446.084 293.468 448.273 291.137 448.647C290.911 448.685 290.686 448.702 290.46 448.702C288.453 448.702 286.716 447.305 286.287 445.341L257.961 314.938H220.815L192.489 445.368C192.06 447.332 190.323 448.729 188.315 448.729C185.956 448.729 184.043 446.821 184.037 444.461C184.037 444.224 184.059 443.988 184.098 443.751Z" fill="#A15842"/>
<path d="M212.066 400.984H128.887V410.253H212.066V400.984Z" fill="#CA7358"/>
<path d="M115.189 443.751L136.822 314.938H204.136L225.77 443.751C226.143 446.084 224.56 448.273 222.228 448.647C222.003 448.685 221.777 448.702 221.552 448.702C219.545 448.702 217.807 447.305 217.378 445.341L189.052 314.938H151.906L123.58 445.368C123.152 447.332 121.414 448.729 119.407 448.729C117.048 448.729 115.134 446.821 115.128 444.461C115.128 444.224 115.15 443.988 115.189 443.751Z" fill="#CA7358"/>
<path d="M183.179 294.173L174.931 261.895H229.619C251.67 261.895 270.922 276.835 276.399 298.199L281.986 320.064H216.548C200.82 320.064 187.084 309.415 183.179 294.173Z" fill="#3EC1F3"/>
<path d="M151.472 320.092H281.981L279.781 311.329H222.492L200.639 225.861C194.518 201.911 172.945 185.156 148.233 185.156C118.835 185.156 97.3223 212.874 104.603 241.362L118.109 294.167C122.002 309.421 135.733 320.092 151.472 320.092Z" fill="#3EC1F3"/>
<path d="M278.428 310.477H208.997" stroke="#4756DF" stroke-width="4" stroke-miterlimit="10" stroke-linecap="round"/>
<path d="M222.245 310.158L210.075 262.572" stroke="#4756DF" stroke-width="4" stroke-miterlimit="10" stroke-linecap="round"/>
<path d="M209.404 312.556L211.18 319.503" stroke="#4756DF" stroke-width="4" stroke-linecap="round" stroke-linejoin="round"/>
<path d="M109.871 260.795H144.235" stroke="#4756DF" stroke-width="4" stroke-linecap="round" stroke-linejoin="round"/>
<path d="M199.506 430.28L198.813 431.875L11.2676 434.18C5.04264 434.18 0 439.224 0 445.451V449.263H232.33C237.966 444.131 212.836 434.895 199.506 430.28Z" fill="#EAA58B"/>
<path d="M6.67041 448.713V444.642" stroke="#A15842" stroke-width="4" stroke-linecap="round" stroke-linejoin="round"/>
<path d="M11.7954 448.713V444.642" stroke="#A15842" stroke-width="4" stroke-linecap="round" stroke-linejoin="round"/>
<path d="M79.4946 437.481C77.053 426.248 74.375 391.028 74.122 387.661C73.6931 387.661 73.2641 387.694 72.8297 387.722C56.9264 388.745 47.1821 409.268 44.6195 413.883C44.6195 413.883 35.1337 416.402 27.8144 419.774C28.9197 420.302 29.7776 421.248 30.201 422.398C31.2513 425.489 28.4853 429.224 24.0256 430.737C22.6948 431.199 21.2925 431.413 19.8848 431.369C21.9029 442.833 31.9827 449.279 53.3411 449.279H90.3607C87.2538 448.548 81.3533 446.034 79.4946 437.481Z" fill="#EAA58B"/>
<path d="M199.11 406.276C195.387 410.957 182.558 415.17 177.966 404.136C168.684 409.02 146.841 404.136 148.772 382.381C126.226 386.836 103.789 400.808 102.624 401.54C109.145 413.157 116.371 426.292 117.96 430.302C120.743 437.261 120.589 447.409 114.001 449.279H198.478C203.091 433.784 203.966 418.597 199.11 406.276Z" fill="#EAA58B"/>
<path d="M177.966 404.136C182.558 415.17 195.387 410.957 199.11 406.276C195.261 396.55 187.892 388.591 175.915 383.619C167.947 380.318 158.356 380.483 148.771 382.381C146.841 404.136 168.684 409.02 177.966 404.136Z" fill="#30242A"/>
<path d="M24.0255 430.737C28.4852 429.224 31.2513 425.489 30.2009 422.398C29.7775 421.248 28.9197 420.302 27.8143 419.774C23.2226 421.886 19.4888 424.334 19.4888 426.71C19.4888 428.273 19.6152 429.829 19.8847 431.369C21.2925 431.413 22.6947 431.199 24.0255 430.737Z" fill="#30242A"/>
<path d="M53.8525 448.729V445.467C53.8525 439.246 58.8952 434.202 65.1146 434.202H82.1122" stroke="#A15842" stroke-width="4" stroke-linecap="round" stroke-linejoin="round"/>
<path d="M60.5171 448.729V444.664" stroke="#A15842" stroke-width="4" stroke-linecap="round" stroke-linejoin="round"/>
<path d="M65.6479 448.729V444.664" stroke="#A15842" stroke-width="4" stroke-linecap="round" stroke-linejoin="round"/>
<path d="M135.909 448.729V444.664" stroke="#A15842" stroke-width="4" stroke-linecap="round" stroke-linejoin="round"/>
<path d="M141.04 448.729V444.664" stroke="#A15842" stroke-width="4" stroke-linecap="round" stroke-linejoin="round"/>
<path d="M128.728 448.729V445.467C128.728 439.246 133.77 434.202 139.99 434.202H158.692" stroke="#A15842" stroke-width="4" stroke-linecap="round" stroke-linejoin="round"/>
<path d="M135.398 406.188C134.369 411.32 136.421 426.71 145.654 433.889" stroke="#A15842" stroke-width="4" stroke-linecap="round" stroke-linejoin="round"/>
<path d="M39.4833 448.3C28.6171 446.43 22.3592 441.887 19.7856 435.099" stroke="#A15842" stroke-width="4" stroke-linecap="round" stroke-linejoin="round"/>
<path d="M203.091 432.073C202.481 437.662 201.381 443.185 199.792 448.575" stroke="#A15842" stroke-width="4" stroke-linecap="round" stroke-linejoin="round"/>
<path d="M59.4941 415.935C62.0402 418.201 65.3176 419.477 68.7271 419.527" stroke="#A15842" stroke-width="4" stroke-linecap="round" stroke-linejoin="round"/>
<path d="M117.961 430.302C116.349 426.281 109.162 413.157 102.624 401.54L102.574 401.573C96.5912 395.087 89.1455 387.15 74.1221 387.662C74.375 391.028 77.0531 426.248 79.4947 437.481C81.3533 446.034 87.2538 448.548 90.3608 449.279H114.007C120.606 447.409 120.743 437.261 117.961 430.302Z" fill="#30242A"/>
<path d="M34.875 371.138L43.3161 365.978L39.5657 379.114L49.4915 373.211" stroke="#FFB7D5" stroke-width="4" stroke-linecap="round" stroke-linejoin="round"/>
<path d="M51.2622 345.73L60.1542 345.021L51.7901 354.058L61.7984 353.36" stroke="#FFB7D5" stroke-width="4" stroke-linecap="round" stroke-linejoin="round"/>
<path d="M491.655 143.132C494.063 143.132 496.015 141.179 496.015 138.77C496.015 136.361 494.063 134.408 491.655 134.408C489.246 134.408 487.294 136.361 487.294 138.77C487.294 141.179 489.246 143.132 491.655 143.132Z" fill="#30242A"/>
<path d="M554.558 153.874L555.427 158.759C555.3 157.103 555.009 155.469 554.558 153.874Z" fill="#A15842"/>
<path d="M519.942 110.524L519.975 110.221H519.936V110.524H519.942Z" fill="#3EC1F3"/>
<path d="M477.577 110.117H477.489L477.478 110.221H477.561L477.577 110.117Z" fill="#F5EBDD"/>
<path d="M491.787 110.221L491.831 110.117H477.577L477.561 110.221H491.787Z" fill="#F5EBDD"/>
<path d="M477.478 110.221L476.521 117.477L476.603 117.565L477.56 110.221H477.478Z" fill="#F5EBDD"/>
<path d="M519.931 110.117H491.908L491.957 110.221H519.936L519.931 110.117Z" fill="#F5EBDD"/>
<path d="M211.344 29.1017C213.562 15.4278 204.28 2.5436 190.61 0.324015C176.94 -1.89557 164.059 7.38998 161.84 21.0639C159.621 34.7377 168.904 47.6219 182.574 49.8415C196.244 52.0611 209.125 42.7756 211.344 29.1017Z" fill="#30242A"/>
<path d="M203.9 41.8047C202.365 42.5088 215.244 11.9418 221.81 16.7164C227.997 21.2214 211.659 38.2238 203.9 41.8047Z" fill="#3EC1F3"/>
<path d="M203.185 43.6749C201.783 45.3526 168.937 33.8618 173.49 27.2281C177.845 20.8473 204.587 41.9972 203.185 43.6749Z" fill="#3EC1F3"/>
<path d="M248.491 59.3682C243.724 60.1712 236.74 58.5321 236.74 58.5321C227.183 69.2803 217.031 71.6675 217.031 71.6675C210.465 64.5167 198.521 64.5167 196.734 74.6544C194.749 85.8921 208.673 88.989 208.673 88.989C208.673 88.989 210.647 103.038 205.274 110.205C204.521 111.206 203.828 112.086 203.135 112.862H229.767L228.975 108.104C228.975 108.104 237.334 111.09 244.499 106.91C251.664 102.73 253.457 94.9627 251.065 83.0153C249.652 75.9415 249.701 67.19 248.491 59.3682Z" fill="#EAA58B"/>
<path d="M239.583 211.356C227.788 218.028 221.629 230.85 221.629 230.85H262.657L250.455 206.372C245.594 208.473 241.035 210.52 239.583 211.356Z" fill="#FF7235"/>
<path d="M182.195 119.649C164.18 121.652 157.537 128.043 144.422 143.786C141.183 147.675 136.173 154.298 133.039 158.434L133.138 158.517C133.138 158.517 110.322 186.817 111.373 208.336L143.372 217.274L165.214 188.803L171.373 207.786C171.373 207.786 157.526 215.993 149.833 230.888H221.629C221.629 230.888 227.788 218.066 239.583 211.394C241.046 210.558 245.594 208.523 250.455 206.411L248.805 203.11L253.925 187.269L265.231 200.074C265.231 200.074 257.532 203.303 250.46 206.372L262.663 230.85H305.748C329.85 214.948 311.384 186.223 303.697 175.959C298.401 168.902 273.947 133.379 257.026 124.149C245.742 117.994 230.774 118.852 230.774 118.852L229.773 112.862H203.135C199.484 116.943 195.739 118.142 182.195 119.649Z" fill="#FF7235"/>
<path d="M265.198 198.93L274.458 195.453" stroke="#A15842" stroke-width="4" stroke-miterlimit="10" stroke-linecap="round"/>
<path d="M181.601 203.523C181.744 193.446 183.404 167.917 195.986 154.919C209.866 140.618 241.117 143.638 250.861 156.46C260.606 169.281 253.941 187.263 253.941 187.263L249.327 203.165L262.657 230.866H143.151L166.742 209.32L181.601 203.523Z" fill="#FFB7D5"/>
<path d="M181.628 203.149H249.289" stroke="#F5EBDD" stroke-width="4" stroke-miterlimit="10" stroke-linecap="round"/>
<path d="M210.861 181.603H237.015" stroke="#F5EBDD" stroke-width="4" stroke-miterlimit="10" stroke-linecap="round"/>
<path d="M259.072 202.637L272.401 233.441H246.759C241.634 233.441 234.964 233.441 235.481 230.872C231.373 233.952 224.708 233.441 225.22 230.872C218.555 233.952 216.504 231.901 215.992 230.872C215.481 229.843 222.146 221.125 237.015 212.874C245.654 208.132 259.072 202.637 259.072 202.637Z" fill="#EAA58B"/>
<path d="M222.146 232.902C222.146 232.902 229.844 225.201 246.759 215.976" stroke="#A15842" stroke-width="4" stroke-miterlimit="10" stroke-linecap="round"/>
<path d="M251.379 221.62C242.646 227.087 234.255 233.083 226.248 239.574" stroke="#A15842" stroke-width="4" stroke-miterlimit="10" stroke-linecap="round"/>
<path d="M256.504 227.775C242.684 234.959 227.287 244.706 227.287 244.706" stroke="#A15842" stroke-width="4" stroke-miterlimit="10" stroke-linecap="round"/>
<path d="M181.733 118.753L195.2 113.764C195.332 113.714 195.481 113.78 195.53 113.918L211.461 156.944C212.885 160.8 210.922 165.079 207.067 166.509C203.212 167.934 198.934 165.97 197.504 162.114L181.573 119.088C181.524 118.956 181.59 118.808 181.727 118.758L181.733 118.753Z" fill="#A15842"/>
<path d="M240.909 168.319C244.994 168.786 248.684 165.855 249.157 161.768V161.757L253.6 122.537C248.921 120.717 244.01 119.572 239.006 119.143L234.354 160.068C233.886 164.155 236.817 167.846 240.898 168.319H240.909Z" fill="#A15842"/>
<path d="M204.34 163.324C206.748 163.324 208.701 161.371 208.701 158.962C208.701 156.553 206.748 154.6 204.34 154.6C201.931 154.6 199.979 156.553 199.979 158.962C199.979 161.371 201.931 163.324 204.34 163.324Z" fill="#30242A"/>
<path d="M241.887 164.677C244.295 164.677 246.248 162.725 246.248 160.315C246.248 157.906 244.295 155.953 241.887 155.953C239.479 155.953 237.526 157.906 237.526 160.315C237.526 162.725 239.479 164.677 241.887 164.677Z" fill="#30242A"/>
<path d="M157.922 120.645L184.29 112.862H203.135C203.828 112.086 204.521 111.211 205.274 110.205C210.647 103.054 208.673 88.989 208.673 88.989C208.673 88.989 194.749 85.8921 196.734 74.6544C198.521 64.5057 210.482 64.5057 217.031 71.6675C217.031 71.6675 227.183 69.2803 236.74 58.5321C236.74 58.5321 243.724 60.1822 248.491 59.3682C247.656 53.9831 246.226 49.0435 243.306 45.3911C236.157 36.4306 216.437 30.4624 200.914 41.8102C185.39 53.158 186.583 71.6675 187.166 78.8348C187.166 78.8348 170.449 73.4607 158.51 85.9856C151.494 93.2685 148.579 103.582 150.746 113.461C150.746 113.461 128.749 112.84 124.477 133.17C122.277 143.583 125.747 150.849 130.141 155.667L132.89 150.068L157.922 120.645Z" fill="#30242A"/>
<path d="M182.195 119.649C195.745 118.142 199.49 116.943 203.141 112.862H184.29L157.922 120.645L132.879 150.084L130.13 155.684C131.026 156.669 131.989 157.587 133.011 158.434C136.124 154.298 141.155 147.675 144.394 143.786C157.532 128.043 164.175 121.652 182.195 119.649Z" fill="#30242A"/>
<path d="M228.547 109.209C226.072 108.225 223.663 107.097 221.321 105.826" stroke="#A15842" stroke-width="4" stroke-linecap="round" stroke-linejoin="round"/>
<path d="M149.806 114.138C150.669 117.427 151.84 120.629 153.303 123.698" stroke="black" stroke-width="4" stroke-linecap="round" stroke-linejoin="round"/>
<path d="M186.055 79.3519L187.776 88.3949" stroke="black" stroke-width="4" stroke-linecap="round" stroke-linejoin="round"/>
<path d="M166.055 189.315L178.038 172.367" stroke="#A15842" stroke-width="4" stroke-miterlimit="10" stroke-linecap="round"/>
<path d="M208.673 95.8592C212.135 95.8592 214.942 93.0518 214.942 89.5885C214.942 86.1253 212.135 83.3178 208.673 83.3178C205.211 83.3178 202.404 86.1253 202.404 89.5885C202.404 93.0518 205.211 95.8592 208.673 95.8592Z" fill="#F5EBDD"/>
<path d="M209.866 78.8348L205.093 75.8535" stroke="#A15842" stroke-width="4" stroke-linecap="round" stroke-linejoin="round"/>
<path d="M240.413 92.8559C239.424 93.472 235.723 93.956 234.227 91.1012" stroke="#A15842" stroke-width="4" stroke-linecap="round" stroke-linejoin="round"/>
<path d="M230.686 79.4234C231.676 79.4234 232.478 78.6206 232.478 77.6302C232.478 76.6399 231.676 75.837 230.686 75.837C229.696 75.837 228.893 76.6399 228.893 77.6302C228.893 78.6206 229.696 79.4234 230.686 79.4234Z" fill="#30242A"/>
<path d="M244.499 77.0471C245.489 77.0471 246.292 76.2443 246.292 75.2539C246.292 74.2636 245.489 73.4607 244.499 73.4607C243.509 73.4607 242.707 74.2636 242.707 75.2539C242.707 76.2443 243.509 77.0471 244.499 77.0471Z" fill="#30242A"/>
<path d="M239.721 80.034C239.721 80.034 241.37 84.1154 240.947 84.9295C240.667 85.4521 240.243 85.8756 239.721 86.1562" stroke="#A15842" stroke-width="4" stroke-linecap="round" stroke-linejoin="round"/>
<path d="M332.171 443.234H322.35C323.037 445.176 323.323 447.233 323.196 449.285H364.654C365.391 441.149 359.985 432.277 344.417 425.198L344.093 425.044C339.82 428.251 335.982 433.559 332.171 443.234Z" fill="#3EC1F3"/>
<path d="M343.68 424.846C330.73 418.421 333.067 404.312 336.84 372.309C334.376 368.013 328.899 366.528 324.604 368.992C322.454 370.225 320.914 372.293 320.342 374.702C319.182 369.884 314.337 366.924 309.52 368.085C306.248 368.877 303.697 371.429 302.905 374.702C301.745 369.884 296.9 366.924 292.083 368.085C288.811 368.877 286.259 371.429 285.467 374.702C284.307 369.884 279.462 366.924 274.645 368.085C271.373 368.877 268.822 371.429 268.03 374.702C266.869 369.884 262.025 366.924 257.208 368.085C253.936 368.877 251.384 371.429 250.592 374.702C249.437 369.889 244.604 366.924 239.792 368.079C238.874 368.299 237.994 368.668 237.186 369.163C237.241 371.996 237.351 374.955 237.526 378.085C238.362 392.898 241.706 412.711 244.576 427.673C258.566 428.421 264.235 438.751 266.023 443.234H289.575C289.79 442.684 289.999 442.173 290.213 441.656L290.345 441.342C290.548 440.863 290.746 440.396 290.95 439.939C290.999 439.818 291.054 439.708 291.104 439.593C291.285 439.186 291.467 438.795 291.654 438.41L291.819 438.064C291.989 437.695 292.16 437.349 292.33 437.024L292.561 436.556L293.078 435.561L293.375 435.011C293.474 434.824 293.578 434.642 293.677 434.461C293.853 434.147 294.035 433.839 294.227 433.537C294.304 433.416 294.376 433.295 294.447 433.174C294.86 432.497 295.272 431.859 295.69 431.259L295.767 431.144C296.003 430.808 296.24 430.484 296.476 430.165C297.912 428.212 299.622 426.468 301.547 424.994C301.986 425.236 302.443 425.467 302.927 425.687C314.381 430.891 320.331 437.079 322.388 443.212H332.171C335.982 433.537 339.82 428.229 344.087 425.016L343.68 424.846Z" fill="#F5EBDD"/>
<path d="M322.349 443.234H322.388C320.331 437.101 314.381 430.913 302.927 425.709C302.443 425.489 301.986 425.258 301.546 425.016C299.682 426.441 298.027 428.119 296.625 430L296.526 430.132L296.482 430.187C296.245 430.506 296.009 430.83 295.772 431.166L295.695 431.281C295.277 431.881 294.865 432.519 294.453 433.196C294.381 433.317 294.31 433.438 294.233 433.559C294.057 433.861 293.875 434.169 293.683 434.483C293.584 434.659 293.479 434.84 293.38 435.033L293.083 435.583L292.566 436.578L292.335 437.046C292.165 437.382 291.994 437.728 291.824 438.086L291.659 438.432C291.483 438.817 291.302 439.208 291.109 439.615C291.06 439.73 291.005 439.84 290.955 439.961C290.752 440.418 290.554 440.885 290.35 441.364L290.218 441.678C290.004 442.195 289.795 442.717 289.58 443.256H266.05C264.241 438.773 258.571 428.443 244.604 427.695C246.996 440.187 249.063 449.301 249.063 449.301H323.196C323.328 447.244 323.037 445.181 322.349 443.234Z" fill="#3EC1F3"/>
<path d="M162.651 254.547V245.196H145.12C143.658 253.551 144.004 262.121 146.132 270.333H146.847C155.568 270.333 162.64 263.271 162.651 254.547Z" fill="#A15842"/>
<path d="M319.287 256.455L318.451 255.982C312.6 255.757 305.429 256.323 296.757 258.276L296.619 258.309C295.921 258.463 295.212 258.634 294.491 258.81L294.09 258.909C293.397 259.079 292.699 259.261 291.989 259.459L291.566 259.569C290.79 259.778 290.01 260.003 289.212 260.234L288.97 260.3C288.079 260.564 287.172 260.85 286.254 261.125C254.233 271.164 240.029 296.329 235.756 311.929H245.225C242.399 325.087 236.597 339.047 237.186 369.163C241.398 366.561 246.913 367.87 249.515 372.078C250.015 372.887 250.383 373.772 250.603 374.702C251.764 369.884 256.608 366.924 261.425 368.085C264.697 368.877 267.249 371.429 268.041 374.702C269.201 369.884 274.046 366.924 278.863 368.085C282.135 368.877 284.687 371.429 285.478 374.702C286.639 369.884 291.483 366.924 296.301 368.085C299.572 368.877 302.124 371.429 302.916 374.702C304.076 369.884 308.921 366.924 313.738 368.085C317.01 368.877 319.562 371.429 320.353 374.702C321.497 369.884 326.325 366.902 331.143 368.046C333.551 368.618 335.619 370.159 336.851 372.309C337.747 364.691 338.726 356.06 339.6 346.28C344.637 289.718 348.476 273.128 319.287 256.455Z" fill="#EAA58B"/>
<path d="M323.224 448.9C323.499 441.029 317.934 432.53 302.927 425.709C285.94 418.008 293.496 398.432 298.104 346.792C303.251 289.123 307.15 273.007 276.053 255.988C248.871 241.136 221.178 231.367 221.178 231.367" stroke="#30242A" stroke-width="4" stroke-miterlimit="10" stroke-linecap="round"/>
<path d="M286.254 261.12C252.803 271.631 239.836 296.395 235.734 311.924C240.029 296.335 254.233 271.18 286.254 261.12Z" fill="#A15842"/>
<path d="M267.788 256.505C279.27 251.098 291.857 248.435 304.543 248.738C290.911 242.033 276.927 236.064 262.657 230.85H149.833C149.833 230.85 146.753 235.982 145.164 244.942C145.164 245.036 145.137 245.124 145.12 245.217H162.651V254.569C162.651 263.298 155.574 270.377 146.847 270.377H146.132C152.274 293.942 172.791 311.945 199.093 311.945H221.519C226.077 295.059 236.24 271.323 267.788 256.505Z" fill="#FFB7D5"/>
<path d="M286.254 261.12C299.82 256.857 310.389 255.674 318.45 255.982L317.538 255.476C313.182 253.094 308.811 250.839 304.543 248.738C291.857 248.435 279.27 251.098 267.788 256.505C236.24 271.323 226.077 295.059 221.519 311.924H235.734C239.836 296.395 252.803 271.631 286.254 261.12Z" fill="#A15842"/>
<path d="M245.984 313.343H258.159" stroke="#A15842" stroke-width="4" stroke-linecap="round" stroke-linejoin="round"/>
<path d="M291.72 200.586V226.746" stroke="#30242A" stroke-width="4" stroke-miterlimit="10" stroke-linecap="round"/>
<path d="M304.95 165.569C304.95 165.569 301.173 173.599 291.72 173.599C282.267 173.599 278.522 165.569 278.522 165.569" stroke="#30242A" stroke-width="4" stroke-linecap="round" stroke-linejoin="round"/>
<path d="M280.271 183.143H303.174V185.536C303.174 191.862 298.044 196.994 291.72 196.994C285.396 196.994 280.265 191.862 280.265 185.536V183.143H280.271Z" fill="#A15842"/>
<path d="M279.941 164.672H303.504C304.928 164.672 306.083 165.827 306.083 167.252V185.706C306.083 193.638 299.655 200.068 291.725 200.068C283.796 200.068 277.367 193.638 277.367 185.706V167.252C277.367 165.827 278.522 164.672 279.946 164.672H279.941Z" stroke="#30242A" stroke-width="4" stroke-miterlimit="10" stroke-linecap="round"/>
<path d="M291.72 224.183L280.271 230.85H303.174L291.72 224.183Z" fill="#30232A"/>
<path d="M428.096 200.586V226.746" stroke="#30242A" stroke-width="4" stroke-miterlimit="10" stroke-linecap="round"/>
<path d="M441.327 165.569C441.327 165.569 437.549 173.599 428.096 173.599C418.643 173.599 414.898 165.569 414.898 165.569" stroke="#30242A" stroke-width="4" stroke-linecap="round" stroke-linejoin="round"/>
<path d="M416.647 183.143H439.551V185.536C439.551 191.862 434.42 196.994 428.096 196.994C421.772 196.994 416.642 191.862 416.642 185.536V183.143H416.647Z" fill="#FF7235"/>
<path d="M416.317 164.672H439.881C441.305 164.672 442.46 165.827 442.46 167.252V185.706C442.46 193.638 436.031 200.068 428.102 200.068C420.172 200.068 413.744 193.638 413.744 185.706V167.252C413.744 165.827 414.898 164.672 416.323 164.672H416.317V164.672Z" stroke="#30242A" stroke-width="4" stroke-miterlimit="10" stroke-linecap="round"/>
<path d="M428.097 224.183L416.647 230.85H439.551L428.097 224.183Z" fill="#30232A"/>
<path d="M629.483 449.285C640.814 449.285 650 440.097 650 428.762C650 417.428 640.814 408.239 629.483 408.239C618.152 408.239 608.966 417.428 608.966 428.762C608.966 440.097 618.152 449.285 629.483 449.285Z" fill="#FFB7D5"/>
<path d="M146.753 198.022C146.753 198.022 170.861 196.042 181.26 195.558" stroke="#A15842" stroke-width="4" stroke-miterlimit="10" stroke-linecap="round"/>
<path d="M118.126 294.173L109.877 261.895H157.999C180.05 261.895 199.303 276.835 204.78 298.199L210.367 320.064H151.488C135.761 320.064 122.03 309.41 118.126 294.173Z" fill="#3EC1F3"/>
<path d="M552.265 214.948H458.572V224.695H552.265V214.948Z" fill="#F5EBDD"/>
<path d="M362.52 196.994H343.543H324.565V213.925H343.543H362.52H381.497V196.994H362.52Z" fill="#EAA58B"/>
<path d="M362.52 213.925H343.543H324.565V230.85H343.543H362.52H381.497V213.925H362.52Z" fill="#EAA58B"/>
<path d="M362.52 180.063H343.543H324.565V196.994H343.543H362.52H381.497V180.063H362.52Z" fill="#EAA58B"/>
<path d="M362.52 146.206H343.543H324.565V163.137H343.543H362.52H381.497V146.206H362.52Z" fill="#EAA58B"/>
<path d="M362.52 112.35H343.543H324.565V129.275H343.543H362.52H381.497V112.35H362.52Z" fill="#EAA58B"/>
<path d="M362.52 163.137H343.543V180.068H362.52V163.137Z" fill="#EAA58B"/>
<path d="M362.52 129.275H343.543V146.206H362.52V129.275Z" fill="#EAA58B"/>
<path d="M362.52 213.925V196.994" stroke="#A15842" stroke-width="4" stroke-linejoin="round"/>
<path d="M343.543 213.925V196.994" stroke="#A15842" stroke-width="4" stroke-linejoin="round"/>
<path d="M362.52 94.6821H343.543H324.565V111.613H343.543H362.52H381.497V94.6821H362.52Z" fill="#EAA58B"/>
<path d="M362.52 111.613V94.6821" stroke="#A15842" stroke-width="4" stroke-linejoin="round"/>
<path d="M343.543 111.613V94.6821" stroke="#A15842" stroke-width="4" stroke-linejoin="round"/>
<path d="M324.565 213.925H343.543H362.52H381.497" stroke="#A15842" stroke-width="4" stroke-linejoin="round"/>
<path d="M324.565 196.994H343.543H362.52H381.497" stroke="#A15842" stroke-width="4" stroke-linejoin="round"/>
<path d="M324.565 112.35H343.543H362.52H381.497" stroke="#A15842" stroke-width="4" stroke-linejoin="round"/>
<path d="M343.543 179.04H349.867H356.196H362.52" stroke="#A15842" stroke-width="4" stroke-linejoin="round"/>
<path d="M343.543 164.16H349.867H356.196H362.52" stroke="#A15842" stroke-width="4" stroke-linejoin="round"/>
<path d="M343.543 145.183H349.867H356.196H362.52" stroke="#A15842" stroke-width="4" stroke-linejoin="round"/>
<path d="M343.543 130.304H349.867H356.196H362.52" stroke="#A15842" stroke-width="4" stroke-linejoin="round"/>
<path d="M432.71 406.815H420.304C420.029 413.602 418.533 418.366 414.987 421.793C413.463 423.217 411.709 424.367 409.801 425.198C408.542 425.748 407.37 426.358 406.271 426.958C410.12 429.444 413.969 435.033 413.969 435.033C416.961 434.428 419.787 433.201 422.278 431.441C427.271 428.086 431.313 423.35 433.276 420.797C434.437 419.301 436.224 418.426 438.116 418.437H441.64C441.91 416.798 442.097 415.148 442.19 413.487C442.163 411.446 440.651 406.815 432.71 406.815Z" fill="#FF7235"/>
<path d="M441.635 418.448H438.11C436.219 418.437 434.431 419.312 433.271 420.808C431.297 423.361 427.255 428.097 422.273 431.452C419.782 433.218 416.955 434.439 413.964 435.044C413.964 435.044 410.115 429.455 406.265 426.969C405.858 427.183 405.468 427.403 405.083 427.623C396.752 432.431 393.216 437.871 392.16 443.251H464.847C466.024 439.373 466.991 435.434 467.745 431.452C468.454 427.794 469.141 423.526 469.719 418.608L441.635 418.448Z" fill="#30242A"/>
<path d="M391.902 449.279H462.603C463.494 447.321 464.242 445.297 464.841 443.229H392.166C391.792 445.225 391.704 447.261 391.902 449.279Z" fill="#FF7235"/>
<path d="M418.088 416.507L432.935 426.408" stroke="#F5EBDD" stroke-width="4" stroke-miterlimit="10" stroke-linecap="round"/>
<path d="M412.589 422.557L424.137 433.559" stroke="#F5EBDD" stroke-width="4" stroke-miterlimit="10" stroke-linecap="round"/>
<path d="M569.098 260.251C565.204 237.792 551.913 224.695 551.913 224.695H516.868C516.868 224.695 462.872 239.491 436.68 255.498C406.435 273.969 409.476 288.634 414.624 346.302C416.46 366.869 418.764 382.342 419.798 394.009H471.324V393.811H480.832C480.832 393.811 485.715 371.215 480.315 351.077C474.651 329.966 469.504 326.363 466.419 311.946H525.523C552.919 311.924 573.777 287.248 569.098 260.251Z" fill="#30242A"/>
<path d="M420.304 406.815H432.716C440.629 406.815 442.168 411.43 442.168 413.481C442.075 415.143 441.888 416.793 441.619 418.432L469.697 418.575C470.516 411.683 471.121 403.52 471.308 393.971H419.782C420.222 398.239 420.398 402.524 420.304 406.815Z" fill="#A15842"/>
<path d="M465.93 312.793H453.491" stroke="black" stroke-width="4" stroke-linecap="round" stroke-linejoin="round"/>
<path d="M325.154 395.604L334.502 410.456" stroke="#F5EBDD" stroke-width="4" stroke-miterlimit="10" stroke-linecap="round"/>
<path d="M318.555 398.905L324.604 413.756" stroke="#F5EBDD" stroke-width="4" stroke-miterlimit="10" stroke-linecap="round"/>
<path d="M593.788 294.173L602.037 261.895H553.931C531.88 261.895 512.628 276.835 507.151 298.199L501.558 320.064H560.42C576.147 320.064 589.879 309.41 593.788 294.173Z" fill="#FFB7D5"/>
<path d="M526.271 230.85H184.191C180.51 230.85 177.526 233.835 177.526 237.517V237.522C177.526 241.204 180.51 244.189 184.191 244.189H526.271C529.952 244.189 532.936 241.204 532.936 237.522V237.517C532.936 233.835 529.952 230.85 526.271 230.85Z" fill="#A15842"/>
<path d="M225.736 200.074C220.98 197.912 208.81 195.97 197.015 195.97C194.771 195.97 192.357 196.009 189.833 196.081V229.337C195.673 227.522 200.485 225.806 203.68 224.695C203.68 224.695 227.161 242.638 231.345 234.431C231.345 234.431 237.471 236.906 239.044 230.85C239.044 230.85 246.226 230.85 243.663 225.723C241.937 222.225 234.436 214.436 234.436 214.436C234.436 214.436 243.344 219.81 247.771 216.488C251.89 213.424 231.373 202.637 225.736 200.074Z" fill="#EAA58B"/>
<path d="M145.213 199.045L111.878 200.586C108.804 216.999 117.377 233.93 131.878 236.494C150.954 239.86 174.111 234.227 189.833 229.343V196.081C170.57 196.642 145.213 199.045 145.213 199.045Z" fill="#FF7235"/>
<path d="M235.415 213.826C231.378 210.602 225.863 206.268 222.146 203.66" stroke="#A15842" stroke-width="4" stroke-miterlimit="10" stroke-linecap="round"/>
<path d="M215.992 209.744C226.072 216.763 235.14 226.026 239.446 230.685" stroke="#A15842" stroke-width="4" stroke-miterlimit="10" stroke-linecap="round"/>
<path d="M211.252 216.994C218.027 221.944 225.786 229.425 230.851 234.53" stroke="#A15842" stroke-width="4" stroke-miterlimit="10" stroke-linecap="round"/>
<path d="M422.157 209.821C410.879 215.465 401.899 225.223 393.953 235.47C390.362 240.085 381.305 251.582 387.282 252.913C391.902 253.936 401.135 244.706 401.135 244.706C401.135 244.706 395.575 256.747 399.595 260.108C402.669 262.676 406.744 258.573 406.744 258.573C410.334 266.274 415.977 259.596 415.977 259.596C425.028 266.274 433.925 241.642 433.925 241.642C439.205 239.761 444.198 237.17 448.773 233.941C448.773 233.941 451.698 234.7 456.428 235.635L452.16 201.037C441.003 203.099 429.9 205.949 422.157 209.821Z" fill="#A15842"/>
<path d="M399.408 246.241C401.057 241.895 403.966 234.535 406.556 229.568" stroke="#30242A" stroke-width="4" stroke-miterlimit="10" stroke-linecap="round"/>
<path d="M416.004 232.902C411.715 242.148 408.575 252.28 406.826 258.568" stroke="#30242A" stroke-width="4" stroke-miterlimit="10" stroke-linecap="round"/>
<path d="M425.748 235.977C422.504 243.402 419.204 253.452 417.131 260.135" stroke="#30242A" stroke-width="4" stroke-miterlimit="10" stroke-linecap="round"/>
<path d="M521.14 230.85C538.919 216.037 558.644 182.934 560.629 146.206C561.657 127.224 546.782 117.477 535.504 117.477H531.385L494.976 195.97C494.976 195.97 473.392 197.109 452.204 201.026L456.471 235.624C471.764 238.655 505.891 243.562 521.14 230.85Z" fill="#3EC1F3"/>
<path d="M510.544 162.521L495.537 194.87" stroke="#4756DF" stroke-width="4" stroke-linecap="round" stroke-linejoin="round"/>
<path d="M536.301 214.15C539.799 209.271 542.95 204.155 545.732 198.836C547.382 195.69 548.949 192.412 550.395 189.018" stroke="#4756DF" stroke-width="4" stroke-linecap="round" stroke-linejoin="round"/>
<path d="M461.816 198.407C479.683 195.706 489.576 195.382 496.175 194.832C500.574 194.469 506.623 194.282 506.623 194.282" stroke="#4756DF" stroke-width="4" stroke-linecap="round" stroke-linejoin="round"/>
<path d="M469.086 229.827C471.495 229.827 473.447 227.874 473.447 225.465C473.447 223.056 471.495 221.103 469.086 221.103C466.678 221.103 464.726 223.056 464.726 225.465C464.726 227.874 466.678 229.827 469.086 229.827Z" fill="#30242A"/>
<path d="M456.785 236.675C452.199 235.762 449.378 235.025 449.378 235.025C444.802 238.254 439.809 240.845 434.53 242.726C434.53 242.726 434.222 243.584 433.656 244.926" stroke="#30242A" stroke-width="4" stroke-miterlimit="10" stroke-linecap="round"/>
<path d="M386.925 243.71C388.756 240.856 390.736 238.105 392.853 235.459C393.903 234.106 394.97 232.764 396.059 231.438" stroke="#30242A" stroke-width="4" stroke-miterlimit="10" stroke-linecap="round"/>
</g>
<defs>
<clipPath id="clip0_135_687">
<rect width="650" height="450" fill="white"/>
</clipPath>
</defs>
</svg>
