<svg width="528" height="518" viewBox="0 0 528 518" fill="none" xmlns="http://www.w3.org/2000/svg">
<path fill-rule="evenodd" clip-rule="evenodd" d="M89.4761 203.286C100.103 167.11 78.7513 121.841 104.082 93.91C129.562 65.8152 174.731 74.8781 212.057 68.1233C253.674 60.5918 296.802 33.5802 334.798 52.1573C373.069 70.869 377.471 122.271 398.532 159.296C422.975 202.265 471.649 236.938 467.947 286.23C464.182 336.38 418.115 371.383 380.132 404.351C342.578 436.945 301.619 468.855 252.111 473.563C202.693 478.264 153.622 459.08 113.609 429.7C76.2746 402.286 43.5169 362.845 38.6083 316.794C34.1036 274.531 77.4971 244.064 89.4761 203.286Z" fill="white" fill-opacity="0.25"/>
<path fill-rule="evenodd" clip-rule="evenodd" d="M104.476 203.286C115.103 167.11 93.7513 121.841 119.082 93.91C144.562 65.8152 189.731 74.8781 227.057 68.1233C268.674 60.5918 311.802 33.5803 349.798 52.1573C388.069 70.869 392.471 122.271 413.532 159.296C437.975 202.265 486.649 236.938 482.947 286.23C479.182 336.38 433.115 371.383 395.132 404.351C357.578 436.945 316.619 468.855 267.111 473.563C217.693 478.264 168.622 459.08 128.609 429.7C91.2746 402.286 58.5169 362.845 53.6083 316.794C49.1036 274.531 92.4971 244.064 104.476 203.286Z" stroke="white"/>
<g clip-path="url(#clip0_160_485)">
<path d="M168.562 77.3232H176.554C214.385 77.3232 245.05 107.979 245.05 145.799V280.9H100.066V145.799C100.066 107.979 130.731 77.3232 168.562 77.3232Z" fill="#FFB7D5"/>
<path d="M198.919 200.46V283.018H134.512V200.46H198.919ZM200.586 198.793H132.845V284.685H200.586V198.793Z" fill="#CA7358"/>
<path d="M200.586 198.793H132.845V216.55H200.586V198.793Z" fill="#CA7358"/>
<path d="M132.519 155.864V283.43H93.7212V155.864H132.519ZM134.187 154.197H92.0537V285.097H134.187V154.197Z" fill="#CA7358"/>
<path d="M252.098 130.054V283.001H200.911V130.054H252.098ZM253.766 128.387H199.243V284.668H253.766V128.387Z" fill="#CA7358"/>
<path d="M221.25 149.241H222.046C225.819 149.241 228.875 152.296 228.875 156.068V171.95H214.422V156.068C214.422 152.296 217.478 149.241 221.25 149.241Z" fill="#CA7358"/>
<path d="M212.771 161.627H230.529" stroke="#FFB7D5" stroke-width="4" stroke-linecap="round" stroke-linejoin="round"/>
<path d="M221.25 189.983H222.046C225.819 189.983 228.875 193.037 228.875 196.809V212.7H214.422V196.813C214.422 193.042 217.478 189.987 221.25 189.987V189.983Z" fill="#F5EBDD"/>
<path d="M212.771 202.373H230.529" stroke="#FFB7D5" stroke-width="4" stroke-linecap="round" stroke-linejoin="round"/>
<path d="M221.25 230.728H222.046C225.819 230.728 228.875 233.783 228.875 237.555V253.437H214.422V237.555C214.422 233.783 217.478 230.728 221.25 230.728Z" fill="#F5EBDD"/>
<path d="M212.771 243.114H230.529" stroke="#FFB7D5" stroke-width="4" stroke-linecap="round" stroke-linejoin="round"/>
<path d="M221.25 271.461H222.046C225.819 271.461 228.875 274.516 228.875 278.287V292.874H214.422V278.287C214.422 274.516 217.478 271.461 221.25 271.461Z" fill="#30242A"/>
<path d="M104.527 182.998H105.323C109.095 182.998 112.151 186.053 112.151 189.824V205.707H97.6982V189.824C97.6982 186.053 100.754 182.998 104.527 182.998Z" fill="#F5EBDD"/>
<path d="M96.0469 195.384H113.806" stroke="#FFB7D5" stroke-width="4" stroke-linecap="round" stroke-linejoin="round"/>
<path d="M104.527 223.739H105.323C109.095 223.739 112.151 226.794 112.151 230.566V246.456H97.6982V230.57C97.6982 226.798 100.75 223.743 104.522 223.739H104.527Z" fill="#F5EBDD"/>
<path d="M96.0469 236.129H113.806" stroke="#FFB7D5" stroke-width="4" stroke-linecap="round" stroke-linejoin="round"/>
<path d="M104.527 264.485H105.323C109.095 264.485 112.151 267.539 112.151 271.311V287.193H97.6982V271.311C97.6982 267.539 100.754 264.485 104.527 264.485Z" fill="#CA7358"/>
<path d="M96.0469 276.871H113.806" stroke="#FFB7D5" stroke-width="4" stroke-linecap="round" stroke-linejoin="round"/>
<path d="M253.766 128.387H199.243V135.201H253.766V128.387Z" fill="#CA7358"/>
<path d="M134.187 150.892H92.0537V157.706H134.187V150.892Z" fill="#CA7358"/>
<path d="M159.486 232.654H145.029V251.236H159.486V232.654Z" fill="#F5EBDD"/>
<path d="M143.375 240.913H161.138" stroke="#FFB7D5" stroke-width="4" stroke-linecap="round" stroke-linejoin="round"/>
<path d="M152.258 252.061V240.913" stroke="#FFB7D5" stroke-width="4" stroke-linecap="round" stroke-linejoin="round"/>
<path d="M159.486 266.214H145.029V284.797H159.486V266.214Z" fill="#CA7358"/>
<path d="M143.375 274.47H161.138" stroke="#FFB7D5" stroke-width="4" stroke-linecap="round" stroke-linejoin="round"/>
<path d="M152.258 285.622V274.47" stroke="#FFB7D5" stroke-width="4" stroke-linecap="round" stroke-linejoin="round"/>
<path d="M186.746 232.654H172.289V251.236H186.746V232.654Z" fill="#30242A"/>
<path d="M170.638 240.913H188.401" stroke="#FFB7D5" stroke-width="4" stroke-linecap="round" stroke-linejoin="round"/>
<path d="M179.518 252.061V240.913" stroke="#FFB7D5" stroke-width="4" stroke-linecap="round" stroke-linejoin="round"/>
<path d="M186.746 266.214H172.289V284.797H186.746V266.214Z" fill="#F5EBDD"/>
<path d="M170.638 274.47H188.401" stroke="#FFB7D5" stroke-width="4" stroke-linecap="round" stroke-linejoin="round"/>
<path d="M179.518 285.622V274.47" stroke="#FFB7D5" stroke-width="4" stroke-linecap="round" stroke-linejoin="round"/>
<path d="M142.445 127.766C148.375 127.766 153.183 122.96 153.183 117.031C153.183 111.102 148.375 106.296 142.445 106.296C136.514 106.296 131.706 111.102 131.706 117.031C131.706 122.96 136.514 127.766 142.445 127.766Z" fill="#F5EBDD"/>
<path d="M263.637 280.967H81.4775V293.357H263.637V280.967Z" fill="#F5EBDD"/>
<path d="M175.436 65H169.679C124.403 65 87.6768 101.707 87.6768 146.983V293.357H257.443V146.983C257.443 101.707 220.725 65 175.436 65ZM166.361 280.967H100.079V177.734H166.361V280.967ZM166.361 165.345H100.079V147.404C100.079 110.192 129.193 79.482 166.361 77.4899V165.345ZM245.049 280.967H178.767V177.734H245.049V280.967ZM245.049 165.345H178.767V77.4899C215.935 79.482 245.049 110.192 245.049 147.404V165.345Z" fill="#F5EBDD"/>
<path d="M216.177 270.086C216.177 270.086 187.555 201.406 186.304 183.502C182.102 123.245 247.492 157.572 257.718 163.498C265.164 167.816 294.361 184.148 300.189 189.97C303.941 193.721 301.331 196.501 301.331 196.501C301.331 196.501 305.713 202.252 299.551 202.935C303.932 208.686 296.946 209.466 296.946 209.466C296.946 209.466 298.817 215.079 291.56 213.391C283.739 211.57 224.444 185.911 224.444 185.911C224.444 185.911 237.692 227.723 241.827 240.951L216.177 270.086Z" fill="#A15842"/>
<path d="M280.096 208.603C281.505 208.324 282.455 207.511 282.18 205.765C281.284 200.031 271.7 194.613 271.7 194.613C271.7 194.613 275.543 185.365 267.998 178.222" stroke="#30242A" stroke-width="4" stroke-miterlimit="10" stroke-linecap="round"/>
<path d="M296.85 209.17C293.411 207.157 280.804 199.785 277.815 198.251" stroke="#30242A" stroke-width="4" stroke-miterlimit="10" stroke-linecap="round"/>
<path d="M299.668 202.748C295.366 200.172 284.886 193.65 280.559 191.383" stroke="#30242A" stroke-width="4" stroke-miterlimit="10" stroke-linecap="round"/>
<path d="M301.23 195.705C295.811 192.112 285.59 185.457 281.546 183.415" stroke="#30242A" stroke-width="4" stroke-miterlimit="10" stroke-linecap="round"/>
<path d="M277.332 197.459C278.774 194.85 281.242 189.666 281.376 181.356" stroke="#30242A" stroke-width="4" stroke-miterlimit="10" stroke-linecap="round"/>
<path d="M224.285 186.886L214.521 182.452" stroke="#30242A" stroke-width="4" stroke-linecap="round" stroke-linejoin="round"/>
<path d="M144.988 381.766H75.5332V389.797H144.988V381.766Z" fill="#A15842"/>
<path d="M156.427 423.428L139.222 320.221H149.761C152.108 320.221 154.013 318.316 154.013 315.97C154.013 313.624 152.108 311.719 149.761 311.719H70.8598C68.5128 311.719 66.6077 313.624 66.6077 315.97C66.6077 318.316 68.5128 320.221 70.8598 320.221H81.2815L64.0773 423.42C63.7438 425.362 65.0528 427.204 66.9954 427.537C67.1955 427.571 67.3956 427.587 67.5957 427.587C69.2757 427.587 70.7264 426.416 71.0849 424.779L93.8918 320.221H126.629L149.415 424.774C149.769 426.412 151.22 427.583 152.9 427.583C154.872 427.583 156.472 425.991 156.477 424.024C156.477 423.824 156.46 423.624 156.427 423.428Z" fill="#FFBE21"/>
<path d="M149.761 320.221C152.108 320.221 154.014 318.316 154.014 315.97C154.014 313.624 152.108 311.719 149.761 311.719H70.8605C68.5135 311.719 66.6084 313.624 66.6084 315.97C66.6084 318.316 68.5135 320.221 70.8605 320.221H81.2822L81.2614 320.35H93.8467L93.8759 320.221H126.613L126.642 320.35H139.244L139.223 320.221H149.761Z" fill="#A15842"/>
<path d="M116.874 420.14H18.8764L0.39657 363.287C-0.974933 359.07 1.33453 355.653 5.54909 355.653H88.277C92.4957 355.653 97.0312 359.07 98.3944 363.287L116.874 420.14Z" fill="#FFB7D5"/>
<path d="M178.596 420.14H82.2367C83.208 423.128 81.5697 426.337 78.5807 427.304C78.0138 427.487 77.4177 427.583 76.8174 427.583H173.177C176.316 427.592 178.867 425.049 178.876 421.911C178.876 421.311 178.784 420.711 178.596 420.14Z" fill="#FFB7D5"/>
<path d="M82.2369 420.14H18.9727L19.7105 422.416C20.711 425.495 23.5832 427.583 26.8223 427.583H76.8467C79.9899 427.571 82.5287 425.012 82.5162 421.874C82.5162 421.286 82.4203 420.703 82.2369 420.14Z" fill="#CA7358"/>
<path d="M110.196 420.14H26.4008L8.91309 366.4H92.7082L110.196 420.14Z" fill="#F5EBDD"/>
<path d="M78.8477 409.471H53.0351C50.1671 409.471 47.0905 407.146 46.1568 404.283L39.9329 385.112C39.0033 382.249 40.5707 379.924 43.4388 379.924H69.2514C72.1153 379.924 75.1918 382.249 76.1256 385.112L82.3494 404.283C83.279 407.146 81.7116 409.471 78.8477 409.471Z" fill="#3EC1F3"/>
<path d="M19.3516 419.315H116.065" stroke="#CA7358" stroke-width="4" stroke-miterlimit="10" stroke-linecap="round"/>
<path d="M75.9711 384.196L65.7912 395.064C63.8194 397.148 60.0634 397.148 56.7242 395.064L39.916 384.471" stroke="#F5EBDD" stroke-width="4" stroke-miterlimit="10" stroke-linecap="round"/>
<path d="M66.1914 394.748L82.2409 404.862" stroke="#F5EBDD" stroke-width="4" stroke-miterlimit="10" stroke-linecap="round"/>
<path d="M46.415 405.108L56.0114 394.86" stroke="#F5EBDD" stroke-width="4" stroke-miterlimit="10" stroke-linecap="round"/>
<path d="M76.9588 387.384C73.7489 387.384 70.2889 384.758 69.23 381.549C68.7381 380.032 68.8673 378.632 69.5968 377.636C70.268 376.719 71.3977 376.211 72.7817 376.211C75.9916 376.211 79.4517 378.836 80.5063 382.066C81.0024 383.583 80.8732 384.983 80.1395 385.975C79.4725 386.875 78.3428 387.384 76.9588 387.384Z" fill="#4756DF"/>
<path d="M72.7821 377.023C75.6084 377.023 78.785 379.441 79.7146 382.299C80.1315 383.55 80.0356 384.683 79.4687 385.467C78.8559 386.209 77.9262 386.613 76.9674 386.55C74.1369 386.55 70.9645 384.133 70.0349 381.27C69.618 380.02 69.7139 378.89 70.2808 378.107C70.7894 377.407 71.6774 377.023 72.7821 377.023ZM72.7821 375.356C69.2303 375.356 67.2835 378.236 68.4383 381.787C69.593 385.338 73.4074 388.217 76.9591 388.217C80.5108 388.217 82.4576 385.338 81.3029 381.787C80.1482 378.236 76.3338 375.356 72.7821 375.356Z" fill="#F5EBDD"/>
<path d="M415.833 232.47H415.728C414.986 233.812 410.096 242.018 401.505 242.018C392.913 242.018 388.023 233.812 387.277 232.47H387.177L373.804 292.819H429.206L415.833 232.47Z" fill="#3EC1F3"/>
<path d="M380.141 264.572C391.488 265.76 409.109 275.891 415.233 292.644" stroke="#F5EBDD" stroke-width="4" stroke-miterlimit="10" stroke-linecap="round"/>
<path d="M387.494 293.132C388.766 279.483 399.583 256.925 419.051 249.869" stroke="#F5EBDD" stroke-width="4" stroke-miterlimit="10" stroke-linecap="round"/>
<path d="M401.3 237.571C396.519 242.61 390.491 247.302 383.671 250.453" stroke="#F5EBDD" stroke-width="4" stroke-miterlimit="10" stroke-linecap="round"/>
<path d="M401.505 242.018C410.097 242.018 414.987 233.812 415.729 232.47H387.277C388.024 233.812 392.909 242.018 401.505 242.018Z" fill="#30242A"/>
<path d="M323.442 427.583C321.42 427.583 319.777 425.945 319.777 423.92C319.777 423.532 319.84 423.145 319.961 422.774L331.458 387.8C331.958 386.304 333.359 385.296 334.939 385.3H342.984C345.006 385.3 346.649 386.938 346.653 388.959C346.653 389.584 346.495 390.201 346.186 390.751L326.643 425.725C325.989 426.875 324.767 427.587 323.442 427.583Z" fill="#A15842"/>
<path d="M477.254 427.583C479.276 427.583 480.919 425.945 480.919 423.92C480.919 423.532 480.856 423.145 480.735 422.774L469.238 387.8C468.738 386.304 467.333 385.296 465.757 385.3H457.707C455.685 385.3 454.043 386.942 454.043 388.963C454.043 389.588 454.206 390.205 454.51 390.751L474.053 425.725C474.707 426.875 475.929 427.587 477.254 427.583Z" fill="#A15842"/>
<path d="M495.001 292.136H306.342V400.107H495.001V292.136Z" fill="#FFB7D5"/>
<path d="M480.802 306.051V386.183H320.541V306.051H480.802ZM482.47 304.384H318.873V387.85H482.47V304.384Z" fill="#CA7358"/>
<path d="M400.496 304.234V388.009" stroke="#CA7358" stroke-width="4" stroke-miterlimit="10"/>
<path d="M419.455 350.977C422.137 350.977 424.312 348.803 424.312 346.122C424.312 343.44 422.137 341.266 419.455 341.266C416.773 341.266 414.599 343.44 414.599 346.122C414.599 348.803 416.773 350.977 419.455 350.977Z" fill="#30242A"/>
<path d="M381.887 350.977C384.569 350.977 386.743 348.803 386.743 346.122C386.743 343.44 384.569 341.266 381.887 341.266C379.205 341.266 377.03 343.44 377.03 346.122C377.03 348.803 379.205 350.977 381.887 350.977Z" fill="#30242A"/>
<path d="M122.535 259.876C129.276 259.876 134.737 265.335 134.737 272.074V311.836H110.333V272.074C110.333 265.335 115.794 259.876 122.535 259.876Z" fill="#4756DF"/>
<path d="M134.741 275.458H110.333V298.191H134.741V275.458Z" fill="#3EC1F3"/>
<path d="M127.958 253.549H117.111V261.23H127.958V253.549Z" fill="#30242A"/>
<path d="M271.792 189.062C280.126 189.062 286.883 182.307 286.883 173.975C286.883 165.644 280.126 158.889 271.792 158.889C263.457 158.889 256.701 165.644 256.701 173.975C256.701 182.307 263.457 189.062 271.792 189.062Z" fill="#30242A"/>
<path d="M260.073 183.302C261.278 183.848 251.061 159.964 245.942 163.748C241.127 167.295 253.979 180.531 260.073 183.302Z" fill="#FFBE21"/>
<path d="M258.777 183.256C259.777 184.507 283.893 176.588 280.671 171.679C277.578 166.97 257.776 182.014 258.777 183.256Z" fill="#FFBE21"/>
<path d="M288.332 165.916C293.699 165.916 298.05 161.566 298.05 156.201C298.05 150.836 293.699 146.487 288.332 146.487C282.966 146.487 278.615 150.836 278.615 156.201C278.615 161.566 282.966 165.916 288.332 165.916Z" fill="#30242A"/>
<path d="M221.968 328.372H271.588L274.206 315.97H214.418L221.968 328.372Z" fill="#CA7358"/>
<path d="M221.534 287.448C221.534 287.448 231.668 274.22 250.685 272.978L263.312 245.86C259.94 245.323 257.51 244.981 257.51 244.981C258.01 243.772 259.711 239.772 261.766 234.837C258.047 232.366 251.973 227.507 250.569 221.376C255.029 220.705 263.908 216.496 260.403 209.132C256.109 200.101 244.745 207.049 244.745 207.049C241.293 203.135 239.092 198.284 238.417 193.112C237.037 193.254 233.085 192.833 230.28 191.316L230.092 191.208C228.591 194.154 227.245 197.176 226.057 200.264C225.744 201.056 225.444 201.823 225.127 202.552C225.127 202.552 221.204 201.885 220.4 203.506C219.403 205.507 222.388 208.09 222.388 208.09C220.004 212.575 217.89 216.246 218.657 220.897C219.333 225.002 223.205 229.991 232.331 230.824L227.745 245.289L210.653 274.958C214.005 276.921 218.507 280.659 221.534 287.448Z" fill="#CA7358"/>
<path d="M342.292 229.37C336.91 222.656 317.697 195.242 311.281 190.099C307.146 186.79 304.665 189.683 304.665 189.683C304.665 189.683 298.462 185.961 298.462 192.162C292.259 188.441 292.259 195.467 292.259 195.467C292.259 195.467 286.469 194.217 288.954 201.256C291.626 208.824 321.62 263.451 321.62 263.451C321.62 263.451 290.604 251.878 278.615 248.794C276.414 248.227 273.717 247.669 270.995 247.161C269.24 251.27 266.497 257.996 262.074 269.248C256.071 284.48 258.989 299.708 276.36 305.751L279.441 291.165C279.441 291.165 311.54 303.226 329.465 302.738C390.257 301.088 349.737 238.667 342.292 229.37Z" fill="#CA7358"/>
<path d="M238.417 193.112C239.088 198.301 241.297 203.164 244.761 207.086C244.761 207.086 256.125 200.118 260.419 209.17C263.925 216.534 255.046 220.743 250.585 221.414C251.99 227.544 258.064 232.403 261.782 234.875C264.834 227.544 268.661 218.147 270.461 212.787C273.125 204.844 274.501 192.533 262.541 183.64C251.348 175.334 238.521 180.843 235.628 183.736C233.91 185.453 232.293 187.07 230.108 191.237L230.296 191.345C233.085 192.817 237.037 193.238 238.417 193.112Z" fill="#30242A"/>
<path d="M262.074 269.261C266.497 258.033 269.24 251.291 270.995 247.173C268.31 246.669 265.605 246.215 263.329 245.852L250.714 272.978C231.697 274.228 221.562 287.448 221.562 287.448C218.519 280.659 214.017 276.921 210.686 274.945L206.876 281.559C202.916 288.652 203.074 297.324 207.293 304.263L214.413 315.961H274.205L276.36 305.755C258.989 299.721 256.071 284.493 262.074 269.261Z" fill="#FFBE21"/>
<path d="M232.589 231.678C235.182 231.666 237.762 231.282 240.251 230.545" stroke="#30242A" stroke-width="4" stroke-miterlimit="10" stroke-linecap="round"/>
<path d="M293.456 209.72C293.76 208.661 294.511 207.974 295.982 208.078C301.773 208.495 307.971 217.588 307.971 217.588C307.971 217.588 316.872 213.004 324.621 219.901" stroke="#30242A" stroke-width="4" stroke-miterlimit="10" stroke-linecap="round"/>
<path d="M293.102 195.242C296.336 200.339 302.348 209.828 303.836 212.212" stroke="#30242A" stroke-width="4" stroke-miterlimit="10" stroke-linecap="round"/>
<path d="M299.071 191.704C302.406 196.613 308.242 204.99 310.456 208.495" stroke="#30242A" stroke-width="4" stroke-miterlimit="10" stroke-linecap="round"/>
<path d="M305.6 189.779C309.768 195.096 316.155 203.348 318.31 206.865" stroke="#30242A" stroke-width="4" stroke-miterlimit="10" stroke-linecap="round"/>
<path d="M304.666 212.212C307.167 210.545 312.107 207.665 320.378 206.84" stroke="#30242A" stroke-width="4" stroke-miterlimit="10" stroke-linecap="round"/>
<path d="M257.414 244.097L250.085 243.218" stroke="#30242A" stroke-width="4" stroke-miterlimit="10" stroke-linecap="round"/>
<path d="M231.476 324.238L231.063 323.413" stroke="#30242A" stroke-width="4" stroke-miterlimit="10" stroke-linecap="round"/>
<path d="M279.032 291.965L274.893 290.34" stroke="#30242A" stroke-width="4" stroke-miterlimit="10" stroke-linecap="round"/>
<path d="M331.129 266.364L321.729 262.672" stroke="#30242A" stroke-width="4" stroke-miterlimit="10" stroke-linecap="round"/>
<path d="M274.206 315.97H214.418" stroke="#30242A" stroke-width="4" stroke-linecap="round" stroke-linejoin="round"/>
<path d="M250.085 272.978L244.044 286.464C242.194 290.59 238.092 293.245 233.568 293.245H203.971" stroke="#30242A" stroke-width="4" stroke-linecap="round" stroke-linejoin="round"/>
<path d="M224.647 213.116C225.36 213.729 228.253 214.563 229.8 212.475" stroke="#30242A" stroke-width="4" stroke-miterlimit="10" stroke-linecap="round"/>
<path d="M254.02 211.82L248.784 213.85" stroke="#A15842" stroke-width="4" stroke-miterlimit="10" stroke-linecap="round"/>
<path d="M234.49 203.631C232.881 204.031 231.247 203.056 230.846 201.443C230.83 201.381 230.817 201.318 230.805 201.256" stroke="#30242A" stroke-width="4" stroke-linecap="round" stroke-linejoin="round"/>
<path d="M248.555 219.201L246.663 226.932C246.338 228.215 247.117 229.52 248.397 229.84C248.772 229.936 249.168 229.936 249.547 229.849L256.613 228.182C257.902 227.869 258.689 226.573 258.377 225.29C258.289 224.923 258.11 224.577 257.864 224.289L252.691 218.242C251.828 217.238 250.314 217.125 249.31 217.992C248.943 218.309 248.676 218.73 248.555 219.201Z" fill="#F4E6D8"/>
<path d="M264.471 398.828C260.335 393.864 245.949 375.906 245.949 375.906" stroke="#30242A" stroke-width="4" stroke-linecap="round" stroke-linejoin="round"/>
<path d="M376.192 358.561C374.675 354.461 371.89 347.588 368.455 339.337L331.587 350.093L327.36 351.427C329.261 363.717 330.72 369.709 330.72 369.709C330.72 369.709 291.026 333.331 271.591 328.372H221.95L204.996 427.583H353.027C395.222 427.583 383.229 377.565 376.192 358.561Z" fill="#4856DF"/>
<path d="M336.052 263.747C335.064 261.392 332.546 260.059 330.041 260.567C322.691 262.209 322.12 276.12 320.378 284.139C317.485 297.37 311.282 302.33 310.869 311.011C310.452 319.345 323.688 322.584 323.688 322.584C324.138 326.947 324.597 331.002 325.059 334.74L361.902 323.73C351.797 299.917 339.829 272.407 336.052 263.747Z" fill="#A15842"/>
<path d="M327.34 351.331V351.427L331.567 350.093L327.34 351.331Z" fill="#A15842"/>
<path d="M368.463 339.324C368.355 339.07 368.251 338.812 368.142 338.553L331.587 350.093L368.463 339.324Z" fill="#3EC1F3"/>
<path d="M368.143 338.558C366.221 333.948 364.103 328.927 361.89 323.734L325.047 334.744C325.835 341.179 326.614 346.701 327.327 351.335L331.571 350.085L368.143 338.558Z" fill="#3EC1F3"/>
<path d="M256.442 328.243C269.657 342.1 337.991 412.343 359.247 405.258C374.767 400.086 351.914 349.13 349.738 342.425" stroke="#3EC1F3" stroke-width="4" stroke-linecap="round" stroke-linejoin="round"/>
<path d="M348.679 384.65C343.889 380.357 335.339 372.702 330.795 368.659" stroke="#30242A" stroke-width="4" stroke-linecap="round" stroke-linejoin="round"/>
<path d="M322.032 313.078L322.841 321.717" stroke="#30242A" stroke-width="4" stroke-linecap="round" stroke-linejoin="round"/>
<path d="M332.421 261.301L333.988 265.693" stroke="#30242A" stroke-width="4" stroke-linecap="round" stroke-linejoin="round"/>
<path d="M328.669 261.718L331.204 267.948" stroke="#30242A" stroke-width="4" stroke-linecap="round" stroke-linejoin="round"/>
<path d="M232.593 383.5L232.36 383.429L240.985 328.289H221.951C221.951 328.289 145.884 357.311 128.517 385.004C112.101 411.18 142.162 427.583 150.845 427.583H226.578L232.593 383.5Z" fill="#4856DF"/>
<path d="M312.519 427.583C322.445 427.583 319.139 416.419 312.103 412.701C305.066 408.984 296.803 405.258 288.12 393.685C279.437 382.112 269.098 385.004 262.483 393.268C262.483 393.268 257.438 391.455 250.026 388.997L244.224 427.579H312.519V427.583Z" fill="#CA7358"/>
<path d="M233.319 383.716L232.594 383.5L226.578 427.583H244.228L250.031 388.984C245.212 387.405 239.397 385.533 233.319 383.716Z" fill="#3EC1F3"/>
<path d="M307.972 423.036L314.079 426.75" stroke="#30242A" stroke-width="4" stroke-linecap="round" stroke-linejoin="round"/>
<path d="M191.781 373.844C209.148 377.148 216.66 379.261 232.372 384.262" stroke="#30242A" stroke-width="4" stroke-linecap="round" stroke-linejoin="round"/>
<path d="M303.011 425.104L306.575 427.167" stroke="#30242A" stroke-width="4" stroke-linecap="round" stroke-linejoin="round"/>
<path d="M263.316 392.756L269.103 394.927" stroke="#30242A" stroke-width="4" stroke-linecap="round" stroke-linejoin="round"/>
<path d="M402.818 236.979C403.702 231.762 407.721 211.066 417.555 199.868" stroke="#30242A" stroke-width="4" stroke-miterlimit="10" stroke-linecap="round"/>
<path d="M423.605 217.922C432.191 214.211 438.475 209.637 437.64 207.706C436.805 205.775 429.167 207.218 420.581 210.929C411.995 214.64 405.711 219.214 406.546 221.145C407.381 223.076 415.019 221.633 423.605 217.922Z" fill="#30242A"/>
<path d="M424.463 163.904C427.567 159.764 428.913 155.531 427.469 154.449C426.025 153.366 422.337 155.845 419.233 159.984C416.128 164.124 414.782 168.358 416.226 169.44C417.67 170.523 421.358 168.044 424.463 163.904Z" fill="#30242A"/>
<path d="M441.225 191.812C440.62 189.845 436.702 189.212 431.741 190.041C435.372 185.136 436.873 180.347 435.076 178.835C433.279 177.322 428.823 179.606 424.587 184.002C424.587 178.976 423.291 175.217 421.252 174.955C418.651 174.617 415.8 180.097 414.883 187.191C414.612 189.216 414.537 191.262 414.658 193.304C418.639 192.058 422.878 194.275 424.125 198.255C424.441 199.26 424.541 200.318 424.421 201.364C426.388 201.135 428.331 200.726 430.223 200.143C437.056 198.051 441.983 194.321 441.225 191.812Z" fill="#FFBE21"/>
<path d="M421.777 194.738C419.805 193.071 417.112 192.529 414.648 193.304C414.869 196.684 415.707 199.276 416.987 200.243C418.175 201.364 420.952 201.752 424.412 201.364C424.695 198.855 423.707 196.367 421.777 194.738Z" fill="#30242A"/>
<path d="M400.091 236.317C399.804 230.391 398.082 201.31 391.629 184.136" stroke="#30242A" stroke-width="4" stroke-miterlimit="10" stroke-linecap="round"/>
<path d="M378.809 219.635C389.898 217.523 398.585 214.223 398.211 212.265C397.838 210.307 388.546 210.432 377.458 212.545C366.369 214.658 357.682 217.958 358.056 219.916C358.429 221.873 367.721 221.748 378.809 219.635Z" fill="#30242A"/>
<path d="M396.361 159.406C394.351 158.964 391.879 162.073 390.166 166.799C387.665 161.231 384.23 157.576 382.037 158.393C379.844 159.21 379.632 164.228 381.395 170.062C377.005 167.612 373.103 166.882 371.874 168.533C370.302 170.616 373.679 175.805 379.415 180.085C381.049 181.314 382.796 182.385 384.634 183.281C385.497 179.201 389.507 176.597 393.588 177.459C394.618 177.676 395.594 178.11 396.448 178.726C397.211 176.901 397.807 175.005 398.228 173.071C399.758 166.086 398.924 159.969 396.361 159.406Z" fill="#FFBE21"/>
<path d="M389.382 177.776C386.96 178.676 385.167 180.756 384.634 183.286C387.689 184.748 390.357 185.29 391.829 184.653C393.388 184.161 395.089 181.931 396.448 178.731C394.401 177.251 391.75 176.893 389.382 177.776Z" fill="#30242A"/>
<path d="M370.144 190.379V190.404C373.558 192.333 374.93 196.555 373.3 200.122C371.665 203.685 367.58 205.407 363.887 204.094V204.123C373.216 208.386 382.183 208.761 383.896 204.956C385.61 201.152 379.473 194.638 370.144 190.379Z" fill="#FFBE21"/>
<path d="M370.894 203.06C369.126 202.073 368.497 199.835 369.485 198.068C370.364 196.496 372.257 195.796 373.95 196.417C373.758 193.9 372.328 191.646 370.131 190.404L363.878 204.094C366.242 204.94 368.872 204.552 370.894 203.06Z" fill="#F5EBDD"/>
<path d="M369.351 198.339C368.559 200.072 369.23 202.127 370.894 203.06C372.99 201.522 374.145 199.009 373.949 196.417C372.148 195.763 370.147 196.597 369.351 198.339Z" fill="#30242A"/>
</g>
<defs>
<clipPath id="clip0_160_485">
<rect width="495" height="363" fill="white" transform="translate(0 65)"/>
</clipPath>
</defs>
</svg>
