<svg width="560" height="469" viewBox="0 0 560 469" fill="none" xmlns="http://www.w3.org/2000/svg">
<path d="M4.33189 152.018C-18.4165 28.9091 53.9547 25.1735 92.9839 38.6943C154.594 55.1423 301.4 82.3512 395.739 59.6028C513.663 31.1672 621.969 242.761 479.373 245.27C336.777 247.779 387.794 341.867 277.815 417.138C167.836 492.409 29.4221 405.429 63.2938 325.559C97.1656 245.688 32.7674 305.905 4.33189 152.018Z" fill="white" fill-opacity="0.25"/>
<path d="M16.0406 148.673C-6.70781 25.5637 65.6635 21.8281 104.693 35.3489C166.303 51.7969 313.108 79.0058 407.448 56.2574C525.371 27.8219 633.677 239.416 491.081 241.925C348.486 244.434 399.502 338.522 289.524 413.793C179.545 489.063 41.1308 402.084 75.0026 322.213C108.874 242.343 44.4762 302.559 16.0406 148.673Z" stroke="white"/>
<g clip-path="url(#clip0_114_250)">
<path d="M292.816 14.7586H298.699C344.995 14.7688 382.52 52.3084 382.52 98.6103V258.577H208.95V98.6103C208.95 52.2982 246.485 14.7586 292.791 14.7586H292.816Z" fill="#FFB7D5"/>
<path d="M327.248 162.284V261.068H250.23V162.284H327.248ZM329.289 160.242H248.189V263.109H329.289V160.242Z" fill="#CA7358"/>
<path d="M329.289 160.237H248.189V181.503H329.289V160.237Z" fill="#CA7358"/>
<path d="M247.755 108.868V261.563H201.398V108.868H247.755ZM249.796 106.827H199.357V263.604H249.796V106.827Z" fill="#CA7358"/>
<path d="M390.913 77.9574V261.068H329.723V77.9574H390.913ZM392.954 75.9161H327.682V263.109H392.954V75.9161Z" fill="#CA7358"/>
<path d="M354.215 100.891H354.802C359.42 100.891 363.16 104.632 363.16 109.251V128.092H345.852V109.251C345.852 104.632 349.592 100.891 354.21 100.891H354.215Z" fill="#CA7358"/>
<path d="M343.878 115.727H365.14" stroke="#FFB7D5" stroke-width="4" stroke-linecap="round" stroke-linejoin="round"/>
<path d="M354.215 149.689H354.802C359.42 149.689 363.16 153.43 363.16 158.048V176.889H345.852V158.048C345.852 153.43 349.592 149.689 354.21 149.689H354.215Z" fill="#F5EBDD"/>
<path d="M343.878 164.524H365.14" stroke="#FFB7D5" stroke-width="4" stroke-linecap="round" stroke-linejoin="round"/>
<path d="M354.215 198.486H354.802C359.42 198.486 363.16 202.227 363.16 206.845V225.687H345.852V206.845C345.852 202.227 349.592 198.486 354.21 198.486H354.215Z" fill="#F5EBDD"/>
<path d="M343.878 213.321H365.14" stroke="#FFB7D5" stroke-width="4" stroke-linecap="round" stroke-linejoin="round"/>
<path d="M354.215 247.284H354.802C359.42 247.284 363.16 251.024 363.16 255.643V272.953H345.852V255.643C345.852 251.024 349.592 247.284 354.21 247.284H354.215Z" fill="#30242A"/>
<path d="M392.954 75.9161H327.682V84.0762H392.954V75.9161Z" fill="#CA7358"/>
<path d="M249.796 102.872H199.357V111.032H249.796V102.872Z" fill="#CA7358"/>
<path d="M280.085 200.793H262.777V223.048H280.085V200.793Z" fill="#F5EBDD"/>
<path d="M260.797 210.683H282.065" stroke="#FFB7D5" stroke-width="4" stroke-linecap="round" stroke-linejoin="round"/>
<path d="M271.431 224.038V210.683" stroke="#FFB7D5" stroke-width="4" stroke-linecap="round" stroke-linejoin="round"/>
<path d="M280.085 240.986H262.777V263.242H280.085V240.986Z" fill="#CA7358"/>
<path d="M260.797 250.876H282.065" stroke="#FFB7D5" stroke-width="4" stroke-linecap="round" stroke-linejoin="round"/>
<path d="M271.431 264.232V250.876" stroke="#FFB7D5" stroke-width="4" stroke-linecap="round" stroke-linejoin="round"/>
<path d="M312.721 200.793H295.413V223.048H312.721V200.793Z" fill="#30242A"/>
<path d="M293.439 210.683H314.701" stroke="#FFB7D5" stroke-width="4" stroke-linecap="round" stroke-linejoin="round"/>
<path d="M304.067 224.038V210.683" stroke="#FFB7D5" stroke-width="4" stroke-linecap="round" stroke-linejoin="round"/>
<path d="M312.721 240.986H295.413V263.242H312.721V240.986Z" fill="#F5EBDD"/>
<path d="M293.439 250.876H314.701" stroke="#FFB7D5" stroke-width="4" stroke-linecap="round" stroke-linejoin="round"/>
<path d="M304.067 264.232V250.876" stroke="#FFB7D5" stroke-width="4" stroke-linecap="round" stroke-linejoin="round"/>
<path d="M259.685 75.1762C266.787 75.1762 272.544 69.4184 272.544 62.3159C272.544 55.2134 266.787 49.4557 259.685 49.4557C252.583 49.4557 246.827 55.2134 246.827 62.3159C246.827 69.4184 252.583 75.1762 259.685 75.1762Z" fill="#F5EBDD"/>
<path d="M404.772 258.659H186.698V273.494H404.772V258.659Z" fill="#F5EBDD"/>
<path d="M299.179 0H292.306C238.086 0 194.132 43.9595 194.132 98.1868V273.494H397.373V98.1868C397.358 43.9595 353.399 0 299.179 0ZM288.321 258.659H208.95V135.017H288.321V258.659ZM288.321 120.182H208.95V98.692C208.95 54.1201 243.816 17.3358 288.321 14.9577V120.182ZM382.519 258.659H303.154V135.017H382.519V258.659ZM382.519 120.182H303.154V14.9577C347.659 17.3358 382.519 54.1201 382.519 98.692V120.182Z" fill="#F5EBDD"/>
<path d="M467.86 287.824C467.86 288.37 467.753 288.911 467.534 289.411C466.003 292.897 459.461 293.412 452.956 290.559C447.506 288.176 443.801 284.185 443.643 280.904V324.425H467.875V287.824H467.86Z" fill="#FFBE21"/>
<path d="M458.543 277.949C452.037 275.096 445.506 275.612 443.965 279.097C443.715 279.669 443.608 280.292 443.643 280.914C443.801 284.196 447.506 288.186 452.956 290.57C459.461 293.422 465.993 292.907 467.534 289.421C467.753 288.921 467.865 288.38 467.86 287.834C467.875 284.512 464.125 280.389 458.543 277.949Z" fill="#A15842"/>
<path d="M486.439 302.179C486.281 305.461 482.576 309.452 477.126 311.84C470.616 314.688 464.089 314.177 462.543 310.687C462.329 310.186 462.217 309.651 462.217 309.105V324.414H486.444V302.179H486.439Z" fill="#FFBE21"/>
<path d="M486.117 300.363C484.586 296.877 478.045 296.362 471.534 299.214C465.957 301.659 462.206 305.777 462.217 309.105C462.217 309.651 462.329 310.186 462.543 310.687C464.074 314.177 470.616 314.688 477.126 311.84C482.576 309.452 486.28 305.461 486.439 302.179C486.474 301.557 486.367 300.934 486.117 300.363Z" fill="#A15842"/>
<path d="M462.926 324.435V309.6" stroke="#A15842" stroke-width="4" stroke-miterlimit="10" stroke-linecap="round"/>
<path d="M455.757 274.729V283.139" stroke="#30242A" stroke-width="4" stroke-linecap="round" stroke-linejoin="round"/>
<path d="M474.33 295.999V304.9" stroke="#30242A" stroke-width="4" stroke-linecap="round" stroke-linejoin="round"/>
<path d="M352.006 468.99C349.848 468.99 348.097 467.245 348.092 465.086C348.092 464.667 348.159 464.254 348.291 463.856L360.537 426.531C361.068 424.928 362.568 423.841 364.257 423.841H372.84C374.998 423.841 376.748 425.587 376.754 427.745C376.754 428.414 376.585 429.072 376.253 429.659L355.404 466.984C354.715 468.219 353.419 468.985 352.006 468.99Z" fill="#30242A"/>
<path d="M516.064 468.99C518.223 468.99 519.973 467.245 519.978 465.086C519.978 464.667 519.912 464.254 519.779 463.856L507.533 426.531C507.002 424.928 505.507 423.846 503.818 423.841H495.23C493.067 423.841 491.322 425.602 491.322 427.761C491.322 428.424 491.495 429.077 491.817 429.659L512.666 466.984C513.355 468.219 514.651 468.985 516.064 468.99Z" fill="#30242A"/>
<path d="M535 324.435H333.739V439.666H535V324.435Z" fill="#A15842"/>
<path d="M520.162 339.27H348.572V424.831H520.162V339.27Z" fill="#FFB7D5"/>
<path d="M434.183 337.79V426.316" stroke="#A15842" stroke-width="4" stroke-miterlimit="10"/>
<path d="M454.405 387.236C457.268 387.236 459.589 384.914 459.589 382.051C459.589 379.187 457.268 376.866 454.405 376.866C451.542 376.866 449.22 379.187 449.22 382.051C449.22 384.914 451.542 387.236 454.405 387.236Z" fill="#30242A"/>
<path d="M414.329 387.236C417.192 387.236 419.513 384.914 419.513 382.051C419.513 379.187 417.192 376.866 414.329 376.866C411.466 376.866 409.145 379.187 409.145 382.051C409.145 384.914 411.466 387.236 414.329 387.236Z" fill="#30242A"/>
<path d="M159.251 421.019H86.5594V429.424H159.251V421.019Z" fill="#A15842"/>
<path d="M171.227 464.642L153.22 356.58H164.231C166.691 356.58 168.681 354.59 168.681 352.13C168.681 349.67 166.691 347.68 164.231 347.68H81.6662C79.2067 347.68 77.2167 349.67 77.2167 352.13C77.2167 354.59 79.2067 356.58 81.6662 356.58H92.5908L74.5838 464.642C74.247 466.678 75.6196 468.602 77.6555 468.939C77.8596 468.975 78.0637 468.99 78.2678 468.99C80.0231 468.99 81.5437 467.765 81.9162 466.05L105.776 356.58H140.035L163.889 466.05C164.267 467.765 165.787 468.99 167.543 468.99C169.604 468.99 171.278 467.316 171.278 465.254C171.278 465.05 171.262 464.846 171.227 464.642Z" fill="#FFBE21"/>
<path d="M164.231 356.58C166.69 356.58 168.68 354.59 168.68 352.13C168.68 349.67 166.69 347.68 164.231 347.68H81.6661C79.2067 347.68 77.2167 349.67 77.2167 352.13C77.2167 354.59 79.2067 356.58 81.6661 356.58H92.5908V356.718H105.766L105.796 356.58H140.055L140.086 356.718H153.26V356.58H164.231Z" fill="#A15842"/>
<path d="M169.124 420.876H221.681C222.334 409.715 224.666 394.911 226.6 374.911C228.319 357.177 229.799 342.291 229.702 330.002C229.539 309.518 177.146 334.31 177.146 334.31C177.146 338.785 178.049 343.082 178.074 347.246C178.135 358.065 172.655 367.272 168.742 380.321C162.807 400.106 167.752 420.876 167.752 420.876H169.124Z" fill="#4856DF"/>
<path d="M224.482 463.407H178.472C176.993 463.876 176.176 465.458 176.646 466.938C177.018 468.102 178.095 468.893 179.319 468.898L247.026 468.99C247.623 462.407 243.882 457.451 233.33 450.108C227.309 455.328 224.482 463.407 224.482 463.407Z" fill="#3EC1F3"/>
<path d="M230.957 448.51C228.774 447.097 226.886 445.27 225.401 443.132C221.829 437.891 221.074 430.833 221.661 420.876H176.115C176.202 428.322 176.737 435.752 177.722 443.132C178.886 451.486 180.457 457.232 181.718 463.274H179.324C179.034 463.274 178.748 463.32 178.472 463.407H224.482C224.482 463.407 227.309 455.328 233.33 450.138C232.575 449.603 231.784 449.062 230.957 448.51Z" fill="#A15842"/>
<path d="M222.212 411.935C219.395 406.327 217.476 400.31 216.522 394.11C213.19 370.956 215.165 359.086 205.771 348.691H178.284" stroke="#30242A" stroke-width="4" stroke-linecap="round" stroke-linejoin="round"/>
<path d="M239.351 422.851L239.402 422.974L279.978 403.969C276.82 394.518 273.518 381.943 268.094 365.485C263.012 350.084 259.649 338.576 256.465 329.671C246.607 336.774 232.861 334.539 225.758 324.68C219.553 316.065 220.385 304.251 227.733 296.591C206.072 286.803 129.141 280.419 129.141 280.419L85.6206 273.989C83.3245 277.786 81.3702 283.803 80.3088 290.83H95.5145V307.094C95.4992 313.942 89.9476 319.485 83.1 319.49H81.6253C85.7788 334.799 96.4636 347.695 118.272 347.695H206.292C215.685 358.081 213.711 369.951 217.043 393.114C219.768 412.063 232.682 426.031 232.682 426.031L239.351 422.851Z" fill="#4856DF"/>
<path d="M301.164 444.617L260.751 462.948C259.246 463.999 258.879 466.076 259.93 467.581C260.864 468.913 262.619 469.378 264.088 468.679L325.411 440.1C323.008 433.466 316.829 430.914 302.19 428.363L301.562 428.245C300.347 433.624 300.215 439.187 301.164 444.617Z" fill="#3EC1F3"/>
<path d="M301.562 428.225C297.347 427.419 294.041 426.015 291.311 423.892C286.28 419.973 283.198 413.594 279.978 403.99L239.402 422.994C242.841 430.899 247.668 439.212 252.266 446.469C256.282 452.787 260.114 458.293 262.69 461.983L261.226 462.692C261.058 462.774 260.899 462.871 260.751 462.978L301.164 444.647C300.205 439.202 300.342 433.619 301.562 428.225Z" fill="#A15842"/>
<path d="M243.617 333.83C248.23 333.83 252.73 332.376 256.465 329.671C250.133 311.871 244.643 304.456 228.039 296.729L227.733 296.591C219.324 305.359 219.614 319.286 228.381 327.696C232.478 331.625 237.938 333.82 243.617 333.82V333.83Z" fill="#3EC1F3"/>
<path d="M83.0999 319.49C89.9577 319.49 95.5196 313.927 95.5247 307.068V290.804H80.319C78.977 299.628 79.0535 310.008 81.6252 319.474H82.2324L83.0999 319.49Z" fill="#3EC1F3"/>
<path d="M205.542 348.915H220.375" stroke="#30242A" stroke-width="4" stroke-linecap="round" stroke-linejoin="round"/>
<path d="M269.344 191.643C269.344 191.643 242.642 160.982 211.093 149.862" stroke="#30242A" stroke-width="4" stroke-linecap="round" stroke-linejoin="round"/>
<path d="M185.59 161.84C184.621 159.497 187.856 155.823 193.244 152.72C185.948 150.903 180.763 147.52 181.284 144.677C181.804 141.835 187.846 140.498 195.316 141.376C191.387 136.579 189.657 131.996 191.392 130.148C193.602 127.786 200.612 130.766 207.047 136.783C212.66 142.039 215.976 147.887 215.272 150.863C214.879 153.894 209.71 158.191 202.608 161.13C194.438 164.519 186.83 164.835 185.59 161.84Z" fill="#4756DF"/>
<path d="M215.538 160.385C220.683 160.385 224.855 156.213 224.855 151.067C224.855 145.92 220.683 141.748 215.538 141.748C210.392 141.748 206.22 145.92 206.22 151.067C206.22 156.213 210.392 160.385 215.538 160.385Z" fill="#30242A"/>
<path d="M235.168 163.066C237.728 162.115 236.565 152.621 232.57 141.859C228.574 131.097 223.26 123.144 220.7 124.094C218.14 125.045 219.304 134.54 223.299 145.302C227.294 156.063 232.609 164.017 235.168 163.066Z" fill="#30242A"/>
<path d="M234.713 164.937C234.713 164.937 238.672 175.818 236.693 187.193" stroke="#30242A" stroke-width="4" stroke-linecap="round" stroke-linejoin="round"/>
<path d="M162.506 121.601C154.067 131.098 145.096 133.195 145.096 133.195C139.295 126.867 128.768 126.867 127.161 135.834C125.411 145.77 137.698 148.505 137.698 148.505C137.698 148.505 140.795 161.324 136.044 167.657C131.85 173.271 126.462 174.195 115.42 175.43C129.809 199.747 144.504 197.828 149.398 197.828C161.134 197.828 164.44 184.207 165.364 177.185C162.69 176.251 159.965 175.486 157.2 174.884L155.618 165.392C155.618 165.392 163.001 168.025 169.334 164.335C175.666 160.646 177.248 153.782 175.135 143.233C173.885 136.982 173.931 129.25 172.859 122.34C168.68 123.05 162.506 121.601 162.506 121.601Z" fill="#A15842"/>
<path d="M250.291 174.583C248.051 165.616 230.513 160.753 230.513 160.753C230.513 160.753 231.565 140.625 227.049 139.982C223.589 139.472 220.125 147.898 217.16 164.218C213.843 182.457 215.675 216.144 215.675 216.144C215.675 216.144 212.006 212.811 206.802 208.172C205.74 210.316 203.577 211.694 201.189 211.745C203.383 214.526 202.909 218.562 200.128 220.762C199.031 221.63 197.678 222.114 196.275 222.14C198.469 224.921 197.995 228.958 195.214 231.157C194.117 232.025 192.765 232.51 191.361 232.535C193.555 235.322 193.081 239.358 190.295 241.553C189.009 242.568 187.381 243.053 185.749 242.905C196.581 249.958 211.307 258.184 221.12 258.184C272.543 258.164 251.776 180.518 250.291 174.583Z" fill="#A15842"/>
<path d="M192.106 239.236C193.147 237.031 192.851 234.429 191.346 232.515C194.892 232.443 197.709 229.514 197.638 225.972C197.612 224.574 197.127 223.222 196.26 222.119C199.806 222.048 202.623 219.119 202.551 215.577C202.526 214.179 202.041 212.826 201.174 211.724C203.562 211.673 205.725 210.295 206.787 208.152C197.816 200.16 184.289 188.31 177.089 182.988C173.604 180.411 169.165 178.502 165.354 177.185C164.455 184.228 161.169 197.828 149.433 197.828C144.561 197.828 129.845 199.747 115.455 175.43L110.832 175.94C94.9124 177.711 87.6667 186.279 83.4009 196.516C80.7629 202.85 78.6504 214.454 78.6504 214.454C77.0125 225.095 76.1706 235.842 76.1298 246.605L96.8309 265.768L152.408 267.14C156.858 260.578 165.022 248.457 167.716 243.808C171.176 237.873 171.671 232.928 171.671 232.928C171.671 232.928 177.61 237.572 185.749 242.874C188.417 243.109 190.953 241.66 192.106 239.236Z" fill="#FFBE21"/>
<path d="M168.313 109.991C161.986 102.081 144.576 96.8038 130.86 106.827C117.144 116.849 118.201 133.205 118.726 139.539C118.726 139.539 103.959 134.787 93.4071 145.867C87.2023 152.302 84.6306 161.411 86.5492 170.138C86.5492 170.138 67.1186 169.592 63.3376 187.55C61.1894 197.757 65.2 204.549 69.6495 208.754C72.2569 211.204 75.3082 213.138 78.6351 214.454C78.6351 214.454 80.7476 202.85 83.3856 196.516C87.6514 186.279 94.897 177.711 110.817 175.94L115.44 175.43C126.482 174.195 131.87 173.256 136.065 167.657C140.81 161.324 137.698 148.505 137.698 148.505C137.698 148.505 125.395 145.77 127.145 135.844C128.732 126.877 139.279 126.877 145.081 133.205C145.081 133.205 154.051 131.098 162.491 121.601C162.491 121.601 168.665 123.05 172.875 122.341C172.155 117.584 170.89 113.221 168.313 109.991Z" fill="#30242A"/>
<path d="M251.388 181.63C249.893 180.941 249 179.206 249.255 175.889C249.255 175.889 246.163 179.768 242.872 178.043C239.581 176.318 240.897 172.603 240.897 172.603C240.897 172.603 237.928 174.583 235.458 172.092C233.218 169.852 234.948 166.157 234.948 166.157C234.948 166.157 231.662 167.499 230.498 165.167C229.034 162.248 230.815 159.191 232.743 156.849" stroke="#30242A" stroke-width="8" stroke-linecap="round" stroke-linejoin="round"/>
<path d="M85.6104 170.566C86.1716 173.21 87.1768 175.741 88.5903 178.043" stroke="black" stroke-width="4" stroke-miterlimit="10" stroke-linecap="round"/>
<path d="M214.685 216.781L215.925 232.198" stroke="#30242A" stroke-width="4" stroke-linecap="round" stroke-linejoin="round"/>
<path d="M169.936 215.868C173.166 221.686 173.125 228.667 172.706 232.806" stroke="#30242A" stroke-width="4" stroke-linecap="round" stroke-linejoin="round"/>
<path d="M140.759 232.198L124.936 232.693" stroke="#30242A" stroke-width="4" stroke-linecap="round" stroke-linejoin="round"/>
<path d="M155.347 166.366C153.138 165.499 150.98 164.499 148.888 163.371" stroke="#30242A" stroke-width="4" stroke-linecap="round" stroke-linejoin="round"/>
<path d="M159.302 181.013L158.44 175.547" stroke="#30242A" stroke-width="4" stroke-linecap="round" stroke-linejoin="round"/>
<path d="M117.66 139.738L118.757 148.862" stroke="black" stroke-width="4" stroke-miterlimit="10" stroke-linecap="round"/>
<path d="M169.936 150.597C168.818 151.322 165.114 151.562 163.338 148.331" stroke="#30242A" stroke-width="4" stroke-linecap="round" stroke-linejoin="round"/>
<path d="M140.264 140.207L135.32 137.737" stroke="#30242A" stroke-width="4" stroke-linecap="round" stroke-linejoin="round"/>
<path d="M163.093 138.018C162.302 139.095 158.572 141.182 155.766 138.799" stroke="#30242A" stroke-width="4" stroke-linecap="round" stroke-linejoin="round"/>
<path d="M175.11 136.461C173.916 136.716 172.671 136.482 171.65 135.818" stroke="#30242A" stroke-width="4" stroke-linecap="round" stroke-linejoin="round"/>
<path d="M168.42 138.298C168.987 139.579 169.533 140.993 169.415 141.534C169.242 142.192 168.849 142.769 168.303 143.177" stroke="#30242A" stroke-width="4" stroke-linecap="round" stroke-linejoin="round"/>
<path d="M137.555 146.183L130.804 152.552C129.625 153.664 129.569 155.527 130.682 156.706C130.998 157.043 131.391 157.298 131.825 157.456L139.805 160.288C141.336 160.829 143.015 160.028 143.555 158.497C143.708 158.058 143.759 157.589 143.698 157.129L142.469 147.944C142.254 146.336 140.774 145.208 139.162 145.423C138.56 145.504 137.999 145.77 137.555 146.183Z" fill="#F4E6D8"/>
<path d="M234.468 147.877C234.468 147.877 237.928 145.897 240.897 146.887C245.49 148.418 244.816 152.695 244.816 152.695C244.816 152.695 251.256 150.373 252.506 157.18C252.506 157.18 258.312 158.482 257.006 164.289C257.006 164.289 261.706 164.539 260.772 170.699C259.838 176.859 255.731 181.977 253.261 181.977C250.791 181.977 248.908 180.411 249.255 175.853C249.255 175.853 246.163 179.732 242.872 178.007C239.581 176.282 240.897 172.567 240.897 172.567C240.897 172.567 237.928 174.547 235.458 172.056C233.218 169.816 234.948 166.121 234.948 166.121C234.948 166.121 231.662 167.464 230.498 165.131C228.023 160.186 234.83 154.869 235.938 153.266L234.468 147.877Z" fill="#A15842"/>
<path d="M232.999 167.923C236.397 164.805 242.183 158.921 244.928 152.746" stroke="#30242A" stroke-width="4" stroke-linecap="round" stroke-linejoin="round"/>
<path d="M239.239 175.042C244.888 170.24 249.495 164.335 252.786 157.691" stroke="#30242A" stroke-width="4" stroke-linecap="round" stroke-linejoin="round"/>
<path d="M247.98 178.706C249.511 176.838 254.863 170.127 257.516 164.815" stroke="#30242A" stroke-width="4" stroke-linecap="round" stroke-linejoin="round"/>
<path d="M247.02 292.289H161.379L180.845 230.78C182.024 227.065 185.478 224.538 189.377 224.544H261.746C266.686 224.544 270.691 228.544 270.696 233.484C270.696 234.403 270.559 235.311 270.278 236.189L254.179 287.053C253.184 290.171 250.291 292.289 247.02 292.289Z" fill="#30242A"/>
<path d="M111.674 285.364C110.787 288.166 112.338 291.151 115.134 292.039C115.654 292.203 116.195 292.289 116.741 292.289H247.02C250.291 292.279 253.179 290.161 254.164 287.043L254.674 285.364H111.674Z" fill="#30242A"/>
<path d="M233.902 253.122C231.912 250.397 222.865 257.592 222.201 258.189C221.854 257.592 217.15 250.397 213.695 253.122C210.7 255.485 217.267 266.033 219.038 268.723C219.324 269.044 219.819 269.07 220.14 268.784C220.16 268.763 220.181 268.743 220.201 268.723C223.421 266.008 235.631 255.459 233.902 253.122Z" fill="#FFBE21"/>
<path d="M225.638 251.196C226.357 248.887 226.327 246.824 225.571 246.589C224.815 246.353 223.619 248.034 222.9 250.343C222.181 252.652 222.211 254.714 222.967 254.95C223.723 255.185 224.919 253.504 225.638 251.196Z" fill="#FFBE21"/>
<path d="M62.6028 236.521C64.8683 237.394 67.4349 236.919 69.2361 235.286C69.5474 238.817 72.66 241.425 76.1859 241.114C77.5891 240.991 78.9106 240.41 79.9516 239.46C80.2679 242.992 83.3907 245.595 86.9217 245.278C88.3147 245.151 89.6312 244.574 90.667 243.63C90.9732 247.156 94.0806 249.769 97.6065 249.458C98.0045 249.422 98.4025 249.351 98.7903 249.243L106.505 228.519C109.475 220.563 110.883 212.107 110.654 203.62L109.873 176.063C109.873 176.063 92.0702 177.543 81.6865 190.403C76.3594 197.001 65.9042 214.434 59.2045 233.388C59.9086 234.816 61.1179 235.934 62.6028 236.521Z" fill="#FFBE21"/>
<path d="M94.744 249.039C92.4632 248.161 90.8814 246.064 90.6619 243.63C88.0392 246.018 83.9827 245.829 81.5947 243.206C80.6507 242.17 80.0741 240.854 79.9465 239.46C77.3289 241.849 73.2723 241.665 70.8843 239.052C69.9353 238.011 69.3536 236.689 69.2311 235.286C66.6084 237.674 62.5518 237.485 60.1638 234.862C59.7607 234.423 59.4239 233.928 59.1586 233.393C53.3519 249.82 50.3618 267.396 55.9848 280.047C68.0881 307.293 104.413 297.704 112.986 295.183C121.558 292.662 138.213 284.083 149.311 285.599C160.409 287.115 173.018 292.662 175.038 285.599C175.038 285.599 181.83 285.425 179.692 278.965C179.692 278.965 183.105 278.541 183.611 276.02C184.631 270.973 172.512 266.436 172.512 266.436C172.512 266.436 182.1 267.967 184.116 265.926C186.667 263.374 184.187 259.256 168.527 255.459C151.327 251.295 128.625 253.816 94.8256 259.868L98.7802 249.238C97.4484 249.611 96.0299 249.544 94.744 249.039Z" fill="#A15842"/>
<path d="M106.638 225.768L95.3462 258.735" stroke="#30242A" stroke-width="4" stroke-linecap="round" stroke-linejoin="round"/>
<path d="M175.559 266.799C170.079 264.716 160.955 261.522 153.873 260.368" stroke="#30242A" stroke-width="4" stroke-linecap="round" stroke-linejoin="round"/>
<path d="M179.835 278.699C172.793 275.53 159.343 269.779 152.107 268.697" stroke="#30242A" stroke-width="4" stroke-linecap="round" stroke-linejoin="round"/>
<path d="M94.9073 258.807C91.1109 259.419 85.1511 260.435 79.1964 261.624" stroke="#30242A" stroke-width="4" stroke-linecap="round" stroke-linejoin="round"/>
<path d="M174.829 286.293C169.548 283.604 158.419 278.255 150.597 276.765" stroke="#30242A" stroke-width="4" stroke-linecap="round" stroke-linejoin="round"/>
<path d="M411.196 221.175C411.196 221.175 407.185 230.198 396.664 230.198C386.142 230.198 382.111 221.175 382.111 221.175C382.111 221.175 352.516 288.845 381.601 324.435H411.671C440.74 288.845 411.196 221.175 411.196 221.175Z" fill="#3EC1F3"/>
<path d="M396.638 230.198C407.16 230.198 411.171 221.175 411.171 221.175H382.086C382.086 221.175 386.112 230.198 396.638 230.198Z" fill="#30242A"/>
<path d="M423.82 281.419C407.461 281.71 388.102 287.62 373.202 308.467" stroke="#F5EBDD" stroke-width="4" stroke-linecap="round" stroke-linejoin="round"/>
<path d="M370.584 264.859C381.565 262.18 402.358 259.628 422.513 264.426" stroke="#F5EBDD" stroke-width="4" stroke-linecap="round" stroke-linejoin="round"/>
<path d="M422.422 298.791C415.105 298.878 401.578 307.17 403.068 323.884" stroke="#F5EBDD" stroke-width="4" stroke-linecap="round" stroke-linejoin="round"/>
<path d="M394.796 227.197C394.49 219.925 392.556 191.025 381.075 174.072" stroke="#30242A" stroke-width="4" stroke-miterlimit="10" stroke-linecap="round"/>
<path d="M392.405 204.971C393.872 202.482 386.092 195.172 375.027 188.643C363.961 182.114 353.801 178.838 352.334 181.326C350.866 183.814 358.646 191.124 369.711 197.654C380.777 204.183 390.937 207.459 392.405 204.971Z" fill="#30242A"/>
<path d="M388.106 132.851C390.261 131.622 389.154 125.621 385.633 119.446C382.113 113.271 377.513 109.261 375.359 110.489C373.204 111.718 374.311 117.719 377.832 123.894C381.352 130.069 385.952 134.079 388.106 132.851Z" fill="#30242A"/>
<path d="M350.21 159.033C351.368 156.456 356.818 156.267 363.441 158.242C359.359 150.939 358.109 144.147 360.808 142.396C363.507 140.646 369.212 144.519 374.218 151.24C375.1 144.387 377.488 139.503 380.341 139.472C383.943 139.472 386.892 147.418 386.928 157.247C386.948 160.059 386.698 162.865 386.183 165.626C380.978 163.243 374.825 165.529 372.437 170.735C371.835 172.056 371.513 173.485 371.498 174.94C368.855 174.292 366.278 173.399 363.803 172.276C354.807 168.249 348.735 162.325 350.21 159.033Z" fill="#4756DF"/>
<path d="M376.197 166.366C379.172 164.432 382.933 164.157 386.158 165.637C385.28 170.204 383.693 173.593 381.785 174.695C379.968 176.017 376.121 176.068 371.472 174.95C371.513 171.48 373.284 168.255 376.197 166.366Z" fill="#30242A"/>
<path d="M398.623 226.758C400.032 218.726 407.364 179.344 419.1 157.063" stroke="#30242A" stroke-width="4" stroke-miterlimit="10" stroke-linecap="round"/>
<path d="M458.709 211.639C459.554 209.032 448.28 203.046 433.53 198.266C418.78 193.487 406.138 191.726 405.294 194.332C404.449 196.938 415.723 202.925 430.473 207.704C445.223 212.483 457.865 214.245 458.709 211.639Z" fill="#30242A"/>
<path d="M416.891 122.54C419.707 122.284 422.544 126.944 424.07 133.685C428.417 126.54 433.734 122.121 436.587 123.616C439.439 125.112 438.857 131.981 435.454 139.641C441.863 137.053 447.307 136.727 448.72 139.186C450.496 142.32 445.011 148.796 436.474 153.644C434.04 155.042 431.479 156.201 428.82 157.104C428.336 151.393 423.32 147.158 417.61 147.642C416.176 147.765 414.778 148.183 413.513 148.872C412.783 146.249 412.298 143.565 412.058 140.855C411.114 131.067 413.303 122.866 416.891 122.54Z" fill="#4756DF"/>
<path d="M423.253 148.781C426.397 150.424 428.483 153.567 428.779 157.104C424.366 158.579 420.615 158.859 418.738 157.737C416.697 156.803 414.763 153.47 413.456 148.872C416.503 147.204 420.177 147.168 423.253 148.781Z" fill="#30242A"/>
<path d="M447.312 169.26V169.301C442.01 171.485 439.49 177.553 441.674 182.855C443.592 187.509 448.577 190.117 453.496 189.035V189.076C440.051 193.286 427.764 192.265 426.05 186.79C424.335 181.314 433.867 173.47 447.312 169.26Z" fill="#4756DF"/>
<path d="M444.113 186.422C446.695 185.386 447.95 182.457 446.914 179.875C445.985 177.563 443.511 176.277 441.087 176.843C441.776 173.445 444.113 170.617 447.322 169.301L453.507 189.035C450.134 189.78 446.613 188.8 444.113 186.422Z" fill="#FFB7D5"/>
<path d="M447.021 180.247C447.807 182.748 446.542 185.437 444.113 186.422C441.526 183.962 440.383 180.344 441.087 176.843C443.648 176.256 446.235 177.736 447.021 180.247Z" fill="#30242A"/>
</g>
<defs>
<clipPath id="clip0_114_250">
<rect width="528" height="469" fill="white" transform="translate(7)"/>
</clipPath>
</defs>
</svg>
