<?xml version="1.0" encoding="UTF-8"?><svg xmlns="http://www.w3.org/2000/svg" xmlns:xlink="http://www.w3.org/1999/xlink" viewBox="0 0 576 500.21"><defs><style>.g,.h,.i,.j,.k,.l,.m,.n,.o,.p{fill:none;}.q{fill:#eaa58b;}.r{fill:#f5ebdd;}.s{fill:#ffbe21;}.t{fill:#ffb7d5;}.u{fill:#ff7235;}.v{fill:#a15842;}.w{fill:#ca7358;}.x{fill:#3ec1f3;}.y{fill:#4756df;}.a`{fill:#30242a;}.h{stroke:#fff;stroke-width:2px;}.i{stroke:#ffb7d5;}.i,.j,.k,.l,.m,.n,.o,.p{stroke-width:4px;}.i,.j,.k,.l,.m,.n,.p{stroke-linecap:round;}.i,.j,.k,.p{stroke-linejoin:round;}.j,.n{stroke:#f5ebdd;}.k{stroke:#a15842;}.l,.m,.n,.o{stroke-miterlimit:10;}.l,.p{stroke:#30242a;}.m{stroke:#3ec1f3;}.o{stroke:#ca7358;}.aa{clip-path:url(#f);}.ab{fill:#fff;opacity:.25;}</style><clipPath id="f"><rect class="g" y="75.31" width="576" height="383"/></clipPath></defs><g id="a"/><g id="b"><g id="c"><g id="d"><g id="e"><path class="ab" d="M353.84,45.79c42.87,17.47,82.28,41.65,112.21,76.95,30.72,36.23,57.72,78.65,59.92,126.09,2.16,46.59-26.56,87-48.1,128.38-21.46,41.23-36.39,90.63-77.36,112.62-40.72,21.85-89.63,2.51-135.85,1.81-48.14-.73-98.92,16.68-141.37-6.03-44.02-23.55-69.23-70.95-88.57-116.96C15.14,322.05-4.48,269.42,12.37,221.77c16.46-46.56,73.51-61.58,108.43-96.51,33.82-33.83,47.94-89.81,93.22-105.25,45.78-15.61,95.03,7.52,139.82,25.78h0Z"/><path class="h" d="M369.62,31.93c42.87,17.47,82.28,41.65,112.21,76.95,30.72,36.23,57.72,78.65,59.92,126.09,2.17,46.59-26.56,87-48.1,128.38-21.46,41.23-36.39,90.63-77.36,112.62-40.72,21.85-89.63,2.51-135.85,1.81-48.14-.73-98.92,16.68-141.38-6.03-44.02-23.54-69.23-70.95-88.57-116.96-19.59-46.6-39.21-99.23-22.36-146.88,16.46-46.55,73.52-61.58,108.43-96.51C170.39,77.57,184.51,21.59,229.79,6.15c45.78-15.61,95.03,7.52,139.82,25.78h.01Z"/><g class="aa"><g><path d="M95.91,457.99c-2.68,0-4.85-2.25-4.85-5.01,0-.59,.1-1.18,.3-1.73l11.9-33.31h18.92l-22.11,37.67c-.88,1.49-2.46,2.39-4.15,2.38h-.01Z"/><path d="M264.29,457.99c2.68,0,4.85-2.25,4.85-5.01,0-.59-.1-1.18-.3-1.73l-11.89-33.31h-18.92l22.11,37.67c.89,1.49,2.46,2.39,4.15,2.38Z"/><path class="w" d="M282.98,318.95H77.21v111.11h205.77v-111.11Z"/><path class="s" d="M269.14,333.26H91.05v82.5h178.09v-82.5Z"/><path class="o" d="M269.37,374.64H91.05"/><path class="a`" d="M180.1,360.09c2.8,0,5.07-2.35,5.07-5.25s-2.27-5.25-5.07-5.25-5.08,2.35-5.08,5.25,2.27,5.25,5.08,5.25Z"/><path class="a`" d="M180.1,400.15c2.8,0,5.07-2.35,5.07-5.25s-2.27-5.24-5.07-5.24-5.08,2.35-5.08,5.24,2.27,5.25,5.08,5.25Z"/><path class="s" d="M141.11,271.87c3.69,0,6.69-3.1,6.69-6.92s-3-6.91-6.69-6.91-6.69,3.1-6.69,6.91,2.99,6.92,6.69,6.92Z"/><path class="s" d="M175.71,271.87c3.7,0,6.69-3.1,6.69-6.92s-2.99-6.91-6.69-6.91-6.69,3.1-6.69,6.91,3,6.92,6.69,6.92Z"/><path class="s" d="M158.41,258.04c-.9,0-1.79,.21-2.59,.61-1.07-3.66-4.81-5.74-8.35-4.64-3.54,1.11-5.55,4.97-4.49,8.64,1.07,3.66,4.81,5.74,8.36,4.64,.54-.17,1.06-.4,1.54-.71,1.25,3.17,4.75,4.69,7.82,3.4s4.54-4.91,3.29-8.08c-.92-2.34-3.13-3.87-5.57-3.86h0Z"/><path class="s" d="M170.38,258.06c-1.4-3.53-5.31-5.22-8.73-3.78-3.42,1.45-5.05,5.49-3.65,9.02,1.03,2.6,3.47,4.29,6.18,4.29,.23,0,.47-.01,.7-.04,1.76,2.9,5.46,3.78,8.27,1.95,2.8-1.82,3.65-5.65,1.89-8.54-1.02-1.68-2.75-2.75-4.66-2.89v-.02h0Z"/><path class="s" d="M156.1,260.9c2.8,0,5.08-2.35,5.08-5.25s-2.27-5.25-5.08-5.25-5.07,2.35-5.07,5.25,2.27,5.25,5.07,5.25Z"/><path class="s" d="M172.95,248.5c1.91,0,3.46-1.6,3.46-3.58s-1.55-3.58-3.46-3.58-3.46,1.6-3.46,3.58,1.55,3.58,3.46,3.58Z"/><path class="u" d="M130.88,264.72l9.23,54.36h6.54l-7.3-54.36h-8.47Z"/><path class="u" d="M177.33,264.72l-7.31,54.36h6.54l9.23-54.36h-8.46Z"/><path class="r" d="M165.79,264.72l-3.45,54.36h7.68l7.31-54.36h-11.54Z"/><path class="r" d="M139.34,264.72l7.3,54.36h7.68l-3.45-54.36h-11.53Z"/><path class="u" d="M150.88,264.72l3.45,54.36h8.02l3.45-54.36h-14.92Z"/><path class="t" d="M240.49,282.05h86.33v175.95h-123.65v-137.38c0-21.3,16.71-38.57,37.32-38.57h0Z"/><path class="t" d="M335.99,186.64h121.91c20.61,0,37.32,17.27,37.32,38.58v232.77h-196.54V225.22c0-21.3,16.71-38.58,37.32-38.58h-.01Z"/><path class="t" d="M292.16,329.03h165.74c20.61,0,37.31,17.27,37.32,38.57v90.39H254.84v-90.39c0-21.3,16.71-38.57,37.32-38.57h0Z"/><path class="o" d="M370.87,371.85h-100.64"/><path class="o" d="M254.84,367.6v90.39"/><path class="o" d="M495.21,281.48h-78.04"/><path class="r" d="M283.91,75.31H78.13V219.33h205.77V75.31h.01Z"/><path class="a`" d="M270.06,89.62H91.98v115.41h178.09V89.62h-.01Z"/><path class="u" d="M221.31,161.26c1.59,.16,3.17,.33,4.75,.51l3.5-8.91,3.32,9.74c1.71,.22,3.41,.45,5.11,.69l-5.82-17.08,5.82-14.86h-4.93l-.05,.07-3.15,8.03-2.77-8.11h-4.86l5.03,14.75-5.94,15.18h-.01Z"/><path class="u" d="M217.63,160.92v-29.57h-4.87v29.17c1.62,.13,3.25,.27,4.87,.41"/><path class="u" d="M181.06,159.26c1.32,0,2.62,0,3.94,.02v-10.87h5.85v-4.63h-5.85v-7.82h6.73v-4.63h-11.63v27.92h.95"/><path class="u" d="M165.95,159.56c1.62-.06,3.23-.11,4.87-.15v-23.44h4.55v-4.63h-13.97v4.63h4.55v23.59Z"/><path class="u" d="M128.72,162.66v-17.62l5.76,16.9c1.77-.21,3.55-.4,5.33-.58v-30.04h-4.67v18.27l-6.22-18.25h-4.87v31.95h.03c1.54-.22,3.09-.43,4.64-.63Z"/><path class="u" d="M156.71,135.98v-4.63h-11.63v29.52c3.86-.34,7.73-.63,11.62-.87v-4.63c-2.25,.13-4.49,.29-6.73,.48v-7.42h5.85v-4.63h-5.85v-7.82h6.74Z"/><path class="u" d="M201.38,155.15v-23.8h-4.89v28.22c3.89,.15,7.77,.35,11.62,.61v-4.63c-2.24-.15-4.48-.28-6.73-.39"/><path class="a`" d="M345.27,258.99s-43.37,10.01-65.51,22.89c-22.77,13.24-24.91,31.82-39.13,76.44-6.24,19.55-9.37,33.59-12.73,43.2l38.7,18.89c1.85-3.54,3.49-7.02,4.84-10.25,0,0,17.74-.82,19.44-25.36,1.26-18.34,1.87-31.91,8.07-45.6l105.79-80.42-59.48,.21h.01Z"/><path class="a`" d="M212.02,418.69c-.19,.03-.39,.07-.59,.1-13.71,2.15-19.43,4.91-21.68,11.33l57.21,27.56c1.35,.65,2.95,.22,3.83-1.02,1.01-1.43,.71-3.43-.68-4.48l-.03-.02-37.68-17.68c.89-5.24,.77-10.61-.37-15.79h0Z"/><path class="q" d="M266.6,420.42l-38.7-18.89c-1.98,5.68-4.04,9.82-6.86,12.65-2.34,2.38-5.22,3.82-9.02,4.51,1.14,5.19,1.26,10.56,.37,15.79l37.7,17.68c-.15-.11-.3-.2-.46-.28l-1.38-.68c2.24-3.34,5.76-8.78,9.53-15.08,2.99-4.93,6.08-10.38,8.83-15.7h0Z"/><path class="j" d="M271.13,410.84l-40.28-19.51"/><path class="a`" d="M426.7,278.26l-1.61-18.38h-31.84s-53.52,13.24-76.27,24.52c-22.64,11.22-19.93,37.27-15.66,82.87,2.18,23.25,4.9,39.21,4.75,50.52h41.98c.23-3.67,.38-7.54,.46-11.61,.11-6.11,16.38-8.02,7.84-34.01-5.72-17.41-10.65-28.93-10.65-44.05h36.93c24.43,0,44.24-20.46,44.24-45.72,0-1.38-.06-2.77-.18-4.14h0Z"/><path class="a`" d="M296.1,439.02c-10.67,7.5-14.43,12.4-13.84,18.96l63.17-.09c1.45-.06,2.57-1.33,2.51-2.82-.05-1.41-1.15-2.54-2.51-2.6h-42.15s-2.31-8.05-7.18-13.45h0Z"/><path class="q" d="M306.07,417.8c-.08,6.44-1.08,11.37-3.65,15.26-1.38,2.06-3.15,3.83-5.19,5.18l-1.13,.78c4.88,5.38,7.18,13.45,7.18,13.45h39.9c1.51-6.39,2.67-12.88,3.47-19.41,.57-4.56,1.07-9.67,1.42-15.26h-42Z"/><path class="k" d="M346.19,272.82c-10.2,3.37-22.23,7.49-29.99,11.45-17.72,9.03-19.98,26.63-18.06,55.94"/><path class="k" d="M345.27,329.26h-11.45"/><path class="n" d="M348.5,406.99h-42.91"/><path class="t" d="M408.89,282.05h86.33v175.95h-123.65v-137.38c0-21.3,16.71-38.57,37.32-38.57h0Z"/><path class="o" d="M370.64,328.15v129.27"/><path class="y" d="M46.07,388.71c-10.61,0-19.27-6.58-19.59-14.78v83.93h39.22v-83.93c-.36,8.21-9,14.78-19.62,14.78h0Z"/><path class="m" d="M27.2,438.86c12.87-1.43,28.2-10.73,25.32-32.75-2.31-17.64-19.15-12.64-9.46,4.05,5.69,9.81,15.05,16.49,21.8,20.33"/><path class="m" d="M27.09,419.02c7.67,5.43,21.27,17.89,26.45,37.98"/><path class="m" d="M27.04,445.87c5.03,1.54,11.49,4.86,16.35,11.19"/><path class="m" d="M41.09,378.29c-3.27,5.88-8.14,10.63-14,13.67"/><path class="a`" d="M46.07,388.71c10.61,0,19.27-6.58,19.6-14.78H26.46c.34,8.21,8.98,14.78,19.61,14.78Z"/><path class="l" d="M35,300.24l10.61,82.5"/><path class="l" d="M31.6,333.49l12.41,48.56"/><path class="a`" d="M70.1,352.87c8.84-3.91,15.15-9.12,14.11-11.64-1.04-2.52-9.05-1.4-17.89,2.5-8.84,3.9-15.16,9.12-14.11,11.64,1.04,2.52,9.05,1.4,17.89-2.5Z"/><path class="a`" d="M39,363.27c.9-2.47-7.09-7.86-17.84-12.05S.97,345.63,.07,348.1c-.9,2.47,7.09,7.86,17.84,12.05s20.19,5.59,21.09,3.12Z"/><path class="a`" d="M53.68,336.98c6.22-4.84,10.3-10.09,9.11-11.72s-7.19,.98-13.42,5.82-10.3,10.09-9.11,11.72,7.2-.98,13.42-5.82Z"/><path class="l" d="M59.45,310.26l-12,76.3"/><path class="t" d="M39.68,318.16c-3.82-6.54-12.04-8.65-18.37-4.7-6.33,3.94-8.36,12.45-4.54,18.98,1.61,2.75,4.08,4.83,7.01,5.9,1.38-9.21,7.46-16.93,15.9-20.19h0Z"/><path class="n" d="M33.56,326.74c-2.44-5.74-6.81-10.38-12.3-13.04"/><path class="n" d="M31.53,328.82c-4.23-4.54-9.92-7.32-16.01-7.8"/><path class="u" d="M23.77,338.35c6.97,2.54,14.61-1.25,17.07-8.45,1.33-3.9,.9-8.2-1.16-11.74-8.44,3.26-14.52,10.98-15.9,20.19h-.01Z"/><path class="t" d="M19.92,291.28c-.16-7.64,5.7-13.96,13.09-14.12,7.39-.17,13.5,5.89,13.67,13.53,.07,3.2-.95,6.33-2.87,8.86-5.93-7.01-15.07-10.17-23.89-8.25h0v-.02Z"/><path class="n" d="M29.53,295.14c-.92-6.2,.38-12.53,3.64-17.82"/><path class="n" d="M32.31,295.77c1.22-6.17,4.6-11.67,9.49-15.44"/><path class="u" d="M43.81,299.53c-4.57,6-12.98,7.04-18.79,2.31-3.14-2.56-5.02-6.43-5.1-10.57,8.82-1.92,17.96,1.24,23.89,8.26Z"/><path class="t" d="M52.04,292.25c4.54-6.02,12.95-7.11,18.78-2.41,5.83,4.69,6.87,13.39,2.33,19.41-1.91,2.53-4.61,4.3-7.64,5-.31-9.31-5.46-17.72-13.46-22h-.01Z"/><path class="n" d="M57.13,301.51c3.08-5.41,7.95-9.47,13.72-11.44"/><path class="n" d="M58.89,303.83c4.72-3.99,10.7-6.05,16.79-5.77"/><path class="u" d="M65.5,314.24c-7.21,1.66-14.36-3.04-15.97-10.49-.87-4.03,.05-8.25,2.5-11.51,8,4.28,13.15,12.69,13.46,22h.01Z"/><path class="w" d="M575.89,456.44c-.04,.11-.09,.23-.16,.33,.07-.1,.12-.22,.16-.33Z"/><path class="w" d="M553.9,445.94l-12.09,11.92h30.91c1.63,0,2.58-.39,3-1.06-2.38,.46-16.18-7.52-21.82-10.86h0Z"/><path class="t" d="M575.89,456.44c1.54-4.49-14.24-18.12-14.24-18.12l-7.75,7.63c5.64,3.34,19.44,11.32,21.82,10.85,.07-.11,.12-.24,.17-.36h0Z"/><path class="w" d="M573.65,413.5c-.46,2.38-21.68,6.2-21.68,6.2l-1.33-9.1-.52,.04,3.44,27.18s21.47-19.55,20.09-24.32Z"/><path class="t" d="M573.65,413.5c-1.2-4.13-19.67-3.11-23.01-2.9l1.33,9.1s21.22-3.82,21.68-6.2Z"/><path class="p" d="M548.13,413.24l.8-17.17"/><path class="p" d="M544.89,411.36l-4.31-21.9"/><path class="v" d="M474.45,457.99l-21.58-29.72,10.05-10.97c-.92-3.34-5.08-18.12-10.61-22.89-5.54-4.77-10.61-4.77-13.38-3.82l-.08,.03c-2.07,.79-3.13,3.17-2.36,5.31,.28,.78,.79,1.46,1.44,1.94l5.16,4.66s-11.53,9.06-11.53,19.08c0,6.98,3.64,10.56,7.26,12.4l-9.56,13.83s-9.69,1.43-28.6-4.29c-5.76-1.74-12-4.77-17.82-7.54,0,6.49-2.89,11.7-7.17,15.53,9.81,4,22.29,6.46,31.98,6.46h66.8Z"/><path class="l" d="M416.32,447.6c1.61,3.2,3.58,6.48,7.05,9.39"/><path class="l" d="M461.53,415.65l-3.69,2.86"/><path class="r" d="M382.81,436c-9.69-4.59-18.22-8.36-21.4-3.9-5.42,7.63,2.48,14.63,14.23,19.43,4.28-3.83,7.19-9.03,7.17-15.53h0Z"/><path class="w" d="M558.88,426.36c0-2.02,2.46-4.67,4.4-5.49-3.61-10.23-18.09-19.13-33.01-11.19,0,0-1.85-9.54-6.92-13.35-4.75-3.57-9.69-3.92-13.38-2.49l-.11,.04c-2.17,.9-3.23,3.44-2.36,5.68,.24,.62,.61,1.17,1.08,1.61l6.46,6.12-3.23,6.57c-3.29-3.08-7.16-5.44-11.36-6.92-.36,17.84-23.03,25.7-34.32,21.81-3.97-5.72-7.25-8.66-8.09-9.36l-.22,.19s-9.69-6.57-18.45,.11c0,0-4.61-10.97-10.15-15.37-4.68-3.72-13.84-3.82-16.15-1.43l-.07,.07c-1.96,2.07-1.93,5.39,.08,7.42,.27,.27,.57,.51,.88,.71l6.49,4.19s-16.61,25.75,5.54,42.69h117.65c17.66,0,21.8-14.65,21.41-26.39-2.09-.56-6.18-2.08-6.18-5.23h.01Z"/><path class="r" d="M466.15,428.76c11.29,3.89,33.95-3.97,34.32-21.81-4.64-1.69-9.59-2.27-14.48-1.66-13.38,1.63-26.16,12.55-27.93,14.12,.84,.7,4.12,3.61,8.09,9.36h0Z"/><path class="a`" d="M558.88,426.36c0,3.16,4.09,4.67,6.18,5.25-.09-3.42-.62-6.81-1.57-10.1-.06-.21-.14-.41-.21-.62-1.94,.8-4.4,3.45-4.4,5.47h0Z"/><path class="p" d="M555.18,427.5l6.56-1"/><path class="p" d="M531.45,409.93c1.88,7.82,4.19,18.75,5.07,25.75"/><path class="p" d="M511.13,398.48l-1.72,2.66"/><path class="p" d="M514.36,401.34l-1.81,2.8"/><path class="p" d="M415.16,407.07l-1.73,2.69"/><path class="p" d="M418.86,409.45l-1.87,2.9"/><path class="p" d="M511.12,413.57c-8.39,15.85-15.32,32.66-2.2,43.78"/><path class="l" d="M470.76,439.97c-1.84-8.58-7.53-19.3-14.76-22.41-5.54-2.38-11.07-1.91-16.15,.95,0,0-2.19-4.86-3.95-7.52"/><path class="p" d="M551.67,421.96s1.38,4.46,3.51,5.55c0,0-1.5,2.23-1.75,6.54"/><path class="w" d="M493.83,405.4s-3.69,6.68-9.69,6.2-5.54-9.54,1.38-14.78c2.92-1.77,6.38-2.35,9.69-1.61,5.9,1.33,9.35,13.6,9.35,13.6,0,0-6.12-2.93-10.73-3.41h0Z"/><path class="i" d="M545.96,367.46l7.59-4.8-3.38,12.21,8.93-5.48"/><path class="i" d="M562.56,347.66l7.99-.66-7.53,8.4,9.01-.65"/><path class="p" d="M483.43,407.03v3.61"/><path class="p" d="M487.65,406.61v3.58"/><path class="p" d="M439.44,395.28l-1.67,1.85"/><path class="p" d="M442.71,397.78l-1.99,2.2"/><path class="y" d="M274.35,214.85l-14.9-10.63-.64-.48c-3.95-1.91-14.65-1.36-14.11-5.81,.12-.95,1.2-1.67,2.91-2.17l-21.66-15.41c-1.67-1.18-3.94-.76-5.11,.95l-2.31,3.43c2.59,2.33,2.87,6.4,.61,9.07-1.9,2.26-5.07,2.86-7.63,1.45l-2.64,3.95c-1.14,1.73-.73,4.08,.92,5.28l48.4,34.5c1.67,1.18,3.95,.76,5.11-.95l4.22-6.32,7.77-11.6c1.14-1.73,.72-4.08-.94-5.27h0Zm-28.05,8.86c-5.48,0-9.92-4.59-9.92-10.25s4.44-10.25,9.92-10.25,9.92,4.59,9.92,10.25-4.44,10.25-9.92,10.25Zm21.92-1.73l-5.77,8.58c-.53,.77-1.56,.96-2.31,.43-.75-.54-.94-1.61-.42-2.38l5.77-8.58c.52-.78,1.56-.97,2.32-.43,.75,.54,.94,1.61,.42,2.39h-.01Z"/><path class="x" d="M246.3,223.7c5.48,0,9.92-4.59,9.92-10.25s-4.44-10.25-9.92-10.25-9.92,4.59-9.92,10.25,4.44,10.25,9.92,10.25Z"/><path class="x" d="M220.7,189.61c0-1.86-.78-3.63-2.14-4.85l-7.02,10.53c.9,.5,1.91,.76,2.93,.76,3.44,0,6.23-2.88,6.23-6.44h0Z"/><path class="a`" d="M267.79,219.58c-.75-.53-1.78-.34-2.31,.43l-5.77,8.58c-.52,.78-.33,1.85,.42,2.38s1.78,.34,2.31-.43l5.77-8.58c.52-.78,.34-1.85-.42-2.39h0Z"/><path class="q" d="M251.61,234.19s-4.15,4.77-8.3,.48c0,0-5.08,1.43-6.92-2.86,0,0-4.15,1.91-6-2.39-.12-.28-2.4,1.03-4.61-1.91-3.23-4.29-5.08-16.21-2.31-16.69,4.75-.82,6.76,8.39,6.85,8.11,1.04-3.63,2.84-6.68,4.69-6.68,3.23,0,3.69,3.34,3.69,3.34,0,0,1.95-2.7,4.61-1.91,3.23,.95,2.31,5.25,2.31,5.25,0,0,2.96-2.03,4.61,.95,1.85,3.34-1.85,7.63-1.38,12.4l2.77,1.91h-.01Z"/><path class="k" d="M245.34,218.19c-1.97,3.56-5.08,10.45-3.12,15.79"/><path class="k" d="M238.31,214.88c-1.25,3.05-3.87,10.45-2.74,16.42"/><path class="k" d="M229.8,217.74c-.61,3.05-1.06,7.12-.27,10.83"/><path class="q" d="M403.86,146.93c5.54-1.91,12-10.01,7.38-16.69-6.11-8.85-16.61,2.86-16.61,2.86-4.45-3.35-7.82-8-9.69-13.35-1.38,.48-5.54,.95-8.77,0,0,0-1.38,3.82-2.31,10.49-.12,.92-.27,1.8-.43,2.65,0,0-4.18-.26-4.64,1.65-.57,2.35,3.09,4.89,3.09,4.89-1.43,5.33-2.62,9.42-.78,14.19,1.62,4.2,5.08,9.06,16.15,7.63l-.63,5.01h33.02c.18-2,.4-4.38,.63-6.95-3.75-1.3-13.12-5.18-16.41-12.36v-.02Z"/><path class="y" d="M407.55,104.01c-13.38-6.2-25.84,3.34-25.84,3.34,0,0-11.38-3.39-12,4.29-.46,5.72,6.46,8.11,6.46,8.11,3.23,.95,7.38,.48,8.77,0,1.87,5.35,5.24,10,9.69,13.35,0,0,10.5-11.71,16.61-2.86,4.61,6.68-1.85,14.78-7.38,16.69,3.29,7.18,12.66,11.06,16.41,12.36,.81-9.09,1.79-20.61,2.04-26.19,.42-9.1-.46-22.46-14.76-29.09Z"/><path class="q" d="M315.74,208.92s-32.3-9.54-44.75-12.4c-7.58-1.74-18.29-2.21-23.39-.74-1.71,.48-2.8,1.21-2.91,2.17-.54,4.45,10.15,3.9,14.11,5.81l15.55,11.09c1.66,1.2,2.07,3.56,.92,5.28l-7.73,11.59c11.9,6.37,24.77,10.6,38.05,12.48,12.24,1.75,27.1-5.29,37.73-11.76l-17.84-30.44c-5.73,4.04-9.74,6.91-9.74,6.91h0Z"/><path class="u" d="M419.64,166.24h-33.02l-.75,5.96s-16.22-.35-27.68,7.15c-8.66,5.67-23.1,15.82-32.71,22.63l17.84,30.46c4.83-2.93,9.49-6.17,13.94-9.7l-12,36.24h79.82l-6-86.79s.23-2.36,.55-5.96h0Z"/><path class="k" d="M384.95,173.39l-.69,5.72"/><path class="k" d="M363.03,202.96l-6.23,19.08"/><path class="k" d="M375.65,143.83c.76,.48,3.62,.87,4.78-1.4"/><path d="M381.25,132.62c.77,0,1.38-.64,1.38-1.43s-.62-1.43-1.38-1.43-1.38,.64-1.38,1.43,.62,1.43,1.38,1.43Z"/><path class="k" d="M405.25,135.96l-5.07,3.34"/><path class="k" d="M392.72,167.18l-.74,6.18"/><path class="k" d="M399.64,167.18l-.74,6.18"/><path class="k" d="M406.56,167.18l-.74,6.18"/><path class="k" d="M387.59,162.07c2.2-.4,5.26-1.23,7.74-2.98"/><path class="q" d="M421.96,233.72l.82,17.64s-38.89,11.26-52.17,21.57c-6,4.65-13.38,13.4-16.11,17.06-2.73,3.67-13.97,20.51-9.23,20.98,4.74,.48,12.06-10.1,12.06-10.1,0,0-4.67,12.96-3.29,17.25s5.67,1.33,5.67,1.33c4.01,4.87,7.58-.51,7.58-.51,7.05,5.37,14.22-21.03,14.22-21.03,3.89-1.96,7.36-4.71,10.21-8.08,0,0,39.5,1.62,55.05-11.77,7.78-6.7,11.63-24.57,11.78-44.35h-36.59Z"/><path class="u" d="M452.31,188.41c-3.42-10.77-14.76-16.21-21.69-16.21h-11.53l2.87,61.52h36.59c.11-15.39-2-31.95-6.24-45.3h0Z"/><path class="k" d="M422.98,233.29l-1.35-29.38"/><path class="k" d="M423.51,250.15l6.88-1.88"/><path class="k" d="M356.24,301.7c1.45-4.01,3.66-9.94,5.41-13.86"/><path class="k" d="M368.11,291.18c-4.95,11.01-7.84,23.37-8.77,27.83"/><path class="k" d="M375.03,295c-3.17,7.53-6.09,17.57-7.67,23.41"/></g></g></g></g></g></g></svg>