<svg width="503" height="433" viewBox="0 0 503 433" fill="none" xmlns="http://www.w3.org/2000/svg">
<path fill-rule="evenodd" clip-rule="evenodd" d="M476.904 263.522C479.047 308.068 450.45 351.976 414.242 378.012C380.585 402.214 335.404 391.316 294.11 394.966C258.324 398.129 222.972 409.642 189.013 397.921C152.762 385.408 125.486 357.802 100.979 328.304C71.2386 292.505 30.4743 256.696 33.0815 210.229C35.7067 163.438 75.189 125.887 113.825 99.3614C147.548 76.2084 191.102 83.8148 230.912 74.4086C273.012 64.4615 314.671 23.6394 353.487 42.7355C392.441 61.8992 382.549 121.535 403.731 159.429C424.945 197.379 474.816 220.096 476.904 263.522Z" fill="white" fill-opacity="0.25"/>
<path fill-rule="evenodd" clip-rule="evenodd" d="M464.242 259.091C466.384 303.636 437.788 347.544 401.58 373.58C367.923 397.782 322.742 386.884 281.448 390.535C245.662 393.698 210.31 405.211 176.351 393.489C140.1 380.977 112.824 353.371 88.3173 323.872C58.5766 288.074 17.8122 252.265 20.4194 205.797C23.0446 159.006 62.5269 121.455 101.162 94.9301C134.886 71.7771 178.439 79.3835 218.25 69.9773C260.35 60.0302 302.009 19.2081 340.825 38.3042C379.779 57.4679 369.887 117.104 391.069 154.998C412.283 192.948 462.154 215.664 464.242 259.091Z" stroke="white" stroke-width="2"/>
<g clip-path="url(#clip0_262_1013)">
<path d="M201.302 160.441H73.5577C67.8196 160.441 63.168 165.04 63.168 170.714V297.021C63.168 302.695 67.8196 307.294 73.5577 307.294H201.302C207.04 307.294 211.692 302.695 211.692 297.021V170.714C211.692 165.04 207.04 160.441 201.302 160.441Z" fill="#F5EBDD"/>
<path d="M183.948 156.049C185.928 156.049 187.533 154.462 187.533 152.504C187.533 150.547 185.928 148.96 183.948 148.96C181.968 148.96 180.363 150.547 180.363 152.504C180.363 154.462 181.968 156.049 183.948 156.049Z" fill="#A15842"/>
<path d="M183.947 140.183V151.324" stroke="#A15842" stroke-width="4" stroke-miterlimit="10"/>
<path d="M199.397 143.899H193.941V190.486H199.397V143.899Z" fill="#A15842"/>
<path d="M212.907 105.487C211.816 107.62 207.239 115.066 196.669 115.066C186.098 115.066 181.525 107.62 180.431 105.487L170.211 143.899H223.13L212.907 105.487Z" fill="#FFBE21"/>
<path d="M208.496 106.233L215.368 143.906" stroke="#F5EBDD" stroke-width="4" stroke-miterlimit="10" stroke-linecap="round"/>
<path d="M184.844 106.723L178.061 143.906" stroke="#F5EBDD" stroke-width="4" stroke-miterlimit="10" stroke-linecap="round"/>
<path d="M192.212 106.481L189.584 143.892" stroke="#F5EBDD" stroke-width="4" stroke-miterlimit="10" stroke-linecap="round"/>
<path d="M201.125 106.481L203.761 143.965" stroke="#F5EBDD" stroke-width="4" stroke-miterlimit="10" stroke-linecap="round"/>
<path d="M196.682 115.063C207.256 115.063 211.829 107.616 212.92 105.483V105.41H180.451L180.43 105.483C181.524 107.62 186.097 115.063 196.682 115.063Z" fill="#FF7235"/>
<path d="M404.453 88.531H276.708C270.97 88.531 266.318 93.1304 266.318 98.8039V225.111C266.318 230.785 270.97 235.384 276.708 235.384H404.453C410.191 235.384 414.842 230.785 414.842 225.111V98.8039C414.842 93.1304 410.191 88.531 404.453 88.531Z" fill="#F5EBDD"/>
<path d="M196.494 373.12C194.453 373.12 192.735 371.618 192.484 369.618L189.494 344.781H203.494L200.504 369.618C200.256 371.621 198.534 373.124 196.494 373.12Z" fill="#30242A"/>
<path d="M353.553 373.12C351.512 373.12 349.794 371.618 349.546 369.618L346.557 344.781H360.553L357.563 369.618C357.315 371.621 355.593 373.124 353.553 373.12Z" fill="#30242A"/>
<path d="M114.355 242.137H177.2V345.111H85.7012V270.465C85.7012 254.82 98.5316 242.137 114.355 242.137Z" fill="#FFB7D5"/>
<path d="M184.688 190.486H401.211C417.035 190.486 429.865 203.172 429.865 218.817V345.1H156.041V218.814C156.041 203.168 168.871 190.482 184.695 190.482H184.688V190.486Z" fill="#FFB7D5"/>
<path d="M156.033 257.31V345.1" stroke="#A15842" stroke-width="4" stroke-miterlimit="10" stroke-linecap="round"/>
<path d="M184.688 283.323H401.211C417.035 283.323 429.865 296.009 429.865 311.655V345.104H156.041V311.655C156.041 296.009 168.864 283.327 184.688 283.323Z" fill="#FFB7D5"/>
<path d="M317.066 283.323H183.654C168.393 283.323 156.023 295.554 156.023 310.643V345.114" stroke="#A15842" stroke-width="4" stroke-miterlimit="10" stroke-linecap="round"/>
<path d="M337.68 283.754V345.1" stroke="#A15842" stroke-width="4" stroke-miterlimit="10"/>
<path d="M429.865 241.461H365.979" stroke="#A15842" stroke-width="4" stroke-miterlimit="10"/>
<path d="M136.916 230.645C145.109 231.658 147.664 228.218 148.864 225.244C150.228 221.871 149.35 218.971 148.287 215.203C148.287 215.203 150.993 213.746 150.572 212.075C150.218 210.727 147.139 210.576 147.139 210.576C147.019 209.973 146.913 209.35 146.817 208.702C146.133 203.974 145.109 201.273 145.109 201.273C142.718 201.949 139.647 201.624 138.623 201.273C137.242 205.063 134.745 208.355 131.454 210.73C131.454 210.73 123.94 202.629 119.162 208.706C115.265 213.662 120.869 219.844 124.624 220.52C122.392 225.174 116.388 227.875 113.264 229.003C113.455 230.467 113.636 231.826 113.795 233.009H137.175L136.916 230.645Z" fill="#EAA58B"/>
<path d="M218.231 260.038C219.464 255.699 220.473 251.303 221.249 246.862L213.056 224.919C213.056 224.919 216.471 215.812 213.41 214.453C210.349 213.094 203.495 221.889 200.764 228.971C199.584 232.032 196.361 239.069 193.084 246.07L218.231 260.038Z" fill="#EAA58B"/>
<path d="M184.373 264.416C184.373 264.416 164.571 247.874 155.999 241.794C147.426 235.713 137.6 236.736 137.6 236.736L137.171 233.02H113.791C114.146 235.657 114.376 237.409 114.376 237.409L96.9688 298.853L148.861 294.801L147.497 275.887C147.497 275.887 175.482 299.004 191.543 296.818C206.027 294.836 214.256 274.157 218.227 260.042L193.076 246.074C188.78 255.271 184.373 264.416 184.373 264.416Z" fill="#3EC1F3"/>
<path d="M124.623 220.53C120.868 219.854 115.261 213.672 119.161 208.716C123.939 202.639 131.453 210.741 131.453 210.741C134.744 208.366 137.241 205.073 138.622 201.284C139.646 201.634 142.717 201.96 145.108 201.284C145.108 201.284 150.231 199.596 149.887 195.547C149.43 190.111 141.01 192.506 141.01 192.506C141.01 192.506 131.8 185.754 121.881 190.142C111.311 194.846 110.284 204.327 110.957 210.741C111.346 214.422 112.413 222.649 113.252 229.013C116.387 227.882 122.391 225.185 124.623 220.53Z" fill="#30242A"/>
<path d="M219.588 251.082C218.026 251.72 216.655 251.906 216.046 251.559C214.515 250.697 214.274 248.893 216.092 246.358C216.092 246.358 211.774 248.021 210.442 245.857C209.11 243.692 211.111 241.699 211.111 241.699C211.111 241.699 208.054 242.533 207.307 239.843C206.559 237.153 209.078 235.745 209.078 235.745C209.078 235.745 207.356 235.111 207.307 233.335C207.239 230.754 211.494 228.659 212.719 228.109" stroke="#A15842" stroke-width="8" stroke-miterlimit="10" stroke-linecap="round"/>
<path d="M148.251 275.814L146.986 261.212" stroke="#4756DF" stroke-width="4" stroke-miterlimit="10" stroke-linecap="round"/>
<path d="M136.594 231.269C134.613 230.827 132.704 230.109 130.926 229.139" stroke="#A15842" stroke-width="4" stroke-miterlimit="10" stroke-linecap="round"/>
<path d="M99.1855 294.293L107.985 271.159" stroke="#4756DF" stroke-width="4" stroke-miterlimit="10" stroke-linecap="round"/>
<path d="M145.503 218.663C144.94 219.013 142.822 219.28 141.961 217.672" stroke="#A15842" stroke-width="4" stroke-miterlimit="10" stroke-linecap="round"/>
<path d="M142.377 211.077C142.943 211.077 143.401 210.624 143.401 210.065C143.401 209.505 142.943 209.052 142.377 209.052C141.812 209.052 141.354 209.505 141.354 210.065C141.354 210.624 141.812 211.077 142.377 211.077Z" fill="#A15842"/>
<path d="M123.6 213.105L127.355 215.129" stroke="#A15842" stroke-width="4" stroke-miterlimit="10" stroke-linecap="round"/>
<path d="M219.389 359.376L245.543 351.723C243.548 344.908 239.733 331.987 237.278 324.46L204.643 337.931C208.915 345.493 213.849 352.669 219.389 359.376Z" fill="#EAA58B"/>
<path d="M219.886 359.954C219.121 362.826 218.646 365.769 218.469 368.735H264.735C263.846 366.623 262.274 364.865 260.258 363.741L246.857 356.238C246.857 356.238 246.347 354.487 245.543 351.72L219.39 359.376C219.709 359.755 219.886 359.954 219.886 359.954Z" fill="#FFBE21"/>
<path d="M218.517 373.12H265.631L265.485 371.677C265.383 370.665 265.128 369.674 264.731 368.735H218.464C218.361 370.196 218.379 371.663 218.517 373.12Z" fill="#FF7235"/>
<path d="M195.301 316.408C197.561 324.113 201.022 331.507 204.642 337.931L237.278 324.46C236.923 323.329 236.569 322.32 236.272 321.469C226.059 292.289 219.885 268.823 204.862 266.444C181.216 262.725 140.993 302.99 134.953 309.175L143.653 314.39L171.007 327.094L180.972 329.367L195.301 316.408Z" fill="#A15842"/>
<path d="M194.556 316.106C193.781 312.373 193.401 308.569 193.423 304.758" stroke="#30242A" stroke-width="4" stroke-miterlimit="10" stroke-linecap="round"/>
<path d="M321.288 236.396C321.288 236.396 288.568 244.932 274.175 252.939C257.784 262.045 256.761 274.206 246.52 304.926C243.222 314.814 240.891 322.758 238.727 328.999L266.938 342.169L266.991 342.064C266.991 342.064 280.806 340.057 282.014 323.15C282.925 310.541 283.36 301.186 287.817 291.754L363.956 236.389L321.288 236.396Z" fill="#30242A"/>
<path d="M223.516 347.545C213.651 349.023 209.534 350.921 207.93 355.345L226.566 363.923C226.566 363.923 236.559 361.121 241.94 362.49V362.508C245.546 363.345 249.064 364.508 252.45 365.986C258.001 358.494 262.865 350.522 266.974 342.169L238.762 328.999C234.717 340.68 231.345 346.372 223.516 347.545Z" fill="#4856DF"/>
<path d="M237.451 368.938L246.541 373.12C248.641 370.854 250.607 368.472 252.428 365.986C249.042 364.508 245.524 363.345 241.918 362.508L237.451 368.938Z" fill="#30242A"/>
<path d="M232.785 340.267L239.112 343.002" stroke="#F5EBDD" stroke-width="4" stroke-miterlimit="10" stroke-linecap="round"/>
<path d="M229.191 344.606L235.518 347.345" stroke="#F5EBDD" stroke-width="4" stroke-miterlimit="10" stroke-linecap="round"/>
<path d="M354.405 161.282C356.385 161.282 357.99 159.695 357.99 157.737C357.99 155.78 356.385 154.193 354.405 154.193C352.425 154.193 350.82 155.78 350.82 157.737C350.82 159.695 352.425 161.282 354.405 161.282Z" fill="#FFBE21"/>
<path d="M367.041 135.458C374.96 135.458 381.38 129.11 381.38 121.279C381.38 113.449 374.96 107.101 367.041 107.101C359.121 107.101 352.701 113.449 352.701 121.279C352.701 129.11 359.121 135.458 367.041 135.458Z" fill="#30242A"/>
<path d="M357.152 130.733C358.03 131.132 350.666 113.851 346.911 116.551C343.361 119.094 352.699 128.722 357.152 130.733Z" fill="#3EC1F3"/>
<path d="M357.544 131.787C358.348 132.736 377.13 126.239 374.547 122.488C372.029 118.884 356.743 130.824 357.544 131.787Z" fill="#3EC1F3"/>
<path d="M392.648 199.599L394.292 199.347V198.871C393.761 199.147 393.212 199.392 392.648 199.599Z" fill="#30242A"/>
<path d="M347.92 195.886C363.903 196.174 371.969 180.083 374.017 175.281C373.308 175.152 372.6 175.039 371.82 174.955C362.61 173.943 360.896 173.607 357.821 169.555C354.746 165.502 354.406 157.401 354.406 157.401C354.406 157.401 362.369 155.65 361.236 149.3C360.212 143.559 353.382 143.559 349.627 147.611C349.627 147.611 343.822 146.259 338.359 140.183C338.359 140.183 334.363 141.111 331.629 140.659C330.92 145.079 330.963 150.025 330.155 154.024C328.788 160.777 329.801 165.166 333.91 167.53C338.019 169.894 342.787 168.203 342.787 168.203L341.763 174.279C341.763 174.279 335.802 174.962 330.832 176.507C331.82 184.135 335.373 195.662 347.92 195.886Z" fill="#A15842"/>
<path d="M370.112 236.396L371.972 235.15L368.748 236.396H370.112Z" fill="#A15842"/>
<path d="M296.364 197.238C296.364 197.238 278.465 173.071 274.171 168.203C269.389 162.802 262.903 157.065 260.856 159.096C258.808 161.128 264.61 167.873 264.61 167.873L263.587 189.817C263.587 189.817 275.347 221.175 288.171 225.265C294.582 227.311 306.761 221.917 315.365 217.35L302.057 193.533C298.674 195.725 296.364 197.238 296.364 197.238Z" fill="#A15842"/>
<path d="M392.649 199.599C392.649 199.599 391.282 192.174 389.574 188.121C387.02 182.055 382.805 176.913 374.016 175.281C371.969 180.083 363.903 196.174 347.92 195.886C335.373 195.662 331.82 184.135 330.842 176.507C329.793 176.822 328.77 177.208 327.774 177.656C324.172 179.32 310.091 188.335 302.057 193.533L315.351 217.336C320.944 214.369 325.029 211.732 325.029 211.732L321.274 236.375H368.742L371.965 235.128L394.282 220.159C394.254 213.276 393.708 206.404 392.649 199.599Z" fill="#FF7235"/>
<path d="M402.55 182.384C400.102 170.893 387.526 171.243 387.526 171.243C388.766 165.656 387.101 159.832 383.088 155.713C376.258 148.624 366.697 151.66 366.697 151.66C367.052 147.611 367.721 137.146 358.844 130.733C349.967 124.32 338.702 127.693 334.604 132.757C332.935 134.82 332.124 137.615 331.639 140.659C334.363 141.111 338.369 140.183 338.369 140.183C343.831 146.259 349.637 147.611 349.637 147.611C353.392 143.559 360.222 143.559 361.246 149.3C362.379 155.65 354.416 157.401 354.416 157.401C354.416 157.401 354.77 165.502 357.831 169.555C360.891 173.607 362.613 173.943 371.83 174.955C372.595 175.039 373.325 175.152 374.027 175.281C382.815 176.91 387.031 182.055 389.585 188.121C391.292 192.174 392.659 199.599 392.659 199.599C393.215 199.389 393.761 199.147 394.285 198.871C397.594 197.168 404.661 192.296 402.55 182.384Z" fill="#30242A"/>
<path d="M353.727 151.66L356.458 149.976" stroke="#30242A" stroke-width="4" stroke-miterlimit="10" stroke-linecap="round"/>
<path d="M336.252 159.586C336.819 159.937 338.934 160.203 339.794 158.595" stroke="#30242A" stroke-width="4" stroke-miterlimit="10" stroke-linecap="round"/>
<path d="M341.821 151.989C342.386 151.989 342.844 151.536 342.844 150.977C342.844 150.418 342.386 149.965 341.821 149.965C341.255 149.965 340.797 150.418 340.797 150.977C340.797 151.536 341.255 151.989 341.821 151.989Z" fill="#30242A"/>
<path d="M333.92 150.648C334.486 150.648 334.944 150.195 334.944 149.636C334.944 149.077 334.486 148.624 333.92 148.624C333.355 148.624 332.896 149.077 332.896 149.636C332.896 150.195 333.355 150.648 333.92 150.648Z" fill="#30242A"/>
<path d="M336.651 152.336C336.651 152.336 335.72 154.644 335.943 155.107C336.106 155.404 336.35 155.646 336.651 155.807" stroke="#30242A" stroke-width="4" stroke-miterlimit="10" stroke-linecap="round"/>
<path d="M266.821 194.373C267.377 194.37 267.916 194.191 268.362 193.862C269.57 192.668 269.326 190.92 266.966 189.014C266.966 189.014 271.437 189.473 272.117 187.109C272.797 184.745 270.413 183.396 270.413 183.396C270.413 183.396 273.484 183.396 273.484 180.696C273.484 177.996 270.753 177.32 270.753 177.32C270.753 177.32 272.198 176.286 271.777 174.619C271.093 171.919 265.291 171.243 265.291 171.243L264.49 170.276" stroke="#30242A" stroke-width="8" stroke-linecap="round" stroke-linejoin="round"/>
<path d="M342.982 168.861C344.424 168.294 345.827 167.646 347.191 166.917" stroke="#30242A" stroke-width="4" stroke-miterlimit="10" stroke-linecap="round"/>
<path d="M297.215 197.161L300.803 201.963" stroke="#30242A" stroke-width="4" stroke-miterlimit="10" stroke-linecap="round"/>
<path d="M326.198 200.608L324.455 211.424" stroke="#A15842" stroke-width="4" stroke-miterlimit="10" stroke-linecap="round"/>
<path d="M368.404 222.555L368.234 205.172" stroke="#A15842" stroke-width="4" stroke-miterlimit="10" stroke-linecap="round"/>
<path d="M388.043 171.716C387.551 173.54 386.889 175.313 386.07 177.018" stroke="black" stroke-width="4" stroke-linecap="round" stroke-linejoin="round"/>
<path d="M367.325 152.049L366.357 157.065" stroke="black" stroke-width="4" stroke-linecap="round" stroke-linejoin="round"/>
<path d="M346.556 236.736C346.556 236.736 317.19 245.843 300.803 253.615C284.508 261.32 286.464 279.271 289.535 310.667C290.623 321.767 291.894 330.456 292.539 337.339H323.712C325.313 336.456 334.764 330.456 329.128 314.044C325.012 302.061 321.459 294.125 321.459 283.715H347.531C362.95 283.715 375.575 271.586 376.015 256.347L376.585 236.733H346.556V236.736Z" fill="#30242A"/>
<path d="M286.595 359.538C278.292 365.008 275.377 368.448 275.809 373.131L296.355 373.103C296.355 373.103 304.208 366.381 309.67 365.369C313.291 364.69 316.968 364.35 320.652 364.357C321.902 358.301 323.248 349.212 323.485 337.465L323.712 337.349H292.539C293.627 348.9 292.936 355.352 286.595 359.538Z" fill="#4856DF"/>
<path d="M308.383 373.071H318.411C318.411 373.071 319.502 370.056 320.678 364.361C316.994 364.354 313.317 364.693 309.697 365.373L308.383 373.071Z" fill="#30242A"/>
<path d="M321.144 284.335H313.096" stroke="black" stroke-width="4" stroke-linecap="round" stroke-linejoin="round"/>
<path d="M291.912 350.673H299.61" stroke="#F5EBDD" stroke-width="4" stroke-miterlimit="10" stroke-linecap="round"/>
<path d="M290.201 356.074H297.899" stroke="#F5EBDD" stroke-width="4" stroke-miterlimit="10" stroke-linecap="round"/>
<path d="M186.254 297.161C194.645 297.161 201.447 290.436 201.447 282.139C201.447 273.843 194.645 267.117 186.254 267.117C177.863 267.117 171.061 273.843 171.061 282.139C171.061 290.436 177.863 297.161 186.254 297.161Z" fill="white"/>
<path d="M186.253 273.362C188.612 273.362 190.521 275.25 190.521 277.582V282.644C190.521 284.976 188.612 286.864 186.253 286.864C183.894 286.864 181.984 284.976 181.984 282.644V277.582C181.984 275.25 183.894 273.362 186.253 273.362Z" fill="#4856DF"/>
<path d="M186.254 285.516V290.244" stroke="#4856DF" stroke-width="4" stroke-miterlimit="10" stroke-linecap="round"/>
<path d="M183.807 290.244H188.699" stroke="#4856DF" stroke-width="4" stroke-miterlimit="10" stroke-linecap="round"/>
<path d="M79.0406 181.705C82.1512 181.705 84.6729 179.211 84.6729 176.136C84.6729 173.06 82.1512 170.567 79.0406 170.567C75.9299 170.567 73.4082 173.06 73.4082 176.136C73.4082 179.211 75.9299 181.705 79.0406 181.705Z" fill="white"/>
<path d="M96.1148 181.705C99.2254 181.705 101.747 179.211 101.747 176.136C101.747 173.06 99.2254 170.567 96.1148 170.567C93.0041 170.567 90.4824 173.06 90.4824 176.136C90.4824 179.211 93.0041 181.705 96.1148 181.705Z" fill="white"/>
<path d="M113.185 181.705C116.296 181.705 118.817 179.211 118.817 176.136C118.817 173.06 116.296 170.567 113.185 170.567C110.074 170.567 107.553 173.06 107.553 176.136C107.553 179.211 110.074 181.705 113.185 181.705Z" fill="white"/>
<path d="M201.287 160.441C207.022 160.441 211.673 165.04 211.673 170.71V297.021C211.673 302.692 207.022 307.291 201.287 307.291H73.5531C67.8181 307.291 63.1669 302.692 63.1669 297.021V170.71C63.1669 165.04 67.8181 160.441 73.5531 160.441H201.287ZM201.287 159.04H73.5531C67.0387 159.047 61.7571 164.269 61.75 170.71V297.021C61.7571 303.462 67.0387 308.685 73.5531 308.692H201.287C207.801 308.685 213.083 303.462 213.09 297.021V170.71C213.083 164.269 207.801 159.047 201.287 159.04Z" fill="#F5EBDD"/>
<path d="M367.013 242.137H429.865V345.111H338.377V270.465C338.377 254.827 351.197 242.148 367.013 242.137Z" fill="#FFB7D5"/>
<path d="M414.159 345.156C416.391 338.817 423.398 335.468 429.809 337.675C433.355 338.894 436.139 341.65 437.376 345.156C439.016 340.505 443.334 337.293 448.307 337.02C447.22 335.104 445.927 333.311 444.45 331.672L439.986 326.73C437.138 323.57 436.596 318.989 438.626 315.266L442.417 308.303C441.354 309.354 435.204 315.056 425.87 315.056C416.536 315.056 410.39 309.364 409.327 308.303L413.121 315.266C415.147 318.993 414.602 323.574 411.754 326.73L407.291 331.672C405.81 333.314 404.513 335.111 403.426 337.03C408.325 337.377 412.544 340.572 414.159 345.156Z" fill="#4756DF"/>
<path d="M448.983 352.182C443.751 352.182 439.096 355.457 437.374 360.343C435.146 354.004 428.146 350.652 421.735 352.851C418.182 354.07 415.39 356.83 414.158 360.343C412.054 354.368 405.67 350.988 399.475 352.568C399.648 360.273 402.794 367.625 408.267 373.113H443.435C448.898 367.635 452.04 360.305 452.224 352.613C451.168 352.329 450.077 352.182 448.983 352.182Z" fill="#4756DF"/>
<path d="M425.851 315.056C435.186 315.056 441.332 309.364 442.398 308.303H409.309C410.371 309.364 416.521 315.056 425.851 315.056Z" fill="#30242A"/>
<path d="M414.159 360.35C416.387 354.011 423.387 350.659 429.798 352.858C433.351 354.077 436.143 356.837 437.376 360.35C439.497 354.312 445.991 350.932 452.225 352.62C452.367 347.167 451.014 341.776 448.307 337.02C443.334 337.293 439.016 340.505 437.376 345.156C435.144 338.817 428.137 335.468 421.725 337.675C418.18 338.894 415.395 341.65 414.159 345.156C412.54 340.561 408.3 337.363 403.39 337.03C400.705 341.773 399.359 347.142 399.494 352.575C405.689 350.995 412.072 354.375 414.177 360.35H414.159Z" fill="#3EC1F3"/>
<path d="M428.303 314.1C428.976 310.016 432.047 293.813 439.766 285.029" stroke="#30242A" stroke-width="4" stroke-miterlimit="10" stroke-linecap="round"/>
<path d="M424.736 314.215C424.687 309.578 424.205 286.79 419.621 273.194" stroke="#30242A" stroke-width="4" stroke-miterlimit="10" stroke-linecap="round"/>
<path d="M445.043 298.251C451.812 295.306 456.756 291.699 456.086 290.194C455.417 288.689 449.386 289.856 442.617 292.801C435.849 295.746 430.904 299.353 431.574 300.858C432.244 302.363 438.274 301.196 445.043 298.251Z" fill="#30242A"/>
<path d="M445.037 256.851C447.47 253.599 448.511 250.282 447.363 249.442C446.215 248.602 443.312 250.558 440.879 253.81C438.447 257.061 437.405 260.378 438.554 261.218C439.702 262.058 442.605 260.102 445.037 256.851Z" fill="#30242A"/>
<path d="M408.403 300.605C417.226 299.285 424.187 296.966 423.951 295.424C423.715 293.883 416.372 293.703 407.549 295.022C398.727 296.341 391.765 298.661 392.001 300.202C392.237 301.744 399.58 301.924 408.403 300.605Z" fill="#30242A"/>
<path d="M402.238 277.828V277.852C405.114 279.446 406.141 283.046 404.529 285.89C403.116 288.384 400.098 289.519 397.363 288.584V288.608C404.76 291.894 411.852 292.142 413.205 289.165C414.558 286.188 409.634 281.113 402.238 277.828Z" fill="#FF7235"/>
<path d="M424.102 254.014C422.526 253.611 420.478 255.965 418.983 259.618C417.184 255.194 414.573 252.235 412.816 252.809C411.059 253.384 410.74 257.296 411.959 261.916C408.565 259.87 405.501 259.184 404.481 260.434C403.177 262.031 405.689 266.171 410.092 269.684C411.346 270.693 412.692 271.583 414.12 272.336C414.924 269.176 418.169 267.257 421.364 268.056C422.172 268.259 422.93 268.623 423.589 269.131C424.247 267.726 424.775 266.266 425.165 264.767C426.582 259.338 426.111 254.529 424.102 254.014Z" fill="#FF7235"/>
<path d="M458.428 278.591C457.943 277.057 454.84 276.584 450.922 277.253C453.756 273.4 454.932 269.649 453.508 268.476C452.084 267.303 448.548 269.11 445.24 272.57C445.201 268.641 444.177 265.709 442.558 265.513C440.5 265.264 438.272 269.562 437.599 275.113C437.394 276.7 437.347 278.3 437.454 279.894C440.592 278.899 443.954 280.609 444.96 283.712C445.215 284.496 445.3 285.326 445.211 286.146C446.767 285.957 448.3 285.628 449.792 285.162C455.173 283.491 459.048 280.549 458.428 278.591Z" fill="#FF7235"/>
<path d="M443.079 280.98C441.509 279.687 439.38 279.278 437.436 279.894C437.627 282.535 438.303 284.556 439.32 285.309C440.266 286.178 442.462 286.465 445.193 286.146C445.409 284.181 444.616 282.244 443.079 280.98Z" fill="#30242A"/>
<path d="M418.037 268.161C416.096 268.795 414.619 270.364 414.123 272.325C416.489 273.562 418.583 274.076 419.766 273.607C421.013 273.257 422.419 271.583 423.592 269.12C422.019 267.901 419.936 267.541 418.037 268.161Z" fill="#30242A"/>
<path d="M402.897 287.736C401.502 286.962 401.002 285.211 401.789 283.831C402.479 282.615 403.949 282.066 405.278 282.528C405.118 280.56 403.971 278.805 402.228 277.845L397.354 288.577C399.227 289.228 401.307 288.913 402.897 287.736Z" fill="#F5EBDD"/>
<path d="M401.655 284.059C401.038 285.421 401.577 287.022 402.898 287.743C404.549 286.528 405.449 284.559 405.279 282.535C403.855 282.031 402.275 282.693 401.655 284.059Z" fill="#4856DF"/>
<path d="M282.195 109.798C285.306 109.798 287.827 107.305 287.827 104.229C287.827 101.154 285.306 98.6603 282.195 98.6603C279.084 98.6603 276.562 101.154 276.562 104.229C276.562 107.305 279.084 109.798 282.195 109.798Z" fill="white"/>
<path d="M299.265 109.798C302.376 109.798 304.898 107.305 304.898 104.229C304.898 101.154 302.376 98.6603 299.265 98.6603C296.155 98.6603 293.633 101.154 293.633 104.229C293.633 107.305 296.155 109.798 299.265 109.798Z" fill="white"/>
<path d="M316.335 109.798C319.446 109.798 321.968 107.305 321.968 104.229C321.968 101.154 319.446 98.6603 316.335 98.6603C313.225 98.6603 310.703 101.154 310.703 104.229C310.703 107.305 313.225 109.798 316.335 109.798Z" fill="white"/>
<path d="M404.452 88.531C410.19 88.531 414.841 93.1298 414.841 98.8039V225.115C414.841 230.785 410.187 235.384 404.452 235.384H276.707C270.972 235.384 266.321 230.785 266.317 225.115V98.8039C266.317 93.1298 270.968 88.531 276.707 88.531H404.452ZM404.452 87.13H276.707C270.189 87.137 264.907 92.3593 264.9 98.8039V225.115C264.907 231.559 270.189 236.778 276.707 236.785H404.452C410.97 236.778 416.251 231.559 416.258 225.115V98.8039C416.251 92.3593 410.97 87.137 404.452 87.13Z" fill="#F5EBDD"/>
<path d="M264.951 167.866C264.951 167.866 257.441 167.866 256.418 170.903C255.394 173.94 257.781 176.307 257.781 176.307C257.781 176.307 253.686 178.332 256.418 182.045C256.418 182.045 254.367 185.421 257.781 187.445C257.781 187.445 255.734 189.81 259.149 192.174C262.564 194.538 267.342 194.874 268.359 193.862C269.567 192.668 269.322 190.92 266.963 189.015C266.963 189.015 271.434 189.473 272.114 187.109C272.794 184.745 270.41 183.396 270.41 183.396C270.41 183.396 273.481 183.396 273.481 180.696C273.481 177.996 270.75 177.32 270.75 177.32C270.75 177.32 272.195 176.286 271.774 174.619C271.271 172.633 268.005 171.744 266.308 171.411C265.858 171.33 265.401 171.274 264.944 171.243L264.951 167.866Z" fill="#A15842"/>
<path d="M258.174 187.729C261.567 188.741 265.06 189.393 268.592 189.666" stroke="#30242A" stroke-width="4" stroke-miterlimit="10" stroke-linecap="round"/>
<path d="M256.902 182.311C261.844 183.519 266.934 184.037 272.021 183.848" stroke="#30242A" stroke-width="4" stroke-miterlimit="10" stroke-linecap="round"/>
<path d="M257.982 176.707C262.665 177.82 267.511 178.125 272.301 177.61" stroke="#30242A" stroke-width="4" stroke-miterlimit="10" stroke-linecap="round"/>
<path d="M367.722 232.022C367.722 232.022 340.067 239.114 330.506 246.203C326.188 249.405 320.941 255.31 319.241 258.017C317.541 260.725 310.364 270.847 313.779 271.183C317.194 271.52 320.949 265.446 320.949 265.446C320.949 265.446 318.894 272.872 319.248 275.236C319.602 277.6 323.003 276.924 323.003 276.924C325.734 279.624 328.125 276.248 328.125 276.248C332.904 279.285 338.044 263.082 338.044 263.082C340.85 261.716 343.435 259.954 345.727 257.849C345.727 257.849 376.284 257.681 385.845 249.24C392.632 243.251 394.307 231.437 394.304 220.194H367.736L367.722 232.022Z" fill="#A15842"/>
<path d="M367.977 231.202L374.211 229.661" stroke="#30242A" stroke-width="4" stroke-miterlimit="10" stroke-linecap="round"/>
<path d="M319.602 268.122C321.373 262.168 322.79 258.665 323.852 256.497" stroke="#30242A" stroke-width="4" stroke-miterlimit="10" stroke-linecap="round"/>
<path d="M328.629 258.525C325.554 265.075 323.67 272.977 322.791 276.878" stroke="#30242A" stroke-width="4" stroke-miterlimit="10" stroke-linecap="round"/>
<path d="M333.418 260.886C331.41 265.439 329.585 272.29 328.459 276.528" stroke="#30242A" stroke-width="4" stroke-miterlimit="10" stroke-linecap="round"/>
<path d="M325.44 243.839C317.119 246.767 307.831 250.284 300.803 253.615C288.206 259.569 286.517 271.656 287.817 291.33" stroke="black" stroke-width="4" stroke-linecap="round" stroke-linejoin="round"/>
<path d="M125.329 340.726C111.361 343.528 101.407 347.128 101.407 347.128L87.9674 341.24L87.9957 340.95L56.6777 369.071L57.3614 369.881C59.0936 371.933 61.6547 373.12 64.3576 373.12H127.217L125.329 340.726Z" fill="#EAA58B"/>
<path d="M101.393 347.128C101.393 347.128 111.347 343.51 125.315 340.726L127.203 373.12H172.067C184.196 373.12 194.827 364.714 197.087 352.932C198.592 345.069 196.24 336.649 187.788 330.922C174.192 321.71 145.11 309.655 137.6 307.291L96.2852 316.747C88.4318 325.188 90.1392 339.027 90.1392 339.027L101.393 347.128Z" fill="#A15842"/>
<path d="M125.432 341.163C134.72 339.388 145.095 337.85 159.619 338.519" stroke="#30242A" stroke-width="4" stroke-miterlimit="10" stroke-linecap="round"/>
<path d="M138.309 306.94C144.88 309.01 167.969 318.499 182.744 327.01" stroke="#30242A" stroke-width="4" stroke-miterlimit="10" stroke-linecap="round"/>
<path d="M94.6628 341.195L60.1992 372.119C61.4886 372.777 62.9162 373.12 64.3686 373.12H89.4555L101.393 347.128C99.5229 344.771 97.2452 342.761 94.6628 341.195Z" fill="#FFBE21"/>
<path d="M90.1388 339.023L56.6777 369.071L57.3614 369.88C58.1443 370.809 59.1078 371.569 60.1953 372.119L94.6624 341.195C93.242 340.309 91.7223 339.58 90.1388 339.023Z" fill="#FF7235"/>
<path d="M82.4551 367.215V373.197" stroke="#30242A" stroke-width="4" stroke-miterlimit="10" stroke-linecap="round"/>
<path d="M76.9922 367.215V373.197" stroke="#30242A" stroke-width="4" stroke-miterlimit="10" stroke-linecap="round"/>
<path d="M114.518 236.841C115.58 236.743 117.798 236.565 120.015 236.565" stroke="#4756DF" stroke-width="4" stroke-miterlimit="10" stroke-linecap="round"/>
<path d="M213.055 224.919C213.055 224.919 219.715 222.737 221.557 225.483C223.399 228.229 221.692 231.227 221.692 231.227C221.692 231.227 226.328 232.134 224.639 236.568C224.639 236.568 227.611 239.37 224.777 242.312C224.777 242.312 227.469 244.109 224.724 247.384C221.978 250.659 217.32 252.287 216.02 251.559C214.49 250.697 214.249 248.893 216.066 246.358C216.066 246.358 211.748 248.021 210.416 245.857C209.084 243.692 211.086 241.699 211.086 241.699C211.086 241.699 208.029 242.533 207.281 239.843C206.534 237.153 209.052 235.745 209.052 235.745C209.052 235.745 207.331 235.111 207.281 233.335C207.214 230.754 211.794 228.505 213.02 227.959L213.055 224.919Z" fill="#EAA58B"/>
<path d="M208.018 236.218C210.646 235.762 217.323 234.354 221.744 231.314" stroke="#A15842" stroke-width="4" stroke-miterlimit="10" stroke-linecap="round"/>
<path d="M209.08 242.526C214.631 241.839 219.955 239.934 224.666 236.95" stroke="#A15842" stroke-width="4" stroke-miterlimit="10" stroke-linecap="round"/>
<path d="M214.039 247.664C214.985 247.335 221.156 245.146 224.9 242.799" stroke="#A15842" stroke-width="4" stroke-miterlimit="10" stroke-linecap="round"/>
<path d="M119.519 290.888C113.337 291.634 106.441 292.738 98.6757 294.111L109.6 265.078L114.379 237.409C114.379 237.409 98.6757 239.097 91.5059 247.216C84.8924 254.687 64.1908 289.414 72.3772 307.644C80.5636 325.875 105.162 319.444 110.957 317.756C114.12 316.835 118.913 314.712 123.834 313.133L119.519 290.888Z" fill="#3EC1F3"/>
<path d="M135.548 311.343C143.061 312.355 151.595 316.068 152.962 311.343C152.962 311.343 157.567 311.227 156.115 306.898C156.115 306.898 158.425 306.615 158.765 304.926C159.448 301.554 151.255 298.513 151.255 298.513C151.255 298.513 157.741 299.526 159.108 298.163C160.847 296.44 159.154 293.697 148.559 291.158C140.865 289.316 131.556 289.428 119.512 290.885L123.837 313.115C127.96 311.819 132.133 310.881 135.548 311.343Z" fill="#EAA58B"/>
<path d="M154.174 298.944C150.536 297.564 143.628 295.27 138.623 294.465" stroke="#A15842" stroke-width="4" stroke-miterlimit="10" stroke-linecap="round"/>
<path d="M156.257 306.758C151.51 304.657 142.343 300.762 137.426 300.033" stroke="#A15842" stroke-width="4" stroke-miterlimit="10" stroke-linecap="round"/>
<path d="M152.577 311.693C148.917 309.858 141.595 306.412 136.402 305.434" stroke="#A15842" stroke-width="4" stroke-miterlimit="10" stroke-linecap="round"/>
<path d="M119.579 291.393C116.242 291.82 105.569 293.277 89.625 296.321" stroke="#4756DF" stroke-width="4" stroke-miterlimit="10" stroke-linecap="round"/>
<path d="M389.404 225.255C397.795 225.255 404.597 218.529 404.597 210.233C404.597 201.936 397.795 195.21 389.404 195.21C381.013 195.21 374.211 201.936 374.211 210.233C374.211 218.529 381.013 225.255 389.404 225.255Z" fill="white"/>
<path d="M389.405 201.455C391.764 201.455 393.674 203.343 393.674 205.676V210.737C393.674 213.07 391.761 214.958 389.405 214.958C387.046 214.958 385.137 213.07 385.137 210.737V205.676C385.137 203.343 387.05 201.455 389.405 201.455Z" fill="#4856DF"/>
<path d="M389.404 213.609V218.337" stroke="#4856DF" stroke-width="4" stroke-miterlimit="10" stroke-linecap="round"/>
<path d="M386.957 218.337H391.853" stroke="#4856DF" stroke-width="4" stroke-miterlimit="10" stroke-linecap="round"/>
</g>
<defs>
<clipPath id="clip0_262_1013">
<rect width="401.813" height="286.768" fill="white" transform="translate(56.6777 87.13)"/>
</clipPath>
</defs>
</svg>
