<?xml version="1.0" encoding="UTF-8"?><svg xmlns="http://www.w3.org/2000/svg" xmlns:xlink="http://www.w3.org/1999/xlink" viewBox="0 0 477.85 357.47"><defs><style>.e,.f,.g,.h,.i,.j,.k,.l,.m,.n,.o{fill:none;}.p{fill:#f5ebdd;}.q{fill:#ffbe21;}.r{fill:#ffb7d5;}.s{fill:#ff7235;}.t{fill:#a15842;}.u{fill:#3ec1f3;}.v{fill:#4756df;}.w{fill:#30242a;}.x{fill:rgba(255,255,255,.25);}.f,.g,.h,.i,.j,.k,.l,.m,.n{stroke-width:4px;}.f,.g,.h,.i,.m,.n{stroke-linecap:round;}.f,.g,.m,.n{stroke-linejoin:round;}.f,.i{stroke:#f5ebdd;}.g,.k{stroke:#a15842;}.h,.i,.j,.k,.l{stroke-miterlimit:10;}.h,.l,.m{stroke:#30242a;}.j{stroke:#ffb7d5;}.n{stroke:#ca7358;}.y{clip-path:url(#d);}.o{stroke:#fff;}</style><clipPath id="d"><rect class="e" x="77.66" y="35.63" width="400.19" height="321.84"/></clipPath></defs><g id="a"/><g id="b"><g id="c"><path class="x" d="M386.81,165.39c45.69,79.56-3.42,99.75-33.69,99.91-46.59,3.63-154.68,20.56-214.35,59.25-74.59,48.36-200.95-71.53-103-107.97,97.95-36.45,39.78-89.06,97.48-167.86C190.94-30.09,307.78-3.66,303.81,59.79c-3.97,63.45,25.88,6.15,83,105.6Z"/><path class="o" d="M401.66,166.31c45.69,79.56-3.42,99.75-33.69,99.91-46.59,3.63-154.68,20.56-214.35,59.25-74.59,48.36-200.95-71.53-103-107.97,97.95-36.45,39.79-89.06,97.48-167.86C205.79-29.16,322.63-2.74,318.66,60.71c-3.97,63.45,25.88,6.15,83,105.6Z"/><g class="y"><g><path class="p" d="M385.86,93h-91.07c-3.52,0-6.36,2.85-6.36,6.35v55.78h103.79v-55.78c0-3.5-2.85-6.35-6.36-6.35h0Z"/><path class="r" d="M338.1,83.78c1.21,0,2.19,.98,2.19,2.18v35.15c0,1.21-.98,2.18-2.19,2.18h-35.62c-1.21,0-2.18-.98-2.19-2.18v-35.16c0-1.2,.98-2.18,2.19-2.18h35.62Zm0-1.48h-35.62c-2.03,0-3.67,1.64-3.68,3.66v35.16c0,2.02,1.65,3.66,3.68,3.66h35.62c2.03,0,3.67-1.64,3.67-3.66v-35.16c0-2.02-1.65-3.66-3.67-3.66Z"/><path class="r" d="M394.48,124.65c1.21,0,2.19,.98,2.19,2.18v35.16c0,1.21-.98,2.18-2.19,2.18h-35.44c-1.21,0-2.19-.98-2.19-2.18v-35.16c0-1.21,.98-2.18,2.19-2.18h35.44Zm0-1.48h-35.44c-2.03,0-3.67,1.64-3.67,3.66v35.16c0,2.02,1.65,3.66,3.67,3.66h35.44c2.03,0,3.67-1.64,3.67-3.66v-35.16c0-2.02-1.65-3.66-3.67-3.66Z"/><path class="r" d="M303.72,133.39c1.21,0,2.19,.98,2.19,2.19v22.55c0,1.21-.98,2.18-2.19,2.18h-20.14c-1.21,0-2.19-.98-2.19-2.18v-22.55c0-1.21,.98-2.18,2.19-2.19h20.14Zm0-1.48h-20.14c-2.03,0-3.67,1.64-3.67,3.66v22.55c0,2.02,1.65,3.66,3.67,3.66h20.14c2.03,0,3.67-1.64,3.67-3.66v-22.55c0-2.02-1.65-3.66-3.67-3.66Z"/><path class="r" d="M336.39,87.29h-32.22v22.49h32.22v-22.49Z"/><path class="u" d="M355.96,102.19h-31.27c-4.61,0-8.35,3.73-8.35,8.33v26.9c0,4.6,3.74,8.33,8.35,8.33h31.27c4.61,0,8.35-3.73,8.35-8.33v-26.9c0-4.6-3.74-8.33-8.35-8.33Z"/><path class="r" d="M310.23,114.57c-.67-.67-1.76-.67-2.43,0l-.37,.37-.37-.37c-.7-.64-1.79-.6-2.44,.1-.6,.66-.6,1.67,0,2.33l.37,.37,2.43,2.43,2.43-2.43,.37-.37c.67-.67,.67-1.76,0-2.43h0Z"/><path class="v" d="M343.1,114.87h-11.62c-2.03,0-3.67,1.64-3.67,3.66v10.88c0,2.02,1.64,3.66,3.67,3.66h11.62c2.03,0,3.67-1.64,3.67-3.66v-10.88c0-2.02-1.64-3.66-3.67-3.66Z"/><path class="v" d="M344.01,125.47l6.72,5.34c.76,.6,1.86,.48,2.46-.28,.25-.31,.38-.7,.38-1.09v-10.69c0-.96-.79-1.75-1.75-1.75-.4,0-.78,.13-1.09,.38l-6.72,5.35c-.76,.6-.88,1.7-.28,2.46,.08,.1,.17,.2,.28,.28h0Z"/><path class="v" d="M390.95,82.31h-101.25c-6.64,0-12.02,5.36-12.02,11.97v70.28c0,6.62,5.38,11.99,12.02,11.99h101.25c6.64,0,12.02-5.37,12.02-11.99V94.28c0-6.61-5.39-11.97-12.02-11.97h0Zm1.27,72.83h-103.79v-55.78c0-3.51,2.85-6.35,6.37-6.35h91.07c3.52,0,6.37,2.84,6.38,6.35l-.02,55.78h0Z"/><path class="v" d="M330.66,161.19h19.33c3.95,0,7.16,3.2,7.16,7.14v21.78c0,3.95-3.21,7.14-7.16,7.14h-36.51c-1.38,0-2.51-1.12-2.51-2.5s1.12-2.5,2.51-2.5h10.01v-23.92c0-3.94,3.21-7.14,7.16-7.14h.01Z"/><path class="u" d="M340.33,170.3c2.47,0,4.47-2,4.47-4.46s-2-4.46-4.47-4.46-4.47,2-4.47,4.46,2,4.46,4.47,4.46Z"/><path class="w" d="M340.33,89.07c.79,0,1.43-.64,1.43-1.43s-.64-1.43-1.43-1.43-1.43,.64-1.43,1.43,.64,1.43,1.43,1.43Z"/><path class="l" d="M357.15,177.26h-33.73"/><path class="r" d="M236.77,197.25h174.9c4.1,0,7.41,3.31,7.41,7.39v152.55H229.35V204.65c0-4.09,3.32-7.39,7.41-7.39Z"/><path class="t" d="M350.12,214.8v25.96h-103.18v-25.96h103.18Zm1.48-1.48h-106.14v28.92h106.14v-28.92Z"/><path class="t" d="M298.53,232.24c2.47,0,4.47-2,4.47-4.46s-2-4.46-4.47-4.46-4.47,2-4.47,4.46,2,4.46,4.47,4.46Z"/><path class="t" d="M350.12,259.78v79.87h-103.18v-79.87h103.18Zm1.48-1.48h-106.14v82.83h106.14v-82.83Z"/><path class="t" d="M283.14,304.18c2.47,0,4.47-2,4.47-4.46s-2-4.46-4.47-4.46-4.47,2-4.47,4.46,2,4.46,4.47,4.46Z"/><path class="t" d="M313.93,304.18c2.47,0,4.47-2,4.47-4.46s-2-4.46-4.47-4.46-4.47,2-4.47,4.46,2,4.46,4.47,4.46Z"/><path class="k" d="M298.8,259.02v81.4"/><path class="t" d="M402.97,213.32h-35.26v127.82h35.26v-127.82Z"/><path class="j" d="M402.97,277.23h-35.44"/><path class="u" d="M97.78,197.25h124.43c4.1,0,7.41,3.31,7.41,7.39v152.55H90.37V204.65c0-4.09,3.32-7.39,7.41-7.39Z"/><path class="w" d="M208.32,242.24H111.67v98.9h96.66v-98.9Z"/><path class="v" d="M208.32,341.14H111.67l-34.01-69.26h96.65l34.01,69.26Z"/><path class="w" d="M145.32,197.25h-33.65l3.58-7.5h26.49l3.58,7.5Z"/><path class="w" d="M208.32,197.25h-33.65l3.58-7.5h26.49l3.58,7.5Z"/><path class="p" d="M118.29,226.53c3.66,0,6.62-2.96,6.62-6.61s-2.97-6.61-6.62-6.61-6.62,2.96-6.62,6.61,2.97,6.61,6.62,6.61Z"/><path class="h" d="M110.95,219.92h5.37"/><path class="p" d="M146.09,226.53c3.66,0,6.62-2.96,6.62-6.61s-2.97-6.61-6.62-6.61-6.62,2.96-6.62,6.61,2.96,6.61,6.62,6.61Z"/><path class="h" d="M146.09,212.61v5.35"/><path class="p" d="M173.9,226.53c3.66,0,6.62-2.96,6.62-6.61s-2.96-6.61-6.62-6.61-6.62,2.96-6.62,6.61,2.97,6.61,6.62,6.61Z"/><path class="h" d="M173.9,212.61v5.35"/><path class="p" d="M201.7,226.53c3.66,0,6.62-2.96,6.62-6.61s-2.97-6.61-6.62-6.61-6.62,2.96-6.62,6.61,2.97,6.61,6.62,6.61Z"/><path class="h" d="M201.7,212.61v5.35"/><path class="w" d="M109.61,285.08h50.47c1.29,0,2.33,1.04,2.33,2.32s-1.04,2.32-2.33,2.32h-50.47c-1.29,0-2.33-1.04-2.33-2.32s1.04-2.32,2.33-2.32Z"/><path class="t" d="M230.43,54.8c-6.6,4.23-2.15,13.21,3.94,13.56,2.33,5.43,2.59,11.53,.72,17.14h9.27l.03-3.89c8.47,2.1,11.6-1.22,13.24-4.21,1.85-3.4,1.3-6.58,.67-10.72,0,0,3.03-1.2,2.8-3.02-.18-1.48-3.41-2.02-3.41-2.02-.05-.65-.08-1.32-.1-2.02-.03-1.86-.17-3.7-.41-5.55-7.12,3.78-15.98,5.74-15.98,5.74,0,0-5.75-8.22-10.76-5.01h0Z"/><path class="t" d="M340.74,189.34c3.88,1.48,6.74-1.02,6.03-2.45-.47-.93-13.9-10.98-27.76-21.19l-15.88,19.74c3.64,1.39,6.05,2.18,6.05,2.18,0,0,3.94,6.07,9.67,9.64,0,0,6.08,14.64,9.3,14.28,2.17-.24-.71-8.57-1.43-12.14,0,0,7.16,12.14,11.81,12.14,1.08,0,2.07-.74,2.15-2.5,0,0,2.36,.65,3.23-1.07,.37-.71,.37-1.79,.37-2.5,0,0,1.85,.51,2.86-.71,1.71-2.05-2.03-8.85-6.4-15.42h0Z"/><path class="s" d="M191.41,126.56c-.19-.16-.4-.34-.63-.53,.21,.18,.41,.35,.63,.53Z"/><path class="s" d="M288.43,143.34s-16.52-37.91-23.27-46.77c-6.81-8.93-20.84-8.44-20.84-8.44l.02-2.63h-9.27s10.01,19.99-8.95,28.56c-7.16,23.21-29.35,17.13-34.72,12.5-2.15,3.93-12.89,21.42-7.16,34.63,5.01,10.35,22.91,8.21,22.91,8.21l3.58-7.5h30.98l11.64-25.33,3.95,9.62s5.02,12.84,15.75,22.85c7.66,7.15,21.98,13.28,30.11,16.39l15.88-19.73c-15.06-11.09-30.6-22.36-30.6-22.36h0Z"/><path class="m" d="M208.44,145.7l-7.37,3.35"/><path class="m" d="M211.09,163.34l-4.81-32.29"/><path class="q" d="M241.7,161.89h14.5l1.08-15.69-3.94-9.64-11.64,25.33Z"/><path class="q" d="M249.44,38.85c-3.61-2.01-9.27-4.01-15.66-2.03-11.72,3.64-13.98,13.77-15.52,20.47-1.07,4.64-2.15,9.98-2.15,9.98,0,0-20.05,1.43-17.9,21.78-10.66,2.43-21.83,16.73-13.26,30.4,1.59,2.47,3.55,4.68,5.82,6.55,.23,.19,.44,.37,.63,.53,5.37,4.64,27.56,10.72,34.72-12.5,18.98-8.57,8.95-28.56,8.95-28.56,1.87-5.61,1.62-11.71-.72-17.14-6.08-.37-10.54-9.33-3.94-13.56,5.01-3.22,10.75,5.03,10.75,5.03,0,0,8.86-1.96,15.98-5.75v-.04s5.7-2.74,7.27-7.82c2.87-9.27-8.94-14.27-14.98-7.36h0Z"/><path class="m" d="M256.72,146.75c-2.03-4.76-5.51-13.21-7.68-20.19"/><path class="m" d="M326.21,199.81l-1.28-2.92"/><path class="m" d="M340.69,208.74c-2.33-3.03-7.16-9.81-11.12-15.06"/><path class="m" d="M344.77,205.05c-2.85-4.17-7.21-10.72-10.17-14.93"/><path class="m" d="M341.59,189.18c-1.34-2.05-2.84-4.28-4.45-6.54"/><path class="n" d="M250.42,38.58c.82,.58,1.74,1.26,2.56,1.94"/><path class="n" d="M215.2,67.69l-.89,4.24"/><path class="n" d="M197.48,89.73c.58,2.93,1.67,5.73,3.24,8.27"/><path class="m" d="M244.17,82.31c-1.42-.5-2.79-1.12-4.1-1.88"/><path class="p" d="M270.52,235.04c-1.64,3.25-5.63,4.56-8.89,2.92-1.26-.64-2.29-1.66-2.92-2.92-1.65,3.25-5.63,4.56-8.89,2.92-1.26-.64-2.29-1.66-2.92-2.92-1.65,3.25-5.62,4.56-8.88,2.92-1.26-.64-2.29-1.66-2.93-2.92-.25,.49-.56,.94-.92,1.36,9.87,26.55,3.78,39.4,.92,65.11-.58,5.45-.74,10.94-.5,16.42h34.25c1.24-10.82,3.81-25.45,5.27-43.58-7.1-.47-12.47-6.6-12-13.69,.45-6.7,5.98-11.92,12.71-11.99h.37c0-3.46-.11-6.86-.28-10.19-1.9-.45-3.5-1.71-4.39-3.44h0Z"/><path class="p" d="M223.27,235.04c-1.65,3.25-5.63,4.56-8.89,2.92-1.26-.64-2.29-1.66-2.93-2.92-1.65,3.25-5.63,4.56-8.89,2.92-1.26-.64-2.29-1.66-2.93-2.92-1.64,3.25-5.62,4.56-8.88,2.92-.44-.22-.86-.49-1.25-.81-3.34,9.8-7.18,12.96-24.24,39.01-4.48,6.88-8.33,14.15-11.52,21.72l30.77,15.6c6.42-10.66,16.18-23.62,24.32-36.6-6.14-3.58-8.21-11.45-4.62-17.58,3.34-5.7,10.47-7.95,16.48-5.2,2.76-6.54,4.74-12.27,5.98-15.9-1.48-.61-2.7-1.72-3.41-3.15Z"/><path class="w" d="M229.98,238.61c.21-.03,.42-.06,.63-.1h.05c.2-.05,.4-.1,.59-.17l.1-.02c.2-.07,.41-.15,.6-.24h.03c.2-.09,.37-.19,.57-.3l.03-.02c.19-.11,.38-.24,.56-.37,.37-.28,.7-.59,1-.94,.36-.41,.67-.87,.92-1.36,1.65,3.25,5.62,4.56,8.88,2.92,1.26-.64,2.29-1.66,2.93-2.92,1.65,3.25,5.63,4.56,8.89,2.92,1.26-.64,2.29-1.66,2.92-2.92,1.65,3.25,5.63,4.56,8.89,2.92,1.26-.64,2.29-1.66,2.93-2.92,.88,1.73,2.48,2.99,4.38,3.45-.55-10.03-1.8-20-3.75-29.86-5.4,1.49-11.19,.71-16.01-2.15-10.27-5.85-12.85-34.49-13.44-44.63h-30.95c-17.9,16.07-17.54,63.91-20.94,74.4-.09,.29-.19,.57-.28,.84,2.81,2.33,6.98,1.94,9.31-.87,.32-.38,.59-.8,.82-1.24,1.65,3.25,5.63,4.56,8.89,2.92,1.26-.64,2.29-1.66,2.92-2.92,1.65,3.25,5.63,4.56,8.89,2.92,1.26-.64,2.29-1.66,2.93-2.92,.72,1.42,1.93,2.53,3.4,3.14,.39,.16,.79,.29,1.19,.37h.06c.17,.03,.34,.06,.52,.08h.14c.2,0,.4,.03,.6,.03s.44,0,.66-.03h.15Z"/><path class="s" d="M240.09,352.56h29.36s1.05-6.92,4.77-11.44c-2.9-2.1-5.26-4.7-5.85-8.91-.5-3.6-.21-8.37,.46-14.28h-34.25c.55,11.71,2.39,23.33,5.51,34.63h0Z"/><path class="s" d="M143.8,331.48l-.92-.46c-.09-.04-.19-.08-.28-.12l27.47,14s4.08-5.57,9.33-7.85c-.7-1.44-1.23-2.95-1.59-4.5-1.01-4.44,1.92-11.14,6.71-19.1l-30.77-15.6c-7.87,18.54-9.95,33.62-9.95,33.62Z"/><path class="w" d="M240.09,352.56h-.9c-1.29-.05-2.37,.95-2.42,2.23-.05,1.28,.95,2.36,2.24,2.41h49.42c0-9.61-8.25-11.78-14.2-16.08-3.71,4.52-4.77,11.44-4.77,11.44h-29.37Z"/><path class="w" d="M170.06,344.92l-27.47-14c-1.17-.41-2.45,.21-2.86,1.38-.37,1.06,.11,2.24,1.12,2.74l43.74,22.16c4.2-8.68-1.81-12.99-5.21-20.13-5.24,2.28-9.32,7.85-9.32,7.85h0Z"/><path class="q" d="M261.93,261.52c0,6.82,5.35,12.46,12.17,12.83,.59-7.29,1-15.16,1.07-23.54v-2.13h-.37c-7.11,0-12.87,5.75-12.87,12.84h0Z"/><path class="q" d="M202.5,265.8c0,4.54,2.41,8.75,6.33,11.06,.89-1.43,1.77-2.85,2.62-4.28,3.5-5.95,6.58-12.13,9.23-18.5-6.49-2.91-14.12-.01-17.03,6.47-.74,1.65-1.13,3.44-1.13,5.25h-.02Z"/><path class="q" d="M255.13,206.52c4.83,2.84,10.62,3.6,16.02,2.09-5.56-28.27-14.95-46.72-14.95-46.72h-14.51c.59,10.15,3.17,38.79,13.44,44.63h0Z"/><path class="m" d="M255.14,70.1c-.62,.32-2.86,.41-3.6-1.37"/><path class="w" d="M253.69,62.3c.59,0,1.07-.48,1.07-1.07s-.48-1.07-1.07-1.07-1.08,.48-1.08,1.07,.48,1.07,1.08,1.07Z"/><path class="m" d="M233.29,60.87l3.58,2.5"/><path class="h" d="M210.38,161.91h45.82"/><path class="g" d="M223.53,162.98s8.38,11.96,4.45,13.25c-3.64,1.19-4.36-7.74-4.45-13.25Z"/><path class="g" d="M223.27,162.98s-4.3,10.72-7.52,8.92c-2.1-1.16,3.22-6.41,7.52-8.92Z"/><path class="w" d="M99.94,160.12h57.63c1.29,0,2.33,1.04,2.33,2.32s-1.04,2.32-2.33,2.32h-57.63c-1.29,0-2.33-1.04-2.33-2.32s1.04-2.32,2.33-2.32Z"/><path class="r" d="M128.76,161.55c-16.83,0-24.34-12.14-24.34-12.14v29.98c.01,5.71,4.65,10.34,10.38,10.35h27.89c5.74,0,10.39-4.63,10.4-10.35v-29.98s-7.5,12.14-24.32,12.14Z"/><path class="t" d="M128.76,161.55c16.82,0,24.34-12.14,24.34-12.14h-48.68s7.52,12.14,24.34,12.14Z"/><path class="w" d="M129.3,149.41c2.47,0,4.47-2,4.47-4.46s-2-4.46-4.47-4.46-4.47,2-4.47,4.46,2,4.46,4.47,4.46Z"/><path class="p" d="M129.65,121.56c3.66,0,6.62-2.96,6.62-6.61s-2.97-6.61-6.62-6.61-6.62,2.96-6.62,6.61,2.97,6.61,6.62,6.61Z"/><path class="p" d="M129.77,101.75c5.39,0,9.76-4.36,9.76-9.73s-4.37-9.73-9.76-9.73-9.76,4.36-9.76,9.73,4.37,9.73,9.76,9.73Z"/><path class="u" d="M455.24,269.74s-3.41,7.65-12.35,7.65-12.34-7.65-12.34-7.65c0,0-25.12,57.33-.43,87.47h25.55c24.69-30.17-.43-87.47-.43-87.47Z"/><path class="w" d="M442.89,277.37c8.94,0,12.35-7.65,12.35-7.65h-24.7s3.41,7.65,12.35,7.65Z"/><path class="f" d="M465.99,320.76c-13.9,.25-30.33,5.25-43,22.92"/><path class="f" d="M420.76,306.71c9.33-2.27,26.99-4.44,44.11-.37"/><path class="f" d="M464.79,335.48c-6.22,.07-17.71,7.1-16.44,21.25"/><path class="l" d="M450.59,213.69l-6.83,59.61"/><path class="l" d="M453.9,237.64l-8.59,35.18"/><path class="w" d="M435.97,253.84c.78-1.82-4.76-5.92-12.37-9.17-7.61-3.25-14.42-4.4-15.2-2.58-.78,1.82,4.76,5.93,12.37,9.17,7.61,3.25,14.42,4.4,15.2,2.58Z"/><path class="w" d="M464.47,256.99c8.03-3.02,14-6.91,13.33-8.69-.67-1.78-7.73-.77-15.76,2.25-8.03,3.02-14,6.91-13.33,8.69,.67,1.78,7.73,.77,15.76-2.25Z"/><path class="w" d="M447.23,244.44c.87-1.19-1.6-4.45-5.5-7.27-3.9-2.82-7.77-4.14-8.64-2.95-.87,1.19,1.6,4.45,5.5,7.27,3.9,2.82,7.77,4.14,8.64,2.95Z"/><path class="l" d="M425.56,223.43l16.79,49.87"/><path class="s" d="M447.18,226.76c2.28-4.95,8.15-7.11,13.11-4.84,4.96,2.28,7.13,8.13,4.85,13.08-.96,2.08-2.62,3.77-4.69,4.76-1.74-6.41-6.82-11.38-13.27-13h0Z"/><path class="i" d="M452.35,232.33c1.33-4.27,4.18-7.91,8-10.24"/><path class="i" d="M454,233.65c2.74-3.56,6.7-5.99,11.12-6.83"/><path class="s" d="M460.45,239.76c-4.92,2.37-10.83,.3-13.2-4.6-1.28-2.65-1.31-5.73-.07-8.4,6.46,1.62,11.53,6.59,13.28,13h0Z"/><path class="s" d="M432,212.48c-2.81-4.67-8.88-6.18-13.56-3.38-4.68,2.8-6.2,8.86-3.39,13.53,1.19,1.97,3.03,3.47,5.21,4.23,1.03-6.56,5.52-12.05,11.75-14.38h0Z"/><path class="i" d="M427.48,218.6c-1.8-4.1-5.03-7.4-9.09-9.29"/><path class="i" d="M425.99,220.08c-3.12-3.24-7.34-5.21-11.83-5.55"/><path class="s" d="M420.25,226.86c5.15,1.81,10.79-.89,12.61-6.03,.98-2.78,.66-5.85-.86-8.36-6.23,2.33-10.73,7.83-11.75,14.39h0Z"/><path class="s" d="M460.06,208.1c.12-5.45-4.2-9.96-9.66-10.08-5.46-.12-9.98,4.19-10.1,9.63-.05,2.29,.7,4.52,2.12,6.33,4.39-5,11.13-7.25,17.65-5.88h0Z"/><path class="i" d="M452.96,210.85c.68-4.42-.28-8.93-2.69-12.71"/><path class="i" d="M450.91,211.31c-.9-4.4-3.4-8.32-7.01-11.01"/><path class="s" d="M442.42,213.99c3.38,4.27,9.6,5,13.89,1.62,2.31-1.82,3.68-4.57,3.76-7.51-6.51-1.36-13.26,.89-17.64,5.88h0Z"/><path class="i" d="M432.37,212.85c-6.23,2.33-10.72,7.82-11.75,14.38"/><path class="i" d="M460.23,208.1c-6.48-1.54-13.28,.53-17.79,5.4"/><path class="i" d="M461.43,239c-2.04-6.32-7.34-11.05-13.86-12.38"/></g></g></g></g></svg>